<svg id="レイヤー_1" data-name="レイヤー 1" xmlns="http://www.w3.org/2000/svg" viewBox="0 0 1185.36094 155.07548"><defs><style>.cls-1{fill:#6cac1a;opacity:0.7;isolation:isolate;}.cls-2{fill:#61ab3e;}.cls-3{fill:#805129;}.cls-4{fill:#b2c935;}.cls-5{fill:#e3f0f6;}.cls-6{fill:#ffbe00;}.cls-7{fill:#96b8ca;}.cls-8{fill:#fef5e6;}.cls-9{fill:#0071bf;}.cls-10{fill:#ec754f;}.cls-11{fill:#dc0017;}.cls-12{fill:#c08d4e;}.cls-13{fill:#302d2c;}.cls-14{fill:#dc000c;}.cls-15{fill:#ceebfb;}.cls-16{fill:#fff;}.cls-17{fill:#8c4d3e;}.cls-18{fill:#007cc4;}.cls-19{fill:#ffd07a;}.cls-20{fill:#f38200;}.cls-21{fill:#82321e;}.cls-22{fill:#6eb254;}.cls-23{fill:#7e4490;}.cls-24{fill:#683b2d;}.cls-25{fill:#211b19;}.cls-26{fill:#597482;}.cls-27{fill:#512e14;}.cls-28{fill:#b40019;}.cls-29{fill:#a6a7a7;}.cls-30{fill:#e03b57;}.cls-31{fill:#00935f;}.cls-32{fill:#006bbe;}.cls-33{fill:#6d3c17;}</style></defs><g id="グループ_93" data-name="グループ 93"><path id="パス_14" data-name="パス 14" class="cls-1" d="M439.65182,232.14855c0-16.60974-98.27386-30.07663-219.50572-30.07663S.63906,215.53883.63906,232.14855s98.28163,30.07209,219.507,30.07209S439.65182,248.75891,439.65182,232.14855Z" transform="translate(-0.63906 -122.12466)"/><path id="パス_15" data-name="パス 15" class="cls-1" d="M776.66672,232.14855c0-16.60974-86.61566-30.07663-193.46371-30.07663s-193.46369,13.46691-193.46369,30.07663,86.61311,30.07209,193.46369,30.07209S776.66672,248.75891,776.66672,232.14855Z" transform="translate(-0.63906 -122.12466)"/><g id="グループ_14" data-name="グループ 14"><path id="パス_16" data-name="パス 16" class="cls-2" d="M424.43173,159.33684c-1.531-9.87014-8.044-36.32352-21.08922-37.20495-.06458,0-.122-.00839-.215-.00709a.5815.5815,0,0,0-.18469.02646c-13.29255.86078-19.5756,27.42909-21.08793,37.18558a83.24439,83.24439,0,0,0-.94343,12.65651c-.00451,11.47479,3.30295,25.04956,15.46741,29.18294a23.8221,23.8221,0,0,0,6.56523.8769h.1989a1.83091,1.83091,0,0,0,.1989-.00454,23.56385,23.56385,0,0,0,6.56395-.86917c12.15992-4.13275,15.47322-17.70748,15.46611-29.18292A83.05608,83.05608,0,0,0,424.43173,159.33684Z" transform="translate(-0.63906 -122.12466)"/><g id="グループ_13" data-name="グループ 13"><g id="グループ_12" data-name="グループ 12"><path id="パス_17" data-name="パス 17" class="cls-3" d="M406.56862,220.72737H399.479l2.29948-63.20373h2.72309Z" transform="translate(-0.63906 -122.12466)"/><path id="パス_18" data-name="パス 18" class="cls-3" d="M404.54489,190.34206l7.89934-5.06325,1.0151,1.41545-9.52337,8.71426Z" transform="translate(-0.63906 -122.12466)"/><path id="パス_19" data-name="パス 19" class="cls-3" d="M404.13872,175.34928l5.67153-3.24226,5.26794-5.87624,1.21592,1.21528-5.26859,6.68664-7.4951,6.686Z" transform="translate(-0.63906 -122.12466)"/><path id="パス_20" data-name="パス 20" class="cls-3" d="M402.113,165.42231l-4.66031-5.4707-2.02633.81041,6.27917,10.53589Z" transform="translate(-0.63906 -122.12466)"/><path id="パス_21" data-name="パス 21" class="cls-3" d="M402.92343,185.07282l-7.29686-7.08958-3.64519-4.4556-1.82486.60764,3.64908,5.67411,9.11526,10.534Z" transform="translate(-0.63906 -122.12466)"/></g></g></g><g id="グループ_17" data-name="グループ 17"><path id="パス_22" data-name="パス 22" class="cls-2" d="M712.89346,159.33684c-1.531-9.87014-8.0414-36.32352-21.08922-37.20495-.0607,0-.12206-.00839-.21244-.00709a.58837.58837,0,0,0-.186.02646c-13.29062.86078-19.57561,27.42909-21.08922,37.18558a83.05039,83.05039,0,0,0-.94343,12.65651c-.00581,11.47479,3.30619,25.04956,15.46871,29.18294a23.8343,23.8343,0,0,0,6.56717.8769h.19761a1.79744,1.79744,0,0,0,.19762-.00454,23.57447,23.57447,0,0,0,6.56523-.86917c12.15993-4.13275,15.47195-17.70748,15.46741-29.18292A83.44264,83.44264,0,0,0,712.89346,159.33684Z" transform="translate(-0.63906 -122.12466)"/><g id="グループ_16" data-name="グループ 16"><g id="グループ_15" data-name="グループ 15"><path id="パス_23" data-name="パス 23" class="cls-3" d="M695.0491,220.72737h-7.09151l2.29883-63.20373h2.72567Z" transform="translate(-0.63906 -122.12466)"/><path id="パス_24" data-name="パス 24" class="cls-3" d="M693.026,190.34206l7.90257-5.06325,1.01381,1.41545-9.52531,8.71426Z" transform="translate(-0.63906 -122.12466)"/><path id="パス_25" data-name="パス 25" class="cls-3" d="M692.61981,175.34928,698.292,172.107l5.266-5.87624,1.2153,1.21528-5.266,6.68664-7.49512,6.686Z" transform="translate(-0.63906 -122.12466)"/><path id="パス_26" data-name="パス 26" class="cls-3" d="M690.5922,165.42231l-4.661-5.4707-2.0244.81041,6.27983,10.53589Z" transform="translate(-0.63906 -122.12466)"/><path id="パス_27" data-name="パス 27" class="cls-3" d="M691.40132,185.07282l-7.29685-7.08958-3.64457-4.4556-1.82292.60764,3.64715,5.67411,9.11463,10.534Z" transform="translate(-0.63906 -122.12466)"/></g></g></g><g id="グループ_21" data-name="グループ 21"><path id="パス_28" data-name="パス 28" class="cls-4" d="M465.43686,160.0872c0-19.336-10.8297-35.00813-24.18425-35.00813s-24.18555,15.6721-24.18555,35.00813,10.82777,35.00361,24.18555,35.00361S465.43686,179.42,465.43686,160.0872Z" transform="translate(-0.63906 -122.12466)"/><g id="グループ_20" data-name="グループ 20"><g id="グループ_19" data-name="グループ 19"><g id="グループ_18" data-name="グループ 18"><path id="パス_29" data-name="パス 29" class="cls-3" d="M444.801,220.72671h-7.09347l2.30014-63.20373h2.72114Z" transform="translate(-0.63906 -122.12466)"/><path id="パス_30" data-name="パス 30" class="cls-3" d="M440.552,169.29479l-4.93151-5.093-1.75254.47914,6.28048,9.33935Z" transform="translate(-0.63906 -122.12466)"/></g><path id="パス_31" data-name="パス 31" class="cls-3" d="M442.77525,180.7993l7.90126-5.06518,1.00929,1.42063-9.52273,8.71168Z" transform="translate(-0.63906 -122.12466)"/></g><path id="パス_32" data-name="パス 32" class="cls-3" d="M442.53053,167.56163l7.3356-7.05728,1.2579.93891-8.3843,10.59013Z" transform="translate(-0.63906 -122.12466)"/></g></g><g id="グループ_24" data-name="グループ 24"><path id="パス_33" data-name="パス 33" class="cls-2" d="M53.87257,159.33684c-1.52911-9.87014-8.04269-36.32352-21.09051-37.20495-.06457,0-.12205-.00839-.21374-.00709a.58147.58147,0,0,0-.18468.02646c-13.29256.86078-19.57561,27.42909-21.08922,37.18558a83.05373,83.05373,0,0,0-.94214,12.65651c-.00581,11.47479,3.30619,25.04956,15.46741,29.18294a23.82207,23.82207,0,0,0,6.56524.8769h.19888a1.78718,1.78718,0,0,0,.1976-.00454,23.57362,23.57362,0,0,0,6.56718-.86787C51.5111,197.048,54.8231,183.4733,54.81729,171.99786A83.24358,83.24358,0,0,0,53.87257,159.33684Z" transform="translate(-0.63906 -122.12466)"/><g id="グループ_23" data-name="グループ 23"><g id="グループ_22" data-name="グループ 22"><path id="パス_34" data-name="パス 34" class="cls-3" d="M36.36269,220.72737H29.27117l2.29755-63.20373h2.72373Z" transform="translate(-0.63906 -122.12466)"/><path id="パス_35" data-name="パス 35" class="cls-3" d="M34.33507,190.34206l7.90256-5.06325,1.01252,1.41545-9.52208,8.71426Z" transform="translate(-0.63906 -122.12466)"/><path id="パス_36" data-name="パス 36" class="cls-3" d="M33.93019,175.34928l5.67218-3.24226,5.2673-5.87624,1.21528,1.21528-5.2673,6.68664-7.49446,6.686Z" transform="translate(-0.63906 -122.12466)"/><path id="パス_37" data-name="パス 37" class="cls-3" d="M31.90385,165.42231l-4.659-5.4707-2.02633.81041L31.499,171.29791Z" transform="translate(-0.63906 -122.12466)"/><path id="パス_38" data-name="パス 38" class="cls-3" d="M32.71555,185.07282l-7.29686-7.08958-3.6465-4.4556-1.82357.60764,3.6465,5.67411,9.11784,10.534Z" transform="translate(-0.63906 -122.12466)"/></g></g></g><g id="グループ_28" data-name="グループ 28"><g id="グループ_25" data-name="グループ 25"><path id="パス_39" data-name="パス 39" class="cls-5" d="M63.95322,167.10962l7.14963,5.84847,60.44514-1.95143,3.57352-4.54859-36.073-26.3223Z" transform="translate(-0.63906 -122.12466)"/><rect id="長方形_14" data-name="長方形 14" class="cls-5" x="60.55103" y="44.6608" width="76.69453" height="53.94059"/></g><g id="グループ_26" data-name="グループ 26"><rect id="長方形_15" data-name="長方形 15" class="cls-6" x="48.7664" y="153.57401" width="58.30711" height="5.54516" transform="translate(-78.97255 -43.88465) rotate(-36.95013)"/><rect id="長方形_16" data-name="長方形 16" class="cls-6" x="118.37643" y="127.1798" width="5.54516" height="58.30711" transform="translate(-77.25031 37.05097) rotate(-53.04987)"/></g><rect id="長方形_17" data-name="長方形 17" class="cls-7" x="93.14217" y="74.55791" width="11.51161" height="24.04348"/><rect id="長方形_18" data-name="長方形 18" class="cls-7" x="95.48621" y="30.68569" width="6.82483" height="6.82547"/><g id="グループ_27" data-name="グループ 27"><rect id="長方形_19" data-name="長方形 19" class="cls-7" x="73.23078" y="50.50797" width="6.82418" height="6.82612"/><rect id="長方形_20" data-name="長方形 20" class="cls-7" x="88.06795" y="50.50797" width="6.82547" height="6.82612"/><rect id="長方形_21" data-name="長方形 21" class="cls-7" x="102.90511" y="50.50797" width="6.82418" height="6.82612"/><rect id="長方形_22" data-name="長方形 22" class="cls-7" x="117.74228" y="50.50797" width="6.82418" height="6.82612"/></g><rect id="長方形_23" data-name="長方形 23" class="cls-7" x="73.23078" y="72.92871" width="10.72316" height="14.62407"/><rect id="長方形_24" data-name="長方形 24" class="cls-7" x="113.84201" y="72.92871" width="10.72445" height="14.62407"/></g><g id="グループ_33" data-name="グループ 33"><rect id="長方形_25" data-name="長方形 25" class="cls-7" x="171.5744" y="26.40185" width="27.4052" height="17.78949"/><g id="グループ_29" data-name="グループ 29"><path id="パス_40" data-name="パス 40" class="cls-8" d="M166.0079,167.11026l10.39641,5.84847,87.89941-1.95143,5.1982-4.54859-52.456-26.3223Z" transform="translate(-0.63906 -122.12466)"/><rect id="長方形_26" data-name="長方形 26" class="cls-8" x="161.35169" y="44.66144" width="111.52897" height="53.94059"/></g><g id="グループ_30" data-name="グループ 30"><path id="パス_41" data-name="パス 41" class="cls-9" d="M154.84564,176.09766l-2.73987-5.58048,65.63559-33.93169,4.85273,4.42718Z" transform="translate(-0.63906 -122.12466)"/><path id="パス_42" data-name="パス 42" class="cls-9" d="M280.49437,175.97369l2.90906-5.27247L217.7123,136.58549l-4.8521,4.42718Z" transform="translate(-0.63906 -122.12466)"/></g><rect id="長方形_27" data-name="長方形 27" class="cls-7" x="211.2125" y="73.28386" width="11.80606" height="25.31753"/><g id="グループ_32" data-name="グループ 32"><g id="グループ_31" data-name="グループ 31"><rect id="長方形_28" data-name="長方形 28" class="cls-7" x="183.8596" y="48.37961" width="11.59297" height="14.62472"/><rect id="長方形_29" data-name="長方形 29" class="cls-7" x="211.31905" y="48.37961" width="11.59362" height="14.62472"/><rect id="長方形_30" data-name="長方形 30" class="cls-7" x="238.77849" y="48.37961" width="11.59491" height="14.62472"/><rect id="長方形_31" data-name="長方形 31" class="cls-7" x="183.8596" y="73.47758" width="11.59297" height="14.61955"/><rect id="長方形_32" data-name="長方形 32" class="cls-7" x="238.77849" y="73.47758" width="11.59491" height="14.61955"/></g></g></g><g id="グループ_39" data-name="グループ 39"><g id="グループ_38" data-name="グループ 38"><rect id="長方形_33" data-name="長方形 33" class="cls-7" x="358.90612" y="10.53537" width="12.0198" height="27.88628"/><g id="グループ_34" data-name="グループ 34"><path id="パス_43" data-name="パス 43" class="cls-5" d="M298.02877,155.0911l7.14835,5.84717,60.44577-1.94819,3.57483-4.54988-36.073-26.32553Z" transform="translate(-0.63906 -122.12466)"/><rect id="長方形_34" data-name="長方形 34" class="cls-5" x="294.62594" y="32.63905" width="76.69583" height="65.96234"/></g><g id="グループ_35" data-name="グループ 35"><rect id="長方形_35" data-name="長方形 35" class="cls-10" x="282.83904" y="141.54645" width="58.31936" height="5.54626" transform="translate(-24.69637 94.5668) rotate(-36.977)"/><rect id="長方形_36" data-name="長方形 36" class="cls-10" x="352.45703" y="115.15069" width="5.54516" height="58.3084" transform="translate(25.73249 219.32068) rotate(-53.04987)"/></g><rect id="長方形_37" data-name="長方形 37" class="cls-7" x="327.21773" y="74.5579" width="11.5129" height="24.04348"/><g id="グループ_36" data-name="グループ 36"><rect id="長方形_38" data-name="長方形 38" class="cls-7" x="308.59007" y="38.48881" width="13.73231" height="11.31207"/><rect id="長方形_39" data-name="長方形 39" class="cls-7" x="343.62533" y="38.48881" width="13.73166" height="11.31207"/></g><g id="グループ_37" data-name="グループ 37"><rect id="長方形_40" data-name="長方形 40" class="cls-7" x="308.59007" y="57.76738" width="13.73231" height="11.31207"/><rect id="長方形_41" data-name="長方形 41" class="cls-7" x="343.62533" y="57.76738" width="13.73166" height="11.31207"/></g></g><path id="パス_44" data-name="パス 44" class="cls-7" d="M338.87184,144.35955a5.28894,5.28894,0,1,0,0,.00321Z" transform="translate(-0.63906 -122.12466)"/></g><g id="グループ_45" data-name="グループ 45"><g id="グループ_40" data-name="グループ 40"><path id="パス_45" data-name="パス 45" class="cls-8" d="M467.42251,167.10962l7.1477,5.84847,60.44642-1.95143,3.57417-4.5486-36.073-26.32229Z" transform="translate(-0.63906 -122.12466)"/><rect id="長方形_42" data-name="長方形 42" class="cls-8" x="464.01773" y="44.66079" width="76.69324" height="53.94059"/></g><g id="グループ_41" data-name="グループ 41"><rect id="長方形_43" data-name="長方形 43" class="cls-11" x="452.22908" y="153.56786" width="58.31936" height="5.54497" transform="matrix(0.79925, -0.60099, 0.60099, 0.79925, 2.03808, 198.57087)"/><rect id="長方形_44" data-name="長方形 44" class="cls-11" x="521.84438" y="127.18067" width="5.54691" height="58.31936" transform="translate(83.45931 359.19074) rotate(-53.011)"/></g><g id="グループ_42" data-name="グループ 42"><rect id="長方形_45" data-name="長方形 45" class="cls-7" x="481.13629" y="48.53846" width="7.84057" height="14.62278"/><rect id="長方形_46" data-name="長方形 46" class="cls-7" x="498.44471" y="48.53846" width="7.83864" height="14.62278"/><rect id="長方形_47" data-name="長方形 47" class="cls-7" x="515.75247" y="48.53846" width="7.84122" height="14.62278"/></g><g id="グループ_43" data-name="グループ 43"><rect id="長方形_48" data-name="長方形 48" class="cls-7" x="481.13629" y="73.76687" width="7.84057" height="14.61891"/><rect id="長方形_49" data-name="長方形 49" class="cls-7" x="515.75247" y="73.76687" width="7.84122" height="14.61891"/></g><g id="グループ_44" data-name="グループ 44"><rect id="長方形_50" data-name="長方形 50" class="cls-7" x="496.60887" y="73.46725" width="11.51096" height="25.13414"/></g></g><g id="グループ_49" data-name="グループ 49"><g id="グループ_48" data-name="グループ 48"><g id="グループ_46" data-name="グループ 46"><path id="パス_46" data-name="パス 46" class="cls-5" d="M562.59555,167.11026l7.15158,5.84847,86.14169.24925-8.65294-5.77034-49.54375-27.30123Z" transform="translate(-0.63906 -122.12466)"/><path id="パス_47" data-name="パス 47" class="cls-5" d="M643.66948,166.78674H559.835v53.93994H662.94287V177.14246C655.80165,174.91788,649.8757,170.96791,643.66948,166.78674Z" transform="translate(-0.63906 -122.12466)"/></g><g id="グループ_47" data-name="グループ 47"><rect id="長方形_51" data-name="長方形 51" class="cls-12" x="547.41014" y="153.57439" width="58.30775" height="5.5458" transform="translate(21.17517 255.86023) rotate(-36.95013)"/><path id="パス_48" data-name="パス 48" class="cls-12" d="M667.62062,182.76559l3.33523-4.43107-72.78715-41.749-3.33654,4.42718Z" transform="translate(-0.63906 -122.12466)"/></g></g><rect id="長方形_52" data-name="長方形 52" class="cls-7" x="591.78708" y="73.46789" width="11.51419" height="25.13414"/><rect id="長方形_53" data-name="長方形 53" class="cls-7" x="612.94152" y="73.46789" width="14.47749" height="14.47168"/><rect id="長方形_54" data-name="長方形 54" class="cls-7" x="576.34614" y="44.21265" width="8.80079" height="11.09833"/><rect id="長方形_55" data-name="長方形 55" class="cls-7" x="597.18546" y="44.21265" width="8.80273" height="11.09833"/><rect id="長方形_56" data-name="長方形 56" class="cls-7" x="618.02865" y="44.21265" width="8.79692" height="11.09833"/><rect id="長方形_57" data-name="長方形 57" class="cls-7" x="569.16487" y="73.46789" width="14.47749" height="14.47168"/><rect id="長方形_58" data-name="長方形 58" class="cls-7" x="635.45331" y="73.46789" width="14.47426" height="14.47168"/></g><g id="グループ_54" data-name="グループ 54"><g id="グループ_50" data-name="グループ 50"><path id="パス_49" data-name="パス 49" class="cls-13" d="M711.40563,222.06209a2.44219,2.44219,0,0,1-2.44091,2.43962h0a2.4383,2.4383,0,0,1-2.44092-2.43571v-6.14618a2.43961,2.43961,0,0,1,2.43831-2.4409h.00261a2.44348,2.44348,0,0,1,2.44091,2.4409Z" transform="translate(-0.63906 -122.12466)"/><path id="パス_50" data-name="パス 50" class="cls-13" d="M744.277,222.06209a2.44285,2.44285,0,0,1-2.44284,2.43962h0a2.44023,2.44023,0,0,1-2.44092-2.4396v-6.14229a2.44155,2.44155,0,0,1,2.44092-2.4409h0a2.44349,2.44349,0,0,1,2.44284,2.4409Z" transform="translate(-0.63906 -122.12466)"/></g><g id="グループ_51" data-name="グループ 51"><path id="パス_51" data-name="パス 51" class="cls-14" d="M743.99872,207.1668c-.24278-.79813-.44749-1.45549-.45912-1.45549s-.12915-.67481-.25315-1.502l-1.4161-9.19081a1.83329,1.83329,0,0,0-1.7519-1.50329H710.89679a1.85975,1.85975,0,0,0-1.77382,1.4994l-1.53363,9.28121c-.13818.8259-.24408,1.49878-.237,1.49878s-.20081.65155-.45652,1.44775l-1.316,4.06041a11.5237,11.5237,0,0,0-.46945,2.9704V218.271a1.52522,1.52522,0,0,0,1.51944,1.52072h37.53364a1.52652,1.52652,0,0,0,1.5207-1.52072v-3.99779a12.55576,12.55576,0,0,0-.4391-2.9775Z" transform="translate(-0.63906 -122.12466)"/><path id="パス_52" data-name="パス 52" class="cls-15" d="M710.2659,205.91214a.96865.96865,0,0,1-.98153-1.1294l1.22692-8.618a1.35606,1.35606,0,0,1,1.29664-1.12811h27.29993a1.34056,1.34056,0,0,1,1.29148,1.13134l1.14424,8.61417a.97833.97833,0,0,1-.99187,1.1307Z" transform="translate(-0.63906 -122.12466)"/></g><g id="グループ_52" data-name="グループ 52"><path id="パス_53" data-name="パス 53" class="cls-14" d="M747.21319,206.70834c0,1.13975-1.205,2.06185-2.68949,2.06185s-2.68949-.92147-2.68949-2.06185,1.20366-2.06119,2.68949-2.06119S747.21319,205.5673,747.21319,206.70834Z" transform="translate(-0.63906 -122.12466)"/><path id="パス_54" data-name="パス 54" class="cls-14" d="M708.96471,206.70834c0,1.13975-1.20367,2.06185-2.68949,2.06185s-2.6895-.92147-2.6895-2.06185,1.205-2.06119,2.6895-2.06119S708.96471,205.5673,708.96471,206.70834Z" transform="translate(-0.63906 -122.12466)"/></g><g id="グループ_53" data-name="グループ 53"><path id="パス_55" data-name="パス 55" class="cls-16" d="M712.64677,214.3442a2.95236,2.95236,0,1,0-2.922,2.5255A2.74066,2.74066,0,0,0,712.64677,214.3442Z" transform="translate(-0.63906 -122.12466)"/><path id="パス_56" data-name="パス 56" class="cls-16" d="M743.99356,214.3442a2.95348,2.95348,0,1,0-2.92392,2.5255A2.74128,2.74128,0,0,0,743.99356,214.3442Z" transform="translate(-0.63906 -122.12466)"/></g><rect id="長方形_59" data-name="長方形 59" class="cls-16" x="719.58027" y="92.35322" width="10.35831" height="4.45109"/></g><g id="グループ_59" data-name="グループ 59"><g id="グループ_55" data-name="グループ 55"><path id="パス_57" data-name="パス 57" class="cls-13" d="M134.02763,226.94519a2.43831,2.43831,0,0,1-2.437,2.43961h-.00389a2.4383,2.4383,0,0,1-2.4396-2.437V220.8055a2.44089,2.44089,0,0,1,2.43959-2.4422h0a2.44089,2.44089,0,0,1,2.4409,2.44089v6.141Z" transform="translate(-0.63906 -122.12466)"/><path id="パス_58" data-name="パス 58" class="cls-13" d="M166.89837,226.94519a2.43959,2.43959,0,0,1-2.43959,2.43961h-.0013a2.43831,2.43831,0,0,1-2.43961-2.437V220.8055a2.44089,2.44089,0,0,1,2.4396-2.4422h0a2.44153,2.44153,0,0,1,2.44089,2.4422h0Z" transform="translate(-0.63906 -122.12466)"/></g><g id="グループ_57" data-name="グループ 57"><path id="パス_59" data-name="パス 59" class="cls-9" d="M166.62264,212.04925c-.2428-.80071-.452-1.4555-.46106-1.4555s-.122-.67609-.24989-1.50328l-1.42063-9.19405a1.83326,1.83326,0,0,0-1.75189-1.502H133.5175a1.85975,1.85975,0,0,0-1.76933,1.49877l-1.53557,9.28575c-.13818.82589-.2428,1.50005-.237,1.50005s-.1976.64962-.45783,1.44645l-1.31409,4.05913a11.535,11.535,0,0,0-.47074,2.97041v3.99648a1.52588,1.52588,0,0,0,1.52072,1.522h37.53363a1.52524,1.52524,0,0,0,1.52072-1.522V219.155a12.43143,12.43143,0,0,0-.4404-2.97751Z" transform="translate(-0.63906 -122.12466)"/><path id="パス_60" data-name="パス 60" class="cls-15" d="M132.88919,210.7933a.96471.96471,0,0,1-.97958-1.1294l1.2269-8.61675a1.356,1.356,0,0,1,1.30117-1.13262h27.29865a1.34055,1.34055,0,0,1,1.29148,1.13392l1.141,8.61547a.97378.97378,0,0,1-.98993,1.1294Z" transform="translate(-0.63906 -122.12466)"/><g id="グループ_56" data-name="グループ 56"><rect id="長方形_60" data-name="長方形 60" class="cls-16" x="128.79025" y="95.94353" width="5.84395" height="3.07501"/><rect id="長方形_61" data-name="長方形 61" class="cls-16" x="160.13511" y="95.94353" width="5.84459" height="3.07501"/></g></g><g id="グループ_58" data-name="グループ 58"><path id="パス_61" data-name="パス 61" class="cls-9" d="M169.83649,211.59014c0,1.13714-1.20237,2.06637-2.6895,2.06637s-2.6895-.92728-2.6895-2.06637,1.20365-2.06315,2.6895-2.06315S169.83649,210.44847,169.83649,211.59014Z" transform="translate(-0.63906 -122.12466)"/><path id="パス_62" data-name="パス 62" class="cls-9" d="M131.588,211.59014c0,1.13714-1.20495,2.06637-2.68951,2.06637s-2.68821-.92728-2.68821-2.06637,1.20236-2.06315,2.68821-2.06315S131.588,210.44847,131.588,211.59014Z" transform="translate(-0.63906 -122.12466)"/></g><rect id="長方形_62" data-name="長方形 62" class="cls-16" x="142.20356" y="97.23437" width="10.36025" height="4.44786"/></g><g id="グループ_61" data-name="グループ 61"><g id="グループ_60" data-name="グループ 60"><path id="パス_63" data-name="パス 63" class="cls-17" d="M246.1326,246.24569a4.26576,4.26576,0,0,1-2.26332,2.4538,4.68425,4.68425,0,0,1-3.354-.16013,45.11452,45.11452,0,0,1,3.9487-2.29884c.567-.25829.25313-.596.90016-.596" transform="translate(-0.63906 -122.12466)"/><path id="パス_64" data-name="パス 64" class="cls-17" d="M255.94332,245.30614a6.73892,6.73892,0,0,1-2.39311,2.982c1.39868.61346,3.87444.09169,4.46207-1.429.23376-.60635.21955-2.77668-.87239-2.15161" transform="translate(-0.63906 -122.12466)"/><path id="パス_65" data-name="パス 65" class="cls-18" d="M248.33134,223.64416c-.89693,4.24056-2.89485,8.19251-3.88025,12.46277-.69482,3.0182-1.97983,6.6763-1.78676,9.74617a22.94179,22.94179,0,0,0,4.568.74131c.59731-7.07988.68448-13.9002,3.36107-20.56875.36356,5.1698.65414,9.59957,2.5778,14.61245.40294,1.03318.81686,3.83826,1.60079,4.5402,1.3257,1.18495,2.95684-.19372,4.825-.935-3.45858-2.43832-3.66974-8.97192-4.30063-12.5377-.65413-3.70849-2.40021-7.17288-2.87548-10.89621a2.57515,2.57515,0,0,0-1.77062.20083" transform="translate(-0.63906 -122.12466)"/><rect id="長方形_63" data-name="長方形 63" class="cls-19" x="248.49299" y="83.99669" width="2.0612" height="2.59781"/><path id="パス_66" data-name="パス 66" class="cls-19" d="M253.27965,203.253c.27766-2.20391-.935-3.9952-2.70566-3.9952s-3.434,1.79-3.70848,3.9952.93632,3.99778,2.70694,3.99971S253.00456,205.4627,253.27965,203.253Z" transform="translate(-0.63906 -122.12466)"/><path id="パス_67" data-name="パス 67" class="cls-16" d="M251.983,225.82934c.38745-.122,1.80808-.122,1.97144-.452.3416-.68642-.43458-2.50483-.65413-3.22031a15.95844,15.95844,0,0,1-.7426-3.91641c-.15239-1.76351.11172-3.41209-.15239-5.19045a14.87832,14.87832,0,0,1-.10784-2.71728c.01162-.48238.34611-.96861.09621-1.39415a1.845,1.845,0,0,1-.44491-.74132c-.13367-.33578-.34869-1.522-.62249-1.09065-.547.85754-2.30594,1.06547-2.807,1.09065-.21051,1.49617-.94794,4.0036-1.15006,5.51009a21.81511,21.81511,0,0,0,.35645,4.94444c.20083,1.96434-.84334,5.6076-.21374,7.56419.11172-.122.8272-.01291.96538-.07878Z" transform="translate(-0.63906 -122.12466)"/><path id="パス_68" data-name="パス 68" class="cls-20" d="M255.37055,228.781a10.41947,10.41947,0,0,0-1.03319,2.81156c-.09622.61346-.44362,1.54977-.09622,2.13869a6.80607,6.80607,0,0,0,.59731-1.9624,8.01866,8.01866,0,0,1,.4856-2.22263c1.03319-1.45356,2.31756,2.9252,2.10834,3.80986.53338-1.336.25829-1.55558-.21955-2.829a14.56472,14.56472,0,0,1-.83042-2.07735c-.43781-.01744-1.01058-.15563-1.18041.2428" transform="translate(-0.63906 -122.12466)"/><path id="パス_69" data-name="パス 69" class="cls-19" d="M256.2268,226.98392c.42748,1.40578.64574,2.60364-.6296,3.66975-.54952-.7342.0465-1.43612.09622-2.18776a2.8076,2.8076,0,0,1-.56568.64574c.00711-.41845.41134-2.18777.76068-2.20521" transform="translate(-0.63906 -122.12466)"/><path id="パス_70" data-name="パス 70" class="cls-16" d="M252.37174,208.53a1.16222,1.16222,0,0,0-.7284-.237c-.904.02325-.86916,1.1352-.84462,1.79838.16014,4.30645,3.29327,7.98587,3.8557,12.28778a40.82776,40.82776,0,0,1,.40294,5.6076c1.96564-.20082,1.7435-1.43612,1.48521-3.1157-.28929-1.82743-.93633-3.58064-1.25145-5.40807-.36937-2.14128-.74583-4.39749-1.23724-6.55814C253.74975,211.57011,253.56055,209.40107,252.37174,208.53Z" transform="translate(-0.63906 -122.12466)"/><path id="パス_71" data-name="パス 71" class="cls-19" d="M243.54964,224.81746c-.56567.59344-2.26009.86078-1.87264,1.66149.61087,1.26178,1.49876-.04521,2.0018-.48238a5.26478,5.26478,0,0,0,.20082.76455,9.493,9.493,0,0,1,.64574-1.61435" transform="translate(-0.63906 -122.12466)"/><path id="パス_72" data-name="パス 72" class="cls-16" d="M249.9218,211.55267a70.30517,70.30517,0,0,0-2.70823,9.39616c-.42167,2.08638-2.17485,3.992-3.29844,5.7529-.37066-1.97985-.60506-1.82293.46106-3.79761a28.15059,28.15059,0,0,0,1.78676-3.66975,24.12612,24.12612,0,0,0,.91437-3.74528c.28089-1.43936.95376-2.81479,1.16233-4.26189" transform="translate(-0.63906 -122.12466)"/><path id="パス_73" data-name="パス 73" class="cls-20" d="M258.75166,231.20254a51.42285,51.42285,0,0,1,.27185,5.84847c-.02453,1.10616-.01162,2.25362-1.0222,2.92069a6.72674,6.72674,0,0,1-3.93.93891c-1.5995-.22406-1.429-1.832-1.34766-3.09955a11.34248,11.34248,0,0,0-.46235-4.65384Z" transform="translate(-0.63906 -122.12466)"/></g><path id="パス_74" data-name="パス 74" class="cls-21" d="M254.06487,206.64957a5.57967,5.57967,0,0,1-.32287-2.09349,14.8705,14.8705,0,0,0,.26281-2.20972,4.33679,4.33679,0,0,0-1.646-3.12989,2.28125,2.28125,0,0,0-.89822-.38745,3.05816,3.05816,0,0,0-1.84811.16273,4.78176,4.78176,0,0,0-2.25041,2.32467,7.81652,7.81652,0,0,0-.34482.80136.745.745,0,0,1-.08007.21632,16.36651,16.36651,0,0,0,1.08614-1.2269c.1892-.28929.29252-.452.29252-.452a3.84809,3.84809,0,0,0,.39843.813,4.19732,4.19732,0,0,0,.74,1.019,3.42226,3.42226,0,0,0,.65543.46235s.35774.20923.4927.28671c.04521.02647.06458.15562.09169.29641a8.76513,8.76513,0,0,0,.70064,2.19551,4.81215,4.81215,0,0,0,1.95077,2.377,11.06771,11.06771,0,0,0,1.3044.64574A14.65773,14.65773,0,0,0,254.06487,206.64957Z" transform="translate(-0.63906 -122.12466)"/></g><path id="パス_75" data-name="パス 75" class="cls-1" d="M1186,232.14855c0-16.60974-98.27583-30.07663-219.5057-30.07663s-219.507,13.46691-219.507,30.07663,98.28162,30.07209,219.507,30.07209C1087.71967,262.22064,1186,248.75891,1186,232.14855Z" transform="translate(-0.63906 -122.12466)"/><g id="グループ_65" data-name="グループ 65"><g id="グループ_64" data-name="グループ 64"><g id="グループ_62" data-name="グループ 62"><path id="パス_76" data-name="パス 76" class="cls-5" d="M1047.1142,167.11026l7.15288,5.84847,86.14172.24925-8.65293-5.77034-49.54375-27.30123Z" transform="translate(-0.63906 -122.12466)"/><path id="パス_77" data-name="パス 77" class="cls-5" d="M1128.18818,166.78674h-83.83449v53.93994h103.10788V177.14246C1140.32225,174.91788,1134.395,170.96791,1128.18818,166.78674Z" transform="translate(-0.63906 -122.12466)"/></g><g id="グループ_63" data-name="グループ 63"><rect id="長方形_64" data-name="長方形 64" class="cls-22" x="1031.92683" y="153.56742" width="58.31871" height="5.54626" transform="translate(118.52577 547.1783) rotate(-36.954)"/><path id="パス_78" data-name="パス 78" class="cls-22" d="M1152.14,182.76559l3.33523-4.43107-72.78518-41.749-3.33654,4.42718Z" transform="translate(-0.63906 -122.12466)"/></g></g><rect id="長方形_65" data-name="長方形 65" class="cls-7" x="1076.30705" y="73.46789" width="11.51419" height="25.13414"/><rect id="長方形_66" data-name="長方形 66" class="cls-7" x="1097.46085" y="73.46789" width="14.47749" height="14.47168"/><rect id="長方形_67" data-name="長方形 67" class="cls-7" x="1060.86547" y="44.21265" width="8.80079" height="11.09833"/><rect id="長方形_68" data-name="長方形 68" class="cls-7" x="1081.70479" y="44.21265" width="8.80273" height="11.09833"/><rect id="長方形_69" data-name="長方形 69" class="cls-7" x="1102.54799" y="44.21265" width="8.79692" height="11.09833"/><rect id="長方形_70" data-name="長方形 70" class="cls-7" x="1053.68485" y="73.46789" width="14.47749" height="14.47168"/><rect id="長方形_71" data-name="長方形 71" class="cls-7" x="1119.97263" y="73.46789" width="14.47426" height="14.47168"/></g><g id="グループ_69" data-name="グループ 69"><path id="パス_79" data-name="パス 79" class="cls-4" d="M809.66983,160.0872c0-19.336-10.8284-35.00813-24.183-35.00813s-24.18553,15.6721-24.18553,35.00813,10.82777,35.00361,24.18553,35.00361S809.66983,179.42,809.66983,160.0872Z" transform="translate(-0.63906 -122.12466)"/><g id="グループ_68" data-name="グループ 68"><g id="グループ_67" data-name="グループ 67"><g id="グループ_66" data-name="グループ 66"><path id="パス_80" data-name="パス 80" class="cls-3" d="M789.03586,220.72671h-7.09474l2.30013-63.20373h2.72181Z" transform="translate(-0.63906 -122.12466)"/><path id="パス_81" data-name="パス 81" class="cls-3" d="M784.78625,169.29479l-4.93216-5.093-1.7519.47914,6.27918,9.33935Z" transform="translate(-0.63906 -122.12466)"/></g><path id="パス_82" data-name="パス 82" class="cls-3" d="M787.00953,180.7993l7.90255-5.06518,1.008,1.42063-9.52337,8.70973Z" transform="translate(-0.63906 -122.12466)"/></g><path id="パス_83" data-name="パス 83" class="cls-3" d="M786.76545,167.56163l7.33429-7.05728,1.2579.93891L786.974,172.03339Z" transform="translate(-0.63906 -122.12466)"/></g></g><g id="グループ_73" data-name="グループ 73"><g id="グループ_70" data-name="グループ 70"><path id="パス_84" data-name="パス 84" class="cls-5" d="M810.3,167.11027l7.15028,5.84847,60.44577-1.95143,3.57352-4.5486-36.07295-26.32229Z" transform="translate(-0.63906 -122.12466)"/><rect id="長方形_72" data-name="長方形 72" class="cls-5" x="806.89786" y="44.66144" width="76.69518" height="53.94059"/></g><g id="グループ_71" data-name="グループ 71"><rect id="長方形_73" data-name="長方形 73" class="cls-23" x="795.11009" y="153.56672" width="58.31871" height="5.54626" transform="translate(71.03172 404.96783) rotate(-36.966)"/><rect id="長方形_74" data-name="長方形 74" class="cls-23" x="864.72537" y="127.18073" width="5.54626" height="58.31871" transform="translate(220.28247 633.32652) rotate(-53.034)"/></g><rect id="長方形_75" data-name="長方形 75" class="cls-7" x="839.48965" y="74.55791" width="11.51096" height="24.04348"/><rect id="長方形_76" data-name="長方形 76" class="cls-7" x="841.83368" y="30.6857" width="6.82483" height="6.82547"/><g id="グループ_72" data-name="グループ 72"><rect id="長方形_77" data-name="長方形 77" class="cls-7" x="819.5789" y="50.50797" width="6.82353" height="6.82612"/><rect id="長方形_78" data-name="長方形 78" class="cls-7" x="834.41542" y="50.50797" width="6.82612" height="6.82612"/><rect id="長方形_79" data-name="長方形 79" class="cls-7" x="849.25194" y="50.50797" width="6.82483" height="6.82612"/><rect id="長方形_80" data-name="長方形 80" class="cls-7" x="864.08976" y="50.50797" width="6.82483" height="6.82612"/></g><rect id="長方形_81" data-name="長方形 81" class="cls-7" x="819.5789" y="72.92871" width="10.72187" height="14.62407"/><rect id="長方形_82" data-name="長方形 82" class="cls-7" x="860.18949" y="72.92871" width="10.72445" height="14.62407"/></g><g id="グループ_78" data-name="グループ 78"><rect id="長方形_83" data-name="長方形 83" class="cls-7" x="917.92191" y="26.40185" width="27.4052" height="17.78949"/><g id="グループ_74" data-name="グループ 74"><path id="パス_85" data-name="パス 85" class="cls-8" d="M912.35539,167.11026l10.3964,5.84847,87.89942-1.95143,5.19757-4.54859-52.45542-26.3223Z" transform="translate(-0.63906 -122.12466)"/><rect id="長方形_84" data-name="長方形 84" class="cls-8" x="907.69984" y="44.66144" width="111.52833" height="53.94059"/></g><g id="グループ_75" data-name="グループ 75"><path id="パス_86" data-name="パス 86" class="cls-9" d="M901.19318,176.09766l-2.74053-5.58048,65.63687-33.93169,4.85275,4.42718Z" transform="translate(-0.63906 -122.12466)"/><path id="パス_87" data-name="パス 87" class="cls-9" d="M1026.84316,175.97369l2.90583-5.27247-65.68851-34.11573-4.85145,4.42718Z" transform="translate(-0.63906 -122.12466)"/></g><rect id="長方形_85" data-name="長方形 85" class="cls-7" x="957.56001" y="73.28386" width="11.80542" height="25.31753"/><g id="グループ_77" data-name="グループ 77"><g id="グループ_76" data-name="グループ 76"><rect id="長方形_86" data-name="長方形 86" class="cls-7" x="930.20711" y="48.37961" width="11.59232" height="14.62472"/><rect id="長方形_87" data-name="長方形 87" class="cls-7" x="957.66655" y="48.37961" width="11.59362" height="14.62472"/><rect id="長方形_88" data-name="長方形 88" class="cls-7" x="985.126" y="48.37961" width="11.59491" height="14.62472"/><rect id="長方形_89" data-name="長方形 89" class="cls-7" x="930.20711" y="73.47758" width="11.59232" height="14.61955"/><rect id="長方形_90" data-name="長方形 90" class="cls-7" x="985.126" y="73.47758" width="11.59491" height="14.61955"/></g></g></g><g id="グループ_83" data-name="グループ 83"><g id="グループ_79" data-name="グループ 79"><path id="パス_88" data-name="パス 88" class="cls-13" d="M880.37513,226.94519a2.43961,2.43961,0,0,1-2.43958,2.43961h-.0026a2.43764,2.43764,0,0,1-2.43831-2.437V220.8055a2.44025,2.44025,0,0,1,2.43831-2.4422h0a2.44218,2.44218,0,0,1,2.44218,2.4422Z" transform="translate(-0.63906 -122.12466)"/><path id="パス_89" data-name="パス 89" class="cls-13" d="M913.24461,226.94519a2.43831,2.43831,0,0,1-2.437,2.43961h-.0039a2.43766,2.43766,0,0,1-2.43571-2.43961V220.8055a2.44025,2.44025,0,0,1,2.43831-2.4422h0a2.44088,2.44088,0,0,1,2.44092,2.44088v.00132Z" transform="translate(-0.63906 -122.12466)"/></g><g id="グループ_81" data-name="グループ 81"><path id="パス_90" data-name="パス 90" class="cls-24" d="M912.97016,212.04925c-.24278-.80071-.452-1.4555-.45912-1.4555s-.12526-.67609-.25315-1.50328l-1.42064-9.19405a1.83455,1.83455,0,0,0-1.7519-1.502H879.86759a1.85844,1.85844,0,0,0-1.76932,1.49877l-1.53686,9.28575c-.13688.82589-.24152,1.50005-.23569,1.50005s-.19888.64962-.45782,1.44645l-1.316,4.05913a11.5383,11.5383,0,0,0-.46944,2.97041v3.99648a1.52459,1.52459,0,0,0,1.51944,1.522h37.533a1.52523,1.52523,0,0,0,1.5207-1.522V219.155a12.43243,12.43243,0,0,0-.4404-2.97751Z" transform="translate(-0.63906 -122.12466)"/><path id="パス_91" data-name="パス 91" class="cls-15" d="M879.23671,210.7933a.96475.96475,0,0,1-.97961-1.1294l1.22693-8.61675a1.356,1.356,0,0,1,1.29987-1.13262h27.29993a1.34182,1.34182,0,0,1,1.29148,1.13392l1.143,8.61547a.97645.97645,0,0,1-.9912,1.1294Z" transform="translate(-0.63906 -122.12466)"/><g id="グループ_80" data-name="グループ 80"><rect id="長方形_91" data-name="長方形 91" class="cls-16" x="875.13647" y="95.94353" width="5.84395" height="3.07501"/><rect id="長方形_92" data-name="長方形 92" class="cls-16" x="906.48133" y="95.94353" width="5.84395" height="3.07501"/></g></g><g id="グループ_82" data-name="グループ 82"><path id="パス_92" data-name="パス 92" class="cls-24" d="M916.184,211.59014c0,1.13714-1.20367,2.06637-2.69079,2.06637s-2.6895-.92728-2.6895-2.06637,1.205-2.06315,2.6895-2.06315S916.184,210.44847,916.184,211.59014Z" transform="translate(-0.63906 -122.12466)"/><path id="パス_93" data-name="パス 93" class="cls-24" d="M877.93878,211.59014c0,1.13714-1.2069,2.06637-2.6908,2.06637s-2.68823-.92728-2.68823-2.06637,1.20237-2.06315,2.68823-2.06315S877.93878,210.44847,877.93878,211.59014Z" transform="translate(-0.63906 -122.12466)"/></g><rect id="長方形_93" data-name="長方形 93" class="cls-16" x="888.55042" y="97.23437" width="10.36154" height="4.44786"/></g><g id="グループ_86" data-name="グループ 86"><g id="グループ_85" data-name="グループ 85"><g id="グループ_84" data-name="グループ 84"><path id="パス_94" data-name="パス 94" class="cls-25" d="M459.08921,270.97818c.12916,1.19657.24862,2.54422,1.55817,3.04854a7.91493,7.91493,0,0,0,4.61317-.12206,40.59645,40.59645,0,0,0-4.28125-2.6243c-.64574-.29832-.06458-.66707-.93892-.67739" transform="translate(-0.63906 -122.12466)"/><path id="パス_95" data-name="パス 95" class="cls-25" d="M447.42587,270.386c.44749,1.35218,2.4015,2.91616,3.61162,3.68073-1.85651.72708-4.96316.10137-5.54949-1.6996-.22794-.72067.03616-3.28875,1.35929-2.541" transform="translate(-0.63906 -122.12466)"/><path id="パス_96" data-name="パス 96" class="cls-26" d="M461.75547,258.22933c-.77489-5.05486-1.70669-11.11448-2.70823-13.55085l-2.66756-3.117a3.40824,3.40824,0,0,0-2.2446-.2428c-.12528.5366-.27638,1.0687-.44363,1.60337,1.82034,1.55882,1.98177,3.168,2.01342,5.10134a70.89524,70.89524,0,0,1,3.3727,23.26536c1.92752-.14851,2.76246.56116,2.46543.08265A50.58577,50.58577,0,0,0,461.75547,258.22933Z" transform="translate(-0.63906 -122.12466)"/><path id="パス_97" data-name="パス 97" class="cls-26" d="M457.35024,243.72473c-1.35089-.00451-2.68693-.00451-4.11724-.00581-.12916-.01486-1.29665,7.27813-1.36511,7.65847a68.18369,68.18369,0,0,1-3.42952,12.07534c-.27057.7103-2.34921,6.932-2.9323,6.96689,2.27818-.13818,2.43962.60313,2.32467.1046,2.39311-3.75368,6.18039-9.87981,7.23874-13.589C456.47786,251.987,456.05232,248.47867,457.35024,243.72473Z" transform="translate(-0.63906 -122.12466)"/><rect id="長方形_94" data-name="長方形 94" class="cls-19" x="454.1379" y="102.2918" width="3.08083" height="3.03691"/><path id="パス_98" data-name="パス 98" class="cls-19" d="M452.96245,221.35757c-.10009-2.4325,1.42063-4.40653,3.405-4.40653s3.66522,1.97273,3.76854,4.40523-1.42064,4.40782-3.40176,4.40782S453.06254,223.79009,452.96245,221.35757Z" transform="translate(-0.63906 -122.12466)"/><path id="パス_99" data-name="パス 99" class="cls-19" d="M468.02562,217.59938c.7342-2.07605,1.11777-3.84667-.96086-5.452-.92018,1.08161.051,2.13094.11494,3.24808a4.21186,4.21186,0,0,0-.91889-.96861c.00452.62378.63412,3.25388,1.20688,3.28681" transform="translate(-0.63906 -122.12466)"/><path id="パス_100" data-name="パス 100" class="cls-26" d="M458.17744,226.77406c.58116.43,1.92624.29962,2.6837.29962,2.05409.00451,4.16114.77489,5.25245-.60893a4.96376,4.96376,0,0,0,.904-3.35267c-.01163-1.471.071-2.21424-.0523-3.68654a16.51172,16.51172,0,0,0-.37194-2.27237c.99121-.02454,1.2269-.01421,2.21423-.08718.61088-.042.32287,7.51319.10783,8.3436-1.00284,3.82795-3.09954,3.87444-5.74708,4.21926-1.57754.20469-3.17381.166-4.75845.28606A23.6324,23.6324,0,0,1,458.17744,226.77406Z" transform="translate(-0.63906 -122.12466)"/><path id="パス_101" data-name="パス 101" class="cls-26" d="M453.98011,247.43644c-.503-.13818-2.70114-.11367-2.55713-.525a28.26193,28.26193,0,0,0,1.16233-7.34918c.186-2.38924-.33-4.73649.05941-7.08765.17888-1.04932.95829-2.07863.92729-3.13765-.01614-.56114-.452-1.12812-.12528-1.62663.0536-.08718.58117-.94666,1.285-.503.452.288.78071-.26734,1.13521.23568.50884.71677,1.2185.12916,1.86813.10332,1.13392-.04067,1.37413.87369,1.56849,1.7506a66.61014,66.61014,0,0,1,.91889,10.328,70.80361,70.80361,0,0,0,.04649,7.77537c-.14853-.13949-1.56591.474-1.74351.39712Z" transform="translate(-0.63906 -122.12466)"/><path id="パス_102" data-name="パス 102" class="cls-25" d="M449.67692,249.94126a11.49424,11.49424,0,0,1,1.34054,3.28295c.12528.71676.5773,1.81453.12528,2.50224a7.3272,7.3272,0,0,1-.7749-2.2956,8.64308,8.64308,0,0,0-.62637-2.59651c-1.34508-1.69637-3.00657,3.42241-2.736,4.45043-.69222-1.56009-.33449-1.81452.28348-3.30748a16.07983,16.07983,0,0,0,1.08033-2.428c.56567-.01291,1.30827-.17564,1.52912.288" transform="translate(-0.63906 -122.12466)"/><path id="パス_103" data-name="パス 103" class="cls-19" d="M448.56624,247.84133c-.55533,1.64146-.83945,3.04014.81687,4.28707.71032-.85948-.06458-1.67893-.12915-2.55908a3.37567,3.37567,0,0,0,.7342.75293c-.01033-.48689-.53338-2.55455-.9841-2.57457" transform="translate(-0.63906 -122.12466)"/><path id="パス_104" data-name="パス 104" class="cls-26" d="M453.47708,227.2319a1.61432,1.61432,0,0,1,.94343-.27766c1.172.02646,1.12939,1.32312,1.09776,2.0993-.20469,5.0316-4.27286,9.33223-4.998,14.35674a26.17581,26.17581,0,0,0-.58116,5.09555c-2.54745-.23569-2.20714-.228-1.87264-2.191.37775-2.13094,1.21527-4.17987,1.62081-6.31276.47979-2.50354.96861-5.13492,1.60661-7.66041C451.69032,230.78087,451.9344,228.24958,453.47708,227.2319Z" transform="translate(-0.63906 -122.12466)"/></g></g><path id="パス_105" data-name="パス 105" class="cls-25" d="M454.50963,262.42344,442.76039,261.367l.12916-8.598,11.74536,1.06031Z" transform="translate(-0.63906 -122.12466)"/><path id="パス_106" data-name="パス 106" class="cls-27" d="M459.34041,218.84049a5.52572,5.52572,0,0,0-1.49617-.72257c-.8259-.08847-2.02827.98863-2.52678,1.61435a4.529,4.529,0,0,0-.66318,2.89485c-.1989-.43587-.72258-1.8636-1.22239-.667a8.79147,8.79147,0,0,0,.22406,1.77966,6.04292,6.04292,0,0,1-.91436-1.81129,4.01545,4.01545,0,0,1,.04779-2.10059,3.638,3.638,0,0,1,2.79542-2.84125C457.33021,216.77025,459.35785,216.67856,459.34041,218.84049Z" transform="translate(-0.63906 -122.12466)"/><path id="パス_107" data-name="パス 107" class="cls-16" d="M455.78174,227.83823l2.35695,5.02708.11946-5.00578-.99056-.56761Z" transform="translate(-0.63906 -122.12466)"/><path id="パス_108" data-name="パス 108" class="cls-16" d="M454.56193,226.97294l2.5539,1.863.15111-1.779-2.66756-.78974Z" transform="translate(-0.63906 -122.12466)"/><path id="パス_109" data-name="パス 109" class="cls-28" d="M457.52846,227.0317l-.17629,4.57765.93375,3.55156.59213-3.59354-.596-3.2584Z" transform="translate(-0.63906 -122.12466)"/><path id="パス_110" data-name="パス 110" class="cls-16" d="M457.26759,227.05754l.58116-.63735.29833.36808.13432,1.41545-1.2185-.782-.053-.36743Z" transform="translate(-0.63906 -122.12466)"/></g><g id="グループ_92" data-name="グループ 92"><g id="グループ_87" data-name="グループ 87"><path id="パス_111" data-name="パス 111" class="cls-19" d="M594.26,269.72611l-.13367,5.55336.91178.09944.47268-5.74708Z" transform="translate(-0.63906 -122.12466)"/><path id="パス_112" data-name="パス 112" class="cls-19" d="M597.346,269.65639l2.16516,5.40225.91566-.17046-1.70476-5.35384Z" transform="translate(-0.63906 -122.12466)"/></g><g id="グループ_90" data-name="グループ 90"><g id="グループ_89" data-name="グループ 89"><g id="グループ_88" data-name="グループ 88"><path id="パス_113" data-name="パス 113" class="cls-19" d="M585.80988,232.37393l-2.41636,1.04933.135-3.45278,2.18519-.70579Z" transform="translate(-0.63906 -122.12466)"/></g><path id="パス_114" data-name="パス 114" class="cls-19" d="M587.56759,226.72629c.27508-2.20972-.93761-3.99972-2.70693-3.99972s-3.43276,1.78806-3.70719,3.99779.9331,3.99778,2.70435,3.99778S587.29121,228.93277,587.56759,226.72629Z" transform="translate(-0.63906 -122.12466)"/><path id="パス_115" data-name="パス 115" class="cls-29" d="M583.39223,257.57458l-.29122,14.6021h1.7506l.87176-14.69833Z" transform="translate(-0.63906 -122.12466)"/><path id="パス_116" data-name="パス 116" class="cls-29" d="M585.72335,257.57458l2.04312,14.50526,1.31215-.19371L588.059,256.996Z" transform="translate(-0.63906 -122.12466)"/><path id="パス_117" data-name="パス 117" class="cls-30" d="M586.71005,258.54447c.44621-.12076,2.736-.02456,2.9252-.35192.64574-1.14423-.23376-4.14887-.37971-5.35963-.46686-3.84666-1.60207-7.61973-1.97984-11.44768-.17434-1.76351.12915-3.41209-.17434-5.19045a12.88985,12.88985,0,0,1-.12528-2.71856c.01486-.48108-.79813-2.2504-1.11195-1.82164a4.13018,4.13018,0,0,1-2.78379,1.1352c-.24408,1.49617-1.14683,2.47318-1.37994,3.97195a19.34034,19.34034,0,0,0,.03939,5.03676c.23246,1.96434-.86917,14.84816-.14981,16.808.12916-.12076,1.57431.19372,1.73123.12916Z" transform="translate(-0.63906 -122.12466)"/><path id="パス_118" data-name="パス 118" class="cls-19" d="M591.33871,254.46922l-.69481-1.02221.02067-.62379s.66705-.66123.88983-.11365a14.39547,14.39547,0,0,1,.41005,2.335" transform="translate(-0.63906 -122.12466)"/><path id="パス_119" data-name="パス 119" class="cls-19" d="M591.47884,250.13113c.48819,1.40447.73679,2.59975-.72257,3.66651-.63088-.7342.0536-1.43805.10913-2.18969a2.93622,2.93622,0,0,1-.64574.64574c.00581-.42168.46945-2.18777.86787-2.20972" transform="translate(-0.63906 -122.12466)"/><path id="パス_120" data-name="パス 120" class="cls-30" d="M586.9496,232.06527a1.44132,1.44132,0,0,0-.833-.23569c-1.03319.01872-1.0248,1.13521-.96861,1.79709.237,2.69079,1.34636,5.18722,2.26913,7.69657a51.55542,51.55542,0,0,1,1.5078,5.23955,43.92762,43.92762,0,0,1,1.10228,4.96186c2.60684-.66446,1.53814-1.192,1.24176-2.87418-.3332-1.82486-1.112-4.89212-1.46971-6.7157-.42426-2.14321-.359-3.33072-.92147-5.48879C588.52974,235.10025,588.3134,232.93507,586.9496,232.06527Z" transform="translate(-0.63906 -122.12466)"/><path id="パス_121" data-name="パス 121" class="cls-19" d="M577.21508,234.441c-.04649-.884-1.72153-3.19706-.71806-3.57353,1.59046-.59925,1.3625,1.09777,1.4768,1.79967a7.9125,7.9125,0,0,1,.80524-.47656,9.6774,9.6774,0,0,0-.70062,1.77385" transform="translate(-0.63906 -122.12466)"/><path id="パス_122" data-name="パス 122" class="cls-19" d="M602.40024,245.31261c.03616-.71676,1.39415-2.592.58116-2.90066-1.28825-.48561-1.10358.88854-1.19914,1.46389a5.72232,5.72232,0,0,0-.64574-.38745,8.07648,8.07648,0,0,1,.567,1.43806" transform="translate(-0.63906 -122.12466)"/><path id="パス_123" data-name="パス 123" class="cls-30" d="M582.66,239.34533c-.41586.03035-.83429.051-1.25015.05553-1.54977.01033-2.50224-4.6758-2.48157-4.89342.17887-1.80806-.58116-1.23594-2.56424-.20341,1.78806,2.0018,1.21527,7.00306,3.62454,6.67567.27057-.03939.53661-.05941.80976-.09427C581.62938,240.44566,582.57085,240.15379,582.66,239.34533Z" transform="translate(-0.63906 -122.12466)"/><path id="パス_124" data-name="パス 124" class="cls-30" d="M583.18173,233.00093c-.7342,1.36831-1.79,4.17277-2.74309,6.11192-.41264.83171-1.62663-.576-1.90753.31836-.21826,1.59626,1.97855,3.45148,3.95581,1.27792a31.03288,31.03288,0,0,1,1.76932-6.01183Z" transform="translate(-0.63906 -122.12466)"/><path id="パス_125" data-name="パス 125" class="cls-31" d="M594.59711,261.6608l1.32313-1.62016,2.087,1.60725,1.01059,8.20863-1.8113-.06779-.904-4.97606-.4404,5.05615-1.68216-.06456Z" transform="translate(-0.63906 -122.12466)"/><path id="パス_126" data-name="パス 126" class="cls-32" d="M598.39859,259.06752c-.06457-1.82165-.11753-3.79889-.12915-4.06171-.03035-.63219.13948-1.99727-.48431-1.91011-.25313.03358-.73292-.71032-.95117-.41263a1.748,1.748,0,0,1-1.46261.67027,17.11149,17.11149,0,0,0-.84785,2.33177,10.10214,10.10214,0,0,0-.32287,3.39336c.04391.381-.01032,2.34081-.06134,3.57352h4.4485C598.55163,262.65136,598.45541,260.71158,598.39859,259.06752Z" transform="translate(-0.63906 -122.12466)"/><path id="パス_127" data-name="パス 127" class="cls-32" d="M594.71787,257.21813c-.27638.00451-.55275,0-.8259-.01744-1.02349-.06458-1.40126-2.49062-1.43354-2.64754-.10914-.53533-.12916-.83624-.19372-.7665s-.37193.12527-1.09776.4843c.13948.60312.452,4.62285,1.74737,4.00941.16143-.08007.35451-.01744.5366-.02907C594.01271,257.973,594.63908,257.80317,594.71787,257.21813Z" transform="translate(-0.63906 -122.12466)"/><path id="パス_128" data-name="パス 128" class="cls-32" d="M595.5612,252.95624c-.51658.95956-.76455,2.43057-2.30722,3.992-.4475.452-1.061-.4914-1.2676.14529a1.435,1.435,0,0,0,2.58619,1.10358,23.61816,23.61816,0,0,1,1.3115-4.28126Z" transform="translate(-0.63906 -122.12466)"/></g><path id="パス_129" data-name="パス 129" class="cls-27" d="M588.22624,227.79564a4.71392,4.71392,0,0,0-1.58142-5.11039,2.36946,2.36946,0,0,0-.89822-.39261,3.07957,3.07957,0,0,0-1.84811.16595,4.76932,4.76932,0,0,0-2.24911,2.32467,7.61934,7.61934,0,0,0-.34741.80524.69156.69156,0,0,1-.07878.21246,16.32066,16.32066,0,0,0,1.08614-1.22691c.186-.28477.28929-.44039.29252-.44749-.43587.65737,2.00761,2.23167,2.26913,2.57908a4.45038,4.45038,0,0,1,.40875,3.54576,11.096,11.096,0,0,0,2.63722-1.14877A10.74162,10.74162,0,0,1,588.22624,227.79564Z" transform="translate(-0.63906 -122.12466)"/></g><path id="パス_130" data-name="パス 130" class="cls-33" d="M583.10164,272.17735c.042.69934-3.88025,1.62082-4.35681,1.912-2.118,1.28825,3.30037,1.02477,4.06364,1.02477,1.65309,0,1.67312-.62635,2.3363-1.67891l.14271-3.383h-2.33176Z" transform="translate(-0.63906 -122.12466)"/><path id="パス_131" data-name="パス 131" class="cls-33" d="M587.11558,271.91063c.04972.25831-3.60128,2.21874-4.03264,2.4538a11.74568,11.74568,0,0,0-1.17009,1.00282c.452.40875,4.4033-.14527,5.731-.42877,2.77216-.596,1.91461-3.806,1.7648-5.73094l-2.2039.47851Z" transform="translate(-0.63906 -122.12466)"/><g id="グループ_91" data-name="グループ 91"><path id="パス_132" data-name="パス 132" class="cls-19" d="M597.408,252.82386l-1.90106.50239-.04648-1.98759h1.9837Z" transform="translate(-0.63906 -122.12466)"/><path id="パス_133" data-name="パス 133" class="cls-19" d="M598.79573,249.26131a2.41828,2.41828,0,0,0-2.44413-3.002c-1.42064,0-2.38925,1.13263-2.6301,2.94716s.72258,3.29844,2.1458,3.30618S598.32756,251.04549,598.79573,249.26131Z" transform="translate(-0.63906 -122.12466)"/><path id="パス_134" data-name="パス 134" class="cls-27" d="M598.90033,248.08157a2.53458,2.53458,0,0,0-3.476-1.80807,2.84118,2.84118,0,0,0-1.26629,1.019,2.95491,2.95491,0,0,0-.41,1.64277c.08137-.06844.58439-.96538.59472-.72a2.04479,2.04479,0,0,0,.1059.60184c.17434.22666.42619-.25313.51658-.45912.44364-1.05966.38745.58439.525.49851a2.24517,2.24517,0,0,0,.4798-.77489c.27766-.71807.31.66446.58116.7355.24538.06458.34612-.60184.5973-.60184a4.22945,4.22945,0,0,1,.37194,1.72542c.1369-.3332.77489-1.1746,1.02026-.22536.04649.18339-.58116.90984-.64574.94472-.1453.08007-.32287.98992-.22988.90985a7.6984,7.6984,0,0,0,1.11972-1.68474A2.9891,2.9891,0,0,0,598.90033,248.08157Z" transform="translate(-0.63906 -122.12466)"/></g><path id="パス_135" data-name="パス 135" class="cls-19" d="M597.29631,253.02857a2.3607,2.3607,0,0,1-1.39286.52176c-.47075.00452-.55856-.279-.25443-.56244a2.11866,2.11866,0,0,1,1.336-.46105C597.45968,252.51973,597.59786,252.74058,597.29631,253.02857Z" transform="translate(-0.63906 -122.12466)"/><path id="パス_136" data-name="パス 136" class="cls-32" d="M597.39122,253.02792l1.76158-2.91874,2.20067-5.44617,1.431.11107-2.47189,6.16036-2.09866,5.39064Z" transform="translate(-0.63906 -122.12466)"/><path id="パス_137" data-name="パス 137" class="cls-32" d="M593.99076,275.1613s-2.59524,1.56591-2.7896,1.66925.64574.36031.64574.36031a13.35042,13.35042,0,0,0,2.922-.17306c.5437-.24278.38745-1.7519.38745-1.7519Z" transform="translate(-0.63906 -122.12466)"/><path id="パス_138" data-name="パス 138" class="cls-32" d="M599.51055,275.058l-1.80807,1.93722s.74132.52305,2.31174-.38743a3.68636,3.68636,0,0,0,.875-.80394s.13818-.10784-.21051-.63088l-.35063-.52628Z" transform="translate(-0.63906 -122.12466)"/></g></g></svg>