<svg id="レイヤー_1" data-name="レイヤー 1" xmlns="http://www.w3.org/2000/svg" viewBox="0 0 677 127"><defs><style>.cls-1{fill:#fff;}.cls-2{isolation:isolate;}.cls-3{fill:#464646;}.cls-4{fill:#00c22b;}</style></defs><rect class="cls-1" width="677" height="127"/><g id="エルファインドは" class="cls-2"><g class="cls-2"><path class="cls-3" d="M255.50488,50.37109H230.23926V46.69336H240.793V33.91406H231.9043V30.34277h21.77539v3.57129h-8.62207v12.7793h10.44726Z" transform="translate(0 0)"/><path class="cls-3" d="M266.72559,36.56543q.02783,6.26367-2.06543,9.81445A14.12006,14.12006,0,0,1,258.2373,51.957l-1.55957-3.251a10.12335,10.12335,0,0,0,4.49122-4.23144q1.57178-2.80518,1.57226-8.53516V29.66309h3.98438Zm17.13769,4.291a20.67083,20.67083,0,0,1-5.16406,6.84277,17.13864,17.13864,0,0,1-7.20215,3.76465l-1.58594-1.30567V28.876h3.98438V46.2666q4.09131-2.01123,6.876-7.82226Z" transform="translate(0 0)"/><path class="cls-3" d="M308.50391,29.55566a28.84708,28.84708,0,0,1-2.07227,11.541,15.14117,15.14117,0,0,1-6.71,7.3418,27.86778,27.86778,0,0,1-11.19434,3.17187l-1.06543-3.55762a25.64042,25.64042,0,0,0,9.3545-2.55175,12.27415,12.27415,0,0,0,5.33007-4.9043,19.9117,19.9117,0,0,0,1.999-7.60254H287.30176V29.55566Z" transform="translate(0 0)"/><path class="cls-3" d="M335.08887,33.834a13.43571,13.43571,0,0,1-.88575,2.34473q-.59325,1.24072-.99316,1.90625a12.94344,12.94344,0,0,1-1.31934,1.71875,22.90962,22.90962,0,0,1-2.28515,2.23242,19.57688,19.57688,0,0,1-2.752,2.00586l-1.78516-2.3457a13.53379,13.53379,0,0,0,3.33789-2.63184,14.944,14.944,0,0,0,2.43164-3.31152H314.2334V32.94141h19.76269ZM325.041,36.97852a36.9756,36.9756,0,0,1-.42579,6.457,10.5328,10.5328,0,0,1-5.21093,7.22265A14.087,14.087,0,0,1,315.63281,52.21l-1.22558-2.65137q4.48974-1.46631,5.86328-4.03808a12.342,12.342,0,0,0,1.373-5.90332v-.34668l-.01367-2.292Z" transform="translate(0 0)"/><path class="cls-3" d="M355.77051,51.544h-4.09082V39.457a49.63653,49.63653,0,0,1-11.07422,4.01172l-1.22559-3.49121a40.53156,40.53156,0,0,0,12.2334-4.94434,24.47494,24.47494,0,0,0,7.876-7.50293l3.87793,1.4795a29.68808,29.68808,0,0,1-3.81153,4.78418,30.4453,30.4453,0,0,1-3.78515,3.11816Z" transform="translate(0 0)"/><path class="cls-3" d="M381.43652,34.48633,378.99805,37.792q-1.97169-1.26708-3.498-2.13281-1.5249-.86572-6.89551-3.57129L370.71,29.03613A87.079,87.079,0,0,1,381.43652,34.48633Zm10.8086,3.252a24.303,24.303,0,0,1-8.83594,9.52832,32.71882,32.71882,0,0,1-13.792,4.09082l-.90625-3.73144a36.02232,36.02232,0,0,0,7.5957-1.38575,20.05863,20.05863,0,0,0,5.32324-2.55175,26.94568,26.94568,0,0,0,3.89258-3.21192,25.982,25.982,0,0,0,3.52344-4.87011Z" transform="translate(0 0)"/><path class="cls-3" d="M419.01758,41.5625,416.499,44.72168a49.731,49.731,0,0,0-11.7666-5.94434V51.77051h-4.19824v-24.04h4.23828v7.11621A68.13421,68.13421,0,0,1,419.01758,41.5625Zm-5.65039-7.75586-1.94531.74707q-1.09278-2.70557-1.82618-4.10449l1.87891-.7334A43.98223,43.98223,0,0,1,413.36719,33.80664Zm4.03808-.86523-1.91894.70605q-.93311-2.332-1.82617-4.0918l1.82617-.67968Q416.57909,30.96923,417.40527,32.94141Z" transform="translate(0 0)"/><path class="cls-3" d="M427.75879,29.08984a39.41006,39.41006,0,0,0-1.63965,10.27442,41.75015,41.75015,0,0,0,1.5332,11.207l-3.74511.75976a43.67847,43.67847,0,0,1-1.46582-11.0205A48.13618,48.13618,0,0,1,424.001,28.57031Zm19.78906,18.2295-2.15918,3.05175a25.23155,25.23155,0,0,0-3.85058-2.98437,3.99434,3.99434,0,0,1-1.40625,2.99805q-1.273,1.02538-4.72364,1.02636a7.09011,7.09011,0,0,1-4.19824-1.206,3.80571,3.80571,0,0,1-1.70605-3.27149,4.03292,4.03292,0,0,1,1.71972-3.36523,6.5479,6.5479,0,0,1,4.06446-1.29883,22.56652,22.56652,0,0,1,2.46484.15918V36.47266h-8.64844V33.167h8.64844V28.33008h3.81152V33.167h4.97071v3.30567h-4.97071V43.5752A25.80466,25.80466,0,0,1,447.54785,47.31934Zm-9.79492-.75879V45.627a6.7452,6.7452,0,0,0-2.46484-.41308,2.84561,2.84561,0,0,0-1.55274.43359,1.29255,1.29255,0,0,0-.68652,1.126,1.20151,1.20151,0,0,0,.707,1.08594,3.33547,3.33547,0,0,0,1.65234.39355Q437.75342,48.25293,437.75293,46.56055Z" transform="translate(0 0)"/></g></g><g id="LINEでスムーズに診断_" data-name="LINEでスムーズに診断 " class="cls-2"><g class="cls-2"><path class="cls-4" d="M197.00293,96.76172H180.82715V73.45605h5.10351V92.89551h11.07227Z" transform="translate(0 0)"/><path class="cls-4" d="M211.57129,96.76172H198.85938V93.28223h3.80371V76.93555h-3.80371v-3.4795h12.71191v3.4795H207.7666V93.28223h3.80469Z" transform="translate(0 0)"/><path class="cls-4" d="M236.14453,96.76172h-4.918l-10.4541-17.08887V96.76172H216.04V73.45605h6.18652l9.18555,15.0625V73.45605h4.73242Z" transform="translate(0 0)"/><path class="cls-4" d="M257.91992,96.76172H241.68164V73.45605h16.23828v3.86622h-11.166v4.97949h10.37695v3.85058H246.75391v6.74317h11.166Z" transform="translate(0 0)"/></g><g class="cls-2"><path class="cls-3" d="M282.32617,94.97754l-.18652,3.59766q-1.45312.03954-1.93262.04a17.37394,17.37394,0,0,1-7.66308-1.3789,9.31438,9.31438,0,0,1-3.93067-3.332A8.38721,8.38721,0,0,1,267.42676,89.46q0-4.87647,4.81152-8.98144l-11.84766.12011V77.18652h23.76075V80.625h-6.11621a13.08037,13.08037,0,0,0-4.75782,3.74414,7.88445,7.88445,0,0,0-1.86523,4.93066q0,5.75685,8.75488,5.75684Q281.1792,95.05664,282.32617,94.97754Zm-1.18652-8.83594-1.97168.7334q-.54786-1.38574-1.79981-4.09082l1.89258-.74707A42.95561,42.95561,0,0,1,281.13965,86.1416Zm3.79785-.77246-1.91895.70606q-.93311-2.31885-1.82519-4.09082l1.82519-.67969Q284.11133,83.39649,284.9375,85.36914Z" transform="translate(0 0)"/><path class="cls-3" d="M313.61523,95.93652l-2.998,2.86524a122.84236,122.84236,0,0,0-9.11524-8.38184,40.61833,40.61833,0,0,1-12.47265,8.46192L287.083,95.73633a37.19632,37.19632,0,0,0,9.92187-6.42285,27.78944,27.78944,0,0,0,7.13574-9.32813l-13.499-.01367V76.48047h17.51074l1.09278,1.05273a25.65859,25.65859,0,0,1-2.17969,5.56348,33.12082,33.12082,0,0,1-3.085,4.48437Q309.73731,92.25831,313.61523,95.93652Z" transform="translate(0 0)"/><path class="cls-3" d="M335.80371,96.52344q-7.07666,1.0122-20.10937,1.78515l-.59961-3.71777q1.25244,0,3.03808-.06641,1.6128-3.46581,3.57813-8.88867,1.96581-5.42431,3.33886-10.11426l4.09082.65235a137.59949,137.59949,0,0,1-6.75585,18.13672q7.79442-.479,11.70019-1.02539-.70752-1.31983-4.918-7.80957l3.30567-1.69239a57.93977,57.93977,0,0,1,4.55664,6.64356q2.373,3.95069,3.90527,7.17578l-4.01172,1.38574Q336.36328,97.66846,335.80371,96.52344Z" transform="translate(0 0)"/><path class="cls-3" d="M367.42676,88.99414H342.94629V85.44922h24.48047Z" transform="translate(0 0)"/><path class="cls-3" d="M394.47754,95.83008l-3.05078,2.8916a105.27116,105.27116,0,0,0-8.79492-8.249,38.65448,38.65448,0,0,1-12.03418,8.38281l-1.74512-3.27832a34.84146,34.84146,0,0,0,9.62793-6.42383,27.24523,27.24523,0,0,0,6.77637-9.10156H371.877V76.56055h17.03028l.98632,2.03906a19.06236,19.06236,0,0,1-1.71875,4.377,31.83909,31.83909,0,0,1-3.07812,4.65821Q390.75977,92.27246,394.47754,95.83008Zm-2.1582-18.124-1.85157.7334q-1.06639-2.65135-1.82617-4.09082l1.79883-.7334A41.30764,41.30764,0,0,1,392.31934,77.70605Zm3.61132-.43945-1.82617.67969q-.87891-2.18555-1.83789-4.09082l1.74414-.65332Q395.10352,75.29395,395.93066,77.2666Z" transform="translate(0 0)"/><path class="cls-3" d="M403.90039,76.12109A39.859,39.859,0,0,0,402.208,86.42188a41.449,41.449,0,0,0,1.49219,11.12695l-3.67774.83984A43.305,43.305,0,0,1,398.583,87.501a48.82477,48.82477,0,0,1,1.57226-11.90039Zm17.2168,21.28125q-3.26514.30617-5.583.30664-5.85059,0-7.98242-1.35253a4.31048,4.31048,0,0,1-2.13281-3.8584,8.2603,8.2603,0,0,1,2.73242-5.70313l2.94531,1.57227a5.62768,5.62768,0,0,0-2.14551,4.01172,1.67612,1.67612,0,0,0,1.11914,1.499,12.41542,12.41542,0,0,0,4.6377.55273q1.78564,0,6.27637-.38671Zm-.293-16.69726-1.11914-.01367q-1.74609-.02637-5.79688.0664-4.05176.09375-7.84961.36035v-3.252q9.00879-.43945,12.47364-.43945,1.38573,0,2.292.08008Z" transform="translate(0 0)"/><path class="cls-3" d="M434.03027,81.35742h-9.60742v-2.665h9.60742Zm-.333,16.27149h-5.50391v.98632h-3.19824V89.66016h8.70215Zm-.08008-20.05567h-8.26172V75.20117h8.26172Zm-.13281,7.28906h-8.10254v-2.332h8.10254Zm0,3.57129h-8.10254V86.08887h8.10254Zm-2.998,6.84961v-3.251h-2.18555v3.251Zm20.00195-13.832L448.543,84.14258a20.096,20.096,0,0,1-6.7832-6.16992,16.80976,16.80976,0,0,1-6.74317,6.11718l-1.69238-2.31933a13.71032,13.71032,0,0,0,3.69824-2.71094,16.50626,16.50626,0,0,0,3.15137-4.37793h3.27832A15.67481,15.67481,0,0,0,450.48828,81.45117Zm-5.83691.42676A20.59024,20.59024,0,0,1,440.54,85.5625a31.85132,31.85132,0,0,1-5.123,3.03125l-1.666-2.47852q5.68945-2.82567,8.22168-6.06347Zm3.02539,3.98437a28.21284,28.21284,0,0,1-5.69727,4.42383,33.19568,33.19568,0,0,1-6.93554,3.332L433.791,90.91309a29.93061,29.93061,0,0,0,6.43652-3.23243,25.16782,25.16782,0,0,0,4.85058-3.96386Zm2.65136,4.291a26.51725,26.51725,0,0,1-7.10937,5.2373,33.07533,33.07533,0,0,1-8.375,3.27833L433.791,95.80371a31.75816,31.75816,0,0,0,7.53613-3.18555,24.5215,24.5215,0,0,0,6.42969-4.78418Z" transform="translate(0 0)"/><path class="cls-3" d="M464.65332,93.95117l-.02637,1.23926a17.12961,17.12961,0,0,0,1.56543-5.05762,35.91129,35.91129,0,0,0,.44629-5.60351V76.4541a34.37666,34.37666,0,0,0,9.11524-1.77246l1.53222,2.71875a38.71348,38.71348,0,0,1-7.28906,1.53223V82.624h7.209v2.918h-1.998V98.38867H471.7959V85.542h-1.8125a30.2094,30.2094,0,0,1-.99219,7.16309,20.21791,20.21791,0,0,1-2.76562,5.93652l-2.31836-1.79883H455.418v1.09278h-3.02442V75.41406H455.418V93.95117Zm-4.917-5.65039a16.647,16.647,0,0,1-2.65235,3.46484l-1.57226-1.79882a21.3098,21.3098,0,0,0,3.624-5.82422h-3.07812V81.87793h3.67871V74.8418h2.70508v7.03613h3.35742v2.26465h-2.83789a23.39125,23.39125,0,0,0,2.918,3.55859l-1.50586,2.14551a17.2863,17.2863,0,0,1-1.93164-2.30566v5.917h-2.70508Zm-.41309-7.12988-2.3457.38672-.81348-4.97071,2.31934-.35937Zm6.90235-4.69043-1.25293,5.02441-2.18555-.36035.98633-5.07715Z" transform="translate(0 0)"/><path class="cls-3" d="M485.60156,77.21387,485.06934,91.459h-3.74512l-.5459-14.24511Zm-.10644,20.082h-4.59766V93.83105h4.59766Z" transform="translate(0 0)"/><path class="cls-3" d="M496.10254,77.21387,495.57031,91.459H491.8252l-.5459-14.24511Zm-.10645,20.082h-4.59765V93.83105h4.59765Z" transform="translate(0 0)"/></g></g></svg>