<svg id="レイヤー_1" data-name="レイヤー 1" xmlns="http://www.w3.org/2000/svg" viewBox="0 0 935 45"><defs><style>.cls-1{fill:#fff;}.cls-2{fill:#fbfe23;stroke:#fbfe23;stroke-linecap:square;stroke-miterlimit:10;stroke-width:12px;}.cls-3{isolation:isolate;}.cls-4{fill:#464646;}</style></defs><rect class="cls-1" width="935" height="45"/><line class="cls-2" x1="373.03069" y1="27.66693" x2="429.62663" y2="27.66693"/><g id="診断は完全無料でエントリーできます_" data-name="診断は完全無料でエントリーできます " class="cls-3"><g class="cls-3"><path class="cls-4" d="M330.125,17.3252h-4.9917V15.94043h4.9917Zm-.17285,8.45312h-2.85938v.5127h-1.66162V21.63867h4.521Zm-.04151-10.41894h-4.29248V14.127h4.29248Zm-.06933,3.7871h-4.20947V17.93457h4.20947Zm0,1.85547h-4.20947V19.7832h4.20947Zm-1.55762,3.5586V22.87109H327.148v1.68946Zm10.3916-7.18653-1.01074,1.39844a10.44618,10.44618,0,0,1-3.52393-3.20508,8.74526,8.74526,0,0,1-3.50341,3.17774L329.7583,17.54a7.11083,7.11083,0,0,0,1.9209-1.40918,8.54312,8.54312,0,0,0,1.63721-2.27441h1.70312A8.14536,8.14536,0,0,0,338.67529,17.374Zm-3.03271.22168a10.70747,10.70747,0,0,1-2.13574,1.91407,16.56468,16.56468,0,0,1-2.66163,1.57519l-.86572-1.28808a12.271,12.271,0,0,0,4.27149-3.1504Zm1.57178,2.06934a14.64,14.64,0,0,1-2.95948,2.29883,17.23692,17.23692,0,0,1-3.60351,1.73047l-.65088-1.40528a15.55506,15.55506,0,0,0,3.34375-1.67871,13.06915,13.06915,0,0,0,2.52-2.05957Zm1.37744,2.22949a13.76156,13.76156,0,0,1-3.69336,2.7207,17.16177,17.16177,0,0,1-4.35108,1.70313l-.54687-1.48828a16.51712,16.51712,0,0,0,3.915-1.6543,12.75375,12.75375,0,0,0,3.34033-2.48535Z" transform="translate(-1)"/><path class="cls-4" d="M347.73584,23.86816l-.01416.64356a8.88552,8.88552,0,0,0,.81348-2.627,18.66142,18.66142,0,0,0,.23193-2.91211V14.77734a17.83985,17.83985,0,0,0,4.73535-.92089l.79639,1.41308a20.13852,20.13852,0,0,1-3.78711.7959v1.918h3.7456V19.499h-1.03857v6.67383h-1.77246V19.499h-.94141a15.67131,15.67131,0,0,1-.51562,3.72168,10.49854,10.49854,0,0,1-1.43653,3.084l-1.20459-.93457H342.938v.56738h-1.57178V14.2373H342.938v9.63086Zm-2.55469-2.93554a8.63983,8.63983,0,0,1-1.37793,1.7998l-.81689-.93457a11.07522,11.07522,0,0,0,1.8833-3.02539h-1.59912V17.5957h1.91064V13.93945h1.40528V17.5957h1.74462v1.17676h-1.4746a12.146,12.146,0,0,0,1.51611,1.84863l-.78223,1.11426a8.98993,8.98993,0,0,1-1.0039-1.19726v3.07324h-1.40528Zm-.21484-3.7041-1.21826.20117-.42237-2.583,1.20459-.18652Zm3.58642-2.43653-.65087,2.60938-1.13526-.18653.51221-2.63769Z" transform="translate(-1)"/><path class="cls-4" d="M360.17529,14.60449a20.46625,20.46625,0,0,0-.85156,5.33789,21.68714,21.68714,0,0,0,.79639,5.82227l-1.9458.39453a22.68918,22.68918,0,0,1-.76123-5.72559,25.01509,25.01509,0,0,1,.81-6.09863Zm10.28076,9.47071-1.12158,1.58593a13.10986,13.10986,0,0,0-2.00049-1.55078,2.07761,2.07761,0,0,1-.73046,1.55762,4.08491,4.08491,0,0,1-2.45459.5332,3.68034,3.68034,0,0,1-2.18067-.627A1.97568,1.97568,0,0,1,361.082,23.875a2.0938,2.0938,0,0,1,.89307-1.748,3.40281,3.40281,0,0,1,2.11181-.67578,11.89639,11.89639,0,0,1,1.28077.083V18.44043h-4.49317V16.72266h4.49317V14.21h1.98v2.5127h2.58252v1.71777h-2.58252v3.68945A13.43207,13.43207,0,0,1,370.45605,24.0752Zm-5.08837-.39454v-.48437a3.48564,3.48564,0,0,0-1.28077-.21484,1.47642,1.47642,0,0,0-.80664.22558.67041.67041,0,0,0-.35644.585.62385.62385,0,0,0,.3667.56348,1.73084,1.73084,0,0,0,.8584.20508Q365.36768,24.56055,365.36768,23.68066Z" transform="translate(-1)"/><path class="cls-4" d="M378.29834,21.67969q-.59546,3.69139-4.9707,4.708l-.68555-1.53028a6.08788,6.08788,0,0,0,2.6377-1.27734,3.699,3.699,0,0,0,1.06591-1.90039h-3.28808V20.1084h12.57226v1.57129h-3.93945v2.4375a.3339.3339,0,0,0,.09033.23535.475.475,0,0,0,.31153.11719q.22119.022.63671.02148a2.10056,2.10056,0,0,0,.8169-.10449.61911.61911,0,0,0,.27685-.48047,9.641,9.641,0,0,0,.06934-1.44434l1.68213.25684v1.89648a1.45787,1.45787,0,0,1-.834,1.33594,2.36131,2.36131,0,0,1-.95214.208l-1.13526.042a12.94732,12.94732,0,0,1-1.56445-.07617,1.49161,1.49161,0,0,1-1.35693-1.56445l.00683-2.88086Zm7.29-3.61328h-1.74463V16.43262h-9.11768v1.77246h-1.73779V15.00586h5.30322V13.8291h1.95215v1.17676h5.34473Zm-2.084.92089h-8.49462V17.42969h8.49462Z" transform="translate(-1)"/><path class="cls-4" d="M401.57227,26.07617H388.8335V24.37305h5.28906V22.57324h-4.45117V20.96h4.45117V19.44434h-2.77588v-.665a15.2003,15.2003,0,0,1-2.34033,1.22558l-.85156-1.4541a13.77311,13.77311,0,0,0,3.13964-1.83789,13.02869,13.02869,0,0,0,2.773-2.84277h2.06983a10.437,10.437,0,0,0,2.271,2.19531,17.08062,17.08062,0,0,0,3.82862,2.15332l-1.01075,1.7168a14.63491,14.63491,0,0,1-2.27783-1.19043v.69922h-2.811V20.96h4.50732v1.61328h-4.50732v1.79981h5.43506Zm-8.855-8.23828H397.626a13.07036,13.07036,0,0,1-2.50635-2.36816q-.18018.23583-.4707.56836c-.19385.2207-.38184.43164-.56446.62988a6.41344,6.41344,0,0,1-.65381.60937Q393.04981,17.5879,392.71729,17.83789Z" transform="translate(-1)"/><path class="cls-4" d="M417.88818,25.63965l-1.8833.60937q-.19409-.47021-.77539-1.53711l-.77539-1.44629,1.39844-.4082H404.85889V21.29883h1.40527V19.74121h-1.606V18.17676h1.7168v-.87891a12.20162,12.20162,0,0,1-1.27393.83789l-1.09375-1.20508a8.50413,8.50413,0,0,0,3.19141-3.34375l1.8418.46387q-.1941.36036-.59571,1.03809h8.70948v1.53027h-1.03858v1.55762h1.51612v1.56445h-1.51612v1.55762h1.14942v1.55859h-1.01075A14.995,14.995,0,0,1,417.88818,25.63965Zm-10.19091-2.22852a10.66434,10.66434,0,0,1-.71289,1.61231,10.57044,10.57044,0,0,1-.8794,1.44726l-1.814-.60937a16.8015,16.8015,0,0,0,1.59912-2.79Zm.436-6.792v1.55762h.8794V16.61914Zm0,3.12207v1.55762h.8794V19.74121Zm2.624,6.32129-1.86914.31152-.67187-2.94922,1.74463-.28418A21.60151,21.60151,0,0,1,410.75732,26.0625Zm-.01416-9.44336v1.55762h.89356V16.61914Zm0,4.67969h.89356V19.74121h-.89356Zm3.48926,4.5625-1.876.416L411.207,23.2998l1.731-.374q.21459.416.6958,1.49219Q414.115,25.49463,414.23242,25.86133Zm-.86523-7.68457h.90722V16.61914h-.90722Zm0,3.12207h.90722V19.74121h-.90722Z" transform="translate(-1)"/><path class="cls-4" d="M422.73975,22.77344a11.53457,11.53457,0,0,1-1.64746,2.126l-1.03174-1.03125a12.88782,12.88782,0,0,0,1.46093-1.998,11.68191,11.68191,0,0,0,1.15625-2.34278h-2.22265V18.12109h2.28467V13.85645h1.74463v4.26464h1.80029v1.40625h-1.80029v.35938a9.28437,9.28437,0,0,0,1.93847,1.876l-.12451.208,4.30615-.498V17.17285l-.98974,1.23242a35.13278,35.13278,0,0,0-2.56885-2.7207l1.17724-1.32227a20.127,20.127,0,0,1,2.38135,2.416V13.84277H432.481v7.415l1.04541-.11816.02734,1.60644-1.07275.125v3.4336h-1.87647V23.07812l-4.4375.50586-.04883-1.31543-.50537.8584a6.81875,6.81875,0,0,1-1.12841-1.10742V26.3877h-1.74463Zm-.2837-5.28906-1.50244.2705q0-.249-.4292-2.97754l1.44678-.22754Q422.17261,15.62939,422.45605,17.48438Zm4.30616-2.74805q-.18018.80273-.74756,2.93555l-1.27393-.11817.53321-3.03223Zm3.33691,5.49707-1.17676,1.41894a26.38871,26.38871,0,0,0-2.59619-2.748l1.12158-1.37793A23.375,23.375,0,0,1,430.09912,20.2334Z" transform="translate(-1)"/><path class="cls-4" d="M447.54346,24.40039l-.09668,1.87012q-.75439.0205-1.00391.02051a9.02415,9.02415,0,0,1-3.981-.7168,4.83739,4.83739,0,0,1-2.042-1.73047,4.35824,4.35824,0,0,1-.61621-2.30957,6.12364,6.12364,0,0,1,2.499-4.666l-6.15429.0625V15.1582h12.34375v1.78614h-3.17774a6.80021,6.80021,0,0,0-2.47168,1.94531,4.09931,4.09931,0,0,0-.96923,2.56152q0,2.99121,4.54882,2.99121Q446.94824,24.44238,447.54346,24.40039Zm-.61573-4.58984-1.0249.38086q-.28418-.71925-.93457-2.125l.98291-.3877A22.32376,22.32376,0,0,1,446.92773,19.81055Zm1.97266-.40137-.99658.36719q-.48486-1.20556-.94873-2.126l.94873-.35254Q448.47144,18.38476,448.90039,19.40918Z" transform="translate(-1)"/><path class="cls-4" d="M465.2168,25.66113H452.09033V23.75h5.4834V17.11035h-4.61816V15.25586h11.3125v1.85449h-4.479V23.75h5.42774Z" transform="translate(-1)"/><path class="cls-4" d="M475.627,17.4082l-1.2666,1.7168q-1.02393-.65772-1.81738-1.10742-.79248-.44971-3.582-1.85547l1.09375-1.585A45.156,45.156,0,0,1,475.627,17.4082Zm5.61524,1.68946a12.63608,12.63608,0,0,1-4.58985,4.95019,16.99729,16.99729,0,0,1-7.166,2.125l-.47071-1.93847a18.68055,18.68055,0,0,0,3.94629-.71973,10.44015,10.44015,0,0,0,2.76563-1.32617,13.89748,13.89748,0,0,0,2.02148-1.668,13.50324,13.50324,0,0,0,1.83106-2.53028Z" transform="translate(-1)"/><path class="cls-4" d="M496.85254,21.085,495.544,22.72559a25.79647,25.79647,0,0,0-6.11329-3.08789v6.75H487.25V13.89844h2.20117V17.5957A35.3451,35.3451,0,0,1,496.85254,21.085Z" transform="translate(-1)"/><path class="cls-4" d="M503.73926,22.04688h-2.09864V14.44531h2.09864Zm7.61523-2.084q0,5.87109-8.16894,6.36914l-.4502-1.834a9.81163,9.81163,0,0,0,5.01856-1.4336,3.99015,3.99015,0,0,0,1.47461-3.37109V14.21h2.126Z" transform="translate(-1)"/><path class="cls-4" d="M528.61914,21.292H515.90137V19.45117h12.71777Z" transform="translate(-1)"/><path class="cls-4" d="M542.82422,24.40039l-.09766,1.87012c-.50195.01367-.83789.02051-1.0039.02051a9.02174,9.02174,0,0,1-3.98047-.7168,4.83733,4.83733,0,0,1-2.042-1.73047,4.35815,4.35815,0,0,1-.61622-2.30957,6.12362,6.12362,0,0,1,2.499-4.666l-6.1543.0625V15.1582h12.34375v1.78614h-3.17773a6.80825,6.80825,0,0,0-2.47168,1.94531,4.09575,4.09575,0,0,0-.96875,2.56152q0,2.99121,4.54882,2.99121Q542.22754,24.44238,542.82422,24.40039Zm-.61621-4.58984-1.02442.38086q-.28417-.71925-.93554-2.125l.9834-.3877A22.32622,22.32622,0,0,1,542.208,19.81055Zm1.97265-.40137-.99707.36719q-.48339-1.20556-.94824-2.126l.94824-.35254Q543.752,18.38476,544.18066,19.40918Z" transform="translate(-1)"/><path class="cls-4" d="M558.59961,22.06055,557.333,23.252a6.5916,6.5916,0,0,0-3.58594-1.16308,14.02642,14.02642,0,0,0-1.82812.09277,2.21829,2.21829,0,0,0-1.07618.416,1.04384,1.04384,0,0,0-.41211.86816q0,1.18506,2.9834,1.18457l.73438-.00684h.15234c.23047,0,.5625-.01269.99414-.03808q.646-.03809,3.02149-.34277l.06836,1.7998a38.95564,38.95564,0,0,1-4.10547.25586,15.77723,15.77723,0,0,1-3.41211-.28027,3.58692,3.58692,0,0,1-1.80371-.92383,2.28027,2.28027,0,0,1-.62012-1.64844,2.39135,2.39135,0,0,1,1.28125-2.1875,6.89164,6.89164,0,0,1,3.47559-.74707,11.21063,11.21063,0,0,1,2.19433.2002q-.22851-.38086-.55371-1.01075h-6.81934V18.10742h6.06446q-.18018-.41455-.39453-1.08008h-5.14356V15.42871h4.73535q-.11133-.55371-.25586-1.33691l2.02735-.15235q.13183.90675.25683,1.48926h3.95313v1.59863h-3.51074q.13184.36768.416,1.08008h3.75977V19.7207h-2.94922A13.05694,13.05694,0,0,0,558.59961,22.06055Z" transform="translate(-1)"/><path class="cls-4" d="M575.78125,24.21387,574.75,25.959a14.96162,14.96162,0,0,0-3.64844-2.09863l.06836.29785a1.69742,1.69742,0,0,1,.05664.40918,1.406,1.406,0,0,1-.959,1.28418,6.42228,6.42228,0,0,1-2.63477.43946,4.732,4.732,0,0,1-2.53711-.65137A2.006,2.006,0,0,1,564.04,23.85352a2.1657,2.1657,0,0,1,.96973-1.8584,3.97928,3.97928,0,0,1,2.36718-.68848,10.41639,10.41639,0,0,1,1.75782.13086V20.28809h-4.83789V18.64746h4.83789V17.29785H563.915V15.65039h5.21973V14.14746h1.98046v1.50293h4.89454v1.64746h-4.89454v1.34961h4.168v1.64063h-4.168V21.9502A25.85489,25.85489,0,0,1,575.78125,24.21387Zm-6.64648-.27735v-.83691a6.48061,6.48061,0,0,0-1.4668-.23535,2.71386,2.71386,0,0,0-1.20117.24512.75607.75607,0,0,0-.502.68945q0,.80273,1.72266.80273Q569.13476,24.60156,569.13477,23.93652Z" transform="translate(-1)"/><path class="cls-4" d="M592.16016,16.88184h-4.11328V19.499a4.73762,4.73762,0,0,1,.39453,2.126,4.25222,4.25222,0,0,1-1.47657,3.38184,6.507,6.507,0,0,1-3.95117,1.43652l-.48437-1.67578q3.04688-.23437,3.84179-2.18067a2.98006,2.98006,0,0,1-1.79882.56739,2.93932,2.93932,0,0,1-2.03125-.73047,2.38721,2.38721,0,0,1-.82227-1.87207,2.777,2.777,0,0,1,.86914-2.10449,3.05124,3.05124,0,0,1,2.18555-.82422,3.42038,3.42038,0,0,1,1.23242.22851v-.96972h-6.7793V15.23438h6.7793V13.84961h2.041v1.38477h4.11328Zm-6.127,3.15039-.01367-.3877a1.41387,1.41387,0,0,0-1.23242-.47754,1.14718,1.14718,0,0,0-.8418.3916,1.20666,1.20666,0,0,0-.37695.8545,1.13224,1.13224,0,0,0,.2793.78222.93157.93157,0,0,0,.72461.31153,1.42035,1.42035,0,0,0,1.0625-.40528A1.45736,1.45736,0,0,0,586.0332,20.03223Z" transform="translate(-1)"/><path class="cls-4" d="M600.23633,24.09668a2.06877,2.06877,0,0,1-.69141,1.56738,2.49239,2.49239,0,0,1-3.35156,0,2.12339,2.12339,0,0,1,0-3.13574,2.49239,2.49239,0,0,1,3.35156,0A2.06933,2.06933,0,0,1,600.23633,24.09668Zm-1.34961-.00781a1.01363,1.01363,0,1,0-.29688.71386A.97837.97837,0,0,0,598.88672,24.08887Z" transform="translate(-1)"/></g></g></svg>