<svg id="レイヤー_1" data-name="レイヤー 1" xmlns="http://www.w3.org/2000/svg" xmlns:xlink="http://www.w3.org/1999/xlink" viewBox="0 0 442.88337 260.06975"><defs><style>.cls-1{stroke:#707070;fill:url(#名称未設定グラデーション_2);}</style><linearGradient id="名称未設定グラデーション_2" x1="60.40894" y1="249.93948" x2="419.1668" y2="249.93948" gradientTransform="translate(191.74479 -98.72952) rotate(35.48321)" gradientUnits="userSpaceOnUse"><stop offset="0" stop-color="#eac849"/><stop offset="0.27" stop-color="#fff8ac"/><stop offset="0.583" stop-color="#ac8506"/><stop offset="0.822" stop-color="#fff1a9"/><stop offset="1" stop-color="#eac849"/></linearGradient></defs><g id="グループ_8" data-name="グループ 8"><path id="パス_8" data-name="パス 8" class="cls-1" d="M320.85012,349.23366q15.69381,2.18319,31.23881,5.434l-3.95655-18.45778,12.93125-14.85093q-17.06217-3.73209-34.33486-6.21306l5.61888,18.27656Zm-33.30844-3.38008-7.489-18.41062,9.74478-16.17573q-18.1834-1.22581-36.38829-1.07532l8.6463,16.90189-8.69787,17.7886Q270.46943,344.73711,287.54168,345.85358ZM434.91117,230.44326l-2.7662,20.74481L364.2909,284.97036l26.00845-76.14117L414.81616,195.155l-1.16274-35.14289-30.7092,17.11771.934,28.04986-67.336,80.00077,6.94719-103.02629L343.62872,162.606l-10.22757-33.62968L308.169,153.47061l8.1669,26.84632-41.695,89.06312-19.39289-98.4409,14.39782-24.10664L251.05029,116.9933,233.029,147.16951l14.84145,23.83265-17.5826,98.78121-43.32222-88.27576,7.66646-26.99693L168.951,130.48989l-9.5946,33.81946,20.49324,19.17417,8.84472,102.88093L119.88767,207.624l.41757-28.0623L89.28862,163.0121l-.523,35.1584,24.76433,13.22062,27.41753,75.63482L72.47819,254.49832l-3.15-20.69035-37.31909-4.38744,94.19338,93.57054,10.66223,52.49075a464.621,464.621,0,0,1,233.13386-2.14569q4.84719-26.3366,9.69186-52.67807l92.45518-95.28839Zm-24.16781-63.99-19.2526,14.6212-3.51583,13.78588-.33958-15.42415ZM313.54787,155.212,332.08,136.27151l-14.38221,19.439.48708,14.2175Zm-149.12059,7.59412,6.36548-25.72842-2.53569,24.05114,7.63984,11.99726ZM93.28788,195.3889l-.50735-26.49471,3.77707,23.87592,10.48484,9.62393ZM38.69561,232.73821l20.082,13.46379,3.33481,8.43076Zm208.02182-72.76339-8.3927-12.94188,12.80308-23.20873-8.66848,22.57291Zm127.6549,164.47981q-6.39363-1.58807-12.82214-2.98551l4.12261,19.26872-12.34945,14.17707q7.65174,1.62285,15.2523,3.51942l-2.15728,8.70333a453.27859,453.27859,0,0,0-226.09544,2.08091l-2.3122-8.6622q7.54482-2.03842,15.18-3.79951l-12.60831-13.94979,3.77213-19.34138q-6.39063,1.52274-12.76013,3.221l-2.32194-8.65967a495.79135,495.79135,0,0,1,247.26192-2.27571Zm61.6218-74.69759,3.89077-14.93363,25.76165-6.19526-22.51191,8.82724ZM214.69084,312.04389q-17.37733,1.52382-34.62841,4.3079l11.51726,15.22854-5.41426,18.8002q16.08015-2.49514,32.29749-3.86921l-10.5584-16.82085Zm37.5814-1.84152q-18.19481.187-36.36969,1.74255l10.04085,15.99363-7.14891,18.54533q17.044-1.42559,34.16049-1.60021l-9.01893-17.62555Zm-73.22337,6.30269q-17.20692,2.81049-34.2074,6.84148L158.039,337.957l-3.6137,18.52745q15.46058-3.53856,31.13351-6.008l-11.79874-15.592Zm108.82725,29.3674q16.23253,1.07055,32.36328,3.279l-5.757-18.69982,11.23014-15.43793q-17.28465-2.45889-34.697-3.66985l7.10263,17.51631Z" transform="translate(-30.62944 -116.03324)"/></g></svg>