<svg id="レイヤー_1" data-name="レイヤー 1" xmlns="http://www.w3.org/2000/svg" xmlns:xlink="http://www.w3.org/1999/xlink" viewBox="0 0 1920 431"><defs><style>.cls-1{fill:#fff;}.cls-2{fill:none;}.cls-2,.cls-3{stroke:#707070;}.cls-3{fill:url(#名称未設定グラデーション_2);}.cls-4{isolation:isolate;}.cls-5{fill:#464646;}</style><linearGradient id="名称未設定グラデーション_2" x1="-0.13543" y1="430.83227" x2="0.86457" y2="430.83227" gradientTransform="matrix(143.76497, -104.49172, -61.11143, -84.08018, 26862.23248, 36388.75955)" gradientUnits="userSpaceOnUse"><stop offset="0" stop-color="#eac849"/><stop offset="0.27" stop-color="#fff8ac"/><stop offset="0.583" stop-color="#ac8506"/><stop offset="0.822" stop-color="#fff1a9"/><stop offset="1" stop-color="#eac849"/></linearGradient></defs><rect class="cls-1" width="1920" height="431"/><g id="グループ_838" data-name="グループ 838"><g id="グループ_837" data-name="グループ 837"><g id="グループ_9" data-name="グループ 9"><g id="長方形_8" data-name="長方形 8"><path class="cls-1" d="M642.408,120.80921h497.469a99.69,99.69,0,0,1,99.69,99.69h0a99.69,99.69,0,0,1-99.69,99.69H642.408a99.69,99.69,0,0,1-99.69-99.69h0A99.69,99.69,0,0,1,642.408,120.80921Z" transform="translate(0.5 0.5)"/><path class="cls-2" d="M642.408,121.30921h497.469a99.19,99.19,0,0,1,99.19,99.19h0a99.19,99.19,0,0,1-99.19,99.19H642.408a99.19,99.19,0,0,1-99.19-99.19h0A99.19,99.19,0,0,1,642.408,121.30921Z" transform="translate(0.5 0.5)"/></g><g id="グループ_8" data-name="グループ 8"><path id="パス_8" data-name="パス 8" class="cls-3" d="M632.694,144.17179q5.67207-2.9604,11.5444-5.53473l-5.627-5.14094.77064-7.91282q-6.48482,2.771-12.74513,6.00561l6.131,4.693Zm-11.74386,6.696-6.77685-4.299-.58733-7.60212q-6.26512,3.8625-12.21716,8.17622l6.80458,3.53084,1.30982,7.88682Q615.07173,154.50364,620.95018,150.86777Zm21.40428-72.48711,3.95209,7.46855-14.39213,27.01184-9.29463-31.13059,4.85267-10.24053-8.61915-11.282L612.77,73.03679l6.8823,9.00464-3.3865,42.08588L594.40028,88.62242l2.0374-11.14555-11.24338-8.665-2.55464,13.967L591.62,89.69117l7.16392,39.05522-29.44959-27.82151-.9158-11.29628-13.10368-5.45953,1.14607,14.14937,10.46258,4.35868,17.37366,36.59858-34.93527-18.87036-3.80276-10.67543L531.481,107.85076l4.77139,13.369,11.23019,1.50235,27.02667,31.75485-41.07915-9.76845-6.4406-9.32568-14.07935,1.82587,8.06822,11.68242,11.24077-1.45655,26.74293,18.45-30.136,5.35226-5.88883-6.06087-13.29507,7.30046,52.90061,8.68728,15.80882,14.75921A187.60608,187.60608,0,0,1,654.50189,140.575q-4.57912-9.79587-9.16046-19.59139l8.06444-53.00057ZM619.41028,63.00531l-2.90282,9.32036,2.07454,5.35651-3.726-4.992Zm-34.594,19.0855L586.47,71.51963l-.17324,9.7622,3.49279,4.5606Zm-47.249,37.44746-3.93665-9.95128,4.80319,8.50174,5.32409,2.15393ZM521.81362,146.924l-6.37735-8.594,6.84445,6.96741,5.70511.70492Zm-9.19513,25.07674,9.7588-.28052,3.0742,1.99275Zm51.34387-72.67816-5.79494-2.29142-1.22827-10.629,2.44017,9.45392Zm80.5234,24.15981c-1.65012.6504-3.28908,1.32977-4.91524,2.02334l5.87161,5.36866-.73869,7.557q2.89633-1.25944,5.83743-2.42161l1.33343,3.36555a183.02664,183.02664,0,0,0-73.85119,53.67676l-2.78962-2.30715q2.00565-2.44068,4.10275-4.80316l-7.41522-1.63057-3.29332-7.24261c-1.15871,1.33672-2.31374,2.6819-3.44011,4.04952l-2.7861-2.3023A200.19155,200.19155,0,0,1,643.1664,120.114Zm2.7509-39.00033-2.22058-5.82281,7.02181-8.07091-5.33265,8.17847Zm-58.1644,72.34382q-5.3574,4.57389-10.37873,9.5353l7.35685,2.30724,2.62606,7.45066q4.70512-4.59186,9.71279-8.84233L590.9748,164.22Zm11.927-9.41066q-5.93821,4.32593-11.54883,9.09746l7.04962,2.90517,1.99728,7.77291q5.26971-4.46319,10.859-8.53427l-7.09756-3.68388Zm-22.59951,19.23241q-4.99847,4.95716-9.64637,10.26905l7.7635,1.71,3.1571,6.93611q4.25415-4.78709,8.82784-9.2723l-7.53022-2.36546Zm42.66434-15.85274q5.58861-3.45117,11.40895-6.507l-6.27523-4.79958.07381-7.708q-6.25942,3.24267-12.26842,6.92518l6.44,4.0975Z" transform="translate(0.5 0.5)"/></g><g id="グループ_6" data-name="グループ 6"><g id="L-FIND" class="cls-4"><g class="cls-4"><path class="cls-5" d="M673.98193,274.90723h-13.79V255.04h4.35059v16.57129h9.43945Z" transform="translate(0.5 0.5)"/><path class="cls-5" d="M683.11816,267.81445h-9.59765v-3.40136h9.59765Z" transform="translate(0.5 0.5)"/><path class="cls-5" d="M700.88965,258.335h-9.57129v4.417h8.6748v3.28223h-8.64843v8.87305h-4.35059V255.04h13.89551Z" transform="translate(0.5 0.5)"/><path class="cls-5" d="M713.5459,274.90723H702.709v-2.9668h3.24317V258.00586H702.709V255.04H713.5459v2.96582h-3.24317v13.93457h3.24317Z" transform="translate(0.5 0.5)"/><path class="cls-5" d="M734.49463,274.90723h-4.19238l-8.91211-14.56836v14.56836H717.356V255.04h5.27343l7.83106,12.83984V255.04h4.03418Z" transform="translate(0.5 0.5)"/><path class="cls-5" d="M739.21436,274.90723V255.04h6.20947a16.18654,16.18654,0,0,1,6.57861,1.08008,8.34807,8.34807,0,0,1,3.72412,3.32226,10.49661,10.49661,0,0,1,1.36475,5.55078,10.29466,10.29466,0,0,1-1.41748,5.37207,8.40989,8.40989,0,0,1-3.79,3.46094,15.70046,15.70046,0,0,1-6.40723,1.08106Zm4.35058-16.74317v13.61817h2.13574q6.84229,0,6.84229-6.82813,0-6.78956-6.84229-6.79Z" transform="translate(0.5 0.5)"/></g></g><g id="エルファインド" class="cls-4"><g class="cls-4"><path class="cls-5" d="M724.0708,224.9375H659.26611v-9.43359h27.07032V182.72559H663.53857v-9.16016h55.84961v9.16016H697.27393v32.77832H724.0708Z" transform="translate(0.5 0.5)"/><path class="cls-5" d="M752.8501,189.52734q.06811,16.06494-5.29785,25.17383-5.36646,9.10841-16.47461,14.30371l-3.999-8.33984a25.94665,25.94665,0,0,0,11.51856-10.85254q4.0327-7.19385,4.0332-21.8916V171.82227H752.8501Zm43.95508,11.00586A53.03732,53.03732,0,0,1,783.56055,218.084a43.96053,43.96053,0,0,1-18.47412,9.65625l-4.06739-3.34961v-54.585h10.21973v44.6045q10.49268-5.16064,17.63672-20.06348Z" transform="translate(0.5 0.5)"/><path class="cls-5" d="M860.00342,171.54883q0,17.39794-5.31494,29.59961a38.84611,38.84611,0,0,1-17.20948,18.833q-11.89452,6.63134-28.71093,8.13476l-2.73438-9.126q14.35547-1.46923,23.99414-6.54492,9.63867-5.07714,13.67188-12.57812,4.03271-7.50294,5.12695-19.5H805.62354v-8.81836Z" transform="translate(0.5 0.5)"/><path class="cls-5" d="M928.19189,182.52051a34.574,34.574,0,0,1-2.27294,6.01562q-1.52124,3.17871-2.54639,4.8877a33.33313,33.33313,0,0,1-3.38379,4.40918,59.01091,59.01091,0,0,1-5.86182,5.72558,50.14345,50.14345,0,0,1-7.0581,5.14356l-4.58008-6.01563a34.68354,34.68354,0,0,0,8.562-6.751,38.30931,38.30931,0,0,0,6.23779-8.49317H874.70068v-7.21191h50.68848Zm-25.77148,8.0664a94.76311,94.76311,0,0,1-1.09375,16.55957,27.01357,27.01357,0,0,1-13.36426,18.5254,36.18715,36.18715,0,0,1-9.67285,3.98242l-3.14453-6.80176q11.51806-3.75879,15.03906-10.35645a31.66735,31.66735,0,0,0,3.52051-15.1416v-.88867l-.03418-5.87891Z" transform="translate(0.5 0.5)"/><path class="cls-5" d="M981.23926,227.94531H970.74609v-31.001a127.32342,127.32342,0,0,1-28.4038,10.28808l-3.14454-8.95508a103.903,103.903,0,0,0,31.37745-12.68066q13.33006-8.373,20.20019-19.24316l9.94629,3.79394a76.05447,76.05447,0,0,1-9.77539,12.27051,78.04271,78.04271,0,0,1-9.707,7.99805Z" transform="translate(0.5 0.5)"/><path class="cls-5" d="M1047.06934,184.19531l-6.25489,8.47657q-5.05956-3.2461-8.97265-5.46876-3.91407-2.22069-17.6875-9.16015l5.40039-7.82715Q1030.28613,174.48877,1047.06934,184.19531Zm27.71972,8.33985q-8.68212,16.03125-22.66113,24.43847-13.98047,8.40821-35.376,10.49317l-2.32422-9.57032a92.31608,92.31608,0,0,0,19.48243-3.55468,51.48528,51.48528,0,0,0,13.65429-6.54492,68.9258,68.9258,0,0,0,9.98047-8.23829,66.54129,66.54129,0,0,0,9.041-12.49218Z" transform="translate(0.5 0.5)"/><path class="cls-5" d="M1143.45605,202.34473l-6.46,8.10058a127.46471,127.46471,0,0,0-30.18066-15.24414v33.3252h-10.7666V166.86621H1106.918v18.25195A174.79548,174.79548,0,0,1,1143.45605,202.34473Zm-14.49218-19.89258-4.99024,1.91406q-2.80371-6.9375-4.68261-10.52734l4.81933-1.87989A113.23284,113.23284,0,0,1,1128.96387,182.45215Zm10.35644-2.22168-4.92187,1.81152q-2.39356-5.981-4.68262-10.49316l4.68262-1.74317Q1137.20068,175.17286,1139.32031,180.23047Z" transform="translate(0.5 0.5)"/></g></g></g></g><line id="線_2" data-name="線 2" class="cls-2" x1="795.59995" y1="270.30315" x2="1120.67594" y2="271.38715"/></g><g id="で診断から初めてみませんか_" data-name="で診断から初めてみませんか " class="cls-4"><g class="cls-4"><path class="cls-5" d="M865.126,404.29688l-.3418,6.59179q-2.66161.07324-3.54.07324-9.00879,0-14.03809-2.52636a17.0679,17.0679,0,0,1-7.20214-6.10352,15.36834,15.36834,0,0,1-2.17286-8.14258q0-8.93555,8.81348-16.45507l-21.7041.21972v-6.25H868.4707v6.29883H857.26465a23.97027,23.97027,0,0,0-8.71582,6.86035,14.44427,14.44427,0,0,0-3.418,9.0332q0,10.54688,16.04,10.54688Q863.02611,404.44336,865.126,404.29688Zm-2.17286-16.18653-3.61328,1.34277q-1.00122-2.53857-3.29589-7.49511l3.46679-1.36719A78.81189,78.81189,0,0,1,862.95312,388.11035Zm6.958-1.416-3.51562,1.29394q-1.70947-4.248-3.34473-7.49512l3.34473-1.24511Q868.39722,383.08154,869.91113,386.69434Z" transform="translate(0.5 0.5)"/></g><g class="cls-4"><path class="cls-5" d="M900.87793,365.22461H876.23438v-6.83594h24.64355Zm-.85449,41.7334H885.90723v2.52929H877.7041V386.51855h22.31934Zm-.20508-51.44043H878.627v-6.084h21.19141Zm-.3418,18.69629H878.69531v-5.98145h20.78125Zm0,9.16015H878.69531V377.3584h20.78125Zm-7.69043,17.56836v-8.33984h-5.60547v8.33984Zm51.30371-35.47851-4.99023,6.90429A51.5567,51.5567,0,0,1,920.70215,356.543a43.10952,43.10952,0,0,1-17.29492,15.68848l-4.34082-5.94727a35.17059,35.17059,0,0,0,9.48486-6.95606,42.27266,42.27266,0,0,0,8.0835-11.22753h8.4082Q930.58009,358.96973,943.08984,365.46387Zm-14.9707,1.09375a52.81417,52.81417,0,0,1-10.54443,9.45019,81.56155,81.56155,0,0,1-13.14209,7.77637l-4.27246-6.35742Q914.7544,370.18164,921.249,361.875Zm7.75879,10.21972A72.40148,72.40148,0,0,1,921.26611,388.125a85.2095,85.2095,0,0,1-17.79052,8.54492l-3.21289-6.93847a76.781,76.781,0,0,0,16.50878-8.28809,64.62266,64.62266,0,0,0,12.44141-10.16895Zm6.80176,11.00586q-6.5625,7.17774-18.23487,13.43262a84.71382,84.71382,0,0,1-21.48193,8.4082l-2.70019-7.34863q8.30565-2.05079,19.32861-8.16894,11.02294-6.11719,16.4917-12.27051Z" transform="translate(0.5 0.5)"/><path class="cls-5" d="M979.42285,397.52441l-.06836,3.17871a43.92757,43.92757,0,0,0,4.01563-12.9707,92.14219,92.14219,0,0,0,1.1455-14.373v-20.7129a88.10135,88.10135,0,0,0,23.37891-4.54589l3.93067,6.97265q-6.04981,2.18849-18.69629,3.93067v9.46777h18.49121V375.957h-5.127v32.94922h-8.75V375.957h-4.64843a77.36524,77.36524,0,0,1-2.54688,18.37109,51.84991,51.84991,0,0,1-7.0918,15.22754l-5.94726-4.61425H955.73633v2.80273h-7.75879V349.98047h7.75879v47.54394Zm-12.6123-14.49218a42.61758,42.61758,0,0,1-6.80176,8.88672l-4.0332-4.61426a54.67466,54.67466,0,0,0,9.29687-14.93653H957.377v-5.81054h9.4336V348.51074H973.749v18.04688h8.61328v5.81054H975.082a59.9933,59.9933,0,0,0,7.48535,9.126l-3.8623,5.50293A44.20328,44.20328,0,0,1,973.749,381.084v15.17579h-6.93847ZM965.751,364.74609l-6.01563.99121-2.085-12.749,5.94727-.92285Zm17.70507-12.03125-3.21289,12.88575-5.60546-.92286,2.52929-13.02246Z" transform="translate(0.5 0.5)"/></g><g class="cls-4"><path class="cls-5" d="M1032.86035,373.38867q0,1.53809-.12207,3.71094h6.7627a8.78969,8.78969,0,0,1,6.73828,2.74609,9.91517,9.91517,0,0,1,2.56347,7.04395q0,10.81641-2.51464,17.48047-2.51514,6.665-8.52051,6.665-3.66211,0-10.00977-3.6377l2.2461-5.9082a24.18742,24.18742,0,0,0,4.11328,1.79394,13.30921,13.30921,0,0,0,2.84472.76953,2.19758,2.19758,0,0,0,1.64747-.73242,8.69258,8.69258,0,0,0,1.45312-2.9541,26.65743,26.65743,0,0,0,1.13477-5.09082,50.8504,50.8504,0,0,0,.3789-6.5791,13.13343,13.13343,0,0,0-.31738-3.49121,2.755,2.755,0,0,0-1.04981-1.502,3.22389,3.22389,0,0,0-1.85546-.5H1032.25q-2.24707,17.09034-12.8418,28.58887l-5.29785-3.93066a50.46179,50.46179,0,0,0,6.29883-9.64356,47.74011,47.74011,0,0,0,4.41894-15.01465h-8.83789v-6.10351h9.7168V367.7002h7.15332ZM1063.25586,393.75l-7.00684,1.80664a77.37,77.37,0,0,0-3.418-10.083,53.84243,53.84243,0,0,0-3.47949-6.27441,36.34666,36.34666,0,0,0-3.50293-4.80957l5.59082-3.49121a51.58472,51.58472,0,0,1,7.51953,10.9375A43.395,43.395,0,0,1,1063.25586,393.75Z" transform="translate(0.5 0.5)"/><path class="cls-5" d="M1076.90332,411.40137l-1.001-6.20117q12.74415,0,19.39649-1.96582,6.65333-1.96437,6.65332-6.43262a5.85432,5.85432,0,0,0-2.36817-5.0166,10.78236,10.78236,0,0,0-6.51855-1.7461,25.885,25.885,0,0,0-10.9375,2.51465,24.08128,24.08128,0,0,0-8.78906,6.64063l-5.34668-3.14942q3.68555-8.56934,4.15039-20.70312l7.20215.415a53.22956,53.22956,0,0,1-2.14844,12.89062,28.29351,28.29351,0,0,1,7.53125-3.14941,31.2211,31.2211,0,0,1,8.26465-1.24512q7.64063,0,11.95019,3.22266t4.30957,9.32617a11.26936,11.26936,0,0,1-2.80761,7.73926q-2.80811,3.17432-8.64258,4.80957Q1091.96582,410.98535,1076.90332,411.40137Zm28.90625-38.208-3.19824,6.20117a64.80637,64.80637,0,0,0-12.915-3.63769q-7.83692-1.48829-13.08594-1.95313l1.87988-5.85937A141.85194,141.85194,0,0,1,1105.80957,373.19336Z" transform="translate(0.5 0.5)"/><path class="cls-5" d="M1128.14844,411.30371h-6.15235v-16.626a47.01417,47.01417,0,0,1-5.49316,3.9795l-2.71-4.61426a37.17859,37.17859,0,0,0,7.9707-6.90918,30.58293,30.58293,0,0,0,5.28613-8.27637h-11.10839v-5.39551h6.15234v-6.20117h6.20117v6.20117h5.73731l1.31836,1.34278a38.38224,38.38224,0,0,1-6.68946,12.84179q.73242.65919,1.78223,1.51368a57.2787,57.2787,0,0,0,4.58984-5.85938l3.75977,2.61231a54.08365,54.08365,0,0,1-4.93164,5.81054l2.73437,1.92871-3.10058,5.15137q-2.88135-2.24561-5.34668-4.5166Zm6.88476-.19531-4.19922-4.19922a27.95119,27.95119,0,0,0,5.91993-7.4707,31.54259,31.54259,0,0,0,3.43066-9.167,61.64846,61.64846,0,0,0,.95215-11.87793v-4.3457h-5.44434v-5.34668h24.51172v23.90137a77.39192,77.39192,0,0,1-.46387,8.46,24.09007,24.09007,0,0,1-1.08691,5.7002,5.7587,5.7587,0,0,1-2.35547,2.58789,7.87762,7.87762,0,0,1-4.29687,1.09863h-6.958l-.80567-6.20117h5.66407a4.0319,4.0319,0,0,0,1.47656-.24414,2.55874,2.55874,0,0,0,1.0625-.78125,6.62364,6.62364,0,0,0,.76855-2.67383q.32959-2.13574.501-5.1875.16992-3.05127.1709-7.03125,0-2.44044-.14648-14.28223h-6.10352q.02343,2.9297.02441,4.63867a55.20788,55.20788,0,0,1-2.6123,18.042Q1142.42969,404.249,1135.0332,411.1084Z" transform="translate(0.5 0.5)"/><path class="cls-5" d="M1189.25684,401.14746l-4.76075,3.95508-1.19629-1.48926q-5.37157,4.88379-9.98535,4.88281a7.38683,7.38683,0,0,1-5.82324-2.6123,9.37865,9.37865,0,0,1-2.28223-6.39649q0-9.25194,7.56836-15.67382a87.494,87.494,0,0,1-2.73437-10.96192l6.665-1.709a84.5448,84.5448,0,0,0,1.83105,8.93554,32.81419,32.81419,0,0,1,9.91211-3.14941q.19482-3.19775.19531-8.52051l7.251.04883a81.0868,81.0868,0,0,1-.36621,8.1543,18.38759,18.38759,0,0,1,11.82813,5.05371,15.26071,15.26071,0,0,1,4.55371,11.377,15.49978,15.49978,0,0,1-5.63965,12.52442q-5.63965,4.71093-17.43164,5.7373l-1.44043-5.71289q9.64306-1.26855,13.45215-4.38184a10.24266,10.24266,0,0,0,3.80859-8.3623,9.9997,9.9997,0,0,0-2.77149-7.23926,11.14884,11.14884,0,0,0-7.26269-3.2832,42.4096,42.4096,0,0,1-7.05566,16.55273Q1188.45117,400.09864,1189.25684,401.14746Zm-9.49707-2.46582a73.48377,73.48377,0,0,1-4.41895-8.91113,14.56774,14.56774,0,0,0-3.49121,9.71679,3.08935,3.08935,0,0,0,.61035,1.87989,1.8393,1.8393,0,0,0,1.53809.83008Q1176.48828,402.19727,1179.75977,398.68164Zm.51269-13.01269a56.07612,56.07612,0,0,0,3.49121,7.42187,32.68062,32.68062,0,0,0,3.95508-10.25391A23.91361,23.91361,0,0,0,1180.27246,385.669Z" transform="translate(0.5 0.5)"/><path class="cls-5" d="M1255.39453,404.29688l-.3418,6.59179q-2.66162.07324-3.54.07324-9.00879,0-14.03809-2.52636a17.06485,17.06485,0,0,1-7.20215-6.10352,15.36388,15.36388,0,0,1-2.17285-8.14258q0-8.93555,8.81348-16.45507l-21.70411.21972v-6.25h43.53028v6.29883H1247.5332a23.97036,23.97036,0,0,0-8.71582,6.86035,14.4415,14.4415,0,0,0-3.418,9.0332q0,10.54688,16.04,10.54688Q1253.29394,404.44336,1255.39453,404.29688Z" transform="translate(0.5 0.5)"/><path class="cls-5" d="M1313.3291,391.1377l-2.05078,6.37207-5.542-2.0752a25.96018,25.96018,0,0,1-13.11035,16.50391l-4.15039-4.44336a29.835,29.835,0,0,0,7.20214-6.70215,20.84151,20.84151,0,0,0,3.36915-7.65332,63.95238,63.95238,0,0,0-10.62012-2.44141q-7.667,17.74952-16.23535,17.749a6.67481,6.67481,0,0,1-5.249-2.332,8.35735,8.35735,0,0,1-2.05078-5.72461q0-5.83446,5.07813-10.9375a17.54306,17.54306,0,0,1,12.98828-5.10253h.39062a58.746,58.746,0,0,0,1.63575-8.39844h-14.35547V370.1416h21.04492l.95215,1.04981a63.74056,63.74056,0,0,1-2.22168,13.7207,74.84253,74.84253,0,0,1,9.52148,2.02637q.12159-1.78125.12207-5.22461,0-1.34179-.02441-2.90528h7.10449l.02441,4.15039q.02344,3.4424-.21972,6.05469Zm-32.08008-.8545a9.853,9.853,0,0,0-5.62793,2.13672,10.70982,10.70982,0,0,0-3.27148,4.15039,10.15744,10.15744,0,0,0-.93945,3.69824q0,1.5381.92773,1.53809Q1276.41455,401.80664,1281.249,390.2832Z" transform="translate(0.5 0.5)"/><path class="cls-5" d="M1359.34961,403.6377l-3.6377,6.15234a52.70348,52.70348,0,0,0-12.86621-7.39746l.24414,1.0498a5.99134,5.99134,0,0,1,.19532,1.44043q-.02491,2.97949-3.38184,4.5293a22.629,22.629,0,0,1-9.28906,1.5498,16.7306,16.7306,0,0,1-8.94824-2.29492,7.07149,7.07149,0,0,1-3.72266-6.29883,7.64011,7.64011,0,0,1,3.418-6.55566,14.04106,14.04106,0,0,1,8.34961-2.42871,36.58307,36.58307,0,0,1,6.20117.46387v-4.05274h-17.06543v-5.78613h17.06543v-4.76074h-18.4082V373.4375h18.4082v-5.29785h6.98242v5.29785h17.26074v5.81055h-17.26074v4.76074h14.69727v5.78613h-14.69727v5.85938A91.3231,91.3231,0,0,1,1359.34961,403.6377Zm-23.4375-.97657V399.707a22.97287,22.97287,0,0,0-5.17578-.83008,9.54124,9.54124,0,0,0-4.23633.86719,2.67093,2.67093,0,0,0-1.76953,2.42871q0,2.833,6.0791,2.832Q1335.91163,405.00488,1335.91211,402.66113Z" transform="translate(0.5 0.5)"/><path class="cls-5" d="M1406.542,410.40039q-7.4956.26806-12.86621.26856a81.93586,81.93586,0,0,1-12.8789-.69629,10.519,10.519,0,0,1-6.11524-3.18555q-2.27051-2.49024-2.27051-7.34863v-14.502h-7.15332v-5.957h7.15332v-9.61914h7.251v9.61914h16.77246q-.07325-4.63768-.48828-9.83887l7.15332-.43945q.41456,4.66407.415,10.27832h7.83691v5.957h-7.959a60.51273,60.51273,0,0,1-1.0625,10.0459,6.80015,6.80015,0,0,1-2.18457,3.47949,6.457,6.457,0,0,1-4.24805,1.29395,12.64508,12.64508,0,0,1-5.60351-1.61133,26.82209,26.82209,0,0,1-5.89551-4.10156l3.00293-5.00488a23.55185,23.55185,0,0,0,4.39453,2.72168,9.36749,9.36749,0,0,0,2.832,1.01367,1.15768,1.15768,0,0,0,.81738-.28125,1.21166,1.21166,0,0,0,.37891-.707q.07325-.42774.28027-2.55176.208-2.124.28125-4.29688h-16.72363v14.67286q0,4.32128,5.59082,4.63867l.75684.02441q3.78369.19629,8.32519.19531,6.73829,0,12.207-.51269Z" transform="translate(0.5 0.5)"/><path class="cls-5" d="M1439.74512,369.14062q-5.05371,10.4004-8.08106,17.23633a7.81626,7.81626,0,0,1,2.68555-.48828q5.61474,0,7.00684,4.90723l.8789,8.78906a7.43179,7.43179,0,0,0,1.31836,3.95508,3.50594,3.50594,0,0,0,2.88086,1.29394q6.44532,0,8.47168-15.18554l6.64063,1.61133q-1.66115,11.05956-5.40821,15.4541a12.47726,12.47726,0,0,1-9.99707,4.39453q-5.39648,0-7.94726-2.5752-2.55177-2.57666-2.89258-9.63183l-.14649-3.4668a6.09246,6.09246,0,0,0-.61035-2.67285,1.63062,1.63062,0,0,0-1.46484-.96484,5.981,5.981,0,0,0-3.8457,1.97753q-2.11232,1.97754-4.89454,8.76465-1.97754,4.44434-3.78418,8.81348l-6.71386-1.66016,10.27832-23.70605q1.02538-2.44043,8.5205-18.48145Z" transform="translate(0.5 0.5)"/><path class="cls-5" d="M1482.86035,373.38867q0,1.53809-.12207,3.71094h6.7627a8.78969,8.78969,0,0,1,6.73828,2.74609,9.91517,9.91517,0,0,1,2.56347,7.04395q0,10.81641-2.51464,17.48047-2.51514,6.665-8.52051,6.665-3.66211,0-10.00977-3.6377l2.2461-5.9082a24.18742,24.18742,0,0,0,4.11328,1.79394,13.30921,13.30921,0,0,0,2.84472.76953,2.19758,2.19758,0,0,0,1.64747-.73242,8.69258,8.69258,0,0,0,1.45312-2.9541,26.65743,26.65743,0,0,0,1.13477-5.09082,50.8504,50.8504,0,0,0,.3789-6.5791,13.13343,13.13343,0,0,0-.31738-3.49121,2.755,2.755,0,0,0-1.04981-1.502,3.22389,3.22389,0,0,0-1.85546-.5H1482.25q-2.24707,17.09034-12.8418,28.58887l-5.29785-3.93066a50.46179,50.46179,0,0,0,6.29883-9.64356,47.74011,47.74011,0,0,0,4.41894-15.01465h-8.83789v-6.10351h9.7168V367.7002h7.15332ZM1513.25586,393.75l-7.00684,1.80664a77.37,77.37,0,0,0-3.418-10.083,53.84243,53.84243,0,0,0-3.47949-6.27441,36.34666,36.34666,0,0,0-3.50293-4.80957l5.59082-3.49121a51.58472,51.58472,0,0,1,7.51953,10.9375A43.395,43.395,0,0,1,1513.25586,393.75Z" transform="translate(0.5 0.5)"/><path class="cls-5" d="M1540.624,393.042v5.3711h-7.34863v-7.83692q5.22363-1.87939,7.28711-3.93066a6.43628,6.43628,0,0,0,2.06348-4.6875q0-4.90724-6.29883-4.90723a15.72326,15.72326,0,0,0-8.3252,2.68555h-.75683v-6.68945a31.93629,31.93629,0,0,1,10.86426-2.02637q5.85936,0,9.28906,2.624a8.36752,8.36752,0,0,1,3.43066,6.99512,10.98675,10.98675,0,0,1-2.23437,6.9209Q1546.36084,390.45507,1540.624,393.042Zm.61036,15.50293h-8.44727v-6.34765h8.44727Z" transform="translate(0.5 0.5)"/></g></g><g id="まずは" class="cls-4"><g class="cls-4"><path class="cls-5" d="M402.34961,56.6377,398.71191,62.79a52.69433,52.69433,0,0,0-12.86621-7.39746l.24414,1.0498a5.99134,5.99134,0,0,1,.19532,1.44043q-.02492,2.9795-3.38135,4.5293a22.6315,22.6315,0,0,1-9.28955,1.5498A16.72772,16.72772,0,0,1,364.6665,61.667a7.072,7.072,0,0,1-3.72314-6.29883,7.64126,7.64126,0,0,1,3.418-6.55566,14.04106,14.04106,0,0,1,8.34961-2.42871,36.579,36.579,0,0,1,6.20117.46387V42.79492H361.84668V37.00879h17.06543V32.24805h-18.4082V26.4375h18.4082V21.13965h6.98242V26.4375h17.26074v5.81055H385.89453v4.76074H400.5918v5.78613H385.89453V48.6543A91.307,91.307,0,0,1,402.34961,56.6377Zm-23.4375-.97657V52.707a22.9689,22.9689,0,0,0-5.17578-.83008,9.54051,9.54051,0,0,0-4.23584.86719,2.67073,2.67073,0,0,0-1.77,2.42871q0,2.833,6.0791,2.832Q378.91162,58.00488,378.91211,55.66113Z" transform="translate(0.5 0.5)"/><path class="cls-5" d="M451.39746,31.125H439.55664v8.88672a16.592,16.592,0,0,1,1.44043,7.59277,14.92262,14.92262,0,0,1-5.46875,11.90137,22.29254,22.29254,0,0,1-13.67187,5.09082l-1.709-5.9082q10.74169-.82911,13.54981-7.69043A10.526,10.526,0,0,1,427.34961,53a10.38012,10.38012,0,0,1-7.16553-2.57617,8.44144,8.44144,0,0,1-2.89306-6.60352,9.62365,9.62365,0,0,1,3.064-7.373,10.85514,10.85514,0,0,1,7.70264-2.85645,12.532,12.532,0,0,1,4.32129.75684V31.125h-24.1211V25.63184h24.09668V20.1875h7.20215v5.44434h5.32227q-.97706-2.2207-2.39258-4.90723l3.32031-1.36719q1.12281,2.05078,3.17383,6.27442h2.417ZM432.501,42.01367l-.04883-1.3916q-1.19678-1.68458-4.3457-1.68457a4.04442,4.04442,0,0,0-2.96631,1.37891,4.27086,4.27086,0,0,0-1.33057,3.01562,3.96831,3.96831,0,0,0,.98877,2.75879,3.27468,3.27468,0,0,0,2.55127,1.09863,5.02052,5.02052,0,0,0,3.74756-1.42773A5.11916,5.11916,0,0,0,432.501,42.01367Zm23.6084-16.35742-3.44239,1.416q-1.00122-2.46534-3.27148-7.00684l3.36914-1.24512Q453.93653,21.06739,456.10938,25.65625Z" transform="translate(0.5 0.5)"/><path class="cls-5" d="M470.02539,22.751a72.20806,72.20806,0,0,0-3.00293,18.82324,76.53065,76.53065,0,0,0,2.80762,20.53223l-6.86035,1.3916a80.03522,80.03522,0,0,1-2.68555-20.19043,88.25082,88.25082,0,0,1,2.85644-21.50879Zm36.25488,33.39843-3.95507,5.59082a46.35638,46.35638,0,0,0-7.05567-5.46875,7.31752,7.31752,0,0,1-2.57568,5.49317q-2.332,1.8794-8.65479,1.87988a12.98426,12.98426,0,0,1-7.69043-2.209,6.96673,6.96673,0,0,1-3.125-5.99414,7.38624,7.38624,0,0,1,3.14942-6.16407,11.99239,11.99239,0,0,1,7.44629-2.38086,41.3159,41.3159,0,0,1,4.5166.293V36.27637H472.49121V30.22168h15.84473v-8.8623h6.98242v8.8623h9.10644v6.05469h-9.10644V49.28906A47.26857,47.26857,0,0,1,506.28027,56.14941Zm-17.94433-1.3916v-1.709a12.3421,12.3421,0,0,0-4.5166-.75684,5.21339,5.21339,0,0,0-2.84424.794,2.36768,2.36768,0,0,0-1.25733,2.0625,2.20372,2.20372,0,0,0,1.294,1.99023,6.12992,6.12992,0,0,0,3.02734.71973Q488.33545,57.8584,488.33594,54.75781Z" transform="translate(0.5 0.5)"/></g></g></g></svg>