<svg id="レイヤー_1" data-name="レイヤー 1" xmlns="http://www.w3.org/2000/svg" xmlns:xlink="http://www.w3.org/1999/xlink" viewBox="0 0 1920 380.45161"><defs><style>.cls-1{fill:none;}.cls-2{fill:#fff;}.cls-3{fill:#f15b55;}.cls-4{fill:#99aab5;}.cls-5{fill:#e1e8ed;}.cls-6{fill:#66757f;}.cls-7{fill:#939598;}.cls-8{fill:#58595b;}.cls-9{fill:#292f33;}.cls-10{fill:#5c913b;}.cls-11{fill:#ffe8b6;}.cls-12{fill:#ffac33;}.cls-13{fill:#55acee;}.cls-14{fill:#77b255;}.cls-15{isolation:isolate;}.cls-16{fill:#fbfbfb;}.cls-17{fill:#bcbec0;}.cls-18{fill:#be1931;}.cls-19{fill:#f4900c;}.cls-20{fill:#ffd983;}.cls-21{fill:#ea596e;}.cls-22{fill:#a0041e;}.cls-23{clip-path:url(#clip-path);}.cls-24{fill:#27af67;}.cls-25{fill:#ffff87;}</style><clipPath id="clip-path" transform="translate(0 0.45161)"><rect class="cls-1" x="1575.9032" y="71.10722" width="114.48" height="114.48"/></clipPath></defs><rect class="cls-2" y="0.45161" width="1920" height="380"/><g id="グループ_167" data-name="グループ 167"><g id="グループ_160" data-name="グループ 160"><circle id="楕円形_5" data-name="楕円形 5" class="cls-3" cx="296.9032" cy="190" r="190"/><circle id="楕円形_5-2" data-name="楕円形 5-2" class="cls-3" cx="738.9032" cy="190" r="190"/><circle id="楕円形_5-3" data-name="楕円形 5-3" class="cls-3" cx="1180.90326" cy="190" r="190"/><circle id="楕円形_5-4" data-name="楕円形 5-4" class="cls-3" cx="1622.90326" cy="190" r="190"/></g><g id="グループ_161" data-name="グループ 161"><path id="パス_343" data-name="パス 343" class="cls-4" d="M791.9032,116.93828a54.886,54.886,0,1,1-54.89795-54.874h.01a54.883,54.883,0,0,1,54.88794,54.874" transform="translate(0 0.45161)"/><path id="パス_344" data-name="パス 344" class="cls-5" d="M779.7052,116.93848a42.688,42.688,0,1,1-42.69092-42.68506h.002a42.68992,42.68992,0,0,1,42.689,42.68506" transform="translate(0 0.45161)"/><path id="パス_345" data-name="パス 345" class="cls-6" d="M740.06324,116.93728a3.045,3.045,0,0,1-6.09.02051v-.02051h0V83.40335a3.045,3.045,0,0,1,6.09-.02051v33.55444Z" transform="translate(0 0.45161)"/><path id="パス_346" data-name="パス 346" class="cls-6" d="M753.0293,90.22928a3.03408,3.03408,0,0,1,1.11389,4.14355l-.00086.00147h0l-13.718,23.76489a3.043,3.043,0,0,1-5.276-3.033l13.708-23.7749a3.04992,3.04992,0,0,1,4.17017-1.1023l.00378.0022" transform="translate(0 0.45161)"/></g><g id="グループ_162" data-name="グループ 162"><rect id="長方形_107" data-name="長方形 107" class="cls-7" x="236.97608" y="162.7522" width="135.854" height="7.557"/><path id="パス_347" data-name="パス 347" class="cls-8" d="M267.17005,154.74239a11.33154,11.33154,0,1,0,0,.0249v-.0249h0" transform="translate(0 0.45161)"/><path id="パス_348" data-name="パス 348" class="cls-9" d="M263.39925,154.74353a7.55457,7.55457,0,1,0,0,.00073v-.00073h0" transform="translate(0 0.45161)"/><path id="パス_349" data-name="パス 349" class="cls-8" d="M297.36916,154.74239a11.33411,11.33411,0,1,0,0,.01977v-.01977h0" transform="translate(0 0.45161)"/><path id="パス_350" data-name="パス 350" class="cls-9" d="M293.58905,154.74353a7.54944,7.54944,0,1,0,0,.011v-.011h0" transform="translate(0 0.45161)"/><path id="パス_351" data-name="パス 351" class="cls-8" d="M369.056,154.74239a11.33548,11.33548,0,1,0,0,.01709v-.01709h0" transform="translate(0 0.45161)"/><path id="パス_352" data-name="パス 352" class="cls-9" d="M365.30425,154.74353a7.55,7.55,0,1,0-7.5559,7.55493,7.55016,7.55016,0,0,0,7.5559-7.55493h0" transform="translate(0 0.45161)"/><path id="パス_353" data-name="パス 353" class="cls-8" d="M338.8782,154.74239a11.33105,11.33105,0,1,0,0,.02588v-.02588h0" transform="translate(0 0.45161)"/><path id="パス_354" data-name="パス 354" class="cls-9" d="M335.09215,154.74353a7.55005,7.55005,0,1,0-7.54516,7.55493h.00219a7.544,7.544,0,0,0,7.543-7.54492v-.01h0" transform="translate(0 0.45161)"/><rect id="長方形_108" data-name="長方形 108" class="cls-10" x="236.97608" y="140.11206" width="135.854" height="15.082"/><rect id="長方形_109" data-name="長方形 109" class="cls-11" x="236.97608" y="94.81812" width="135.854" height="45.295"/><rect id="長方形_110" data-name="長方形 110" class="cls-12" x="236.97608" y="132.57007" width="135.854" height="7.542"/><path id="パス_355" data-name="パス 355" class="cls-13" d="M369.057,117.01942a3.75306,3.75306,0,0,1-3.74707,3.759h-7.56177a3.76892,3.76892,0,0,1-3.78491-3.75293v-.0061h0v-7.561a3.79112,3.79112,0,0,1,3.78491-3.771h7.55591a3.77507,3.77507,0,0,1,3.75293,3.771Zm-22.637,0a3.75691,3.75691,0,0,1-3.75489,3.759h-7.572a3.753,3.753,0,0,1-3.7539-3.7522v-.00683h0v-7.561a3.775,3.775,0,0,1,3.7539-3.771h7.55591a3.77808,3.77808,0,0,1,3.771,3.771Zm-22.64112,0a3.75991,3.75991,0,0,1-3.761,3.759h-7.54981a3.76,3.76,0,0,1-3.783-3.73706v-.022h0v-7.561a3.78125,3.78125,0,0,1,3.783-3.771H319.994a3.78181,3.78181,0,0,1,3.78491,3.771Zm-22.655,0a3.75409,3.75409,0,0,1-3.749,3.759h-7.56079a3.758,3.758,0,0,1-3.772-3.74389v-.01514h0v-7.561a3.77985,3.77985,0,0,1,3.772-3.771H297.37a3.77589,3.77589,0,0,1,3.7539,3.771Zm-22.625,0a3.7608,3.7608,0,0,1-3.76293,3.759h-7.565a3.75906,3.75906,0,0,1-3.771-3.74707v-.012h0v-7.561a3.78122,3.78122,0,0,1,3.771-3.771h7.543a3.78181,3.78181,0,0,1,3.78491,3.771Zm-22.656,0a3.7569,3.7569,0,0,1-3.75488,3.759h-7.55518a3.772,3.772,0,0,1-3.78809-3.75586v-.00317h0v-7.561a3.7932,3.7932,0,0,1,3.78809-3.771h7.53906a3.77808,3.77808,0,0,1,3.771,3.771Z" transform="translate(0 0.45161)"/><path id="パス_356" data-name="パス 356" class="cls-14" d="M359.84622,86.83843h-109.873a15.04788,15.04788,0,0,0-13,7.5249H372.82424a14.98321,14.98321,0,0,0-12.98291-7.5249" transform="translate(0 0.45161)"/></g><g id="スキマ時間_作業OK_" data-name="スキマ時間 作業OK " class="cls-15"><g class="cls-15"><path class="cls-16" d="M244.06348,229.55664l-4.39453,4.19922a180.48245,180.48245,0,0,0-13.35938-12.28516,59.51286,59.51286,0,0,1-18.28125,12.40235l-2.85156-4.60938a54.54213,54.54213,0,0,0,14.541-9.41406,40.71956,40.71956,0,0,0,10.459-13.67188l-19.78516-.01953V201.041h25.66406l1.60157,1.543a37.6787,37.6787,0,0,1-3.19336,8.1543,48.69649,48.69649,0,0,1-4.52149,6.57227Q238.37988,224.166,244.06348,229.55664Z" transform="translate(0 0.45161)"/><path class="cls-16" d="M283.8291,220.5918l-15.332,1.582,1.01563,11.5039-6.01563.46875-.957-11.36718-15.76172,1.62109-.54687-5.21484,15.85937-1.60157-.60547-6.95312-13.49609,1.21094-.3711-5.21485,13.4375-1.15234-.54687-6.40625,5.918-.50781.5664,6.40625,13.06641-1.13282.48828,5.11719-13.10547,1.15235.58594,6.85546,15.27344-1.64062Z" transform="translate(0 0.45161)"/><path class="cls-16" d="M315.25488,231.08008l-5.39062,3.14453a73.85883,73.85883,0,0,0-18.96485-17.98828l4.1211-3.84766a76.22831,76.22831,0,0,1,8.84765,6.582,58.3996,58.3996,0,0,0,11.5625-12.05078H286.89551V201.7832h34.60937l2.32422,2.51953a49.577,49.577,0,0,1-6.65039,9.55079,66.16021,66.16021,0,0,1-9.30664,8.88671Q309.43432,224.36182,315.25488,231.08008Z" transform="translate(0 0.45161)"/><path class="cls-16" d="M339.708,227.11523h-7.36328v2.48047H327.501V199.94727h12.207Zm-4.72656-15.68359v-7.75391h-2.63672v7.75391Zm0,11.97266V214.791h-2.63672v8.61328Zm16.11328,4.12109-4.62891,2.42188q-2.18775-3.35889-4.92187-6.99219l3.57421-1.99219h-4.0625V216.8418H354.708v-3.04688h-14.1211v-4.3164h8.86719v-3.20313h-7.67578v-4.16016h7.67578v-3.92578h5.44922l-.01953,3.92578H362.501v4.16016h-7.61719l-.01953,3.20313h9.043v4.3164h-3.88672v3.04688h3.08594v4.12109h-3.08594v8.10547a3.96029,3.96029,0,0,1-1.38672,3.22266,5.71744,5.71744,0,0,1-3.76953,1.15234h-5l-.64453-4.88281H353.458q1.24952,0,1.25-1.17188v-6.42578h-8.59375A49.18648,49.18648,0,0,1,351.09473,227.52539Z" transform="translate(0 0.45161)"/><path class="cls-16" d="M383.10645,212.916H372.501v20.8789h-5.15625V198.99023h15.76172Zm-4.80469-8.24219v-2.48047H372.501v2.48047Zm0,5.15625v-2.51953H372.501v2.51953Zm2.793,21.40625v.8789h-5V215.00586h16.8164v16.23047Zm6.67968-10.11719v-2.67578h-6.67968v2.67578Zm-6.67968,6.19141h6.67968v-2.98828h-6.67968Zm21.17187,2.55859a3.14568,3.14568,0,0,1-1.2793,2.54883,4.76574,4.76574,0,0,1-3.07617,1.02539h-3.92578l-.52734-4.45313h2.4414a1.32075,1.32075,0,0,0,.85938-.32226.98938.98938,0,0,0,.39062-.791V212.916h-10.957V198.99023H402.2666Zm-11.21094-25.19531h6.09375v-2.48047h-6.09375Zm6.09375,2.63672h-6.09375v2.51953h6.09375Z" transform="translate(0 0.45161)"/></g><g class="cls-15"><path class="cls-16" d="M225.69385,293.95117h-5.3125V276.93945q-1.21143,1.81641-2.89063,3.86719l-3.32031-3.00781a57.05561,57.05561,0,0,0,4.99023-8.11524,54.16251,54.16251,0,0,0,4.69727-11.68945l5.39063,1.03516a47.78124,47.78124,0,0,1-4.45313,10.48828h.89844Zm16.32812-.39062h-5.41015V268.44336h-1.40625a48.01682,48.01682,0,0,1-5.70313,10.35156l-3.73047-2.87109a56.82217,56.82217,0,0,0,7.08985-17.77344l5.27343.80078a53.18731,53.18731,0,0,1-1.38671,5.15625H252.979v4.33594H242.022v3.78906h9.4336v4.1211H242.022v4.0039h9.668v4.27735h-9.668Z" transform="translate(0 0.45161)"/><path class="cls-16" d="M271.18213,287.0957a45.44693,45.44693,0,0,1-15.25391,6.05469l-1.42578-3.90625a48.79751,48.79751,0,0,0,12.01172-4.33594H255.811v-3.71093h15.37109v-1.83594H257.86182v-3.47656h13.32031v-1.83594H257.25635v-3.73047H264.561l-.87891-2.24609h-7.34375v-3.75h4.41406l-1.97265-4.53125,4.668-1.15235,2.5,5.6836h1.77735v-6.21094h4.72656v6.21094h2.96875v-6.21094h4.668v6.21094h2.01172l2.48047-5.72266,4.88281,1.15234-2.40234,4.57032h4.707v3.75h-7.5586l-1.34765,2.24609h8.02734v3.73047H276.45557v1.83594h13.4375v3.47656h-13.4375v1.83594H292.022v3.71093H281.37744a51.89971,51.89971,0,0,0,11.99219,3.92578l-2.03125,4.35547a42.31352,42.31352,0,0,1-14.88281-6.42578v6.99219h-5.27344Zm-2.46094-19.02343.89844,2.24609h8.16406l1.17188-2.24609Z" transform="translate(0 0.45161)"/><path class="cls-16" d="M310.02979,292.17383q-6.71925,0-10.55665-4.0918-3.83788-4.09131-3.83789-11.2207,0-7.16748,3.81836-11.25977,3.81811-4.09131,10.57618-4.09179,6.73827,0,10.57617,4.10156t3.83789,11.25q0,7.08984-3.81836,11.20117Q316.80664,292.17432,310.02979,292.17383Zm.01953-26.01563a6.57472,6.57472,0,0,0-5.56641,2.793q-2.07056,2.79347-2.07031,7.91016,0,5.09766,2.07031,7.88086a6.924,6.924,0,0,0,11.11328-.01953q2.06982-2.80226,2.07031-7.88086,0-5.09766-2.06054-7.89063A6.55074,6.55074,0,0,0,310.04932,266.1582Z" transform="translate(0 0.45161)"/><path class="cls-16" d="M355.811,291.54883h-7.96875l-9.6875-12.1875-2.1875,2.48047v9.707H329.561v-29.4336h6.44531v13.98438l11.73828-13.98438h7.5l-12.03125,13.67188Z" transform="translate(0 0.45161)"/><path class="cls-16" d="M372.52979,262.11523l-.78125,20.87891h-5.48829l-.80078-20.87891Zm-.15625,29.4336h-6.75782V286.4707h6.75782Zm13.78906-29.4336-.78125,20.87891h-5.48828l-.80078-20.87891Zm-.15625,29.4336h-6.75781V286.4707h6.75781Z" transform="translate(0 0.45161)"/></g></g><g id="時間は最短5分_サクッと完了" data-name="時間は最短5分 サクッと完了" class="cls-15"><g class="cls-15"><path class="cls-16" d="M618.17285,227.11523h-7.36328v2.48047h-4.84375V199.94727h12.207Zm-4.72656-15.68359v-7.75391h-2.63672v7.75391Zm0,11.97266V214.791h-2.63672v8.61328Zm16.11328,4.12109-4.62891,2.42188q-2.18773-3.35889-4.92187-6.99219l3.57422-1.99219h-4.0625V216.8418h13.65234v-3.04688H619.05176v-4.3164H627.919v-3.20313h-7.67579v-4.16016H627.919v-3.92578h5.44921l-.01953,3.92578h7.61719v4.16016h-7.61719l-.01953,3.20313h9.043v4.3164h-3.88672v3.04688h3.08594v4.12109h-3.08594v8.10547a3.96029,3.96029,0,0,1-1.38672,3.22266,5.71743,5.71743,0,0,1-3.76953,1.15234h-5l-.64453-4.88281h4.23828q1.24951,0,1.25-1.17188v-6.42578H624.5791A49.18563,49.18563,0,0,1,629.55957,227.52539Z" transform="translate(0 0.45161)"/><path class="cls-16" d="M661.57129,212.916H650.96582v20.8789h-5.15625V198.99023h15.76172Zm-4.80469-8.24219v-2.48047h-5.80078v2.48047Zm0,5.15625v-2.51953h-5.80078v2.51953Zm2.793,21.40625v.8789h-5V215.00586H671.376v16.23047Zm6.67969-10.11719v-2.67578h-6.67969v2.67578Zm-6.67969,6.19141h6.67969v-2.98828h-6.67969Zm21.17188,2.55859a3.14568,3.14568,0,0,1-1.2793,2.54883,4.76578,4.76578,0,0,1-3.07617,1.02539H672.4502l-.52735-4.45313h2.44141a1.32073,1.32073,0,0,0,.85937-.32226.98936.98936,0,0,0,.39063-.791V212.916h-10.957V198.99023h16.07422Zm-11.21094-25.19531h6.09375v-2.48047h-6.09375Zm6.09375,2.63672h-6.09375v2.51953h6.09375Z" transform="translate(0 0.45161)"/><path class="cls-16" d="M694.18848,200.51367a57.75885,57.75885,0,0,0-2.40235,15.0586,61.22939,61.22939,0,0,0,2.2461,16.42578l-5.48828,1.11328a64.02039,64.02039,0,0,1-2.14844-16.15235,70.59711,70.59711,0,0,1,2.28515-17.207Zm29.0039,26.71875-3.16406,4.47266a37.04237,37.04237,0,0,0-5.64453-4.375,5.85632,5.85632,0,0,1-2.06055,4.39453q-1.86547,1.50439-6.92383,1.50391a10.38384,10.38384,0,0,1-6.15234-1.76758,5.57225,5.57225,0,0,1-2.5-4.79492,5.9099,5.9099,0,0,1,2.51953-4.93164,9.598,9.598,0,0,1,5.957-1.9043,33.05484,33.05484,0,0,1,3.61328.23437V211.334H696.16113v-4.84375h12.67578v-7.08984h5.58594v7.08984H721.708V211.334h-7.28516v10.41016A37.79723,37.79723,0,0,1,723.19238,227.23242Zm-14.35547-1.11328V224.752a9.86992,9.86992,0,0,0-3.61328-.60547,4.17518,4.17518,0,0,0-2.27539.63477,1.89433,1.89433,0,0,0-1.00586,1.65039,1.76211,1.76211,0,0,0,1.03516,1.5918,4.90167,4.90167,0,0,0,2.42187.57617Q708.83668,228.59961,708.83691,226.11914Z" transform="translate(0 0.45161)"/><path class="cls-16" d="M738.29,230.57227q-7.46118,1.01513-13.20313,1.46484l-.72265-3.76953,2.89062-.21485V215.709H724.8916v-3.39843h36.875V215.709H743.29v18.24219h-5Zm20.19531-20.01954H728.21191V199.20508h30.27344ZM732.25488,215.709v2.28516H738.29V215.709Zm0,4.64844v2.36328H738.29v-2.36328Zm0,7.32422,6.03516-.52734V225.084h-6.03516Zm1.26953-23.80859h19.64844V201.959H733.52441Zm19.64844,2.168H733.52441v1.875h19.64844Zm7.8711,11.60156a14.20555,14.20555,0,0,1-4.21875,9.9414,30.21961,30.21961,0,0,0,5.74218,1.69922l-2.36328,3.98438a20.74083,20.74083,0,0,1-7.08984-2.8125,24.3677,24.3677,0,0,1-7.94922,3.14453l-1.48438-3.51563a19.62942,19.62942,0,0,0,6.03516-2.34375,13.99425,13.99425,0,0,1-3.92578-6.66015h-1.543v-3.4375Zm-7.98829,7.5a8.41468,8.41468,0,0,0,2.63672-4.0625h-5.39062A9.95764,9.95764,0,0,0,753.05566,225.14258Z" transform="translate(0 0.45161)"/><path class="cls-16" d="M774.73535,224.08789a19.02038,19.02038,0,0,1-8.04687,9.55078l-2.75391-3.59375a16.82137,16.82137,0,0,0,7.05078-12.01172h-5.97656V213.834h6.11328v-6.34765h-.23437a27.8448,27.8448,0,0,1-2.51954,5.78125l-4.19921-1.99219a44.53124,44.53124,0,0,0,3.80859-13.08594l5.03906.48828a42.93245,42.93245,0,0,1-.957,4.72657h8.37891v4.082h-4.19922V213.834H781.044v4.19922H776.708a22.51568,22.51568,0,0,0,5.21484,6.67969l-3.55469,3.69141A25.06082,25.06082,0,0,1,774.73535,224.08789Zm10.03906,4.51172-2.08984-6.83594,4.92188-1.17187q1.05468,3.2622,2.46093,8.00781h2.14844q1.07373-2.9297,2.51953-8.08594l5.11719,1.07422a72.78088,72.78088,0,0,1-2.55859,7.01172h5.27343v4.43359H779.40332v-4.43359Zm16.75782-24.53125H780.73145v-4.39453h20.80078ZM800.43848,220.084H781.7666V206.4707h18.67188Zm-5.3125-4.082v-5.44922H787.04V216.002Z" transform="translate(0 0.45161)"/><path class="cls-16" d="M806.29785,230.416v-5.58594h.64453a16.09288,16.09288,0,0,0,8.06641,2.5q6.5625,0,6.5625-5.293a3.91105,3.91105,0,0,0-1.81641-3.457,9.73018,9.73018,0,0,0-5.37109-1.21094,28.415,28.415,0,0,0-6.19141.87891h-.72265V202.11523h20v4.78516H813.52441v6.03516q2.24561-.13623,3.30079-.13672,5.5078,0,8.39843,2.39258a8.11593,8.11593,0,0,1,2.89063,6.61132,9.43491,9.43491,0,0,1-3.32031,7.50977q-3.32081,2.86084-9.00391,2.86133A24.74939,24.74939,0,0,1,806.29785,230.416Z" transform="translate(0 0.45161)"/><path class="cls-16" d="M849.22754,215.084q-.52734,7.46046-4.52149,12.002a22.45021,22.45021,0,0,1-10.498,6.55273l-2.44141-4.3164q11.25-3.96534,11.73828-14.23829h-5.35156v-1.71875a46.28627,46.28627,0,0,1-4.19922,3.28125l-3.32031-3.57421a36.23294,36.23294,0,0,0,7.91016-7.59766,29.92905,29.92905,0,0,0,4.6875-7.71484l5.52734,1.30859a40.28089,40.28089,0,0,1-7.63672,11.48437h17.832a35.81744,35.81744,0,0,1-7.07031-11.52343l5.11719-1.543a35.94307,35.94307,0,0,0,5.51757,8.6914,44.60627,44.60627,0,0,0,7.68555,6.69922l-4.19922,4.23828-2.08984-1.79687a91.539,91.539,0,0,1-.498,10.38086q-.498,4.2671-2.35351,5.918a6.9296,6.9296,0,0,1-4.78516,1.65039h-7.03125l-.80078-5h6.19141a2.8875,2.8875,0,0,0,2.7832-1.71875q.8496-1.71827.84961-9.78516V215.084Z" transform="translate(0 0.45161)"/></g><g class="cls-15"><path class="cls-16" d="M649.11035,267.50586h6.91406v5.11719h-6.91406v3.61328q0,8.28077-5.89844,12.71484-5.89891,4.43409-17.22656,4.64844l-.83984-5.13672q10.23413-.35156,14.19922-3.62305a10.61,10.61,0,0,0,3.96484-8.60351v-3.61328H631.25879v9.49218h-5.87891v-9.49218h-7.10937v-5.11719h7.10937v-8.06641h5.87891v8.06641h12.05078v-8.63281h5.80078Z" transform="translate(0 0.45161)"/><path class="cls-16" d="M693.7002,262.54492l-.27344,3.73047q-.80127,10.957-7.38281,17.70508-6.58228,6.74853-19.82422,9.69726l-1.875-5.21484q9.41382-1.77686,15.12695-6.71875,5.71289-4.94091,7.50977-14.12109H674.24707a37.75392,37.75392,0,0,1-13.06641,12.69531l-3.24218-4.12109a32.17882,32.17882,0,0,0,14.082-18.125l6.07422.68359q-.74268,2.22656-1.36719,3.78906Z" transform="translate(0 0.45161)"/><path class="cls-16" d="M710.49707,279.86914l-4.92187,1.5625a66.69883,66.69883,0,0,0-5.19532-12.832l4.45313-1.71875q1.13232,2.12841,2.19726,4.38476Q708.09449,273.52149,710.49707,279.86914ZM730.22363,266.666q-1.07446,12.28564-7.00195,18.96484-5.92822,6.67968-17.27539,8.16406l-1.32813-4.082q9.90236-1.40625,14.80469-7.02148,4.90211-5.61476,5.80078-16.53321Zm-10.52734,11.28906-4.86328,1.67969a67.69769,67.69769,0,0,0-5.25391-12.92969l4.39453-1.71875q1.85523,3.33984,2.59766,5.01953Q717.31324,271.686,719.69629,277.95508Z" transform="translate(0 0.45161)"/><path class="cls-16" d="M772.89941,292.916q-6.17211.52734-11.875.52734a68.39542,68.39542,0,0,1-11.05468-.56641,11.68347,11.68347,0,0,1-6.07422-2.91992,7.60269,7.60269,0,0,1-2.207-5.69336q0-6.69873,9.80468-11.44531-.62548-6.73829-.66406-13.59375h5.6836l-.01954,1.75781v.58594q0,4.33593.27344,9.00391,4.51171-1.69923,13.37891-4.21875l1.64062,4.88281q-11.95312,3.10547-18.31054,6.2207-6.35744,3.11573-6.35743,6.66992,0,4.33594,9.55079,4.33594h1.8164a138.21991,138.21991,0,0,0,14.17969-.83984Z" transform="translate(0 0.45161)"/><path class="cls-16" d="M794.05176,280.47461q-1.68018,10.41064-14.02344,13.28125l-1.93359-4.31641q5.13647-1.3872,7.4414-3.60351a10.44091,10.44091,0,0,0,3.00782-5.36133H779.2666V276.041h35.46875v4.43359H803.62207v6.875a.93977.93977,0,0,0,.25391.66406,1.34121,1.34121,0,0,0,.8789.332q.62477.05861,1.79688.0586a5.94663,5.94663,0,0,0,2.30469-.293,1.751,1.751,0,0,0,.78125-1.35742,27.31232,27.31232,0,0,0,.19531-4.07227l4.74609.72266v5.35156a4.094,4.094,0,0,1-.63476,2.24609,4.14738,4.14738,0,0,1-1.71875,1.52344,6.68428,6.68428,0,0,1-2.68555.58594l-3.20313.11719a36.48,36.48,0,0,1-4.41406-.21485,4.20692,4.20692,0,0,1-3.82812-4.41406l.01953-8.125Zm20.5664-10.19531h-4.92187v-4.60938H783.97363v5h-4.90234v-9.02344h14.96094v-3.32031H799.54v3.32031h15.07812Zm-5.8789,2.59765H784.77441v-4.39453h23.96485Z" transform="translate(0 0.45161)"/><path class="cls-16" d="M840.18457,289.5957a3.50907,3.50907,0,0,1-1.416,2.89063,5.43691,5.43691,0,0,1-3.46679,1.11328h-7.168l-.66406-5.332h5.66406a1.41282,1.41282,0,0,0,.86914-.32227.93515.93515,0,0,0,.41992-.752V268.7168h4.35547a57.78964,57.78964,0,0,0,6.83594-4.19922H819.2666v-4.57031h33.4375l2.793,2.77343a30.09528,30.09528,0,0,1-6.37695,5.36133,67.50467,67.50467,0,0,1-8.93555,5.08789Z" transform="translate(0 0.45161)"/></g></g><g id="法には触れない_シークレット" data-name="法には触れない シークレット" class="cls-15"><g class="cls-15"><path class="cls-16" d="M1054.43066,219.52539l-3.00781,4.12109a71.88753,71.88753,0,0,0-6.875-5.83984l2.832-3.88672A68.90322,68.90322,0,0,1,1054.43066,219.52539Zm1.42579,6.64063a43.11739,43.11739,0,0,1-2.56836,7.28515,49.2572,49.2572,0,0,1-3.70118,7.07031l-4.80468-2.63671a37.215,37.215,0,0,0,3.78906-6.92383,64.88386,64.88386,0,0,0,2.46094-6.31836Zm.332-15.41016-3.08594,4.12109q-3.08643-2.89012-7.03125-6.03515l3.02734-3.76953A88.09645,88.09645,0,0,1,1056.18848,210.75586Zm20.07812,26.91406a182.95732,182.95732,0,0,1-21.48437,2.2461l-.957-5,4.14062-.21485a92.29764,92.29764,0,0,0,3.94531-9.90234h-7.55859v-4.53125h11.46484v-5.27344h-9.51172v-4.43359h9.51172v-5h5.60547v5h9.76563v4.43359h-9.76563v5.27344H1082.458v4.53125h-14.76563q-1.62158,4.43408-4.043,9.57031,6.79688-.4497,10.21485-.87891-1.93359-3.24169-3.35938-5.37109l4.58985-2.12891a91.45467,91.45467,0,0,1,7.48047,11.81641l-5,2.26563Q1077.0083,238.99854,1076.2666,237.66992Z" transform="translate(0 0.45161)"/><path class="cls-16" d="M1095.3877,207.51367a58.44209,58.44209,0,0,0-2.48047,15.09766,60.7359,60.7359,0,0,0,2.1875,16.30859l-5.39063,1.23047a63.49691,63.49691,0,0,1-2.10937-15.957,71.48767,71.48767,0,0,1,2.30468-17.44141Zm25.23437,31.19141q-4.78564.4497-8.18359.44922-8.5752,0-11.69922-1.98242a6.31659,6.31659,0,0,1-3.125-5.6543q0-4.2378,4.0039-8.35938l4.31641,2.30469q-3.145,2.9297-3.14453,5.87891a2.4557,2.4557,0,0,0,1.64062,2.19726q1.64063.81006,6.79688.81055,2.61621,0,9.19922-.56641Zm-.42969-24.47266-1.64062-.01953q-2.55909-.03955-8.4961.09766-5.93847.13623-11.5039.52734v-4.76562q13.20264-.64453,18.28125-.64454,2.03026,0,3.35937.11719Z" transform="translate(0 0.45161)"/><path class="cls-16" d="M1134.72363,207.51367a57.75921,57.75921,0,0,0-2.40234,15.0586,61.21019,61.21019,0,0,0,2.24609,16.42578l-5.48828,1.11328a64.02039,64.02039,0,0,1-2.14844-16.15235,70.59665,70.59665,0,0,1,2.28516-17.207Zm29.00391,26.71875-3.16406,4.47266a37.06685,37.06685,0,0,0-5.64453-4.375,5.858,5.858,0,0,1-2.06055,4.39453q-1.86621,1.50439-6.92383,1.50391a10.38173,10.38173,0,0,1-6.15234-1.76758,5.57222,5.57222,0,0,1-2.5-4.79492,5.9099,5.9099,0,0,1,2.51953-4.93164,9.598,9.598,0,0,1,5.957-1.9043,33.055,33.055,0,0,1,3.61328.23437V218.334h-12.67578v-4.84375h12.67578v-7.08984h5.58594v7.08984h7.28515V218.334H1154.958v10.41016A37.80781,37.80781,0,0,1,1163.72754,234.23242Zm-14.35547-1.11328V231.752a9.87183,9.87183,0,0,0-3.61328-.60547,4.174,4.174,0,0,0-2.27539.63477,1.89433,1.89433,0,0,0-1.00586,1.65039,1.76211,1.76211,0,0,0,1.03516,1.5918,4.90036,4.90036,0,0,0,2.42187.57617Q1149.3711,235.59961,1149.37207,233.11914Z" transform="translate(0 0.45161)"/><path class="cls-16" d="M1183.53223,236.9082a3.15555,3.15555,0,0,1-1.07422,2.45118,3.50556,3.50556,0,0,1-2.40235.96679h-4.84375l-.46875-4.375h3.35938q1.07373,0,1.07422-.918V230.834H1171.833q-.958,6.50391-3.92578,9.92188l-3.53516-2.03125a19.21779,19.21779,0,0,0,2.1875-4.74609,25.87453,25.87453,0,0,0,1.01563-7.98829v-6.99218l-.72266.72265-2.67578-3.39843a27.251,27.251,0,0,0,3.78906-5.28321,24.24333,24.24333,0,0,0,2.53906-5.96679l4.88282.60546a10.142,10.142,0,0,1-.72266,2.168h6.79687l1.07422.83985a34.56344,34.56344,0,0,1-3.00781,5.8789h4.00391Zm-12.5-22.34375h4.043a19.55887,19.55887,0,0,0,1.73828-3.53515h-3.67188Q1172.22315,212.74755,1171.03223,214.56445Zm2.94922,3.32032h-1.99219V221.166h1.99219Zm-1.99219,6.1914v3.35938h1.99219v-3.35938Zm7.30469-2.91015v-3.28125h-2.03125V221.166Zm0,6.26953v-3.35938h-2.03125v3.35938Zm19.19921,11.01562q-9.21972,1.60107-13.51562,1.91406l-.918-4.60937h.11719q1.60107,0,6.875-.50781v-7.8125h-1.64063v.957H1185.251V211.06836h5.80078v-5.83984h4.72656v5.83984h5.83984v16.40625l-5.83984-.01953v7.30469l2.168-.25391-.72266-4.668,4.1211-.64453q.11718.5083.89843,5.39062l.82032,5.48829-4.27735.60546Q1198.72754,240.15039,1198.49316,238.45117Zm-7.34375-23.73047h-1.64062v9.19922h1.64062Zm6.26954,9.19922V214.7207h-1.71875v9.19922Z" transform="translate(0 0.45161)"/><path class="cls-16" d="M1212.86816,229.54492q-3.04687,4.45313-5.19531,7.08985l-3.04687-4.31641a105.35017,105.35017,0,0,0,7.46093-9.96094q.23438-.52734.78125-1.62109v-4.375h-6.79687V211.9082h6.79687v-6.30859h5.54688v10.957q7.24512-7.0122,12.40234-7.01172a7.28155,7.28155,0,0,1,5.18555,1.875,6.45634,6.45634,0,0,1,2.00195,4.94141q0,1.73877-.72265,8.65234-.58595,5.606-.74219,8.1836v.39062q0,1.32861.918,1.32813,1.3081,0,5.03906-2.01172l1.28906,4.53125a12.82406,12.82406,0,0,1-7.168,2.57812,5.54043,5.54043,0,0,1-4.21875-1.582,6.00619,6.00619,0,0,1-1.5039-4.31641q0-.72216.85937-9.16015.46875-4.84423.54688-8.16406v-.293q0-1.95264-2.03125-1.95313-1.60254,0-4.65821,1.96289a42.11335,42.11335,0,0,0-7.19726,6.29883v17.832h-5.54688Z" transform="translate(0 0.45161)"/><path class="cls-16" d="M1258.708,206.43945q-.1377,3.12452-.44922,5.72266h8.51562v4.668h-9.21875a44.78257,44.78257,0,0,1-8.84765,19.88281l-4.27735-3.08594q5.31153-6.52294,7.5586-16.79687h-6.01563v-4.668h6.83594a55.66671,55.66671,0,0,0,.44922-5.89844Zm24.082,28.10547-2.89063,4.33594a46.476,46.476,0,0,0-6.52343-4.707,5.96225,5.96225,0,0,1-2.10938,5.01953q-2.10937,1.64063-6.95312,1.64062a11.45051,11.45051,0,0,1-6.48438-1.71875,5.42446,5.42446,0,0,1-2.57812-4.76562,5.97767,5.97767,0,0,1,2.73437-5.166,11.39546,11.39546,0,0,1,6.67969-1.90429,23.80437,23.80437,0,0,1,3.32031.21484V217.35742h5.39063V228.959A48.93107,48.93107,0,0,1,1282.79,234.54492Zm-14.80469-2.73437a15.92974,15.92974,0,0,0-3.32031-.332,6.64008,6.64008,0,0,0-3.0957.67382,2.05929,2.05929,0,0,0-1.29883,1.86524q0,2.46093,4.55078,2.46094,3.16405,0,3.16406-2.28516Zm15.07813-13.4961-4.27735,3.24219a58.49651,58.49651,0,0,0-5.64453-5.66406,43.02584,43.02584,0,0,0-5.957-4.668l3.28125-3.63281a39.07453,39.07453,0,0,1,6.45508,4.67773A55.50208,55.50208,0,0,1,1283.06348,218.31445Z" transform="translate(0 0.45161)"/><path class="cls-16" d="M1306.03223,227.35742a52.603,52.603,0,0,1-2.54883,6.06446,23.36052,23.36052,0,0,1-3.01758,4.9414,4.35875,4.35875,0,0,1-3.418,1.5918q-4.21875,0-7.24609-5.20508a23.35249,23.35249,0,0,1-3.02735-11.96289q0-2.20752.42969-6.543.41016-4.355.41016-6.52344h5.97656q-.05859,1.97315-.58594,6.46485a57.04623,57.04623,0,0,0-.50781,6.48437,19.224,19.224,0,0,0,1.51367,7.89063q1.51319,3.39843,2.56836,3.39843,1.52345,0,4.80469-8.92578Zm16.11328,7.22656-5.87891.3711a37.40321,37.40321,0,0,0-2.10937-12.1875,33.09152,33.09152,0,0,0-5.74219-10.52735l4.72656-2.36328Q1322.14453,219.89649,1322.14551,234.584Z" transform="translate(0 0.45161)"/></g><g class="cls-15"><path class="cls-16" d="M1085.23145,281.63477l-2.65625,4.92187q-4.33595-1.894-7.13868-2.85156-2.80371-.95655-9.32617-2.793l2.22656-4.60938a73.49222,73.49222,0,0,1,7.43164,1.9043Q1079.1172,279.272,1085.23145,281.63477Zm17.48046-1.52344A35.46778,35.46778,0,0,1,1089.46,294.252a47.19214,47.19214,0,0,1-19.91211,5.97657l-1.28906-5.23438a46.60358,46.60358,0,0,0,17.19726-4.86328q7.19679-3.82764,12.373-12.5Zm-13.6914-8.04688-2.75391,4.88282q-2.12988-.95655-4.39453-1.89454-2.26611-.9375-3.69141-1.38671l-8.20312-2.63672,2.28516-4.51172A119.30715,119.30715,0,0,1,1089.02051,272.06445Z" transform="translate(0 0.45161)"/><path class="cls-16" d="M1141.93066,286.38086h-35.8789v-5.19531h35.8789Z" transform="translate(0 0.45161)"/><path class="cls-16" d="M1180.7002,269.54492l-.27344,3.73047q-.80127,10.957-7.38281,17.70508-6.583,6.74853-19.82422,9.69726l-1.875-5.21484q9.41308-1.77686,15.127-6.71875,5.71288-4.94091,7.50977-14.12109h-12.73438a37.76224,37.76224,0,0,1-13.06641,12.69531l-3.24218-4.12109a32.17882,32.17882,0,0,0,14.082-18.125l6.07422.68359q-.74268,2.22656-1.36719,3.78906Z" transform="translate(0 0.45161)"/><path class="cls-16" d="M1222.06738,281.5957a38.49339,38.49339,0,0,1-12.09961,11.68946,54.86568,54.86568,0,0,1-17.43164,7.31445l-3.0664-2.32422V267.39648h6.01562V293.959a48.67306,48.67306,0,0,0,11.71875-5.71289,38.054,38.054,0,0,0,10.25391-9.77539Z" transform="translate(0 0.45161)"/><path class="cls-16" d="M1237.49707,286.86914l-4.92187,1.5625a66.73034,66.73034,0,0,0-5.19532-12.832l4.45313-1.71875q1.13232,2.12841,2.19726,4.38476Q1235.09376,280.52149,1237.49707,286.86914Zm19.72656-13.20312q-1.07518,12.28564-7.00195,18.96484-5.92823,6.67968-17.27539,8.16406l-1.32813-4.082q9.90236-1.40625,14.80469-7.02148,4.90137-5.61476,5.80078-16.53321Zm-10.52734,11.28906-4.86328,1.67969a67.729,67.729,0,0,0-5.25391-12.92969l4.39453-1.71875q1.8545,3.33984,2.59766,5.01953Q1244.3125,278.686,1246.69629,284.95508Z" transform="translate(0 0.45161)"/><path class="cls-16" d="M1301.91113,285.79492l-3.6914,4.62891a72.81864,72.81864,0,0,0-17.2461-8.71094v19.043h-6.15234V265.52148h6.21094v10.42969A99.82208,99.82208,0,0,1,1301.91113,285.79492Z" transform="translate(0 0.45161)"/></g></g><g id="初心者OK_未経験OK" data-name="初心者OK 未経験OK" class="cls-15"><g class="cls-15"><path class="cls-16" d="M1547.73242,240.75586h-4.92187V227.45508a37.537,37.537,0,0,1-4.39453,3.18359l-2.168-3.6914a29.738,29.738,0,0,0,6.377-5.52735,24.45629,24.45629,0,0,0,4.22852-6.62109h-8.88672v-4.31641h4.92187v-4.96094h4.96094v4.96094h4.58984l1.05469,1.07422a30.70048,30.70048,0,0,1-5.35156,10.27344q.58593.52734,1.42578,1.21094a45.78345,45.78345,0,0,0,3.67187-4.6875l3.00782,2.08984a43.27423,43.27423,0,0,1-3.94532,4.64844l2.1875,1.543-2.48046,4.12109q-2.30421-1.79736-4.27735-3.61328Zm5.50781-.15625-3.35937-3.35938a22.35649,22.35649,0,0,0,4.73633-5.97656,25.22184,25.22184,0,0,0,2.74414-7.334,49.31076,49.31076,0,0,0,.76172-9.502v-3.47656h-4.35547v-4.27734H1573.377v19.12109a61.60542,61.60542,0,0,1-.37109,6.76758,19.24473,19.24473,0,0,1-.86914,4.56055,4.60751,4.60751,0,0,1-1.88477,2.07031,6.2993,6.2993,0,0,1-3.4375.87891h-5.5664l-.64453-4.96094h4.53125a3.23781,3.23781,0,0,0,1.18164-.19531,2.05267,2.05267,0,0,0,.84961-.625,5.297,5.297,0,0,0,.61523-2.13868q.26367-1.70946.40039-4.15039.1377-2.44189.13672-5.625,0-1.95262-.11719-11.42578h-4.88281q.02051,2.34375.01953,3.71094a44.154,44.154,0,0,1-2.08984,14.43359A28.84516,28.84516,0,0,1,1553.24023,240.59961Z" transform="translate(0 0.45161)"/><path class="cls-16" d="M1585.44727,220.44336a56.57529,56.57529,0,0,1-1.53321,8.87695,32.81828,32.81828,0,0,1-2.54883,7.54883l-5-1.71875q2.54-5.43018,3.8086-15.3125Zm22.48046,14.96094a4.1195,4.1195,0,0,1-.97656,2.85156,5.07846,5.07846,0,0,1-2.793,1.49414,32.7735,32.7735,0,0,1-6.1914.40039q-1.83546,0-3.99414-.13672a15.27051,15.27051,0,0,1-2.86133-.35156,4.61483,4.61483,0,0,1-1.49414-.84961,4.43073,4.43073,0,0,1-1.24024-1.582,4.98765,4.98765,0,0,1-.44922-2.1582V212.92383h5.48829v21.07422a1.14809,1.14809,0,0,0,.82031,1.21093,17.16772,17.16772,0,0,0,4.02344.27344A9.9938,9.9938,0,0,0,1602,235.082a2.52925,2.52925,0,0,0,.957-1.83594,38.78052,38.78052,0,0,0,.26367-5.69336l4.707.60547Zm-4.51171-22.85157-3.63282,3.96485a116.12122,116.12122,0,0,0-11.13281-8.51563l3.24219-3.61328a60.73034,60.73034,0,0,1,6.15234,3.94531A51.81732,51.81732,0,0,1,1603.416,212.55273Zm12.24609,18.4375-5.37109,1.67969q-.9375-3.22266-2.78321-7.832a66.04456,66.04456,0,0,0-3.0957-6.875l4.88281-1.79687a71.84314,71.84314,0,0,1,3.67188,7.45117A51.59967,51.59967,0,0,1,1615.66211,230.99023Z" transform="translate(0 0.45161)"/><path class="cls-16" d="M1645.85742,238.99805h-16.21094v1.44531h-5.46875v-12.8125q-2.01123.78076-5.99609,2.12891l-1.85547-4.31641a111.89648,111.89648,0,0,0,15.09766-6.28906h-13.08594V214.916h11.83594V212.2793h-9.76563v-4.1211h9.76563v-2.96875h5.60547v2.96875h8.39843v2.5a42.276,42.276,0,0,0,4.58985-4.58984l4.53125,2.65625a44.615,44.615,0,0,1-6.582,6.19141h7.77343v4.23828h-14.51171q-2.46094,1.50439-4.45313,2.63672h15.83984v18.6914h-5.50781Zm0-10.52735v-2.7539h-16.21094v2.793Zm-16.21094,6.48438h16.21094v-2.94922h-16.21094Zm8.96485-20.03906q1.97315-1.32862,3.61328-2.63672h-6.44531V214.916Z" transform="translate(0 0.45161)"/><path class="cls-16" d="M1672.0293,239.17383q-6.71778,0-10.55664-4.0918-3.8379-4.09131-3.83789-11.2207,0-7.16748,3.81835-11.25977,3.81885-4.09131,10.57618-4.09179,6.73827,0,10.57617,4.10156t3.83789,11.25q0,7.08984-3.81836,11.20117Q1678.80762,239.17431,1672.0293,239.17383Zm.01953-26.01563a6.57716,6.57716,0,0,0-5.56641,2.793q-2.06982,2.79347-2.07031,7.91016,0,5.09766,2.07031,7.88086a6.924,6.924,0,0,0,11.11328-.01953q2.07129-2.80225,2.07032-7.88086,0-5.09766-2.06055-7.89063A6.54892,6.54892,0,0,0,1672.04883,213.1582Z" transform="translate(0 0.45161)"/><path class="cls-16" d="M1717.81055,238.54883h-7.96875l-9.6875-12.1875-2.1875,2.48047v9.707h-6.40625v-29.4336h6.44531v13.98438l11.73828-13.98438h7.5l-12.03125,13.67188Z" transform="translate(0 0.45161)"/></g><g class="cls-15"><path class="cls-16" d="M1553.18164,289.31055a31.84754,31.84754,0,0,1-5.41016,4.89257,49.94713,49.94713,0,0,1-8.78906,5.18555l-2.69531-4.39453a53.67989,53.67989,0,0,0,8.18359-4.9707,42.70029,42.70029,0,0,0,5.78125-5.41992h-12.207v-4.64844h15.09766v-4.47266h-12.57813V270.834h12.57813v-5.39062h5.50781V270.834h12.96875v4.64844h-12.96875v4.47266h15.41016v4.64844h-12.98828a38.19027,38.19027,0,0,0,6.45507,5.459,42.88974,42.88974,0,0,0,8.09571,4.46289l-3.418,4.668a44.14986,44.14986,0,0,1-8.03711-5.07813,33.97984,33.97984,0,0,1-5.55664-5.2539V300.7168h-5.42969Z" transform="translate(0 0.45161)"/><path class="cls-16" d="M1582.69336,287.00586a54.585,54.585,0,0,1-.957,6.29883,31.84836,31.84836,0,0,1-1.40625,5.20508l-3.59375-.83985a58.15367,58.15367,0,0,0,1.95312-10.918Zm5.68359,13.78906h-4.84375V285.502q-4.02246.3706-5.957.44922l-.44922-4.043q1.05469,0,2.94922-.05859,1.40625-1.75782,2.46094-3.18359-2.187-2.46094-5.56641-5.918l2.85157-3.06641.68359.68359a38.13407,38.13407,0,0,0,3.22266-5.72265l4.35546,1.60156a56.36474,56.36474,0,0,1-4.76562,7.03125l1.71875,1.85547a49.09758,49.09758,0,0,0,3.80859-6.28906l4.23828,1.875a121.91025,121.91025,0,0,1-7.89062,10.89843l4.10156-.27343q-.605-2.46094-.83984-3.14453l3.55469-.83985q.8789,2.85206,2.1289,7.91016l-3.84765.64453a8.268,8.268,0,0,0-.19532-1.15234q-.66357.09814-1.71875.23437Zm5.64453-6.07422-3.84765.54688a70.98945,70.98945,0,0,1-1.19141-7.98828l3.75-.56641Zm20.918,4.92188h-21.64062v-4.31641h8.39844v-4.53125h-6.71875v-4.16015h6.71875v-3.28125h5.19531v3.28125h6.36719v4.16015h-6.36719v4.53125h8.04687Zm-.72265-32.12891a18.86087,18.86087,0,0,1-5.918,10.54688,28.98,28.98,0,0,0,6.95312,2.38281l-2.55859,4.31641a29.608,29.608,0,0,1-8.457-3.418,29.40861,29.40861,0,0,1-9.14063,3.457l-1.75781-3.96485a29.31511,29.31511,0,0,0,7.05078-2.5,17.07241,17.07241,0,0,1-4.90234-7.73437h-1.83594V266.5957h19.64844Zm-10.09766,8.14453a12.91826,12.91826,0,0,0,3.73047-5.05859h-7.57813A17.0012,17.0012,0,0,0,1604.11914,275.6582Z" transform="translate(0 0.45161)"/><path class="cls-16" d="M1620.66211,289.03711a55.07773,55.07773,0,0,1-.41992,5.63477,30.15206,30.15206,0,0,1-.90821,5.24414l-2.51953-1.23047a23.82952,23.82952,0,0,0,.88867-4.55078,51.055,51.055,0,0,0,.43946-5.25391Zm23.30078,3.90625a16.31479,16.31479,0,0,1-10.11719,7.57812l-1.30859-3.20312a4.1519,4.1519,0,0,1-4.45313,3.35937h-3.30078l-.44922-3.73046h2.832a1.70793,1.70793,0,0,0,1.49414-.74219,3.8062,3.8062,0,0,0,.58593-2.002q.06885-1.25976.20508-7.041h-6.71875v.64453h-4.082l-.03906-21.36719H1633.416v3.4375h-4.1211v2.48047h3.35938v2.53906a22.14249,22.14249,0,0,0,8.51562-9.45312h4.92188a17.98805,17.98805,0,0,0,4.36523,5.32226,25.7622,25.7622,0,0,0,5.55664,3.75977l-2.36328,4.0625q-1.99218-1.21143-3.78906-2.55859v1.44531h-3.8086v2.207h7.03125v10.87891h-5.23437a17.01857,17.01857,0,0,0,7.77344,5.80078l-2.61719,4.19922a18.737,18.737,0,0,1-5.15625-3.252A19.75528,19.75528,0,0,1,1643.96289,292.94336Zm-20.11719,3.69141-1.83593.3125-.42969-8.06641,1.75781-.293Zm1.48438-26.75782h-2.28516v2.48047h2.28516Zm-2.28516,5.60547v2.59766h2.28516v-2.59766Zm0,5.6836v2.51953h2.28516V281.166Zm3.76953,13.98437-1.60156.41016-.87891-7.12891,1.52344-.35156Zm2.2461-2.34375-1.32813.625-.957-5.39062,1.36719-.3711Zm3.65234,3.67188a13.40364,13.40364,0,0,0,7.30469-5.918h-5.41016V279.68164h6.71875v-2.207h-3.4375v-1.15234a46.30026,46.30026,0,0,1-3.90625,2.67578l-2.168-3.51563h-2.51953v2.59766h3.35938V281.166h-3.35938v2.51953h4.00391A87.07506,87.07506,0,0,1,1632.71289,296.47852Zm8.61328-13.51563h-2.34375v4.16016h2.34375Zm-.82031-9.043h6.81641a24.17776,24.17776,0,0,1-3.55469-4.043A18.86332,18.86332,0,0,1,1640.50586,273.91992Zm8.10547,13.20313v-4.16016h-2.5586v4.16016Z" transform="translate(0 0.45161)"/><path class="cls-16" d="M1672.0293,299.17383q-6.71778,0-10.55664-4.0918-3.8379-4.09131-3.83789-11.2207,0-7.16748,3.81835-11.25977,3.81885-4.09131,10.57618-4.09179,6.73827,0,10.57617,4.10156t3.83789,11.25q0,7.08984-3.81836,11.20117Q1678.80762,299.17432,1672.0293,299.17383Zm.01953-26.01563a6.57716,6.57716,0,0,0-5.56641,2.793q-2.06982,2.79347-2.07031,7.91016,0,5.09766,2.07031,7.88086a6.924,6.924,0,0,0,11.11328-.01953q2.07129-2.80226,2.07032-7.88086,0-5.09766-2.06055-7.89063A6.54892,6.54892,0,0,0,1672.04883,273.1582Z" transform="translate(0 0.45161)"/><path class="cls-16" d="M1717.81055,298.54883h-7.96875l-9.6875-12.1875-2.1875,2.48047v9.707h-6.40625v-29.4336h6.44531v13.98438l11.73828-13.98438h7.5l-12.03125,13.67188Z" transform="translate(0 0.45161)"/></g></g><g id="グループ_163" data-name="グループ 163"><path id="パス_357" data-name="パス 357" class="cls-17" d="M1235.52921,165.3001h-9.684v-90.343a12.90593,12.90593,0,0,0-12.908-12.89307h-58.067a12.90591,12.90591,0,0,0-12.908,12.89307v90.343h-9.684a6.45349,6.45349,0,1,0,0,12.907h103.251a6.45349,6.45349,0,1,0,0-12.907h0" transform="translate(0 0.45161)"/><path id="パス_358" data-name="パス 358" class="cls-18" d="M1219.39622,168.53531a9.685,9.685,0,0,1-9.684,9.6731h-51.618a9.685,9.685,0,0,1-9.684-9.6731h0V78.19742a9.6889,9.6889,0,0,1,9.684-9.68506h51.618a9.68891,9.68891,0,0,1,9.684,9.68506Z" transform="translate(0 0.45161)"/><path id="パス_359" data-name="パス 359" class="cls-19" d="M1171.0022,124.97819a8.066,8.066,0,1,1-8.072-8.072,8.06609,8.06609,0,0,1,8.072,8.072" transform="translate(0 0.45161)"/><path id="パス_360" data-name="パス 360" class="cls-20" d="M1167.76722,124.97921a4.83084,4.83084,0,1,1,0-.01587l0,.01587" transform="translate(0 0.45161)"/><path id="パス_361" data-name="パス 361" class="cls-21" d="M1209.71222,113.68218h-12.908a3.22448,3.22448,0,1,1,0-6.449h9.684V84.6563a3.224,3.224,0,0,1,6.448-.00488v25.80493a3.221,3.221,0,0,1-3.21786,3.22412h-.00613" transform="translate(0 0.45161)"/><path id="パス_362" data-name="パス 362" class="cls-22" d="M1190.35622,107.23333a3.223,3.223,0,0,1-3.221-3.22486l0-.01123h0v-25.8a3.23294,3.23294,0,0,1,3.221-3.24h12.9a3.23206,3.23206,0,0,1,0,6.46411h-9.673v22.57691a3.224,3.224,0,0,1-3.21188,3.23608h-.01212" transform="translate(0 0.45161)"/><path id="パス_363" data-name="パス 363" class="cls-21" d="M1177.45022,113.68218h-12.908a3.22448,3.22448,0,1,1,0-6.449h9.684V84.6563a3.23,3.23,0,1,1,6.46-.0105v25.81055a3.23285,3.23285,0,0,1-3.235,3.22412h0" transform="translate(0 0.45161)"/><path id="パス_364" data-name="パス 364" class="cls-22" d="M1158.09421,107.23333a3.224,3.224,0,0,1-3.224-3.22388l0-.01221h0v-25.8a3.23413,3.23413,0,0,1,3.224-3.24h12.908a3.23206,3.23206,0,0,1,0,6.46411h-9.679v22.57691a3.224,3.224,0,0,1-3.21188,3.23608h-.01212" transform="translate(0 0.45161)"/><path id="パス_365" data-name="パス 365" class="cls-21" d="M1209.71222,171.75022h-12.908a3.224,3.224,0,0,1-.00483-6.448h9.68882V145.94529a3.224,3.224,0,0,1,6.448,0v22.59107a3.22,3.22,0,0,1-3.224,3.21411h0" transform="translate(0 0.45161)"/><path id="パス_366" data-name="パス 366" class="cls-22" d="M1190.35622,165.30113a3.221,3.221,0,0,1-3.221-3.22095V162.076h0V139.49912a3.224,3.224,0,0,1,3.208-3.24h12.913a3.232,3.232,0,0,1,.11975,6.46289q-.05988.00111-.11975,0h-9.673v19.354a3.221,3.221,0,0,1-3.21689,3.2251h-.00711" transform="translate(0 0.45161)"/><path id="パス_367" data-name="パス 367" class="cls-21" d="M1177.45022,171.75022h-12.908a3.224,3.224,0,0,1-.00482-6.448h9.68881V145.94529a3.23,3.23,0,0,1,6.46,0v22.59107a3.23206,3.23206,0,0,1-3.235,3.21411h0" transform="translate(0 0.45161)"/><path id="パス_368" data-name="パス 368" class="cls-22" d="M1158.09421,165.30113a3.221,3.221,0,0,1-3.224-3.218V162.076h0V139.49912a3.2251,3.2251,0,0,1,3.21-3.24h12.922a3.232,3.232,0,0,1,0,6.46289h-9.679v19.354a3.221,3.221,0,0,1-3.21689,3.2251h-.00711" transform="translate(0 0.45161)"/></g><g id="グループ_166" data-name="グループ 166"><g id="グループ_165" data-name="グループ 165"><g class="cls-23"><g id="グループ_164" data-name="グループ 164"><path id="パス_369" data-name="パス 369" class="cls-6" d="M1629.96033,185.58428a6.27567,6.27567,0,0,1-4.48-1.8711l-34.99317-34.967a6.4612,6.4612,0,0,1-1.85986-4.5061V77.459a6.366,6.366,0,0,1,10.86279-4.491l30.47022,30.481,30.5-30.481a6.363,6.363,0,0,1,10.86377,4.491V144.24a6.40491,6.40491,0,0,1-1.875,4.5061l-34.977,34.967a6.32994,6.32994,0,0,1-4.50782,1.8711" transform="translate(0 0.45161)"/><path id="パス_370" data-name="パス 370" class="cls-24" d="M1629.95886,112.44023l34.99024-34.978v66.78l-34.99024,34.978Z" transform="translate(0 0.45161)"/><path id="パス_371" data-name="パス 371" class="cls-25" d="M1594.99329,77.46221l34.96582,34.978v66.78l-34.96582-34.978Z" transform="translate(0 0.45161)"/></g></g></g></g></g></svg>