<svg id="レイヤー_1" data-name="レイヤー 1" xmlns="http://www.w3.org/2000/svg" xmlns:xlink="http://www.w3.org/1999/xlink" viewBox="0 0 1920 380.27397"><defs><style>.cls-1{fill:none;}.cls-2{fill:#fff;}.cls-3{fill:#ffd200;}.cls-4{isolation:isolate;}.cls-5{fill:#464646;}.cls-6{fill:#00cf2e;}.cls-7{fill:#8ccaf7;}.cls-8{clip-path:url(#clip-path);}.cls-9{fill:#9aaab4;}.cls-10{fill:#bdddf4;}.cls-11{fill:#67757f;}</style><clipPath id="clip-path" transform="translate(0 0)"><rect class="cls-1" x="899.47986" y="68.31914" width="121.506" height="121.507"/></clipPath></defs><rect class="cls-2" width="1920" height="380"/><g id="グループ_239" data-name="グループ 239"><g id="グループ_160" data-name="グループ 160"><circle id="楕円形_5" data-name="楕円形 5" class="cls-3" cx="518.23285" cy="190.27397" r="190"/><circle id="楕円形_5-2" data-name="楕円形 5-2" class="cls-3" cx="960.23285" cy="190.27397" r="190"/><circle id="楕円形_5-3" data-name="楕円形 5-3" class="cls-3" cx="1402.23291" cy="190.27397" r="190"/></g><g id="公式LINE_登録をする" data-name="公式LINE 登録をする" class="cls-4"><g class="cls-4"><path class="cls-5" d="M442.74658,211.165a38.13321,38.13321,0,0,1-5.68359,10.05859,43.34851,43.34851,0,0,1-8.47656,8.61328l-3.53516-3.51562q7.363-5.606,12.40234-16.48438Zm12.75391,31.44531q-9.55079,1.28907-28.28125,2.63672l-.80078-5.293q1.97241,0,5.44922-.17578a108.57719,108.57719,0,0,0,5.14648-10.166,69.36474,69.36474,0,0,0,3.64258-9.56054l5.76172,1.23047q-1.21143,3.63281-3.55469,8.88672a86.00514,86.00514,0,0,1-4.72656,9.21875q9.43359-.66358,14.84375-1.40625-3.02784-5.46827-4.19922-7.26563l4.92187-2.14844q1.582,2.14893,4.90235,7.80274a59.37165,59.37165,0,0,1,4.0625,7.70508l-5.6836,1.48437Q456.67212,244.81689,455.50049,242.61035Zm9.0039-16.85547-4.0039,4.1211a55.41391,55.41391,0,0,1-8.74024-8.95508,42.15682,42.15682,0,0,1-5.86914-9.56055l5.07813-1.83594a38.685,38.685,0,0,0,6.13281,9.47266A42.0395,42.0395,0,0,0,464.50439,225.75488Z" transform="translate(0 0)"/><path class="cls-5" d="M502.981,221.32129h-10.957a64.06978,64.06978,0,0,0,.67382,6.83594,29.10621,29.10621,0,0,0,1.3086,5.2832,17.74913,17.74913,0,0,0,1.89453,3.877,7.97117,7.97117,0,0,0,1.377,1.75782,1.13223,1.13223,0,0,0,.52735.17578.64089.64089,0,0,0,.68359-.625q.09741-.6255.41016-6.582l4.39453.918q-.21534,5.27345-.498,7.98829-.28344,2.71436-1.29883,3.59375a4.15909,4.15909,0,0,1-2.8125.8789,5.962,5.962,0,0,1-3.20312-.9082,15.24563,15.24563,0,0,1-3.56446-3.68164,22.37306,22.37306,0,0,1-3.3789-6.81641,60.80822,60.80822,0,0,1-1.92383-12.69531H466.34033V216.8877h20.07813q.019-.9961.01953-2.77344l-.01953-4.27735h5.48828v7.05079h4.57031q-1.32861-1.75782-3.90625-4.84375l4.00391-2.32422a62.95966,62.95966,0,0,1,5.03906,5.80078l-2.10938,1.36719H502.981Zm-14.60938,16.03516-.03906,4.60937q-1.34766.39111-9.53125,1.32813-8.18409.9375-11.543,1.1914l-.83984-4.88281q2.44116-.1172,8.16406-.625V228.87988H467.981v-4.47265h17.832v4.47265h-5.80078v9.57032Q486.61353,237.74708,488.37158,237.35645Z" transform="translate(0 0)"/><path class="cls-5" d="M528.66455,243.27441H508.23486V213.84082h6.44532V238.3916h13.98437Z" transform="translate(0 0)"/><path class="cls-5" d="M547.063,243.27441H531.0083v-4.39453H535.813V218.23535H531.0083v-4.39453H547.063v4.39453H542.2583v20.64453H547.063Z" transform="translate(0 0)"/><path class="cls-5" d="M578.09814,243.27441h-6.21093l-13.20313-21.582v21.582h-5.97656V213.84082H560.52l11.60156,19.02344V213.84082h5.97656Z" transform="translate(0 0)"/><path class="cls-5" d="M605.59814,243.27441H585.09033V213.84082h20.50781v4.88281H591.49658v6.28907h13.10547V229.876H591.49658v8.51562h14.10156Z" transform="translate(0 0)"/></g><g class="cls-4"><path class="cls-5" d="M427.20947,300.09082l-1.38672-3.53516h-3.67187v-10.2539q-1.563.76172-3.28125,1.46484l-2.44141-4.043a33.458,33.458,0,0,0,5.6836-2.8125q-2.79347-2.26611-3.84766-3.0664l3.00781-3.08594h-1.67968v-4.16016h19.0039a16.54641,16.54641,0,0,0,2.48047,3.1836,32.35948,32.35948,0,0,0,5.15625-3.98438l3.55469,3.00781a43.80563,43.80563,0,0,1-5.44922,3.98438q.87891.70313,1.75781,1.34766a44.47988,44.47988,0,0,0,5.44922-4.25782l3.49609,3.20313q-2.24633,1.77686-4.92187,3.55469a38.67663,38.67663,0,0,0,5.87891,2.48046l-3.16407,4.31641a32.29113,32.29113,0,0,1-3.00781-1.32812v10.44921h-3.49609l-1.67969,3.53516h9.55078v4.62891H418.186v-4.62891Zm-5.3125-25.332,4.39453,3.30078a30.35544,30.35544,0,0,0,3.69141-3.30078Zm1.05469,11.13281H449.4165a51.25339,51.25339,0,0,1-5.05859-3.00781v1.23047H428.147v-1.36719A48.77768,48.77768,0,0,1,422.95166,285.8916Zm21.48438,6.71875v-2.89062H427.522v2.89062ZM431.38916,280.208h9.41406a35.77579,35.77579,0,0,1-4.76562-4.76563A32.44486,32.44486,0,0,1,431.38916,280.208Zm.25391,16.34765,1.28906,3.53516h6.15234l1.44532-3.53516Z" transform="translate(0 0)"/><path class="cls-5" d="M472.229,299.9541v3.35938a27.74092,27.74092,0,0,1-3.67187.78125q-2.34375.3706-11.21094,1.42578l-.58594-3.88672q1.99219-.11719,6.67969-.58594V290.208h-5.41015v-3.65235h5.41015v-3.14453h-3.04687v-1.67968a24.84371,24.84371,0,0,1-2.207,1.79687l-1.71875-3.4375a22.12866,22.12866,0,0,0,4.043-4.541,19.45423,19.45423,0,0,0,2.75391-5.55664h4.96094q1.0935,2.63673,4.96094,5.9375l-2.44141,3.28125a16.48932,16.48932,0,0,1-4.668-5.21484,18.375,18.375,0,0,1-3.75,5.80078h8.51563v3.61328H467.6001v3.14453h4.707V290.208h-4.707v10.39062Q470.803,300.20752,472.229,299.9541Zm-10-.66406-3.35937.66406-.918-7.48047,3.35938-.625Zm10.3711-7.73438-1.28906,6.85547-2.63672-.293,1.03515-6.83593Zm8.14453,5.66407a51.71253,51.71253,0,0,1-7.63672,3.98437l-1.48437-4.043a61.14338,61.14338,0,0,0,8.125-3.75l.99609,3.26172v-10.625h-8.35938v-3.76953h13.8086V279.9541H473.90869v-3.51562h12.28516v-2.28516H473.55713v-3.55469h17.67578v11.67969h3.32031v3.76953h-9.0039v.72266a18.96373,18.96373,0,0,0,2.03125,4.78515,31.95756,31.95756,0,0,0,4.375-4.668l3.39843,3.0664a34.6479,34.6479,0,0,1-5.37109,4.707,31.58073,31.58073,0,0,0,5.89844,5.58594l-3.457,3.59375a24.93551,24.93551,0,0,1-6.875-8.16406V302.083a2.85212,2.85212,0,0,1-1.18164,2.29492,4.37148,4.37148,0,0,1-2.82227.94727h-4.74609l-.56641-4.043h3.35938q1.15209,0,1.15234-.9961Zm-1.07422-4.6875-4.043,1.46484q-.76171-2.20752-2.55859-6.34766l3.84765-1.25Q478.59595,289.73927,479.67041,292.53223Z" transform="translate(0 0)"/><path class="cls-5" d="M522.95166,298.80176h-5.56641l.01954-7.67578q-6.97266,3.41748-6.97266,6.38672,0,2.94873,6.71875,2.94921l2.168-.01953a99.04357,99.04357,0,0,0,13.28125-.64453l.27344,4.88281q-5.48877.52736-10.76172.52735-10.13673,0-13.59375-1.72852a5.64389,5.64389,0,0,1-3.457-5.34179q0-5.937,11.34765-11.66016a1.8218,1.8218,0,0,0-1.52344-.64453,11.19159,11.19159,0,0,0-4.58007,1.30859,28.35035,28.35035,0,0,0-6.18164,4.31641q-2.38331,2.10938-3.418,2.85156l-3.39844-3.67187a36.13242,36.13242,0,0,0,10.27344-11.25h-8.33985v-4.62891h10.3711a33.38663,33.38663,0,0,0,1.23047-4.43359l5.74218.3125q-.54711,2.42138-1.11328,4.12109h12.89063v4.62891H513.59619q-.5083,1.01513-1.875,3.125a11.95044,11.95044,0,0,1,3.75-.64454q3.98438,0,5.74219,2.46094,2.53857-1.09423,10.70312-4.29687l2.28516,4.64843q-3.84814,1.30811-11.48437,4.10157a23.886,23.886,0,0,1,.19531,3.14453Z" transform="translate(0 0)"/><path class="cls-5" d="M574.31885,278.665H562.71729v7.38281a13.37743,13.37743,0,0,1,1.11328,5.9961,11.98923,11.98923,0,0,1-4.16993,9.541q-4.1704,3.60351-11.14257,4.05274l-1.36719-4.72657q8.5935-.66357,10.83984-6.15234a8.42507,8.42507,0,0,1-5.07812,1.60156,8.30483,8.30483,0,0,1-5.73242-2.06055,6.75478,6.75478,0,0,1-2.31446-5.2832,7.823,7.823,0,0,1,2.45117-5.9375,8.59933,8.59933,0,0,1,6.16211-2.32422,9.62607,9.62607,0,0,1,3.47657.64453V278.665h-19.1211V274.0166h19.1211v-3.90625h5.76172v3.90625h11.60156Zm-17.28516,8.88672-.03906-1.09375q-.95727-1.34766-3.47656-1.34766a3.23564,3.23564,0,0,0-2.373,1.10352,3.41369,3.41369,0,0,0-1.06445,2.41211,3.175,3.175,0,0,0,.791,2.207,2.61988,2.61988,0,0,0,2.041.8789,4.014,4.014,0,0,0,2.998-1.14257A4.11948,4.11948,0,0,0,557.03369,287.55176Z" transform="translate(0 0)"/><path class="cls-5" d="M601.95557,299.7002q4.76513-1.875,4.76562-5.97657a5.31644,5.31644,0,0,0-2.35351-4.58008,9.9942,9.9942,0,0,0-5.92774-1.66992h-.48828a15.31537,15.31537,0,0,0-3.66211.52735,23.10086,23.10086,0,0,0-3.94531,1.36718,22.27438,22.27438,0,0,0-3.10547,1.67969q-1.25976.83936-5.84961,4.23828l-3.125-3.92578q15.95655-10.938,20.41016-14.35547H582.15088v-4.57031h23.59375l2.8125,3.00781q-4.19971,2.79346-12.51953,8.51563a16.51255,16.51255,0,0,1,4.02344-.625q5.76123,0,9.02343,2.627a9.129,9.129,0,0,1,3.26172,7.54883,9.96431,9.96431,0,0,1-4.61914,8.81836q-4.61938,3.07617-12.1582,3.07617a16.15628,16.15628,0,0,1-7.90039-1.64062,5.21834,5.21834,0,0,1-2.91992-4.80469,5.13748,5.13748,0,0,1,2.49023-4.30664,9.27108,9.27108,0,0,1,5.43945-1.748Q599.9629,292.90332,601.95557,299.7002Zm-5.03907,1.28906q-1.27-3.98437-4.6289-3.98438a2.939,2.939,0,0,0-1.73828.53711,1.63922,1.63922,0,0,0-.76172,1.39649q0,2.14891,5.03906,2.14843Q595.93995,301.08691,596.9165,300.98926Z" transform="translate(0 0)"/></g></g><g id="完全無料0円_診断を行う" data-name="完全無料0円 診断を行う" class="cls-4"><g class="cls-4"><path class="cls-5" d="M863.84619,232.2002q-1.68018,10.41063-14.02344,13.28125l-1.93359-4.31641q5.13648-1.38721,7.44141-3.60352a10.44093,10.44093,0,0,0,3.00781-5.36132H849.061v-4.4336h35.46875v4.4336H873.4165v6.875a.93982.93982,0,0,0,.25391.66406,1.34124,1.34124,0,0,0,.87891.332q.62475.05859,1.79687.05859a5.94643,5.94643,0,0,0,2.30469-.293,1.751,1.751,0,0,0,.78125-1.35742,27.31215,27.31215,0,0,0,.19531-4.07226l4.7461.72265v5.35157a4.094,4.094,0,0,1-.63477,2.24609A4.14746,4.14746,0,0,1,882.02,244.251a6.68425,6.68425,0,0,1-2.68555.58593l-3.20312.11719a36.48223,36.48223,0,0,1-4.41406-.21484,4.20692,4.20692,0,0,1-3.82813-4.41406l.01953-8.125Zm20.56641-10.19532h-4.92188v-4.60937H853.76807v5h-4.90235v-9.02344h14.96094v-3.32031h5.50781v3.32031H884.4126Zm-5.87891,2.59766H854.56885V220.208h23.96484Z" transform="translate(0 0)"/><path class="cls-5" d="M924.70557,244.60254h-35.9375v-4.80469h14.92187v-5.07812H891.13135V230.169h12.55859V225.8916h-7.832v-1.875a42.86012,42.86012,0,0,1-6.60156,3.457l-2.40235-4.10156a38.888,38.888,0,0,0,8.85743-5.18555,36.80842,36.80842,0,0,0,7.82226-8.01757h5.83985a29.53,29.53,0,0,0,6.40625,6.1914,48.11883,48.11883,0,0,0,10.80078,6.07422l-2.85157,4.84375a41.14444,41.14444,0,0,1-6.42578-3.35937v1.97265h-7.92968V230.169h12.71484v4.55078H909.37354v5.07812h15.332ZM899.7251,221.36035h13.84765a36.79172,36.79172,0,0,1-7.07031-6.67969q-.5083.66359-1.32812,1.60157-.82032.9375-1.5918,1.77734a17.9778,17.9778,0,0,1-1.8457,1.71875Q900.66236,220.65723,899.7251,221.36035Z" transform="translate(0 0)"/><path class="cls-5" d="M965.93652,243.37207l-5.313,1.71875q-.54713-1.32861-2.1875-4.33594l-2.1875-4.082,3.94531-1.15234H929.17822V231.126h3.96485v-4.39453h-4.53125v-4.41407h4.84375v-2.48047a33.89368,33.89368,0,0,1-3.59375,2.36329l-3.08594-3.39844a24.00248,24.00248,0,0,0,9.00391-9.4336l5.19531,1.3086q-.54712,1.01514-1.67969,2.92969h24.5708v4.3164H960.936v4.39453h4.27783v4.41407H960.936V231.126h3.24267v4.39453h-2.85156A42.22332,42.22332,0,0,1,965.93652,243.37207ZM937.186,237.083a37.59316,37.59316,0,0,1-4.49219,8.63281l-5.11719-1.71875a47.57425,47.57425,0,0,0,4.51172-7.87109Zm1.23046-19.16016v4.39453H940.897v-4.39453Zm0,8.8086V231.126H940.897v-4.39453Zm7.40235,17.832-5.27344.8789-1.89453-8.32031,4.92187-.80078A60.91821,60.91821,0,0,1,945.81885,244.56348Zm-.03906-26.64063v4.39453h2.51953v-4.39453Zm0,13.20313h2.51953v-4.39453h-2.51953Zm9.84375,12.87109-5.293,1.17188-3.24219-8.39844,4.88281-1.05469q.605,1.17188,1.96289,4.209Q955.29127,242.96143,955.62354,243.99707Zm-2.44141-21.67969h2.55859v-4.39453h-2.55859Zm0,8.8086h2.55859v-4.39453h-2.55859Z" transform="translate(0 0)"/><path class="cls-5" d="M974.82324,235.28613a32.66321,32.66321,0,0,1-4.64844,5.9961l-2.91015-2.91016a36.25265,36.25265,0,0,0,4.12109-5.63477,32.94241,32.94241,0,0,0,3.26172-6.61132h-6.26953v-3.96485h6.44531V210.12988h4.92188v12.03125h5.07812V226.126h-5.07812v1.01562a26.2176,26.2176,0,0,0,5.46875,5.293l-.35157.58594,12.14844-1.40625V219.48535l-2.793,3.47656a99.169,99.169,0,0,0-7.24609-7.67578l3.32031-3.73047a56.76809,56.76809,0,0,1,6.71875,6.81641v-8.28125h5.293v20.918l2.94922-.332.07812,4.53125-3.02734.35156v9.6875h-5.293v-9.10156l-12.51953,1.42578-.13672-3.71094-1.42578,2.42188a19.07278,19.07278,0,0,1-3.18359-3.125v12.32422h-4.92188Zm-.80078-14.92187-4.23828.76172q0-.70312-1.21094-8.39844l4.082-.64453Q973.22071,215.12989,974.02246,220.36426Zm12.14844-7.75391q-.5083,2.26611-2.10938,8.28125l-3.59375-.332,1.50391-8.55469Zm9.41406,15.50781-3.32031,4.00391a74.66376,74.66376,0,0,0-7.32422-7.75391l3.16406-3.88671A66.055,66.055,0,0,1,995.585,228.11816Z" transform="translate(0 0)"/><path class="cls-5" d="M1020.2334,243.89941q-5.99707,0-8.79883-3.64257-2.80371-3.64308-2.80273-11.68946,0-7.96875,2.8125-11.64062,2.8125-3.67236,8.78906-3.67188,5.97656,0,8.78906,3.66211t2.8125,11.63086q0,8.105-2.793,11.72852Q1026.24854,243.89893,1020.2334,243.89941Zm0-26.09375a4.03031,4.03031,0,0,0-3.916,2.56836q-1.18212,2.56788-1.18164,8.21289,0,5.625,1.21094,8.20313a4.20665,4.20665,0,0,0,7.77344-.03906q1.21-2.61768,1.21093-8.20313,0-5.625-1.18164-8.18359A4.0316,4.0316,0,0,0,1020.2334,217.80566Z" transform="translate(0 0)"/><path class="cls-5" d="M1064.84277,230.52051h-21.875v15.03906h-5.76172v-33.4375h33.32032v28.88672a3.54284,3.54284,0,0,1-1.543,2.97851,5.96858,5.96858,0,0,1-3.65235,1.14258h-6.21093l-.625-5.13672h5.07812q1.26857,0,1.26953-1.07421Zm-21.875-4.55078h7.832v-9.23828h-7.832Zm13.51563,0h8.35937v-9.23828h-8.35937Z" transform="translate(0 0)"/></g><g class="cls-4"><path class="cls-5" d="M875.87744,279.915h-14.082v-3.90625h14.082Zm-.48828,23.84766h-8.06641V305.208h-4.6875V292.083h12.75391Zm-.11719-29.39454H863.1626V270.8916H875.272Zm-.19531,10.6836h-11.875v-3.418h11.875Zm0,5.23437h-11.875v-3.4375h11.875Zm-4.39453,10.03907v-4.76563H867.479v4.76563Zm29.31641-20.27344-2.85157,3.94531a29.46615,29.46615,0,0,1-9.9414-9.043,24.63446,24.63446,0,0,1-9.88282,8.96485l-2.48046-3.39844a20.10958,20.10958,0,0,0,5.41992-3.97461,24.17122,24.17122,0,0,0,4.61914-6.416H889.686A22.97045,22.97045,0,0,0,899.99854,280.05176Zm-8.55469.625a30.22062,30.22062,0,0,1-6.02539,5.40039,46.66185,46.66185,0,0,1-7.50977,4.44336l-2.4414-3.63281q8.33936-4.14112,12.05078-8.88672Zm4.43359,5.83984a41.37544,41.37544,0,0,1-8.34961,6.48438,48.68728,48.68728,0,0,1-10.166,4.88281l-1.83594-3.96484a43.84726,43.84726,0,0,0,9.43359-4.73633,36.90585,36.90585,0,0,0,7.10938-5.81055Zm3.88672,6.28906a38.87392,38.87392,0,0,1-10.41992,7.67579,48.41016,48.41016,0,0,1-12.27539,4.80468l-1.543-4.19922a46.53,46.53,0,0,0,11.04492-4.668,35.948,35.948,0,0,0,9.42383-7.01172Z" transform="translate(0 0)"/><path class="cls-5" d="M920.76025,298.37207l-.03906,1.81641a25.11537,25.11537,0,0,0,2.29492-7.41211,52.69566,52.69566,0,0,0,.6543-8.21289V272.72754a50.34025,50.34025,0,0,0,13.35938-2.59766l2.24609,3.98438a56.74723,56.74723,0,0,1-10.68359,2.24609v5.41016h10.5664v4.27734H936.229V304.876h-5V286.04785h-2.65625a44.22233,44.22233,0,0,1-1.45507,10.49805,29.64712,29.64712,0,0,1-4.05274,8.70117l-3.39844-2.63672H907.2251v1.60156h-4.4336V271.2041h4.4336v27.168Zm-7.207-8.28125a24.36894,24.36894,0,0,1-3.88672,5.07813l-2.30468-2.63672a31.2516,31.2516,0,0,0,5.3125-8.53516H908.1626v-3.32031h5.39062v-10.3125h3.96485v10.3125h4.92187v3.32031h-4.16015a34.34993,34.34993,0,0,0,4.27734,5.21484l-2.207,3.14454a25.29923,25.29923,0,0,1-2.832-3.37891v8.67187h-3.96485Zm-.60547-10.44922-3.4375.56641-1.1914-7.28516,3.39844-.52734Zm10.11719-6.875-1.83594,7.36328-3.20312-.52734,1.44531-7.44141Z" transform="translate(0 0)"/><path class="cls-5" d="M966.95117,298.80176h-5.5664l.01953-7.67578q-6.97193,3.41748-6.97217,6.38672,0,2.94873,6.71826,2.94921l2.168-.01953a99.03854,99.03854,0,0,0,13.28125-.64453l.27344,4.88281q-5.48877.52736-10.76172.52735-10.136,0-13.59326-1.72852a5.64389,5.64389,0,0,1-3.457-5.34179q0-5.937,11.34765-11.66016a1.8218,1.8218,0,0,0-1.52344-.64453,11.19159,11.19159,0,0,0-4.58007,1.30859,28.35035,28.35035,0,0,0-6.18164,4.31641q-2.38331,2.10938-3.418,2.85156l-3.39844-3.67187a36.13242,36.13242,0,0,0,10.27344-11.25h-8.33985v-4.62891h10.3711a33.38663,33.38663,0,0,0,1.23047-4.43359l5.74218.3125q-.54711,2.42138-1.11328,4.12109h12.89014v4.62891H957.59619q-.5083,1.01513-1.875,3.125a11.95044,11.95044,0,0,1,3.75-.64454q3.98364,0,5.7417,2.46094,2.53857-1.09423,10.70313-4.29687l2.28515,4.64843q-3.84814,1.30811-11.48437,4.10157a23.886,23.886,0,0,1,.19531,3.14453Z" transform="translate(0 0)"/><path class="cls-5" d="M992.06836,305.55957h-5.50781v-12.168a30.837,30.837,0,0,1-2.89063,2.77344l-2.87109-3.63281a50.66059,50.66059,0,0,0,9.78515-13.8086l4.64844,1.875a28.70016,28.70016,0,0,1-3.92578,6.97266h.76172ZM993.5918,271.165a31.96643,31.96643,0,0,1-9.39453,11.91406l-3.32032-3.35937a34.11409,34.11409,0,0,0,7.67578-10.11719Zm19.12109,30.07812a3.602,3.602,0,0,1-1.36719,2.91993,4.70541,4.70541,0,0,1-3.0664,1.123h-6.67969l-.60547-5.03906h4.88281a1.08769,1.08769,0,0,0,.80078-.36133,1.0615,1.0615,0,0,0,.35157-.73242V287.083H994.7832v-4.80469h24.16016V287.083h-6.23047Zm4.72656-25.07812H996.63867V271.5166h20.80078Z" transform="translate(0 0)"/><path class="cls-5" d="M1030.34961,305.28613l-.99609-4.88281q9.74561-.4292,14.9121-3.24219,5.16651-2.8125,5.166-7.89062a4.01951,4.01951,0,0,0-1.64062-3.4375,7.19889,7.19889,0,0,0-4.375-1.21094q-1.875,0-4.07227.19531-2.19726.19483-3.877.44922-1.68018.25342-10.76172,1.89453l-.46875-5.03906,8.14453-1.25q3.55518-.54639,6.31836-.77148,2.76415-.22413,4.873-.22461,5.40966,0,8.55468,2.43164a8.27876,8.27876,0,0,1,3.14453,6.96289,12.84048,12.84048,0,0,1-6.5332,11.52344Q1042.20508,304.856,1030.34961,305.28613Zm21.11328-31.8164-1.23047,4.96093A69.80252,69.80252,0,0,0,1040.125,277.044q-6.5332-.52735-11.084-.52735-1.15284,0-2.168.03906l.03906-4.88281q6.17139,0,11.55273.3711Q1043.84522,272.41456,1051.46289,273.46973Z" transform="translate(0 0)"/></g></g><g id="各種ご相談後_副業を開始" data-name="各種ご相談後 副業を開始" class="cls-4"><g class="cls-4"><path class="cls-5" d="M1317.86914,243.80176h-15.72266V245.169h-5.35156l.0586-12.67579q-1.83546.4878-4.41407,1.11329L1290.7207,229.29a58.0623,58.0623,0,0,0,15.15625-5.13672,27.25658,27.25658,0,0,1-4.043-3.98437,40.88057,40.88057,0,0,1-7.24609,4.96093l-2.87109-3.80859a36.85772,36.85772,0,0,0,7.17773-5.48828,25.984,25.984,0,0,0,5.14649-6.543l5.23437,1.11328a21.63322,21.63322,0,0,1-1.07422,2.12891h12.51953l2.14844,2.26562a34.16081,34.16081,0,0,1-7.85156,9.33594,57.32994,57.32994,0,0,0,6.1914,2.24609q3.08643.91846,8.4961,2.03125l-2.44141,4.58985q-1.875-.39113-3.90625-.89844V245.169h-5.48828Zm-15.72266-4.1211h15.72266v-4.96093h-15.72266Zm.957-9.043,15.07812-.03907a44.94447,44.94447,0,0,1-7.65625-3.30078A41.022,41.022,0,0,1,1303.10352,230.6377Zm7.05078-9.14063a22.15374,22.15374,0,0,0,4.76562-4.72656h-9.53125A22.757,22.757,0,0,0,1310.1543,221.49707Z" transform="translate(0 0)"/><path class="cls-5" d="M1336.67773,234.251a21.57827,21.57827,0,0,1-3.32031,4.51172l-2.8125-3.16407a22.90327,22.90327,0,0,0,3.24219-4.90234A37.10927,37.10927,0,0,0,1336.502,224.29h-4.82422v-4.19922h5V216.2041q-2.94873.5083-4.6875.64453l-.72265-3.84765a41.26832,41.26832,0,0,0,12.67578-3.00782l2.01172,3.76954a31.35074,31.35074,0,0,1-4.35547,1.40625v4.92187h3.4375V224.29h-3.4375v1.28906a28.27284,28.27284,0,0,0,4.16016,4.47266l-2.08985,3.78906q-1.01514-1.03565-2.07031-2.32422v14.00391h-4.92188Zm32.8711,10.39062h-25.46875v-3.71094h10.27344v-1.77734H1345.584V235.8916h8.76954v-1.67969h-8.125V221.2041h8.125v-1.64062h-9.082v-3.28125h9.082V214.915q-3.61231.13623-7.51954.13672l-.64453-3.418a129.40781,129.40781,0,0,0,20.27344-1.64063l1.77734,3.61329a76.02142,76.02142,0,0,1-8.96484,1.05468v1.6211h9.668v3.28125h-9.668v1.64062h8.16406v13.00781h-8.16406v1.67969h8.92578v3.26172h-8.92578v1.77734h10.27344Zm-15.19531-20.3125h-3.35938v2.10938h3.35938Zm0,4.62891h-3.35938v2.28515h3.35938Zm8.28125-2.51953V224.3291h-3.35938v2.10938Zm0,4.80468V228.958h-3.35938v2.28515Z" transform="translate(0 0)"/><path class="cls-5" d="M1403.709,243.68457a117.91221,117.91221,0,0,1-13.98437.9375q-10.37109,0-14.29688-2.07031a6.58117,6.58117,0,0,1-3.92578-6.11328q0-5.09766,5.41016-9.19922l3.88672,2.91015q-3.71044,3.53468-3.71094,5.80079a3.02422,3.02422,0,0,0,.23438,1.2207,2.70467,2.70467,0,0,0,1.14257,1.084,9.81615,9.81615,0,0,0,3.31055.89844,44.98627,44.98627,0,0,0,6.09375.37109h1.42578a92.32458,92.32458,0,0,0,13.57422-1.05468Zm-2.51953-24.80469a15.71586,15.71586,0,0,0-2.98828.84961,30.18559,30.18559,0,0,0-3.35937,1.55274l-5.332,2.87109-2.40235-3.4375q.74268-.312,4.53125-2.10937-5.78027.05859-17.36328.46875l-.15625-4.84375q5.54736-.19483,21.13281-.19532,2.42286,0,4.02344.01953Zm3.53516-3.00781-2.793,1.07422q-1.48389-3.69141-2.71484-6.03516l2.7539-1.03515Q1403.51465,212.84522,1404.72461,215.87207Zm5.39062-.82031-2.77343,1.03515q-1.21-2.98827-2.71485-5.99609l2.69532-.99609Q1408.80762,211.96582,1410.11523,215.05176Z" transform="translate(0 0)"/><path class="cls-5" d="M1417.43945,232.31738a41.66925,41.66925,0,0,1-3.76953,5.76172l-3.32031-3.16406a35.34018,35.34018,0,0,0,3.7207-6.14258,43.91515,43.91515,0,0,0,2.8418-7.13867h-4.84375v-4.23828h5.37109v-7.34375h5.15625v7.34375h3.82813v4.23828h-3.82813v2.44141a20.70358,20.70358,0,0,0,4.707,4.49218l-2.51953,4.19922q-1.26855-1.19091-2.1875-2.1289v14.84375h-5.15625Zm24.35547,10.9961h-8.84765v1.77734h-5.35157V211.32129h19.58985v33.76953h-5.39063Zm0-22.793v-4.80469h-8.84765v4.80469Zm-8.84765,8.96484h8.84765v-4.80469h-8.84765Zm0,9.55078h8.84765v-5.39062h-8.84765Z" transform="translate(0 0)"/><path class="cls-5" d="M1464.50977,219.83691h-12.63672v-3.82812h12.63672Zm-.80079,23.92579h-6.875V245.208h-4.19921V232.00488H1463.709Zm.11719-29.47266h-10.66406V210.8916h10.66406Zm-.19531,10.66406h-10.42969v-3.32031h10.42969Zm0,5.25391h-10.42969v-3.35938h10.42969Zm-4.082,10.11719v-4.84375h-2.5586v4.84375Zm17.1289-2.5a13.43217,13.43217,0,0,1-4.52148,4.63867,19.73271,19.73271,0,0,1-6.5332,2.74414l-1.75782-4.27735q5.11817-1.27,7.40235-3.74023a8.11407,8.11407,0,0,0,2.28515-5.67383v-5.80078h5.27344v5.64453a8.132,8.132,0,0,0,1.61133,3.8086,11.18989,11.18989,0,0,0,4.23828,3.53515,20.422,20.422,0,0,0,5.20508,1.89453l-2.207,4.53125Q1480.11524,243.25488,1476.67773,237.8252Zm.03907-16.05469q-2.71435,4.98047-11.09375,7.07031l-1.67969-4.16016a14.57569,14.57569,0,0,0,7.25586-3.32031,7.50066,7.50066,0,0,0,2.4707-5.64453v-5.625h5.11719v5.68359a7.62905,7.62905,0,0,0,3.31055,5.25391,19.61518,19.61518,0,0,0,7.60742,3.125l-2.34375,4.41406Q1480.11621,226.5752,1476.7168,221.77051Zm-4.57032,7.7539a28.20225,28.20225,0,0,1-1.63086,4.55079,26.39266,26.39266,0,0,1-2.19726,4.12109l-4.16016-1.42578a41.12594,41.12594,0,0,0,3.82813-8.04688Zm.332-16.11328a26.953,26.953,0,0,1-3.8086,8.14453l-4.043-1.38671a37.97543,37.97543,0,0,0,3.65235-7.51954Zm16.5039-.2539a38.35748,38.35748,0,0,1-4.96094,7.63672l-3.75-1.91407a27.05808,27.05808,0,0,0,4.1211-7.10937Zm-.54687,16.5625a62.76659,62.76659,0,0,1-4.53125,6.97265l-3.63282-2.168a37.46583,37.46583,0,0,0,3.75-6.40625Z" transform="translate(0 0)"/><path class="cls-5" d="M1501.07227,245.52051h-5.11719V233.41113a24.86717,24.86717,0,0,1-2.59766,2.75391l-2.92969-3.16406a52.22647,52.22647,0,0,0,9.19922-14.27735l4.45313,1.60157a30.29551,30.29551,0,0,1-3.67188,7.168l.66407-.01953Zm2.168-34.31641a27.29771,27.29771,0,0,1-3.92578,6.2793,36.42519,36.42519,0,0,1-5.44922,5.47851l-3.10546-3.04687a34.01248,34.01248,0,0,0,7.67578-10.11719Zm11.60157,16.34766q-.4878.82031-1.15235,1.73828h12.53907l1.48437,1.543a22.47,22.47,0,0,1-6.64062,7.73437,48.99632,48.99632,0,0,0,8.76953,2.32422l-2.57813,4.4336a40.60887,40.60887,0,0,1-10.70312-3.8086q-4.21875,2.3833-12.61719,3.8086l-1.46484-4.043a37.15864,37.15864,0,0,0,9.60937-2.59766,22.67361,22.67361,0,0,1-3.86719-4.00391,42.3367,42.3367,0,0,1-4.17968,2.75391l-2.48047-3.10547a35.98735,35.98735,0,0,0,7.59765-6.46484q-3.2417.15673-5.80078.21484l-.60547-4.082q.70313.019,1.6211.01953,2.20752,0,5.60547-.11719l.918-.82031q-4.31543-4.29639-7.03125-6.52344l3.57422-3.02734q.31348.23438,1.32813,1.11328a32.94959,32.94959,0,0,0,3.59375-5.07812l4.82422,1.64062a51.9882,51.9882,0,0,1-5.19532,6.28906l2.36329,2.10938a56.94853,56.94853,0,0,0,6.32812-7.832l4.58984,1.99219a74.29576,74.29576,0,0,1-8.75,9.84375l4.96094-.332q-.99609-1.48388-1.60156-2.26562l3.94531-2.05078q.99609,1.17188,3.125,4.16992a38.69326,38.69326,0,0,1,2.59766,3.95508l-4.51172,1.75781-1.23047-1.99219Q1520.13575,227.21923,1514.8418,227.55176Zm1.5625,8.86719a15.99126,15.99126,0,0,0,3.82812-3.30079h-7.53906A19.24948,19.24948,0,0,0,1516.4043,236.419Z" transform="translate(0 0)"/></g><g class="cls-4"><path class="cls-5" d="M1335.03711,275.28613h-22.92969v-3.96484h22.92969Zm-6.13281,28.55469H1317.791v1.21094H1312.752V287.68848h21.36719v17.36328h-5.21484Zm4.29687-17.87109H1313.709v-9.082h19.49219Zm-12.168,5.50781H1317.791v2.59766h3.24218Zm-3.24218,8.61328h3.24218v-2.85156H1317.791Zm10.37109-17.44141v-2.51953h-9.375v2.51953Zm.74219,11.42579v-2.59766h-3.22266v2.59766Zm-3.22266,6.01562h3.22266v-2.85156h-3.22266Zm14.78516-3.69141H1335.916v-23.75h4.55078Zm7.01172,4.88282a3.367,3.367,0,0,1-1.23047,2.63672,4.15678,4.15678,0,0,1-2.8125,1.07421h-4.76563l-.64453-4.6289h3.16406q1.4458,0,1.44532-1.21094V270.24707h4.84375Z" transform="translate(0 0)"/><path class="cls-5" d="M1367.40039,298.82129a45.435,45.435,0,0,1-15.25391,6.05469l-1.42578-3.90625a48.79833,48.79833,0,0,0,12.01172-4.33594H1352.0293v-3.71094h15.37109v-1.83594h-13.32031v-3.47656h13.32031v-1.83594h-13.92578V282.044h7.30469l-.87891-2.2461h-7.34375v-3.75h4.41406l-1.97265-4.53125,4.668-1.15234,2.5,5.68359h1.77734v-6.21094h4.72656v6.21094h2.96875v-6.21094h4.668v6.21094h2.01172l2.48047-5.72265,4.88281,1.15234-2.40234,4.57031h4.707v3.75h-7.5586l-1.34765,2.2461h8.02734v3.73046h-14.43359v1.83594h13.4375v3.47656h-13.4375v1.83594h15.5664v3.71094H1377.5957a51.92414,51.92414,0,0,0,11.99219,3.92578l-2.03125,4.35547a42.32149,42.32149,0,0,1-14.88281-6.42578v6.99219h-5.27344Zm-2.46094-19.02344.89844,2.2461h8.16406l1.17188-2.2461Z" transform="translate(0 0)"/><path class="cls-5" d="M1416.95117,298.80176h-5.5664l.01953-7.67578q-6.97266,3.41748-6.97266,6.38672,0,2.94873,6.71875,2.94921l2.168-.01953a99.03854,99.03854,0,0,0,13.28125-.64453l.27344,4.88281q-5.48731.52736-10.76172.52735-10.13672,0-13.59375-1.72852a5.64389,5.64389,0,0,1-3.457-5.34179q0-5.937,11.34765-11.66016a1.81928,1.81928,0,0,0-1.52343-.64453,11.19753,11.19753,0,0,0-4.58008,1.30859,28.37364,28.37364,0,0,0-6.18164,4.31641q-2.38183,2.10938-3.418,2.85156l-3.39844-3.67187a36.12645,36.12645,0,0,0,10.27344-11.25h-8.33985v-4.62891h10.3711a33.38663,33.38663,0,0,0,1.23047-4.43359l5.74218.3125q-.54638,2.42138-1.11328,4.12109h12.89063v4.62891H1407.5957q-.50683,1.01513-1.875,3.125a11.95979,11.95979,0,0,1,3.75-.64454q3.98438,0,5.74219,2.46094,2.54-1.09423,10.70313-4.29687l2.28515,4.64843q-3.84668,1.30811-11.48437,4.10157a23.71888,23.71888,0,0,1,.19531,3.14453Z" transform="translate(0 0)"/><path class="cls-5" d="M1448.43555,284.0752h-10.41016v21.44531h-5.15625V270.71582h15.56641Zm-4.80469-7.793v-2.44141h-5.60547v2.44141Zm0,4.80468v-2.51953h-5.60547v2.51953Zm4.375,15.27344a12.71054,12.71054,0,0,1-1.9043,4.86328,14.30714,14.30714,0,0,1-4.26758,3.86719l-2.7539-3.08594a9.48355,9.48355,0,0,0,4.10156-5.64453h-4.02344v-3.71094h4.39453v-3.20312h-3.63281V285.8916h20.11719v3.55469h-3.39844v3.20312h4.27735v3.71094h-4.27735v8.24219h-4.76562v-8.24219Zm.35156-3.71094h3.51563v-3.20312h-3.51563Zm19.082,8.94532a3.13676,3.13676,0,0,1-1.28906,2.54882,4.80408,4.80408,0,0,1-3.08594,1.0254h-4.55078l-.52734-4.45313h3.08594a1.28286,1.28286,0,0,0,.84961-.32227.9981.9981,0,0,0,.38085-.791V284.0752h-10.78125V270.71582h15.918Zm-11.05468-25.3125h5.918v-2.44141h-5.918Zm5.918,2.28515h-5.918v2.51953h5.918Z" transform="translate(0 0)"/><path class="cls-5" d="M1486.63867,280.67676q0,8.84766-3.18359,14.9414a25.08874,25.08874,0,0,1,3.14453,2.46094l-3.08594,4.00391a30.4445,30.4445,0,0,0-2.77344-2.42188,27.06191,27.06191,0,0,1-7.67578,6.09375l-2.22656-3.55468a24.60906,24.60906,0,0,0,6.28906-5.23438q-2.28515-1.60107-4.33593-2.85156a1.19554,1.19554,0,0,1-.58594-1.07422,2.43608,2.43608,0,0,1,.05859-.50781q.78223-3.24171,2.03125-11.25h-2.57812v-3.96485h3.18359q.72363-4.98047.89844-7.26562l5.23437.23437q-.09668,1.71827-.99609,7.03125h6.60156Zm-7.05078,12.40234a27.36025,27.36025,0,0,0,2.207-11.79687h-2.4414q-1.34766,7.42236-2.12891,10.23437Q1477.90869,292.0044,1479.58789,293.0791Zm24.23828-8.47656q-7.92919,1.13232-16.5625,1.52344l-.46875-4.60938q1.44581-.019,2.92969-.05859a57.02635,57.02635,0,0,0,3.67187-11.543l5.60547,1.09375a72.68246,72.68246,0,0,1-4.14062,10.21484q4.3169-.25341,7.08984-.52734-1.56152-3.1831-2.71484-5.13672l4.43359-1.83594a92.64927,92.64927,0,0,1,6.11328,11.71875L1504.959,287.083Zm-1.60156,19.082h-9.27734v1.26953h-5.11719V288.52832h19.57031V304.9541h-5.17578Zm-9.27734-3.96484h9.27734v-7.10938h-9.27734Z" transform="translate(0 0)"/></g></g><g id="_5-line" data-name=" 5-line"><rect id="長方形_11" data-name="長方形 11" class="cls-6" x="467.23285" y="79.27404" width="99" height="99" rx="11.2"/><path id="パス_9" data-name="パス 9" class="cls-2" d="M554.71585,122.929c0-13.65-16.132-28.541-37.227-28.541-20.552,0-37.227,12.1-37.227,28.541,0,15.17,13,27.7,31.286,29.549a3.69,3.69,0,0,1,2.776,1.644,4.376,4.376,0,0,1,.682,2.311,29.54478,29.54478,0,0,1-.558,5.01,1.241,1.241,0,0,0,1.706,1.412C524.91885,158.977,554.71585,143.031,554.71585,122.929Z" transform="translate(0 0)"/><path id="パス_10" data-name="パス 10" class="cls-6" d="M503.83985,129.753h-5.584V116.724a1.8615,1.8615,0,0,0-3.723,0v14.891a1.861,1.861,0,0,0,1.861,1.861h7.445a1.8615,1.8615,0,1,0,0-3.723Z" transform="translate(0 0)"/><path id="パス_11" data-name="パス 11" class="cls-6" d="M508.80285,114.863a1.861,1.861,0,0,0-1.861,1.861h0v14.891a1.8615,1.8615,0,1,0,3.723,0V116.724a1.861,1.861,0,0,0-1.861-1.861Z" transform="translate(0 0)"/><path id="パス_12" data-name="パス 12" class="cls-6" d="M526.17485,114.862a1.861,1.861,0,0,0-1.861,1.861h0v9.307l-7.756-10.423a1.861,1.861,0,0,0-3.35,1.117v14.89a1.861,1.861,0,0,0,3.661,0v-9.307l7.756,10.424a1.845,1.845,0,0,0,1.551.745,1.951,1.951,0,0,0,.589-.093,1.862,1.862,0,0,0,1.272-1.768V116.723a1.861,1.861,0,0,0-1.861-1.861Z" transform="translate(0 0)"/><path id="パス_13" data-name="パス 13" class="cls-6" d="M539.82585,126.031a1.8615,1.8615,0,1,0,0-3.723h-5.584v-3.722h5.584a1.8615,1.8615,0,1,0,0-3.723h-7.446a1.861,1.861,0,0,0-1.861,1.861h0v14.891a1.861,1.861,0,0,0,1.861,1.861h7.445a1.8615,1.8615,0,0,0,0-3.723h-5.583v-3.722Z" transform="translate(0 0)"/></g><g id="グループ_240" data-name="グループ 240"><path id="パス_586" data-name="パス 586" class="cls-7" d="M1401.40585,68.31792c33.8,0,61.18506,21.31592,61.18506,47.58691,0,14.854-8.754,28.10791-22.447,36.832a74.70657,74.70657,0,0,0,15.653,31.158c-19.575-3.272-32.085-12.8-39.83-21.813a77.61438,77.61438,0,0,1-14.562,1.408c-33.78406,0-61.173-21.3-61.173-47.585s27.389-47.58691,61.173-47.58691" transform="translate(0 0)"/></g><g id="グループ_243" data-name="グループ 243"><g id="グループ_242" data-name="グループ 242"><g class="cls-8"><g id="グループ_241" data-name="グループ 241"><path id="パス_587" data-name="パス 587" class="cls-9" d="M985.49286,144.77812l-12.529-12.51709a40.64707,40.64707,0,1,0-9.544,9.54l12.517,12.532Z" transform="translate(0 0)"/><path id="パス_588" data-name="パス 588" class="cls-10" d="M966.97186,108.81719a27,27,0,0,1-26.993,27h0a27.008,27.008,0,0,1-27.009-27h0a27,27,0,1,1,54,0" transform="translate(0 0)"/><path id="パス_589" data-name="パス 589" class="cls-11" d="M1016.68189,166.78105l-28.64-28.63989a6.748,6.748,0,0,0-9.529-.012l-.012.012-9.544,9.54395a6.731,6.731,0,0,0-.021,9.519l.021.021,9.544,9.55591,19.1,19.08106a13.495,13.495,0,0,0,19.57642-18.58032q-.13614-.14319-.27643-.28272c-.07-.06592-.136-.1521-.218-.218" transform="translate(0 0)"/></g></g></g></g></g></svg>