<svg id="レイヤー_1" data-name="レイヤー 1" xmlns="http://www.w3.org/2000/svg" viewBox="0 0 1920 412"><defs><style>.cls-1{fill:#f15b55;}.cls-2{isolation:isolate;}.cls-3{fill:#fff;}.cls-4{fill:#fceb00;}</style></defs><g id="グループ_100" data-name="グループ 100"><rect id="長方形_101" data-name="長方形 101" class="cls-1" width="1920" height="412"/><g id="こんな_お悩み_を" data-name="こんな お悩み を" class="cls-2"><g class="cls-2"><path class="cls-3" d="M763.27588,156.13525a247.64076,247.64076,0,0,1-29.36719,1.96875q-21.7793,0-30.02344-4.34765t-8.24414-12.83789q0-10.70508,11.36133-19.31836l8.16211,6.11133q-7.793,7.42382-7.793,12.18164a6.35072,6.35072,0,0,0,.49219,2.56347,5.68772,5.68772,0,0,0,2.39941,2.27637q1.90724,1.14844,6.95215,1.88672a94.58731,94.58731,0,0,0,12.79688.7793h2.99414a193.63778,193.63778,0,0,0,28.46484-2.21485Zm-3.03516-52.08984a40.12863,40.12863,0,0,0-5.92676,1.53809q-3.26073,1.08691-5.35253,2.03027t-15.50391,7.50586l-5.04492-7.21875q1.55859-.65625,9.51562-4.42969-12.14136.123-36.46289.98438l-.32812-10.17188q11.64843-.41016,44.3789-.41015,7.54615,0,10.91016.041Z" transform="translate(-0.23288 -0.27397)"/><path class="cls-3" d="M815.32471,89.07471q-8.49024,17.47265-13.57617,28.957a13.12288,13.12288,0,0,1,4.51171-.82031q9.4336,0,11.77149,8.24414l1.47656,14.76562q.45117,4.4707,2.21484,6.64453a5.89389,5.89389,0,0,0,4.83985,2.17383q10.82813,0,14.23242-25.51172l11.15625,2.707q-2.78979,18.58008-9.085,25.96289-6.29663,7.38282-16.7959,7.38282-9.06519,0-13.35059-4.32715-4.28613-4.32716-4.86035-16.18067l-.24609-5.82421a10.22906,10.22906,0,0,0-1.02539-4.49122,2.73934,2.73934,0,0,0-2.46094-1.62011q-2.91283,0-6.46,3.32226-3.54784,3.32227-8.22363,14.72461-3.32227,7.46484-6.35742,14.80664l-11.2793-2.78906,17.26758-39.82617q1.72264-4.10157,14.31445-31.04883Z" transform="translate(-0.23288 -0.27397)"/><path class="cls-3" d="M886.32275,87.84424q-.2871,6.5625-.94336,12.01758h17.88282v9.80273H883.90283a94.0097,94.0097,0,0,1-18.58008,41.75391l-8.98242-6.48047q11.15625-13.69922,15.87305-35.27344H859.58057V99.86182H873.936a116.47049,116.47049,0,0,0,.94335-12.38672ZM936.895,146.86572l-6.07031,9.10547a97.45258,97.45258,0,0,0-13.69922-9.88476q0,7.09569-4.42969,10.541t-14.60156,3.44531q-8.20386,0-13.61719-3.60937a11.39221,11.39221,0,0,1-5.41406-10.00781,12.55437,12.55437,0,0,1,5.74219-10.84864,23.93635,23.93635,0,0,1,14.02734-3.999,50.07865,50.07865,0,0,1,6.97266.45117V110.772h11.32031v24.36328Q925.00049,138.33448,936.895,146.86572Zm-31.08984-5.74218a33.497,33.497,0,0,0-6.97266-.69727,13.94872,13.94872,0,0,0-6.501,1.415,4.32414,4.32414,0,0,0-2.72754,3.917q0,5.168,9.55664,5.168,6.64454,0,6.64454-4.79883Zm31.66406-28.3418-8.98242,6.80859A122.61187,122.61187,0,0,0,916.6333,107.6958a90.32791,90.32791,0,0,0-12.50976-9.80273l6.89062-7.62891a82.04166,82.04166,0,0,1,13.55566,9.82324A116.4923,116.4923,0,0,1,937.46924,112.78174Z" transform="translate(-0.23288 -0.27397)"/></g><g class="cls-2"><path class="cls-4" d="M963.88281,90.71533l-11.73,24.07617h-8.65429l6.68554-24.07617Zm20.22071,0L972.37305,114.7915h-8.6543l6.68555-24.07617Z" transform="translate(-0.23288 -0.27397)"/><path class="cls-4" d="M1024.58594,155.52l2.78906-9.55664a26.42379,26.42379,0,0,0,11.2793,2.78906q5.94726,0,9.43359-2.83008a9.71672,9.71672,0,0,0,3.48633-7.998,10.169,10.169,0,0,0-4.96289-9.1875q-4.9629-3.11719-13.78125-3.11719a65.65769,65.65769,0,0,0-11.60742,1.10742v22.59961a8.73992,8.73992,0,0,1-3.958,7.58789,16.96021,16.96021,0,0,1-9.90527,2.74805,20.754,20.754,0,0,1-13.74024-4.7168,15.12631,15.12631,0,0,1-5.66016-12.18164q0-7.34179,5.72168-13.30957t15.60645-9.53613V109.58252H989.96875V99.94385h19.31836v-13.043h11.93555v13.043h19.97461v9.63867h-19.97461v7.30078a72.57348,72.57348,0,0,1,11.44336-.90234q13.78125,0,22.374,5.59863a17.96422,17.96422,0,0,1,8.59277,15.97559q0,10.04881-6.46,15.89355t-17.24707,5.84473A30.95849,30.95849,0,0,1,1024.58594,155.52Zm-15.29883-25.14258q-10.582,5.08594-10.582,12.0586a6.07772,6.07772,0,0,0,2.44043,4.92187,8.83939,8.83939,0,0,0,5.72168,1.96875,2.10344,2.10344,0,0,0,2.41992-2.33789Zm57.627-21.82031-8.81836,6.89062a124.14344,124.14344,0,0,0-10.60254-10.93066,115.4966,115.4966,0,0,0-11.58691-9.9873L1043.084,87.311a79.16865,79.16865,0,0,1,12.28418,9.37207A109.83076,109.83076,0,0,1,1066.91406,108.55713Z" transform="translate(-0.23288 -0.27397)"/><path class="cls-4" d="M1079.0957,99.41064q-.57422,19.07227-2.83008,26.127l-7.25976-1.68164q2.625-9.22853,2.78906-24.69141Zm12.18164,60.58008h-10.2539V85.3833h10.2539Zm8.73633-50.57226-5.127,1.51758-3.36328-13.002,4.79883-1.35351Zm6.5625,49.66992h-9.92578V114.05322h9.92578v27.0293a74.338,74.338,0,0,0,10.37695-11.19727q-3.48631-3.19922-9.7207-8.53125l5.98828-6.39843a107.13878,107.13878,0,0,1,9.06446,7.17773,58.87378,58.87378,0,0,0,5.127-10.541l9.22851,3.11718a84.302,84.302,0,0,1-7.34179,13.61719q5.209,4.71679,7.834,7.54688l-6.89062,7.05468q-2.91211-3.24023-6.5625-6.80859a71.5218,71.5218,0,0,1-11.15625,11.2793l-5.94727-6.27539v6.8496H1137.502V113.97119h10.13086v45.11719H1137.502v-2.625h-30.92578Zm7.21875-50.08008-10.17187,2.87109q-.82032-4.42968-6.35743-21.61523l9.88477-2.502A198.53967,198.53967,0,0,1,1113.79492,109.0083Zm15.29883-2.625-10.17187,2.46094a157.42358,157.42358,0,0,0-5.53711-21.69727l9.88476-2.25586A169.46671,169.46671,0,0,1,1129.09375,106.3833Zm20.13867-18.21094q-1.64062,5.00391-5.291,13.14551t-5.70118,10.64356l-9.31054-3.11719q2.13281-4.42969,5.02441-11.8125a107.48349,107.48349,0,0,0,3.876-11.19727Z" transform="translate(-0.23288 -0.27397)"/><path class="cls-4" d="M1236.0625,126.02979l-3.44531,10.70507-9.31055-3.48632a43.61581,43.61581,0,0,1-22.02539,27.72656l-6.97266-7.46485q8.08008-5.66015,12.09961-11.25879a35.01158,35.01158,0,0,0,5.66016-12.85839,107.27424,107.27424,0,0,0-17.8418-4.10157q-12.87891,29.81837-27.27539,29.81836a11.21626,11.21626,0,0,1-8.81836-3.917,14.04532,14.04532,0,0,1-3.44531-9.61816q0-9.80274,8.53125-18.375t21.82031-8.57227h.65625a98.63226,98.63226,0,0,0,2.748-14.10937h-24.11719V90.75635h35.35547l1.59961,1.76367a107.06605,107.06605,0,0,1-3.73242,23.05078,125.56247,125.56247,0,0,1,15.99609,3.4043q.20508-2.99415.20508-8.77735,0-2.25585-.041-4.88086h11.93555l.041,6.97266q.041,5.7832-.36914,10.17188Zm-53.89453-1.43555a16.54814,16.54814,0,0,0-9.4541,3.58887,18.00427,18.00427,0,0,0-5.4961,6.97265,17.08585,17.08585,0,0,0-1.5791,6.21387q0,2.584,1.5586,2.584Q1174.04687,143.95361,1182.168,124.59424Z" transform="translate(-0.23288 -0.27397)"/><path class="cls-4" d="M1261,90.71533l-11.73047,24.07617h-8.6543l6.68555-24.07617Zm20.2207,0-11.73047,24.07617h-8.65429l6.68554-24.07617Z" transform="translate(-0.23288 -0.27397)"/></g><g class="cls-2"><path class="cls-3" d="M1337.57617,145.88135h-11.68945l.041-16.11914q-14.64257,7.17772-14.64257,13.41211,0,6.19335,14.10937,6.19336l4.55274-.041q18.78515,0,27.89062-1.35352l.57422,10.25391q-11.52539,1.10742-22.59961,1.10742-21.28711,0-28.54688-3.62988t-7.25976-11.21777q0-12.46875,23.83008-24.48633a3.824,3.824,0,0,0-3.19922-1.35352q-3.85547,0-9.61719,2.74805a59.55564,59.55564,0,0,0-12.98242,9.06445q-5.00391,4.42969-7.17773,5.98828l-7.13672-7.71093q14.27343-10.582,21.57422-23.625H1287.7832V95.39111h21.7793a70.10725,70.10725,0,0,0,2.584-9.31054l12.0586.65625q-1.14844,5.08593-2.33789,8.65429h27.07031v9.72071h-31.00781q-1.06641,2.13281-3.9375,6.5625a25.10229,25.10229,0,0,1,7.875-1.35352q8.36718,0,12.05859,5.168,5.332-2.29687,22.47656-9.02344l4.79883,9.76172q-8.08008,2.748-24.11719,8.61328a50.04968,50.04968,0,0,1,.41016,6.60352Z" transform="translate(-0.23288 -0.27397)"/></g></g><g id="徹底的に解決します_" data-name="徹底的に解決します " class="cls-2"><g class="cls-2"><path class="cls-3" d="M400.65088,327.0127H386.52979V290.919a59.25532,59.25532,0,0,1-5.15625,5.97656l-8.32032-8.37891a108.1899,108.1899,0,0,0,12.56836-19.39453q6.47388-12.24609,8.4668-19.51172l11.42578,3.457-.05859-.58593q2.28514,0,5.85937-.17579,1.582-3.74853,4.10156-10.957H405.33838v-10.957h16.11328v-9.3164h14.00391v9.3164h16.34765v10.957h-9.96093q3.10473,5.15625,6.5625,12.1875a165.72222,165.72222,0,0,0,8.90625-33.457l14.0625,1.69922a151.384,151.384,0,0,1-3.63282,16.46484h22.32422V250.0791h-3.80859q-.87891,26.25-9.19922,44.47266a81.06557,81.06557,0,0,0,13.24219,17.22656l-7.44141,14.0625a111.923,111.923,0,0,1-13.65234-17.92969,79.25648,79.25648,0,0,1-16.11328,18.51563l-6.09375-10.42969a90.31922,90.31922,0,0,0,15.41015-21.50391,123.2977,123.2977,0,0,1-8.26172-28.00781q-1.114,2.10938-1.99218,3.51563l-8.02735-6.5625,1.17188-2.40235-5.625,2.168-1.52344-3.28125q-22.44214,3.57422-31.11328,3.75l-.9961-7.207q-1.81713,5.50782-7.91015,16.93359h2.51953Zm4.80469-103.418a77.21455,77.21455,0,0,1-9.81446,19.33593,84.04733,84.04733,0,0,1-13.21289,15.46875l-8.84765-8.4375q11.13207-11.543,18.92578-29.64843Zm27.832,81.32812h-12.832v20.6836H407.38916V266.66113H446.647v48.98438q0,8.96484-10.3125,8.96484H426.022L424.7915,313.126h5.74219q2.75318,0,2.75391-2.40235Zm0-23.26172V275.919h-12.832v5.74218Zm-12.832,14.64844h12.832v-6.38672h-12.832Zm3.16406-44.82422,10.19531-.9375q-2.22729-4.80323-3.16406-6.44531l8.96484-2.75391H428.13135Q426.66577,245.09863,423.61963,251.48535Zm45.293,26.83594a116.58784,116.58784,0,0,0,4.27734-28.24219h-9.72656A123.68338,123.68338,0,0,0,468.9126,278.32129Z" transform="translate(-0.23288 -0.27397)"/><path class="cls-3" d="M619.54541,242.40332H530.24854v17.40234a188.35606,188.35606,0,0,1-3.92579,39.02344q-3.92651,18.57569-10.66406,27.48047l-11.42578-6.85547q3.74926-5.97655,7.32422-21.44531a157.73374,157.73374,0,0,0,3.57422-35.332V230.68457h43.47656V220.60645h16.52344v10.07812h44.41406Zm-33.57422,82.08984H527.02588V312.59863h58.94531Zm-10.07812-20.625q-15.46875,3.22266-44.41407,6.09375l-2.28515-12.1289,10.3125-.64453V248.90723l8.14453-.23438q35.8-1.05468,54.72656-5.68359l7.08985,10.83984q-5.74293,1.93359-21.5625,3.75-.05934,2.40381-.0586,4.45313,0,4.16161.17578,7.03125h26.71875V280.958H589.311q2.16723,13.88672,7.4121,21.709,5.24342,7.82228,8.05665,7.76367a1.72745,1.72745,0,0,0,1.8164-1.28906q.40943-1.2876,1.05469-15.46875l11.89453,2.51953q0,8.78907-.43945,14.67774a53.85363,53.85363,0,0,1-.9668,7.91015,8.63075,8.63075,0,0,1-2.10937,3.72071,10.35036,10.35036,0,0,1-3.98438,2.60742,15.15169,15.15169,0,0,1-5.39062.9082,16.67737,16.67737,0,0,1-7.82227-1.8457q-3.54566-1.84571-8.99414-7.61719a54.45272,54.45272,0,0,1-9.58008-14.73633A77.81735,77.81735,0,0,1,574.311,280.958H554.272v14.9414q13.24146-1.40625,21.73828-3.10546Zm-2.69532-44.88281q-12.071.99756-18.92578,1.05469v9.02344h18.98438q-.05932-2.51807-.0586-6.91407Z" transform="translate(-0.23288 -0.27397)"/><path class="cls-3" d="M686.0376,310.72363H659.84619v7.14844H645.022V237.9502h13.24219l4.62891-17.75391,15.70312,2.168-5.97656,15.58594h13.418Zm-14.64844-43.125V249.49316h-11.543v18.10547Zm0,31.23047V278.55566h-11.543V298.8291Zm37.793,27.36328-1.93359-14.0625h15.11718q5.09766,0,6.67969-5.06836,1.582-5.06689,1.75781-18.66211l-.05859,1.64063q-.05933,0-.17578-19.92188V245.919H707.24854a109.33843,109.33843,0,0,1-8.37891,17.98828l-12.36328-5.625a211.96658,211.96658,0,0,0,7.793-21.15235,139.38127,139.38127,0,0,0,3.98437-17.98828l15.82031,1.582a110.71164,110.71164,0,0,1-2.92968,13.30078h34.74609q.05786,4.27736.05859,13.53516,0,36.62109-.41015,46.93359-.58668,15.87891-2.51953,20.44922a17.23529,17.23529,0,0,1-5.80078,7.38282,18.34858,18.34858,0,0,1-7.85157,3.457Q726.9939,326.19092,709.18213,326.19238ZM721.311,291.73926l-14.76563,5.15625q-6.50391-20.03907-11.77734-31.11328l13.35937-5.15625Q713.69312,270.35254,721.311,291.73926Z" transform="translate(-0.23288 -0.27397)"/><path class="cls-3" d="M802.686,227.169q-7.44215,26.89452-7.44141,45.293a182.26166,182.26166,0,0,0,6.5625,48.92579l-16.17188,3.6914a190.48493,190.48493,0,0,1-6.32812-47.87109,214.54048,214.54048,0,0,1,6.91406-52.32422Zm75.70312,93.57421q-14.3562,1.34766-24.55078,1.34766-25.7234,0-35.09766-5.94727a18.95269,18.95269,0,0,1-9.375-16.96289q0-12.71337,12.01172-25.07812l12.94922,6.91406q-9.43432,8.78907-9.43359,17.63672,0,4.16161,4.92187,6.5918,4.92188,2.43164,20.39063,2.43164,7.85082,0,27.59765-1.69922Zm-1.28906-73.418-4.92188-.0586q-7.6765-.11718-25.48828.293-17.81324.41016-34.51172,1.582V234.84473q39.60864-1.93361,54.84375-1.9336,6.093,0,10.07813.35157Z" transform="translate(-0.23288 -0.27397)"/><path class="cls-3" d="M960.3501,315.35254a9.32684,9.32684,0,0,1-3.31055,7.38281,11.0354,11.0354,0,0,1-7.41211,2.8711H934.80322l-1.46484-13.125h10.3125q3.22192,0,3.22266-2.75391V297.12988H924.49072q-2.98827,19.57032-12.01172,29.76563l-10.83984-6.09375a55.322,55.322,0,0,0,6.73828-14.41406q2.98829-9.082,2.98828-23.78907l.0586-20.97656q-1.34839,1.40625-2.22657,2.168l-8.14453-10.19531a83.87889,83.87889,0,0,0,11.543-15.82032,71.50667,71.50667,0,0,0,7.793-17.92968l15,1.8164a32.87286,32.87286,0,0,1-2.22656,6.50391h20.80078l3.28125,2.51953a102.58437,102.58437,0,0,1-9.19922,17.63672H960.3501Zm-38.32031-67.03125h12.30468q4.39453-7.32422,5.39063-10.60547h-11.25Q925.60328,242.98927,922.02979,248.32129Zm9.02343,9.96094h-6.09375V268.126h6.09375Zm-6.09375,18.57422v10.07812h6.09375V276.85645Zm22.44141-8.73047v-9.84375h-6.38672V268.126Zm0,18.80859V276.85645h-6.38672v10.07812Zm42.77295-53.20312q-3.04687,19.63037-21.44531,28.125l-8.02686-9.49219q12.06959-6.9126,14.58936-18.63281l-11.83594-.0586V222.36426h53.26172v3.39844q0,10.54688-.64453,17.05078t-2.19727,9.11132a14.66163,14.66163,0,0,1-3.457,4.10157,14.15036,14.15036,0,0,1-4.77539,2.34375q-2.87109.8496-10.19531.84961-2.92969,0-6.5625-.11719L986.834,246.85645l9.84375-.11719a4.24519,4.24519,0,0,0,4.45313-3.48633,28.79056,28.79056,0,0,0,.87891-7.17773q0-1.11183-.0586-2.28516Zm28.00781,73.00781H1000.7793v18.98437H985.31055V306.73926H963.57227V294.1416h21.73828V283.8291H978.2207a37.96812,37.96812,0,0,1-4.57031,9.082l-12.12891-3.57422q6.21094-11.19139,8.02735-27.1289l13.24219,1.11328a67.40893,67.40893,0,0,1-1.11329,8.37891h3.63282v-9.72657h15.46875v9.72657h16.28906v12.1289H1000.7793v10.3125h17.40234Z" transform="translate(-0.23288 -0.27397)"/><path class="cls-3" d="M1067.03711,283.126a129.2344,129.2344,0,0,1-7.70508,21.85547,147.47978,147.47978,0,0,1-11.10351,21.21093l-14.41407-7.91015a111.49787,111.49787,0,0,0,11.36719-20.77149,194.54979,194.54979,0,0,0,7.38281-18.95508Zm-3.22266-19.92188-9.02343,12.36328a215.44014,215.44014,0,0,0-20.625-17.51953l8.49609-11.66015A206.73809,206.73809,0,0,1,1063.81445,263.2041Zm5.27344-26.30859-9.25781,12.36328q-9.25782-8.6704-21.09375-18.10547l9.082-11.30859Q1062.93554,231.09473,1069.08789,236.89551Zm34.98047,56.1914q-12.30469,23.90625-39.31641,33.92579l-7.32422-11.89454q15.23438-6.85546,23.4668-15.82031t10.57617-15.9375h-23.96484V270.11816H1094.166V249.25879h-23.14454V236.544H1094.166V223.24316h16.17187V236.544H1139.752v33.57421h8.37891v13.24219h-32.87109q11.48438,19.39453,33.63281,30.35156l-9.96094,12.36329a90.15059,90.15059,0,0,1-34.86328-32.98829Zm6.26953-43.82812v20.85937h13.94531V249.25879Z" transform="translate(-0.23288 -0.27397)"/><path class="cls-3" d="M1276.791,276.15332q-7.61719,26.71875-21.09375,38.55469-13.47657,11.83448-34.62891,11.83594a48.90681,48.90681,0,0,1-15.99609-2.373,31.05052,31.05052,0,0,1-11.19141-6.416,30.35675,30.35675,0,0,1-6.67969-8.81836,32.41408,32.41408,0,0,1-3.04687-10.13672,140.88068,140.88068,0,0,1-.70313-16.61132q0-12.3047,2.51953-57.65625h17.51953q-2.40234,40.48827-2.40234,56.30859,0,12.89063.67383,16.34766a16.54622,16.54622,0,0,0,3.01758,6.65039,14.793,14.793,0,0,0,6.76758,4.92187,29.798,29.798,0,0,0,10.81054,1.72852q14.17969,0,23.67188-9.668t15.05859-30.58594Z" transform="translate(-0.23288 -0.27397)"/><path class="cls-3" d="M1406.27148,308.49707,1397.541,323.2627a126.46382,126.46382,0,0,0-30.87891-17.75391l.58594,2.51953a14.337,14.337,0,0,1,.46875,3.457q-.0586,7.1499-8.11524,10.86914-8.05664,3.72071-22.29492,3.72071-12.53906,0-21.47461-5.50782-8.93555-5.50635-8.93555-15.11718a18.33654,18.33654,0,0,1,8.20313-15.73243q8.20313-5.83008,20.03906-5.83007a87.72911,87.72911,0,0,1,14.88281,1.11328v-9.72657h-40.957V261.3877h40.957V249.96191H1305.8418V236.0166h44.17968V223.30176h16.75782V236.0166h41.42578v13.94531H1366.7793V261.3877h35.27343v13.88671H1366.7793v14.0625A219.0258,219.0258,0,0,1,1406.27148,308.49707Zm-56.25-2.34375v-7.08984a55.089,55.089,0,0,0-12.42187-1.99219,22.92194,22.92194,0,0,0-10.166,2.08008q-4.248,2.08008-4.248,5.83008,0,6.79833,14.58984,6.79687Q1350.02148,311.77832,1350.02148,306.15332Z" transform="translate(-0.23288 -0.27397)"/><path class="cls-3" d="M1542.49023,246.44629h-34.80468v22.14844q3.33984,6.5625,3.33984,17.98828,0,17.8125-12.50977,28.623-12.51123,10.81056-33.42773,12.15821l-4.10156-14.17969q25.78125-1.99072,32.51953-18.457a25.26878,25.26878,0,0,1-15.23438,4.80469q-10.2539,0-17.19726-6.18164a20.263,20.263,0,0,1-6.94336-15.84961q0-10.83986,7.35352-17.8125,7.352-6.97266,18.48632-6.97266a28.87578,28.87578,0,0,1,10.42969,1.93359v-8.20312h-57.36328V232.501h57.36328V220.78223h17.28516V232.501h34.80468Zm-51.85546,26.66016-.11719-3.28125q-2.87109-4.043-10.42969-4.043a9.70848,9.70848,0,0,0-7.11914,3.31054,10.24279,10.24279,0,0,0-3.19336,7.23633,9.525,9.525,0,0,0,2.373,6.6211,7.86032,7.86032,0,0,0,6.123,2.63671,12.04184,12.04184,0,0,0,8.99414-3.42773A12.35647,12.35647,0,0,0,1490.63477,273.10645Z" transform="translate(-0.23288 -0.27397)"/><path class="cls-3" d="M1610.44727,231.97363l-2.34375,62.63672h-16.46485l-2.40234-62.63672Zm-.46875,88.30078h-20.27344V305.04h20.27344Zm41.36718-88.30078-2.34375,62.63672h-16.46484l-2.40234-62.63672Zm-.46875,88.30078h-20.27343V305.04H1650.877Z" transform="translate(-0.23288 -0.27397)"/></g></g></g></svg>