<svg id="レイヤー_1" data-name="レイヤー 1" xmlns="http://www.w3.org/2000/svg" viewBox="0 0 1920 309"><defs><style>.cls-1{fill:#ffd200;}.cls-2{isolation:isolate;}.cls-3{fill:#f15b55;}.cls-4{fill:#464646;}</style></defs><rect id="長方形_161" data-name="長方形 161" class="cls-1" width="1920" height="194"/><g id="_ステップでスムーズに始めましょう_" data-name=" ステップでスムーズに始めましょう " class="cls-2"><g class="cls-2"><path class="cls-3" d="M259.94238,122.27979V109.79932h1.40625q10.06275,5.75683,18.85254,5.75683,6.94337,0,10.85449-2.8789,3.91115-2.877,3.91114-8.415a8.1289,8.1289,0,0,0-3.0542-6.79q-3.05493-2.39357-12.63428-2.39453h-3.86719V85.10205h3.64746q14.76563,0,14.76563-9.00879a6.33,6.33,0,0,0-3.16406-5.73437q-3.16407-1.95557-9.00879-1.95606-7.86694,0-18.457,5.625H261.876V61.6792a61.24147,61.24147,0,0,1,21.48925-4.17481q12.21681,0,18.479,4.48243A13.95711,13.95711,0,0,1,308.10645,73.896a14.64833,14.64833,0,0,1-3.47168,9.68945A16.87486,16.87486,0,0,1,295.3623,89.145v.61523a18.80524,18.80524,0,0,1,10.50293,5.16309,14.10713,14.10713,0,0,1,3.86719,10.26172,18.6772,18.6772,0,0,1-7.38281,15.46875q-7.38282,5.80079-19.99512,5.80078A58.59333,58.59333,0,0,1,259.94238,122.27979Z" transform="translate(0.09677 -0.04839)"/><path class="cls-3" d="M418.01367,120.56592l-9.88769,9.44824q-7.77833-8.48145-30.0586-27.6416-19.51172,18.85254-41.13281,27.90527l-6.416-10.37109A122.71043,122.71043,0,0,0,363.23584,98.7251q15.92945-14.01856,23.53271-30.76172l-44.5166-.04395V56.40576h57.74414l3.60352,3.47168a84.73661,84.73661,0,0,1-7.18506,18.34668,109.5206,109.5206,0,0,1-10.17334,14.78809Q405.22559,108.437,418.01367,120.56592Z" transform="translate(0.09677 -0.04839)"/><path class="cls-3" d="M505.86035,90.68311h-32.124v1.3623q0,15.4248-9.82178,25.13672t-27.61963,13.00781l-3.95508-10.89844q13.44727-2.8125,20.67627-9.6455a22.42386,22.42386,0,0,0,7.229-16.98536V90.68311H423.8584V79.34521h82.00195Zm-5.40527-22.85157h-71.2793v-11.25h71.2793Z" transform="translate(0.09677 -0.04839)"/><path class="cls-3" d="M540.48926,98.769,529.415,102.28467A150.01045,150.01045,0,0,0,517.72559,73.4126l10.01953-3.86719q2.54809,4.79,4.94384,9.86621Q535.084,84.48584,540.48926,98.769ZM584.874,69.062q-2.417,27.64161-15.75439,42.6709-13.33814,15.0293-38.86963,18.36914l-2.98828-9.18457q22.28027-3.16406,33.31055-15.79883,11.03026-12.6328,13.05175-37.19922ZM561.1875,94.4624l-10.94238,3.7793a152.28009,152.28009,0,0,0-11.82129-29.0918l9.88769-3.86719q4.17482,7.51466,5.84473,11.294T561.1875,94.4624Z" transform="translate(0.09677 -0.04839)"/><path class="cls-3" d="M671.27051,64.75537v.08789A132.46391,132.46391,0,0,1,669.60059,78.312a68.09086,68.09086,0,0,1-7.88819,22.30274q-6.219,11.38184-19.86328,18.94043-13.645,7.55859-36.10107,9.93164l-3.51563-11.64551q18.457-1.88965,30.84961-8.416,12.39258-6.52441,17.57813-16.17187,5.18481-9.64454,6.59179-25.07031l-55.54687-.0879V56.75732l65.1709.08789A11.1803,11.1803,0,0,0,671.27051,64.75537Zm18.28125-9.14062a8.88434,8.88434,0,0,1-2.8125,6.74609,10.74494,10.74494,0,0,1-14.15039,0,9.49688,9.49688,0,0,1,0-13.49219,10.74494,10.74494,0,0,1,14.15039,0A8.88584,8.88584,0,0,1,689.55176,55.61475Zm-5.91065-3.95508a5.6768,5.6768,0,0,0-7.9541,0,5.67813,5.67813,0,0,0,0,7.91015,5.6768,5.6768,0,0,0,7.9541,0,5.6781,5.6781,0,0,0,0-7.91015Z" transform="translate(0.09677 -0.04839)"/></g><g class="cls-2"><path class="cls-4" d="M748.17969,121.54248l-.47852,9.22852q-3.72582.10254-4.95605.10254-12.61232,0-19.65332-3.53809-7.04151-3.53613-10.083-8.54492a21.50583,21.50583,0,0,1-3.042-11.39844q0-12.50976,12.33886-23.03711l-30.38574.30762v-8.75H752.8623V84.731H737.17383a33.559,33.559,0,0,0-12.20215,9.60449,20.22184,20.22184,0,0,0-4.78516,12.64648q0,14.76563,22.45606,14.76563Q745.23974,121.74756,748.17969,121.54248Zm-3.042-22.66113-5.0586,1.87988q-1.40185-3.55371-4.61426-10.49316l4.85352-1.91407A110.272,110.272,0,0,1,745.1377,98.88135Zm9.74121-1.98242L749.957,98.71045q-2.39282-5.94726-4.68262-10.49316l4.68262-1.74317Q752.75929,91.84132,754.87891,96.89893Z" transform="translate(0.09677 -0.04839)"/></g><g class="cls-2"><path class="cls-3" d="M848.01367,120.56592l-9.88769,9.44824q-7.77832-8.48145-30.0586-27.6416-19.51171,18.85254-41.13281,27.90527l-6.416-10.37109A122.71043,122.71043,0,0,0,793.23584,98.7251q15.92944-14.01856,23.53271-30.76172l-44.5166-.04395V56.40576h57.74414l3.60352,3.47168a84.73661,84.73661,0,0,1-7.18506,18.34668,109.5206,109.5206,0,0,1-10.17334,14.78809Q835.22559,108.437,848.01367,120.56592Z" transform="translate(0.09677 -0.04839)"/><path class="cls-3" d="M921.18262,122.49951q-23.335,3.33984-66.31348,5.88867l-1.97754-12.26074q4.13013,0,10.01953-.21973,5.31666-11.42577,11.79932-29.31152,6.48194-17.88575,11.0083-33.35449L899.21,55.395a453.47431,453.47431,0,0,1-22.28027,59.80957q25.708-1.582,38.584-3.38379-2.32983-4.35059-16.21582-25.752l10.89844-5.58106a190.923,190.923,0,0,1,15.0293,21.90625q7.82152,13.03125,12.876,23.665L924.874,130.62939Q923.02832,126.27881,921.18262,122.49951Z" transform="translate(0.09677 -0.04839)"/><path class="cls-3" d="M1025.46484,97.67041H944.7373V85.981h80.72754Z" transform="translate(0.09677 -0.04839)"/><path class="cls-3" d="M1114.67383,120.21436l-10.06348,9.53613q-7.91016-8.92091-29.0039-27.20215-19.6875,19.33593-39.68262,27.6416l-5.75684-10.81055q16.34766-7.07519,31.75-21.18164,15.40284-14.10644,22.34668-30.01464h-44.12109V56.66943h56.16211l3.252,6.72364a62.88216,62.88216,0,0,1-5.66894,14.43652,104.9661,104.9661,0,0,1-10.15137,15.3584Q1102.41309,108.481,1114.67383,120.21436Zm-7.11914-59.76563-6.1084,2.417q-3.51709-8.74512-6.02051-13.49121l5.93262-2.417A135.51372,135.51372,0,0,1,1107.55469,60.44873Zm11.90918-1.45019-6.02051,2.24121q-2.90039-7.207-6.06445-13.49121l5.75683-2.15333Q1116.7378,52.49463,1119.46387,58.99854Z" transform="translate(0.09677 -0.04839)"/></g><g class="cls-2"><path class="cls-4" d="M1140.001,73.17822q-4.3418,15.68849-4.34082,26.4209a106.30267,106.30267,0,0,0,3.82812,28.54l-9.43359,2.15332a111.11224,111.11224,0,0,1-3.69141-27.9248,125.13344,125.13344,0,0,1,4.0332-30.52247Zm44.16015,54.585q-8.37451.78516-14.32129.78614-15.00585,0-20.47363-3.46973a11.0537,11.0537,0,0,1-5.46875-9.89453q0-7.41651,7.00684-14.62891l7.55371,4.03321q-5.50343,5.12694-5.50293,10.28808,0,2.42725,2.87109,3.84473,2.87109,1.41943,11.89453,1.41894,4.57911,0,16.09864-.99121Zm-.75195-42.82714-2.87109-.03418q-4.478-.06739-14.86817.17089-10.3916.24024-20.13183.92286V77.65576q23.105-1.12793,31.99218-1.12793,3.55371,0,5.87891.20508Z" transform="translate(0.09677 -0.04839)"/><path class="cls-4" d="M1218.61426,87.94385q0,15.48339-5.57129,26.14746a44.01341,44.01341,0,0,1,5.50293,4.30664l-5.40039,7.00684a53.44339,53.44339,0,0,0-4.85352-4.23829,47.42533,47.42533,0,0,1-13.43261,10.66407l-3.89649-6.22071a43.11664,43.11664,0,0,0,11.00586-9.16015q-3.999-2.80225-7.58789-4.99024a2.09247,2.09247,0,0,1-1.02539-1.87988,4.26108,4.26108,0,0,1,.10254-.88867q1.36669-5.67334,3.55469-19.6875H1192.501V82.06494h5.57129q1.26416-8.71583,1.57226-12.71484l9.16016.41015q-.17139,3.00879-1.74317,12.30469h11.55274Zm-12.33887,21.7041q3.86133-8.06542,3.86231-20.64453h-4.27247q-2.35839,12.98877-3.72558,17.91015Q1203.335,107.76905,1206.27539,109.648Zm42.417-14.834q-13.87792,1.98341-28.98437,2.666l-.82031-8.06641q2.52831-.03369,5.127-.10253a99.874,99.874,0,0,0,6.42578-20.2002L1240.25,71.0249a127.35638,127.35638,0,0,1-7.24609,17.876q7.55273-.44385,12.40722-.92285-2.73486-5.5708-4.751-8.98926l7.75879-3.21289q3.55371,5.127,10.69824,20.50781l-8.44239,2.8711Zm-2.80273,33.39356H1229.6543v2.22168h-8.95508V101.68408h34.248V130.4292h-9.05762ZM1229.6543,121.269h16.23535v-12.4414H1229.6543Z" transform="translate(0.09677 -0.04839)"/><path class="cls-4" d="M1295.96289,117.1333l-6.665,5.53711-1.6748-2.085q-7.5205,6.83643-13.9795,6.83594a10.34385,10.34385,0,0,1-8.15234-3.65723,13.12711,13.12711,0,0,1-3.19531-8.95508q0-12.95361,10.5957-21.94336a122.57614,122.57614,0,0,1-3.82812-15.34668l9.33105-2.39258a118.33989,118.33989,0,0,0,2.56348,12.50977,45.91178,45.91178,0,0,1,13.87695-4.40918q.27246-4.47656.27344-11.92871l10.15137.06836a113.51713,113.51713,0,0,1-.5127,11.416q10.18506.82032,16.55957,7.0752a21.361,21.361,0,0,1,6.375,15.92773q0,10.938-7.89551,17.53418t-24.40429,8.03223l-2.01661-7.998q13.5-1.77685,18.833-6.13574a14.33509,14.33509,0,0,0,5.332-11.70605,13.99923,13.99923,0,0,0-3.87988-10.13379,15.60038,15.60038,0,0,0-10.168-4.59766q-2.93994,13.7754-9.87793,23.17383Q1294.835,115.66407,1295.96289,117.1333Zm-13.2959-3.45215a102.9218,102.9218,0,0,1-6.18652-12.47558,20.39708,20.39708,0,0,0-4.8877,13.60351,4.32464,4.32464,0,0,0,.8545,2.63184,2.576,2.576,0,0,0,2.15332,1.16211Q1278.08691,118.603,1282.667,113.68115Zm.71778-18.21777a78.50412,78.50412,0,0,0,4.88769,10.39062,45.7491,45.7491,0,0,0,5.53711-14.35546A33.46809,33.46809,0,0,0,1283.38477,95.46338Z" transform="translate(0.09677 -0.04839)"/><path class="cls-4" d="M1394.09277,120.61963,1389,129.23291a73.77844,73.77844,0,0,0-18.0127-10.35645l.3418,1.46973a8.39429,8.39429,0,0,1,.27344,2.0166q-.03516,4.17042-4.73438,6.33985-4.69922,2.17089-13.00488,2.1709a23.41451,23.41451,0,0,1-12.52734-3.2129q-5.21191-3.2124-5.21192-8.81835a10.69412,10.69412,0,0,1,4.78516-9.17676,19.65179,19.65179,0,0,1,11.68945-3.40137,51.15423,51.15423,0,0,1,8.68164.64941v-5.67382h-23.8916V93.13916h23.8916v-6.665h-25.77148V78.33936h25.77148v-7.417h9.77539v7.417h24.165v8.13476h-24.165v6.665h20.57618v8.10059h-20.57618v8.20312A127.86555,127.86555,0,0,1,1394.09277,120.61963Zm-32.8125-1.36719V115.1167a32.12485,32.12485,0,0,0-7.24609-1.16211,13.38524,13.38524,0,0,0-5.93066,1.21289q-2.47852,1.21436-2.47754,3.40137,0,3.96533,8.51074,3.96484Q1361.2793,122.53369,1361.28027,119.25244Z" transform="translate(0.09677 -0.04839)"/><path class="cls-4" d="M1465.5625,101.75244q-4.44434,15.58594-12.30469,22.49024-7.86182,6.9038-20.20019,6.90429a28.5555,28.5555,0,0,1-9.33106-1.38379,18.12212,18.12212,0,0,1-6.52832-3.74316,17.698,17.698,0,0,1-3.89648-5.14356,18.89163,18.89163,0,0,1-1.77735-5.91406,82.16157,82.16157,0,0,1-.41015-9.68945q0-7.17774,1.46972-33.63281h10.21973q-1.40185,23.61914-1.40137,32.84668a67.63284,67.63284,0,0,0,.39258,9.53613,9.63559,9.63559,0,0,0,1.76074,3.87891,8.61407,8.61407,0,0,0,3.94727,2.87109,17.36929,17.36929,0,0,0,6.30664,1.00879,18.56475,18.56475,0,0,0,13.80859-5.63965q5.53711-5.63965,8.78418-17.8418Z" transform="translate(0.09677 -0.04839)"/><path class="cls-4" d="M1529.957,122.80713l-5.02441,6.93848q-9.43361-7.55274-16.98731-10.835,0,6.52881-3.042,9.502-3.04248,2.97363-10.083,2.97363-7.96436,0-12.49316-2.83691a9.19757,9.19757,0,0,1-4.52832-8.30567,9.62979,9.62979,0,0,1,4.93847-8.54492,22.23939,22.23939,0,0,1,12.083-3.11035,38.46,38.46,0,0,1,4.5459.27344V78.51025h8.75V89.48193h19.61914v7.14356h-19.61914v14.21875Q1518.64258,114.26319,1529.957,122.80713Zm-30.4541-6.7334a24.25067,24.25067,0,0,0-4.68262-.47852,16.19413,16.19413,0,0,0-6.30664,1.12793q-2.68359,1.12794-2.68262,3.17872a3.368,3.368,0,0,0,2.25586,3.09375,12.62937,12.62937,0,0,0,5.46875,1.07617q3.65625,0,4.80176-1.09375a4.18854,4.18854,0,0,0,1.14551-3.17871Z" transform="translate(0.09677 -0.04839)"/><path class="cls-4" d="M1557.6084,131.01025l-1.74317-8.54492q17.05518-.75145,26.09571-5.67383,9.041-4.92187,9.041-13.80859a7.03386,7.03386,0,0,0-2.87109-6.01562,12.60879,12.60879,0,0,0-7.65625-2.11915q-3.28125,0-7.127.3418-3.84522.34278-6.78418.78613-2.93994.44532-18.833,3.31543l-.82031-8.81836,14.25293-2.1875q6.21972-.95654,11.05664-1.35058,4.83692-.39111,8.52832-.39258,9.46728,0,14.9707,4.25586,5.502,4.25391,5.50293,12.18457,0,13.05762-11.43359,20.166Q1578.355,130.25781,1557.6084,131.01025Zm36.94824-55.67871-2.15332,8.68164a122.3355,122.3355,0,0,0-17.68848-2.42675q-11.43311-.92286-19.39648-.92286-2.01709,0-3.79395.06836l.06836-8.54492q10.8003,0,20.2168.64942Q1581.22558,73.48682,1594.55664,75.33154Z" transform="translate(0.09677 -0.04839)"/><path class="cls-4" d="M1639.19531,75.981l-1.36719,36.53808h-9.60449L1626.82227,75.981Zm-.27343,51.50879H1627.0957V118.603h11.82618ZM1663.05273,75.981l-1.36718,36.53808h-9.6045L1650.67969,75.981Zm-.27343,51.50879h-11.82618V118.603h11.82618Z" transform="translate(0.09677 -0.04839)"/></g></g><path id="多角形_5" data-name="多角形 5" class="cls-1" d="M959.90323,309.04839l-362-144h724Z" transform="translate(0.09677 -0.04839)"/></svg>