<svg id="レイヤー_3" data-name="レイヤー 3" xmlns="http://www.w3.org/2000/svg" xmlns:xlink="http://www.w3.org/1999/xlink" viewBox="0 0 1887 450"><defs><style>.cls-1{fill:none;}.cls-2{fill:#fff;}.cls-3{fill:#f15b55;}.cls-4{isolation:isolate;}.cls-5{fill:#464646;}.cls-6{fill:#c1cad1;}.cls-10,.cls-11,.cls-12,.cls-13,.cls-14,.cls-15,.cls-16,.cls-17,.cls-18,.cls-19,.cls-20,.cls-21,.cls-22,.cls-23,.cls-24,.cls-25,.cls-26,.cls-27,.cls-28,.cls-29,.cls-30,.cls-6,.cls-7,.cls-8,.cls-9{fill-rule:evenodd;}.cls-7{fill:#f1b287;}.cls-8{fill:#111214;}.cls-10{fill:#001624;}.cls-11{fill:#00101a;}.cls-12{fill:#001e30;}.cls-13{fill:#cee6f5;}.cls-14{fill:#9dbacc;}.cls-15{fill:#00263d;}.cls-16{fill:#002b45;}.cls-17{fill:#003454;}.cls-18{fill:#e8a476;}.cls-19{fill:#db9669;}.cls-20{fill:#241304;}.cls-21{fill:#361d07;}.cls-22{fill:#4a2b12;}.cls-23{fill:#041e2e;}.cls-24{fill:#02121c;}.cls-25{fill:#e8f6ff;}.cls-26{fill:#1a0101;}.cls-27{fill:#240101;}.cls-28{fill:#e6e6e6;}.cls-29{fill:#380303;}.cls-30{fill:#d6e5eb;}.cls-31{fill:#292f33;}.cls-32{fill:#55acee;}.cls-33{clip-path:url(#clip-path);}.cls-34{fill:#ccd6dd;}.cls-35{clip-path:url(#clip-path-2);}.cls-36{fill:#9aaab4;}.cls-37{fill:#5dadec;}.cls-38{fill:#aebbc1;}.cls-39{fill:#dd2e44;}</style><clipPath id="clip-path" transform="translate(0 1)"><rect class="cls-1" x="1619.29473" y="94.47893" width="42.158" height="42.162"/></clipPath><clipPath id="clip-path-2" transform="translate(0 1)"><path class="cls-1" d="M1623.98177,126.20393c-1.30005,0-1.95508,1.175-2.346,2.35107l-2.33911,5.73194a2.34489,2.34489,0,0,0,2.33594,2.354h37.48511a2.342,2.342,0,0,0,2.335-2.34888v-.00512l-2.335-5.73194c-.491-1.127-1.052-2.35107-2.34693-2.35107Z"/></clipPath></defs><rect class="cls-2" width="1887" height="450"/><g id="グループ_156" data-name="グループ 156"><g id="グループ_150" data-name="グループ 150"><ellipse id="楕円形_4" data-name="楕円形 4" class="cls-3" cx="441.07172" cy="69.85889" rx="163" ry="69.5"/><g id="CASE.03" class="cls-4"><g class="cls-4"><path class="cls-2" d="M363.59521,80.9917a34.191,34.191,0,0,1-7.07812,2.55469,26.25813,26.25813,0,0,1-5.0625.51562q-8.10937,0-12.77344-4.82812t-4.66406-13.47657q0-8.48438,4.72266-13.4414t12.73828-4.957a26.63225,26.63225,0,0,1,12.11718,2.97656v7.24219h-.82031q-5.50781-4.6875-10.42969-4.6875a9.10587,9.10587,0,0,0-7.45312,3.36328q-2.74219,3.36328-2.74219,9.52734,0,6.11719,2.78906,9.4336a9.2443,9.2443,0,0,0,7.45313,3.3164,13.65125,13.65125,0,0,0,4.75781-.85547,19.97919,19.97919,0,0,0,5.69531-3.80859h.75Z" transform="translate(0 1)"/><path class="cls-2" d="M400.29834,83.35889h-8.17969l-2.67187-7.66407H375.54834l-2.67188,7.66407h-7.82812l13.33594-35.32032h8.57812ZM387.50146,70.21045l-4.99218-14.25-4.99219,14.25Z" transform="translate(0 1)"/><path class="cls-2" d="M402.478,81.24951V73.773h.79687a20.84965,20.84965,0,0,0,6.03516,3.42187,18.80243,18.80243,0,0,0,6.55078,1.26563,10.28842,10.28842,0,0,0,5.25-1.17188,3.61874,3.61874,0,0,0,1.99219-3.25781,3.50822,3.50822,0,0,0-.94922-2.57812,7.71,7.71,0,0,0-3.59766-1.59375q-1.89843-.35157-6.48047-1.38282a13.18936,13.18936,0,0,1-6.98437-3.62109,9.83822,9.83822,0,0,1,1.69922-14.4375,17.3691,17.3691,0,0,1,10.54687-3.01172,31.86423,31.86423,0,0,1,12.32813,2.39063v7.14843h-.77344a17.44822,17.44822,0,0,0-11.29688-3.98437,9.89356,9.89356,0,0,0-4.98046,1.125,3.42448,3.42448,0,0,0-1.957,3.07031A3.35774,3.35774,0,0,0,411.771,59.8042a8.98113,8.98113,0,0,0,3.80859,1.61719q2.69531.49218,6.01172,1.30078a17.77766,17.77766,0,0,1,4.94531,1.8164A10.41834,10.41834,0,0,1,429.13818,66.73a8.14614,8.14614,0,0,1,1.45313,2.63672,10.18285,10.18285,0,0,1,.48047,3.21094,9.86031,9.86031,0,0,1-4.207,8.29687q-4.207,3.14063-11.14454,3.14063A33.49449,33.49449,0,0,1,402.478,81.24951Z" transform="translate(0 1)"/><path class="cls-2" d="M461.42334,83.35889H436.814V48.03857h24.60938V53.898H444.50146v7.54687H460.228v5.83594H444.50146V77.49951h16.92188Z" transform="translate(0 1)"/><path class="cls-2" d="M476.30615,83.35889H468.314V74.82764h7.99219Z" transform="translate(0 1)"/><path class="cls-2" d="M496.88428,84.10889q-7.19532,0-10.5586-4.3711T482.9624,65.71045q0-9.5625,3.375-13.96875t10.54688-4.40625q7.17188,0,10.54687,4.39453t3.375,13.957q0,9.72657-3.35156,14.07422T496.88428,84.10889Zm0-31.3125a4.83686,4.83686,0,0,0-4.69922,3.082q-1.418,3.082-1.418,9.85547,0,6.75,1.45312,9.84375a5.048,5.048,0,0,0,9.32813-.04688q1.45313-3.14062,1.45312-9.84375,0-6.75-1.418-9.82031A4.83742,4.83742,0,0,0,496.88428,52.79639Z" transform="translate(0 1)"/><path class="cls-2" d="M516.05615,81.88232V75.22607h.75a20.42026,20.42026,0,0,0,10.05469,3.07032,9.5991,9.5991,0,0,0,5.78906-1.53516,5.22416,5.22416,0,0,0,2.08594-4.48828,4.33423,4.33423,0,0,0-1.62891-3.62109q-1.6289-1.27735-6.73828-1.27735h-2.0625V62.0542h1.94531q7.875,0,7.875-4.80469a3.3764,3.3764,0,0,0-1.6875-3.05859,9.17829,9.17829,0,0,0-4.80468-1.043q-4.19532,0-9.84375,3h-.70313V49.562a32.6622,32.6622,0,0,1,11.46094-2.22656q6.51563,0,9.85547,2.39062a7.4438,7.4438,0,0,1,3.33984,6.35157,7.81277,7.81277,0,0,1-1.85156,5.168,9.00257,9.00257,0,0,1-4.94531,2.96484v.32812a10.02557,10.02557,0,0,1,5.60156,2.75391,7.52128,7.52128,0,0,1,2.0625,5.47266,9.96116,9.96116,0,0,1-3.9375,8.25q-3.9375,3.09375-10.66406,3.09375A31.25156,31.25156,0,0,1,516.05615,81.88232Z" transform="translate(0 1)"/></g></g></g><g id="未経験だし機械音痴だから_成果が出るかとても不安だわ" data-name="未経験だし機械音痴だから 成果が出るかとても不安だわ" class="cls-4"><g class="cls-4"><path class="cls-5" d="M623.82373,205.83447a47.79051,47.79051,0,0,1-8.11523,7.33936,74.92077,74.92077,0,0,1-13.1836,7.77734l-4.043-6.59179a80.51682,80.51682,0,0,0,12.27539-7.45557,64.14181,64.14181,0,0,0,8.67188-8.12988H601.11865v-6.97266h22.64649v-6.709H604.898v-6.97266h18.86719v-8.08594h8.26172v8.08594H651.48v6.97266H632.02686v6.709h23.11523v6.97266H635.65967a57.28792,57.28792,0,0,0,9.68262,8.18847,64.232,64.232,0,0,0,12.14355,6.69385l-5.127,7.00195a66.15924,66.15924,0,0,1-12.05567-7.61718,50.95062,50.95062,0,0,1-8.335-7.88038v17.78272h-8.14453Z" transform="translate(0 1)"/><path class="cls-5" d="M668.09131,202.37744a82.17307,82.17307,0,0,1-1.43555,9.44873,47.85383,47.85383,0,0,1-2.10937,7.80664l-5.39063-1.25976a87.27361,87.27361,0,0,0,2.92969-16.37647Zm8.52539,20.68311h-7.26563v-22.939q-6.03588.55665-8.93554.67383l-.67383-6.06445q1.582,0,4.42383-.08789,2.10938-2.63673,3.6914-4.77539-3.28125-3.69141-8.34961-8.877l4.27735-4.59961,1.02539,1.02539a57.20126,57.20126,0,0,0,4.834-8.584l6.53321,2.40234a84.63583,84.63583,0,0,1-7.14844,10.54688l2.57812,2.7832a73.9909,73.9909,0,0,0,5.71289-9.43359l6.35743,2.8125a183.1046,183.1046,0,0,1-11.83594,16.34765l6.15234-.41015q-.9082-3.69141-1.25976-4.7168l5.332-1.25976q1.31835,4.27734,3.19336,11.86523l-5.77149.9668a12.46345,12.46345,0,0,0-.293-1.72852q-.99609.14649-2.57812.35156Zm8.4668-9.11133-5.77149.82031a106.38075,106.38075,0,0,1-1.78711-11.98193l5.625-.84961Zm31.377,7.38281H683.99951v-6.47461h12.59766v-6.79687H686.519V201.8208h10.07813v-4.92187h7.793v4.92187h9.55078v6.23975h-9.55078v6.79687h12.07031Zm-1.084-48.19287q-1.46557,8.70117-8.87695,15.82031a43.46089,43.46089,0,0,0,10.42969,3.57422l-3.83789,6.47461a44.40185,44.40185,0,0,1-12.68555-5.12695,44.1164,44.1164,0,0,1-13.71094,5.18554l-2.63671-5.94726a44.004,44.004,0,0,0,10.57617-3.75q-5.83008-5.71288-7.35352-11.60156h-2.7539v-6.00586h29.47265ZM700.23,185.356a19.38215,19.38215,0,0,0,5.5957-7.58789H694.4585A25.48755,25.48755,0,0,0,700.23,185.356Z" transform="translate(0 1)"/><path class="cls-5" d="M725.04443,205.42432a82.76523,82.76523,0,0,1-.62988,8.45263,45.48421,45.48421,0,0,1-1.3623,7.86524l-3.7793-1.84571a35.90048,35.90048,0,0,0,1.333-6.82617,77.41421,77.41421,0,0,0,.65918-7.88037Zm34.95118,5.85888a24.47527,24.47527,0,0,1-15.17579,11.36719l-1.96289-4.80469q-1.31835,5.03907-6.67968,5.03907h-4.95118l-.67382-5.59571h4.248a2.56412,2.56412,0,0,0,2.24121-1.11328,5.73081,5.73081,0,0,0,.87891-3.00195q.10254-1.88966.30762-10.562H728.1499v.96679h-6.123l-.0586-32.05078h22.207v5.15625h-6.18164v3.72071h5.03906v3.80859a33.229,33.229,0,0,0,12.77344-14.17969H763.189a26.97611,26.97611,0,0,0,6.54786,7.9834,38.61409,38.61409,0,0,0,8.335,5.63965l-3.54492,6.09375q-2.98829-1.81641-5.6836-3.83789v2.168h-5.71289v3.31054h10.54688v16.31836h-7.85157a25.516,25.516,0,0,0,11.66016,8.70069l-3.92578,6.29882a28.12371,28.12371,0,0,1-7.73438-4.87695A29.57706,29.57706,0,0,1,759.99561,211.2832Zm-30.17579,5.53711-2.7539.46875-.64453-12.09912,2.63672-.43945Zm2.22657-40.13623h-3.42774v3.72071h3.42774Zm-3.42774,8.40821v3.89648h3.42774v-3.89648Zm0,8.52539V197.397h3.42774v-3.77929Zm5.6543,20.97607-2.40234.61523-1.31836-10.69287,2.28515-.52734Zm3.36914-3.51563-1.99219.9375-1.43554-8.08544,2.05078-.55664Zm5.47852,5.50782a20.11775,20.11775,0,0,0,10.957-8.87647H745.9624V191.39111h10.07813v-3.31054h-5.15625v-1.72852a69.81131,69.81131,0,0,1-5.85938,4.01367l-3.25195-5.27343h-3.7793v3.89648h5.03906v4.62891h-5.03906V197.397h6.00586Q743.99951,211.86963,743.12061,216.58594ZM756.04053,196.313H752.5249v6.24023h3.51563Zm-1.23047-13.56445h10.22461a36.28437,36.28437,0,0,1-5.332-6.06446A28.34125,28.34125,0,0,1,754.81006,182.74854Zm12.1582,19.80468V196.313h-3.83789v6.24023Z" transform="translate(0 1)"/><path class="cls-5" d="M801.21631,170.38525q.08788,1.084.08789,3.75,0,1.99219-.11719,3.89649h19.36524V185.063H800.396a83.069,83.069,0,0,1-4.86329,20.97656q-4.043,11.24927-8.93554,17.54834l-6.79688-4.01367a64.49813,64.49813,0,0,0,7.85157-15.92236A86.67133,86.67133,0,0,0,792.105,185.063H781.85107v-7.03125h10.752q.23438-4.71679.23437-7.64649Zm33.31055,50.39014a89.70272,89.70272,0,0,1-13.88672.9668,71.7019,71.7019,0,0,1-10.59082-.6875,12.85118,12.85118,0,0,1-7.16309-3.17969,7.876,7.876,0,0,1-2.60742-5.88867q0-4.51172,4.80469-9.31592l6.24023,2.92969q-2.90039,3.54492-2.90039,5.6831a1.93267,1.93267,0,0,0,1.05469,1.69922,11.88691,11.88691,0,0,0,4.248,1.01172,64.08,64.08,0,0,0,7.23633.36524,75.55188,75.55188,0,0,0,13.1543-1.14258Zm-1.55274-32.57764-.41016,6.97266q-1.66992-.08789-3.48632-.08789-9.93165,0-24.60938,1.34766l-.52734-6.97266a221.34141,221.34141,0,0,1,24.40429-1.34766Q831.15771,188.10986,832.97412,188.19775Zm-6.00586-9.69726-4.30664,1.61133q-2.43237-6.03516-3.98437-8.99414l4.16015-1.61133A90.341,90.341,0,0,1,826.96826,178.50049Zm8.34961-1.52344-4.21875,1.55274q-2.05078-5.09766-4.01367-8.99415l4.01367-1.49414Q833.50074,172.64112,835.31787,176.97705Z" transform="translate(0 1)"/><path class="cls-5" d="M894.35059,197.63135q-3.80861,13.35938-10.54688,19.27685-6.73829,5.918-17.31445,5.918a24.45446,24.45446,0,0,1-7.998-1.18555,15.52649,15.52649,0,0,1-5.5957-3.209,15.18132,15.18132,0,0,1-3.33985-4.4082,16.20694,16.20694,0,0,1-1.52343-5.06836,70.45439,70.45439,0,0,1-.35157-8.30615q0-6.15235,1.25977-28.82813h8.75977q-1.20119,20.24414-1.20118,28.1543a57.89713,57.89713,0,0,0,.33692,8.17334,8.27978,8.27978,0,0,0,1.50879,3.32617,7.40344,7.40344,0,0,0,3.38379,2.46094,14.90036,14.90036,0,0,0,5.40527.86328,15.91181,15.91181,0,0,0,11.83594-4.834q4.74609-4.83324,7.52929-15.29248Z" transform="translate(0 1)"/><path class="cls-5" d="M905.74707,204.13525a46.32643,46.32643,0,0,1-3.7207,6.50342l-3.42774-4.13037a48.77034,48.77034,0,0,0,4.21875-8.65723,57.78351,57.78351,0,0,0,2.92969-9.8291v-1.61133h-5.56641v-5.332h5.56641V169.77h6.416v11.30859h3.36914v5.332h-3.33985v4.42383a18.86355,18.86355,0,0,0,4.30664,4.62891l-1.64062,5.94726a22.801,22.801,0,0,1-2.666-3.25195l.0293,24.90186h-6.47461Zm23.291-.58593a26.06844,26.06844,0,0,1-.61524,3.31054,41.21393,41.21393,0,0,0,6.24024,5.00928l-3.54493,5.39063a47.15192,47.15192,0,0,1-4.80468-4.33594,26.19269,26.19269,0,0,1-8.02735,10.37109l-4.13086-4.248q6.35742-5.65431,7.73438-15.46827h-4.86328v-5.5957h16.49414a117.44875,117.44875,0,0,1-.791-15.52734q0-1.72852.0293-3.60352v-8.99414h6.416l.0586,19.77539a73.88454,73.88454,0,0,0,.52734,8.34961h4.834l-1.14258-2.43164-2.90039.38086-.90821-4.13086,1.55274-.11719q1.81641-2.34375,3.75-5.09765-1.43555-1.9629-5.53711-7.14844l3.457-3.28125.498.55664a36.24486,36.24486,0,0,0,3.83789-6.85547l4.51172,1.8457a42.74469,42.74469,0,0,1-5.36133,8.61328q.498.58594,1.49414,1.9336,2.19726-3.39845,3.39844-5.74219l4.30664,2.10938a117.85887,117.85887,0,0,1-8.64258,12.50976q1.31836-.14648,3.83789-.49805-.46875-2.168-.76172-3.10546l4.18945-.9668a39.12024,39.12024,0,0,1,2.168,9.31641l-4.39453,1.02539q-.11718-.84962-.46875-2.69532-.99609.20508-2.63672.49805l1.78711,3.28125h5.27344v5.50781l-6.62109.0293,3.75,1.9043a48.772,48.772,0,0,1-6.97266,8.17334q2.54883,2.49023,3.54492,2.49023a.67881.67881,0,0,0,.58594-.42383,8.6914,8.6914,0,0,0,.4541-2.34375q.21973-1.91894.33692-4.35156l5.24414.82031q-.23437,9.81446-1.40625,11.36719t-4.01368,1.55273q-4.45312,0-9.46289-5.06836a41.937,41.937,0,0,1-8.52539,5.06836l-3.36914-4.13086a63.08085,63.08085,0,0,0,8.32031-5.65429,35.15177,35.15177,0,0,1-3.6621-9.37451Zm-.61524-8.73047q-4.16016.87891-11.2207,1.8457l-.87891-4.248,1.34766-.08789q1.61133-2.10937,3.57422-5.00976-1.75782-2.57812-5.71289-7.5293l3.42773-3.33984q.293.32226.82031.96679a42.55343,42.55343,0,0,0,4.16016-7.38281l4.42383,1.8457a43.21083,43.21083,0,0,1-5.6543,9.19922q.84961,1.11328,1.37695,1.875,2.28516-3.60351,3.57422-6.15234l4.36524,2.168a128.83777,128.83777,0,0,1-8.67188,12.80273q2.13867-.26367,4.36524-.61523-.43946-2.168-.84961-3.7207l4.01367-1.0254a52.66186,52.66186,0,0,1,2.168,9.52149l-4.27735,1.084Q928.62794,195.93214,928.42285,194.81885Zm14.1211,13.73974a36.74765,36.74765,0,0,0,3.98437-5.03857h-5.74219A27.9867,27.9867,0,0,0,942.544,208.55859Z" transform="translate(0 1)"/><path class="cls-5" d="M967.06543,203.46143a52.8619,52.8619,0,0,1-4.42383,7.73388l-4.27734-4.394a58.52744,58.52744,0,0,0,5.27344-9.79981,47.11419,47.11419,0,0,0,3.33984-10.12207H961.001v-5.94726h6.06445V169.77h7.03125v11.16211h3.95508v5.94726h-3.95508v4.48243a38.56321,38.56321,0,0,0,5.39062,5.12695l-2.57812,5.21484a18.89462,18.89462,0,0,1-2.8125-2.8125v24.16944h-7.03125Zm21.06445-1.084q-.70312,12.56763-7.55859,19.189l-4.51172-3.48633q5.39063-5.56641,6.00586-15.70264h-2.63672v-5.30273H982.124v-8.14453h6.06446v8.14453h2.46093v-8.14453h5.77149v8.14453H998.501q-.55665-4.57032-.84961-10.42969H980.21973v-6.00586h17.25586v-1.37695l.05859-9.22852h7.44141v10.60547h11.16211V186.645h-11.3086a108.30076,108.30076,0,0,0,1.05469,12.77344,65.9,65.9,0,0,0,2.959-10.19532l7.11914,1.99219a84.21965,84.21965,0,0,1-7.67578,18.74951q.498,1.43556.98145,2.50586.48339,1.06934.64453,1.377a.5385.5385,0,0,0,.51269.30664.73286.73286,0,0,0,.80567-.62891q.13184-.62988.835-7.63232l5.44922,1.25976q-.23437,4.89185-.61524,8.27686a19.0637,19.0637,0,0,1-.835,4.4375,4.53693,4.53693,0,0,1-1.65527,1.89062,4.9539,4.9539,0,0,1-2.90039.834,5.46681,5.46681,0,0,1-3.82324-1.49414,20.31405,20.31405,0,0,1-3.47168-4.65821,42.47609,42.47609,0,0,1-5.6543,6.38672l-4.48242-4.13086q.41016-.41015.9668-1.02539h-4.39454V202.37744Zm11.16211,0H996.4209v13.73975a46.09776,46.09776,0,0,0,4.6875-6.6211A56.41031,56.41031,0,0,1,999.292,202.37744Zm16.377-24.11133-5.50782,2.13868q-1.61133-3.33985-4.6289-8.4375l5.21484-2.168Q1014.02832,175.04346,1015.669,178.26611Z" transform="translate(0 1)"/><path class="cls-5" d="M1032.749,186.02979l-2.19726-5.50782H1023.169v-6.123h20.5957v-4.7461h8.32031v4.7461h20.71289v6.123H1065.415l-2.959,5.50782h12.36329V192.27H1021.001v-6.24023Zm28.27149,34.27685h-26.57227v2.28516h-8.08594V195.17041h42.832V222.5332h-8.17383Zm0-15.55615V200.9126h-26.57227v3.83789Zm-26.57227,9.60889h26.57227v-4.13086h-26.57227Zm4.62891-33.83741,2.31445,5.50782H1054.165l2.57812-5.50782Z" transform="translate(0 1)"/><path class="cls-5" d="M1086.50879,203.57861a70.12058,70.12058,0,0,1-6.38672,3.10547l-1.37695-6.123a57.89288,57.89288,0,0,0,8.52539-3.36915q.0293-1.14256.02929-4.42382V173.6958h20.18555v-3.98437h7.793v3.98437h20.15625v5.332h-41.2793l-.08789,15.293a47.6015,47.6015,0,0,0,4.77539-14.32617l6.18164.87891q-.43944,2.05077-1.31836,4.80468h11.19141v5.47852h-5.44922v7.73437h5.88867v5.625h-5.97656q1.8457,4.45313,7.14844,10.13623l-3.92578,5.85938a35.75815,35.75815,0,0,1-6.38672-8.93555,24.38583,24.38583,0,0,1-12.1582,11.19141l-3.42774-4.92188a20.92451,20.92451,0,0,0,11.33789-13.32959h-6.76758v-5.625h7.67579v-7.73437h-.9961a34.03918,34.03918,0,0,1-3.39844,6.82617l-4.45312-2.34375a46.30176,46.30176,0,0,1-2.915,15.52686,33.03393,33.03393,0,0,1-7.0166,11.60156l-4.6875-3.60352Q1084.37011,213.68555,1086.50879,203.57861Zm.498-13.50586-5.44922,1.49414-2.34375-13.15429,5.65429-1.05469Zm40.01953,29.2085h-3.60352V221.918h-6.76758V183.51025h17.10938v38.23194h-6.73828Zm-3.60352-5.39063h3.60352V189.04736h-3.60352Z" transform="translate(0 1)"/><path class="cls-5" d="M1161.21582,170.38525q.08789,1.084.08789,3.75,0,1.99219-.11719,3.89649h19.36524V185.063h-20.15625a83.06941,83.06941,0,0,1-4.86328,20.97656q-4.043,11.24927-8.93555,17.54834l-6.79688-4.01367a64.481,64.481,0,0,0,7.85157-15.92236,86.67133,86.67133,0,0,0,4.45312-18.58887h-10.2539v-7.03125h10.752q.23438-4.71679.23437-7.64649Zm33.31055,50.39014a89.69372,89.69372,0,0,1-13.88672.9668,71.71127,71.71127,0,0,1-10.59082-.6875,12.85118,12.85118,0,0,1-7.16309-3.17969,7.87771,7.87771,0,0,1-2.60742-5.88867q0-4.51172,4.80469-9.31592l6.24023,2.92969q-2.90038,3.54492-2.90039,5.6831a1.93267,1.93267,0,0,0,1.05469,1.69922,11.88692,11.88692,0,0,0,4.248,1.01172,64.08588,64.08588,0,0,0,7.23632.36524,75.54772,75.54772,0,0,0,13.1543-1.14258Zm-1.55274-32.57764-.41015,6.97266q-1.66992-.08789-3.48633-.08789-9.93165,0-24.60938,1.34766l-.52734-6.97266a221.34809,221.34809,0,0,1,24.4043-1.34766Q1191.15723,188.10986,1192.97363,188.19775Zm-6.00586-9.69726-4.30664,1.61133q-2.43163-6.03516-3.98437-8.99414l4.16015-1.61133A90.341,90.341,0,0,1,1186.96777,178.50049Zm8.34961-1.52344-4.21875,1.55274q-2.05077-5.09766-4.01367-8.99415l4.01367-1.49414Q1193.501,172.64112,1195.31738,176.97705Z" transform="translate(0 1)"/><path class="cls-5" d="M1221.30371,177.50439q0,1.84571-.14648,4.45313h8.11523a10.54394,10.54394,0,0,1,8.08594,3.2959,11.89412,11.89412,0,0,1,3.07617,8.45215q0,12.97851-3.01758,20.97607-3.01758,7.998-10.22461,7.99805-4.39452,0-12.01172-4.36524l2.69532-7.08984a29.11267,29.11267,0,0,0,4.93652,2.1543,16.01893,16.01893,0,0,0,3.41309.92187,2.63835,2.63835,0,0,0,1.97754-.8789,10.42941,10.42941,0,0,0,1.74316-3.54493,31.97188,31.97188,0,0,0,1.3623-6.10791,60.97938,60.97938,0,0,0,.45411-7.8955,15.723,15.723,0,0,0-.38086-4.18946,3.29966,3.29966,0,0,0-1.25977-1.80176,3.86112,3.86112,0,0,0-2.22656-.60058h-7.32422q-2.69532,20.5078-15.41016,34.30615l-6.35742-4.7168a60.589,60.589,0,0,0,7.55859-11.57177q3.69141-7.08985,5.30274-18.01758h-10.60547v-7.32422h11.66016v-11.2793h8.584Zm36.47461,24.4336-8.4082,2.168a92.7022,92.7022,0,0,0-4.10157-12.09961,64.53862,64.53862,0,0,0-4.1748-7.5293,43.51243,43.51243,0,0,0-4.2041-5.77148l6.709-4.18946a61.85822,61.85822,0,0,1,9.02344,13.125A52.03912,52.03912,0,0,1,1257.77832,201.938Z" transform="translate(0 1)"/><path class="cls-5" d="M1274.15527,223.11914l-1.20117-7.44141q15.293,0,23.27637-2.35742,7.98339-2.35839,7.9834-7.72021a7.02483,7.02483,0,0,0-2.8418-6.02051q-2.84179-2.09472-7.82227-2.09473a31.05288,31.05288,0,0,0-13.125,3.01758,28.89561,28.89561,0,0,0-10.54687,7.96826l-6.416-3.77881q4.42383-10.28319,4.98047-24.84375l8.64258.49805a63.82428,63.82428,0,0,1-2.57812,15.46875,33.968,33.968,0,0,1,9.03808-3.7793,37.46383,37.46383,0,0,1,9.917-1.49414q9.16993,0,14.34082,3.86719t5.1709,11.19141a13.52115,13.52115,0,0,1-3.36914,9.28662q-3.36913,3.80859-10.37109,5.77148T1274.15527,223.11914Zm34.6875-45.84912-3.83789,7.44141a77.68177,77.68177,0,0,0-15.498-4.36524q-9.40431-1.7871-15.70313-2.34375l2.25586-7.03125A170.12234,170.12234,0,0,1,1308.84277,177.27Z" transform="translate(0 1)"/><path class="cls-5" d="M1333.10059,203.46143h-9.11133V193.3833h9.11133Zm19.6582,0h-9.11133V193.3833h9.11133Zm19.89258,0H1363.54V193.3833h9.11133Z" transform="translate(0 1)"/></g><g class="cls-4"><path class="cls-5" d="M627.896,281.39062q0,9.4336-.07325,12.20215a40.93046,40.93046,0,0,1-.67382,6.1084,18.01573,18.01573,0,0,1-1.21582,4.51172,7.09818,7.09818,0,0,1-1.77247,2.13867,9.15309,9.15309,0,0,1-2.60742,1.52344,8.38942,8.38942,0,0,1-3.03222.55664h-6.18164l-.9961-7.06055h4.92188a3.85222,3.85222,0,0,0,2.02148-.52734q.87891-.52734,1.333-3.33984a51.415,51.415,0,0,0,.4541-7.76368q0-.9375-.0293-1.93359h-6.88476q-.73242,15.20508-8.67188,25.19531l-5.88867-4.07226q6.29883-8.5254,6.29883-24.05274V268.91016H628.687q-.08789-2.666-.08789-9.4336h8.4668l.02929,9.4336h7.29493q-1.9629-1.61133-5.71289-4.80469l4.86328-4.62891a93.38435,93.38435,0,0,1,9.082,7.26563l-2.34375,2.168H654.644v6.35742h-17.168a81.212,81.212,0,0,0,2.49024,15.23437,58.94207,58.94207,0,0,0,5.85937-13.44726l8.17383,2.46093q-4.80542,12.86133-10.166,19.834,3.10473,4.541,4.18945,4.541.52734,0,.70312-.68847t.76172-8.68653l6.47461,1.14258-.32226,6.76758a31.19766,31.19766,0,0,1-.77637,6.67969,5.19848,5.19848,0,0,1-1.97754,2.88574,6.267,6.267,0,0,1-3.66211.98145,8.32151,8.32151,0,0,1-5.34668-1.97754,33.478,33.478,0,0,1-5.34668-5.81543,81.50715,81.50715,0,0,1-9.14062,7.4707l-4.57032-5.27344a63.39954,63.39954,0,0,0,9.58008-9.19922q-4.07226-8.81835-5.30273-22.91015H613.24756v6.123Z" transform="translate(0 1)"/><path class="cls-5" d="M683.56006,300.99023a67.75218,67.75218,0,0,1-21.709,10.459l-2.69531-6.24024a65.30822,65.30822,0,0,0,18.36914-8.584H661.38232v-6.35742h22.06055v-3.7207H664.605V261.9375H711.3042v24.60938H691.6167v3.7207h22.96875V296.625H697.65186a59.76915,59.76915,0,0,0,19.33593,7.73438l-4.07226,7.08984a56.7652,56.7652,0,0,1-21.416-10.66406V312.709h-7.93945Zm-.11719-33.28125H672.54443v4.13086h10.89844Zm0,8.93555H672.54443v4.07227h10.89844Zm19.74609-4.80469V267.709H691.6167v4.13086Zm0,8.877v-4.07227H691.6167v4.07227Z" transform="translate(0 1)"/><path class="cls-5" d="M740.45459,267.50391q0,1.90429-.14648,4.51171h7.52929a10.42825,10.42825,0,0,1,8.02735,3.252,11.87236,11.87236,0,0,1,3.01757,8.4082q0,12.832-2.959,20.85938-2.95971,8.02734-10.07813,8.02734a15.3133,15.3133,0,0,1-4.292-.67383,39.70135,39.70135,0,0,1-7.45605-3.6914l2.69531-6.97266q5.53711,3.07617,7.99805,3.07617a2.63317,2.63317,0,0,0,1.96289-.84961,10.62931,10.62931,0,0,0,1.75781-3.63281,32.3631,32.3631,0,0,0,1.377-6.21094,61.2886,61.2886,0,0,0,.43946-7.73437,15.58535,15.58535,0,0,0-.38086-4.16016,3.22689,3.22689,0,0,0-1.25977-1.78711,3.93472,3.93472,0,0,0-2.22656-.58594h-6.76758q-2.84179,20.918-14.79492,33.89649l-6.5918-4.13086q3.28052-3.69141,7.16309-11.63086a61.31838,61.31838,0,0,0,5.376-18.13477H720.18115v-7.32422H731.812l.0586-11.33789h8.584Zm36.24023,25.2832-8.02734,2.25586a80.70918,80.70918,0,0,0-5.1416-13.6084,65.03045,65.03045,0,0,0-6.98731-10.7959l6.65039-3.89648Q774.26319,281.09766,776.69482,292.78711ZM769.81006,268.002l-4.24805,1.61133q-2.43237-6.03516-3.98437-8.99414l4.043-1.61133Q768.198,263.959,769.81006,268.002Zm8.02734-.64453-4.07226,1.55274q-1.9336-4.8047-4.043-8.99414l3.89648-1.49414Q776.02027,263.02148,777.8374,267.35742Z" transform="translate(0 1)"/><path class="cls-5" d="M790.14209,312.47461h-8.4082V287.45508h8.4082v15.64453H803.2085V284.55469H784.37061v-20.625h8.17382v14.209H803.2085V260.44336h8.34961v17.69531h11.10351V263.75391h8.32031v20.80078H811.55811v18.54492h14.32617v-15.9082h8.4082V312.5332h-8.4082V309.75H790.14209Z" transform="translate(0 1)"/><path class="cls-5" d="M876.65527,304.33008q7.14845-2.8125,7.14844-8.96485a7.97464,7.97464,0,0,0-3.53027-6.87011,14.99025,14.99025,0,0,0-8.8916-2.50489h-.73243a22.9804,22.9804,0,0,0-5.49316.791,34.61664,34.61664,0,0,0-5.918,2.05078,33.41285,33.41285,0,0,0-4.6582,2.51953q-1.88965,1.25978-8.77393,6.35742l-4.6875-5.88867q23.93482-16.40625,30.61475-21.5332H846.94824v-6.85547h35.39063l4.21875,4.51172q-6.29883,4.18946-18.7793,12.77344a24.79593,24.79593,0,0,1,6.03516-.9375q8.64258,0,13.53515,3.94043t4.89258,11.32324a14.9454,14.9454,0,0,1-6.92871,13.22754q-6.92871,4.61426-18.2373,4.61426-7.4707,0-11.85059-2.46094a7.82793,7.82793,0,0,1-4.37988-7.207q0-3.8379,3.73535-6.46a13.90373,13.90373,0,0,1,8.15918-2.62207Q873.667,294.13477,876.65527,304.33008Zm-7.55859,1.93359q-1.9043-5.97656-6.94336-5.97656a4.413,4.413,0,0,0-2.60742.80566,2.45885,2.45885,0,0,0-1.14258,2.09473q0,3.22266,7.55859,3.22266Q867.63185,306.41016,869.09668,306.26367Z" transform="translate(0 1)"/><path class="cls-5" d="M921.30371,267.50391q0,1.8457-.14648,4.45312h8.11523a10.54394,10.54394,0,0,1,8.08594,3.2959,11.89414,11.89414,0,0,1,3.07617,8.45215q0,12.97851-3.01758,20.97656t-10.22461,7.998q-4.39452,0-12.01172-4.36524l2.69532-7.08984a29.11125,29.11125,0,0,0,4.93652,2.15332,16.0484,16.0484,0,0,0,3.41309.92285,2.63835,2.63835,0,0,0,1.97754-.8789,10.42941,10.42941,0,0,0,1.74316-3.54493,31.97717,31.97717,0,0,0,1.3623-6.1084,60.97938,60.97938,0,0,0,.45411-7.8955,15.723,15.723,0,0,0-.38086-4.18946,3.29964,3.29964,0,0,0-1.25977-1.80175,3.86112,3.86112,0,0,0-2.22656-.60059h-7.32422q-2.69532,20.50781-15.41016,34.30664l-6.35742-4.7168a60.57856,60.57856,0,0,0,7.55859-11.57226q3.69141-7.08984,5.30274-18.01758H901.05957V271.957h11.66016v-11.2793h8.584Zm36.47461,24.43359-8.4082,2.168a92.70274,92.70274,0,0,0-4.10157-12.09961,64.53943,64.53943,0,0,0-4.1748-7.5293,43.51311,43.51311,0,0,0-4.2041-5.77148l6.709-4.18946a61.85822,61.85822,0,0,1,9.02344,13.125A52.03912,52.03912,0,0,1,957.77832,291.9375Z" transform="translate(0 1)"/><path class="cls-5" d="M1012.06543,311.74219q-9.25782.791-17.8125.791-12.36328,0-16.582-.84961a17.52249,17.52249,0,0,1-9.11133-4.37988,11.40589,11.40589,0,0,1-3.31055-8.54q0-10.04883,14.707-17.168-.9375-10.10742-.99609-20.39062h8.52539l-.0293,2.63672v.8789q0,6.50391.41016,13.50586,6.76758-2.54883,20.06836-6.32812l2.46094,7.32422q-17.92969,4.65819-27.46582,9.33105t-9.53614,10.00488q0,6.50391,14.32618,6.50391h2.72461a207.18953,207.18953,0,0,0,21.26953-1.25977Z" transform="translate(0 1)"/><path class="cls-5" d="M1068.34473,304.59375l-.41016,7.91016q-3.19336.08788-4.248.08789-10.81055,0-16.8457-3.03223t-8.64258-7.32422a18.44173,18.44173,0,0,1-2.60742-9.77051q0-10.72264,10.57617-19.74609l-26.04492.26367v-7.5h52.23633v7.5586h-13.44727a28.75835,28.75835,0,0,0-10.459,8.23242,17.33342,17.33342,0,0,0-4.10156,10.83984q0,12.65625,19.248,12.65625Q1065.8252,304.76953,1068.34473,304.59375Z" transform="translate(0 1)"/><path class="cls-5" d="M1119.70215,290.56055h-18.252a68.93162,68.93162,0,0,0-1.11329,9.11133q0,5.83006,11.16211,5.83007,8.75978,0,11.60157-1.77246a5.50807,5.50807,0,0,0,2.84179-4.90722,29.91321,29.91321,0,0,0-3.83789-13.97461l7.14844-1.96289q5.15625,9.14063,5.15625,16.23046,0,13.65235-22.91016,13.65235-9.2871,0-14.42871-3.33985a10.96276,10.96276,0,0,1-5.1416-9.81445,69.54465,69.54465,0,0,1,1.02539-9.05273h-11.33789v-7.17774h12.53906q.58595-3.01758,1.46485-7.23633h-13.09571v-7.002h14.707q1.20117-5.03905,2.25585-8.584l8.5254.64453-1.99219,7.93945h23.87695v7.002H1104.292l-1.582,7.23633h16.99219Z" transform="translate(0 1)"/><path class="cls-5" d="M1172.37793,312.94336h-8.49609V284.05664a89.00306,89.00306,0,0,1-20.77149,15.73242l-4.57031-6.09375q17.34375-10.28321,26.48437-24.19922h-23.84765v-6.709H1195.083v6.709h-20.30274q-1.93359,3.13477-4.10156,6.18164h1.69922v5.56641l3.92578-4.01367a89.19188,89.19188,0,0,0,9.14063,7.96875,76.4066,76.4066,0,0,0,12.27539,7.93945l-5.15625,6.91406a101.16,101.16,0,0,1-20.18555-15.76171Z" transform="translate(0 1)"/><path class="cls-5" d="M1245.44434,286.78125a30.00143,30.00143,0,0,1-7.002,13.65234q5.127,1.78712,14.94141,5.74219l-4.6582,6.65039q-7.17774-3.22266-17.168-7.03125-9.63867,5.68359-27.91992,7.207l-1.61133-6.416q13.418-1.11328,21.06445-4.36524a87.78469,87.78469,0,0,0-11.86523-3.48632q-2.37306-.49806-2.373-2.60743a2.58112,2.58112,0,0,1,.26367-1.11328q2.40234-4.95117,3.86719-8.23242h-12.334v-6.47461h15.0293q1.9043-4.7168,2.90039-7.73437l8.4082,1.084q-.76172,2.43163-2.46093,6.65039h30.73242v6.47461Zm7.82226-9.05273h-7.38281V271.957H1210.2002v5.83008h-7.38282V265.834h20.80078v-6.18164h8.23243V265.834h21.416Zm-22.73437,19.92187a24.0065,24.0065,0,0,0,6.38672-10.86914h-15.14649q-1.81641,4.043-3.25195,6.65039Q1226.10839,295.80468,1230.53223,297.65039Z" transform="translate(0 1)"/><path class="cls-5" d="M1281.21582,260.38477q.08789,1.084.08789,3.75,0,1.99218-.11719,3.89648h19.36524v7.03125h-20.15625a83.06931,83.06931,0,0,1-4.86328,20.97656q-4.043,11.25-8.93555,17.54883l-6.79688-4.01367a64.49365,64.49365,0,0,0,7.85157-15.92285,86.67133,86.67133,0,0,0,4.45312-18.58887h-10.2539v-7.03125h10.752q.23438-4.71679.23437-7.64648Zm33.31055,50.39062a89.69372,89.69372,0,0,1-13.88672.9668,71.69875,71.69875,0,0,1-10.59082-.68848,12.85041,12.85041,0,0,1-7.16309-3.17871,7.87771,7.87771,0,0,1-2.60742-5.88867q0-4.51172,4.80469-9.31641l6.24023,2.92969q-2.90038,3.54492-2.90039,5.68359a1.93267,1.93267,0,0,0,1.05469,1.69922,11.89223,11.89223,0,0,0,4.248,1.01074,64.06923,64.06923,0,0,0,7.23632.36622,75.54772,75.54772,0,0,0,13.1543-1.14258Zm-1.55274-32.57812-.41015,6.97265q-1.66992-.08788-3.48633-.08789-9.93165,0-24.60938,1.34766l-.52734-6.97266a221.34808,221.34808,0,0,1,24.4043-1.34765Q1311.15723,278.10938,1312.97363,278.19727ZM1306.96777,268.5l-4.30664,1.61133q-2.43163-6.03516-3.98437-8.99414l4.16015-1.61133A90.342,90.342,0,0,1,1306.96777,268.5Zm8.34961-1.52344-4.21875,1.55274q-2.05077-5.09766-4.01367-8.99414l4.01367-1.49414Q1313.501,262.64062,1315.31738,266.97656Z" transform="translate(0 1)"/><path class="cls-5" d="M1330.669,296.21484q-4.51173,6.62111-7.73438,10.54688l-4.51172-6.416a176.37544,176.37544,0,0,0,12.2461-17.28515v-6.65039h-10.07813v-6.6211H1330.669V260.209h8.291v16.46485q8.90625-7.64649,18.457-7.64649,8.23242,0,13.31543,5.30274t5.083,13.74023a26.18284,26.18284,0,0,1-2.57813,11.23535,20.62519,20.62519,0,0,1-8.90625,9.082q-6.32812,3.58885-16.377,3.94042l-1.8164-6.88476a52.67572,52.67572,0,0,0,10.3125-1.81641,17.60475,17.60475,0,0,0,6.0791-3.2959,13.6693,13.6693,0,0,0,3.77929-5.03906,16.72431,16.72431,0,0,0,1.27442-6.54785v-.67383a14.173,14.173,0,0,0-2.63672-8.77441,8.53492,8.53492,0,0,0-7.207-3.501q-10.166,0-18.7793,10.60547v26.42578h-8.291Z" transform="translate(0 1)"/></g></g><g id="グループ_155" data-name="グループ 155"><g id="グループ_140" data-name="グループ 140"><path id="パス_280" data-name="パス 280" class="cls-6" d="M1468.63072,411.10893l72.945-41.544c7.952-3.635,19.333-6.526,27.434-2.311,7.382,3.844,19.542,11.7,24.919,14.772,4.085,2.329,18.26,10.823,9.431,15.625-25.974,14.125-51.683,30.012-78.057,44.359-4.99,2.714-12.286,3.695-19.948,3.059a52.84735,52.84735,0,0,1-21.606-6.435q-6.576-3.825-12.93906-7.525c-5.72-3.331-8.756-7.272-9.054-10.912C1461.46571,416.63493,1463.75071,413.33592,1468.63072,411.10893Z" transform="translate(0 1)"/><g id="グループ_139" data-name="グループ 139"><g id="グループ_129" data-name="グループ 129"><path id="パス_281" data-name="パス 281" class="cls-7" d="M1534.81273,217.72591c-2.638,8.248-.1,21.944,2.112,36.253,1.219,7.871,3.179,15.988,4.129,22.928q.228,1.66.419,3.161c.767,5.977,1.11,10.1.853,13.374-.709,9.067-4.524,10.983-5.953,22.8-1.732,14.34,5.807,30.778,5.244,46.581a9.87767,9.87767,0,0,1-1.889,3.881c-6.33,7.785.2,6.756-.413,17.038-.052.905,3.444,16.593,3.444,16.593s9.4,2.614,10.109,2.512,6.542-2.127,6.542-2.127c-.458-.858-1.034-2.936-1.4-3.721-4.234-8.981-4.8-19.982-4.807-30.116-.01-13.858,3.813-46.494,7.382-59.819a173.24341,173.24341,0,0,0,2.85-23.55093c1.463-23.027,2.206-39.636-.644-64Z" transform="translate(0 1)"/><path id="パス_282" data-name="パス 282" class="cls-8" d="M1556.7617,394.13692c1.013,1.853,2.1,4.514,3.03,6.521a40.60293,40.60293,0,0,1,2.371,6.317,2.956,2.956,0,0,1-.215,2.538c-2.269,3.046-13.641-2.512-17.454-5.877-2.462-2.174-2.507-4.747-3.085-7.887-.869-4.713-1.018-5.244-2.146-10.085l-1.28,13.147-1.536.7c-.235-5.357-.348-12.485-1.175-17.067-.33-1.824-.892-3.9-.974-4.912-.469-5.956,2.478-8.884,5.186-10.559-.994,3.619,1.63,9.507,2.826,16.923,1.248,7.756,5.545,16.24,8.921,16.959,1.423.3,4.569-1.473,6.28-2.449C1558.16374,398.03893,1557.42369,395.81691,1556.7617,394.13692Z" transform="translate(0 1)"/><path id="パス_283" data-name="パス 283" class="cls-9" d="M1558.74272,410.34493c-4.339-.461-11.4-4.195-14.248-6.709-2.462-2.174-2.507-4.747-3.085-7.887-.869-4.713-1.018-5.244-2.146-10.085l-1.28,13.147-1.536.7c-.235-5.357-.348-12.485-1.175-17.067-.33-1.824-.892-3.9-.974-4.912-.469-5.956,2.478-8.884,5.186-10.559-.994,3.619,1.63,9.507,2.826,16.923,1.026,6.385,4.119,13.256,7.063,15.892A53.27506,53.27506,0,0,0,1558.74272,410.34493Z" transform="translate(0 1)"/><path id="パス_284" data-name="パス 284" class="cls-10" d="M1537.12071,214.44692c-2.271,8.711-9.567,8.983-6.461,23.5,3.1,14.471,11.9,42.357,10.852,55.721-.709,9.067-3.711,10.76-5.139,22.577-1.732,14.34,1.965,35.064,1.4,50.867-.463,2.363,5.286,13.3,16.457,9.826,1.766-13.858,4.257-60.651,7.973-75.451,2.748-8.2,1.973-12.181,2.625-20.35,1.479-18.472.429-36.381.181-53.029-.623-6.44-.141-14.366-1.068-19.984Z" transform="translate(0 1)"/><path id="パス_285" data-name="パス 285" class="cls-11" d="M1537.12071,214.44692c-2.271,8.711-9.567,8.983-6.461,23.5,3.1,14.471,11.9,42.357,10.852,55.721-.709,9.067-3.711,10.76-5.139,22.577-1.732,14.34,1.965,35.064,1.4,50.867-.361,1.837,3.038,8.863,9.823,10.26-1.779-27.541-4.6-50.825,3.624-73.4a27.31565,27.31565,0,0,0,1.332-10.972,390.2809,390.2809,0,0,0-5.9-46.9c9.033-4.8,16.92-11.681,18.43-13.526q-.043-2.269-.076-4.469c-.623-6.44-.141-14.366-1.068-19.984Z" transform="translate(0 1)"/><path id="パス_286" data-name="パス 286" class="cls-12" d="M1548.70472,246.6259c1.719,5.765,6.126,45.3,7.065,46.228,1.583,1.559,5.019,2.491,6.921-3.3.659-2.012,1.607-49.582,1.463-53.573C1558.27669,240.9579,1553.26072,245.05892,1548.70472,246.6259Z" transform="translate(0 1)"/><path id="パス_287" data-name="パス 287" class="cls-12" d="M1562.00874,300.21692l-7.834,2.808c-7.615,23.744-7.419,43.114-5.692,73.7,1.557.207,4.027.262,5.4-.811.042-13.356,1.68-23.2,2.177-35.331.256-6.267.937-12.636,1.52-19.369C1558.55171,309.9169,1557.67274,312.36691,1562.00874,300.21692Z" transform="translate(0 1)"/></g><g id="グループ_130" data-name="グループ 130"><path id="パス_288" data-name="パス 288" class="cls-7" d="M1516.7707,369.93993c-.186,1.847-1.4,3.5-1.983,5.26a64.431,64.431,0,0,0-2.585,9.5,87.24207,87.24207,0,0,0-1.445,17.742c.052,2.52.911,3.773.947,7.22l13.707,5.257c-.16-3.211-.364-8.235-.235-13.693.1-4.161.476-8.57.722-12.628.311-5.095.152-9.753.667-12.539.448-2.423.926-4.626,1.437-6.673C1528.41472,365.01592,1520.03871,363.52892,1516.7707,369.93993Z" transform="translate(0 1)"/><path id="パス_289" data-name="パス 289" class="cls-8" d="M1515.11369,374.279c-1.41,2.677-2.664,4-3.593,7.861s-.393,10.3-1.541,15.078l-1.821,7.589c-1.06,4.417-.57,7.735,3.718,12.458,3.889,4.281,8.062,6.571,10.737,5.89,1.965-.5,4.045-3.352,3.03-12.223-.848-7.39-.034-14.269.183-22.051-1.06,7.473-1.392,9.972-1.112,17.566.079,2.122-.327,5.561-2.795,5.406-10.205-.641-10.15-3.407-10.333-6.636C1511.0977,396.59493,1512.51271,381.72893,1515.11369,374.279Z" transform="translate(0 1)"/><path id="パス_290" data-name="パス 290" class="cls-9" d="M1515.11369,374.279c-1.41,2.677-2.664,4-3.593,7.861s-.393,10.3-1.541,15.078l-1.821,7.589c-1.06,4.417-.57,7.735,3.718,12.458,2.991,3.292,6.152,5.406,8.667,5.9-2.2-2.779-3.336-6.961-3.76-11.972-5.056-1.151-5.053-3.418-5.2-5.974C1511.0977,396.59493,1512.51271,381.72893,1515.11369,374.279Z" transform="translate(0 1)"/></g><path id="パス_291" data-name="パス 291" class="cls-12" d="M1526.77173,307.20294c-2.3,4.388-5.328,8.518-7.008,13.141-4.493,12.4-6.835,33.233-7.777,51.885-.709,5.8,7.861,15.018,16.266,10.161,2.366-17.783,5.663-27.758,10.737-45.88,2.1-7.486,1.518-11.945,5.294-17.5.845-1.248,1.819-2.3,2.863-3.862,2.339-3.486,2.878-6.843,2.611-11.105a38.51588,38.51588,0,0,0-1.217-6.772l-10.645-49.145c7-10.548,14.874-21.5,19.979-33.78l-1.554-5.485-44.194,5.521c-.968,7.6-6.9,12.754-7.861,26.23-.6,8.5,3.491,20.725,9.117,34.232,3.1,7.432,6.979,14.965,9.583,21.538C1524.73572,300.84692,1526.16773,304.16492,1526.77173,307.20294Z" transform="translate(0 1)"/><path id="パス_292" data-name="パス 292" class="cls-10" d="M1526.77173,307.20294c-2.3,4.388-5.328,8.518-7.008,13.141-4.493,12.4-6.835,33.233-7.777,51.885-.453,3.347,1.717,7.918,6.419,10.208,1.965-21.986,6.764-48.007,15.449-66.259,2.264-4.757,3.527-6.921,1.9-13.262-4.292-16.69-7.743-25.916-15.209-43.9a82.94177,82.94177,0,0,0,17.676-9.391l-.327-1.5c7-10.548,14.874-21.5,19.979-33.78l-1.554-5.485-44.194,5.521c-.968,7.6-6.9,12.754-7.861,26.23-.6,8.5,3.491,20.725,9.117,34.232,3.1,7.432,6.979,14.965,9.583,21.538C1524.73572,300.84692,1526.16773,304.16492,1526.77173,307.20294Z" transform="translate(0 1)"/><g id="グループ_135" data-name="グループ 135"><path id="パス_293" data-name="パス 293" class="cls-13" d="M1521.79474,225.39792l5.027-15.672.589-32.524,18.254-9.614c-9.575-15.761-22.925-20.913-25.843-34.834-2.758-13.149,16.2-13.013,18.176-11.1a37.19082,37.19082,0,0,1,7.377,10.765c4.817,12.1,6.505,22.831,7.335,34.219l5.6,2.282-.884,26.759,3.991,18.037C1559.50171,227.29294,1518.55274,247.20892,1521.79474,225.39792Z" transform="translate(0 1)"/><path id="パス_294" data-name="パス 294" class="cls-14" d="M1546.1247,168.35793c1.656,2.826,3.237,54.957,4.574,58.558,2.394-1.35,5.652-4.71,8.036-7.2-.675-9.059-5.542-47.12-6.173-55.014a20.56131,20.56131,0,0,0-3.679,1.449A15.88074,15.88074,0,0,0,1546.1247,168.35793Z" transform="translate(0 1)"/><path id="パス_295" data-name="パス 295" class="cls-15" d="M1514.43872,183.20894c4.184,8.3,6.189,17.629,4.749,22.114-1.586,4.943-16.653,19.115-14.1,37.694a15.13906,15.13906,0,0,0,10.8,9.452c10.53,2.656,37.545-11.121,37.686-13.678,1.031-18.7,1.209-53.392-6.445-68.653-6.183-12.325-15.154-18.435-21.238-25.7-2.792-3.933-10.082-13.989-8.486-15.656,4.326-4.517,22.172-14.481,28.766.089,7.243,18.55,6.3,38.189,7.56,57.679,2.313,16.9,3.951,33.46,3.446,50.166a24.75724,24.75724,0,0,0,9-7.081c-.3-7.371-1.1-17.281-1.724-20.576-1.685-8.962-4-12.021-5.134-17.689-1.424-7.131,1.552-13.134.775-21.382-.209-2.208-.427-4.438-.649-6.667-.756-7.541-1.583-15.059-2.436-21.651-1.1-8.5-2.117-15.735-3.216-19.149a10.24217,10.24217,0,0,0-1.651-3.386c-2.248-3.213-6.285-4.841-13.314-1.892-9.742,4.087-24.317,10.32-32.516,19.037-3.758,2.287-6.5,5.011-6.843,9.941C1498.70673,157.29292,1509.59873,173.61592,1514.43872,183.20894Z" transform="translate(0 1)"/><path id="パス_296" data-name="パス 296" class="cls-12" d="M1514.43872,183.20894c4.184,8.3,6.189,17.629,4.749,22.114-1.586,4.943-17.946,18.93-15.4,37.509,1.677,5.537,6.885,7.934,12.092,9.316.1-16.294,13.241-28.612,12.448-48.753-.277-7.084-3.637-12.33,1.4-17.854,1.175-1.287,4.4-2.25,7.146-3.276,6.555-2.454,9.072-5.684,11.925-8.138-5.116-11.328-12.055-18.061-18.066-24.147l-13.05,5.019a36.34393,36.34393,0,0,0-8.745-17.859v-2.339c-5.058,2.664-9.062,5.4-9.475,11.417-.759,11.077,10.137,27.4,14.973,36.993Zm38.576-11.83c2.46-1.183,4.629-2.151,6.874-3.182v-.338q-.22-2.269-.445-4.543l-.159-1.575c-1.23-6.937-4.09-13.8-6.283-20.327l-4.108,1.578c2.59094,9.638,3.551,18.65,4.122,28.385Z" transform="translate(0 1)"/><path id="パス_297" data-name="パス 297" class="cls-15" d="M1546.12473,168.35893c-2.546,2.256-5.351,5.529-9.248,7.665a13.086,13.086,0,0,1-16.274-3.185,30.36849,30.36849,0,0,1-1.829-8.4c-.482-10.765-1.976-16.548-8.083-25.21,3.486-1.9,7.031-3.925,9.237-6,3.174,13.785,16.7,18.95,26.2,35.13Zm-7.212-45.756a37.21635,37.21635,0,0,1,6.461,9.818,106.82335,106.82335,0,0,1,7.167,32.2c5.095-2.486,10.017-5.265,11.451-11.425a16.845,16.845,0,0,0-2.711-13.657c-4.794-7.005-6.325-10.8-8.85-18.063l-7.712-2.036Z" transform="translate(0 1)"/><path id="パス_298" data-name="パス 298" class="cls-16" d="M1515.39872,137.53793l-2.125,2.109c2.418,3.428,5.7,8.625,5.922,14.57.23,6.092,1.34,11.741,2.97,15.3,2.6,5.652,7.159,6.667,12.867,5.124a13.85206,13.85206,0,0,0,9.2-8.033C1539.97272,158.91892,1519.40772,141.30093,1515.39872,137.53793Z" transform="translate(0 1)"/><path id="パス_299" data-name="パス 299" class="cls-17" d="M1542.20771,118.37892c3.826,1.133,6.411,2.766,9.344,8.923l-3.4,2.81,4.286,1.4c1.285,10.156,1.424,18.537.144,33.149-1.212-14.934-3.8-28.591-12.178-41.141C1539.8057,122.62792,1541.09571,118.04591,1542.20771,118.37892Z" transform="translate(0 1)"/><path id="パス_300" data-name="パス 300" class="cls-12" d="M1516.25769,149.22994c-2.682,1.35-9.088,16.459-11.592,12.956-5.673-7.937-8.633-17.844-.385-25.11,8.829-7.774,23.158-15.062,34.544-19.838,5.3-2.222,8.892-1.845,11.307-.152l-4.242,1.714-25.061,11.307c-3.745,3.1-6.387,6.364-10.137,9.564C1513.0857,143.07195,1514.8577,145.16094,1516.25769,149.22994Z" transform="translate(0 1)"/><g id="グループ_131" data-name="グループ 131"><path id="パス_301" data-name="パス 301" class="cls-18" d="M1521.1297,127.28594c-.892,6.416,15.258,12.819,20.775,7.28.361-7.562.583-12.626,4.668-20.539l-18.21-7.183-4.613-2.015C1526.1037,114.45993,1524.43772,119.01993,1521.1297,127.28594Z" transform="translate(0 1)"/><path id="パス_302" data-name="パス 302" class="cls-19" d="M1520.97471,125.90292a1.22653,1.22653,0,0,0-.026.332c8.431-9.1,16.572-5.875,23.022-8.026a21.77112,21.77112,0,0,1,.877-2.146c.57-1.612.809-1.348,1.567-3.42l-18.207-7.186-4.613-2.012C1525.94669,113.07391,1524.28272,117.62991,1520.97471,125.90292Z" transform="translate(0 1)"/></g><g id="グループ_133" data-name="グループ 133"><path id="パス_303" data-name="パス 303" class="cls-20" d="M1546.87069,99.84992l-8.719-3.03v-14.191l3.991-11.09C1553.8727,75.64691,1553.08773,97.43192,1546.87069,99.84992Z" transform="translate(0 1)"/><path id="パス_304" data-name="パス 304" class="cls-21" d="M1522.48272,118.30193c-8.245-3.161-14.062-17.093-13.95-26.3a34.97523,34.97523,0,0,1,3.007-13.217c2.57-5.388,7.9-9.166,16.687-9.363,2.627-.06-4.888,2.237-1.494,3.65l-2.4,23.47C1525.25372,107.53694,1526.09072,107.87193,1522.48272,118.30193Z" transform="translate(0 1)"/><path id="パス_305" data-name="パス 305" class="cls-7" d="M1542.26769,117.66393c-10.577-1.895-14.515-6.081-19.008-15.457-4.87-1.879-7.222-3.836-8.269-6.38-2.483-6.032-.657-13.691,3.174-18.608,3.349-4.3,7.921-6.437,13.628-6.647,11.087-.4,16.577,5.5,19.471,14.434.557,1.727.432,5.7.309,7.586-.207,3.169,1.008,2.036,1.57,5.1a52.83251,52.83251,0,0,1-.3,11.828c-.4,3.208.141,6.3-1.274,7.12C1550.13573,117.48293,1547.0957,118.52794,1542.26769,117.66393Z" transform="translate(0 1)"/><path id="パス_306" data-name="パス 306" class="cls-18" d="M1542.26769,117.66393c-10.6-1.895-14.515-6.081-19.008-15.457-4.87-1.879-7.222-3.836-8.269-6.38-2.483-6.032-.657-13.691,3.174-18.608,3.349-4.3,7.921-6.437,13.628-6.647a19.72,19.72,0,0,1,16.37,7.719c-.968,6.466-8.525,14.455-11.791,16.883-2.059,1.533-2.682,2.107-2.667,3.881.029,3.721,4.224,3.056,4.666,4.731.455,1.711-3.834,2.876-1.9,7.345.544,1.251,4.629,5.435,6.448,6.639C1542.71172,117.74992,1542.48974,117.69994,1542.26769,117.66393Z" transform="translate(0 1)"/><path id="パス_307" data-name="パス 307" class="cls-21" d="M1548.32772,76.62293c-7.9,20.324-25.045,24.215-24.867,28.572.136,3.373-6.817-2.028-8.612-4.959a21.57,21.57,0,0,1,3.334-26.128C1526.97271,65.53493,1543.13369,68.23493,1548.32772,76.62293Z" transform="translate(0 1)"/><path id="パス_308" data-name="パス 308" class="cls-20" d="M1524.46871,111.41692c-10.122-4.956-15.8-13.618-15.42-22.957.034.2.073.4.115.6.652-3.046,1.675-7.322,4.527-9.146-1.845,2.855-3.608,8.9-2.588,13.4.233-4.684,1.5-6.84,4.161-11.32a34.17741,34.17741,0,0,0-1.847,11.595c.675-3.465,3.3-8.881,5.265-10.255a16.58,16.58,0,0,0-2.172,13.4c.131-4.407,2.583-10.577,5.636-12.382-1.4,2.02-3.122,6.756-2.632,9.517,1.544-3.695,1.5-4.43,4.757-8.13a22.81922,22.81922,0,0,0-2.216,8.363c1.348-2.525,2.373-4.836,4.205-7.67-.67,1.9-2.274,8.222-1.895,10.116.51-1.191,5.728-6.38,8.01-8.415-2.088,3.923-4.485,8.128-6.824,10.1-.277.675,9.441-4.49,19.8-16.5-4.87,9.784-13.275,13.919-20.523,20.73l.335,3.972A12.95182,12.95182,0,0,1,1524.46871,111.41692Z" transform="translate(0 1)"/><g id="グループ_132" data-name="グループ 132"><path id="パス_309" data-name="パス 309" class="cls-18" d="M1521.0037,95.81393c-4.378-1-3.894,3.886-2.928,6.775.662,1.986,2.324,1.662,3.1,3.2a3.859,3.859,0,0,0,3.765,2.4c2.567-.34.576-4,.11-5.482C1525.09071,100.19892,1523.78272,96.44693,1521.0037,95.81393Z" transform="translate(0 1)"/><path id="パス_310" data-name="パス 310" class="cls-19" d="M1523.43571,101.39492c-1.115-1.908-1.782-4.441-4.619-3.834C1521.34672,97.50193,1522.13972,99.71293,1523.43571,101.39492Z" transform="translate(0 1)"/></g><path id="パス_311" data-name="パス 311" class="cls-20" d="M1508.67571,90.46292c-1.324,6.05,1.806,21.073,14.34,30.174.819-1.034,2.041-7.374,1.727-9.967C1512.55373,101.78392,1515.59173,105.64792,1508.67571,90.46292Z" transform="translate(0 1)"/><path id="パス_312" data-name="パス 312" class="cls-22" d="M1547.57473,77.42893c-1.248-5.561-10.294-9.525-20.07-7.984-4.569.327-11.051,2.264-13.824,6.505a26.5749,26.5749,0,0,1,13.455-5.469c-3.109.832-9.818,3.674-12.27,8.8a20.59994,20.59994,0,0,1,12.785-7.542c-4.878,2.065-5.961,3.567-8.646,7.17,3.271-2.761,6.654-5.265,10.606-6.393-3.525,2.044-4.82,3.527-6.762,7.429,3.946-3.8,4.08-5.137,9.462-6.654-1.724,1.437-5.527,4.919-7.246,8.057a65.08419,65.08419,0,0,1,9.868-6.725,39.27943,39.27943,0,0,0-6.024,7.39c2.8-2.366,5.05-4.558,9.386-6.576-3.684,3.412-6.249,5.956-8.8,10.273a76.75495,76.75495,0,0,1,10.313-8.834c-2.279,3.336-3.894,5.273-6.21,8.612a73.23949,73.23949,0,0,0,10.09-9.166c-1.991,2.928-7.984,11.236-10.5,14.047,3-2.295,10.15-10.205,12.2-12.937-.725,3.14-3,6.545-5.655,9.35C1543.07668,84.51993,1545.51272,81.07393,1547.57473,77.42893Z" transform="translate(0 1)"/></g><path id="パス_313" data-name="パス 313" class="cls-17" d="M1518.77771,125.89893c-7.418,7.159-4.778,12.979.853,21.531l5.079-1.4-1.706,5.116c11.352,5.524,16.041,8.978,23.226,17.574C1535.31275,146.637,1517.47974,140.22792,1518.77771,125.89893Z" transform="translate(0 1)"/><g id="グループ_134" data-name="グループ 134"><path id="パス_314" data-name="パス 314" class="cls-23" d="M1536.76371,135.70693c.955,4,1.128,4.066,4.616,6.7l-.05.084c-.463,2.065-.756,3.818-1.049,5.914,7.1,16.747,9.078,19.312,13.2,38.511a266.6893,266.6893,0,0,0-5.945-44.5,11.68244,11.68244,0,0,0-3.263-1.227c1.1-4.663.531-7.678-.408-8.235C1540.53071,132.83093,1539.14372,133.22492,1536.76371,135.70693Z" transform="translate(0 1)"/><path id="パス_315" data-name="パス 315" class="cls-24" d="M1536.76371,135.70692c.955,4,1.128,4.066,4.616,6.7l-.05.084c-.463,2.065-.756,3.818-1.049,5.914,7.036,16.588,9.038,19.265,13.089,37.969-2.18-14.382-3.886-24.014-10.485-38.791a31.25511,31.25511,0,0,1,.518-5.694c-2.245-2.973-4.079-5.014-4.684-7.892A12.11234,12.11234,0,0,0,1536.76371,135.70692Z" transform="translate(0 1)"/></g><path id="パス_316" data-name="パス 316" class="cls-25" d="M1522.46372,121.64092c-.853,5.262,10.054,9.682,18.011,11.574-2.771,1.635-3.59,3.022-5.043,8.065-5.736-1.57-13.222-2.711-16.773-10.245C1516.35071,126.13393,1519.96472,124.25992,1522.46372,121.64092Z" transform="translate(0 1)"/><path id="パス_317" data-name="パス 317" class="cls-21" d="M1545.83374,118.01993c6.144,5.914,7.659,21.774,8.625,40.568-2.9-13.837-9.59-30.671-11.8-32.968a33.69874,33.69874,0,0,1,1.117-4.872,21.31761,21.31761,0,0,1,1.03-2.754Z" transform="translate(0 1)"/><path id="パス_318" data-name="パス 318" class="cls-20" d="M1554.45972,158.58792c-2.9-13.837-9.368-30.927-12.027-31.38a27.3354,27.3354,0,0,1,1.123-5.718C1550.77771,126.56893,1554.44568,158.38092,1554.45972,158.58792Z" transform="translate(0 1)"/><path id="パス_319" data-name="パス 319" class="cls-25" d="M1540.37873,133.19792a32.17411,32.17411,0,0,0,2.057-8.306c2.253.076,3.339,4.4,5.016,9.431A11.689,11.689,0,0,0,1540.37873,133.19792Z" transform="translate(0 1)"/><path id="パス_320" data-name="パス 320" class="cls-16" d="M1530.27872,199.17293c.858,9.2.065,16.561-.966,20.416-2.318,8.688-8.1,18.977-10.818,31.715,11.744-.183,32.806-13.1,32.812-13.2.518-12.723,3.655-38.8-3.132-61.125-4.341,4.624-8.994,6.639-12.673,8.646C1527.42072,190.02992,1529.50574,190.90694,1530.27872,199.17293Z" transform="translate(0 1)"/><path id="パス_321" data-name="パス 321" class="cls-16" d="M1558.11972,188.22192c.055-6.89,1.861-14.766,1.133-18.906-1.74,1.842-3.075,1.738-5.425,2.457-.05,5.137,1.227,15.1,1.769,20.691,1.457,15.031,2.687,27.706,2.433,43.025,3.258-.782,5.592-4.066,7.518-6.359a137.41527,137.41527,0,0,0-2.811-22.5C1560.72074,198.24692,1558.07871,193.37393,1558.11972,188.22192Z" transform="translate(0 1)"/></g><path id="パス_322" data-name="パス 322" class="cls-15" d="M1522.9617,260.48591c1.769,3.643,7.649,19.217,11.663,30.3,2.53,6.987,4.553,13.882,5.678,14.675,1.816,1.282,6.445,2.821,7.387-3.2.523-3.344-3.472-19.089-3.7-20.191-2.156-10.5-5.749-25.924-6.353-28.928C1531.03171,257.39393,1530.43869,257.82493,1522.9617,260.48591Z" transform="translate(0 1)"/><path id="パス_323" data-name="パス 323" class="cls-15" d="M1546.4267,312.21192l-8.261,1.044c-12.573,21.528-12.5,37.618-17.441,67.852,1.939.7,4.624.856,6.257-.183,2.933-13.029,2.528-18.848,5.639-30.585,1.607-6.063,3.65-12.131,5.681-18.582C1541.70374,320.94891,1539.5567,323.13193,1546.4267,312.21192Z" transform="translate(0 1)"/><g id="グループ_138" data-name="グループ 138"><path id="パス_324" data-name="パス 324" class="cls-15" d="M1496.34372,147.86892c-4.252,11.543-7.089,29.161-8.572,41.075-.235,1.879-1.026,5.4-.9,6.908.39,4.655,11.3,10.1,14.332-2.572,1.782-7.455,4.906-14.209,9.049-28.117,4.205-14.1,1.408-24.378-4.624-26.134C1501.38571,137.79492,1497.97373,143.44393,1496.34372,147.86892Z" transform="translate(0 1)"/><path id="パス_325" data-name="パス 325" class="cls-12" d="M1496.34372,147.86892c-4.252,11.543-7.089,29.161-8.572,41.075-.235,1.879-1.026,5.4-.9,6.908.34,4.053,8.656,8.706,12.8,1.473-2.988-1.044-4.985-1.889-5.383-2.4-1.117-1.437-.636-2.622-.057-5.254,3.739-17.011,7.667-33.5,12.027-50.42a5.62931,5.62931,0,0,0-.631-.222C1501.38571,137.79492,1497.97373,143.44393,1496.34372,147.86892Z" transform="translate(0 1)"/><g id="グループ_136" data-name="グループ 136"><path id="パス_326" data-name="パス 326" class="cls-26" d="M1509.85271,151.02992l3.215-1.81v65.606l-3.215,1.808Z" transform="translate(0 1)"/><path id="パス_327" data-name="パス 327" class="cls-27" d="M1513.0657,149.21993l36.037,20.488v65.606l-36.037-20.488Z" transform="translate(0 1)"/><path id="パス_328" data-name="パス 328" class="cls-28" d="M1513.10271,150.28493l34.629,19.618-.193,64.137-3.1,1.754-31.33606-22.816-3.03-60.957Z" transform="translate(0 1)"/><path id="パス_329" data-name="パス 329" class="cls-29" d="M1509.85271,151.02992l36.037,20.489v65.6l-36.037-20.489Z" transform="translate(0 1)"/></g><path id="パス_330" data-name="パス 330" class="cls-30" d="M1529.51169,211.61291l-5.922-2.112.963-6.654c3.232-1.944,5.668-2.593,7.039-2.039.11.045.589.194.686.257C1534.36072,202.3839,1532.10971,212.26492,1529.51169,211.61291Z" transform="translate(0 1)"/><g id="グループ_137" data-name="グループ 137"><path id="パス_331" data-name="パス 331" class="cls-18" d="M1541.07473,217.061a33.64636,33.64636,0,0,0,8.622-2.954c1.45-.68,1.9-10.93,1.73-10.956-1.827.317-7,2.612-8.949,2.857-2.368-.748-11.331-3.624-13.7-4.37l-2.24,4.708-1.07,4.2a14.31029,14.31029,0,0,1,3.768.759C1532.63571,212.78,1538.3977,217.01392,1541.07473,217.061Z" transform="translate(0 1)"/><path id="パス_332" data-name="パス 332" class="cls-7" d="M1542.03472,207.71693c3.394-.589,6.626-3.164,8.965-4.263.288-.133.414-.23.427-.3.05-.264-1.753-.277-2.436-.055-1.316.432-5.079,2.25-7.031,2.5-2.368-.748-9.02-3.37-11.328-4.3l-1.949.157C1531.98373,203.02793,1538.13873,206.41294,1542.03472,207.71693Z" transform="translate(0 1)"/><path id="パス_333" data-name="パス 333" class="cls-7" d="M1544.7467,203.86494c.4,2.818-3.9,1.479-4.974.981-.934-.076-9.067-2.229-7.767-2.638a13.315,13.315,0,0,1,6.673-.476c1.421.38,1.471.913,3.017,1.413A15.9766,15.9766,0,0,0,1544.7467,203.86494Z" transform="translate(0 1)"/></g><path id="パス_334" data-name="パス 334" class="cls-15" d="M1487.28473,197.88093a8.251,8.251,0,0,0,3.064,4.1c1.554,1.177,3.841,1.693,6.189,2.776,9.083,4.2,18.89,4.93,33.021,6.879-1.889-2.965-.523-10,2.724-10.566a302.81089,302.81089,0,0,0-31.687-10.848,23.69374,23.69374,0,0,0-4.433-.864C1491.37973,191.086,1484.97873,191.23194,1487.28473,197.88093Z" transform="translate(0 1)"/><path id="パス_335" data-name="パス 335" class="cls-12" d="M1487.28473,197.87794a8.2509,8.2509,0,0,0,3.064,4.1c1.554,1.177,3.841,1.693,6.189,2.776,9.083,4.2,18.89,4.93,33.021,6.879a8.334,8.334,0,0,1-.693-5.534c-14.578-4.182-33.259-9.483-34.575-11.171-1.07-1.376-.672-2.523-.128-4.933C1489.80972,191.24592,1485.29071,192.12794,1487.28473,197.87794Z" transform="translate(0 1)"/></g></g></g><g id="グループ_149" data-name="グループ 149"><g id="グループ_147" data-name="グループ 147"><g id="グループ_141" data-name="グループ 141"><path id="パス_336" data-name="パス 336" class="cls-31" d="M1598.21577,111.01979s-4.686,0-4.686-4.686V73.53688s0-4.68188,4.686-4.68188h16.3999s4.68091,0,4.68091,4.68188v32.80005s0,4.686-4.68091,4.686Z" transform="translate(0 1)"/><rect id="長方形_103" data-name="長方形 103" class="cls-32" x="1595.87573" y="75.71393" width="21.084" height="30.45"/></g><g id="グループ_146" data-name="グループ 146"><g id="グループ_143" data-name="グループ 143"><g class="cls-33"><g id="グループ_142" data-name="グループ 142"><path id="パス_337" data-name="パス 337" class="cls-34" d="M1661.45269,134.28581a2.344,2.344,0,0,1-2.334,2.354H1621.6358a2.347,2.347,0,0,1-2.33911-2.354l2.33911-5.73193c.39111-1.17993,1.052-2.35108,2.34595-2.35108h32.79c1.29394,0,1.855,1.2229,2.34692,2.35108Zm-3.512-10.437a2.349,2.349,0,0,1-2.33911,2.354h-30.45093a2.3518,2.3518,0,0,1-2.345-2.354V103.8549a2.34909,2.34909,0,0,1,2.345-2.35009h30.45191a2.34691,2.34691,0,0,1,2.33911,2.35009Z" transform="translate(0 1)"/></g></g></g><g id="グループ_145" data-name="グループ 145"><g class="cls-35"><g id="グループ_144" data-name="グループ 144"><path id="パス_338" data-name="パス 338" class="cls-36" d="M1663.79769,134.387h-44.5l1.166,4.75708h43.33692Z" transform="translate(0 1)"/></g></g></g><path id="長方形_105" data-name="長方形 105" class="cls-37" d="M1626.02173,103.85493h28.711a.868.868,0,0,1,.868.868h0v18.255a.871.871,0,0,1-.871.871h-28.711a.868.868,0,0,1-.868-.868h0v-18.255A.871.871,0,0,1,1626.02173,103.85493Z" transform="translate(0 1)"/><path id="パス_340" data-name="パス 340" class="cls-38" d="M1657.83184,130.83293l-.88989-2.5459a1.60849,1.60849,0,0,0-1.38891-.98388h-30.27417c-.647,0-1.062.48-1.35694,1.21289l-.80005,2.31689c-.258.7.523,1.175,1.16992,1.175h8.87207s1.1001-.053,1.29395-.71289c.2229-.75708.48511-1.8999.542-2.1001a1,1,0,0,1,1-.62793h10.04712a.85606.85606,0,0,1,.947.666c.04712.24292.36695,1.33789.51392,2.08911.12793.666,1.427.68506,1.427.68506h7.72095c.65088,0,1.43188-.552,1.17407-1.175" transform="translate(0 1)"/><path id="パス_341" data-name="パス 341" class="cls-36" d="M1645.49786,133.25407h-9.115a.6097.6097,0,0,1-.561-.78491c.062-.386.41895-2.1001.4419-2.3a.66128.66128,0,0,1,.613-.44189h8.22094a.61494.61494,0,0,1,.64307.57593c.07007.37988.353,1.92211.375,2.27392a.60031.60031,0,0,1-.61792.675" transform="translate(0 1)"/></g></g><g id="グループ_148" data-name="グループ 148"><path id="パス_342" data-name="パス 342" class="cls-39" d="M1631.64966,102.73305l14.32911-14.3291a2.93263,2.93263,0,0,0,.00488-4.13892h-.00488a2.92591,2.92591,0,0,0-4.13794-.00586l-.001.001V84.265l-14.3291,14.32911L1613.18165,84.265a2.927,2.927,0,0,0-4.13794,4.13892l14.323,14.3291-14.36109,14.36109a2.92812,2.92812,0,0,0,4.144,4.13793l14.36109-14.35693,14.3291,14.325a2.9231,2.9231,0,0,0,4.13306.01l.00488-.01a2.92692,2.92692,0,0,0,.00488-4.134l-.00488-.00488Z" transform="translate(0 1)"/></g></g></g></g></svg>