<svg id="レイヤー_1" data-name="レイヤー 1" xmlns="http://www.w3.org/2000/svg" viewBox="0 0 1251 207.5"><defs><style>.cls-1{fill:#fff;}.cls-2{fill:#2d7a3e;}.cls-3{fill:none;stroke:#707070;}.cls-4{fill:#00c22b;}.cls-5{fill:#00cf2e;}.cls-6{isolation:isolate;}</style></defs><rect class="cls-1" width="1251" height="207.5"/><g id="グループ_11" data-name="グループ 11"><g id="長方形_12" data-name="長方形 12"><rect class="cls-2" x="199.83576" y="31.99709" width="854.85804" height="163.06541" rx="29.64826"/><rect class="cls-3" x="200.18871" y="32.35005" width="854.15213" height="162.3595" rx="29.2953"/></g><rect id="長方形_10" data-name="長方形 10" class="cls-4" x="191.36483" y="12.9375" width="868.27035" height="170.12452" rx="24.70688"/><g id="_5-line" data-name=" 5-line"><rect id="長方形_11" data-name="長方形 11" class="cls-5" x="225.24855" y="46.11524" width="103.7689" height="103.7689" rx="7.9062"/><path id="パス_9" data-name="パス 9" class="cls-1" d="M317.36731,92.0538c0-14.2947-16.89457-29.88968-38.98675-29.88968-21.52393,0-38.98676,12.6704-38.98676,29.88968,0,15.88723,13.61279,29.01294,32.76486,30.94572a3.86482,3.86482,0,0,1,2.90764,1.72172,4.58269,4.58269,0,0,1,.71509,2.42057,30.9399,30.9399,0,0,1-.58449,5.247,1.29958,1.29958,0,0,0,1.78666,1.47818C286.16181,129.80591,317.36731,113.10689,317.36731,92.0538Z" transform="translate(-0.5)"/><path id="パス_10" data-name="パス 10" class="cls-5" d="M264.08515,99.20185h-5.84776V85.5566a1.94938,1.94938,0,1,0-3.89875,0v15.59427a1.949,1.949,0,0,0,1.949,1.949h7.79749a1.94938,1.94938,0,0,0,0-3.89875Z" transform="translate(-0.5)"/><path id="パス_11" data-name="パス 11" class="cls-5" d="M269.28348,83.60687a1.949,1.949,0,0,0-1.949,1.949h0v15.595a1.94938,1.94938,0,1,0,3.89875,0v-15.595a1.949,1.949,0,0,0-1.949-1.949Z" transform="translate(-0.5)"/><path id="パス_12" data-name="パス 12" class="cls-5" d="M287.47763,83.60687a1.949,1.949,0,0,0-1.949,1.949h0v9.74722L277.4064,84.38337a1.949,1.949,0,0,0-3.50909,1.1697v15.5978a1.949,1.949,0,0,0,3.83381,0V91.40436l8.12221,10.91621a1.93207,1.93207,0,0,0,1.62359.7765,2.043,2.043,0,0,0,.617-.09742,1.94972,1.94972,0,0,0,1.33205-1.8516V85.5566a1.949,1.949,0,0,0-1.94831-1.94973Z" transform="translate(-0.5)"/><path id="パス_13" data-name="パス 13" class="cls-5" d="M301.77232,95.30311a1.94938,1.94938,0,0,0,0-3.89875h-5.84776V87.50562h5.84776a1.94938,1.94938,0,0,0,0-3.89875h-7.79749a1.949,1.949,0,0,0-1.949,1.949h0v15.595a1.949,1.949,0,0,0,1.949,1.949h7.79749a1.94938,1.94938,0,0,0,0-3.89875h-5.84776v-3.898Z" transform="translate(-0.5)"/></g></g><g id="LINE登録はこちら" class="cls-6"><g class="cls-6"><path class="cls-1" d="M397.87354,123.76562H365.4248v-46.75h10.23731v38.99512h22.21143Z" transform="translate(-0.5)"/><path class="cls-1" d="M433.44873,123.76562H407.94922v-6.97949h7.63086v-32.79h-7.63086V77.01562h25.49951v6.98047h-7.63135v32.79h7.63135Z" transform="translate(-0.5)"/><path class="cls-1" d="M489.09521,123.76562h-9.86474L458.25977,89.4873v34.27832h-9.49268v-46.75h12.40869l18.42676,30.21583V77.01562h9.49267Z" transform="translate(-0.5)"/><path class="cls-1" d="M539.12646,123.76562H506.55371v-46.75h32.57275v7.75586H516.729v9.98926h20.81543v7.72461H516.729v13.52539h22.39746Z" transform="translate(-0.5)"/><path class="cls-1" d="M566.29541,118.709l-2.20264-5.61523h-5.832V96.80762q-2.48217,1.21-5.21142,2.32715l-3.87793-6.42188a53.01566,53.01566,0,0,0,9.02734-4.4668q-4.43628-3.59764-6.11133-4.87109l4.77735-4.90039h-2.66748V71.86719h30.18359a26.33914,26.33914,0,0,0,3.93994,5.05664,51.26162,51.26162,0,0,0,8.18945-6.3291l5.646,4.77734a69.53069,69.53069,0,0,1-8.65479,6.3291q1.39527,1.11621,2.79151,2.13965a70.614,70.614,0,0,0,8.65527-6.7627L610.501,82.166q-3.56763,2.82274-7.81739,5.6455a61.51093,61.51093,0,0,0,9.33741,3.94043l-5.02539,6.85547a51.34009,51.34009,0,0,1-4.77735-2.10937v16.5957h-5.55273l-2.668,5.61523H609.167v7.35254H551.96338V118.709Zm-8.438-40.23437,6.98,5.24219a48.197,48.197,0,0,0,5.86328-5.24219Zm1.67529,17.68164h42.03418a81.08332,81.08332,0,0,1-8.03466-4.77734V93.334H567.78467V91.16211A77.41839,77.41839,0,0,1,559.53271,96.15625Zm34.12354,10.67187v-4.59179H566.7915v4.59179ZM572.93408,87.12891h14.95215a56.874,56.874,0,0,1-7.56934-7.56836A51.52642,51.52642,0,0,1,572.93408,87.12891Zm.40332,25.96484,2.04737,5.61523h9.77148l2.2959-5.61523Z" transform="translate(-0.5)"/><path class="cls-1" d="M644.15332,118.49219v5.33593a44.23944,44.23944,0,0,1-5.832,1.24024q-3.72363.58887-17.80713,2.26465l-.93066-6.17285q3.16479-.186,10.60986-.93067V103.0127H621.6001V97.21094h8.59326V92.2168h-4.83984v-2.668a39.45406,39.45406,0,0,1-3.50538,2.85449l-2.73-5.46A35.18355,35.18355,0,0,0,625.54,79.73047a30.904,30.904,0,0,0,4.374-8.8252H637.794q1.73583,4.188,7.8789,9.43067l-3.87793,5.21094a26.18069,26.18069,0,0,1-7.41406-8.28223,29.16458,29.16458,0,0,1-5.95606,9.21387h13.5254V92.2168h-5.14942v4.99414h7.47656v5.80176h-7.47656v16.50292Q641.88818,118.896,644.15332,118.49219Zm-15.88379-1.05469-5.33545,1.05469-1.458-11.88184,5.33545-.99219Zm16.47266-12.28516L642.69531,116.041l-4.18847-.46485,1.64453-10.85742Zm12.93652,8.99707q-2.54443,1.92334-12.12988,6.32813l-2.35742-6.42188a97.06044,97.06044,0,0,0,12.90429-5.95605l1.583,5.18066V96.4043H644.40137V90.418H666.333V86.72656h-19.5127v-5.584H666.333V77.5127H646.2627V71.86719h28.07421V90.418h5.27344V96.4043H665.30957v1.14843a30.13762,30.13762,0,0,0,3.22559,7.59961,50.66171,50.66171,0,0,0,6.94922-7.41406l5.39746,4.8711a55.02233,55.02233,0,0,1-8.53028,7.47558,50.11744,50.11744,0,0,0,9.36817,8.87207l-5.49121,5.708a39.59672,39.59672,0,0,1-10.91895-12.9668v10.17481a4.5304,4.5304,0,0,1-1.87695,3.6455,6.94407,6.94407,0,0,1-4.48242,1.50391h-7.53809l-.89941-6.4209h5.335q1.831,0,1.83105-1.582Zm-1.707-7.44531-6.4209,2.32617q-1.21-3.50537-4.06348-10.082l6.11036-1.98535Q654.26659,102.26856,655.97168,106.7041Z" transform="translate(-0.5)"/><path class="cls-1" d="M705.81738,74.47266q-3.81445,13.80468-3.81543,23.917a97.28446,97.28446,0,0,0,3.56739,26.08984l-8.7168,1.76758a101.68225,101.68225,0,0,1-3.41211-25.6543,112.16229,112.16229,0,0,1,3.62891-27.33007Zm46.06739,42.4375-5.02539,7.10351a58.88,58.88,0,0,0-8.96583-6.94824,9.29942,9.29942,0,0,1-3.27246,6.97949q-2.96337,2.3877-10.99707,2.38867a16.49922,16.49922,0,0,1-9.77148-2.80761,8.84988,8.84988,0,0,1-3.9707-7.61524,9.38578,9.38578,0,0,1,4.00195-7.833,15.24186,15.24186,0,0,1,9.46094-3.02539,52.30644,52.30644,0,0,1,5.73925.37305V91.6582H708.95117V83.96484H729.084V72.7041h8.87207V83.96484h11.57129V91.6582H737.95605v16.53418A60.0748,60.0748,0,0,1,751.88477,116.91016ZM729.084,115.1416v-2.17187a15.67407,15.67407,0,0,0-5.73925-.96094,6.63146,6.63146,0,0,0-3.61426,1.00781,3.0099,3.0099,0,0,0-1.59766,2.6211,2.79758,2.79758,0,0,0,1.64453,2.52832,7.777,7.777,0,0,0,3.84668.915Q729.0835,119.08105,729.084,115.1416Z" transform="translate(-0.5)"/><path class="cls-1" d="M816.03027,124.417a187.19918,187.19918,0,0,1-22.21093,1.48926q-16.47217,0-22.708-3.28809-6.23584-3.28857-6.23535-9.71,0-8.09619,8.59277-14.61132l6.17383,4.62207q-5.89453,5.61621-5.89453,9.21386a4.803,4.803,0,0,0,.37207,1.93848,4.2929,4.2929,0,0,0,1.81543,1.72168,15.56541,15.56541,0,0,0,5.25781,1.42676,71.37048,71.37048,0,0,0,9.67871.58984h2.26465a146.52137,146.52137,0,0,0,21.52832-1.6748Zm-2.29589-39.39746a30.43115,30.43115,0,0,0-4.48243,1.16406q-2.46533.82179-4.04785,1.53516-1.582.71484-11.72656,5.67676l-3.81543-5.46q1.1792-.49512,7.19727-3.34961-9.18312.09228-27.57813.74414l-.24805-7.69336q8.80958-.31055,33.56446-.31055,5.70849,0,8.25195.03125Z" transform="translate(-0.5)"/><path class="cls-1" d="M888.17969,88.74219H854.64551A43.4207,43.4207,0,0,1,851.5127,97.459a44.6775,44.6775,0,0,1,14.51757-2.63671q8.59278,0,14.22364,3.89355a12.42213,12.42213,0,0,1,5.62988,10.81055q0,8.59423-7.64649,13.01367-7.64648,4.42089-20.61328,4.4209h-2.668a96.06028,96.06028,0,0,1-9.958-.58985l-.65137-7.8789q7.8794.65186,14.79687.65136a29.12768,29.12768,0,0,0,12.34668-2.34179q5.02589-2.3423,5.02539-6.74805a6.73859,6.73859,0,0,0-2.85351-5.84668,13.266,13.266,0,0,0-7.81738-2.03223,34.21292,34.21292,0,0,0-12.58008,2.46582,32.3186,32.3186,0,0,0-10.68653,6.68555l-5.33593-5.39746a44.69035,44.69035,0,0,0,8.5-17.18652H831.56543V81.17383h15.542a68.77466,68.77466,0,0,0,.46485-8.93555l9.15136.0625q-.09228,3.00879-.52734,8.873h31.9834Z" transform="translate(-0.5)"/><path class="cls-1" d="M915.31836,127.39551l-1.27246-7.87989q16.19385,0,24.64648-2.49707,8.45361-2.49755,8.45313-8.17382a7.43827,7.43827,0,0,0-3.00879-6.375q-3.00879-2.21778-8.28223-2.21875a32.88967,32.88967,0,0,0-13.89844,3.19531,30.60015,30.60015,0,0,0-11.167,8.43848l-6.79394-4.002q4.68311-10.88819,5.27343-26.30664l9.15137.52735a67.60835,67.60835,0,0,1-2.72949,16.37988,35.93765,35.93765,0,0,1,9.57031-4.002,39.66562,39.66562,0,0,1,10.5-1.582q9.709,0,15.18555,4.09473,5.47411,4.09423,5.47461,11.85059a14.3157,14.3157,0,0,1-3.56738,9.833q-3.5669,4.03419-10.98145,6.11133Q934.4585,126.86767,915.31836,127.39551Zm36.72852-48.54883-4.06348,7.87988a82.23389,82.23389,0,0,0-16.41016-4.623q-9.958-1.89113-16.62793-2.48145l2.38867-7.44531A180.16111,180.16111,0,0,1,952.04688,78.84668Z" transform="translate(-0.5)"/></g></g><path id="多角形_2" data-name="多角形 2" class="cls-1" d="M1026.60441,104.353,998.368,121.64777V87.05814Z" transform="translate(-0.5)"/></svg>