<svg id="レイヤー_1" data-name="レイヤー 1" xmlns="http://www.w3.org/2000/svg" viewBox="0 0 1920 150"><defs><style>.cls-1{fill:#fff;}.cls-2{isolation:isolate;}.cls-3{fill:#464646;}.cls-4{fill:#00c22b;}.cls-5{fill:#fce300;}</style></defs><rect class="cls-1" width="1920" height="150"/><g id="_LINE診断を無料0円でしてみましょう_" data-name=" LINE診断を無料0円でしてみましょう " class="cls-2"><g class="cls-2"><path class="cls-3" d="M133.17871,34.59229l-13.96484,28.6621H108.91113l7.959-28.6621Zm24.07227,0-13.96485,28.6621H132.9834l7.959-28.6621Z" transform="translate(0)"/></g><g class="cls-2"><path class="cls-4" d="M250.56152,111.44824H199.4873V37.86377h16.11329V99.24121h34.96093Z" transform="translate(0)"/><path class="cls-4" d="M296.55762,111.44824H256.4209V100.46191h12.01172V48.8501H256.4209V37.86377h40.13672V48.8501H284.5459v51.61181h12.01172Z" transform="translate(0)"/><path class="cls-4" d="M374.14551,111.44824H358.61816L325.61035,57.49268v53.95556H310.669V37.86377H330.2002l29.0039,47.55908V37.86377h14.94141Z" transform="translate(0)"/><path class="cls-4" d="M442.89551,111.44824H391.626V37.86377h51.26953v12.207H407.6416V65.79346h32.76367V77.95215H407.6416V99.24121h35.25391Z" transform="translate(0)"/><path class="cls-4" d="M487.3291,53.04932H452.124V43.28369H487.3291ZM486.1084,112.669h-20.166v3.61328H454.22363V83.46973H486.1084Zm-.293-73.48682H455.542V30.49072h30.27344Zm-.48828,26.709h-29.6875V57.34619h29.6875Zm0,13.08643h-29.6875V70.3833h29.6875ZM474.34082,104.0752V92.16113H466.333V104.0752Zm73.291-50.68409-7.12891,9.86328A73.65729,73.65729,0,0,1,515.64941,40.647q-8.49609,13.916-24.707,22.41211L484.74121,54.563A50.26847,50.26847,0,0,0,498.291,44.62646a60.41129,60.41129,0,0,0,11.54785-16.04h12.01172Q529.76073,44.11377,547.63184,53.39111Zm-21.38672,1.5625q-5.2251,6.49512-15.06348,13.501a116.52976,116.52976,0,0,1-18.77441,11.10889L486.30371,70.481q20.84911-10.35058,30.12695-22.2168Zm11.084,14.59961q-7.56885,8.0083-20.874,16.21143a121.73179,121.73179,0,0,1-25.415,12.207l-4.58984-9.91211a109.62894,109.62894,0,0,0,23.584-11.84082q11.47411-7.54469,17.77344-14.52686Zm9.7168,15.72315q-9.375,10.2539-26.04981,19.18945-16.675,8.93555-30.68847,12.01172l-3.85742-10.49805q11.86523-2.92968,27.6123-11.66992,15.74707-8.73925,23.55957-17.5293Z" transform="translate(0)"/><path class="cls-4" d="M599.53613,99.19238l-.09765,4.541a62.74708,62.74708,0,0,0,5.7373-18.53028,131.70771,131.70771,0,0,0,1.63574-20.53271V35.08057q19.09131-1.36671,33.39844-6.49414l5.61524,9.96093q-8.64258,3.126-26.709,5.61524V57.688h26.416V68.38135H638.208v47.0708h-12.5V68.38135h-6.64063a110.535,110.535,0,0,1-3.63769,26.2456,74.0988,74.0988,0,0,1-10.13184,21.75293l-8.49609-6.59179H565.69824v4.0039h-11.084V31.272h11.084V99.19238ZM581.51855,78.48926a60.85827,60.85827,0,0,1-9.71679,12.69531L566.04,84.59277a78.091,78.091,0,0,0,13.28125-21.33838H568.042V54.95361h13.47656V29.17236h9.91211V54.95361h12.30469v8.30078H593.335A85.75672,85.75672,0,0,0,604.02832,76.292l-5.51758,7.86133a63.21841,63.21841,0,0,1-7.08008-8.44775V97.38574h-9.91211Zm-1.51367-26.12354-8.59375,1.416-2.97851-18.21289,8.49609-1.31836Zm25.293-17.1875L600.708,53.58643l-8.00781-1.31836,3.61328-18.60352Z" transform="translate(0)"/></g><g class="cls-2"><path class="cls-3" d="M701.65527,104.94434H690.52246l.03906-15.35157q-13.9453,6.83643-13.94531,12.77344,0,5.89893,13.4375,5.89844l4.33594-.03906q17.89014,0,26.5625-1.28907l.54687,9.76563q-10.97754,1.05468-21.52343,1.05469-20.27345,0-27.1875-3.457T665.874,103.61621q0-11.874,22.69532-23.32031a3.6436,3.6436,0,0,0-3.04688-1.28906q-3.67236,0-9.16016,2.61718A56.73562,56.73562,0,0,0,663.999,90.25684q-4.7666,4.21875-6.83593,5.70312l-6.79688-7.34375Q663.96,78.53808,670.91309,66.11572H654.2334V56.85791h20.74219a66.72894,66.72894,0,0,0,2.46093-8.86719l11.48438.625q-1.09423,4.84423-2.22656,8.24219h25.78125v9.25781H682.94434q-1.01661,2.03173-3.75,6.25a23.901,23.901,0,0,1,7.5-1.28906q7.96875,0,11.48437,4.92188,5.07716-2.187,21.40625-8.59375l4.57031,9.29736q-7.69629,2.61768-22.96875,8.20312a47.78122,47.78122,0,0,1,.39063,6.28907Z" transform="translate(0)"/></g><g class="cls-2"><path class="cls-5" d="M826.31348,111.69238l-13.28125,4.29688q-1.36743-3.32081-5.46875-10.83985l-5.46875-10.20507,9.86328-2.88086H734.419V81.07715h9.9121V70.09033H733.00293V59.05518H745.1123V52.854a84.49821,84.49821,0,0,1-8.98437,5.90821l-7.71484-8.4961q15.8203-10.0576,22.50976-23.584l12.98828,3.27148q-1.36743,2.5393-4.19922,7.32422H821.1377v10.791h-7.32422V59.05518h10.69336V70.09033H813.81348V81.07715H821.919V92.06348H814.79A105.62642,105.62642,0,0,1,826.31348,111.69238Zm-71.875-15.72265a74.99433,74.99433,0,0,1-5.0293,11.377,74.82831,74.82831,0,0,1-6.20117,10.20508l-12.793-4.29688q8.30053-12.353,11.2793-19.67773Zm3.07617-47.90088V59.05518h6.20117V48.06885Zm0,22.02148V81.07715h6.20117V70.09033Zm18.50586,44.58057-13.1836,2.19726-4.73632-20.80078,12.30468-2.00195Q775.43408,109.88574,776.02051,114.6709Zm-.09766-66.602V59.05518h6.29883V48.06885Zm0,33.0083h6.29883V70.09033h-6.29883Zm24.60938,32.17773-13.23243,2.92969-8.10546-20.99609,12.207-2.63672q1.51319,2.92968,4.90722,10.52246Q799.7019,110.668,800.53223,113.25488Zm-6.10352-54.1997h6.39649V48.06885h-6.39649Zm0,22.022h6.39649V70.09033h-6.39649Z" transform="translate(0)"/><path class="cls-5" d="M848.53027,91.47754a81.524,81.524,0,0,1-11.62109,14.99023l-7.27539-7.27539a90.43429,90.43429,0,0,0,10.30273-14.08691,82.24347,82.24347,0,0,0,8.1543-16.52881H832.417V58.66455h16.11328V28.58643H860.835V58.66455h12.69531v9.91211H860.835v2.53906a65.56912,65.56912,0,0,0,13.67188,13.23291l-.87891,1.46485L903.999,82.29785V51.9751l-6.98242,8.6914q-13.76954-15.52734-18.11523-19.18945l8.30078-9.32617a141.88226,141.88226,0,0,1,16.79687,17.041V28.48877h13.23243V80.78418l7.373-.83008.19531,11.32813-7.56835.8789v24.21875H903.999V93.626L872.7002,97.19043l-.3418-9.27734L868.794,93.96777a47.6969,47.6969,0,0,1-7.959-7.8125v30.81055H848.53027Zm-2.00195-37.30518-10.5957,1.9043q0-1.7578-3.02735-20.99609l10.20508-1.61133Q844.52613,41.08642,846.52832,54.17236ZM876.89941,34.7876q-1.27,5.66454-5.27343,20.70312l-8.98438-.83008,3.75977-21.38671Zm23.53516,38.76953-8.30078,10.01025q-12.20727-14.25805-18.31055-19.38525l7.91016-9.7168Q894.03808,65.50146,900.43457,73.55713Z" transform="translate(0)"/><path class="cls-5" d="M962.05566,113.01074q-14.99048,0-21.99707-9.10644-7.00707-9.10548-7.00683-29.22412,0-19.92187,7.03125-29.10157,7.03125-9.17871,21.97265-9.17968,14.94141,0,21.97266,9.15527t7.03125,29.07715q0,20.26538-6.98242,29.32177Q977.09425,113.01172,962.05566,113.01074Zm0-65.23486q-6.83641,0-9.79,6.4209-2.95458,6.42188-2.9541,20.53222,0,14.06324,3.02735,20.5083,3.02709,6.44532,9.71679,6.44532,6.68994,0,9.7168-6.543,3.02784-6.542,3.02734-20.5083,0-14.0625-2.9541-20.459Q968.89112,47.77686,962.05566,47.77588Z" transform="translate(0)"/><path class="cls-5" d="M1073.5791,79.56348h-54.6875v37.59765h-14.4043V33.56689h83.30079v72.21729a8.8541,8.8541,0,0,1-3.85743,7.44629,14.91733,14.91733,0,0,1-9.13086,2.85644h-15.52734l-1.5625-12.84179h12.69531q3.17432,0,3.17383-2.68555ZM1018.8916,68.186h19.58008V45.09033H1018.8916Zm33.78906,0h20.89844V45.09033h-20.89844Z" transform="translate(0)"/></g><g class="cls-2"><path class="cls-3" d="M1162.49512,107.09277l-.54688,10.54688q-4.25829.11718-5.66406.11719-14.41407,0-22.46094-4.043-8.04784-4.043-11.52344-9.76563a24.58068,24.58068,0,0,1-3.47656-13.02734q0-14.29687,14.10156-26.32861l-34.72656.35156v-10h69.64844V65.022H1149.917a38.34946,38.34946,0,0,0-13.94531,10.97657q-5.46972,6.95435-5.46875,14.45361,0,16.875,25.66406,16.875Q1159.13477,107.32715,1162.49512,107.09277Zm-3.47657-25.89843-5.78125,2.14843q-1.60253-4.062-5.27343-11.99267l5.54687-2.1875A126.06178,126.06178,0,0,1,1159.01855,81.19434Zm11.13282-2.26563-5.625,2.07031q-2.73488-6.79687-5.35157-11.99267l5.35157-1.99219Q1167.72851,73.14747,1170.15137,78.92871Z" transform="translate(0)"/><path class="cls-3" d="M1250.93262,84.47559q-5.07861,17.8125-14.0625,25.70312-8.98536,7.88966-23.08594,7.89063a32.60443,32.60443,0,0,1-10.66406-1.582,20.6975,20.6975,0,0,1-7.46094-4.27734,20.215,20.215,0,0,1-4.45313-5.87891,21.59829,21.59829,0,0,1-2.03125-6.75781,93.92079,93.92079,0,0,1-.46875-11.07422q0-8.20312,1.67969-38.438h11.67969q-1.60254,26.99267-1.60156,37.53955a77.15428,77.15428,0,0,0,.44922,10.89843,11.01552,11.01552,0,0,0,2.01171,4.4336,9.85523,9.85523,0,0,0,4.51172,3.28125,19.85616,19.85616,0,0,0,7.207,1.15234,21.21625,21.21625,0,0,0,15.78125-6.44531q6.32813-6.44532,10.03907-20.39063Z" transform="translate(0)"/><path class="cls-3" d="M1322.9248,107.09277l-.54687,10.54688q-4.25831.11718-5.66406.11719-14.41407,0-22.46094-4.043-8.04785-4.043-11.52344-9.76563a24.58059,24.58059,0,0,1-3.47656-13.02734q0-14.29687,14.10156-26.32861l-34.72656.35156v-10h69.64844V65.022h-17.92969a38.34946,38.34946,0,0,0-13.94531,10.97657q-5.46974,6.95435-5.46875,14.45361,0,16.875,25.66406,16.875Q1319.56446,107.32715,1322.9248,107.09277Z" transform="translate(0)"/><path class="cls-3" d="M1415.62012,86.03809l-3.28125,10.19531-8.86719-3.32031a41.53725,41.53725,0,0,1-20.97656,26.40625l-6.64063-7.10938a47.75369,47.75369,0,0,0,11.52344-10.72266,33.355,33.355,0,0,0,5.39062-12.24609,102.26391,102.26391,0,0,0-16.99218-3.90625q-12.26661,28.39893-25.97657,28.39844a10.68021,10.68021,0,0,1-8.39843-3.73047,13.37476,13.37476,0,0,1-3.28125-9.16016q0-9.33544,8.125-17.5,8.124-8.16357,20.78125-8.16455h.625a93.9713,93.9713,0,0,0,2.61718-13.4375H1347.2998V52.44385h33.67188l1.52344,1.67969a101.98722,101.98722,0,0,1-3.55469,21.95361,119.685,119.685,0,0,1,15.23437,3.24219q.19484-2.85059.19532-8.35987,0-2.14746-.03907-4.64843h11.36719l.03906,6.64062q.0381,5.50854-.35156,9.688ZM1364.292,84.6709a15.76517,15.76517,0,0,0-9.0039,3.418,17.14469,17.14469,0,0,0-5.23438,6.64062,16.26851,16.26851,0,0,0-1.50391,5.918q0,2.46095,1.48438,2.46094Q1356.55713,103.1084,1364.292,84.6709Z" transform="translate(0)"/><path class="cls-3" d="M1489.25293,106.03809l-5.82031,9.84375a84.31533,84.31533,0,0,0-20.58594-11.83594l.39062,1.67969a9.5741,9.5741,0,0,1,.3125,2.30468q-.03954,4.76661-5.41015,7.2461-5.37159,2.48-14.86328,2.48047A26.76031,26.76031,0,0,1,1428.96,114.085q-5.95752-3.67089-5.957-10.07812a12.22285,12.22285,0,0,1,5.46875-10.48829,22.46555,22.46555,0,0,1,13.35937-3.88671,58.4889,58.4889,0,0,1,9.92188.74218V83.88965h-27.30469v-9.2583h27.30469V67.01416H1422.2998V57.71729h29.45313V49.24072h11.17187v8.47657H1490.542v9.29687H1462.9248v7.61719h23.51563v9.2583H1462.9248v9.375A146.07087,146.07087,0,0,1,1489.25293,106.03809Zm-37.5-1.5625V99.749a36.729,36.729,0,0,0-8.28125-1.32812,15.28032,15.28032,0,0,0-6.77734,1.38672q-2.833,1.3872-2.832,3.88672,0,4.53222,9.72657,4.53125Q1451.75244,108.22559,1451.75293,104.47559Z" transform="translate(0)"/><path class="cls-3" d="M1570.93262,84.47559q-5.07861,17.8125-14.0625,25.70312-8.98536,7.88966-23.08594,7.89063a32.60443,32.60443,0,0,1-10.66406-1.582,20.6975,20.6975,0,0,1-7.46094-4.27734,20.215,20.215,0,0,1-4.45313-5.87891,21.59829,21.59829,0,0,1-2.03125-6.75781,93.92079,93.92079,0,0,1-.46875-11.07422q0-8.20312,1.67969-38.438h11.67969q-1.60254,26.99267-1.60156,37.53955a77.15428,77.15428,0,0,0,.44922,10.89843,11.01552,11.01552,0,0,0,2.01171,4.4336,9.85523,9.85523,0,0,0,4.51172,3.28125,19.85616,19.85616,0,0,0,7.207,1.15234,21.21625,21.21625,0,0,0,15.78125-6.44531q6.32813-6.44532,10.03907-20.39063Z" transform="translate(0)"/><path class="cls-3" d="M1644.52637,108.53809l-5.74219,7.92968q-10.78125-8.63232-19.41406-12.38281,0,7.46192-3.47657,10.85938-3.47753,3.39843-11.52343,3.39843-9.10254,0-14.27735-3.24218a10.51234,10.51234,0,0,1-5.17578-9.49219q0-6.21094,5.64453-9.76563a25.41456,25.41456,0,0,1,13.8086-3.55468,43.8595,43.8595,0,0,1,5.19531.3125V57.9126h10V70.45166h22.42187v8.16455h-22.42187v16.25Q1631.5962,98.77295,1644.52637,108.53809Zm-34.80469-7.69532a27.685,27.685,0,0,0-5.35156-.54687,18.50371,18.50371,0,0,0-7.207,1.28906q-3.0674,1.28907-3.06641,3.63281,0,2.30567,2.57812,3.53516a14.41828,14.41828,0,0,0,6.25,1.23047q4.17921,0,5.48829-1.25a4.79054,4.79054,0,0,0,1.30859-3.63281Z" transform="translate(0)"/><path class="cls-3" d="M1676.12793,117.91309l-1.99219-9.76563q19.49121-.85839,29.82422-6.48437,10.33155-5.625,10.332-15.78125a8.03905,8.03905,0,0,0-3.28125-6.875,14.40636,14.40636,0,0,0-8.75-2.42188q-3.75,0-8.14453.39063-4.39453.39111-7.75391.89843-3.36035.50831-21.52343,3.78907l-.9375-10.07862,16.28906-2.5q7.10889-1.09276,12.63672-1.543,5.52685-.44823,9.74609-.44921,10.81933,0,17.10938,4.86328,6.28857,4.86327,6.28906,13.92627,0,14.92236-13.06641,23.04687Q1699.83888,117.05274,1676.12793,117.91309Zm42.22656-63.6333-2.46094,9.92187a139.74306,139.74306,0,0,0-20.21484-2.77344q-13.06641-1.05468-22.168-1.05468-2.30567,0-4.33594.07812l.07813-9.76562q12.34278,0,23.10547.74218Q1703.11915,52.1709,1718.35449,54.27979Z" transform="translate(0)"/></g><g class="cls-2"><path class="cls-3" d="M1791.80176,34.59229l-13.96485,28.6621h-10.30273l7.959-28.6621Zm24.07226,0-13.96484,28.6621h-10.30273l7.959-28.6621Z" transform="translate(0)"/></g></g></svg>