<svg id="レイヤー_1" data-name="レイヤー 1" xmlns="http://www.w3.org/2000/svg" viewBox="0 0 1920 135"><defs><style>.cls-1{fill:#fff;}.cls-2{fill:#fceb00;}.cls-3{isolation:isolate;}.cls-4{fill:#464646;}</style></defs><rect class="cls-1" width="1920" height="135"/><g id="グループ_839" data-name="グループ 839"><rect id="長方形_168" data-name="長方形 168" class="cls-2" x="731.74997" y="94.425" width="194" height="18"/><g id="副業は診断が大事です_" data-name="副業は診断が大事です " class="cls-3"><g class="cls-3"><path class="cls-4" d="M537.6582,52.44531H497.53125V45.50684H537.6582ZM526.92578,102.416H507.47754v2.11914h-8.81836V74.14941h37.39258v30.38575h-9.126Zm7.51953-31.27442H500.334V55.24805h34.11133Zm-21.29394,9.63867h-5.67383v4.5459h5.67383Zm-5.67383,15.07325h5.67383V90.86328h-5.67383ZM525.627,65.33105V60.92188H509.2207v4.40917Zm1.29883,19.99512v-4.5459h-5.63965v4.5459Zm-5.63965,10.52735h5.63965V90.86328h-5.63965Zm25.874-6.46h-7.96387V47.83105h7.96387Zm12.2705,8.54493a5.89293,5.89293,0,0,1-2.15332,4.61425,7.27315,7.27315,0,0,1-4.92187,1.87989h-8.33985L542.8877,96.332h5.5371q2.52906,0,2.5293-2.11914V43.627h8.47656Z" transform="translate(0 0)"/><path class="cls-4" d="M604.794,93.63184a79.50394,79.50394,0,0,1-26.69434,10.5957l-2.49512-6.83594A85.29681,85.29681,0,0,0,596.625,89.80371H577.89453V83.30957H604.794V80.09668H581.4834v-6.084H604.794V70.7998H580.42383V64.27148H593.207L591.669,60.34082H578.81738v-6.5625H586.542l-3.45215-7.92969,8.16895-2.0166,4.375,9.94629h3.11035V42.90918h8.27148V53.77832h5.19532V42.90918h8.16894V53.77832h3.52051l4.34082-10.01465,8.54492,2.0166-4.2041,7.998h8.23731v6.5625H627.5918l-2.3584,3.93066h14.04785V70.7998H614.02246v3.2129h23.51563v6.084H614.02246v3.21289h27.24121v6.49414H622.63574a90.85517,90.85517,0,0,0,20.98633,6.87012l-3.55469,7.62207a74.051,74.051,0,0,1-26.04492-11.24512v12.23633H604.794Zm-4.30665-33.291,1.57227,3.93066h14.28711l2.05078-3.93066Z" transform="translate(0 0)"/><path class="cls-4" d="M674.18555,47.11328q-4.20411,15.21094-4.2041,26.35254a107.15758,107.15758,0,0,0,3.93066,28.74512l-9.60449,1.94824a112.04828,112.04828,0,0,1-3.75977-28.2666,123.5518,123.5518,0,0,1,3.999-30.11231Zm50.75683,46.75781-5.53711,7.82715a64.89649,64.89649,0,0,0-9.87793-7.65625,10.24318,10.24318,0,0,1-3.606,7.69043q-3.2644,2.63086-12.1167,2.63184a18.17415,18.17415,0,0,1-10.7666-3.09375,9.75,9.75,0,0,1-4.375-8.39063,10.346,10.346,0,0,1,4.40918-8.63086,16.80278,16.80278,0,0,1,10.4248-3.332,57.8422,57.8422,0,0,1,6.32324.41016V66.04883H677.6377V57.57227h22.18261V45.165h9.77539V57.57227h12.749v8.47656h-12.749V84.2666A66.17888,66.17888,0,0,1,724.94238,93.87109Zm-25.12207-1.94824V89.53027a17.26606,17.26606,0,0,0-6.32324-1.05957,7.31332,7.31332,0,0,0-3.98193,1.11035,3.31746,3.31746,0,0,0-1.76026,2.88868,3.08138,3.08138,0,0,0,1.81153,2.78515,8.566,8.566,0,0,0,4.23828,1.00879Q699.82006,96.26367,699.82031,91.92285Z" transform="translate(0 0)"/></g><g class="cls-3"><path class="cls-4" d="M770.9502,46.4248H739.26562V37.63574H770.9502ZM769.85156,100.082H751.70215V103.334H741.15527V73.80273h28.69629Zm-.26367-66.13769H742.3418V26.12207h27.24609Zm-.43945,24.03808H742.42969V50.292h26.71875Zm0,11.77735H742.42969V62.02539h26.71875Zm-9.8877,22.58789V81.625h-7.207V92.34766Zm65.96192-45.61524-6.416,8.877A66.29719,66.29719,0,0,1,796.43848,35.2627Q788.792,47.7871,774.20215,55.43359l-5.58106-7.64648a45.27237,45.27237,0,0,0,12.19483-8.94238A54.38928,54.38928,0,0,0,791.209,24.4082h10.81055Q809.13867,38.38281,825.22266,46.73242Zm-19.24805,1.40625A67.97805,67.97805,0,0,1,792.41748,60.29a104.91816,104.91816,0,0,1-16.897,9.99707l-5.49317-8.17383q18.76392-9.31641,27.11426-19.99512Zm9.97559,13.13965q-6.81227,7.207-18.78663,14.58984A109.56543,109.56543,0,0,1,774.29,86.85449l-4.13086-8.9209a98.63053,98.63053,0,0,0,21.22559-10.65722,83.02139,83.02139,0,0,0,15.99609-13.07325Zm8.74511,14.15039q-8.4375,9.22851-23.44482,17.27051t-27.61963,10.81055l-3.47168-9.44825q10.67871-2.63672,24.85107-10.50293t21.20362-15.77636Z" transform="translate(0 0)"/><path class="cls-4" d="M885.43652,87.95312,885.34863,92.04a56.48307,56.48307,0,0,0,5.16358-16.67774,118.50678,118.50678,0,0,0,1.47217-18.47851V30.25293A113.27082,113.27082,0,0,0,922.043,24.4082l5.05371,8.96485q-7.77833,2.8125-24.03809,5.05371V50.59961H926.833v9.624h-6.5918v42.36328h-11.25V60.22363h-5.97656a99.50418,99.50418,0,0,1-3.27393,23.6211,66.699,66.699,0,0,1-9.11865,19.57715l-7.64648-5.93262H854.98242v3.60351h-9.97558V26.8252h9.97558V87.95312ZM869.2207,69.32031a54.78956,54.78956,0,0,1-8.74511,11.42578L855.29,74.81348a70.28968,70.28968,0,0,0,11.95312-19.2041H857.0918V48.13867h12.1289V24.93555h8.9209V48.13867h11.07422v7.47071h-9.36035a77.21537,77.21537,0,0,0,9.624,11.73339l-4.96582,7.0752a56.97,56.97,0,0,1-6.37207-7.60254V86.32715h-8.9209Zm-1.3623-23.51074L860.124,47.084l-2.68066-16.3916,7.64648-1.18652Zm22.76367-15.46875L886.49121,46.9082l-7.207-1.18652,3.25195-16.74316Z" transform="translate(0 0)"/></g><g class="cls-3"><path class="cls-4" d="M968.86328,52.20605q0,2.22218-.1709,5.26368h8.78418a12.16727,12.16727,0,0,1,9.36524,3.79394,13.85112,13.85112,0,0,1,3.5205,9.80957q0,14.9707-3.45214,24.33594-3.45264,9.36474-11.75782,9.36523a17.89548,17.89548,0,0,1-5.00781-.78613,46.347,46.347,0,0,1-8.69824-4.30664l3.14453-8.13476q6.46,3.58885,9.33106,3.58886a3.07186,3.07186,0,0,0,2.29-.99121,12.38176,12.38176,0,0,0,2.05079-4.23828,37.79552,37.79552,0,0,0,1.60644-7.24609,71.50331,71.50331,0,0,0,.5127-9.02344,18.17749,18.17749,0,0,0-.44434-4.85352,3.77129,3.77129,0,0,0-1.46973-2.085,4.595,4.595,0,0,0-2.59765-.68359h-7.89551q-3.31641,24.4043-17.26074,39.5459l-7.69043-4.81934q3.82764-4.30663,8.35693-13.56933a71.54028,71.54028,0,0,0,6.272-21.15723h-12.4414V57.46973h13.56933l.06836-13.22754h10.01465Zm42.28027,29.49707-9.36523,2.63184a94.23616,94.23616,0,0,0-5.999-15.87695,75.898,75.898,0,0,0-8.15137-12.59473l7.75879-4.5459Q1008.30664,68.06641,1011.14355,81.70312Zm-8.03222-28.916L998.15527,54.667q-2.8374-7.04-4.64843-10.49316l4.71679-1.87988Q1001.231,48.07129,1003.11133,52.78711Zm9.36523-.752-4.751,1.81152q-2.25587-5.6045-4.7168-10.49316l4.5459-1.74317Q1010.35693,46.97755,1012.47656,52.03516Z" transform="translate(0 0)"/><path class="cls-4" d="M1059.17285,77.39648q-7.8955,19.72266-30.65918,27.48047l-4.06738-7.72461a43.30369,43.30369,0,0,0,18.32031-11.416,35.631,35.631,0,0,0,9.16016-17.53418h-24.7461V59.999h25.874V44.37891h9.87793V59.999h26.04492v8.20313H1064.6416a46.68869,46.68869,0,0,0,10.37305,16.28711,56.74693,56.74693,0,0,0,16.6289,11.97949l-6.2207,8.20313a72.05229,72.05229,0,0,1-16.35547-12.35645A53.26614,53.26614,0,0,1,1059.17285,77.39648Z" transform="translate(0 0)"/><path class="cls-4" d="M1167.87109,94.21289h-24.71191v4.78516a5.50908,5.50908,0,0,1-2.56348,4.68261,10.68619,10.68619,0,0,1-6.32324,1.81153h-10.56152l-.78614-7.34864h8.06641a2.40473,2.40473,0,0,0,1.57227-.59765,1.7371,1.7371,0,0,0,.71777-1.35059V94.21289h-24.5752V88.57324h24.5752V85.18945h-27.583V79.03711h27.583V76.0293h-23.92578V70.56055h23.92578V67.416h-22.18262V54.59863h22.18262V51.4541h-26.79687V45.43848h26.79687V42.294h9.87793v3.14453h28.2666V51.4541h-28.2666v3.14453h22.62695V67.416h-22.62695v3.14453h24.71191v8.47656h4.27246v6.15234h-4.27246Zm-34.58984-35h-13.56934v3.79395h13.56934Zm23.75488,3.79395V59.21289h-13.87695v3.79395Zm1.53809,16.03027V76.0293h-15.415v3.00781Zm-15.415,9.53613h15.415V85.18945h-15.415Z" transform="translate(0 0)"/><path class="cls-4" d="M1242.52637,95.47754l-.47852,9.22851q-3.72655.10254-4.95605.10254-12.61231,0-19.65332-3.53808-7.04151-3.53613-10.083-8.54492a21.50583,21.50583,0,0,1-3.042-11.39844q0-12.50978,12.33886-23.03711l-30.38574.30762v-8.75H1247.209V58.666h-15.68847a33.55082,33.55082,0,0,0-12.20215,9.60449A20.22184,20.22184,0,0,0,1214.5332,80.917q0,14.76563,22.45606,14.76563Q1239.58642,95.68262,1242.52637,95.47754Zm-3.042-22.66113-5.0586,1.87988q-1.40186-3.55371-4.61426-10.49317l4.85352-1.91406A110.272,110.272,0,0,1,1239.48438,72.81641Zm9.74121-1.98243-4.92188,1.81153q-2.39355-5.94727-4.68262-10.49317l4.68262-1.74316Q1247.106,65.77636,1249.22559,70.834Z" transform="translate(0 0)"/><path class="cls-4" d="M1331.40039,58.3584h-20.30273V71.27832q1.94823,3.8291,1.94824,10.49316,0,10.39161-7.29785,16.69629-7.29786,6.30762-19.499,7.09278l-2.39257-8.27149q15.03808-1.16162,18.96972-10.7666a14.73528,14.73528,0,0,1-8.88672,2.80274,14.535,14.535,0,0,1-10.03222-3.60547,11.82113,11.82113,0,0,1-4.04981-9.2461,13.69346,13.69346,0,0,1,4.28906-10.39062,15.055,15.055,0,0,1,10.78418-4.06739,16.84584,16.84584,0,0,1,6.084,1.12793V58.3584h-33.46192V50.22363h33.46192V43.3877h10.083v6.83593h20.30273Zm-30.249,15.55176-.06836-1.91407q-1.67579-2.35839-6.084-2.35839a5.66344,5.66344,0,0,0-4.15332,1.93164,5.97332,5.97332,0,0,0-1.8623,4.2207,5.55631,5.55631,0,0,0,1.38379,3.8623,4.58527,4.58527,0,0,0,3.57226,1.53809,7.01951,7.01951,0,0,0,5.2461-2A7.20424,7.20424,0,0,0,1301.15137,73.91016Z" transform="translate(0 0)"/><path class="cls-4" d="M1374.542,49.916,1373.1748,86.4541h-9.60449L1362.169,49.916Zm-.27344,51.50878h-11.82617V92.53809h11.82617ZM1398.39941,49.916l-1.36718,36.53808h-9.6045L1386.02637,49.916Zm-.27343,51.50878H1386.2998V92.53809H1398.126Z" transform="translate(0 0)"/></g></g></g></svg>