<svg id="レイヤー_1" data-name="レイヤー 1" xmlns="http://www.w3.org/2000/svg" xmlns:xlink="http://www.w3.org/1999/xlink" viewBox="0 0 1920 428"><defs><style>.cls-1{fill:#fff;}.cls-2{fill:none;}.cls-2,.cls-5{stroke:#707070;}.cls-3{isolation:isolate;}.cls-4{fill:#464646;}.cls-5{fill:url(#名称未設定グラデーション_2);}</style><linearGradient id="名称未設定グラデーション_2" x1="-0.07743" y1="428.46098" x2="1.29767" y2="428.46098" gradientTransform="matrix(132.67768, -96.43322, -56.40215, -77.60092, 24605.56016, 33402.30546)" gradientUnits="userSpaceOnUse"><stop offset="0" stop-color="#eac849"/><stop offset="0.27" stop-color="#fff8ac"/><stop offset="0.583" stop-color="#ac8506"/><stop offset="0.822" stop-color="#fff1a9"/><stop offset="1" stop-color="#eac849"/></linearGradient></defs><g id="グループ_10" data-name="グループ 10"><g id="グループ_9" data-name="グループ 9"><rect class="cls-1" width="1920" height="428"/><g id="長方形_8" data-name="長方形 8"><rect class="cls-1" x="497.28041" y="87.49123" width="925.43919" height="253.01755" rx="49.50343"/><rect class="cls-2" x="497.96796" y="88.17877" width="924.06409" height="251.64245" rx="48.81589"/></g><g id="グループ_6" data-name="グループ 6"><g id="L-FIND" class="cls-3"><g class="cls-3"><path class="cls-4" d="M664.81592,286.12109h-18.9624V258.80078h5.98242v22.78809h12.98Z" transform="translate(0)"/><path class="cls-4" d="M677.37939,276.36816H664.18164v-4.67773h13.19775Z" transform="translate(0)"/><path class="cls-4" d="M701.81641,263.333H688.65527v6.07324H700.584v4.51465H688.69141v12.20019H682.709V258.80078h19.10743Z" transform="translate(0)"/><path class="cls-4" d="M719.22021,286.12109H704.31836V282.042h4.45947V262.87988h-4.45947v-4.0791h14.90185v4.0791h-4.45947V282.042h4.45947Z" transform="translate(0)"/><path class="cls-4" d="M748.02686,286.12109h-5.76514l-12.25488-20.03222v20.03222h-5.54737V258.80078h7.25147l10.76855,17.6582v-17.6582h5.54737Z" transform="translate(0)"/><path class="cls-4" d="M754.51709,286.12109V258.80078h8.53857a22.23054,22.23054,0,0,1,9.04639,1.48731,11.46945,11.46945,0,0,1,5.12109,4.56836,14.43313,14.43313,0,0,1,1.87647,7.63183,14.162,14.162,0,0,1-1.94873,7.3877,11.568,11.568,0,0,1-5.2124,4.75879,21.58685,21.58685,0,0,1-8.81055,1.48632Zm5.98242-23.02343v18.72656h2.937q9.40869,0,9.40869-9.39063,0-9.33544-9.40869-9.33593Z" transform="translate(0)"/></g></g><g id="エルファインド" class="cls-3"><g class="cls-3"><path class="cls-4" d="M728.51318,221.98926h-84.0205v-12.231h35.09716V167.26074H650.03223V155.38428h72.41015v11.87646H693.77051V209.7583h34.74267Z" transform="translate(0)"/><path class="cls-4" d="M765.82617,176.07959q.08862,20.82788-6.86865,32.6377-6.958,11.80883-21.35938,18.54541l-5.185-10.8125a33.65295,33.65295,0,0,0,14.93408-14.07032q5.228-9.32739,5.229-28.3833V153.12451h13.25Zm56.98926,14.269A68.7919,68.7919,0,0,1,805.64355,213.104a56.98915,56.98915,0,0,1-23.95263,12.519l-5.27344-4.34278v-70.7705h13.25v57.83056q13.60473-6.69067,22.8667-26.01269Z" transform="translate(0)"/><path class="cls-4" d="M904.75293,152.77q0,22.5564-6.8916,38.37646a50.3628,50.3628,0,0,1-22.3125,24.417q-15.42042,8.59716-37.22363,10.54687l-3.54493-11.832q18.61085-1.90429,31.1084-8.48584,12.49659-6.58082,17.72559-16.3081,5.2295-9.72657,6.64746-25.28126H834.24805V152.77Z" transform="translate(0)"/><path class="cls-4" d="M993.16016,166.99463a44.832,44.832,0,0,1-2.94727,7.7998q-1.97168,4.12061-3.30176,6.33692a43.19574,43.19574,0,0,1-4.38672,5.71631,76.5435,76.5435,0,0,1-7.59961,7.42285,65.00565,65.00565,0,0,1-9.15136,6.66943l-5.93848-7.79932a44.95645,44.95645,0,0,0,11.10059-8.75244,49.68532,49.68532,0,0,0,8.08789-11.0122H923.80762v-9.3501h65.71875Zm-33.41309,10.45849q0,14.00391-1.41895,21.47022A35.02628,35.02628,0,0,1,941.002,222.94141a46.9177,46.9177,0,0,1-12.541,5.16308l-4.07715-8.81836q14.93262-4.875,19.49805-13.42724a41.05531,41.05531,0,0,0,4.56445-19.63135V185.0752l-.04395-7.62208Z" transform="translate(0)"/><path class="cls-4" d="M1061.93652,225.88867H1048.332V185.6958a165.09226,165.09226,0,0,1-36.82519,13.33838l-4.07715-11.61035q23.39795-5.58326,40.68066-16.44043,17.28224-10.85742,26.19043-24.94922l12.89551,4.91894a98.56109,98.56109,0,0,1-12.67481,15.9087,101.07026,101.07026,0,0,1-12.585,10.36963Z" transform="translate(0)"/><path class="cls-4" d="M1147.28613,169.1665l-8.10937,10.98975q-6.55958-4.20923-11.63281-7.09033-5.07423-2.87988-22.93262-11.87647l7.002-10.14795Q1125.52637,156.58154,1147.28613,169.1665Zm35.93946,10.8125q-11.25733,20.78394-29.38086,31.68506-18.12452,10.90137-45.86524,13.60449l-3.01367-12.4082a119.70647,119.70647,0,0,0,25.25879-4.6084,66.71468,66.71468,0,0,0,17.7041-8.48633,89.37331,89.37331,0,0,0,12.93945-10.67968q5.33936-5.428,11.72168-16.19727Z" transform="translate(0)"/><path class="cls-4" d="M1272.25391,192.69727l-8.376,10.50244a165.24809,165.24809,0,0,0-39.12988-19.76416v43.207h-13.959V146.69873h14.09278v23.66406Q1247.3042,177.58667,1272.25391,192.69727Zm-18.78907-25.791-6.4707,2.48145q-3.63427-8.99562-6.07031-13.64893l6.24805-2.437A146.66163,146.66163,0,0,1,1253.46484,166.90625Zm13.42676-2.88037-6.38086,2.34863q-3.10254-7.75414-6.07129-13.60449l6.07129-2.26025Q1264.14356,157.46777,1266.8916,164.02588Z" transform="translate(0)"/></g></g></g><g id="グループ_8" data-name="グループ 8"><path id="パス_8" data-name="パス 8" class="cls-5" d="M579.809,117.29978q7.1977-3.75744,14.64972-7.02478l-7.14064-6.52392.9773-10.04233q-8.22964,3.51633-16.17353,7.62057l7.78022,5.95365Zm-14.90459,8.49872-8.59939-5.45514-.74514-9.64729q-7.94989,4.9026-15.50383,10.376l8.63546,4.48026,1.66533,10.01046q7.08942-5.15108,14.54975-9.76586Zm27.15988-91.98574,5.01757,9.47641L578.81447,77.56975l-11.79509-39.505,6.15838-12.99541L562.23749,10.74926l-7.7187,16.28014,8.73374,11.427L558.95271,91.8629,531.20612,46.806l2.58829-14.14595L519.52528,21.664l-3.243,17.7246,11.39311,8.77492L536.768,97.72528,499.39593,62.41861l-1.159-14.33809-16.63206-6.92568,1.454,17.95575,13.281,5.52918,22.04586,46.44612L474.0518,87.1383,469.221,73.59377l-17.86013-2.38632,6.05583,16.96572,14.253,1.90529L505.96308,130.377,453.836,117.98287l-8.17317-11.8344-17.8677,2.31664,10.24173,14.82778L452.302,121.444l33.93522,23.413-38.24288,6.79246-7.46491-7.69762L423.653,153.22071,490.79,164.2481l20.06153,18.72945a238.07491,238.07491,0,0,1,96.63655-70.23768q-5.81009-12.43834-11.62363-24.86232L606.09907,20.618ZM562.94749,14.30165l-3.68362,11.82744,2.63338,6.79746-4.72879-6.33536ZM519.05264,38.52426l2.09953-13.415L520.933,37.49759l4.43337,5.78842Zm-59.9638,47.51889L454.0924,73.41464l6.09572,10.789,6.759,2.738Zm-19.98717,34.75869-8.09409-10.90241,8.679,8.84176,7.23613.88488Zm-11.669,31.8224,12.38375-.35563,3.90041,2.529ZM492.58441,60.387l-7.352-2.90371-1.55821-13.48857L486.771,55.991ZM594.77293,91.04431c-2.0928.82575-4.17356,1.68692-6.23772,2.56836l7.45121,6.8133-.93718,9.58985q3.675-1.5983,7.40838-3.0724l1.68873,4.27423a232.26464,232.26464,0,0,0-93.71853,68.1168l-3.54316-2.92635q2.54567-3.09645,5.2057-6.09581l-9.40976-2.06945-4.17958-9.1912c-1.47364,1.69163-2.93585,3.40382-4.36616,5.13878l-3.54372-2.92255A254.04721,254.04721,0,0,1,593.08354,86.774Zm3.49077-49.49306-2.81961-7.388,8.9076-10.24683L597.58419,34.296ZM524.45448,133.362q-6.79785,5.80451-13.16694,12.09642l9.335,2.928,3.33242,9.455q5.96721-5.82474,12.32552-11.22134l-9.40574-3.8745Zm15.13293-11.94594q-7.53579,5.48909-14.65595,11.54484l8.94621,3.68655,2.53441,9.86332q6.68724-5.66459,13.77759-10.82824l-9.00762-4.67392Zm-28.672,24.40977q-6.34313,6.29009-12.23854,13.03l9.85241,2.17105,4.00235,8.80489q5.39931-6.075,11.20366-11.76605l-9.55886-2.99985Zm54.14149-20.11772q7.0923-4.37958,14.47762-8.25809l-7.96324-6.09094.09425-9.78134q-7.94256,4.11519-15.56887,8.78944l8.1748,5.1959Z" transform="translate(0)"/></g></g><line id="線_2" data-name="線 2" class="cls-2" x1="851.43184" y1="308.30881" x2="1263.96045" y2="309.6839"/></g></svg>