<svg id="レイヤー_2" data-name="レイヤー 2" xmlns="http://www.w3.org/2000/svg" xmlns:xlink="http://www.w3.org/1999/xlink" viewBox="0 0 1920 385"><defs><style>.cls-1,.cls-14{fill:#fff;}.cls-2{fill:#ffe2bf;}.cls-3{fill:#805934;}.cls-11,.cls-15,.cls-4,.cls-8{fill:none;}.cls-4{stroke:#8c6239;}.cls-11,.cls-4,.cls-8{stroke-linecap:round;stroke-linejoin:round;}.cls-4,.cls-8{stroke-width:1.042px;}.cls-5{fill:#8c6239;}.cls-6{fill:#4d3d2d;}.cls-7{fill:#e6c6a1;}.cls-8{stroke:#59493a;}.cls-9{fill:#ffbe8d;}.cls-10{fill:#333;}.cls-11{stroke:#e6e6e6;stroke-width:1.121px;}.cls-12{fill:#ededed;}.cls-13{fill:#d4d4d4;}.cls-14{stroke:#bfbfbf;stroke-miterlimit:10;stroke-width:0.23px;}.cls-15,.cls-16{stroke:#707070;}.cls-15{stroke-width:0.4px;}.cls-16{stroke-width:0.40005px;fill:url(#名称未設定グラデーション_7);}.cls-17,.cls-53{isolation:isolate;}.cls-18{fill:#464646;}.cls-19{fill:#97c45e;}.cls-20{fill:#ff8000;}.cls-21{fill:#fcc795;}.cls-22{fill:#a45f47;}.cls-23{fill:#0c0b0b;}.cls-24{fill:#0f1012;}.cls-25{fill:#191616;}.cls-26{fill:#170e0f;}.cls-27{fill:#302422;}.cls-28{fill:#191618;}.cls-29{fill:#f0eef1;}.cls-30{fill:#7a7584;}.cls-31{fill:#a19eab;}.cls-32{fill:#d0cadb;}.cls-33{fill:#292528;}.cls-34{fill:#0d0e0a;}.cls-35{fill:#252122;}.cls-36{fill:#151314;}.cls-37{fill:#6d2021;}.cls-38{fill:#231f22;}.cls-39{fill:#f6eded;}.cls-40{fill:#221410;}.cls-41{fill:#58575e;}.cls-42{fill:#c4c3c7;}.cls-43{fill:#040103;}.cls-44{fill:#232223;}.cls-45{fill:#5f4e52;}.cls-46{fill:#332325;}.cls-47{fill:#fff6f2;}.cls-48{fill:#fbfcfb;}.cls-49{fill:#811d1e;}.cls-50{fill:#dedee3;}.cls-51{fill:#3b343d;}.cls-52{fill:#4d4848;}.cls-53{fill:#191919;opacity:0.19;}</style><linearGradient id="名称未設定グラデーション_7" x1="-11.31881" y1="389.49249" x2="-10.31881" y2="389.49249" gradientTransform="matrix(20.4766, -14.88287, -8.7024, -11.9732, 4025.77669, 4814.7131)" gradientUnits="userSpaceOnUse"><stop offset="0" stop-color="#eac849"/><stop offset="0.27" stop-color="#fff8ac"/><stop offset="0.583" stop-color="#ac8506"/><stop offset="0.822" stop-color="#fff1a9"/><stop offset="1" stop-color="#eac849"/></linearGradient></defs><rect class="cls-1" width="1920" height="385"/><g id="グループ_237" data-name="グループ 237"><g id="グループ_235" data-name="グループ 235"><g id="グループ_212" data-name="グループ 212"><g id="グループ_209" data-name="グループ 209"><g id="グループ_206" data-name="グループ 206"><path id="パス_426" data-name="パス 426" class="cls-2" d="M428.39717,246.06825s-3.249-.865-3.42-1.541-1.259-2.394-4.059-3.753-3.049-.138-5.5-1.272-5.6-3.5-6.379-3.369c-.862.14-.159,2.237,1.905,3.869,1.984,1.569,7.817,7.741,10.887,8.238,1.067.173,3.624,3.229,3.624,3.229Z" transform="translate(0)"/><path id="パス_427" data-name="パス 427" class="cls-2" d="M457.89619,237.98823a31.04918,31.04918,0,0,1,7.412-1.191,32.951,32.951,0,0,1,7.554,1.191l-7.483,5.5Z" transform="translate(0)"/><ellipse id="楕円形_6" data-name="楕円形 6" class="cls-3" cx="465.2312" cy="167.21126" rx="13.361" ry="12.133"/><line id="線_3" data-name="線 3" class="cls-4" x1="461.6002" y1="166.16826" x2="463.0702" y2="171.36926"/><line id="線_4" data-name="線 4" class="cls-4" x1="469.1732" y1="165.71126" x2="467.7642" y2="170.92426"/><line id="線_5" data-name="線 5" class="cls-4" x1="465.0082" y1="163.95926" x2="465.0742" y2="170.88326"/><rect id="長方形_151" data-name="長方形 151" class="cls-2" x="462.1052" y="232.53826" width="6.45" height="11.99"/><g id="グループ_203" data-name="グループ 203"><path id="パス_428" data-name="パス 428" class="cls-2" d="M496.65624,207.14826c0,18.525-14,29.087-31.269,29.087s-31.27-10.562-31.27-29.087,14-33.544,31.27-33.544S496.65624,188.62226,496.65624,207.14826Z" transform="translate(0)"/><ellipse id="楕円形_7" data-name="楕円形 7" class="cls-2" cx="434.61326" cy="213.48146" rx="5.883" ry="6.411" transform="translate(-16.94315 38.66776) rotate(-4.997)"/><path id="パス_429" data-name="パス 429" class="cls-2" d="M490.18822,212.96528a5.9,5.9,0,1,0,6.419-5.874A6.165,6.165,0,0,0,490.18822,212.96528Z" transform="translate(0)"/></g><path id="パス_430" data-name="パス 430" class="cls-5" d="M434.03224,207.12928s14.905-7.548,20.661-17.926c0,0,22.777,1.237,41.946,20.387,0,0,6.282-39.773-31.2-39.773S434.03224,207.12928,434.03224,207.12928Z" transform="translate(0)"/><path id="パス_431" data-name="パス 431" class="cls-6" d="M460.35322,207.65028a3.3,3.3,0,1,1-3.3-3.3h0A3.3,3.3,0,0,1,460.35322,207.65028Z" transform="translate(0)"/><path id="パス_432" data-name="パス 432" class="cls-6" d="M477.09016,207.65028a3.3,3.3,0,1,1-3.3-3.3h0A3.3,3.3,0,0,1,477.09016,207.65028Z" transform="translate(0)"/><path id="パス_433" data-name="パス 433" class="cls-7" d="M465.6172,214.47028l-2.124,2.653a.25208.25208,0,0,0,.03973.35419l.01325.00982,2.123,1.485a.251.251,0,0,0,.4-.206v-4.143a.251.251,0,0,0-.452-.153Z" transform="translate(0)"/><path id="パス_434" data-name="パス 434" class="cls-8" d="M471.84517,219.8343s-.861,5.473-6.537,5.473-6.537-5.473-6.537-5.473" transform="translate(0)"/><path id="パス_435" data-name="パス 435" class="cls-8" d="M452.24019,201.68928a3.5,3.5,0,0,1,5.195-2.053" transform="translate(0)"/><path id="パス_436" data-name="パス 436" class="cls-8" d="M478.42122,201.68928a3.5,3.5,0,0,0-5.195-2.053" transform="translate(0)"/><path id="パス_437" data-name="パス 437" class="cls-9" d="M442.4792,215.90925c0-2.089,2.5-3.782,5.594-3.782s5.593,1.694,5.593,3.782-2.5,3.781-5.593,3.781S442.4792,217.9983,442.4792,215.90925Z" transform="translate(0)"/><path id="パス_438" data-name="パス 438" class="cls-9" d="M476.70021,215.90925c0-2.089,2.5-3.782,5.594-3.782s5.593,1.694,5.593,3.782-2.5,3.781-5.593,3.781S476.70021,217.9983,476.70021,215.90925Z" transform="translate(0)"/><path id="パス_439" data-name="パス 439" class="cls-10" d="M480.29024,266.40821c-1.6-16.866-4.3-24.809-7.428-28.421a53.91981,53.91981,0,0,1-7.483,27.075,53.939,53.939,0,0,1-7.483-27.075c-3.125,3.613-5.833,11.556-7.428,28.421-1.982,20.949-2,24.429-2,24.429h34.235S482.27223,287.35822,480.29024,266.40821Z" transform="translate(0)"/><g id="グループ_204" data-name="グループ 204"><path id="パス_440" data-name="パス 440" class="cls-1" d="M465.37918,243.48426l-7.483-5.5a53.93909,53.93909,0,0,0,7.483,27.075,53.91782,53.91782,0,0,0,7.483-27.075Z" transform="translate(0)"/></g><path id="パス_441" data-name="パス 441" class="cls-11" d="M460.28017,248.56928l5.052-3.909,5.047,3.909" transform="translate(0)"/><g id="グループ_205" data-name="グループ 205"><path id="パス_442" data-name="パス 442" class="cls-10" d="M472.86218,237.98725s14.208,3.325,19.783,24.783c1.084,4.174-15.907,23.5-15.907,23.5l-6.825-5.884s11.928-14,12.381-17.376-7.3-14.96-7.3-14.96S474.10717,240.22126,472.86218,237.98725Z" transform="translate(0)"/><path id="パス_443" data-name="パス 443" class="cls-2" d="M472.4812,280.61622s-1.648,2.107-1.937,2.359-1.779.216-2.582.972a22.90113,22.90113,0,0,1-3.072,2.342c-.684.393-1.081,1.4-.5,1.873s2.846-.972,2.846-.972-3.565,3.1-4.106,3.457-.684,1.188,0,1.332.829,0,.829,0-1.116.72-1.116,1.153.324.9,1.08.54.937-.468.937-.468-.324.648-.072.937.612.432,1.26,0l.36-.216a.87.87,0,0,0,1.12018.50891q.02573-.0097.05084-.02093a24.52487,24.52487,0,0,0,3.944-2.4,18.84638,18.84638,0,0,0,3.241-5.835c.143-.721,1.981-2.45,1.981-2.45l-4.034-3.349Z" transform="translate(0)"/></g><path id="パス_444" data-name="パス 444" class="cls-10" d="M457.89619,237.98725s-5.429.546-15.417,16.526l-13.974-9.986-4.771,8.044s19.985,16.679,22.576,14.559,7.54-10.929,7.54-10.929Z" transform="translate(0)"/></g><g id="グループ_208" data-name="グループ 208"><rect id="長方形_152" data-name="長方形 152" class="cls-12" x="369.0782" y="272.37325" width="183.201" height="6.365"/><rect id="長方形_153" data-name="長方形 153" class="cls-12" x="373.4302" y="283.73925" width="174.49699" height="75.922"/><rect id="長方形_154" data-name="長方形 154" class="cls-13" x="373.4302" y="278.73825" width="174.49699" height="5.001"/><rect id="長方形_155" data-name="長方形 155" class="cls-14" x="374.5542" y="257.62625" width="52.477" height="14.747"/></g></g><g id="グループ_211" data-name="グループ 211"><g id="グループ_9" data-name="グループ 9"><g id="長方形_8" data-name="長方形 8"><path class="cls-1" d="M424.9152,309.48226h82.108a14.199,14.199,0,0,1,14.199,14.199h0a14.199,14.199,0,0,1-14.199,14.199h-82.108a14.199,14.199,0,0,1-14.199-14.199h0A14.199,14.199,0,0,1,424.9152,309.48226Z" transform="translate(0)"/><path class="cls-15" d="M424.9152,309.68226h82.108a13.999,13.999,0,0,1,13.999,13.999v0a13.999,13.999,0,0,1-13.999,13.999h-82.108a13.999,13.999,0,0,1-13.999-13.999v0a13.999,13.999,0,0,1,13.999-13.999Z"/></g><g id="グループ_8" data-name="グループ 8"><path id="パス_8" data-name="パス 8" class="cls-16" d="M421.39483,314.81553q.80688-.42079,1.644-.78812l-.8014-.73178.10952-1.12681q-.92373.39442-1.815.85557l.873.66864Zm-1.67309.95393-.96563-.61242-.08358-1.0829q-.89244.54973-1.74,1.16457l.96926.50345.186,1.12344q.79744-.57837,1.63459-1.09533Zm3.04871-10.324.56521,1.06172-2.05,3.84772-1.324-4.43445.69183-1.45855-1.22961-1.605-.8662,1.82762.98058,1.28279-.48279,5.99371-3.11426-5.057.29046-1.5872-1.60185-1.2343-.36117,1.99343,1.27832.98479,1.02079,5.56356-4.19958-3.97147-.1299-1.60931-1.86441-.77394.16058,2.01727,1.49071.61529,2.47612,5.21671-4.9768-2.68824-.54213-1.51988-2.00324-.2675.67959,1.90462,1.60017.21305,3.84883,4.52313-5.85065-1.39165-.92093-1.32491-2.00171.25684,1.14871,1.6638,1.60308-.2082,3.807,2.62848-4.29259.7622-.83784-.86356-1.89443,1.04062,7.53474,1.23708,2.24961,2.1a26.72108,26.72108,0,0,1,10.84626-7.88332l-1.30484-2.7904,1.14906-7.54866Zm-3.26709-2.19008-.41156,1.32532.296.76281-.53045-.71111Zm-4.92824,2.7165.23316-1.501-.02445,1.39015.49716.65Zm-6.72873,5.33569-.56047-1.41752.68339,1.21072.75837.30684Zm-2.2444,3.9-.90824-1.22409.9703.99477.81409.09943Zm-1.30966,3.57176,1.39032-.03995.43764.284Zm7.31249-10.35186-.82549-.32605-.17434-1.514.3477,1.34592Zm11.46978,3.44118q-.35287.13963-.70009.28877l.83632.76451-.10517,1.07667q.414-.17724.83136-.34461l.18964.48035a26.06888,26.06888,0,0,0-10.517,7.644l-.39756-.32924q.28548-.34719.5844-.68439l-1.05656-.2323-.469-1.03146c-.16528.18936-.3296.38174-.49.57618l-.39836-.32865a28.51417,28.51417,0,0,1,11.50317-8.36077Zm.392-5.55557-.31623-.82973.99969-1.15067-.7577,1.1689Zm-8.28285,10.3079q-.76312.65111-1.47768,1.35715l1.0477.329.3716,1.059q.67056-.6543,1.38339-1.25894l-1.05752-.43436Zm1.69849-1.34083q-.84621.615-1.6448,1.29563l1.00422.41375.28446,1.10752q.75071-.63589,1.54617-1.21529l-1.01036-.52427Zm-3.21861,2.73995q-.71175.70649-1.374,1.46232l1.10559.24364.44773.98514q.60323-.68571,1.25709-1.32045l-1.07123-.33414Zm6.07643-2.25778q.79594-.492,1.625-.92644l-.89355-.68335.01047-1.09809q-.89213.46172-1.747.98662l.91807.5827Z" transform="translate(0)"/></g><g id="グループ_6" data-name="グループ 6"><g id="L-FIND" class="cls-17"><g class="cls-17"><path class="cls-18" d="M434.26221,328.2998h-.51075v-.73632h.16114v.61425h.34961Z" transform="translate(0)"/><path class="cls-18" d="M434.60059,328.03711h-.35547v-.126h.35547Z" transform="translate(0)"/><path class="cls-18" d="M435.25879,327.68652h-.35449v.16309h.32129v.12207h-.32032v.32812h-.16113v-.73632h.51465Z" transform="translate(0)"/><path class="cls-18" d="M435.72754,328.2998h-.40137v-.10937h.12012v-.5166h-.12012v-.11035h.40137v.11035h-.12012v.5166h.12012Z" transform="translate(0)"/><path class="cls-18" d="M436.50342,328.2998h-.15528l-.33007-.53906v.53906h-.14942v-.73632h.19531l.29.47656v-.47656h.14942Z" transform="translate(0)"/><path class="cls-18" d="M436.67822,328.2998v-.73632h.23a.58622.58622,0,0,1,.24366.041.30911.30911,0,0,1,.13818.123.38913.38913,0,0,1,.05029.20508.384.384,0,0,1-.05224.19922.31157.31157,0,0,1-.14063.12793.58714.58714,0,0,1-.2373.04Zm.16114-.62011v.50488h.0791a.25244.25244,0,1,0,0-.50488Z" transform="translate(0)"/></g></g><g id="エルファインド" class="cls-17"><g class="cls-17"><path class="cls-18" d="M440.25,320.76172h-6.48047v-.94336h2.707V316.541h-2.27978v-.916h5.585v.916h-2.21143v3.27734H440.25Z" transform="translate(0)"/><path class="cls-18" d="M443.12793,317.2207a4.92874,4.92874,0,0,1-.52979,2.51758,3.61433,3.61433,0,0,1-1.64746,1.42969l-.3999-.834a2.59318,2.59318,0,0,0,1.15186-1.085,4.61317,4.61317,0,0,0,.40332-2.18847V315.4502h1.022Zm4.39551,1.10059a5.3154,5.3154,0,0,1-1.32422,1.75488,4.39149,4.39149,0,0,1-1.84766.96582l-.40674-.335v-5.459h1.022V319.709a4.06243,4.06243,0,0,0,1.76367-2.00586Z" transform="translate(0)"/><path class="cls-18" d="M453.84326,315.42285a7.39129,7.39129,0,0,1-.53174,2.96,3.87885,3.87885,0,0,1-1.7207,1.88281,7.15293,7.15293,0,0,1-2.87109.81446l-.27344-.91309a6.58079,6.58079,0,0,0,2.39941-.65429,3.15323,3.15323,0,0,0,1.36719-1.25782,5.10437,5.10437,0,0,0,.5127-1.95019h-4.32032v-.88184Z" transform="translate(0)"/><path class="cls-18" d="M460.66211,316.51953a3.41757,3.41757,0,0,1-.22754.60156c-.10107.21289-.186.375-.25439.48926a3.29727,3.29727,0,0,1-.33838.44043,5.88986,5.88986,0,0,1-.58594.57324,5.10754,5.10754,0,0,1-.70606.51465l-.458-.60156a3.47953,3.47953,0,0,0,.85644-.67578,3.83519,3.83519,0,0,0,.62354-.84961H455.313v-.7207h5.06885Zm-2.57715.80664a9.48968,9.48968,0,0,1-.10937,1.65625,2.69914,2.69914,0,0,1-1.33643,1.85254,3.59631,3.59631,0,0,1-.96728.39844l-.31446-.68067a2.46806,2.46806,0,0,0,1.50391-1.03515,3.16285,3.16285,0,0,0,.352-1.51367v-.08985l-.00342-.58789Z" transform="translate(0)"/><path class="cls-18" d="M465.9668,321.0625h-1.04932v-3.09961a12.78956,12.78956,0,0,1-2.84033,1.02832l-.31445-.89551a10.4071,10.4071,0,0,0,3.13769-1.26758,6.28034,6.28034,0,0,0,2.02-1.9248l.99463.37988a7.66647,7.66647,0,0,1-.97754,1.22657,7.75974,7.75974,0,0,1-.9707.7998Z" transform="translate(0)"/><path class="cls-18" d="M472.5498,316.6875l-.62548.84766q-.50612-.3252-.897-.54688-.39184-.22266-1.769-.916l.54-.78321A22.30344,22.30344,0,0,1,472.5498,316.6875Zm2.772.834a6.23165,6.23165,0,0,1-2.26612,2.44336,8.388,8.388,0,0,1-3.53759,1.04981l-.23243-.957a9.23872,9.23872,0,0,0,1.94825-.35547,5.15771,5.15771,0,0,0,1.36572-.6543,6.94017,6.94017,0,0,0,.99805-.82422,6.67082,6.67082,0,0,0,.9038-1.249Z" transform="translate(0)"/><path class="cls-18" d="M482.18848,318.502l-.646.81055a12.739,12.739,0,0,0-3.01807-1.52441v3.333h-1.07666v-6.166h1.08692v1.82422A17.53719,17.53719,0,0,1,482.18848,318.502Zm-1.44922-1.98828-.499.19141q-.28051-.69434-.46826-1.05274l.48194-.18847A11.34454,11.34454,0,0,1,480.73926,316.51367Zm1.03564-.22265-.49219.18164q-.23949-.59913-.46826-1.04981l.46826-.1748Q481.56324,315.78565,481.7749,316.291Z" transform="translate(0)"/></g></g></g></g><line id="線_2" data-name="線 2" class="cls-15" x1="453.21521" y1="330.70326" x2="499.5162" y2="330.85726"/></g></g><g id="サポート" class="cls-17"><g class="cls-17"><path class="cls-18" d="M388.01318,261.16992h1.21v.89453h-1.21v.63282a2.61509,2.61509,0,0,1-1.03222,2.22461,5.13019,5.13019,0,0,1-3.01465.81445l-.147-.89942a4.24869,4.24869,0,0,0,2.48486-.63379,1.85789,1.85789,0,0,0,.69385-1.50585v-.63282h-2.10889v1.66211h-1.02881v-1.66211h-1.24414v-.89453h1.24414v-1.41211h1.02881v1.41211h2.10889V259.6582h1.01513Z" transform="translate(0)"/><path class="cls-18" d="M392.15039,262.19141a6.01843,6.01843,0,0,1-1.72949,3.21289l-.793-.53711a5.47815,5.47815,0,0,0,1.07666-1.56836,6.00245,6.00245,0,0,0,.40674-1.20313Zm1.439,3.55859h-1.02881v-4.05469h-2.59424v-.85351h2.59424v-1.12891h1.02881v1.12891h2.57031v.85351h-2.57031Zm2.97021-.85547-.834.541a5.93569,5.93569,0,0,1-1.05469-1.56446,6.6039,6.6039,0,0,1-.57569-1.67285l.97413-.13965a6.12153,6.12153,0,0,0,.50927,1.31739A8.35064,8.35064,0,0,0,396.55957,264.89453Zm-.35205-4.93164a.68941.68941,0,0,1-.21875.52441.83484.83484,0,0,1-1.10059,0,.738.738,0,0,1,0-1.04882.83487.83487,0,0,1,1.10059,0A.68941.68941,0,0,1,396.20752,259.96289Zm-.45947-.30762a.44226.44226,0,1,0,.12451.30762A.419.419,0,0,0,395.74805,259.65527Z" transform="translate(0)"/><path class="cls-18" d="M403.45166,263.24805h-6.27881v-.91016h6.27881Z" transform="translate(0)"/><path class="cls-18" d="M410.6582,263.14453l-.646.81055a12.73978,12.73978,0,0,0-3.01807-1.52442v3.333h-1.07666v-6.166h1.08691v1.82422A17.5362,17.5362,0,0,1,410.6582,263.14453Z" transform="translate(0)"/></g></g></g><g id="グループ_170" data-name="グループ 170"><g id="グループ_169" data-name="グループ 169"><rect id="長方形_112" data-name="長方形 112" class="cls-19" x="266.0942" y="84.88872" width="44.855" height="118.264"/><path id="多角形_3" data-name="多角形 3" class="cls-19" d="M359.9412,144.30572l-50,59.5v-119Z" transform="translate(0)"/></g><g id="POINT_02" data-name="POINT 02" class="cls-17"><g class="cls-17"><path class="cls-18" d="M243.59326,48.02344v16.7832h-10.7959V15.50586h18.64746q9.58521,0,14.55811,3.90918,4.97241,3.90966,4.97266,11.43359a15.57161,15.57161,0,0,1-5.4961,12.51367q-5.49609,4.66114-14.3291,4.66114Zm-.06543-24.76465V40.20508h2.87891q8.113,0,10.74658-2.24121,2.63305-2.23976,2.63379-6.88575a6.96929,6.96929,0,0,0-2.53516-5.82421q-2.53637-1.99366-10.02734-1.99512Z" transform="translate(0)"/><path class="cls-18" d="M299.76465,65.85352q-11.25439,0-17.68262-6.85352-6.42772-6.854-6.42822-18.79492,0-12.00587,6.396-18.86035,6.39479-6.85254,17.71485-6.85352,11.28661,0,17.71484,6.87012,6.42919,6.87012,6.42871,18.84375,0,11.87548-6.3955,18.76172Q311.11573,65.85449,299.76465,65.85352Zm.03271-43.57618a11.01573,11.01573,0,0,0-9.32373,4.67774q-3.468,4.68018-3.46777,13.25,0,8.53857,3.46777,13.20019a11.59767,11.59767,0,0,0,18.61475-.03222q3.46728-4.69483,3.46777-13.20117,0-8.53712-3.45166-13.2168A10.9741,10.9741,0,0,0,299.79736,22.27734Z" transform="translate(0)"/><path class="cls-18" d="M356.165,64.80664h-26.8916V57.44531h8.04785V22.86621h-8.04785V15.50586H356.165v7.36035h-8.04785v34.5791H356.165Z" transform="translate(0)"/><path class="cls-18" d="M408.14893,64.80664H397.74561L375.63037,28.65625V64.80664H365.61963V15.50586h13.08594l19.43261,31.86328V15.50586h10.01075Z" transform="translate(0)"/><path class="cls-18" d="M457.74463,23.68359H441.55078V64.80664h-10.7959V23.68359H414.561V15.50586h43.18359Z" transform="translate(0)"/></g><g class="cls-17"><path class="cls-18" d="M249.61279,165.85352q-10.0437,0-14.73779-6.10157-4.69556-6.10107-4.69482-19.58007,0-13.34766,4.71093-19.498,4.71095-6.14941,14.72168-6.15039,10.01075,0,14.72168,6.13476,4.71094,6.13331,4.71094,19.48145,0,13.57764-4.67822,19.64551Q259.68848,165.854,249.61279,165.85352Zm0-43.707a6.75117,6.75117,0,0,0-6.55908,4.30176q-1.98047,4.30226-1.97949,13.75684,0,9.42188,2.02832,13.74023a6.77519,6.77519,0,0,0,6.51025,4.31836q4.4817,0,6.51026-4.38379,2.02808-4.38281,2.02832-13.74023,0-9.42187-1.97949-13.708A6.75285,6.75285,0,0,0,249.61279,122.14648Z" transform="translate(0)"/><path class="cls-18" d="M314.38818,164.80664H277.22412v-7.75391Q291.324,146.32422,296.18262,140.5q4.85742-5.82276,4.85791-10.33789a6.90687,6.90687,0,0,0-2.33936-5.57813,9.64333,9.64333,0,0,0-6.42822-1.97949q-6.21606,0-12.95508,4.417H278.5v-9.38964a43.26555,43.26555,0,0,1,15.47412-3.1084q8.73486,0,13.4624,3.81152,4.72632,3.81153,4.72705,10.68164,0,5.2998-3.84423,11.20508-3.84449,5.90478-17.87842,16.63574h23.94726Z" transform="translate(0)"/></g></g></g><g id="サポート付きで困ったときも安心です_" data-name="サポート付きで困ったときも安心です " class="cls-17"><g class="cls-17"><path class="cls-20" d="M541.252,21.74219h10.3711V29.418H541.252v5.41992q0,12.42188-8.84765,19.07227-8.8484,6.65039-25.83985,6.97265l-1.25976-7.70508q15.35155-.52734,21.29883-5.43457a15.915,15.915,0,0,0,5.94726-12.90527V29.418H514.47461V43.65625h-8.81836V29.418H494.99219V21.74219h10.66406V9.64258h8.81836V21.74219h18.07617V8.793H541.252Z" transform="translate(0)"/><path class="cls-20" d="M580.91406,30.502Q577.04688,47.90431,566.08984,58.041L559.293,53.44141a46.98986,46.98986,0,0,0,9.22851-13.44727,51.48172,51.48172,0,0,0,3.48633-10.3125ZM593.24805,61h-8.81836V26.25391H562.19336V18.92969h22.23633v-9.668h8.81836v9.668H615.2793v7.32422H593.24805Zm25.459-7.32422-7.14844,4.62891a50.74659,50.74659,0,0,1-9.03808-13.40332A56.46664,56.46664,0,0,1,597.584,30.56055l8.34961-1.20117a52.47047,52.47047,0,0,0,4.36524,11.29394A71.56353,71.56353,0,0,0,618.707,53.67578Zm-3.01758-42.27539a5.92277,5.92277,0,0,1-1.875,4.49707,7.1623,7.1623,0,0,1-9.43359,0,5.921,5.921,0,0,1-1.875-4.49707,5.921,5.921,0,0,1,1.875-4.49707,7.1623,7.1623,0,0,1,9.43359,0A5.92277,5.92277,0,0,1,615.68945,11.40039ZM611.749,8.76367a3.78455,3.78455,0,0,0-5.30273,0,3.61215,3.61215,0,0,0-1.06934,2.63672,3.61215,3.61215,0,0,0,1.06934,2.63672,3.78455,3.78455,0,0,0,5.30273,0,3.61408,3.61408,0,0,0,1.06934-2.63672A3.61408,3.61408,0,0,0,611.749,8.76367Z" transform="translate(0)"/><path class="cls-20" d="M681.98242,39.55469H628.16406v-7.793h53.81836Z" transform="translate(0)"/><path class="cls-20" d="M747.95312,38.67578l-5.5371,6.94336a109.22827,109.22827,0,0,0-25.86914-13.06641V61.11719h-9.22852V8.26562h9.31641V23.91016A149.75937,149.75937,0,0,1,747.95312,38.67578Z" transform="translate(0)"/><path class="cls-20" d="M774.57812,61.41016h-7.96874V36.30273q-1.64136,2.60744-4.27735,6.09375l-5.09765-4.57031A80.90836,80.90836,0,0,0,764.5,25.33105a80.96649,80.96649,0,0,0,6.24023-17.2998l8.08594,1.377a70.48538,70.48538,0,0,1-5.5664,15.35157h1.31835ZM808.709,54.52539a5.45377,5.45377,0,0,1-2.13867,4.13086,7.32252,7.32252,0,0,1-4.98047,1.875h-10.2832l-.99609-7.88086h8.14453a2.11875,2.11875,0,0,0,1.30371-.4834,1.4014,1.4014,0,0,0,.62988-1.12793V24.93555H777.03906V17.9043h23.34961V8.207H808.709V17.9043h6.85547v7.03125H808.709ZM795.81836,44.00781l-7.61719,3.7793A160.86128,160.86128,0,0,0,779.207,31.23438l7.06055-3.66211A153.38182,153.38182,0,0,1,795.81836,44.00781Z" transform="translate(0)"/><path class="cls-20" d="M872.45312,42.80664,867.0918,47.8457q-7.64649-4.92187-15.17578-4.92187a58.63421,58.63421,0,0,0-7.73438.39551,9.38327,9.38327,0,0,0-4.55566,1.75781,4.42192,4.42192,0,0,0-1.74317,3.67676q0,5.00976,12.627,5.00976l3.10546-.02929h.64454q1.46484,0,4.2041-.16114T871.252,52.12305l.293,7.61718a165.13713,165.13713,0,0,1-17.373,1.084,66.67637,66.67637,0,0,1-14.44336-1.18652,15.16737,15.16737,0,0,1-7.63184-3.91114,9.64227,9.64227,0,0,1-2.62207-6.97265,10.113,10.113,0,0,1,5.41992-9.25782q5.41992-3.16406,14.707-3.16406a47.413,47.413,0,0,1,9.28711.84961q-.9668-1.61133-2.34375-4.27734H827.6875V26.07812h25.66406q-.76245-1.7578-1.66992-4.57031H829.91406V14.74023h20.03906q-.46875-2.34375-1.084-5.65429l8.584-.64453q.55591,3.83789,1.084,6.29882h16.72851v6.76758H860.41211q.5559,1.55274,1.75781,4.57031h15.9082V32.9043H865.59766A55.21226,55.21226,0,0,0,872.45312,42.80664Z" transform="translate(0)"/><path class="cls-20" d="M938.89258,52.709l-.41016,7.91016q-3.19335.08788-4.248.08789-10.81056,0-16.84571-3.03223-6.03588-3.03222-8.64258-7.32421a18.4373,18.4373,0,0,1-2.60742-9.77051q0-10.72266,10.57617-19.7461l-26.04492.26368v-7.5h52.23633v7.55859H929.459A28.75854,28.75854,0,0,0,919,29.38867a17.33066,17.33066,0,0,0-4.10156,10.83985q0,12.65625,19.248,12.65625Q936.37232,52.88477,938.89258,52.709Zm-2.60742-19.42382-4.33594,1.61132q-1.2019-3.04687-3.95508-8.99414l4.16016-1.64062A94.48833,94.48833,0,0,1,936.28516,33.28516Zm8.34961-1.69922L940.416,33.13867q-2.05079-5.09766-4.01368-8.99414l4.01368-1.49414Q942.81763,27.25,944.63477,31.58594Z" transform="translate(0)"/><path class="cls-20" d="M1002.69531,57.63086H966.89453V60.707h-7.88086V9.64258H1010.752v50.625h-8.05664Zm-35.80078-6.123h35.80078V15.64844H966.89453Zm14.0918-12.01172a47.63275,47.63275,0,0,1-9.668,9.375l-4.18945-4.77539a43.77973,43.77973,0,0,0,7.04589-6.48925,44.41082,44.41082,0,0,0,5.11231-7.69043H969.15039V23.96875h11.71875V17.20117h7.32422v6.76758H1000.293V29.916H989.21875a41.70537,41.70537,0,0,0,13.35937,13.21289l-4.27734,5.332a45.823,45.823,0,0,1-10.3125-9.58008V50.01367h-7.002Z" transform="translate(0)"/><path class="cls-20" d="M1036.46875,59.35938l-1.31836-6.29883a116.643,116.643,0,0,0,15.99609-1.56739,20.20088,20.20088,0,0,0,9.52149-4.2041,10.05126,10.05126,0,0,0,3.60351-8.02734,9.78891,9.78891,0,0,0-3.06152-7.5293,11.26692,11.26692,0,0,0-7.9834-2.8418q-6.76758,0-27.71484,3.95508l-1.14258-6.59179,15.70313-2.31446a106.76825,106.76825,0,0,1,13.27148-1.34765q8.55323,0,13.667,4.36523,5.11232,4.36524,5.11231,12.12891Q1072.12305,58.94921,1036.46875,59.35938Z" transform="translate(0)"/><path class="cls-20" d="M1110.08594,8.5q.08789,1.084.08789,3.75,0,1.99218-.11719,3.89648h19.36524v7.03125h-20.15626a83.06852,83.06852,0,0,1-4.86328,20.97657q-4.043,11.25-8.93554,17.54882l-6.79688-4.01367a64.52728,64.52728,0,0,0,7.85156-15.92285,86.67124,86.67124,0,0,0,4.45313-18.58887H1090.7207V16.14648h10.752q.23438-4.71679.23437-7.64648Zm33.31054,50.39062a89.71025,89.71025,0,0,1-13.88671.9668A71.68148,71.68148,0,0,1,1118.919,59.169a12.85048,12.85048,0,0,1-7.16309-3.17872,7.87416,7.87416,0,0,1-2.60742-5.88867q0-4.51172,4.80468-9.3164l6.24024,2.92968q-2.90039,3.54492-2.90039,5.6836a1.93268,1.93268,0,0,0,1.05469,1.69922,11.89244,11.89244,0,0,0,4.248,1.01074,64.05734,64.05734,0,0,0,7.23633.36621,75.556,75.556,0,0,0,13.1543-1.14258Zm-1.55273-32.57812-.41016,6.97266q-1.66992-.0879-3.48632-.08789-9.93165,0-24.60938,1.34765l-.52734-6.97265a221.33478,221.33478,0,0,1,24.40429-1.34766Q1140.02734,26.22461,1141.84375,26.3125Z" transform="translate(0)"/><path class="cls-20" d="M1206.93555,59.85742q-9.25782.791-17.8125.791-12.36475,0-16.582-.84961a17.52257,17.52257,0,0,1-9.11133-4.37988,11.40221,11.40221,0,0,1-3.31055-8.54q0-10.04883,14.707-17.168-.939-10.10742-.99609-20.39063h8.52539l-.0293,2.63672v.87891q0,6.50391.41016,13.50586,6.76758-2.54883,20.06836-6.32813l2.46093,7.32422q-17.92968,4.6582-27.46582,9.33106t-9.53613,10.00488q0,6.50391,14.32617,6.5039h2.72461A207.19179,207.19179,0,0,0,1206.584,51.918Z" transform="translate(0)"/><path class="cls-20" d="M1268.45312,42.80664l-5.36132,5.03906q-7.64649-4.92187-15.17578-4.92187a58.63421,58.63421,0,0,0-7.73438.39551,9.38132,9.38132,0,0,0-4.55566,1.75781,4.42192,4.42192,0,0,0-1.74317,3.67676q0,5.00976,12.627,5.00976l3.10546-.02929h.64454q1.46484,0,4.2041-.16114t12.78808-1.45019l.293,7.61718a165.14484,165.14484,0,0,1-17.373,1.084,66.67637,66.67637,0,0,1-14.44336-1.18652,15.16529,15.16529,0,0,1-7.63184-3.91114,9.64227,9.64227,0,0,1-2.62207-6.97265,10.11212,10.11212,0,0,1,5.41992-9.25782q5.41992-3.16406,14.707-3.16406a47.41654,47.41654,0,0,1,9.28711.84961q-.9668-1.61133-2.34375-4.27734H1223.6875V26.07812h25.66406q-.76319-1.7578-1.66992-4.57031h-21.76758V14.74023h20.03906q-.46875-2.34375-1.084-5.65429l8.584-.64453q.55518,3.83789,1.084,6.29882h16.72851v6.76758h-14.85351q.55518,1.55274,1.75781,4.57031h15.9082V32.9043h-12.48046A55.21226,55.21226,0,0,0,1268.45312,42.80664Z" transform="translate(0)"/><path class="cls-20" d="M1326.57227,38.67578h-18.252a68.759,68.759,0,0,0-1.11328,9.11133q0,5.83008,11.16211,5.83008,8.75976,0,11.60156-1.77246a5.51,5.51,0,0,0,2.8418-4.90723,29.91333,29.91333,0,0,0-3.83789-13.97461L1336.12305,31q5.15625,9.14063,5.15625,16.23047,0,13.65234-22.91016,13.65234-9.28857,0-14.42871-3.33984a10.96277,10.96277,0,0,1-5.1416-9.81445,69.3662,69.3662,0,0,1,1.02539-9.05274h-11.33789V31.49805h12.53906q.58594-3.01758,1.46484-7.23633h-13.0957v-7.002h14.707q1.20117-5.03907,2.25586-8.584l8.52539.64453-1.99219,7.93946h23.877v7.002h-25.60547l-1.582,7.23633h16.99219Z" transform="translate(0)"/><path class="cls-20" d="M1398.31445,34.89648a30.00145,30.00145,0,0,1-7.002,13.65235q5.12549,1.7871,14.94141,5.74219l-4.65821,6.65039q-7.1792-3.22266-17.168-7.03125-9.64013,5.68359-27.91992,7.207l-1.61133-6.416q13.418-1.11328,21.06446-4.36523a87.86491,87.86491,0,0,0-11.86524-3.48633q-2.373-.498-2.373-2.60742a2.58106,2.58106,0,0,1,.26367-1.11328q2.40087-4.95119,3.86719-8.23243h-12.334v-6.4746h15.0293q1.9043-4.71681,2.90039-7.73438l8.4082,1.084q-.76319,2.43165-2.46094,6.6504h30.73243v6.4746Zm7.82227-9.05273h-7.38281V20.07227h-35.6836v5.83007h-7.38281V13.94922h20.80078V7.76758h8.23242v6.18164h21.416Zm-22.73438,19.92187a24.01492,24.01492,0,0,0,6.38672-10.86914h-15.14648q-1.81788,4.043-3.252,6.6504Q1378.97705,43.91992,1383.40234,45.76562Z" transform="translate(0)"/><path class="cls-20" d="M1431.0918,30.64844a85.11133,85.11133,0,0,1-2.29981,13.31543,49.21936,49.21936,0,0,1-3.82324,11.32324l-7.5-2.57813q3.80714-8.14452,5.71289-22.96875Zm33.7207,22.4414a6.18076,6.18076,0,0,1-1.46484,4.27735,7.62728,7.62728,0,0,1-4.18946,2.24121,49.12173,49.12173,0,0,1-9.28711.60058q-2.7539,0-5.99121-.20507a22.98463,22.98463,0,0,1-4.292-.52735,6.90411,6.90411,0,0,1-2.24121-1.27441,6.64909,6.64909,0,0,1-1.86035-2.37305,7.45324,7.45324,0,0,1-.67383-3.2373V19.36914h8.23242V50.98047a1.72182,1.72182,0,0,0,1.23047,1.81641,25.76942,25.76942,0,0,0,6.03516.41015q4.57031,0,5.61035-.60058a3.79831,3.79831,0,0,0,1.43555-2.75391,58.17576,58.17576,0,0,0,.3955-8.54l7.06055.9082Zm-6.76758-34.27734-5.44922,5.94727q-3.80859-3.66212-16.69922-12.77344l4.86329-5.41992a91.292,91.292,0,0,1,9.22851,5.918A77.88261,77.88261,0,0,1,1458.04492,18.8125Zm18.36914,27.65625-8.05664,2.51953q-1.40625-4.834-4.1748-11.74805a99.27639,99.27639,0,0,0-4.64356-10.3125l7.32422-2.69531a107.90974,107.90974,0,0,1,5.50781,11.17676A77.4973,77.4973,0,0,1,1476.41406,46.46875Z" transform="translate(0)"/><path class="cls-20" d="M1532.89258,52.709l-.41016,7.91016q-3.19335.08788-4.248.08789-10.81056,0-16.84571-3.03223t-8.64258-7.32421a18.44175,18.44175,0,0,1-2.60742-9.77051q0-10.72266,10.57617-19.7461l-26.04492.26368v-7.5h52.23633v7.55859H1523.459A28.75854,28.75854,0,0,0,1513,29.38867a17.33344,17.33344,0,0,0-4.10156,10.83985q0,12.65625,19.248,12.65625Q1530.37305,52.88477,1532.89258,52.709Zm-2.60742-19.42382-4.33594,1.61132q-1.20117-3.04687-3.95508-8.99414l4.16016-1.64062A94.48833,94.48833,0,0,1,1530.28516,33.28516Zm8.34961-1.69922-4.21875,1.55273q-2.05078-5.09766-4.01368-8.99414l4.01368-1.49414Q1536.81836,27.25,1538.63477,31.58594Z" transform="translate(0)"/><path class="cls-20" d="M1606.07031,20.89258H1588.668V31.9668a20.0674,20.0674,0,0,1,1.66992,8.99414,17.98241,17.98241,0,0,1-6.25488,14.31152q-6.25488,5.40528-16.71387,6.0791l-2.05078-7.08984q12.89063-.99609,16.25976-9.22852a12.63327,12.63327,0,0,1-7.61718,2.40235,12.4601,12.4601,0,0,1-8.59864-3.09082,10.13151,10.13151,0,0,1-3.47168-7.92481,11.73533,11.73533,0,0,1,3.67676-8.90625,12.90224,12.90224,0,0,1,9.24317-3.48633,14.436,14.436,0,0,1,5.21484.9668V20.89258h-28.68164V13.91992h28.68164V8.06055h8.64258v5.85937h17.40234Zm-25.92773,13.33008-.0586-1.64063q-1.43555-2.02148-5.21484-2.02148a4.85242,4.85242,0,0,0-3.55957,1.65527,5.12257,5.12257,0,0,0-1.59668,3.61816,4.76335,4.76335,0,0,0,1.18652,3.31055,3.93018,3.93018,0,0,0,3.06153,1.31836A6.02017,6.02017,0,0,0,1578.458,38.749,6.17824,6.17824,0,0,0,1580.14258,34.22266Z" transform="translate(0)"/></g></g><g id="診断システムを導入してきたからこそ実績を元に_確実に効果が出るサポートを提供いたします_" data-name="診断システムを導入してきたからこそ実績を元に 確実に効果が出るサポートを提供いたします " class="cls-17"><g class="cls-17"><path class="cls-18" d="M589.58594,134.44727h-14.082V130.541h14.082Zm-.48828,23.84765h-8.06641v1.44531h-4.6875v-13.125h12.75391Zm-.11719-29.39453H576.87109v-3.47656h12.10938Zm-.19531,10.68359h-11.875v-3.418h11.875Zm0,5.23438h-11.875v-3.4375h11.875Zm-4.39454,10.03906V150.0918H581.1875v4.76562ZM613.707,134.584l-2.85156,3.94532a29.4616,29.4616,0,0,1-9.94141-9.043,24.63748,24.63748,0,0,1-9.88281,8.96484l-2.48047-3.39844a20.10884,20.10884,0,0,0,5.41992-3.97461,24.18148,24.18148,0,0,0,4.61914-6.416h4.80469A22.97053,22.97053,0,0,0,613.707,134.584Zm-8.55469.625a30.23358,30.23358,0,0,1-6.02539,5.4004,46.66126,46.66126,0,0,1-7.50976,4.44335l-2.44141-3.63281q8.33936-4.14111,12.05078-8.88672Zm4.4336,5.83985a41.37572,41.37572,0,0,1-8.34961,6.48437,48.71094,48.71094,0,0,1-10.166,4.88282l-1.83593-3.96485a43.8697,43.8697,0,0,0,9.43359-4.73633,36.90581,36.90581,0,0,0,7.10937-5.81054Zm3.88672,6.28906a38.87376,38.87376,0,0,1-10.41993,7.67578,48.42391,48.42391,0,0,1-12.27539,4.80469l-1.543-4.19922a46.52971,46.52971,0,0,0,11.04492-4.668,35.9559,35.9559,0,0,0,9.42382-7.01172Z" transform="translate(0)"/><path class="cls-18" d="M635.62891,152.9043l-.03907,1.8164a25.11548,25.11548,0,0,0,2.29493-7.41211,52.7565,52.7565,0,0,0,.65429-8.21289V127.25977a50.34025,50.34025,0,0,0,13.35938-2.59766l2.24609,3.98437a56.74707,56.74707,0,0,1-10.68359,2.2461v5.41015h10.5664v4.27735h-2.92968V159.4082h-5V140.58008h-2.65625a44.22214,44.22214,0,0,1-1.45508,10.498,29.6594,29.6594,0,0,1-4.05274,8.70118l-3.39843-2.63672H622.09375v1.60156h-4.43359V125.73633h4.43359v27.168Zm-7.207-8.28125a24.38628,24.38628,0,0,1-3.88672,5.07812l-2.30469-2.63672a31.26344,31.26344,0,0,0,5.3125-8.53515h-4.51172V135.209h5.39063v-10.3125h3.96484V135.209h4.92187v3.32032h-4.16015a34.34993,34.34993,0,0,0,4.27734,5.21484l-2.207,3.14453a25.26307,25.26307,0,0,1-2.832-3.3789v8.67187h-3.96484Zm-.60547-10.44922-3.4375.5664-1.19141-7.28515,3.39844-.52735Zm10.11718-6.875-1.83593,7.36328-3.20313-.52734,1.44531-7.44141Z" transform="translate(0)"/><path class="cls-18" d="M677.58887,140.89258l-2.65625,4.92187q-4.33595-1.894-7.13867-2.85156-2.80225-.95654-9.32618-2.793l2.22657-4.60937a73.42622,73.42622,0,0,1,7.43164,1.90429Q671.47608,138.52978,677.58887,140.89258Zm17.48047-1.52344a35.4679,35.4679,0,0,1-13.252,14.14063,47.19228,47.19228,0,0,1-19.91211,5.97656l-1.28906-5.23438a46.59275,46.59275,0,0,0,17.19727-4.86328q7.19677-3.82764,12.373-12.5Zm-13.69141-8.04687-2.75391,4.88281q-2.12841-.95655-4.39453-1.89453-2.26611-.9375-3.6914-1.38672l-8.20313-2.63672,2.28516-4.51172A119.307,119.307,0,0,1,681.37793,131.32227Z" transform="translate(0)"/><path class="cls-18" d="M736.58105,155.81445l-4.39453,4.19922a180.48007,180.48007,0,0,0-13.35937-12.28515,59.513,59.513,0,0,1-18.28125,12.40234l-2.85156-4.60938a54.53458,54.53458,0,0,0,14.541-9.41406,40.71963,40.71963,0,0,0,10.459-13.67187l-19.78516-.01953v-5.11719h25.66406l1.60156,1.543a37.67884,37.67884,0,0,1-3.19335,8.15429,48.65234,48.65234,0,0,1-4.52149,6.57227Q730.89746,150.42382,736.58105,155.81445Z" transform="translate(0)"/><path class="cls-18" d="M776.78418,142.5332H762.50684v.60547a15.026,15.026,0,0,1-4.36524,11.17188q-4.36523,4.31689-12.27539,5.78125l-1.75781-4.84375a18.65609,18.65609,0,0,0,9.18945-4.28711,9.9656,9.9656,0,0,0,3.21289-7.54883v-.87891H740.33887v-5.03906h36.44531ZM774.38184,132.377H742.70215v-5h31.67969Z" transform="translate(0)"/><path class="cls-18" d="M811.4209,156.67383q-10.37109,1.48389-29.47266,2.61719l-.8789-5.44922q1.83544,0,4.45312-.09766,2.3628-5.07861,5.24414-13.02734,2.87988-7.94971,4.89258-14.82422l5.99609.957a201.72916,201.72916,0,0,1-9.90234,26.582q11.42579-.70312,17.14844-1.50391-1.03564-1.93359-7.207-11.44531l4.84375-2.48047a84.988,84.988,0,0,1,6.67968,9.73633q3.47609,5.79053,5.72266,10.51758l-5.87891,2.03125Q812.24122,158.35352,811.4209,156.67383Z" transform="translate(0)"/><path class="cls-18" d="M847.62012,153.334h-5.56641l.01953-7.67578q-6.97266,3.41748-6.97265,6.38672,0,2.94873,6.71875,2.94922l2.168-.01953a99.04839,99.04839,0,0,0,13.28125-.64453l.27344,4.88281q-5.48877.52734-10.76172.52734-10.13671,0-13.59375-1.72851a5.64391,5.64391,0,0,1-3.457-5.3418q0-5.937,11.34766-11.66015a1.82181,1.82181,0,0,0-1.52344-.64454,11.18969,11.18969,0,0,0-4.58008,1.3086,28.3276,28.3276,0,0,0-6.18164,4.3164q-2.38331,2.10938-3.418,2.85157l-3.39843-3.67188a36.13813,36.13813,0,0,0,10.27343-11.25h-8.33984V129.291h10.37109a33.38523,33.38523,0,0,0,1.23047-4.4336l5.74219.3125q-.54784,2.42139-1.11328,4.1211h12.89062v4.6289H838.26465q-.5083,1.01514-1.875,3.125a11.95042,11.95042,0,0,1,3.75-.64453q3.98438,0,5.74219,2.46094,2.53857-1.09423,10.70312-4.29688l2.28516,4.64844q-3.84814,1.30811-11.48438,4.10156a23.88618,23.88618,0,0,1,.19531,3.14453Z" transform="translate(0)"/><path class="cls-18" d="M879.46387,157.2207l-4.76563,2.26563q-.74268-.91847-5-4.82422l1.75781-.87891h-7.55859v-3.418h25.37109v-1.23046q-7.34472,0-10.52734-.20508a18.71749,18.71749,0,0,1-4.99023-.85938,6.30344,6.30344,0,0,1-2.80274-1.86523,17.94406,17.94406,0,0,1-3.16406,1.91406,19.17939,19.17939,0,0,1-3.39844,1.36719l-1.44531-3.98438a19.218,19.218,0,0,0,5.44922-2.05078v-5.68359h-4.49219v-3.55469h9.19922v8.63281a1.84955,1.84955,0,0,0,.625,1.377,4.92115,4.92115,0,0,0,1.86523,1.00586,14.11509,14.11509,0,0,0,3.1543.57617q1.91309.16553,7.46094.166,9.88184,0,15.01953-.15625l-.72266,3.32032-5.957.01953v1.21093h5.72266v3.418H894.542v2.98828a2.54041,2.54041,0,0,1-1.35742,2.25586,5.366,5.366,0,0,1-2.8418.83008h-6.28906l-.80078-4.23828h5a1.04966,1.04966,0,0,0,.68359-.2832.77289.77289,0,0,0,.332-.55664v-.9961H875.53809Q876.729,154.73975,879.46387,157.2207ZM873.624,130.13086l-4.0039,2.71484a38.13588,38.13588,0,0,0-5-5.66406l3.76953-2.44141A53.05077,53.05077,0,0,1,873.624,130.13086Zm2.5586,14.39453V131.92773h7.28515l.66407-1.64062h-9.82422V127.416h5.625l-1.34766-2.36329,4.707-.83984,1.85547,3.20313h4.33594l1.77734-3.28125,4.88281.76171-1.67968,2.51954h5.64453v2.87109h-11.25l-.72266,1.64062h9.72656v12.59766Zm16.64062-8.90625v-1.67969H881.18262v1.67969Zm-11.64062,3.39844h11.64062v-1.67969H881.18262Zm0,3.51562h11.64062v-1.75781H881.18262Z" transform="translate(0)"/><path class="cls-18" d="M923.88477,144.17383a28.42871,28.42871,0,0,1-6.416,9.0039,38.4971,38.4971,0,0,1-10.43945,6.71875L904.334,155.541a27.14827,27.14827,0,0,0,11.25-8.27149,24.80522,24.80522,0,0,0,5.11719-12.62695v-4.0625l-9.6875-.03906v-4.6875h15.41016q.019.48778.01953,1.05468v3.55469a32.28651,32.28651,0,0,0,.71289,6.89453,22.80569,22.80569,0,0,0,2.63672,6.42578,26.97368,26.97368,0,0,0,4.91211,6.12305,41.74425,41.74425,0,0,0,7.28515,5.3418l-3.84765,4.57031a48.44475,48.44475,0,0,1-9.23828-7.959A32.86376,32.86376,0,0,1,923.88477,144.17383Z" transform="translate(0)"/><path class="cls-18" d="M981.90039,143.09961q-2.53857,8.90625-7.03125,12.85156a16.853,16.853,0,0,1-11.543,3.94531,16.30238,16.30238,0,0,1-5.332-.791,10.35323,10.35323,0,0,1-3.73047-2.13867,10.10743,10.10743,0,0,1-2.22656-2.93946,10.81584,10.81584,0,0,1-1.01563-3.3789,46.96071,46.96071,0,0,1-.23437-5.53711q0-4.10157.83984-19.21875h5.83985q-.80127,13.4956-.80078,18.76953a38.66839,38.66839,0,0,0,.2246,5.44922,5.51754,5.51754,0,0,0,1.00586,2.21679,4.92758,4.92758,0,0,0,2.25586,1.64063,9.94215,9.94215,0,0,0,3.60352.57617,10.60736,10.60736,0,0,0,7.89062-3.22265q3.16407-3.22266,5.01954-10.19532Z" transform="translate(0)"/><path class="cls-18" d="M1019.05664,154.4082l-.27344,5.27344q-2.12841.05859-2.832.05859-7.207,0-11.23047-2.02148a13.65,13.65,0,0,1-5.76172-4.88281,12.29152,12.29152,0,0,1-1.73828-6.51367q0-7.14845,7.05078-13.16407l-17.36328.17578v-5h34.82422v5.03907h-8.96484a19.17773,19.17773,0,0,0-6.97266,5.48828,11.55307,11.55307,0,0,0-2.73437,7.22656q0,8.4375,12.832,8.4375Q1017.37647,154.52539,1019.05664,154.4082Z" transform="translate(0)"/><path class="cls-18" d="M1059.709,147.80664l-3.57421,3.35938a18.60606,18.60606,0,0,0-10.11719-3.28125,39.09068,39.09068,0,0,0-5.15625.26367,6.25548,6.25548,0,0,0-3.03711,1.17187,2.94663,2.94663,0,0,0-1.16211,2.45117q0,3.33986,8.418,3.33985l2.07031-.01953h.42969q.97558,0,2.80273-.10742,1.8252-.10693,8.52539-.9668l.19532,5.07812a110.1894,110.1894,0,0,1-11.582.72266,44.446,44.446,0,0,1-9.6289-.791,10.11154,10.11154,0,0,1-5.08789-2.60742,6.426,6.426,0,0,1-1.748-4.64844,6.74234,6.74234,0,0,1,3.61328-6.17187q3.6123-2.10937,9.80469-2.10938a31.58869,31.58869,0,0,1,6.19141.56641q-.64453-1.07373-1.5625-2.85156h-19.23829V136.6543h17.10938q-.50831-1.17187-1.11328-3.04688h-14.51172V129.0957H1044.709q-.31347-1.563-.72265-3.76953l5.72265-.42969q.3706,2.55909.72266,4.19922H1061.584v4.51172h-9.90234q.3706,1.03565,1.17188,3.04688H1063.459v4.55078h-8.32031A36.81985,36.81985,0,0,0,1059.709,147.80664Z" transform="translate(0)"/><path class="cls-18" d="M1083.291,124.93555q.05859.72216.05859,2.5,0,1.32861-.07813,2.59765h12.91016v4.6875h-13.4375a55.40387,55.40387,0,0,1-3.24219,13.98438,42.86521,42.86521,0,0,1-5.957,11.69922l-4.53125-2.67578a43.03,43.03,0,0,0,5.23438-10.61524,57.81085,57.81085,0,0,0,2.96875-12.39258h-6.83594v-4.6875h7.168q.15527-3.145.15625-5.09765Zm22.207,33.59375a59.8027,59.8027,0,0,1-9.25782.64453,47.83706,47.83706,0,0,1-7.06054-.459,8.56274,8.56274,0,0,1-4.77539-2.11914,5.24961,5.24961,0,0,1-1.73828-3.92578q0-3.00732,3.20312-6.21094l4.16016,1.95313q-1.9336,2.36279-1.9336,3.78906a1.28808,1.28808,0,0,0,.70313,1.13281,7.93821,7.93821,0,0,0,2.832.67383,42.63164,42.63164,0,0,0,4.82422.24414,50.36723,50.36723,0,0,0,8.76953-.76172Zm-1.03516-21.71875-.27344,4.64843q-1.11327-.05859-2.32422-.05859-6.62109,0-16.40625.89844l-.35156-4.64844a147.63307,147.63307,0,0,1,16.26953-.89844Q1103.252,136.752,1104.46289,136.81055Z" transform="translate(0)"/><path class="cls-18" d="M1124.50977,129.68164q0,1.23047-.09766,2.96875h5.41016a7.02927,7.02927,0,0,1,5.39062,2.19727,7.92884,7.92884,0,0,1,2.05078,5.63476q0,8.65284-2.01172,13.98438-2.01269,5.332-6.8164,5.332-2.92969,0-8.00782-2.91016l1.79688-4.72656a19.39691,19.39691,0,0,0,3.291,1.43555,10.684,10.684,0,0,0,2.2754.61523,1.75887,1.75887,0,0,0,1.31836-.58594,6.9683,6.9683,0,0,0,1.1621-2.36328,21.35688,21.35688,0,0,0,.90821-4.07226,40.7706,40.7706,0,0,0,.30273-5.26368,10.49766,10.49766,0,0,0-.2539-2.793,2.20074,2.20074,0,0,0-.83985-1.20118,2.57725,2.57725,0,0,0-1.48437-.40039h-4.88282q-1.79736,13.67139-10.27343,22.8711l-4.23828-3.14453a40.37607,40.37607,0,0,0,5.03906-7.71485,38.212,38.212,0,0,0,3.53515-12.01172h-7.07031v-4.88281h7.77344v-7.51953h5.72266Zm24.3164,16.28906-5.60547,1.44532a61.83358,61.83358,0,0,0-2.73437-8.06641,43.052,43.052,0,0,0-2.78321-5.01953,29.01574,29.01574,0,0,0-2.80273-3.84766l4.47266-2.793a41.26307,41.26307,0,0,1,6.01562,8.75A34.70734,34.70734,0,0,1,1148.82617,145.9707Z" transform="translate(0)"/><path class="cls-18" d="M1160.9043,160.0918l-.80078-4.96094q10.19531,0,15.51757-1.57227,5.32179-1.57178,5.32227-5.14648a4.68323,4.68323,0,0,0-1.89453-4.01367,8.63153,8.63153,0,0,0-5.21485-1.39649,20.70575,20.70575,0,0,0-8.75,2.01172,19.25008,19.25008,0,0,0-7.03125,5.3125l-4.27734-2.51953a46.39352,46.39352,0,0,0,3.32031-16.5625l5.76172.332a42.60259,42.60259,0,0,1-1.71875,10.3125,22.64086,22.64086,0,0,1,6.02539-2.51953,24.97208,24.97208,0,0,1,6.61133-.99609q6.1128,0,9.56055,2.57812a8.74766,8.74766,0,0,1,3.44726,7.46094,9.01593,9.01593,0,0,1-2.24609,6.19141,14.06012,14.06012,0,0,1-6.91406,3.84765Q1172.95459,159.75928,1160.9043,160.0918Zm23.125-30.56641-2.5586,4.96094a51.80048,51.80048,0,0,0-10.332-2.91016q-6.26953-1.19091-10.46875-1.5625l1.50391-4.6875A113.43476,113.43476,0,0,1,1184.0293,129.52539Z" transform="translate(0)"/><path class="cls-18" d="M1227.55176,158.2168a117.92544,117.92544,0,0,1-13.98438.9375q-10.37109,0-14.29687-2.07032a6.58115,6.58115,0,0,1-3.92578-6.11328q0-5.09764,5.41015-9.19922l3.88672,2.91016q-3.71044,3.53468-3.71094,5.80078a3.02415,3.02415,0,0,0,.23438,1.2207,2.70465,2.70465,0,0,0,1.14258,1.084,9.81631,9.81631,0,0,0,3.31054.89844,44.98813,44.98813,0,0,0,6.09375.37109h1.42579a92.20848,92.20848,0,0,0,13.55468-1.05469Zm-1.44531-24.80469a19.1866,19.1866,0,0,0-2.82227.73242q-1.55274.5171-2.54883.9668t-7.38281,3.57422l-2.40234-3.4375q.74266-.312,4.53125-2.10938-5.78175.05859-17.36329.46875l-.15625-4.84375q5.54737-.19482,21.13282-.19531,3.59325,0,5.19531.01953Z" transform="translate(0)"/><path class="cls-18" d="M1266.27051,154.60352l-.17578,5.11718q-1.69923.09815-3.24219.09766-8.49609,0-13.14453-2.60742a8.32993,8.32993,0,0,1-4.64844-7.68555,8.917,8.917,0,0,1,1.99219-5.82031q-5.27345.4497-11.99219,1.42578l-.56641-4.88281a32.81189,32.81189,0,0,0,5.06836-.9668q2.86084-.75147,3.82813-1.11328.9668-.36182,4.55078-2.31445a67.472,67.472,0,0,0,7.39258-4.72657q-9.10109.33252-15.13672.332h-1.50391v-5l23.96485-.05859,2.51953,2.92969q-4.51172,4.29639-14.27735,9.60937,10.15576-.66357,17.05079-.66406l1.75781.01953-.07813,4.96094q-4.62889-.15674-8.20312-.15625-3.22266,0-6.81641.13672-4.062,2.3247-4.0625,6.01562,0,5.52686,11.07422,5.52735Q1263.7124,154.7793,1266.27051,154.60352Z" transform="translate(0)"/><path class="cls-18" d="M1293.44629,151.83008a19.8671,19.8671,0,0,1-7.09961,5.3418,31.55955,31.55955,0,0,1-10.04883,2.88085l-1.67969-4.35546a38.62862,38.62862,0,0,0,8.64258-2.47071,18.59934,18.59934,0,0,0,4.99024-3.21289h-12.5586v-4.12109h14.80469V143.7832h-11.99219v-3.96484h11.99219v-2.168H1278.3877v-2.51953h-2.5586v-7.793h14.668v-3.00781h5.48828v3.00781h15.19531v7.793h-2.71484v2.51953h-12.24609v2.168h13.47656v3.96484h-13.47656v2.10938h15.52734v4.12109h-13.47656a21.00711,21.00711,0,0,0,5.47851,3.20313,39.49459,39.49459,0,0,0,8.75977,1.95312l-2.207,4.72656a28.26281,28.26281,0,0,1-9.51172-2.63671A21.60916,21.60916,0,0,1,1293.44629,151.83008Zm-2.94922-18.00781v-1.48438h5.72266v1.48438h10.52734v-2.73438h-26.44531v2.73438Z" transform="translate(0)"/><path class="cls-18" d="M1321.14941,146.30273q-.25488,2.73487-.92773,6.24024a34.63673,34.63673,0,0,1-1.31836,5.22461l-3.39844-.83985a54.3318,54.3318,0,0,0,1.75782-10.8789Zm5.3125,13.82813h-4.64843V144.584q-3.49659.35157-5.46875.42969l-.48828-3.84765q1.05468,0,2.793-.0586,1.01514-1.32861,2.30469-3.18359-2.67627-3.20361-5.2539-5.918l2.67578-2.87109.60547.625a38.48545,38.48545,0,0,0,3.125-5.85938l4.043,1.60156a50.93013,50.93013,0,0,1-4.55078,7.12891l1.67969,1.875a49.22887,49.22887,0,0,0,3.67188-6.40625l4.02343,1.875a97.76387,97.76387,0,0,1-7.4414,10.89844q2.14746-.13623,3.75-.293a22.82089,22.82089,0,0,0-.97657-2.73438l3.51563-1.03515q.95654,2.63672,2.36328,7.4414l-3.65234.957a12.69454,12.69454,0,0,0-.332-1.44531q-.72365.13623-1.73829.27344Zm5.52735-6.38672-3.73047.70313q-.48926-3.39845-1.07422-8.10547l3.55469-.56641Zm8.98437,2.59766a22.51728,22.51728,0,0,1-4.45312,2.06054,32.64881,32.64881,0,0,1-5.21485,1.49414l-1.44531-3.6914a32.91481,32.91481,0,0,0,7.34375-2.34375h-4.55078V139.252h19.57031v14.60938h-4.39453a46.69649,46.69649,0,0,0,6.75781,2.22656l-1.91406,3.88672a35.76461,35.76461,0,0,1-9.082-3.63281l1.71875-2.48047h-5.99609Zm12.77344-18.57422h-22.36328v-3.14453h8.51562V133.334H1332.79V130.6582h7.10937V129.252h-7.87109v-3.04687h7.87109v-1.83594h5.19532v1.83594h8.08593V129.252h-8.08593v1.40625h7.05078V133.334h-7.05078v1.28907h8.65234Zm-6.48437,5.8789v-1.64062H1337.419v1.64062Zm-9.84375,3.69141h9.84375V145.6582H1337.419Zm9.84375,2.07031H1337.419v1.79688h9.84375Z" transform="translate(0)"/><path class="cls-18" d="M1382.7002,153.334h-5.56641l.01953-7.67578q-6.97266,3.41748-6.97266,6.38672,0,2.94873,6.71875,2.94922l2.168-.01953a99.04849,99.04849,0,0,0,13.28125-.64453l.27344,4.88281q-5.48877.52734-10.76172.52734-10.13671,0-13.59375-1.72851a5.6439,5.6439,0,0,1-3.457-5.3418q0-5.937,11.34766-11.66015a1.82181,1.82181,0,0,0-1.52344-.64454,11.18969,11.18969,0,0,0-4.58008,1.3086,28.32761,28.32761,0,0,0-6.18164,4.3164q-2.3833,2.10938-3.418,2.85157l-3.39844-3.67188a36.13816,36.13816,0,0,0,10.27344-11.25h-8.33984V129.291h10.37109a33.38523,33.38523,0,0,0,1.23047-4.4336l5.74219.3125q-.54786,2.42139-1.11328,4.1211h12.89062v4.6289h-14.76562q-.50831,1.01514-1.875,3.125a11.95032,11.95032,0,0,1,3.75-.64453q3.98438,0,5.74218,2.46094,2.53858-1.09423,10.70313-4.29688l2.28516,4.64844q-3.84815,1.30811-11.48438,4.10156a23.88618,23.88618,0,0,1,.19531,3.14453Z" transform="translate(0)"/><path class="cls-18" d="M1414.3291,142.8457q-.23437,7.14845-3.78906,11.31836-3.55518,4.17042-10.46875,5.69336l-1.85547-4.19922q5.918-1.60107,8.23242-4.69726a14.06733,14.06733,0,0,0,2.49024-8.11524h-9.4336v-4.39453h35.46875v4.39453h-10.99609v10.83985a.84981.84981,0,0,0,.54687.8789,9.1608,9.1608,0,0,0,2.57813.21485,8.21365,8.21365,0,0,0,2.30469-.19532,1.439,1.439,0,0,0,.72265-.52734,4.69349,4.69349,0,0,0,.35157-1.64062q.13623-1.30811.13671-4.082l4.60938.6836v5.99609a3.92011,3.92011,0,0,1-1.21094,2.91992,4.55723,4.55723,0,0,1-2.85156,1.32813q-1.64062.14649-4.33594.14648a41.43012,41.43012,0,0,1-4.44336-.19531,4.2546,4.2546,0,0,1-2.793-1.34766,4.30214,4.30214,0,0,1-1.04492-3.00781V142.8457Zm17.85156-11.46484h-30.15625v-4.31641h30.15625Z" transform="translate(0)"/><path class="cls-18" d="M1449.78516,126.77148a58.48452,58.48452,0,0,0-2.48047,15.09766,60.775,60.775,0,0,0,2.1875,16.30859l-5.39063,1.23047a63.49685,63.49685,0,0,1-2.10937-15.957,71.53476,71.53476,0,0,1,2.30469-17.4414Zm25.23437,31.19141q-4.78565.44971-8.18359.44922-8.57373,0-11.69922-1.98242a6.31855,6.31855,0,0,1-3.125-5.6543q0-4.23779,4.0039-8.35937l4.31641,2.30468q-3.145,2.9297-3.14453,5.87891a2.45573,2.45573,0,0,0,1.64062,2.19727q1.64064.81,6.79688.81054,2.61768,0,9.19922-.5664Zm-.42969-24.47266-1.64062-.01953q-2.55909-.03954-8.4961.09766-5.937.13623-11.5039.52734v-4.76562q13.20264-.64454,18.28125-.64453,2.03174,0,3.35937.11718Z" transform="translate(0)"/></g><g class="cls-17"><path class="cls-18" d="M588.74609,215.58008h-6.25v2.26562h-4.23828V206.57617q-.58593.99609-1.1914,1.83594l-2.85157-2.59766a38.88133,38.88133,0,0,0,5.44922-15.72265h-4.23828v-4.043h13.39844v4.043h-4.27734a40.28774,40.28774,0,0,1-1.23047,6.11328h5.42968v5.72265a27.14726,27.14726,0,0,0,7.05079-10.42968H593.707v3.59375h-4.29687v-7.48047H596.793a31.83489,31.83489,0,0,0,.46875-3.35938l5.19531.332q-.21533,1.83546-.44922,3.02735H612.457v7.48047h-4.19922v-3.59375h-7.22656a29.34962,29.34962,0,0,1-2.30469,4.92187h2.8125q.70313-1.91455,1.40625-4.12109l4.88281.76172-1.582,3.35937h6.44532v3.94531h-6.60157v2.32422h5.293v3.32032h-5.293v2.48046H611.5v3.35938h-5.41016v2.59766h6.60157v4.0039H597.33984v1.28906h-5.03906V204.23242q-.84082.80127-1.64062,1.50391l-1.91407-2.59766Zm-4.12109-3.84766V200.01367h-2.12891v11.71875Zm16.46484-11.36719h-3.75v2.32422h3.75Zm-3.75,8.125h3.75v-2.48046h-3.75Zm0,5.957h3.75v-2.59766h-3.75Z" transform="translate(0)"/><path class="cls-18" d="M634.88672,211.83008a19.8671,19.8671,0,0,1-7.09961,5.3418,31.55955,31.55955,0,0,1-10.04883,2.88085l-1.67969-4.35546a38.62862,38.62862,0,0,0,8.64258-2.47071,18.59934,18.59934,0,0,0,4.99024-3.21289h-12.5586v-4.12109H631.9375V203.7832H619.94531v-3.96484H631.9375v-2.168H619.82812v-2.51953h-2.55859v-7.793h14.668v-3.00781h5.48828v3.00781h15.19531v7.793h-2.71484v2.51953H637.66016v2.168h13.47656v3.96484H637.66016v2.10938H653.1875v4.12109H639.71094a21.007,21.007,0,0,0,5.47851,3.20313,39.49459,39.49459,0,0,0,8.75977,1.95312l-2.207,4.72656a28.26281,28.26281,0,0,1-9.51172-2.63671A21.60916,21.60916,0,0,1,634.88672,211.83008Zm-2.94922-18.00781v-1.48438h5.72266v1.48438H648.1875v-2.73438H621.74219v2.73438Z" transform="translate(0)"/><path class="cls-18" d="M667.74512,186.77148a58.48452,58.48452,0,0,0-2.48047,15.09766,60.775,60.775,0,0,0,2.1875,16.30859l-5.39063,1.23047a63.49685,63.49685,0,0,1-2.10937-15.957,71.53476,71.53476,0,0,1,2.30469-17.4414Zm25.23437,31.19141q-4.78565.44971-8.18359.44922-8.57373,0-11.69922-1.98242a6.31855,6.31855,0,0,1-3.125-5.6543q0-4.23779,4.00391-8.35937l4.3164,2.30468q-3.145,2.9297-3.14453,5.87891a2.45572,2.45572,0,0,0,1.64063,2.19727q1.64063.81,6.79687.81054,2.61768,0,9.19922-.5664Zm-.42969-24.47266-1.64062-.01953q-2.55909-.03954-8.49609.09766-5.937.13623-11.50391.52734v-4.76562q13.20264-.64454,18.28125-.64453,2.03174,0,3.35937.11718Z" transform="translate(0)"/><path class="cls-18" d="M708.53418,194.89648a25.89267,25.89267,0,0,1-7.51953,8.4375l-3.24219-2.793a23.65719,23.65719,0,0,0,6.52344-7.28516Zm7.207,6.60157a41.78689,41.78689,0,0,1-2.98828,6.07422q3.04688,2.91064,4.02344,4.082l-3.55469,3.4375q-1.21143-1.34766-3.33984-3.55469a39.349,39.349,0,0,1-9.29688,8.32031l-2.67578-3.51562a39.16187,39.16187,0,0,0,4.541-3.83789,35.60628,35.60628,0,0,0,3.99414-4.42383,55.83984,55.83984,0,0,0-4.21875-3.90625l2.98828-3.35938q.95653.68409,3.82812,3.30078a42.24634,42.24634,0,0,0,1.89453-4.29687Zm3.08594-8.4375H699.06152v-4.1211h7.96875v-4.19922h5v4.19922h6.79688Zm1.97265,6.543-3.57421,2.94921a27.07621,27.07621,0,0,1-3.90625-3.46679,21.67508,21.67508,0,0,1-3.20313-4.05274l4.35547-1.8164A27.021,27.021,0,0,0,720.7998,199.60352Zm6.5625-2.59766q-.42919,8.08593-2.793,13.08594a36.04536,36.04536,0,0,1-7.10938,9.80468l-3.51562-3.16406a31.41755,31.41755,0,0,0,6.04492-8.59375,29.6154,29.6154,0,0,0,2.373-11.13281h-3.457v-4.35547h3.4375V184.7793h5.19532v7.87109h7.36328v12.40234q0,3.37939-.3418,6.86524a22.26116,22.26116,0,0,1-.80078,4.72656,4.424,4.424,0,0,1-1.71875,2.10938,5.11751,5.11751,0,0,1-2.97852.86914H724.374l-.625-4.60938h3.10547a2.32376,2.32376,0,0,0,1.68946-.61523q.63428-.61524.96679-3.74024a64.46818,64.46818,0,0,0,.332-6.79687l-.01953-6.85547Z" transform="translate(0)"/><path class="cls-18" d="M755.57324,212.00586a45.16191,45.16191,0,0,1-14.47265,6.97266l-1.79688-4.16016a43.5479,43.5479,0,0,0,12.24609-5.72266H740.78809v-4.23828h14.707V202.377h-12.5586V185.9707h31.13282V202.377h-13.125v2.48047h15.3125v4.23828H764.96777A39.83712,39.83712,0,0,0,777.8584,214.252l-2.71485,4.72657a37.84107,37.84107,0,0,1-14.27734-7.10938v7.94922h-5.293Zm-.07812-22.1875h-7.26563v2.75391h7.26563Zm0,5.957h-7.26563v2.71484h7.26563Zm13.16406-3.20312v-2.75391h-7.71484v2.75391Zm0,5.918v-2.71484h-7.71484v2.71484Z" transform="translate(0)"/><path class="cls-18" d="M794.66309,189.68164q0,1.27-.09766,3.00781H799.585a6.95312,6.95312,0,0,1,5.35156,2.168,7.91438,7.91438,0,0,1,2.01172,5.60547q0,8.5547-1.97265,13.90625-1.97314,5.35107-6.71875,5.35156a10.19325,10.19325,0,0,1-2.86133-.44922,26.48926,26.48926,0,0,1-4.97071-2.46093l1.79688-4.64844q3.69141,2.05078,5.332,2.05078a1.75527,1.75527,0,0,0,1.30859-.56641,7.08607,7.08607,0,0,0,1.17188-2.42187,21.62962,21.62962,0,0,0,.918-4.14063,40.85964,40.85964,0,0,0,.293-5.15625,10.39,10.39,0,0,0-.25391-2.77343,2.1544,2.1544,0,0,0-.83984-1.19141,2.6206,2.6206,0,0,0-1.48438-.39062h-4.51172q-1.8955,13.9453-9.86328,22.59765l-4.39453-2.7539a35.67041,35.67041,0,0,0,4.77539-7.75391,40.89556,40.89556,0,0,0,3.584-12.08984h-7.10938v-4.88282h7.75391l.03906-7.55859h5.72266Zm24.16015,16.85547-5.35156,1.50391a53.93,53.93,0,0,0-3.42773-9.07227,43.34106,43.34106,0,0,0-4.65821-7.19727l4.4336-2.59765Q817.20215,198.74365,818.82324,206.53711Zm-4.58984-16.52344-2.832,1.07422q-1.62159-4.02393-2.65625-5.99609l2.69531-1.07422Q813.1587,187.31787,814.2334,190.01367Zm5.35156-.42969-2.71484,1.03516q-1.28907-3.20361-2.69532-5.99609l2.59766-.9961Q818.37353,186.69288,819.585,189.584Z" transform="translate(0)"/><path class="cls-18" d="M828.94824,219.66211h-5.60547V202.98242h5.60547v10.42969h8.71094V201.04883H825.10059v-13.75h5.44921v9.47265h7.10938V184.97461h5.56641v11.79687h7.40234v-9.58984h5.54687v13.86719H843.22559v12.36328h9.55078V202.80664h5.60547v16.89453h-5.60547V217.8457H828.94824Z" transform="translate(0)"/><path class="cls-18" d="M887.78418,214.23242q4.76514-1.875,4.76562-5.97656a5.31755,5.31755,0,0,0-2.35351-4.58008,9.99418,9.99418,0,0,0-5.92774-1.66992h-.48828a15.31588,15.31588,0,0,0-3.66211.52734,23.087,23.087,0,0,0-3.94531,1.36719,22.275,22.275,0,0,0-3.10547,1.67969q-1.25976.83935-5.84961,4.23828l-3.125-3.92578q15.95655-10.938,20.41016-14.35547H867.97949V186.9668h23.59375l2.8125,3.00781q-4.1997,2.79345-12.51953,8.51562a16.51255,16.51255,0,0,1,4.02344-.625q5.76123,0,9.02344,2.627a9.13045,9.13045,0,0,1,3.26171,7.54883,9.9643,9.9643,0,0,1-4.61914,8.81836q-4.6201,3.07617-12.1582,3.07617a16.15627,16.15627,0,0,1-7.90039-1.64063,5.21748,5.21748,0,0,1-2.91992-4.80469,5.13751,5.13751,0,0,1,2.49023-4.30664,9.27,9.27,0,0,1,5.43946-1.748Q885.7915,207.43555,887.78418,214.23242Zm-5.03906,1.28906q-1.27-3.98437-4.62891-3.98437a2.939,2.939,0,0,0-1.73828.53711,1.63924,1.63924,0,0,0-.76172,1.39648q0,2.14893,5.03906,2.14844Q881.76856,215.61914,882.74512,215.52148Z" transform="translate(0)"/><path class="cls-18" d="M935.42773,193.76367h6.91407v5.11719h-6.91407v3.61328q0,8.28077-5.89843,12.71484-5.89893,4.43409-17.22657,4.64844l-.83984-5.13672q10.23486-.35155,14.19922-3.623a10.60861,10.60861,0,0,0,3.96484-8.60352v-3.61328H917.57617v9.49219h-5.8789v-9.49219h-7.10938v-5.11719h7.10938v-8.0664h5.8789v8.0664H929.627v-8.63281h5.80078Z" transform="translate(0)"/><path class="cls-18" d="M959.0293,199.60352q-2.57812,11.60155-9.88282,18.35937l-4.53125-3.06641a31.30435,31.30435,0,0,0,6.15235-8.96484,34.301,34.301,0,0,0,2.32422-6.875Zm8.22265,20.332h-5.8789V196.77148H946.54883v-4.88281h14.82422v-6.44531h5.8789v6.44531h14.6875v4.88281H967.252Zm16.97266-4.88282-4.76563,3.08594a33.84942,33.84942,0,0,1-6.02539-8.93555,37.65752,37.65752,0,0,1-3.291-9.56054l5.5664-.80078a34.99773,34.99773,0,0,0,2.91016,7.52929A47.71985,47.71985,0,0,0,984.22461,215.05273Zm-2.01172-28.18359a3.949,3.949,0,0,1-1.25,2.99805,4.77486,4.77486,0,0,1-6.28906,0,4.22032,4.22032,0,0,1,0-5.9961,4.77486,4.77486,0,0,1,6.28906,0A3.949,3.949,0,0,1,982.21289,186.86914Zm-2.62695-1.75781a2.52361,2.52361,0,1,0,.71289,1.75781A2.38534,2.38534,0,0,0,979.58594,185.11133Z" transform="translate(0)"/><path class="cls-18" d="M1023.56836,205.63867H987.68945v-5.19531h35.87891Z" transform="translate(0)"/><path class="cls-18" d="M1064.709,205.05273l-3.6914,4.62891a72.819,72.819,0,0,0-17.2461-8.71094v19.043h-6.15234V184.7793h6.21094V195.209A99.82208,99.82208,0,0,1,1064.709,205.05273Z" transform="translate(0)"/><path class="cls-18" d="M1094.58008,213.334h-5.56641l.01953-7.67578q-6.97265,3.41748-6.97265,6.38672,0,2.94873,6.71875,2.94922l2.168-.01953a99.04859,99.04859,0,0,0,13.28125-.64453l.27343,4.88281q-5.48877.52734-10.76172.52734-10.13672,0-13.59375-1.72851a5.64391,5.64391,0,0,1-3.457-5.3418q0-5.937,11.34766-11.66015a1.82181,1.82181,0,0,0-1.52344-.64454,11.18973,11.18973,0,0,0-4.58008,1.3086,28.32784,28.32784,0,0,0-6.18164,4.3164q-2.38329,2.10938-3.418,2.85157l-3.39843-3.67188a36.13813,36.13813,0,0,0,10.27343-11.25h-8.33984V189.291h10.37109a33.38371,33.38371,0,0,0,1.23047-4.4336l5.74219.3125q-.54785,2.42139-1.11328,4.1211h12.89062v4.6289h-14.76562q-.50831,1.01514-1.875,3.125a11.95042,11.95042,0,0,1,3.75-.64453q3.98438,0,5.74219,2.46094,2.53857-1.09423,10.70312-4.29688l2.28516,4.64844q-3.84814,1.30811-11.48438,4.10156a23.8844,23.8844,0,0,1,.19532,3.14453Z" transform="translate(0)"/><path class="cls-18" d="M1121.6582,204.85742q-.91845.39111-2.51953.89844v10.25391a3.54066,3.54066,0,0,1-1.25,2.90039,4.856,4.856,0,0,1-3.18359,1.02539h-3.92578l-.60547-4.35547h2.77344q1.30811,0,1.30859-1.17188v-7.28515l-3.51563.85937-.99609-4.57031q1.60107-.25343,4.51172-.89844v-7.05078h-3.71094v-4.043h3.71094v-6.67969h4.88281v6.67969h2.96875v4.043h-2.96875v5.83984q1.17188-.33252,1.91406-.60546Zm7.67578.27344a31.09817,31.09817,0,0,1-.41015,5.87891,10.479,10.479,0,0,0,3.0664,2.30468V204.252h-9.84375v-4.0039h25.35157v4.0039h-10.11719v2.89063h8.96484v3.90625h-8.96484v3.80859q2.32324.23438,6.19141.23438,2.24561,0,5-.07813l-.918,4.31641h-2.30469q-3.86719,0-5.82031-.07813a38.48821,38.48821,0,0,1-4.38477-.459,14.202,14.202,0,0,1-7.8418-3.93555,13.52033,13.52033,0,0,1-5.19531,5.15625l-2.73437-3.35937a10.65418,10.65418,0,0,0,2.998-2.98828,10.41261,10.41261,0,0,0,1.5625-3.34961,24.05342,24.05342,0,0,0,.36133-4.93164v-.25391Zm15.97657-6.5625h-21.32813V185.209h21.32813Zm-5.09766-7.87109v-2.01172h-11.19141v2.01172Zm0,4.51171v-2.03125h-11.19141V195.209Z" transform="translate(0)"/><path class="cls-18" d="M1162.01758,220.209h-5.3125V202.94336a46.716,46.716,0,0,1-2.8125,4.0625l-3.4375-3.06641a55.43312,55.43312,0,0,0,4.873-8.44726,52.35235,52.35235,0,0,0,4.0918-11.16211l5.27344.76172a47.70869,47.70869,0,0,1-3.98438,10.68359h1.3086Zm12.87109-11.1914a24.241,24.241,0,0,1-3.52539,5.957,32.368,32.368,0,0,1-4.91211,5.07812l-3.78906-3.20312a30.86,30.86,0,0,0,7.28516-9.62891Zm14.29688-2.12891h-26.13282v-4.43359h5.03907V195.541h-4.27735v-4.375h4.27735v-6.15235h5.44922V191.166h5v-6.23047h5.42968V191.166h4.49219v4.375h-4.49219v6.91406h5.21485Zm-15.64453-4.43359h5V195.541h-5Zm16.44531,13.71094-4.16016,3.65234a22.36574,22.36574,0,0,1-4.92187-4.89258,23.44184,23.44184,0,0,1-3.69141-5.98633l4.84375-1.79687a18.73287,18.73287,0,0,0,2.69531,4.05273A24.70506,24.70506,0,0,0,1189.98633,216.166Z" transform="translate(0)"/><path class="cls-18" d="M1213.46973,206.61523a52.603,52.603,0,0,1-2.54883,6.06446,23.27989,23.27989,0,0,1-3.01758,4.9414,4.35733,4.35733,0,0,1-3.418,1.5918q-4.21875,0-7.24609-5.20508a23.35246,23.35246,0,0,1-3.02735-11.96289q0-2.20752.42969-6.543.41016-4.355.41016-6.52343h5.97656q-.05859,1.97314-.58594,6.46484a57.0464,57.0464,0,0,0-.50781,6.48437,19.23982,19.23982,0,0,0,1.51367,7.89063q1.51319,3.39843,2.56836,3.39844,1.52345,0,4.80469-8.92578Zm16.11328,7.22657-5.87891.37109a37.40321,37.40321,0,0,0-2.10937-12.1875,33.09136,33.09136,0,0,0-5.74219-10.52734l4.72656-2.36328Q1229.5835,199.15429,1229.583,213.8418Z" transform="translate(0)"/><path class="cls-18" d="M1247.93066,184.93555q.05861.72216.0586,2.5,0,1.32861-.07813,2.59765h12.91016v4.6875h-13.4375a55.362,55.362,0,0,1-3.24219,13.98438,42.83773,42.83773,0,0,1-5.957,11.69922l-4.53125-2.67578a42.99606,42.99606,0,0,0,5.23438-10.61524,57.75249,57.75249,0,0,0,2.96875-12.39258h-6.83594v-4.6875h7.168q.15673-3.145.15625-5.09765Zm22.207,33.59375a59.8027,59.8027,0,0,1-9.25782.64453,47.83706,47.83706,0,0,1-7.06054-.459,8.56894,8.56894,0,0,1-4.77539-2.11914,5.24962,5.24962,0,0,1-1.73829-3.92578q0-3.00732,3.20313-6.21094l4.16016,1.95313q-1.9336,2.36279-1.9336,3.78906a1.28808,1.28808,0,0,0,.70313,1.13281,7.94428,7.94428,0,0,0,2.832.67383,42.63164,42.63164,0,0,0,4.82422.24414,50.36723,50.36723,0,0,0,8.76953-.76172Zm-1.03516-21.71875-.27344,4.64843q-1.11328-.05859-2.32422-.05859-6.62109,0-16.40625.89844l-.35156-4.64844a147.64635,147.64635,0,0,1,16.26953-.89844Q1267.8916,196.752,1269.10254,196.81055Z" transform="translate(0)"/><path class="cls-18" d="M1311.18066,203.09961q-2.54,8.90625-7.03125,12.85156a16.85292,16.85292,0,0,1-11.543,3.94531,16.30244,16.30244,0,0,1-5.332-.791,10.3449,10.3449,0,0,1-3.73046-2.13867,10.10747,10.10747,0,0,1-2.22657-2.93946,10.79022,10.79022,0,0,1-1.01562-3.3789,46.9602,46.9602,0,0,1-.23438-5.53711q0-4.10157.83985-19.21875h5.83984q-.80127,13.4956-.80078,18.76953a38.50829,38.50829,0,0,0,.22461,5.44922,5.504,5.504,0,0,0,1.00586,2.21679,4.92752,4.92752,0,0,0,2.25586,1.64063,9.93479,9.93479,0,0,0,3.60351.57617,10.60892,10.60892,0,0,0,7.89063-3.22265q3.16405-3.22266,5.01953-10.19532Z" transform="translate(0)"/><path class="cls-18" d="M1351.501,213.88086l-2.91016,4.92187a42.16676,42.16676,0,0,0-10.293-5.918l.19531.83984a4.81142,4.81142,0,0,1,.15625,1.15234q-.0205,2.38331-2.70507,3.62305a18.09592,18.09592,0,0,1-7.43164,1.24023,13.379,13.379,0,0,1-7.15821-1.83593,5.65727,5.65727,0,0,1-2.97851-5.03907,6.11142,6.11142,0,0,1,2.73437-5.24414,11.22739,11.22739,0,0,1,6.67969-1.94336,29.24857,29.24857,0,0,1,4.96094.3711v-3.24219h-13.65235v-4.62891H1332.751v-3.80859h-14.72657V189.7207H1332.751v-4.23828h5.58593v4.23828h13.8086v4.64844h-13.8086v3.80859h11.75782v4.62891h-11.75782v4.6875A72.98669,72.98669,0,0,1,1351.501,213.88086Zm-18.75-.78125v-2.36328a18.36859,18.36859,0,0,0-4.14063-.66406,7.63877,7.63877,0,0,0-3.38867.69335,2.13678,2.13678,0,0,0-1.416,1.94336q0,2.26612,4.86329,2.26563Q1332.75,214.97461,1332.751,213.09961Z" transform="translate(0)"/><path class="cls-18" d="M1394.06738,193.19727h-11.60156v7.38281a13.37728,13.37728,0,0,1,1.11328,5.99609,11.99076,11.99076,0,0,1-4.16992,9.541q-4.17041,3.60351-11.14258,4.05273l-1.36719-4.72656q8.59278-.66357,10.83985-6.15234a8.42508,8.42508,0,0,1-5.07813,1.60156,8.30406,8.30406,0,0,1-5.73242-2.06055,6.75477,6.75477,0,0,1-2.31445-5.2832,7.8212,7.8212,0,0,1,2.45117-5.9375,8.59848,8.59848,0,0,1,6.16211-2.32422,9.62778,9.62778,0,0,1,3.47656.64453v-2.73437H1357.583v-4.64844h19.12109v-3.90625h5.76172v3.90625h11.60156Zm-17.28515,8.88671-.03907-1.09375q-.958-1.34764-3.47656-1.34765a3.234,3.234,0,0,0-2.373,1.10351,3.41371,3.41371,0,0,0-1.06445,2.41211,3.17493,3.17493,0,0,0,.791,2.207,2.61915,2.61915,0,0,0,2.041.87891,4.014,4.014,0,0,0,2.99805-1.14258A4.12146,4.12146,0,0,0,1376.78223,202.084Z" transform="translate(0)"/><path class="cls-18" d="M1413.21582,213.54883a5.83637,5.83637,0,0,1-1.95312,4.42383,7.02983,7.02983,0,0,1-9.45313,0,5.98656,5.98656,0,0,1,0-8.84766,7.02983,7.02983,0,0,1,9.45313,0A5.83633,5.83633,0,0,1,1413.21582,213.54883Zm-3.80859-.01953a2.86756,2.86756,0,1,0-.83985,2.01172A2.74519,2.74519,0,0,0,1409.40723,213.5293Z" transform="translate(0)"/></g></g><g id="グループ_232" data-name="グループ 232"><g id="グループ_214" data-name="グループ 214"><path id="パス_445" data-name="パス 445" class="cls-21" d="M1567.8721,168.02177s1.24-1.906.432-2.944a34.78064,34.78064,0,0,1-2.769-4.211c-1.442-2.422-.98-2.538-2.653-3.172s-2.211-3.172-2.23-4.038-.077-1.846.788-2.019a3.43589,3.43589,0,0,1,1.9.4c.23.057-.289-3.865.173-4.961a28.13871,28.13871,0,0,1,5.061-6.69c1.977-1.731,3.837-3.288,6.166-3.288s6.6.52,7.4,1.961a35.10062,35.10062,0,0,1,2.405,8.075,18.38133,18.38133,0,0,1-.329,2.941,2.1,2.1,0,0,1,2.019-.346c1.038.461,1.557.461,1.557,1.269s-.519,4.153-1.1,4.73-.582.865-1.7.692a12.07841,12.07841,0,0,0-1.584-.173s.116,2.48.057,3.288a25.97491,25.97491,0,0,0-.288,3.461c.057,1.269.115,4.615.115,4.615s-2,3.172-3.941,4.1-2.173,2.6-4.884,1.326-3.923-1.5-4.9-2.653A19.69657,19.69657,0,0,1,1567.8721,168.02177Z" transform="translate(0)"/><path id="パス_446" data-name="パス 446" class="cls-22" d="M1570.20718,166.17378s.826.98,3.441,0,2.846-.289,4.345-2.019,3.23-3.461,3.23-3.461v3.749c0,.923.75,1.351-.865,2.2s-2.741,1.95-4.255,2.065-2.5.4-4.254-.52a4.845,4.845,0,0,1-2.278-2.365Z" transform="translate(0)"/><path id="パス_447" data-name="パス 447" class="cls-23" d="M1553.34512,192.66776s-5.538,9.921-7.691,15.15a78.23771,78.23771,0,0,1-7.381,14.535,91.0984,91.0984,0,0,0-6.307,12s18.073.846,21.38,1.692,3.845-.769,6.69-.846,29.84,6.537,34.223,5.537,7.384-1,11-1.538,5.538-1.538,9.075-1.923,6.383,1.307,7.69,1.384,5.23-.307,7.844-.385,3.461.307,3.922-1.307-.23-3.153-1.153-5.076-18-25.764-20.227-28.225-5.691-8.383-7-9.613-5.153-4.23-13.92-4.23-14.381-.538-22.688.539S1553.34512,192.66776,1553.34512,192.66776Z" transform="translate(0)"/><path id="パス_448" data-name="パス 448" class="cls-24" d="M1526.04617,286.41676c.116.116-.138,4.443,0,6.384s.031,4.345.031,4.345a38.3876,38.3876,0,0,0,6.352,1.269c2.653.193,5.922.269,6.575,0s2.189-.68,2.189-.68a14.65373,14.65373,0,0,0-2.458-3.972c-1.923-2.384-3.922-8.037-3.922-8.037Z" transform="translate(0)"/><path id="パス_449" data-name="パス 449" class="cls-25" d="M1574.72513,351.17277l-.47,7.921h4.623a4.91636,4.91636,0,0,0,2.5-.769s2.65-5.845,2.727-6.153S1574.72513,351.17277,1574.72513,351.17277Z" transform="translate(0)"/><path id="パス_450" data-name="パス 450" class="cls-26" d="M1525.77414,294.68876s-1.807,3.614-3,5.383-5,5.884-6.614,6.806-8.306,3.23-9.459,4.307-2.076,3.653.653,4.307a20.956,20.956,0,0,0,9.921.577c4.576-.807,8.806-2.346,10.882-4.653a36.18264,36.18264,0,0,1,4.15894-3.927l.653,2.692a33.599,33.599,0,0,0,6.229-1.538c1.807-.846,2.961-1.346,3.153-1.769s-.27-5.23-.347-6.575-1.845-4.768-1.845-4.768.192,1.961-4.922,1.615-7.23-1.692-7.883-2.038A4.82171,4.82171,0,0,0,1525.77414,294.68876Z" transform="translate(0)"/><path id="パス_451" data-name="パス 451" class="cls-27" d="M1574.80215,355.78578a35.24056,35.24056,0,0,0-.385,5.922c.076,3.153-.615,10.305.385,12.074s3.538,4.615,5.921,4.768,4.538.154,5.691-1.922,2.23-3.769,2.077-5.307-2-5.614-2.923-7.306-1.922-5.23-2.384-6.306-2.769-1.846-3.769-1.923-3.384,2.692-3.768,3.076S1574.80215,355.78578,1574.80215,355.78578Z" transform="translate(0)"/><path id="パス_452" data-name="パス 452" class="cls-28" d="M1554.18814,235.73576s-10.306-1.077-16-2.153a63.18124,63.18124,0,0,0-14.212-1.077c-3.476.154-5.476,2.307-6.86,3.23s-1.538,5.844-1.538,10.305,3.23,16.612,3.076,22.688-1,19-1,19a52.13616,52.13616,0,0,0,9.383,1.077c5.921.23,10,.692,10,.692s.077-13.151-.615-18.381-2.352-16.073-2.83-17.3a8.24042,8.24042,0,0,0-1.016-1.923s4,2.384,6.922,4a52.62425,52.62425,0,0,0,13.766,5.089c4.537.756,9.536,1.371,11.228,1.832s6.46,6.691,7.768,9.536,3.653,31.167,3.768,34.166-.461,28.782-1.038,33.973-.739,12.575-.739,12.575a7.89978,7.89978,0,0,0,5.36,2.752c3.223.093,3.762.59,4.108-.024a59.78449,59.78449,0,0,0,3.269-8.689c1.038-3.73,5.652-24.226,5.191-31.378a85.54235,85.54235,0,0,0-1.461-11.69s4.076-19.688,4.538-30.147,2.461-14.208,2.057-17.035-1.211-2.942-1.039-4.845.461-3.461.461-3.461l.058-5.5s-13.921-1.461-20.38-3.307-12.613-7-14.69-8a5.59959,5.59959,0,0,1-2.614-2.076s-1.231,4.23-3.076,5.153Z" transform="translate(0)"/><path id="パス_453" data-name="パス 453" class="cls-29" d="M1553.30716,195.35975s2.422,9.921,4.038,12.92,3.114,6,2.422,9.46a80.31984,80.31984,0,0,0-.692,10.959s6.559,8.365,12.475,9.077,10.251,2.4,14.289,3.061,7.94,3.269,10.372,2.141,2.894-4.013,3.932-7.588,2.538-29.648,3.576-33.57,1.692-7.767,1.692-7.767-6.43-9.075-8.041-11.036-8.244-8.537-10.032-10.036-3.618-3.172-3.618-3.172-2.88,1.269-4.361,1.9-3.326,2.826-5.576,2.6-4.557-1.384-5.653-1.442-5.97-1.211-6.979-.577-1.5,2.307-2.769,4.615-6,15.672-5.883,16.381A10.44858,10.44858,0,0,0,1553.30716,195.35975Z" transform="translate(0)"/><path id="パス_454" data-name="パス 454" class="cls-30" d="M1564.67013,177.0178s-3.288,10.382-3.922,13.324,0,4.153-1.557,2.538-2.365-1.5-2.365-1.5,1.038,2.019,1.961,3.692,3.4,7.787,6.229,10.094,3.288,4.326,3.288,4.326-8.594-8.19-9.69-10.209a22.81174,22.81174,0,0,0-1.5-2.538s3.865,8.56,4.788,9.788,3.749,6.651,3.749,6.651-4.442-5.6-6.114-8.133-2.711-4.211-2.711-4.211,2.283,6.909,2.423,9.4.23,4.268.23,4.268-4.1-11.421-4.787-15.285-1.384-5.7-1.384-7.267,4.153-10.959,5.594-12.747,2.538-3.057,3.98-3.519a40.55188,40.55188,0,0,1,4.326-.923Z" transform="translate(0)"/><path id="パス_455" data-name="パス 455" class="cls-31" d="M1598.10513,186.43876l-3.615,5.461,4.768-4.692a6.80094,6.80094,0,0,1-.462,2.48c-.461.9-4.307,7.825-4.307,7.825s4.23-5.461,5.384-6.691,1.461-1.134,1.461-1.134-1.538,3.6-2.615,6.057-5.23,9.075-5.23,9.075a56.12583,56.12583,0,0,0,4.691-5.076,32.58207,32.58207,0,0,0,3.692-5.922s-2.076,9.349-3.307,12.711-3.769,9.746-3.769,9.746-.769,10.69,1.23,7.23,5.922-12.921,5.845-13.844-4.307,14.92-5.153,16.689-3.23,7.844-3.23,7.844,4.768-5.46,5.384-7.69,2.307-8.46,2.307-8.46,2.23-10.613,2.538-13,1.692-11.613,1.692-11.613-2.414-2.778-3.367-4.1-4.674-5.131-4.674-5.131l-2.47-3.869s-1.64,6.638-.948,6.023a18.8166,18.8166,0,0,1,2.615-1.615Z" transform="translate(0)"/><path id="パス_456" data-name="パス 456" class="cls-32" d="M1582.41513,166.63477a5.75686,5.75686,0,0,1-2.422,2.615l-2,1.307s.923,1.346,2.038,2.923a5.87228,5.87228,0,0,1,1.192,2.615,5.06284,5.06284,0,0,0,2.5-2.576c.7-1.807,1.088-1.937,1.119-2.307s.346-2.692,0-3.307-1.307-2.076-1.307-2.076Z" transform="translate(0)"/><path id="パス_457" data-name="パス 457" class="cls-33" d="M1566.57516,164.90476s-4.23-3.153-5.768-4.23-5.076,1.23-5.691,2.115-7.153,16.727-7.691,18.88-1.307,8.306-1.692,10.921-3.307,15-5.537,19.688a88.95361,88.95361,0,0,0-4,9.229c-.77,2.23-1.791,7.66-1.791,7.66s5.713-9.045,8.79-14.659,8.882-18.188,10.113-21.111,4.845-16.881,7.076-19,3.232-1.4,5.191-1.153.73-2.192,1.615-3.441.577-4.326.577-4.326Z" transform="translate(0)"/><path id="パス_458" data-name="パス 458" class="cls-34" d="M1560.65115,161.28977a17.66979,17.66979,0,0,0,.692,4.538,7.58111,7.58111,0,0,0,2.538,3.98c1.692,1.4,1.467,2.36,2.192,2.172s1.48-1.73,1.336-3.038.01-3.038-.413-3.538a7.34167,7.34167,0,0,0-2.957-2.23A24.47833,24.47833,0,0,1,1560.65115,161.28977Z" transform="translate(0)"/><path id="パス_459" data-name="パス 459" class="cls-35" d="M1598.18112,158.75276s-9.459,8.767-10.69,9.306-2.94-.634-2.94-.634,1.094,4.6,3.324,7.344,11.921,12.362,13.3,14.285,6,10.383,9.075,13.921,10.024,11.2,11.426,13.153,3.8,5.309,3.8,5.309-3.532-10.925-6.224-14.539-5-7.741-5.306-12.369-3.615-17.779-6.153-21.008-4.769-6.922-5.23-8.46S1598.18112,158.75276,1598.18112,158.75276Z" transform="translate(0)"/><path id="パス_460" data-name="パス 460" class="cls-36" d="M1594.66311,169.23078s5.884,7.5,7.267,11.882a111.66864,111.66864,0,0,0,6.115,13.9c.749,1.269,3.98,8.075,5.941,9.921s4.037,3.461,4.037,3.461-5.594-13.728-6.4-17.592-4.98-13.5-6.21-18.343-3.307-6.633-3.307-6.633a31.32331,31.32331,0,0,0,.346,8.652c.865,3.922,2.634,8.883,2.961,11.19s-2.845-3.4-3.538-6.114-4.1-7.729-4.5-8.075S1594.66311,169.23078,1594.66311,169.23078Z" transform="translate(0)"/><path id="パス_461" data-name="パス 461" class="cls-37" d="M1573.03311,171.45176s-1.211,1.471-1.183,2.192,1.644,1.5,2.336,2.048a20.19736,20.19736,0,0,1,1.817,1.817,15.71416,15.71416,0,0,1,1.557-.837c.4-.144.519-1.355,1.067-1.788s1.731-1.442,1.731-1.442-1.183-1.933-2.163-1.99-2.452-.116-3.029-.116S1573.03311,171.45176,1573.03311,171.45176Z" transform="translate(0)"/><path id="パス_462" data-name="パス 462" class="cls-38" d="M1518.35318,133.83476l-8.229,5.076s8.69,17.15,10.921,20.149,7,6.768,10,10,16.159,13.647,16.159,13.647l6.836-16.058a21.79622,21.79622,0,0,0-4.076-1.435c-.846,0-.153.385-2-1.153s-12.382-8.613-14.151-10.229-7.767-9.69-9-11.228-6.461-9.152-6.461-9.152Z" transform="translate(0)"/><path id="パス_463" data-name="パス 463" class="cls-39" d="M1515.35318,129.25877l2.657,4.788-7.04,3.749a10.28351,10.28351,0,0,1-1.788-2.711c-.173-.865-.634-2.307-.634-2.307Z" transform="translate(0)"/><path id="パス_464" data-name="パス 464" class="cls-21" d="M1502.77914,114.60777s-.077,1.615,0,2.692,4.114,10.767,4.653,11.651a32.05483,32.05483,0,0,1,1.519,3.617l5.914-3.057a16.05856,16.05856,0,0,1-1.319-3.6c-.346-1.73-.538-2.846-.077-3.576s2.346-2.23,2.653-3.422.847-2.5,0-4.115-2-2.922-2.422-2.845-1.461-1.125-2.355-1.3a5.4682,5.4682,0,0,0-2.653-.144c-.981.259-2.192.721-2.307,1.153s-1.1.115-1.413.375a1.1721,1.1721,0,0,0-.375.923c.058.087-.865.346-.865.346s-.807.548-.606.634S1502.77914,114.60777,1502.77914,114.60777Z" transform="translate(0)"/><path id="パス_465" data-name="パス 465" class="cls-38" d="M1642.13315,129.60478s-11.652,13.843-13.266,15.915a5.98506,5.98506,0,0,0-1.269,4.269,2.679,2.679,0,0,0-2.538.173c-1.125.836-2.942,3.23-5.249,4.1a16.81337,16.81337,0,0,0-5.249,2.826c-2.422,1.73-2.076,3.288-4.268,4.211a26.6305,26.6305,0,0,0-3.576,1.846c-.461.23-2.019.346-2.422.634s-5.812-4.453-5.812-4.453,6.331,10.913,8.35,14.431a31.25679,31.25679,0,0,1,3.057,6.4c0,.347,8.71-6.979,10.383-8.623s2.538-1.875,4.268-3.085,1.557-3,3-4.038,3.519-1.154,7.094-4.211,3.865-4.211,5.941-6.864,10.825-16.15,10.825-16.15-4.384-5.153-5.23-5.614S1642.13315,129.60478,1642.13315,129.60478Z" transform="translate(0)"/><path id="パス_466" data-name="パス 466" class="cls-21" d="M1649.70913,105.84077s-2.615,2-2.769,2.23-1.845-.693-2,0a5.91053,5.91053,0,0,0,0,3.076c.384,1.076,1.846,3.614,1.923,5.306s.307,5-.385,6.768-2.23,6.094-2.23,6.094l5.076,3.395a49.57055,49.57055,0,0,0,4.384-6.72c2.076-3.845,3.076-6.614,3.153-8.075s1.307-4.538,1.307-5.768,1.307-2.384,0-3.153a14.56083,14.56083,0,0,0-2.153-1.077s-.616-1.384-1.154-1.307-.692,0-1,.154-1.231-.538-1.231-.538-.88-.307-1.132-.384A13.73331,13.73331,0,0,0,1649.70913,105.84077Z" transform="translate(0)"/><path id="パス_467" data-name="パス 467" class="cls-40" d="M1569.08316,134.53678s-4.182,3.662-5.768,6.172a17.85528,17.85528,0,0,0-2.279,7.9,5.27526,5.27526,0,0,0,1.154,3.548,19.3057,19.3057,0,0,1,1.875,2.019s-.26-4.413.23-5.509,3.028-5.941,4.153-6.806,4.845-3.692,4.932-3.778a28.40015,28.40015,0,0,1,4.989,2.826,53.60269,53.60269,0,0,1,3.837,3.895,6.83147,6.83147,0,0,1,1.327,3.634v3.548s1.356-1.557,1.9-1.673.952-.807,1.529.057a6.53831,6.53831,0,0,0,.836,1.1s1.038-.317.289-4.7-1.557-6.027-3.028-7.354-4.557-4.528-6.922-5.076-2.48-1.01-4.1-.693-4.3.548-4.47.548S1569.08316,134.53678,1569.08316,134.53678Z" transform="translate(0)"/><circle id="楕円形_8" data-name="楕円形 8" class="cls-41" cx="1581.98714" cy="175.50677" r="0.589"/><path id="パス_468" data-name="パス 468" class="cls-42" d="M1561.55514,225.87278s.923.535,4.615,3.3,3.345,3.337,6.345,4.779l3,1.443s-5.48-2.769-6.979-3.346a9.03692,9.03692,0,0,1-3.634-2.384C1564.26614,228.8148,1561.55514,225.87278,1561.55514,225.87278Z" transform="translate(0)"/><path id="パス_469" data-name="パス 469" class="cls-41" d="M1561.95913,221.43577s.98.364,3.115,2.747,3.576,3.206,5.191,4.986a37.3001,37.3001,0,0,1,2.769,3.453s-2.48-2.176-3.749-3.453-3.115-2.258-4.153-3.642S1561.95913,221.43577,1561.95913,221.43577Z" transform="translate(0)"/><path id="パス_470" data-name="パス 470" class="cls-43" d="M1558.21017,228.87177s-.461,2.942.462,3.98a23.78514,23.78514,0,0,0,6.345,4.384c2.538,1.154,8.075,4.038,10.9,4.9a55.344,55.344,0,0,0,8.075,1.961c4.1.75,6.979,1.673,9.748,1.673h3.63l.581-3.4s-9.4-1.211-13.67-2.076-9.69-1.73-12.516-3.519-10.428-6.4-11.248-6.863A23.64088,23.64088,0,0,0,1558.21017,228.87177Z" transform="translate(0)"/><path id="パス_471" data-name="パス 471" class="cls-44" d="M1556.99814,234.75578s-.057,1.442,1.73,3.749,4.442,6.461,7.787,8.652,6.807,4.672,6.807,4.672a13.09315,13.09315,0,0,1-4.788-4.269c-2.192-3.115-6.979-8.594-6.979-8.594s5.884,5.768,10.21,8.248,5.883,3.749,8.306,4.326a36.55368,36.55368,0,0,1,5.191,1.788s-.462-1.038-4.672-3.345-7.844-4.211-7.844-4.211,7.267,1.153,9.863,2.942,6.749,4.441,7.037,4.614-.346-1.326-2.6-3.115-10.613-5.018-14.3-6.633a59.612,59.612,0,0,1-9.229-4.961C1561.32412,237.12077,1556.99814,234.75578,1556.99814,234.75578Z" transform="translate(0)"/><path id="パス_472" data-name="パス 472" class="cls-44" d="M1528.96615,233.02476s15.631,1.961,19.784,3.173a17.8,17.8,0,0,1,9.344,5.768,153.23221,153.23221,0,0,1,8.537,12.747c.692,1.384,1.5,2.942,1.5,2.942s-4.384-7.844-7.729-10.5-6.23-4.788-6.23-4.788a81.26862,81.26862,0,0,1,6.518,7.787c1.5,2.422,4.153,8.248,4.153,8.248s-4.441-6.691-6.4-9.056a31.50856,31.50856,0,0,0-6.634-5.653c-1.846-1.211-3-2.019-3-2.019s6.283,6.979,7.669,8.536.925,2.711-.632.75-5.249-5.87-6.98-6.915-3.864-2.429-3.864-2.429,4.029,4.73,6.109,6.864a44.48135,44.48135,0,0,1,3.061,3.4s-4.211-2.422-5.624-4.268-2.278-3.461-4.758-4.1a20.822,20.822,0,0,0-6.518-.923,18.724,18.724,0,0,1-7.267-1.269c-2.942-.981-3.98-1.327-5.653-.808s-3.519,2.48-5.018,1.846-2.423-1.326-2.6-2.134a10.83583,10.83583,0,0,1,1.269-4.557,5.78413,5.78413,0,0,1,3.692-2.018C1524.1791,233.31275,1528.96615,233.02476,1528.96615,233.02476Z" transform="translate(0)"/><path id="パス_473" data-name="パス 473" class="cls-44" d="M1573.35415,257.42378s6.6,6.921,10.408,8.767,5.668,1.73,5.949,2.423,1.088,11.305.742,12.8-6.576,2.076-6.806,5.883a144.72153,144.72153,0,0,0,.346,17.535c.462,3,5.191,9.344,5.191,9.344a43.85193,43.85193,0,0,1-5.422-4.5c-1.384-1.615-4.807-6.69-4.807-6.69s2.724,8.075,4,9.69,5.194,6.921,5.194,6.921-6.69-3.807-8.19-7.152a47.17047,47.17047,0,0,0-2.422-4.845s2.185,10.382,5.418,13.728a21.98984,21.98984,0,0,1,4.5,6.691s-6.345-4.384-7.383-7.614a27.544,27.544,0,0,1-1.116-3.989s4.347,10.911,5.154,15.294,2.53608,10.386,2.53608,10.386-3.692-12.92-5.884-16.035-4.814-9.928-4.77-13.271a129.08948,129.08948,0,0,1,1.078-16.838c.922-5.653.346-20.3.346-20.3s-2.019,3.922-1.9,6.114-.173,7.325-.173,7.325-.231-11.536-.058-13.785-9.325-13.612-9.325-13.612-.654.269,2.172.769,2.788.192,2.788.192a11.93039,11.93039,0,0,1-.808-4.576c.27-1.73-1.345-5.345-1.576-5.653a7.42778,7.42778,0,0,1,2.846,2.538A12.10925,12.10925,0,0,0,1573.35415,257.42378Z" transform="translate(0)"/><path id="パス_474" data-name="パス 474" class="cls-44" d="M1519.33413,260.07676s3,13.555,3,15.977-.577-9.69-.577-9.69,2.249,3.288,2.307,6.4.807,12.959.807,12.959l-5.941.885s.75-13.209.635-16.5-1.673-13.67-1.846-15.8-.576-5.884-.576-5.884Z" transform="translate(0)"/><path id="パス_475" data-name="パス 475" class="cls-45" d="M1532.08413,299.87577s-4.614,5.191-5.5,6.191a14.46139,14.46139,0,0,1-3.807,3.153c-1.076.423-4.768.038-5.576.269s-3.307.577-3.653.615a34.43369,34.43369,0,0,1,5.036-3.345c1.307-.653,4.491-4.614,5.4-5.96s1.561-3.692,2.638-4.115a3.23,3.23,0,0,1,3.23,0C1530.96615,297.4138,1532.08413,299.87577,1532.08413,299.87577Z" transform="translate(0)"/><path id="パス_476" data-name="パス 476" class="cls-46" d="M1511.93112,311.25877a10.16545,10.16545,0,0,0-4.538,1.076c-.5.423-1.307,1-.884,1.423a13.33446,13.33446,0,0,0,6.153,1.923,37.58226,37.58226,0,0,0,6.575-.385c1.692-.385,3.192-1.654,5.191-2.423s8.46-6.806,9.96-7.652a7.64768,7.64768,0,0,1,2-.922l2.23.385a10.33361,10.33361,0,0,0,1.154-1.116c0-.115-4.038-1.538-5.422-1a57.20153,57.20153,0,0,0-8.537,5.383,9.619,9.619,0,0,1-7,2.961c-3.691,0-4.386-.154-5.289-.193A2.573,2.573,0,0,0,1511.93112,311.25877Z" transform="translate(0)"/><path id="パス_477" data-name="パス 477" class="cls-45" d="M1576.20511,368.39979a23.89919,23.89919,0,0,0,2.653,4.672c1.067,1.1,1.067,1.355,1.673,1.932a1.211,1.211,0,0,1,.2,1.471,3.56978,3.56978,0,0,1-1.73-.548c-.952-.548-2.509-1.327-2.8-2.913a23.21952,23.21952,0,0,1-.634-4.153c.057-.981.116-2.106.116-2.106Z" transform="translate(0)"/><path id="パス_478" data-name="パス 478" class="cls-45" d="M1576.32217,362.08277s.49-1.153,3.807-.721a20.35577,20.35577,0,0,1,3.98.721,11.13294,11.13294,0,0,1-1.384-2.163c-.375-.922-1.038-2.192-2.279-2.422a2.535,2.535,0,0,0-2.942,1.067c-.749,1.125-1.972,2.538-1.938,2.653A8.76857,8.76857,0,0,0,1576.32217,362.08277Z" transform="translate(0)"/><path id="パス_479" data-name="パス 479" class="cls-47" d="M1643.74917,129.60179a1.37,1.37,0,0,1,1.538-.231,15.76122,15.76122,0,0,1,4.076,2.153c.692.654,2.038,2.115,2.038,2.115l-.715,2.514s-5.9-4.283-6.13-4.706S1643.74917,129.60179,1643.74917,129.60179Z" transform="translate(0)"/><path id="パス_480" data-name="パス 480" class="cls-48" d="M1567.40915,178.11375s4.067,5.133,5.047,6.287,1.765,2.249,1.765,2.249a11.5424,11.5424,0,0,0-2.111-4.787,17.17832,17.17832,0,0,1-2.538-5.589s3.461,2.036,3.807,3.7a8.89918,8.89918,0,0,0,1.363,3.045l5.617-5.508s2.439,1.552,2.489,2.463,1.952.8,3.74-.762a26.90473,26.90473,0,0,0,2.25-2.093s1.269,1.17,1.153,1.747-4.268,3.519-4.326,5.249a2.252,2.252,0,0,0,1.153,2.249l4.5-4.326-.75,5.653a5.428,5.428,0,0,0,2.922-1.154c.942-.98,1.519-1.5,1.519-1.5s-3.288,5.134-3.634,6,5.134-5.134,5.134-5.134-1.769,2.94-3.019,5.219a14.18914,14.18914,0,0,0-1.538,4.414l6.289-7.325s-3.905,6.171-4.751,7.786a36.34946,36.34946,0,0,0-1.826,5.134l7.787-10.278s-4.961,8.374-5.48,9.412-2.192,4.845-2.653,5.653,4.66-5.175,4.66-5.175l4.184-8.322s-2.961,9.171-4.23,10.959a25.34238,25.34238,0,0,1-5.941,5.537,21.36078,21.36078,0,0,0-4.326,3.576c-.116.289-9.806.981-11.19.289s-7.325-6.46-9.4-8.825-7.927-12.53-7.927-12.53l7.177,4.743s-1.846-4.961-.923-6.807a4.8,4.8,0,0,0-.057-3.864,3.636,3.636,0,0,1,.7-2.192c.688-.634,4.264,3.288,4.264,3.288s-1.789-4.326-1.731-5.422A13.47758,13.47758,0,0,1,1567.40915,178.11375Z" transform="translate(0)"/><path id="パス_481" data-name="パス 481" class="cls-49" d="M1574.87918,176.90177a26.16379,26.16379,0,0,0,0,5.153c.307,2.076,8.306,51.6,8.306,51.6l4.845,4.23,2.922-4.23s-3.384-17.227-4-23-5.076-24.61-6.152-27.456a69.20238,69.20238,0,0,0-3.461-7.113Z" transform="translate(0)"/><path id="パス_482" data-name="パス 482" class="cls-50" d="M1568.30313,167.2888a8.3888,8.3888,0,0,0,2.768,2.519,12.90087,12.90087,0,0,0,2.576.788,28.53834,28.53834,0,0,1-1.769,3.769,15.61519,15.61519,0,0,1-1.884,2.538s.039-.193-1.115-1.384-1.538-2.153-1.461-2.961.307-2.269.423-3.346a13.63,13.63,0,0,0-.077-2.576Z" transform="translate(0)"/><path id="パス_483" data-name="パス 483" class="cls-41" d="M1570.91714,176.52876a.58849.58849,0,1,1,0-.001Z" transform="translate(0)"/><path id="パス_484" data-name="パス 484" class="cls-51" d="M1566.69412,172.65678c-.313-.022-4.274-1.984-5.889-.445s-1.519,2.9-2.221,4.317-1.893,4.912-2.509,6.757-.923,3.115-.923,3.115,2.884-2.884,3.769-5.191,1.961-4.864,2.538-3.7a3.95407,3.95407,0,0,1,0,3.816c-.73,1.307-1.5,2.461-.346,2.076s2.008-2.423,2.927-3.307,1.418-3.153.726-4-.27-2.384.384-1.5.462,1.343,1.346,1.345a2.171,2.171,0,0,0,2-1.518C1568.61117,173.67277,1566.69412,172.65678,1566.69412,172.65678Z" transform="translate(0)"/><path id="パス_485" data-name="パス 485" class="cls-34" d="M1528.50412,150.83079a11.18169,11.18169,0,0,0-3.115,2.653,28.01053,28.01053,0,0,0-2.768,3.98,60.37829,60.37829,0,0,1,4.614-4.153,8.28948,8.28948,0,0,1,2.6-1.153s1.269.519-.347,2.019-2.121,2.711-3.022,3.288a23.10491,23.10491,0,0,0-1.942,1.442,21.49316,21.49316,0,0,0,3.288-1.673c1.038-.75,2.942-2.365,3.4-2.6s1.615-.4,2.076.23,1.384.116.807,1.73-.807,1.673-3.115,2.826a8.09963,8.09963,0,0,0-3.288,2.48c-.173.289.519.557,2.019-.615a10.14859,10.14859,0,0,1,3.576-1.98,6.759,6.759,0,0,0,3-2.249c0-.173-2.382-3.918-3.585-4.41a13.46838,13.46838,0,0,1-3.251-2.684c-.144-.173-2.567-2.48-2.567-2.48a14.45141,14.45141,0,0,0-3.571,2.425,16.625,16.625,0,0,0-1.846,2.942,32.34322,32.34322,0,0,1,3.922-3.461c1.384-.865,2.365-.577,2.538-.288A14.83609,14.83609,0,0,1,1528.50412,150.83079Z" transform="translate(0)"/><path id="パス_486" data-name="パス 486" class="cls-34" d="M1539.75216,160.39475s.173,4.049.519,7.683a17.82428,17.82428,0,0,0,1.615,6.84,22.60864,22.60864,0,0,0,1.615,3.138,4.96177,4.96177,0,0,0,2.826,1.673c1.95.448,1.429,1.674,1.95.448s2.491-7.73,2.549-9.627a10.6663,10.6663,0,0,1,.284-2.588s-2.3-1.384-2.88-1.673-1.442-1.326-1.384-1.153,1.846,1.788,2.192,3a9.79935,9.79935,0,0,1-.115,4.268,33.78787,33.78787,0,0,1-1.385,5.1c-.231.375-.288-1.76-.288-4.989s.173-4.845-.116-5.365-1.1-1.788-1.1-1.788a39.3348,39.3348,0,0,0-.115,5.184,45.47145,45.47145,0,0,1-.231,5.978c0,.143-.692-4.471-.866-6.374s-.749-4.788-.749-4.788a23.95734,23.95734,0,0,0-.116,5.97,40.50384,40.50384,0,0,1,.4671,4.939s-1.1-1.448-1.73-2.429a13.70933,13.70933,0,0,1-1.1-5.652,25.62252,25.62252,0,0,0,0-4.211,17.0746,17.0746,0,0,0-1.1-4.268,22.61512,22.61512,0,0,0-2.769-1.636S1539.72513,159.80775,1539.75216,160.39475Z" transform="translate(0)"/><path id="パス_487" data-name="パス 487" class="cls-34" d="M1604.70016,166.28974a47.74972,47.74972,0,0,1,3.634,5.047c1.384,2.106,2.134,1.01,3.115.433s1.73-3.576.807-4.788-.576-5.018-.576-5.018,1.326,3.749,1.615,4.211,1.327-2.711,1.442-4.211a10.25934,10.25934,0,0,1,1.73-3.749,63.99918,63.99918,0,0,0-.98,6.557c-.057,1.865-2.365,5.9-2.249,7.8l.115,1.907a15.84,15.84,0,0,0,2.134-2.476,64.94751,64.94751,0,0,0,2.538-7.849c.058-.634.347-2.6.347-2.6s.634,3.691.346,4.787-.981,4.5-1.1,4.989,3.057-2.489,3.057-2.489a23.60337,23.60337,0,0,1,1.615-2.5,18.08851,18.08851,0,0,0,2.768-5.952,10.63435,10.63435,0,0,1,.865-2.93,29.13715,29.13715,0,0,1-.693,5.71c-.576,1.789-2.262,4.079-3.115,5.672s-7.556,5.955-8.536,6.66-3.461,3.127-3.461,3.127l-2.884-5.137a43.39173,43.39173,0,0,1-3.1-4.649c-.669-1.417-1.482-4.253-1.928-5.194a3.85979,3.85979,0,0,0-.792-1.228Z" transform="translate(0)"/><path id="パス_488" data-name="パス 488" class="cls-52" d="M1573.6102,238.88877s-1.345,1.384-.846,2.461-.5,1.471,2.269,1.908a28.62089,28.62089,0,0,1,5.076,1.284c.346.115,1.431-.342.307-.884s-3.422-.654-4.23-1.269-1.115-1.539-.461-2.23,1.843-.231,3.229-.116,2.577.116,2.577.116a1.138,1.138,0,0,0-.998-1.2626q-.03891-.00453-.078-.00641c-1.23-.193-2.23-.385-3.538-.538S1573.68716,237.65778,1573.6102,238.88877Z" transform="translate(0)"/></g><path id="パス_489" data-name="パス 489" class="cls-53" d="M1706.95926,338.70286q1.359-3.839-10.894-4.451c-8.244-.249-18.55.667-30.848,2.8a203.29793,203.29793,0,0,0-32.989,8.085l-74.7,26.307c-9.479,3.306-14.6,6.273-15.2,8.832-.906,2.559,2.818,4.043,11.073,4.441,8.145.249,18.4-.657,30.828-2.808a241.40234,241.40234,0,0,0,32.67-7.986l74.789-26.317c9.31-3.286,14.349-6.253,15.265-8.9Z" transform="translate(0)"/></g></g></svg>