<svg id="レイヤー_1" data-name="レイヤー 1" xmlns="http://www.w3.org/2000/svg" viewBox="0 0 1000.40859 223.95745"><defs><style>.cls-1{fill:#f15b55;}.cls-2{isolation:isolate;}.cls-3{fill:#fff;}.cls-4{fill:#fceb00;}</style></defs><rect id="長方形_9" data-name="長方形 9" class="cls-1" width="1000.40859" height="223.95745"/><g id="あなたの_副業_を" data-name="あなたの 副業 を" class="cls-2"><g class="cls-2"><path class="cls-3" d="M339.55957,85.25l-.90918-5.36719q14.63818,0,14.6377-8.33886,0-4.43556-5.54395-6.3877A40.53768,40.53768,0,0,1,337.97363,78.064q-6.17577,5.45655-12.07617,5.45606a7.09349,7.09349,0,0,1-5.36719-1.98486,7.69041,7.69041,0,0,1-1.90722-5.55567,12.61412,12.61412,0,0,1,3.0498-8.07324,21.542,21.542,0,0,1,8.06153-6.03223q-.06592-1.90722-.06641-5.6333H319.53223V51.25049h10.291q.08936-1.73.2002-5.25635h6.36523q-.0454,2.21778-.24414,5.25635h19.96094v4.99023H335.834q-.0454,2.3064-.04492,3.72559a28.46557,28.46557,0,0,1,5.45606-.53223q8.09472,0,13.31836,3.23828a10.22614,10.22614,0,0,1,5.22363,9.18164,11.11476,11.11476,0,0,1-5.37891,9.94727q-5.37889,3.44825-14.27148,3.44873Zm-9.42578-17.76514q-5.65576,3.79248-5.65527,7.98438,0,2.8169,1.99609,2.81689a9.68861,9.68861,0,0,0,5.21191-2.085A54.68486,54.68486,0,0,1,330.13379,67.48486Zm11.75488-3.34863a3.8874,3.8874,0,0,0-.665-.04443,23.89338,23.89338,0,0,0-5.43457.79834,55.7352,55.7352,0,0,0,.84278,7.11914A29.4204,29.4204,0,0,0,341.88867,64.13623Z" transform="translate(0 1)"/><path class="cls-3" d="M378.86035,46.41553q-.15526,3.54858-.50976,6.498h9.66992v5.30079H377.55176A50.83314,50.83314,0,0,1,367.50488,80.792l-4.85742-3.5039q6.03369-7.40772,8.584-19.07373h-6.83106V52.91357h7.76172a62.92522,62.92522,0,0,0,.51074-6.69775Zm27.34668,31.915-3.2832,4.92334a52.68138,52.68138,0,0,0-7.40723-5.34473,6.77112,6.77112,0,0,1-2.39551,5.69971q-2.395,1.86327-7.8955,1.86279A13.00456,13.00456,0,0,1,377.8623,83.52a6.16105,6.16105,0,0,1-2.92773-5.41162A6.78976,6.78976,0,0,1,378.04,72.24219a12.94144,12.94144,0,0,1,7.585-2.16211,27.08979,27.08979,0,0,1,3.77051.24365V58.813h6.12109V71.9873A55.55622,55.55622,0,0,1,406.207,78.33057Zm-16.81152-3.105a18.10752,18.10752,0,0,0-3.77051-.37745,7.54914,7.54914,0,0,0-3.51562.76514,2.33848,2.33848,0,0,0-1.47461,2.11817q0,2.79492,5.168,2.79443,3.59181,0,3.59278-2.59473ZM406.5166,59.8999l-4.85644,3.68164A66.31329,66.31329,0,0,0,395.25,57.1499a48.8699,48.8699,0,0,0-6.76367-5.30078l3.72558-4.125a44.323,44.323,0,0,1,7.33008,5.31152A62.97218,62.97218,0,0,1,406.5166,59.8999Z" transform="translate(0 1)"/><path class="cls-3" d="M424.99121,45.55029q.06738.82106.06641,2.83887,0,1.50879-.08789,2.94971h14.65918v5.32324H424.37012A62.86552,62.86552,0,0,1,420.68848,72.542a48.65331,48.65331,0,0,1-6.76368,13.28467l-5.1455-3.03857a48.81843,48.81843,0,0,0,5.94336-12.05371,65.62767,65.62767,0,0,0,3.37109-14.07227h-7.7627V51.33887h8.13965q.17725-3.57055.17774-5.78858ZM450.209,83.69775a67.9246,67.9246,0,0,1-10.51269.73194,54.30276,54.30276,0,0,1-8.01758-.52149,9.726,9.726,0,0,1-5.42285-2.40625,5.96165,5.96165,0,0,1-1.97363-4.458q0-3.41529,3.63672-7.05274l4.7246,2.21777q-2.19579,2.68361-2.19628,4.30274a1.46272,1.46272,0,0,0,.79882,1.28613,8.98356,8.98356,0,0,0,3.21582.76514,48.43511,48.43511,0,0,0,5.47754.27734,57.20749,57.20749,0,0,0,9.959-.86474ZM449.0332,59.03516l-.31054,5.27832q-1.26417-.06666-2.63965-.06641-7.51758,0-18.62989,1.02l-.39941-5.27832a167.57917,167.57917,0,0,1,18.47559-1.02051Q447.65771,58.96826,449.0332,59.03516Z" transform="translate(0 1)"/><path class="cls-3" d="M474.38379,84.91748l-1.6416-5.54492q8.80517-.97558,13.24023-4.0586,4.43555-3.082,4.43555-9.2041a10.918,10.918,0,0,0-3.19336-8.21728,14.19481,14.19481,0,0,0-8.84961-3.626q-.46436,12.42042-4.64551,20.127-4.18212,7.70728-10.52441,7.707a7.69507,7.69507,0,0,1-6.67578-3.89209,15.88158,15.88158,0,0,1-2.54981-8.90479V68.749q0-7.67285,6.17676-13.584a23.30616,23.30616,0,0,1,15.58008-6.35449h.90918q8.98242,0,14.75976,4.55761a14.93536,14.93536,0,0,1,5.77735,12.38672q0,8.58326-5.82129,13.44043Q485.53857,84.05273,474.38379,84.91748Zm-2.24024-30.00781a15.73606,15.73606,0,0,0-8.48339,5.23437,13.42215,13.42215,0,0,0-3.49317,8.96,12.25178,12.25178,0,0,0,.86524,4.65772q.86425,2.12915,2.417,2.1289,3.12744,0,5.67773-6.07666A44.737,44.737,0,0,0,472.14355,54.90967Z" transform="translate(0 1)"/></g><g class="cls-2"><path class="cls-4" d="M511.64355,47.96777l-6.34277,13.01905h-4.67969l3.61524-13.019Zm10.9336,0-6.34277,13.01905h-4.67969l3.61523-13.019Z" transform="translate(0 1)"/><path class="cls-4" d="M550.87793,51.09521H524.83984V46.59277h26.03809ZM543.91309,83.52H531.294v1.375h-5.72266V65.17871H549.835V84.895h-5.92187ZM548.793,63.22656H526.6582v-10.313H548.793ZM534.97559,69.481H531.294v2.9497h3.68164ZM531.294,79.26172h3.68164V76.02393H531.294Zm11.77636-19.80518V56.59521H532.4248v2.86133Zm.84278,12.97412V69.481h-3.65918v2.9497Zm-3.65918,6.83106h3.65918V76.02393h-3.65918ZM557.043,75.07031h-5.168V48.10107h5.168Zm7.96191,5.54444a3.82571,3.82571,0,0,1-1.39648,2.99414,4.7201,4.7201,0,0,1-3.19434,1.21972h-5.41113l-.73242-5.25634h3.59277q1.64209,0,1.6416-1.375V45.37305h5.5Z" transform="translate(0 1)"/><path class="cls-4" d="M587.62793,77.82031a51.60152,51.60152,0,0,1-17.32129,6.87549l-1.61914-4.436a55.375,55.375,0,0,0,13.63965-4.92334h-12.1543V71.12256h17.45508v-2.085H572.502V65.08984h15.126v-2.085H571.81445V58.769h8.29493l-.99805-2.55078h-8.33887V51.96h5.01172L573.544,46.81445l5.30078-1.30859,2.83886,6.4541h2.01856V44.90723h5.36719V51.96h3.37109V44.90723h5.30078V51.96h2.28418l2.81641-6.498,5.54492,1.3086L605.65918,51.96h5.34473v4.2583h-8.583L600.89062,58.769h9.11524v4.23584H593.61621v2.085H608.875V69.0376H593.61621v2.085H611.292v4.21387H599.20508A58.92968,58.92968,0,0,0,612.82227,79.794l-2.30665,4.9458a48.04737,48.04737,0,0,1-16.89941-7.29639V85.3833h-5.98828ZM584.833,56.21826l1.02051,2.55078h9.2705l1.33106-2.55078Z" transform="translate(0 1)"/><path class="cls-4" d="M626.88379,47.96777,620.541,60.98682h-4.67969l3.61523-13.019Zm10.93457,0-6.34375,13.01905h-4.67969l3.61524-13.019Z" transform="translate(0 1)"/></g><g class="cls-2"><path class="cls-3" d="M668.29,77.79785h-6.32031l.02246-8.71582q-7.919,3.8811-7.918,7.25244,0,3.34863,7.6289,3.34864l2.46192-.022a112.51107,112.51107,0,0,0,15.082-.73193l.31055,5.54443q-6.23292.59913-12.22071.59912-11.51073,0-15.43652-1.96289a6.40891,6.40891,0,0,1-3.92578-6.06591q0-6.74195,12.88574-13.24073a2.06813,2.06813,0,0,0-1.72949-.73193,12.706,12.706,0,0,0-5.20117,1.48633,32.22106,32.22106,0,0,0-7.01953,4.90136q-2.70557,2.395-3.88086,3.2378l-3.85938-4.16944a41.02074,41.02074,0,0,0,11.666-12.7749h-9.47071V50.49609h11.77735A37.8775,37.8775,0,0,0,654.54,45.46191l6.52051.3545q-.62111,2.75024-1.26465,4.67968h14.63769v5.25635H657.667q-.57714,1.15356-2.1289,3.54883a13.56039,13.56039,0,0,1,4.25781-.73193q4.5249,0,6.52051,2.79443,2.88281-1.2422,12.15429-4.87939l2.59473,5.2788q-4.36964,1.48609-13.041,4.65723a27.13218,27.13218,0,0,1,.22168,3.5708Z" transform="translate(0 1)"/></g></g><g id="徹底的に探します_" data-name="徹底的に探します " class="cls-2"><g class="cls-2"><path class="cls-3" d="M194.1709,175.74121h-7.63574v-19.5166a32.34582,32.34582,0,0,1-2.78809,3.23144l-4.5-4.53125a58.41538,58.41538,0,0,0,6.79688-10.4873,56.37483,56.37483,0,0,0,4.57812-10.55078l6.17773,1.87012-.03125-.31739q1.23633,0,3.168-.09472.85548-2.02736,2.21875-5.92481h-5.45019v-5.9248H205.418V118.457h7.57226v5.03809h8.83985v5.9248h-5.38574q1.67871,2.7876,3.54882,6.58985a89.57447,89.57447,0,0,0,4.81543-18.09082l7.6045.91894a81.9932,81.9932,0,0,1-1.96485,8.90234h12.07129v6.40039H240.46q-.47461,14.19435-4.97363,24.04786a43.8309,43.8309,0,0,0,7.16015,9.31543l-4.02343,7.60351a60.44635,60.44635,0,0,1-7.38282-9.69531,42.864,42.864,0,0,1-8.71289,10.01269l-3.29492-5.63964a48.85655,48.85655,0,0,0,8.333-11.62793,66.68731,66.68731,0,0,1-4.46777-15.14551q-.60205,1.14111-1.07715,1.90137l-4.34082-3.54883.63379-1.29883-3.042,1.17187-.82324-1.77343a146.29547,146.29547,0,0,1-16.82422,2.02734l-.53906-3.89746a66.39207,66.39207,0,0,1-4.27637,9.15723h1.36231Zm2.59765-55.92187a41.75442,41.75442,0,0,1-5.30664,10.456,45.54779,45.54779,0,0,1-7.14453,8.36426l-4.78515-4.5625a52.98585,52.98585,0,0,0,10.23437-16.03223Zm15.04981,43.97754h-6.93848v11.18359h-7.06543V143.10742H219.042v26.48731q0,4.84716-5.57617,4.84765h-5.57617l-.665-6.21h3.10449q1.48828,0,1.48926-1.29883Zm0-12.57911v-3.10449h-6.93848v3.10449Zm-6.93848,7.9209h6.93848v-3.45312h-6.93848Zm1.71094-24.2373,5.5127-.50684q-1.20411-2.59863-1.71094-3.48535l4.84765-1.48926h-6.21Q208.23779,131.44726,206.59082,134.90137ZM231.082,149.41211a63.01494,63.01494,0,0,0,2.3125-15.27149h-5.25879A66.901,66.901,0,0,0,231.082,149.41211Z" transform="translate(0 1)"/><path class="cls-3" d="M312.53418,129.99023H264.24805v9.41016A101.89841,101.89841,0,0,1,262.126,160.501q-2.124,10.04443-5.7666,14.86035l-6.17872-3.707q2.02736-3.23145,3.96094-11.59668a85.29614,85.29614,0,0,0,1.93262-19.10547V123.65332H279.583V118.2041h8.93554v5.44922h24.01563Zm-18.1543,44.38868h-31.874v-6.43164h31.874Zm-5.45019-11.15235q-8.36426,1.74171-24.01563,3.29492l-1.23633-6.55859,5.57715-.34863V133.50684l4.40332-.127q19.35938-.56982,29.59278-3.07324l3.834,5.86133a66.76194,66.76194,0,0,1-11.66016,2.02832q-.03075,1.29932-.03125,2.4082,0,2.25.09473,3.80176h14.44824v6.43164h-13.751q1.17188,7.50879,4.00781,11.73926,2.83593,4.229,4.35644,4.19726a.93393.93393,0,0,0,.98243-.69629q.22119-.69726.57031-8.36523l6.43164,1.36231q0,4.75341-.2373,7.9375a29.04574,29.04574,0,0,1-.52344,4.27734,4.66212,4.66212,0,0,1-1.14063,2.01172,5.59068,5.59068,0,0,1-2.15429,1.41015,8.19567,8.19567,0,0,1-2.915.49121,9.02331,9.02331,0,0,1-4.2295-.998,20.82757,20.82757,0,0,1-4.86328-4.11914,29.44467,29.44467,0,0,1-5.18066-7.96875,42.13661,42.13661,0,0,1-3.21582-11.2793H277.23828v8.0791q7.16016-.76024,11.75488-1.67871Zm-1.457-24.26953q-6.52736.53907-10.23438.57031v4.87891h10.26563q-.03076-1.3623-.03125-3.73828Z" transform="translate(0 1)"/><path class="cls-3" d="M348.48926,166.93359H334.32617v3.86524h-8.01562V127.582h7.16015l2.50293-9.59961,8.49121,1.17188L341.2334,127.582h7.25586Zm-7.9209-23.31933v-9.79h-6.24219v9.79Zm0,16.88672V149.53906h-6.24219V160.501Zm20.43555,14.79687-1.0459-7.60449h8.1748a3.50028,3.50028,0,0,0,3.61231-2.74024q.85547-2.74071.95019-10.09179l-.03125.88769q-.03222,0-.0957-10.77246V131.89062H359.958a59.08144,59.08144,0,0,1-4.53028,9.72754l-6.68554-3.042a114.45274,114.45274,0,0,0,4.21386-11.4375,75.19994,75.19994,0,0,0,2.1543-9.72656l8.55469.85547a59.78187,59.78187,0,0,1-1.584,7.1914h18.78907q.03075,2.313.03125,7.31934,0,19.80175-.22168,25.37891-.31788,8.58545-1.36231,11.05761a9.33056,9.33056,0,0,1-3.13672,3.99219,9.93171,9.93171,0,0,1-4.24609,1.86914Q370.63526,175.29736,361.00391,175.29785ZM367.5625,156.668l-7.98438,2.78808A145.63385,145.63385,0,0,0,353.21,142.63184l7.22363-2.78809Q363.44385,145.104,367.5625,156.668Z" transform="translate(0 1)"/><path class="cls-3" d="M411.56445,121.752q-4.02392,14.543-4.02343,24.49219a98.54311,98.54311,0,0,0,3.54882,26.45508l-8.74511,1.99609a102.99054,102.99054,0,0,1-3.42188-25.88476,115.98761,115.98761,0,0,1,3.73926-28.294ZM452.5,172.35156q-7.7622.728-13.27539.72852-13.90869,0-18.97852-3.21582a10.249,10.249,0,0,1-5.06933-9.17285q0-6.87452,6.49512-13.56055l7.002,3.73828q-5.10206,4.75343-5.10059,9.53711,0,2.25,2.66114,3.56445,2.66161,1.31544,11.02539,1.31543,4.24658,0,14.92382-.91894Zm-.69727-39.70019-2.66113-.03125q-4.15137-.063-13.78222.1582-9.63282.22266-18.66211.85547v-7.73047q21.41748-1.0459,29.65625-1.0459,3.29442,0,5.44921.19043Z" transform="translate(0 1)"/><path class="cls-3" d="M485.47656,150.48926q-1.61573.69726-4.5625,1.67969v17.01367a5.66617,5.66617,0,0,1-2.09082,4.70508,8.23428,8.23428,0,0,1-5.292,1.66308h-6.36816l-.98243-7.1914h4.5q2.12111,0,2.12207-1.90137V154.63965q-3.51708.9829-5.70312,1.52148l-1.61523-7.41406q2.91357-.44385,7.31835-1.42578V135.85156H466.7832V129.293h6.01953V118.457h8.11133V129.293h3.834v6.55859h-3.834v9.47364q2.502-.69727,3.834-1.17286ZM500.7793,162.624a60.62144,60.62144,0,0,1-15.8418,10.77246l-3.6748-6.52636q7.12793-3.01026,16-11.501H486.04688v-6.8125H500.7793V143.1709h8.49121v5.38574h16.0957v6.8125h-12.832a51.73768,51.73768,0,0,0,7.49316,6.32031,53.41629,53.41629,0,0,0,8.666,5.24414l-4.87988,6.68457a55.00819,55.00819,0,0,1-14.543-10.89843v12.6416H500.7793Zm2.59863-36.11914a24.455,24.455,0,0,1-4.15039,11.65918q-3.29591,4.53224-10.20215,7.9209l-3.54883-5.70215q5.86084-3.39111,8-6.59082a16.29951,16.29951,0,0,0,2.61426-7.28711H492.669v5.10157H485.9834V120.07324h39.69922v10.96289h-6.46289v-4.53125h-6.24219v9.34668q0,1.29931,1.23633,1.29883H517.002a1.29865,1.29865,0,0,0,1.47266-1.251,34.33407,34.33407,0,0,0,.14258-3.62793l6.05176.792v4.34082a5.32624,5.32624,0,0,1-1.94825,4.37207q-1.94823,1.585-8.38086,1.584a15.89749,15.89749,0,0,1-5.25879-.61719,4.49412,4.49412,0,0,1-2.377-2.04394,7.4444,7.4444,0,0,1-.792-3.64356V126.50488Z" transform="translate(0 1)"/><path class="cls-3" d="M596.55273,148.24023q-4.11914,14.44776-11.40625,20.84766-7.28613,6.3999-18.7246,6.40039a26.442,26.442,0,0,1-8.64942-1.2832,16.79,16.79,0,0,1-6.05176-3.46973,16.41843,16.41843,0,0,1-3.6123-4.76855,17.5464,17.5464,0,0,1-1.64746-5.48145,76.31428,76.31428,0,0,1-.37989-8.98242q0-6.65332,1.36231-31.17676H556.917q-1.29932,21.89356-1.29883,30.44824a62.58976,62.58976,0,0,0,.36426,8.83985,8.91855,8.91855,0,0,0,1.63184,3.5957,7.98692,7.98692,0,0,0,3.65918,2.66211,16.1132,16.1132,0,0,0,5.8457.93457,17.21281,17.21281,0,0,0,12.80078-5.22754q5.13282-5.228,8.14258-16.53906Z" transform="translate(0 1)"/><path class="cls-3" d="M666.56738,165.72949l-4.7207,7.98438a68.37556,68.37556,0,0,0-16.69727-9.60059l.31641,1.36231a7.75633,7.75633,0,0,1,.25391,1.86914q-.03223,3.86718-4.38868,5.87793-4.35644,2.01123-12.05566,2.01172a21.69958,21.69958,0,0,1-11.61133-2.97852,9.179,9.179,0,0,1-4.832-8.17383,9.91678,9.91678,0,0,1,4.43555-8.50781,18.22233,18.22233,0,0,1,10.83594-3.15234,47.37918,47.37918,0,0,1,8.04785.60253v-5.25976H614.00391v-7.50879h22.14746v-6.17871H612.26172v-7.541h23.88965v-6.875h9.06152v6.875h22.40039v7.541H645.21289v6.17871h19.07324v7.50879H645.21289v7.60449A118.41412,118.41412,0,0,1,666.56738,165.72949Zm-30.416-1.26758v-3.834a29.78427,29.78427,0,0,0-6.7168-1.07715,12.38944,12.38944,0,0,0-5.49805,1.125,3.46724,3.46724,0,0,0-2.29687,3.15234q0,3.6753,7.88965,3.67579Q636.15039,167.50391,636.15137,164.46191Z" transform="translate(0 1)"/><path class="cls-3" d="M740.22559,132.17578H721.40527v11.97656q1.80616,3.54932,1.80567,9.72754,0,9.63135-6.76367,15.47754-6.76612,5.84474-18.07618,6.57422l-2.21777-7.668q13.94092-1.07666,17.585-9.98047A13.6629,13.6629,0,0,1,705.5,160.88184a13.47406,13.47406,0,0,1-9.29883-3.34278,10.95713,10.95713,0,0,1-3.75488-8.57031,12.69061,12.69061,0,0,1,3.97656-9.63184,13.95136,13.95136,0,0,1,9.9961-3.7705,15.60654,15.60654,0,0,1,5.63964,1.04589v-4.43652H681.04v-7.54h31.01855v-6.33691h9.34668v6.33691h18.82032Zm-28.04,14.417-.06348-1.77441q-1.55274-2.187-5.63965-2.18652a5.24855,5.24855,0,0,0-3.84961,1.79,5.53935,5.53935,0,0,0-1.72656,3.91308,5.15,5.15,0,0,0,1.2832,3.58008A4.251,4.251,0,0,0,705.5,153.34082a6.511,6.511,0,0,0,4.86328-1.85352A6.67938,6.67938,0,0,0,712.18555,146.59277Z" transform="translate(0 1)"/><path class="cls-3" d="M776.97266,124.35059l-1.26758,33.87011h-8.90332l-1.29883-33.87011Zm-.25391,47.74707H765.75586v-8.23731h10.96289Zm22.36816-47.74707-1.2666,33.87011H788.917l-1.29883-33.87011Zm-.25293,47.74707H787.87109v-8.23731H798.834Z" transform="translate(0 1)"/></g></g></svg>