<svg id="レイヤー_1" data-name="レイヤー 1" xmlns="http://www.w3.org/2000/svg" viewBox="0 0 1542 637"><defs><style>.cls-1{fill:#a8d16b;}.cls-2{isolation:isolate;}.cls-3{fill:#464646;}.cls-4{fill:#fce300;}.cls-5{fill:#fbfbfb;}</style></defs><rect class="cls-1" width="1542" height="637"/><g id="_診断は次の時代にシフトしていく_" data-name=" 診断は次の時代にシフトしていく " class="cls-2"><g class="cls-2"><path class="cls-3" d="M296.23047,95.23779l-9.41406,19.32227h-6.94629l5.36621-19.32227Zm16.22851,0-9.415,19.32227h-6.94532l5.36621-19.32227Z"/></g><g class="cls-2"><path class="cls-4" d="M361.40723,107.68018H337.67285v-6.5835h23.73438Zm-.82325,40.19238H346.98926v2.436h-7.90039V128.188H360.584ZM360.38672,98.332H339.97754V92.47266h20.40918Zm-.3291,18.00586H340.043v-5.76074h20.01465Zm0,8.82178H340.043v-5.79346h20.01465Zm-7.40723,16.91943v-8.03174H347.252v8.03174Zm49.40918-34.16846-4.80566,6.64942A49.66413,49.66413,0,0,1,380.499,99.31934a41.52281,41.52281,0,0,1-16.65625,15.10937l-4.18066-5.728a33.87433,33.87433,0,0,0,9.13477-6.69873A40.72965,40.72965,0,0,0,376.582,91.18848h8.09766Q390.01172,101.65625,402.05957,107.91064Zm-14.418,1.05372a50.8917,50.8917,0,0,1-10.1543,9.10156,78.60326,78.60326,0,0,1-12.65722,7.48877l-4.11426-6.12256q14.05518-6.97851,20.30957-14.97754Zm7.47266,9.84228A69.73785,69.73785,0,0,1,381.042,129.73535a82.05843,82.05843,0,0,1-17.13379,8.229l-3.09375-6.68213a73.88756,73.88756,0,0,0,15.89942-7.98243,62.21285,62.21285,0,0,0,11.98144-9.793Zm6.55078,10.59912q-6.3208,6.91334-17.56152,12.937a81.606,81.606,0,0,1-20.68848,8.09766l-2.60059-7.07715q7.998-1.97534,18.61426-7.86767,10.61719-5.89161,15.88281-11.81739Z"/><path class="cls-4" d="M437.05078,138.7876l-.06543,3.061a42.32142,42.32142,0,0,0,3.86817-12.49218,88.86431,88.86431,0,0,0,1.10253-13.8418V95.56689a84.83816,84.83816,0,0,0,22.51563-4.37841l3.78516,6.71533q-5.82569,2.10717-18.00586,3.78564v9.11817h17.80859v7.209h-4.9375V149.749h-8.42676V118.0166h-4.47754a74.48623,74.48623,0,0,1-2.45215,17.69287,49.94267,49.94267,0,0,1-6.83007,14.665l-5.72754-4.44385H414.23926v2.69922H406.7666V92.999h7.47266V138.7876Zm-12.14648-13.957a41.05835,41.05835,0,0,1-6.54981,8.55859l-3.88476-4.44385a52.6541,52.6541,0,0,0,8.95312-14.38525h-7.60351v-5.5957h9.085V91.5835h6.68261v17.38086h8.29493v5.5957h-7.01075a57.78355,57.78355,0,0,0,7.209,8.78906l-3.71973,5.29981a42.54076,42.54076,0,0,1-4.77344-5.69483v14.61524H424.9043Zm-1.02051-17.61084-5.793.95459L416.083,95.896l5.72754-.88868Zm17.05176-11.58741-3.09473,12.41016-5.39844-.88867,2.43653-12.54151Z"/></g><g class="cls-2"><path class="cls-3" d="M484.459,106.85156a77.89447,77.89447,0,0,0-3.23925,20.30371,82.57769,82.57769,0,0,0,3.02832,22.14649l-7.39942,1.50146a86.3216,86.3216,0,0,1-2.89746-21.77832,95.165,95.165,0,0,1,3.082-23.20068Zm39.10645,36.0249-4.2666,6.03028a49.9869,49.9869,0,0,0-7.61035-5.89844,7.89176,7.89176,0,0,1-2.77832,5.92481q-2.51514,2.02808-9.33594,2.02783a14.00475,14.00475,0,0,1-8.29492-2.3833,7.51235,7.51235,0,0,1-3.37012-6.46485,7.96892,7.96892,0,0,1,3.39648-6.64941,12.94249,12.94249,0,0,1,8.03223-2.56738,44.50875,44.50875,0,0,1,4.87207.31591V121.44043H487.11914v-6.53076H504.21v-9.55908h7.53125v9.55908h9.82227v6.53076h-9.82227v14.03613A50.98342,50.98342,0,0,1,523.56543,142.87646Zm-19.35547-1.501v-1.84326a13.30861,13.30861,0,0,0-4.87207-.81641,5.63026,5.63026,0,0,0-3.06836.856,2.55482,2.55482,0,0,0-1.35644,2.2251,2.37624,2.37624,0,0,0,1.39648,2.146,6.60013,6.60013,0,0,0,3.26465.77686Q504.209,144.71973,504.21,141.37549Z"/><path class="cls-3" d="M538.7334,128.8667q-1.52784,5.58325-3.75293,11.82422a51.661,51.661,0,0,1-3.77832,8.769l-6.32031-3.60791q3.76464-5.74072,7.50488-19.0918Zm.76367-11.271-6.583,3.292q-.42187-.81592-7.32129-11.666l6.13575-3.18652Q533.38818,107.79956,539.49707,117.5957Zm19.19727-.15771q0,3.81812-.10547,5.16113.58008,6.47827,5.66211,12.61426a34.83323,34.83323,0,0,0,12.61425,9.55908l-4.52929,6.37305a40.7869,40.7869,0,0,1-9.876-7.16309,35.35869,35.35869,0,0,1-6.71484-8.92724,29.61859,29.61859,0,0,1-7.16309,9.80957,33.40925,33.40925,0,0,1-10.42773,6.59668l-3.4502-5.34571a36.11749,36.11749,0,0,0,8.6377-5.89892,23.62129,23.62129,0,0,0,7.28125-13.93067,75.36329,75.36329,0,0,0,.4082-8.84814Zm-4.74024-13.16748q-.78956,3.18677-1.8164,6.08349H573.626l1.94922,1.68506a53.9021,53.9021,0,0,1-3.0293,8.62451,55.82027,55.82027,0,0,1-3.81836,7.54493L562.25,127.02344a98.06416,98.06416,0,0,0,4.31836-10.84961H549.82031a51.96307,51.96307,0,0,1-7.13672,11.61328l-5.873-3.44971a51.218,51.218,0,0,0,6.24121-11.1001,53.04159,53.04159,0,0,0,3.23926-10.04638Z"/><path class="cls-3" d="M603.252,151.11914l-1.94922-6.5835q10.4546-1.15869,15.72168-4.81933,5.26613-3.65991,5.26661-10.92871a12.96166,12.96166,0,0,0-3.792-9.75684q-3.79248-3.6731-10.50683-4.30517-.55371,14.74731-5.51758,23.89795-4.96436,9.15161-12.49512,9.15087-4.89843,0-7.92676-4.62158a18.85724,18.85724,0,0,1-3.02832-10.57275v-.65869q0-9.11133,7.334-16.1294,7.33448-7.01806,18.5-7.54492h1.0791q10.66553,0,17.52539,5.41162,6.85986,5.41186,6.86035,14.70752,0,10.19165-6.91308,15.9585Q616.49756,150.09179,603.252,151.11914Zm-2.66015-35.62988a18.68319,18.68319,0,0,0-10.07227,6.21484,15.93566,15.93566,0,0,0-4.14746,10.63867,14.56033,14.56033,0,0,0,1.02637,5.53028q1.02685,2.52831,2.87109,2.52783,3.71191,0,6.74121-7.21533A53.10979,53.10979,0,0,0,600.5918,115.48926Z"/><path class="cls-3" d="M651.62793,142.71826h-9.92871V146.063H635.169v-39.9751h16.459Zm-6.37305-21.146V111.11768h-3.55566v10.45459Zm0,16.14257V126.10156h-3.55566v11.61328Zm21.72559,5.55664-6.24121,3.26563q-2.9502-4.5293-6.63672-9.42773l4.81934-2.686h-5.47754V128.8667h18.40722v-4.10791H652.8125V118.939h11.95605v-4.31884H654.419v-5.60938h10.3496v-5.293h7.34668l-.02636,5.293h10.27051v5.60938H672.08887l-.02637,4.31884h12.19238v5.81983h-5.24023v4.10791h4.16113v5.55664h-4.16113v10.92871a5.33771,5.33771,0,0,1-1.86914,4.34473,7.714,7.714,0,0,1-5.083,1.55371h-6.74121l-.86914-6.5835H670.167q1.68457,0,1.68457-1.58008v-8.66357H660.26465A66.23226,66.23226,0,0,1,666.98047,143.27148Z"/><path class="cls-3" d="M701.45215,151.93555h-7.16309V129.36719q-1.4751,2.34375-3.84472,5.47754l-4.583-4.1084a72.667,72.667,0,0,0,6.53125-11.23145,72.74152,72.74152,0,0,0,5.60937-15.55029l7.26856,1.23779a63.40017,63.40017,0,0,1-5.00391,13.79932h1.18555Zm36.57715-16.98584q-.23585,5.58325-.65821,9.08545a16.60962,16.60962,0,0,1-1.02636,4.71386,4.37435,4.37435,0,0,1-2.06739,1.93555,7.23087,7.23087,0,0,1-3.25293.72412,8.70792,8.70792,0,0,1-4.13379-.93506,17.06669,17.06669,0,0,1-4.4248-4.14746,32.5575,32.5575,0,0,1-4.80566-8.46631A60.78016,60.78016,0,0,1,714.25,125.20654l-11.40234.895-.52735-6.53076,11.03418-.84277q-.36914-3.95-.36816-14.668H720.333q0,10.24439.36914,14.11523l15.7998-1.18506.501,6.4253L721.624,124.627a55.24052,55.24052,0,0,0,2.15918,8.17676,33.01454,33.01454,0,0,0,3.041,6.42529,17.7243,17.7243,0,0,0,2.33105,3.26563,1.743,1.743,0,0,0,1.02735.46094q.605.02635.80273-.67139.19776-.698.98731-8.73Zm-1.63184-21.62012-5.76758,3.9502q-3.02929-3.47608-8.95312-9.2168l5.293-3.73975A87.19922,87.19922,0,0,1,736.39746,113.32959Z"/><path class="cls-3" d="M755.01562,106.85156q-3.34424,12.08716-3.34472,20.356a81.90762,81.90762,0,0,0,2.95019,21.98926l-7.26855,1.65869a85.587,85.587,0,0,1-2.84375-21.51465,96.40669,96.40669,0,0,1,3.10742-23.5166Zm34.02344,42.05518q-6.45264.60571-11.03418.606-11.56054,0-15.77343-2.67286a8.51857,8.51857,0,0,1-4.21387-7.624q0-5.71362,5.39844-11.271l5.82031,3.10743q-4.24072,3.95068-4.24024,7.92675a3.311,3.311,0,0,0,2.21192,2.96241q2.21192,1.0935,9.165,1.09326,3.52734,0,12.40332-.76367Zm-.5791-32.99658-2.21191-.02588q-3.45117-.05274-11.45508.13134-8.00684.18458-15.51074.71094v-6.42529q17.80077-.86938,24.64843-.86914,2.7378,0,4.5293.1582Z"/></g><g class="cls-2"><path class="cls-4" d="M829.40918,118.543l-4.47754,8.29541q-7.30663-3.19263-12.03125-4.80615-4.72411-1.61207-15.71777-4.707l3.75293-7.76856A124.18555,124.18555,0,0,1,813.46,112.76611Q819.10546,114.56055,829.40918,118.543Zm29.46094-2.56738a59.769,59.769,0,0,1-22.335,23.83252q-13.97315,8.26245-33.55957,10.07275l-2.17188-8.82227q16.853-1.74389,28.9834-8.19629,12.13036-6.45117,20.85351-21.06738Zm-23.0752-13.562-4.6416,8.2295q-3.5874-1.6128-7.40625-3.19287-3.81885-1.58058-6.22168-2.33741L803.7002,100.669l3.85156-7.604Q818.05176,95.40284,835.79492,102.41357Z"/><path class="cls-4" d="M921.61035,95.896q0,16.75562-5.11816,28.50634A37.41755,37.41755,0,0,1,899.918,142.54q-11.45508,6.38672-27.65039,7.83447l-2.63379-8.78906q13.8252-1.415,23.1084-6.30371,9.2827-4.88819,13.167-12.11377,3.88331-7.22461,4.9375-18.7793H869.23926V95.896Z"/><path class="cls-4" d="M992.35059,125.55469l-6.22168,7.80127A122.73906,122.73906,0,0,0,957.0625,118.6748v32.09473H946.69434V91.38623h10.46777v17.57813A168.30014,168.30014,0,0,1,992.35059,125.55469Z"/></g><g class="cls-2"><path class="cls-3" d="M1046.29688,128.8667q-3.42334,12.00805-9.48047,17.32764t-15.56348,5.31982a21.97548,21.97548,0,0,1-7.18945-1.06689,13.9507,13.9507,0,0,1-5.0293-2.88331,13.63224,13.63224,0,0,1-3.00195-3.96337,14.5504,14.5504,0,0,1-1.37012-4.55567,63.50953,63.50953,0,0,1-.31543-7.46582q0-5.52978,1.13184-25.9126h7.874q-1.0796,18.197-1.0791,25.30713a52.01778,52.01778,0,0,0,.30273,7.34717,7.41374,7.41374,0,0,0,1.35645,2.98877,6.64459,6.64459,0,0,0,3.041,2.21191,13.38834,13.38834,0,0,0,4.8584.77686,14.30511,14.30511,0,0,0,10.63965-4.34473q4.26563-4.34546,6.76758-13.74658Z"/><path class="cls-3" d="M1094.83105,144.11426l-.36914,7.10986q-2.86962.07911-3.81836.0791-9.7163,0-15.1416-2.72558a18.39413,18.39413,0,0,1-7.76855-6.5835,16.566,16.566,0,0,1-2.34375-8.78223q0-9.63867,9.50586-17.749l-23.41016.23682V108.958h46.95313v6.79443h-12.08692a25.84766,25.84766,0,0,0-9.40136,7.3999,15.57873,15.57873,0,0,0-3.68653,9.74366q0,11.376,17.30078,11.376Q1092.56544,144.272,1094.83105,144.11426Z"/><path class="cls-3" d="M1133.41016,133.60693a70.90746,70.90746,0,0,1-3.4375,8.17676,31.4242,31.4242,0,0,1-4.06836,6.6626,5.87551,5.87551,0,0,1-4.6084,2.146q-5.688,0-9.76953-7.01807a31.48434,31.48434,0,0,1-4.082-16.1294q0-2.97582.5791-8.82177.55371-5.87256.55371-8.7959h8.05762q-.07911,2.66016-.79,8.7168a76.88258,76.88258,0,0,0-.68457,8.74267,25.93944,25.93944,0,0,0,2.041,10.63916q2.04052,4.582,3.46289,4.582,2.05371,0,6.47852-12.03467Zm21.72558,9.74366-7.92676.5a50.41937,50.41937,0,0,0-2.84472-16.43213,44.60383,44.60383,0,0,0-7.74219-14.19434l6.37305-3.186Q1155.13575,123.54688,1155.13574,143.35059Z"/><path class="cls-3" d="M1201.03613,147.6167l-6.0039,5.55615-7.61133-6.42529q-3.47607-2.94873-6.68848-5.24024l-6.05664-4.13476q-5.81982-4.00269-7.21582-5.21387a7.27509,7.27509,0,0,1-1.94824-2.44922,6.76416,6.76416,0,0,1-.55371-2.7915q0-3.60718,4.02929-6.32031,1.42237-.92139,6.32032-4.22657,4.89843-3.30394,7.86035-5.62207,2.96337-2.31738,8.57226-7.084l6.21485,4.89795a231.47522,231.47522,0,0,1-20.43555,14.8789q-.97411.60645-2.76465,1.79053a21.7971,21.7971,0,0,0-1.84375,1.27735.64516.64516,0,0,0-.05273.30273q0,.29.13183.36865l4.76661,3.18653q9.03222,6.03075,13.69336,9.4541T1201.03613,147.6167Z"/></g><g class="cls-2"><path class="cls-3" d="M1249.12793,95.23779l-9.41406,19.32227h-6.94532l5.36524-19.32227Zm16.22852,0-9.41407,19.32227h-6.94629l5.36621-19.32227Z"/></g></g><g id="情報は常に進化していき_コロナ禍の情勢から_数多の副業案件が登場しました_" data-name="情報は常に進化していき コロナ禍の情勢から 数多の副業案件が登場しました " class="cls-2"><g class="cls-2"><path class="cls-3" d="M480.48535,230.0166q-.30468,6.69141-1.00879,8.80664l-2.64062-.56689a32.19906,32.19906,0,0,0,.96777-8.32276Zm4.17578,20.41992h-3.457V225.28809h3.457Zm3.01367-17.97314-1.92187.52539-1.00879-4.38232,1.82422-.5254Zm16.23047,3.166H486.7207v-2.37793h6.7334v-1.07812h-5.62695v-2.21191h5.62695v-1.03711h-6.22168v-2.18457h6.22168v-1.45166h3.8291v1.45166h6.374v2.18457h-6.374v1.03711h5.627v2.21191h-5.627v1.07812h6.62207ZM498.9834,245.169l-7.2168.02783v5.10156h-3.66308V236.76318H502.7168v10.8667a2.23087,2.23087,0,0,1-.91211,1.85254,3.244,3.244,0,0,1-2.03321.70508h-3.48339l-.27637-3.23486h2.14258a.87623.87623,0,0,0,.5664-.21436.62159.62159,0,0,0,.2627-.49072Zm0-5.08741v-1.23047h-7.2168v1.23047Zm-7.2168,3.166h7.2168v-1.32764h-7.2168Z"/><path class="cls-3" d="M514.30273,250.40918h-3.70507v-5.35059h-4.36914v-3h4.36914v-1.53466h-4.77051v-3h2.57226l-.73339-2.71h-1.68653v-2.94482h4.70117v-1.5625h-3.96875v-2.77881h3.96875v-2.0874h3.70508v2.0874h3.88477v2.77881h-3.88477v1.5625h4.32715V234.814h-1.42383l-.85742,2.71h2.43359v3h-4.5625v1.53466h4.05079v3h-4.05079Zm-2.57226-12.88525h1.35547l.78808-2.71h-2.793Zm11.1709,12.58105H519.4873V225.7998H531.169v5.94483a2.27835,2.27835,0,0,1-.86329,1.79053,2.96288,2.96288,0,0,1-1.98437.73974h-3.042l-.38672-2.86181h2.24023q.73242,0,.73242-.64991v-2.26757h-4.96386V235.353H532.082a17.62405,17.62405,0,0,1-2.40625,9.415,16.05927,16.05927,0,0,0,3.11133,2.47509l-2.06055,2.6543a20.59252,20.59252,0,0,1-3.05468-2.58545,16.80573,16.80573,0,0,1-3.66407,2.55762l-1.10644-1.85254Zm0-12.06982v9.042a13.44219,13.44219,0,0,0,2.80664-2.29492,16.55354,16.55354,0,0,1-2.25293-6.74707Zm4.70117,3.77441a13.72971,13.72971,0,0,0,.94043-3.77441h-2.15723A14.73543,14.73543,0,0,0,527.60254,241.80957Z"/><path class="cls-3" d="M540.958,226.87793a40.89173,40.89173,0,0,0-1.70117,10.65967,43.32221,43.32221,0,0,0,1.59082,11.62695l-3.88575.78809a45.33847,45.33847,0,0,1-1.5205-11.4336,49.94427,49.94427,0,0,1,1.61816-12.18017Zm20.53027,18.91357-2.23926,3.166a26.22635,26.22635,0,0,0-3.99609-3.09717,4.1426,4.1426,0,0,1-1.458,3.11084q-1.32129,1.0642-4.90137,1.06445a7.35147,7.35147,0,0,1-4.35449-1.251,3.944,3.944,0,0,1-1.77051-3.39453,4.18309,4.18309,0,0,1,1.78418-3.49073,6.7934,6.7934,0,0,1,4.2168-1.34814,23.46235,23.46235,0,0,1,2.55762.166V234.5376h-8.97266v-3.42871h8.97266v-5.01856h3.9541v5.01856h5.15625v3.42871h-5.15625v7.36865A26.74757,26.74757,0,0,1,561.48828,245.7915Zm-10.16113-.78808v-.96778a6.98476,6.98476,0,0,0-2.55762-.42871,2.95717,2.95717,0,0,0-1.61133.44922,1.34179,1.34179,0,0,0-.71191,1.16846,1.24651,1.24651,0,0,0,.7334,1.12646,3.46522,3.46522,0,0,0,1.71386.40821Q551.32666,246.75928,551.32715,245.00342Z"/><path class="cls-3" d="M566.78418,229.00732l-1.25879-2.75146,3.56738-.64941,1.53418,3.40087h3.13867v-3.80224h3.81543v3.80224h3.166l1.75586-3.40087,3.74707.70507-1.61816,2.6958h3.99609v5.57178h-3.23535v-2.8623H566.06445v2.8623h-3.23437v-5.57178Zm17.90332,10.438h-7.07812V240.897h9.74609v5.83448a2.11667,2.11667,0,0,1-.86328,1.71435,3.10674,3.10674,0,0,1-1.99805.69141h-3.74707l-.41406-3.20752H582.794q.81444,0,.81543-.67774v-1.60351h-6v6.78808h-3.9961v-6.78808h-5.71v5.51611h-3.88477V240.897h9.59473v-1.45166h-6.87109v-6.3042H584.6875Zm-3.62207-2.19824v-1.96289H570.28125v1.96289Z"/><path class="cls-3" d="M598.05664,226.87793a41.37835,41.37835,0,0,0-1.75586,10.687,43.01465,43.01465,0,0,0,1.54785,11.54444l-3.81543.87109A44.961,44.961,0,0,1,592.54,238.68506a50.615,50.615,0,0,1,1.63184-12.34619ZM615.919,248.95752q-3.38819.31787-5.793.31787-6.07032,0-8.28125-1.40332a4.47264,4.47264,0,0,1-2.21192-4.00244,8.56858,8.56858,0,0,1,2.834-5.91748l3.05566,1.63135a5.839,5.839,0,0,0-2.22656,4.16162,1.73894,1.73894,0,0,0,1.16113,1.55517,12.8617,12.8617,0,0,0,4.81152.57373q1.853,0,6.51172-.40088Zm-.30469-17.32324-1.16114-.01416q-1.81055-.02711-6.01367.06933-4.20409.09669-8.14355.37305v-3.37305q9.34571-.4563,12.94043-.45654,1.43847,0,2.37793.083Z"/><path class="cls-3" d="M646.15527,246.89746l-.62207,3.13818q-.22264-.01391-.58105-.01367l-8.64063.083a45.731,45.731,0,0,1-8.80664-.59473,6.0881,6.0881,0,0,1-3.208-2.18457,18.57449,18.57449,0,0,1-4.4375,3.19385l-1.27247-3.3042a12.4395,12.4395,0,0,0,3.67774-2.18457v-6.9956h-3v-3h6.59473v9.18017a1.95253,1.95253,0,0,0,.76074,1.56885,4.63444,4.63444,0,0,0,1.83105.90576,12.5662,12.5662,0,0,0,2.52344.3457q1.45165.06885,5.12891.06885Q643.84667,247.10449,646.15527,246.89746Zm-19.8125-15.74707-3.5664,1.67285a30.93835,30.93835,0,0,0-1.58985-2.82031q-1.23046-2.01855-1.89453-2.91748l3.249-1.562A50.21363,50.21363,0,0,1,626.34277,231.15039Zm2.08789,14.61328V235.22852q-.40135.52587-.89843,1.07861l-2.32325-1.83887a26.99449,26.99449,0,0,0,5.46192-9.29053l3.62207.59424a23.78961,23.78961,0,0,1-1.54883,3.53955h3.01367q.99611-2.26758,1.47949-3.73291l3.67774.67725a32.40119,32.40119,0,0,1-1.57617,3.05566h5.29492v2.86182h-5.64063v1.811h5.01856V236.625h-5.01856v1.728h5.10157v2.68213h-5.10157V242.957h5.86231v2.80664Zm3.69141-13.59033v1.811h3.249v-1.811Zm0,4.45166v1.728h3.249v-1.728Zm0,4.41016V242.957h3.249v-1.92187Z"/><path class="cls-3" d="M654.98926,250.43652h-3.84375V238.79541q-.78808,1.16161-1.93555,2.55811l-2.46094-2.21241a40.0377,40.0377,0,0,0,3.47071-5.64746,38.43644,38.43644,0,0,0,3.38672-8.4541l3.87109.67725a36.7302,36.7302,0,0,1-3.083,7.53466h.59473Zm18.94043-3.67724a2.80444,2.80444,0,0,1-.8086,2.05957,3.52569,3.52569,0,0,1-1.92187,1.01611,28.77909,28.77909,0,0,1-4.23731.20068,34.44443,34.44443,0,0,1-5.16308-.228,2.75021,2.75021,0,0,1-1.708-1.00928,3.37261,3.37261,0,0,1-.59473-2.09473V225.52344h3.81641v7.811a43.56315,43.56315,0,0,0,7.93555-5.18457l2.76465,3.00049a54.6237,54.6237,0,0,1-10.7002,6.22119v8.11572a.75561.75561,0,0,0,.49707.81543,15.81715,15.81715,0,0,0,3.15234.166q.249,0,2.29493-.083a.8564.8564,0,0,0,.90625-.66357,37.63351,37.63351,0,0,0,.31054-4.39649l3.45606.53907Z"/><path class="cls-3" d="M701.42969,238.436q-1.79883,6.30468-4.97852,9.09716a11.92436,11.92436,0,0,1-8.16992,2.793,11.54254,11.54254,0,0,1-3.77441-.56006,7.32517,7.32517,0,0,1-2.64063-1.51416,7.13975,7.13975,0,0,1-1.57617-2.08056,7.62709,7.62709,0,0,1-.71875-2.3916,33.07474,33.07474,0,0,1-.166-3.91944q0-2.90333.59473-13.60449h4.13379q-.56836,9.55371-.56738,13.28613a27.24106,27.24106,0,0,0,.15918,3.85742,3.89219,3.89219,0,0,0,.71191,1.56934,3.48422,3.48422,0,0,0,1.59668,1.16113,7.02942,7.02942,0,0,0,2.55078.40821,7.5112,7.5112,0,0,0,5.58594-2.28125q2.23974-2.2815,3.55371-7.2168Z"/><path class="cls-3" d="M726.90918,246.44092l-.19336,3.73291q-1.50732.04174-2.00488.0415a18.023,18.023,0,0,1-7.9502-1.43066,9.66013,9.66013,0,0,1-4.07812-3.45655,8.70224,8.70224,0,0,1-1.23047-4.61083q0-5.06031,4.99121-9.31836l-12.291.12451v-3.53906h24.65039v3.56689H722.457a13.56689,13.56689,0,0,0-4.93555,3.88477,8.18156,8.18156,0,0,0-1.93554,5.11523q0,5.97289,9.083,5.97266Q725.71924,246.52393,726.90918,246.44092Z"/><path class="cls-3" d="M747.16309,240.9248a37.17484,37.17484,0,0,1-1.80371,4.29249,16.525,16.525,0,0,1-2.13672,3.498,3.08559,3.08559,0,0,1-2.41895,1.127q-2.98682,0-5.12988-3.68458a16.53061,16.53061,0,0,1-2.14258-8.46826q0-1.56225.30469-4.63134.29-3.08277.29-4.61768h4.23047q-.041,1.39673-.415,4.57617a40.526,40.526,0,0,0-.35938,4.58985,13.62175,13.62175,0,0,0,1.07129,5.58544q1.07226,2.406,1.81836,2.40577,1.07813,0,3.40137-6.31836ZM758.56934,246.04l-4.16211.26269a26.45742,26.45742,0,0,0-1.49317-8.62695,23.40275,23.40275,0,0,0-4.06445-7.45166l3.3457-1.67285A25.20847,25.20847,0,0,1,758.56934,246.04Z"/><path class="cls-3" d="M783.17871,241.76807l-2.53027,2.37793a13.17018,13.17018,0,0,0-7.16211-2.32276,27.64262,27.64262,0,0,0-3.64942.187,4.42468,4.42468,0,0,0-2.14941.82911,2.08692,2.08692,0,0,0-.82324,1.73535q0,2.36425,5.959,2.36425l1.46582-.01416h.30371q.69141,0,1.98438-.07568,1.292-.07617,6.03418-.68457l.13867,3.59473a77.98825,77.98825,0,0,1-8.19824.51123,31.48478,31.48478,0,0,1-6.81641-.55957,7.1634,7.1634,0,0,1-3.60156-1.84571,4.54968,4.54968,0,0,1-1.23731-3.29052,4.77239,4.77239,0,0,1,2.55762-4.36866,13.75544,13.75544,0,0,1,6.94043-1.49316,22.35853,22.35853,0,0,1,4.38281.40088q-.457-.76026-1.10644-2.01856H762.05273V233.874h12.11133q-.35889-.82983-.78808-2.15722H763.10352v-3.19336h9.457q-.22119-1.106-.51172-2.66846l4.05078-.3042q.2622,1.81128.51172,2.97266h7.89453v3.19336h-7.00977q.26221.73315.82911,2.15722H785.833v3.22119h-5.88965A26.0235,26.0235,0,0,0,783.17871,241.76807Z"/><path class="cls-3" d="M798.082,248.252l-3.37305,2.26758a56.598,56.598,0,0,0-5.18457-6.96777l2.97266-2.1294A67.63138,67.63138,0,0,1,798.082,248.252Z"/></g><g class="cls-2"><path class="cls-5" d="M840.99609,249.24756H818.93066v-3.70508H836.627V231.88281l-17.46093-.02734v-3.6499h21.83007Z"/><path class="cls-5" d="M870.043,249.49658H847.64648v-21.084H870.043Zm-4.29883-3.53955V231.88281H851.835V245.957Z"/><path class="cls-5" d="M890.20117,237.2334q0,5.47485-2.93847,8.66162a16.95587,16.95587,0,0,1-8.64747,4.59668l-1.4375-3.51123q4.72852-1.16163,6.73926-3.51172a8.06765,8.06765,0,0,0,2.01172-5.40576v-2.18457H874.31543v-3.67774h11.61328v-6.56689h4.27246v6.56689h9.91211v3.67774h-9.91211Z"/><path class="cls-5" d="M908.46387,250.40918h-3.207V241.312a18.93616,18.93616,0,0,1-2.19825,1.93555l-1.47949-2.4336a19.68,19.68,0,0,0,6.083-8.97265h-5.11523v-2.72363h2.76562v-3.64991h3.23438v3.64991h2.37792l.67774.70507a21.943,21.943,0,0,1-3.124,7.34131,31.15312,31.15312,0,0,0,2.668,2.68213l-1.5205,3.00049q-.73389-.73315-1.16211-1.189Zm19.67383-2.8623a2.57567,2.57567,0,0,1-.78125,1.9497,2.70137,2.70137,0,0,1-1.94239.74658h-3l-.44238-3.18017h2.00488a.70864.70864,0,0,0,.81543-.7876v-8.75146H914.6582v12.91259h-3.40136V234.71729H912.792v-8.97266H926.7002v8.97266h1.4375Zm-4.86622-1.3545h-4.70117v1.05078H916.082v-8.26757h7.18945Zm-7.0791-11.47509h1.97754v-4.54883h4.99121v-1.78321h-6.96875Zm4.61817,9.0415v-2.43311h-2.12891v2.43311Zm.13769-9.0415h2.21289v-2.11524h-2.21289Z"/><path class="cls-5" d="M943.09668,250.11865l-1.02246-3.45654q5.4873-.6079,8.2539-2.52979a6.529,6.529,0,0,0,2.76465-5.73779,6.80514,6.80514,0,0,0-1.99121-5.12207,8.848,8.848,0,0,0-5.51562-2.26074q-.29151,7.74243-2.89649,12.54687-2.606,4.804-6.56054,4.8042a4.79611,4.79611,0,0,1-4.16114-2.42627,9.8944,9.8944,0,0,1-1.58984-5.55078V240.04a11.4127,11.4127,0,0,1,3.84961-8.46826,14.53371,14.53371,0,0,1,9.71289-3.96094h.56641a14.40537,14.40537,0,0,1,9.20117,2.84131,9.31126,9.31126,0,0,1,3.60156,7.72119,10.32093,10.32093,0,0,1-3.62891,8.37842Q950.05078,249.57959,943.09668,250.11865Zm-1.39648-18.70556a9.81032,9.81032,0,0,0-5.28809,3.26269,8.36939,8.36939,0,0,0-2.17676,5.58545,7.64381,7.64381,0,0,0,.53906,2.90332q.53907,1.32716,1.50684,1.32715,1.9497,0,3.53906-3.78809A27.88872,27.88872,0,0,0,941.7002,231.41309Z"/><path class="cls-5" d="M961.83008,230.0166q-.30322,6.69141-1.00879,8.80664l-2.64063-.56689a32.15588,32.15588,0,0,0,.96778-8.32276Zm4.17578,20.41992H962.5498V225.28809h3.45606Zm3.01367-17.97314-1.92187.52539-1.00879-4.38232,1.82519-.5254Zm16.23145,3.166H968.06543v-2.37793h6.7334v-1.07812h-5.62695v-2.21191h5.62695v-1.03711h-6.22168v-2.18457h6.22168v-1.45166h3.8291v1.45166h6.374v2.18457h-6.374v1.03711h5.62695v2.21191h-5.62695v1.07812H985.251ZM980.3291,245.169l-7.2168.02783v5.10156h-3.66406V236.76318h14.61328v10.8667a2.2283,2.2283,0,0,1-.91211,1.85254,3.24321,3.24321,0,0,1-2.03222.70508h-3.48438l-.27636-3.23486H979.499a.88069.88069,0,0,0,.56739-.21436.62438.62438,0,0,0,.26269-.49072Zm0-5.08741v-1.23047h-7.2168v1.23047Zm-7.2168,3.166h7.2168v-1.32764h-7.2168Z"/><path class="cls-5" d="M993.43555,231.15039a5.36775,5.36775,0,0,1-2.03223,3.02051,8.40514,8.40514,0,0,1-3.457,1.51416l-1.10547-1.92188a7.59828,7.59828,0,0,0,2.34277-1.08545,3.42918,3.42918,0,0,0,1.36231-1.52734h-3v-1.92187h5.0459v-.95411h-4.23047V226.394h4.23047v-1.06445h3.332V226.394h4.16113v1.88037h-4.16113v.95411h4.72851v1.92187h-3.62207v1.1333q0,.37353.42871.37354h1.13282a.39093.39093,0,0,0,.42871-.37354l.02832-.78808,2.05957.22119v1.02343q0,1.78346-1.94922,1.78321h-3.05566a1.47875,1.47875,0,0,1-1.7002-1.645v-1.728Zm7.12011,13.88037q-2.33641,4.88087-12.76074,5.4336l-.7334-2.88965q6.6504-.41456,9.09766-2.544h-7.47949v-2.72363h8.72363v-1.4375h3.84375v1.4375H1012.127q.05566,5.14307-1.13379,6.56738-1.188,1.42383-4.18847,1.42383h-4.24414l-.40137-3.083h3.62207a3.01732,3.01732,0,0,0,1.77637-.394q.51855-.394.51855-1.79053Zm-.74707-4.78369q-5.25292.85767-11.94531,1.46582l-.51074-2.46094q1.82373-.09667,5.23926-.37353V237.731h-4.5625V235.7124h4.5625v-1.1333h3.249v1.1333h3.80176V237.731h-3.80176v.85742q2.751-.27686,3.96777-.47022Zm8.35059-3.45605-1.5625,2.1289a18.72194,18.72194,0,0,0-1.46484-1.25781,12.20292,12.20292,0,0,1-3.208,3.40088l-2.05957-1.894a13.56173,13.56173,0,0,0,2.751-3.34571l-2.01855-1.38281,1.75586-2.23975q.457.27686,1.2998.81592a9.46949,9.46949,0,0,0,.17969-1.83887v-.13818h-2.32226v-2.40576h2.32226v-3.37305h3.3877v3.37305h4.02246q0,.498-.083,2.69629-.05566,1.81128-.05469,2.88916a24.20343,24.20343,0,0,0,.124,2.69629,5.24428,5.24428,0,0,0,.26953,1.36865q.145.29.31152.29a.2364.2364,0,0,0,.18652-.07568,4.55815,4.55815,0,0,0,.2002-1.39649q.09668-1.30663.09668-1.8457v-.22119l2.10156.40088a30.66206,30.66206,0,0,1-.15234,3.72607,2.58066,2.58066,0,0,1-.78125,1.63135,2.45353,2.45353,0,0,1-1.69336.56006,3.76459,3.76459,0,0,1-2.16309-.85059Q1008.43556,239.6526,1008.15918,236.791Zm-1.72754-1.90821q1.13232.78808,1.68652,1.2583-.05566-1.2854-.05566-3,0-.98144.01367-2.10156h-1.05078v.13818a14.14326,14.14326,0,0,1-.13769,1.59717A12.3951,12.3951,0,0,1,1006.43164,234.88281Z"/></g><g class="cls-2"><path class="cls-3" d="M1025.60742,228.938q0,.87157-.06933,2.10156h3.8291a4.9778,4.9778,0,0,1,3.8164,1.55518,5.61346,5.61346,0,0,1,1.45118,3.98877,28.57292,28.57292,0,0,1-1.42383,9.89892q-1.42383,3.77418-4.8252,3.77442-2.07275,0-5.668-2.06006l1.27149-3.34571a13.69854,13.69854,0,0,0,2.33008,1.01612,7.55535,7.55535,0,0,0,1.61035.43554,1.24625,1.24625,0,0,0,.93359-.41455,4.93206,4.93206,0,0,0,.82227-1.67285,15.11729,15.11729,0,0,0,.64257-2.88281,28.64387,28.64387,0,0,0,.21485-3.72607,7.45322,7.45322,0,0,0-.17969-1.97706,1.56091,1.56091,0,0,0-.59473-.85009,1.822,1.822,0,0,0-1.05078-.28321h-3.45605a28.76023,28.76023,0,0,1-7.27246,16.18946l-3-2.22608a28.56945,28.56945,0,0,0,3.5664-5.46093,27.0073,27.0073,0,0,0,2.50293-8.50245h-5.00488v-3.45654h5.50293V225.7168h4.05078Zm17.21192,11.53027-3.96778,1.02344a43.70051,43.70051,0,0,0-1.93554-5.71,30.4643,30.4643,0,0,0-1.96973-3.55322,20.48831,20.48831,0,0,0-1.98438-2.72364l3.166-1.97705a29.22348,29.22348,0,0,1,4.25879,6.19385A24.54231,24.54231,0,0,1,1042.81934,240.46826Z"/><path class="cls-3" d="M1050.54785,250.46436l-.5664-3.51172a41.14314,41.14314,0,0,0,10.98437-1.1128q3.76611-1.11327,3.76758-3.64306a3.31521,3.31521,0,0,0-1.3418-2.84131,6.10669,6.10669,0,0,0-3.6914-.98828,14.65339,14.65339,0,0,0-6.19336,1.42383,13.63225,13.63225,0,0,0-4.97754,3.76074l-3.02735-1.78369a32.84473,32.84473,0,0,0,2.35059-11.72412l4.07812.23535a30.12157,30.12157,0,0,1-1.21679,7.2998,16.01409,16.01409,0,0,1,4.26562-1.78369,17.68663,17.68663,0,0,1,4.67969-.70508,11.08729,11.08729,0,0,1,6.76758,1.8252,6.19055,6.19055,0,0,1,2.44043,5.28125,6.37706,6.37706,0,0,1-1.59082,4.38232,9.94076,9.94076,0,0,1-4.89356,2.72363Q1059.07813,250.22925,1050.54785,250.46436Zm16.36914-21.63672-1.81054,3.51172a36.65451,36.65451,0,0,0-7.31348-2.06006q-4.43848-.843-7.41113-1.106l1.06543-3.31836A80.30044,80.30044,0,0,1,1066.917,228.82764Z"/></g><g class="cls-2"><path class="cls-3" d="M576.26758,283.90771a10.36326,10.36326,0,0,1-2.33594,4.54883q1.09131.56689,1.67285.9126l-1.99121,2.72363q-.96827-.65038-2.47461-1.50732a20.80543,20.80543,0,0,1-7.96289,2.15674l-.83008-2.668a19.97125,19.97125,0,0,0,5.58594-1.16162,21.81049,21.81049,0,0,0-3.42871-1.41016.5004.5004,0,0,1-.40137-.25586.93028.93028,0,0,1-.17968-.5459.71626.71626,0,0,1,.041-.249,20.90465,20.90465,0,0,0,1.28613-2.54395h-2.76464v-2.64062h3.85742q.58008-1.49268.75976-2.11523l1.50684.20752v-2.47461a24.19622,24.19622,0,0,1-5.40528,2.917l-1.27246-2.48828a21.40991,21.40991,0,0,0,5.30957-2.94483h-4.41015V271.7832h1.81054l-1.16113-2.57177,2.7793-.70508,1.61719,3.27685h.73242v-3.9541h3.374v3.9541h.85645l1.49316-3.249,2.94531.59424-1.39648,2.65478H577.415v2.58545h-4.25781a22.61161,22.61161,0,0,0,3.3457,1.65869l-1.52051,2.58545a16.66373,16.66373,0,0,1-3-1.75586v3h-1.4248q-.23437.69141-.53907,1.41016h7.90821v2.64062Zm-5.3086,3.0835a6.92511,6.92511,0,0,0,1.75586-3.0835h-3.84375q-.55224,1.23121-.91211,1.89454A22.544,22.544,0,0,1,570.959,286.99121Zm16.8252-12.291a23.78793,23.78793,0,0,1-2.834,10.18945,22.77987,22.77987,0,0,0,4.72851,4.93555l-2.44726,2.71a28.71881,28.71881,0,0,1-4.42383-4.61768,23.42741,23.42741,0,0,1-5.90332,4.90772l-1.72852-2.77881a18.85391,18.85391,0,0,0,5.668-5.22608,24.1002,24.1002,0,0,1-2.05957-5.65429,8.29069,8.29069,0,0,1-.63574.93994l-2.26758-1.83887a25.12149,25.12149,0,0,0,2.35742-5.11523,29.41076,29.41076,0,0,0,1.34766-5.41944l3.58105.45606a26.6075,26.6075,0,0,1-.78808,3.56689h6.60839v2.94483Zm-5.01856,6.55322a19.83508,19.83508,0,0,0,1.43848-6.55322h-3.02832l-.124.23486A24.12883,24.12883,0,0,0,582.76562,281.25342Z"/><path class="cls-3" d="M599.66016,277.07812q-1.36816-.99536-2.37793-1.67285a53.33317,53.33317,0,0,1-4.92188,2.47461l-1.83789-2.751a38.379,38.379,0,0,0,5.12207-2.689A32.9446,32.9446,0,0,0,599.75,269.5708a25.16,25.16,0,0,0,2.63379-2.6543l3.77441.76026a16.35139,16.35139,0,0,1-.93945,1.34131h6.207l1.35547,1.54834a28.17729,28.17729,0,0,1-8.66895,7.77685,48.35971,48.35971,0,0,1-12.208,5.3711l-1.32715-2.94483A52.91084,52.91084,0,0,0,599.66016,277.07812Zm18.38769,3.05567q-6.1377,11.11524-24.38769,12.85742l-.92578-3.22119a40.4921,40.4921,0,0,0,12.15234-3.02783q-.67822-.47022-2.72363-1.85254a44.5967,44.5967,0,0,1-6.208,2.6958l-1.46485-2.834a42.21359,42.21359,0,0,0,8.02539-3.96826,25.76358,25.76358,0,0,0,6.02051-4.894l3.56739.85742a11.96071,11.96071,0,0,1-1.14747,1.54834h5.61329Zm-17.751-6.59473q1.49267.96753,2.51562,1.68653a33.40327,33.40327,0,0,0,4.2998-3.332h-4.5625Q601.59619,272.65455,600.29688,273.53906Zm8.01855,11.39209a17.457,17.457,0,0,0,4.35449-3.71924h-4.71387q-1.12061.87086-2.54394,1.7837Z"/><path class="cls-3" d="M631.63867,292.59033l-1.02344-3.45654q5.48877-.6079,8.25391-2.52979a6.52747,6.52747,0,0,0,2.76563-5.73779,6.80515,6.80515,0,0,0-1.99122-5.12207,8.84843,8.84843,0,0,0-5.5166-2.26074q-.29,7.74243-2.89648,12.54687-2.606,4.804-6.55957,4.8042a4.795,4.795,0,0,1-4.16113-2.42627,9.895,9.895,0,0,1-1.59082-5.55078v-.3457a11.41378,11.41378,0,0,1,3.85058-8.46826,14.53371,14.53371,0,0,1,9.71289-3.96094h.56641a14.40535,14.40535,0,0,1,9.20117,2.84131,9.31126,9.31126,0,0,1,3.60156,7.72119,10.31874,10.31874,0,0,1-3.62988,8.37842Q638.59326,292.05127,631.63867,292.59033Zm-1.39648-18.70556a9.81036,9.81036,0,0,0-5.28809,3.26269,8.37049,8.37049,0,0,0-2.17773,5.58545,7.64366,7.64366,0,0,0,.53906,2.90332q.54053,1.32716,1.50781,1.32715,1.94824,0,3.53906-3.78809A27.88847,27.88847,0,0,0,630.24219,273.88477Z"/><path class="cls-3" d="M664.11426,271.50684H647.88379V268.7002h16.23047Zm-4.34082,20.2124h-7.86621v.85742h-3.56739v-12.291h15.125v12.291h-3.6914Zm3.042-12.65039H649.01758v-6.42871h13.79785Zm-8.61328,3.89892h-2.29492v1.83887h2.29492Zm-2.29492,6.09717h2.29492v-2.01855h-2.29492Zm7.34082-12.34619v-1.78369H652.6123v1.78369Zm.52539,8.08789v-1.83887h-2.28125v1.83887Zm-2.28125,4.2583h2.28125v-2.01855h-2.28125Zm10.46582-2.61328h-3.22168V269.64014H667.958Zm4.96387,3.45654a2.38545,2.38545,0,0,1-.8711,1.86621,2.94454,2.94454,0,0,1-1.99121.76075h-3.37305l-.457-3.27686h2.24024q1.02246,0,1.02343-.85693V267.93945h3.42872Z"/><path class="cls-3" d="M687.02246,288.166a32.15346,32.15346,0,0,1-10.79687,4.28613l-1.00977-2.76514a34.50505,34.50505,0,0,0,8.50293-3.06933h-7.57617v-2.627h10.87988v-1.29931h-9.42871v-2.46094h9.42871v-1.29981H677.165V276.29h5.1709l-.62207-1.58984h-5.19825v-2.6543h3.124l-1.39551-3.20752,3.30371-.81592,1.76953,4.02344h1.25879v-4.39649h3.34571v4.39649h2.10156v-4.39649h3.30371v4.39649h1.4248l1.75586-4.05078,3.45508.81543-1.69922,3.23535h3.332v2.6543h-5.35156L695.291,276.29h5.68164v2.64062h-10.2168v1.29981h9.51172v2.46094h-9.51172v1.29931h11.01953v2.627h-7.53613a36.75719,36.75719,0,0,0,8.48926,2.7788l-1.4375,3.083a29.95956,29.95956,0,0,1-10.53516-4.54834v4.94971h-3.7334Zm-1.74121-13.46582L685.917,276.29h5.7793l.8291-1.58984Z"/><path class="cls-3" d="M715.18555,288.67773A35.11167,35.11167,0,0,1,705.02441,292.77l-1.13379-2.834a36.35388,36.35388,0,0,0,7.70118-2.7793h-6.89942v-2.6543H715.1582v-1.75586H719.043v1.75586h10.99121v2.6543h-7.46582a31.89642,31.89642,0,0,0,8.33691,2.53027l-1.5625,3.083a29.25812,29.25812,0,0,1-10.32715-4.20313v4.39649h-3.83007Zm10.16211-11.8208a13.60466,13.60466,0,0,1-2.502,2.61328q4.79591,1.06422,6.249,1.49317l-2.07422,2.68213q-.47022-.1941-8.0459-2.10156-4.32861,1.79736-12.95508,1.99072l-.45605-2.6543a50.57176,50.57176,0,0,0,9.249-.70508q-2.21191-.35961-5.33594-.6084a.78679.78679,0,0,1-.58105-.85742.6559.6559,0,0,1,.09668-.35937q.40137-.63575.92676-1.49317H704.5127v-2.57129h6.89941q.75879-1.38281,1.34082-2.64062l3.71875.42822q-.31786.73315-1.16113,2.2124h14.77929v2.57129Zm4.1748-3.62207h-3.26269v-1.811H708.37012v1.92138h-3.17969v-4.16113h10.20312v-1.64551h3.84278v1.64551h10.28613Zm-10.81055,5.53028a9.35723,9.35723,0,0,0,2.37793-1.90821H713.79l-.66406,1.05078Q714.66113,278.115,718.71191,278.76514Z"/><path class="cls-3" d="M739.76758,293.019h-3.76074V280.894q-.78809,1.16163-2.0459,2.6958l-2.35059-2.17041a38.757,38.757,0,0,0,3.69141-5.88964,37.86566,37.86566,0,0,0,3.166-8.01856l3.81641.67725a35.12617,35.12617,0,0,1-3.15234,7.53466h.63574Zm12.42871-.3042h-3.99512v-8.72412H740.7627V280.645h7.43847v-5.26709h-3.02832a28.435,28.435,0,0,1-2.14258,3.91211l-3.01367-1.58984a21.02263,21.02263,0,0,0,1.96289-4.20948,33.05056,33.05056,0,0,0,1.41016-5.06738l3.7334.38721a31.06367,31.06367,0,0,1-.8711,3.40136h1.94922v-4.355h3.99512v4.355H758.169v3.166h-5.97266V280.645H759.082v3.3457h-6.88574Z"/><path class="cls-3" d="M770.376,271.40967q0,.89941-.06934,2.12939h3.55371a4.9195,4.9195,0,0,1,3.78809,1.53467,5.60174,5.60174,0,0,1,1.42383,3.96777,28.97051,28.97051,0,0,1-1.39649,9.84375q-1.396,3.78737-4.75586,3.78809a7.22948,7.22948,0,0,1-2.02539-.31787,18.77448,18.77448,0,0,1-3.51855-1.74219l1.27148-3.29053a9.39987,9.39987,0,0,0,3.77442,1.45166,1.24222,1.24222,0,0,0,.92675-.40087,5.0074,5.0074,0,0,0,.8291-1.71436,15.29934,15.29934,0,0,0,.65039-2.93115,29.02742,29.02742,0,0,0,.207-3.64991,7.33142,7.33142,0,0,0-.17969-1.96289,1.524,1.524,0,0,0-.59473-.84326,1.8547,1.8547,0,0,0-1.05078-.27685H770.0166q-1.3418,9.87158-6.98144,15.99609l-3.11133-1.94922a25.24581,25.24581,0,0,0,3.38086-5.48877,28.9709,28.9709,0,0,0,2.53711-8.5581h-5.03321v-3.45606h5.48926l.02735-5.35058H770.376Zm17.10254,11.93164-3.78907,1.06445a38.13039,38.13039,0,0,0-2.42578-6.42187,30.656,30.656,0,0,0-3.29785-5.09473l3.13867-1.83887Q786.33106,277.82519,787.47852,283.34131Zm-3.249-11.69629-2.00488.76025q-1.14845-2.84764-1.88086-4.24463l1.9082-.76025Q783.46925,269.73682,784.22949,271.645Zm3.78809-.3042-1.92188.73242q-.9126-2.26685-1.9082-4.24414l1.83887-.70508Q787.16016,269.29492,788.01758,271.34082Z"/><path class="cls-3" d="M795.89746,289.06494l-.98144-2.50244h-2.59864v-7.2583q-1.10742.53906-2.32324,1.03662L788.2666,277.479a23.633,23.633,0,0,0,4.02246-1.99072q-1.97607-1.60327-2.72363-2.17041l2.12988-2.18457h-1.18945v-2.94482H803.958a11.7332,11.7332,0,0,0,1.75586,2.25341,22.82448,22.82448,0,0,0,3.64941-2.82031l2.5166,2.1294a30.95532,30.95532,0,0,1-3.85742,2.82031q.62256.49731,1.24414.95361a31.35427,31.35427,0,0,0,3.85742-3.01367l2.47461,2.26709q-1.58936,1.2583-3.4834,2.5166a27.38823,27.38823,0,0,0,4.16114,1.75586l-2.23926,3.05518a22.77049,22.77049,0,0,1-2.12988-.93994v7.39648h-2.47461l-1.18848,2.50244h6.76074v3.27637H789.51074v-3.27637ZM792.1377,271.1333l3.11035,2.33643a21.50181,21.50181,0,0,0,2.61328-2.33643Zm.74609,7.88037h18.7334a36.37166,36.37166,0,0,1-3.58106-2.1289v.87109H796.56152v-.96777A34.42069,34.42069,0,0,1,792.88379,279.01367Zm15.208,4.75586v-2.0459H796.11914v2.0459Zm-9.23535-8.77881h6.66406a25.28945,25.28945,0,0,1-3.374-3.37353A22.96088,22.96088,0,0,1,798.85645,274.99072Zm.17968,11.57178.91211,2.50244h4.35547l1.02344-2.50244Z"/><path class="cls-3" d="M824.41992,286.46582q-2.39208.89868-7.06543,2.17041l-.69043-3.42871q1.45167-.27612,3.06836-.66357v-8.0879h-2.44629v-2.88964h2.44629V267.8291h3.65039v5.73731H825.415v2.88964h-2.03223v7.10645q1.20264-.35963,2.08789-.6499l.05469.89844a21.11876,21.11876,0,0,0,2.61328-2.84766h-2.61328v-2.69629h18.416v2.69629h-12.001q-.42774.7046-.78809,1.21631H843.167q0,3.42919-.042,4.72851a14.79271,14.79271,0,0,1-.39355,2.834,3.52433,3.52433,0,0,1-1.293,2.19824,4.1793,4.1793,0,0,1-2.46094.66357h-2.6543l-.42871-2.94482h1.89453a1.85352,1.85352,0,0,0,1.02246-.2832q.4424-.28346.64356-1.59668a20.61142,20.61142,0,0,0,.20019-3.05567h-.35937a19.22584,19.22584,0,0,1-7.42481,7.96338l-2.03222-1.894a22.2926,22.2926,0,0,0,5.918-6.06934H834.125a20.58727,20.58727,0,0,1-3.76074,4.28614,22.01724,22.01724,0,0,1-4.52051,3.22119l-1.81152-2.10157a24.08449,24.08449,0,0,0,6.42871-5.40576h-1.49317a20.56078,20.56078,0,0,1-3.55273,2.834Zm17.793-9.33252h-14.959v-9h14.959Zm-3.53906-5.40527v-1.29981h-7.90821V271.728Zm0,3.15185v-1.31347h-7.90821v1.31347Z"/><path class="cls-3" d="M871.31543,280.90771q-1.79736,6.30469-4.97754,9.09717a11.92865,11.92865,0,0,1-8.1709,2.793,11.54063,11.54063,0,0,1-3.77344-.56006,7.31685,7.31685,0,0,1-2.64062-1.51416,7.13975,7.13975,0,0,1-1.57617-2.08056,7.65446,7.65446,0,0,1-.71973-2.39161,33.341,33.341,0,0,1-.165-3.91943q0-2.90332.59375-13.60449h4.13379q-.56689,9.55371-.56641,13.28613a27.24268,27.24268,0,0,0,.15918,3.85742,3.89235,3.89235,0,0,0,.71192,1.56934,3.48422,3.48422,0,0,0,1.59668,1.16113,7.02576,7.02576,0,0,0,2.55078.40821,7.509,7.509,0,0,0,5.585-2.28125q2.23974-2.2815,3.55371-7.2168Z"/><path class="cls-3" d="M899.03516,288.53955l-2.05957,3.48389a29.85022,29.85022,0,0,0-7.28614-4.189l.13867.59424a3.40834,3.40834,0,0,1,.11036.81592,2.80373,2.80373,0,0,1-1.915,2.56445,12.80886,12.80886,0,0,1-5.26074.87793,9.46813,9.46813,0,0,1-5.06641-1.29931,4.00554,4.00554,0,0,1-2.1084-3.56739,4.32525,4.32525,0,0,1,1.93555-3.71191,7.94951,7.94951,0,0,1,4.72754-1.37549,20.65493,20.65493,0,0,1,3.51172.2627v-2.29493h-9.66407v-3.27685h9.66407V274.728H875.33887V271.4375H885.7627v-3h3.9541v3h9.77441V274.728H889.7168v2.6958H898.04v3.27685H889.7168v3.31787A51.689,51.689,0,0,1,899.03516,288.53955Zm-13.27246-.55322v-1.67285a12.99668,12.99668,0,0,0-2.93067-.46973,5.40555,5.40555,0,0,0-2.39844.49072,1.51228,1.51228,0,0,0-1.00293,1.37549q0,1.604,3.44239,1.60352Q885.76318,289.31348,885.7627,287.98633Z"/><path class="cls-3" d="M927.94434,280.90771q-1.79738,6.30469-4.97754,9.09717a11.92865,11.92865,0,0,1-8.1709,2.793,11.54063,11.54063,0,0,1-3.77344-.56006,7.31685,7.31685,0,0,1-2.64062-1.51416,7.14,7.14,0,0,1-1.57618-2.08056,7.65444,7.65444,0,0,1-.71972-2.39161,33.341,33.341,0,0,1-.165-3.91943q0-2.90332.59375-13.60449h4.13379q-.5669,9.55371-.56641,13.28613a27.24268,27.24268,0,0,0,.15918,3.85742,3.89232,3.89232,0,0,0,.71191,1.56934,3.48433,3.48433,0,0,0,1.59668,1.16113,7.02581,7.02581,0,0,0,2.55079.40821,7.509,7.509,0,0,0,5.585-2.28125q2.23974-2.2815,3.55371-7.2168Z"/><path class="cls-3" d="M940.62207,268.05029q.041.51123.042,1.76953,0,.94044-.05566,1.83887h9.13867v3.31787h-9.51172a39.25129,39.25129,0,0,1-2.29492,9.89942,30.34486,30.34486,0,0,1-4.2168,8.28125l-3.208-1.89405a30.42028,30.42028,0,0,0,3.70508-7.51416,40.845,40.845,0,0,0,2.10157-8.77246H931.4834v-3.31787h5.07422q.10986-2.22583.11035-3.6084Zm15.71973,23.77979a42.3347,42.3347,0,0,1-6.55371.45605,33.8633,33.8633,0,0,1-4.99707-.3247,6.06779,6.06779,0,0,1-3.38086-1.5,3.71849,3.71849,0,0,1-1.23047-2.7793,6.43359,6.43359,0,0,1,2.26758-4.39649l2.94433,1.38282a4.86549,4.86549,0,0,0-1.36816,2.68213.91193.91193,0,0,0,.498.80175,5.60333,5.60333,0,0,0,2.00391.47705,30.23927,30.23927,0,0,0,3.415.17286,35.66452,35.66452,0,0,0,6.208-.53907Zm-.73242-15.374-.19434,3.29053q-.78809-.04174-1.64453-.0415-4.6875,0-11.61328.63574l-.249-3.29a104.48459,104.48459,0,0,1,11.5166-.63623Q954.752,276.41455,955.60938,276.45605Z"/><path class="cls-3" d="M969.39258,288.3042a4.13242,4.13242,0,0,1-1.38184,3.13184,4.97656,4.97656,0,0,1-6.6914,0,4.23738,4.23738,0,0,1,0-6.26319,4.97656,4.97656,0,0,1,6.6914,0A4.13212,4.13212,0,0,1,969.39258,288.3042Zm-2.69531-.01367a2.0298,2.0298,0,1,0-.59473,1.42431A1.9426,1.9426,0,0,0,966.69727,288.29053Z"/></g></g><g id="好きなこと_得意なこと_趣味だけ_そんな自由の働き方を手に入れるためには_本業だけに縛られず_自分に合った副業を始める時代へとなってきました_" data-name="好きなこと 得意なこと 趣味だけ そんな自由の働き方を手に入れるためには 本業だけに縛られず 自分に合った副業を始める時代へとなってきました " class="cls-2"><g class="cls-2"><path class="cls-5" d="M473.83105,364.28418a31.21819,31.21819,0,0,1-3.13085,14.625,31.61055,31.61055,0,0,1,3.627,2.78711l-3.24512,3.99023a37.41508,37.41508,0,0,0-3.1123-2.749,26.82912,26.82912,0,0,1-7.40723,5.86133l-2.17676-3.47461a23.8689,23.8689,0,0,0,6.08985-5.041q-2.63379-1.92773-4.18067-2.86328a1.16965,1.16965,0,0,1-.57324-1.0498,2.39255,2.39255,0,0,1,.05762-.49707q.76319-3.16846,1.98535-10.99707h-2.51953v-3.875h3.11133q.70605-4.86915.8789-7.10254l5.11621.22851q-.09521,1.68018-.97363,6.874h6.45312Zm-6.89257,12.14258a26.79708,26.79708,0,0,0,2.1582-11.55078H466.71q-1.31837,7.25536-2.08105,10.00488Q465.41113,375.43457,466.93848,376.42676Zm20.21875,7.84668a3.60061,3.60061,0,0,1-1.31739,2.86426,4.5579,4.5579,0,0,1-3.05468,1.126h-6.10938l-.5918-4.96387h4.54395q1.25976,0,1.25977-.9541v-9.6416h-8.13282v-4.3916h8.13282v-5.63184h2.25292a28.012,28.012,0,0,0,3.64649-3.62793h-13.25v-4.29492h18.51953l2.23438,2.3291a45.42687,45.42687,0,0,1-8.13379,8.87793v2.34766h9.03125v4.3916h-9.03125Z"/><path class="cls-5" d="M529.16016,376.59863l-3.49414,3.28418a18.18351,18.18351,0,0,0-9.88965-3.208,38.18963,38.18963,0,0,0-5.04.25782,6.11578,6.11578,0,0,0-2.96875,1.1455,2.88127,2.88127,0,0,0-1.13672,2.39649q0,3.26514,8.22949,3.26465l2.02344-.01953h.41992q.95508,0,2.74024-.1045,1.78418-.10546,8.333-.94531l.19141,4.96387a107.70434,107.70434,0,0,1-11.32227.707,43.44311,43.44311,0,0,1-9.41211-.77344,9.889,9.889,0,0,1-4.97363-2.54883,6.28552,6.28552,0,0,1-1.709-4.54394,6.592,6.592,0,0,1,3.53222-6.0332q3.53175-2.0625,9.585-2.06153a30.89555,30.89555,0,0,1,6.05176.55371q-.62988-1.05028-1.52734-2.78808H499.9873v-4.44824h16.72461q-.49658-1.14552-1.08789-2.97852H501.43848v-4.41016h13.05859q-.30468-1.52783-.70605-3.68457l5.59375-.41992q.36327,2.50048.70605,4.10449h10.90234v4.41016h-9.67968q.36181,1.0122,1.1455,2.97852h10.36719v4.44824h-8.13379A35.967,35.967,0,0,0,529.16016,376.59863Z"/><path class="cls-5" d="M550.4668,354.98633q-.13331,3.05566-.43848,5.59375h8.32422v4.56347h-9.01172a43.7633,43.7633,0,0,1-8.64844,19.43555l-4.18164-3.0166q5.19288-6.37647,7.38867-16.41895h-5.87988v-4.56347h6.68164a53.993,53.993,0,0,0,.43945-5.76563Zm23.541,27.47363-2.82519,4.23828a45.38532,45.38532,0,0,0-6.377-4.60058,5.827,5.827,0,0,1-2.0625,4.90625q-2.061,1.604-6.79687,1.60351a11.18687,11.18687,0,0,1-6.33789-1.67969,5.30186,5.30186,0,0,1-2.52051-4.6582,5.8422,5.8422,0,0,1,2.67285-5.0498,11.14028,11.14028,0,0,1,6.5293-1.86231,23.37729,23.37729,0,0,1,3.24609.21v-9.9082h5.26953V377A47.78669,47.78669,0,0,1,574.00781,382.46Zm-14.47168-2.67285a15.63556,15.63556,0,0,0-3.24609-.32422,6.49672,6.49672,0,0,0-3.02539.6582,2.014,2.014,0,0,0-1.27051,1.82325q0,2.40674,4.44922,2.40625,3.09228,0,3.09277-2.23438Zm14.73926-13.19238-4.18164,3.16894a56.9993,56.9993,0,0,0-5.51758-5.53613,41.97968,41.97968,0,0,0-5.82324-4.56348l3.208-3.55078a38.18459,38.18459,0,0,1,6.30957,4.57227A54.20118,54.20118,0,0,1,574.27539,366.59473Z"/><path class="cls-5" d="M610.49316,386.77539a115.40624,115.40624,0,0,1-13.66992.916q-10.13819,0-13.97558-2.02344a6.43483,6.43483,0,0,1-3.83789-5.97656q0-4.98194,5.28906-8.99219l3.79883,2.84473q-3.627,3.45557-3.62793,5.67089a2.95783,2.95783,0,0,0,.22949,1.19239,2.65069,2.65069,0,0,0,1.11719,1.06054,9.59192,9.59192,0,0,0,3.23632.87793,44.12118,44.12118,0,0,0,5.95606.36231h1.39355a90.23679,90.23679,0,0,0,13.25-1.03028Zm-1.41308-24.24707a18.688,18.688,0,0,0-2.75879.71582q-1.51758.50536-2.49121.94434-.97413.43945-7.2168,3.49414l-2.34863-3.36035q.7251-.30469,4.42969-2.06153-5.65284.05714-16.97364.458l-.15234-4.73437q5.42139-.19189,20.65723-.19141,3.51268,0,5.0791.01953Z"/><path class="cls-5" d="M649.38379,387.71094q-6.03369.51416-11.6084.51465a66.89,66.89,0,0,1-10.80566-.55371,11.41294,11.41294,0,0,1-5.9375-2.85352,7.432,7.432,0,0,1-2.15723-5.56543q0-6.54931,9.584-11.18848-.61083-6.58593-.64941-13.28808h5.55566l-.01855,1.71875v.57226q0,4.23926.26758,8.80176,4.40918-1.66113,13.07812-4.124l1.60352,4.77343a99.42309,99.42309,0,0,0-17.89942,6.08008q-6.21385,3.04542-6.21386,6.52051,0,4.2378,9.33593,4.23828h1.7754a134.88117,134.88117,0,0,0,13.86132-.82129Z"/><path class="cls-5" d="M676.5332,372.22656a3.911,3.911,0,1,1-1.1455-2.76855A3.77185,3.77185,0,0,1,676.5332,372.22656Z"/><path class="cls-5" d="M702.99414,388.56934h-5.00195v-11.627a25.6797,25.6797,0,0,1-2.42383,2.5586l-2.86426-3.16993a37.32193,37.32193,0,0,0,5.38379-7.11132,38.42347,38.42347,0,0,0,3.60938-6.84473l4.35351,1.56543a29.69775,29.69775,0,0,1-3.58984,7.00684l.5332-.01856Zm2.12109-33.54493a26.70664,26.70664,0,0,1-3.83789,6.13868,35.6212,35.6212,0,0,1-5.32812,5.35546L692.91406,363.54a33.26426,33.26426,0,0,0,7.50391-9.88965Zm10.55665,29.44043-4.2754,2.76856-5.30859-6.43457,2.36719-1.45117h-4.00977v-3.79883H721.5332v-1.833H704.48438v-3.83789h26.0039v3.83789h-3.68555v1.833h3.16993v3.79883h-3.16993v5.23144a3.21983,3.21983,0,0,1-1.35546,2.70215,4.6844,4.6844,0,0,1-2.86329,1.02148h-5.40429l-.64844-4.69726h3.89453q1.10742,0,1.10742-.82031v-3.4375H711.05273Q713.64844,382.002,715.67188,384.46484Zm12.69726-16.2666H706.832V354.66211h21.53711ZM711.834,360.21777h11.30274V358.0791H711.834Zm11.30274,2.57715H711.834V364.876h11.30274Z"/><path class="cls-5" d="M740.11035,379.27148a28.24689,28.24689,0,0,1-3.24512,8.62989l-4.65918-1.39356a41.18474,41.18474,0,0,0,3.208-7.94238Zm.917-17.9082-1.22265-2.38672h-4.792V355.6543h13.30761v-2.042h5.19336v2.042h13.65039v3.32226h-4.81152l-1.5459,2.38672h7.59863v3.169H733.48535v-3.169Zm13.57422,19.85547-3.51269,2.11914a47.11518,47.11518,0,0,0-3.76172-5.002l1.45117-.74414H736.27344V366.251h28.92383V377.5918H751.60449Q753.2832,379.50049,754.60156,381.21875Zm5.88086,3.208a2.87489,2.87489,0,0,1-1.10742,2.2334,5.59265,5.59265,0,0,1-3.23633,1.13672q-2.12988.18016-5.31738.18066-2.38623,0-4.84961-.14258a7.67049,7.67049,0,0,1-3.2832-.66894,3.00285,3.00285,0,0,1-1.15528-1.24024,3.96715,3.96715,0,0,1-.334-1.69043v-5.78418h5.04v4.44824a1.03683,1.03683,0,0,0,.21972.69629.84717.84717,0,0,0,.582.2959q.36182.03956,1.97558.15332,1.61425.11426,2.18652.11426.53467,0,2.47266-.13379,1.93653-.13331,2.291-.77246a8.36775,8.36775,0,0,0,.35351-3.16016l4.16211.57227Zm-19.207-13.72754h18.88184V368.752H741.27539Zm18.88184,2.15723H741.27539v2.0625h18.88184Zm-14.87305-13.87989,1.20312,2.38672h9.04981l1.29785-2.38672Zm24.53418,27.20606-4.84961,1.64258a92.36151,92.36151,0,0,0-4.73535-8.51563l4.3916-1.6416a39.96618,39.96618,0,0,1,2.65332,3.98047Q769.01562,384.50342,769.81836,386.18262Z"/><path class="cls-5" d="M785.07227,354.98633q-.13331,3.05566-.43848,5.59375H792.958v4.56347h-9.01172a43.75392,43.75392,0,0,1-8.64941,19.43555l-4.18067-3.0166q5.19286-6.37647,7.38867-16.41895H772.624v-4.56347h6.68262a54.5056,54.5056,0,0,0,.43945-5.76563Zm23.541,27.47363-2.82617,4.23828a45.386,45.386,0,0,0-6.376-4.60058,5.827,5.827,0,0,1-2.0625,4.90625q-2.0625,1.604-6.79687,1.60351a11.19239,11.19239,0,0,1-6.33887-1.67969,5.30307,5.30307,0,0,1-2.51953-4.6582,5.84217,5.84217,0,0,1,2.67285-5.0498,11.13816,11.13816,0,0,1,6.5293-1.86231,23.37729,23.37729,0,0,1,3.24609.21v-9.9082h5.26953V377A47.78669,47.78669,0,0,1,808.61328,382.46Zm-14.47168-2.67285a15.63556,15.63556,0,0,0-3.24609-.32422,6.50368,6.50368,0,0,0-3.02637.6582,2.013,2.013,0,0,0-1.26953,1.82325q0,2.40674,4.44824,2.40625,3.09375,0,3.09375-2.23438Zm14.73926-13.19238-4.18164,3.16894a57.1109,57.1109,0,0,0-5.51758-5.53613,41.97968,41.97968,0,0,0-5.82324-4.56348l3.208-3.55078a38.18459,38.18459,0,0,1,6.30957,4.57227A54.28713,54.28713,0,0,1,808.88086,366.59473Z"/><path class="cls-5" d="M845.09766,386.77539a115.38006,115.38006,0,0,1-13.66993.916q-10.13671,0-13.97558-2.02344a6.43548,6.43548,0,0,1-3.83692-5.97656q0-4.98194,5.28809-8.99219l3.7998,2.84473q-3.62841,3.45557-3.62792,5.67089a2.94134,2.94134,0,0,0,.22949,1.19239,2.6387,2.6387,0,0,0,1.11719,1.06054,9.59187,9.59187,0,0,0,3.23535.87793,44.13687,44.13687,0,0,0,5.957.36231h1.39355a90.23679,90.23679,0,0,0,13.25-1.03028Zm-1.41211-24.24707a18.65693,18.65693,0,0,0-2.75879.71582q-1.51758.50536-2.49219.94434-.97266.43945-7.2168,3.49414l-2.34765-3.36035q.7251-.30469,4.42871-2.06153-5.65137.05714-16.97266.458l-.15234-4.73437q5.42139-.19189,20.65722-.19141,3.5127,0,5.07911.01953Z"/><path class="cls-5" d="M883.98828,387.71094q-6.03222.51416-11.60742.51465a66.89645,66.89645,0,0,1-10.80664-.55371,11.42042,11.42042,0,0,1-5.9375-2.85352,7.432,7.432,0,0,1-2.15723-5.56543q0-6.54931,9.584-11.18848-.61085-6.58593-.64942-13.28808h5.55664l-.01953,1.71875v.57226q0,4.23926.26758,8.80176,4.41064-1.66113,13.07813-4.124l1.60351,4.77343a99.38088,99.38088,0,0,0-17.89844,6.08008q-6.21533,3.04542-6.21484,6.52051,0,4.2378,9.33594,4.23828h1.77539a134.88151,134.88151,0,0,0,13.86133-.82129Z"/><path class="cls-5" d="M911.1377,372.22656a3.911,3.911,0,1,1-1.14551-2.76855A3.77186,3.77186,0,0,1,911.1377,372.22656Z"/><path class="cls-5" d="M933.72461,370.585q0,2.21484-.34375,7.25488.62988.668,1.20312,1.1836V368.59961h-5.86132V364.876h5.47949v-3.13086h-4.583v-3.62793h4.583v-4.02832h4.52441v4.02832h2.78711v-3.16895h13.8418v3.39844h-2.53906v24.877h-4.1045v-4.5625q-4.08544,1.16456-7.16015,1.73731l-1.14551-3.91406q.97411-.11427,2.31055-.34376V358.34668h-.70606v3.39844h-3.28418V364.876h3.45606v3.72363h-3.53223v2.9209h3.32227v3.72265h-3.32227v6.58692a17.11876,17.11876,0,0,0,3.33106,1.28906,19.05268,19.05268,0,0,0,3.68554.60059q1.95556.13476,8.40918.13379,8.57227,0,11.09278-.248l-.85938,4.10547q-1.83252.09521-7.92285.09472-7.79,0-11.1875-.17187a20.52978,20.52978,0,0,1-6.70215-1.50781,17.69467,17.69467,0,0,1-5.87988-3.89453,21.66649,21.66649,0,0,1-2.10059,5.87988l-3.47461-1.85156a26.50694,26.50694,0,0,0,1.86133-6.67286,47.2646,47.2646,0,0,0,.69727-7.76074q0-.61083-.01954-1.20312ZM946.707,358.34668v3.58887h2.00488v-3.58887Zm0,6.64453v3.47461h2.00488v-3.47461Zm0,10.38574,2.00488-.43945v-3.37891H946.707Zm17.27832-16.1709v.34375a33.89968,33.89968,0,0,1-2.97851,14.94922,39.58107,39.58107,0,0,0,3.8955,4.73438l-2.34863,3.51269a32.05807,32.05807,0,0,1-3.62793-4.582,31.60237,31.60237,0,0,1-4.00879,4.84961l-2.0625-2.959a25.21563,25.21563,0,0,0,4.00977-5.6709,35.16742,35.16742,0,0,1-2.71094-11.93262h-.55371v-3.24512Zm-5.23144,10.40528a27.09522,27.09522,0,0,0,1.12695-7.16016H957.666A34.96556,34.96556,0,0,0,958.75391,369.61133Z"/><path class="cls-5" d="M980.29,379.80664h-7.06445v2.501H968.5293V355.76953H980.29Zm-4.60156-3.89551V359.51172h-2.46289v16.39941Zm13.32617,2.54a39.817,39.817,0,0,1-7.94141,8.24707l-2.92187-3.39844a38.53875,38.53875,0,0,0,9.24121-11.1875h-6.3584v-4.334h7.86621v-4.42969h-6.96875v-4.21875h6.96875v-5.19336h5.23145v5.19336h8.01855v4.21875h-8.01855v4.42969h9.126v4.334h-8.09472a52.68208,52.68208,0,0,0,9.60351,10.86329l-3.32226,3.83789a49.49828,49.49828,0,0,1-7.50391-8.41993v9.87012h-4.92578Z"/><path class="cls-5" d="M1020.28809,354.24219q.05712.70605.05664,2.44336,0,1.29932-.07618,2.53906h12.62012v4.582h-13.13574a54.11913,54.11913,0,0,1-3.16895,13.6709,41.88268,41.88268,0,0,1-5.82324,11.43555l-4.42969-2.61524a42.02821,42.02821,0,0,0,5.11719-10.37695,56.5081,56.5081,0,0,0,2.90235-12.11426H1007.668v-4.582h7.00683q.15236-3.07325.15235-4.98242Zm21.708,32.83789a58.47632,58.47632,0,0,1-9.0498.63086,46.76649,46.76649,0,0,1-6.90234-.44922,8.37028,8.37028,0,0,1-4.668-2.07129,5.13452,5.13452,0,0,1-1.69922-3.83789q0-2.93994,3.13086-6.07129l4.06738,1.90918q-1.89111,2.31006-1.89062,3.7041a1.26069,1.26069,0,0,0,.6875,1.10742,7.72512,7.72512,0,0,0,2.76855.65821,41.48676,41.48676,0,0,0,4.71582.23925,49.17667,49.17667,0,0,0,8.57227-.74511Zm-1.01269-21.23047-.2666,4.54394q-1.08839-.05712-2.27246-.05664-6.47169,0-16.03711.87793l-.34375-4.54394a144.37181,144.37181,0,0,1,15.90332-.87793Q1039.80078,365.793,1040.9834,365.84961Zm-3.91309-6.31934-2.80664,1.04981q-1.585-3.93165-2.59668-5.86133l2.71094-1.0498A59.03163,59.03163,0,0,1,1037.07031,359.53027Zm5.44043-.99218-2.749,1.01171q-1.33594-3.32226-2.61524-5.86132l2.61524-.97364Q1041.32763,355.71192,1042.51074,358.53809Z"/><path class="cls-5" d="M1059.56055,375.89258a51.40282,51.40282,0,0,0-4.13379,7.16894,17.36929,17.36929,0,0,0-1.26953,4.13379h-4.21973a41.669,41.669,0,0,1-2.57715-14.56738,70.05315,70.05315,0,0,1,2.42481-17.18359l5.42187.82128a84.91264,84.91264,0,0,0-2.24316,9.73731,45.41018,45.41018,0,0,0-.46778,6.35742,48.77943,48.77943,0,0,0,.32422,6.0332q1.08839-1.7373,3.3418-5.15527Zm3.7041,13.17383-2.17676-4.52539q8.24707-3.01613,8.248-11.45508v-5.88086h-12.35352v-4.6582H1069.126v-7.59864h5.59375v7.59864h7.48437v4.6582h-7.3125v6.07129Q1074.8916,385.49609,1063.26465,389.06641Z"/></g><g class="cls-2"><path class="cls-3" d="M525.51758,433.28809l-.125,3.62207q-1.20264.0703-2.29492.06933-6.01466,0-9.30469-1.8457a5.89648,5.89648,0,0,1-3.29-5.44043,6.30814,6.30814,0,0,1,1.41016-4.11914q-3.73244.31786-8.48926,1.00879l-.40039-3.45606a23.26706,23.26706,0,0,0,3.58789-.68457q2.02441-.53173,2.709-.78808.68554-.25635,3.22168-1.63868a47.59526,47.59526,0,0,0,5.2334-3.3457q-6.44385.23585-10.71484.23535h-1.06446v-3.53906l16.96289-.042,1.78418,2.07422a49.30531,49.30531,0,0,1-10.10644,6.80176q7.188-.47022,12.06933-.46973l1.24415.01367-.05469,3.51172q-3.27685-.11133-5.80664-.11035-2.28224,0-4.8252.09668-2.877,1.645-2.876,4.25781,0,3.9126,7.83886,3.91309Q523.70606,433.41309,525.51758,433.28809Z"/><path class="cls-3" d="M544.79,413.24121q-2.8623,5.89014-4.57617,9.76074a4.44011,4.44011,0,0,1,1.52051-.27636,3.6688,3.6688,0,0,1,3.96777,2.77929l.49805,4.97657a4.2136,4.2136,0,0,0,.74609,2.24023,1.98815,1.98815,0,0,0,1.63183.73242q3.64893,0,4.79688-8.59961l3.76074.91309q-.94043,6.2622-3.0625,8.751a7.066,7.066,0,0,1-5.66113,2.48926,6.10043,6.10043,0,0,1-4.5-1.459q-1.4458-1.459-1.63867-5.4541l-.083-1.96289a3.43964,3.43964,0,0,0-.3457-1.51465.924.924,0,0,0-.82911-.5459,3.38485,3.38485,0,0,0-2.17773,1.12012,15.52685,15.52685,0,0,0-2.77148,4.96289q-1.1206,2.51659-2.14356,4.99121l-3.80176-.94043,5.82032-13.42383q.58154-1.38281,4.82519-10.46582Z"/><path class="cls-3" d="M568.72168,412.82715q-.09667,2.21191-.31836,4.05078h6.02832v3.30371h-6.52539a31.68333,31.68333,0,0,1-6.26367,14.07422l-3.02735-2.18457a27.99285,27.99285,0,0,0,5.35059-11.88965H559.707v-3.30371h4.83887a39.11509,39.11509,0,0,0,.31836-4.17578Zm17.04687,19.89453-2.04687,3.06934a32.77942,32.77942,0,0,0-4.61719-3.332,4.22081,4.22081,0,0,1-1.49316,3.55274q-1.49268,1.16161-4.92188,1.16113a8.10706,8.10706,0,0,1-4.58984-1.21582,3.8407,3.8407,0,0,1-1.8252-3.374,4.23189,4.23189,0,0,1,1.93555-3.65625,8.06211,8.06211,0,0,1,4.72852-1.34864,16.867,16.867,0,0,1,2.35058.15235v-7.17578h3.81543v8.21289A34.618,34.618,0,0,1,585.76855,432.72168Zm-10.47949-1.93555a11.26561,11.26561,0,0,0-2.35058-.23535,4.69428,4.69428,0,0,0-2.19141.47754,1.45692,1.45692,0,0,0-.91992,1.32031q0,1.74171,3.22168,1.74121,2.23974,0,2.24023-1.61718Zm10.67285-9.55371-3.02832,2.29492a41.21959,41.21959,0,0,0-3.99511-4.00879,30.48326,30.48326,0,0,0-4.2168-3.30468l2.32324-2.57129a27.56492,27.56492,0,0,1,4.56836,3.31152A39.22955,39.22955,0,0,1,585.96191,421.23242Z"/><path class="cls-3" d="M607.709,435.73535H593.60742v1.41016h-3.96777V414.77637h8.00488a27.22965,27.22965,0,0,0,1.14746-3.53907l4.10645.59375q-.54053,1.43848-1.23047,2.94532h10.03711v22.36914H607.709Zm0-15.06933v-3H593.60742v3Zm-14.10156,5.86132H607.709V423.5H593.60742Zm0,6.15235H607.709v-3.29l-14.10156-.02735Z"/><path class="cls-3" d="M637.0459,435.30664H621.16113v1.41016H617.1377V416.25586h9.85742v-4.13379h4.03711v4.13379h9.99609V436.7168H637.0459Zm-10.05078-15.80176h-5.834v4.47852h5.834Zm-5.834,12.6084h5.834v-4.99121h-5.834Zm15.88477-8.12988v-4.47852h-6.01367v4.47852Zm-6.01367,8.12988h6.01367v-4.99121h-6.01367Z"/><path class="cls-3" d="M656.582,436.82715l-1.02344-3.45606q5.48877-.6079,8.25391-2.53027a6.527,6.527,0,0,0,2.76465-5.7373,6.80522,6.80522,0,0,0-1.99024-5.12207,8.85077,8.85077,0,0,0-5.5166-2.26075q-.29,7.74316-2.89648,12.54688-2.606,4.80468-6.56055,4.80371a4.79662,4.79662,0,0,1-4.16113-2.42578,9.901,9.901,0,0,1-1.58985-5.55078V426.749a11.40773,11.40773,0,0,1,3.85059-8.46777,14.52,14.52,0,0,1,9.71191-3.96094h.56739a14.40128,14.40128,0,0,1,9.20019,2.84082,9.30829,9.30829,0,0,1,3.60157,7.72168,10.32059,10.32059,0,0,1-3.62891,8.37793Q663.53516,436.28858,656.582,436.82715Zm-1.39648-18.70508a9.80614,9.80614,0,0,0-5.28809,3.2627,8.36627,8.36627,0,0,0-2.17773,5.585,7.64366,7.64366,0,0,0,.53906,2.90332q.53906,1.32714,1.50683,1.32715,1.94971,0,3.53907-3.78809A27.882,27.882,0,0,0,655.18555,418.12207Z"/><path class="cls-3" d="M677.69336,437.08984H674.416V426.59668q-.30322.52589-.70508,1.12012l-2.07324-1.89453a38.62048,38.62048,0,0,0,2.77148-6.8086,35.53354,35.53354,0,0,0,1.5-6.97461l3.291.38672A34.43082,34.43082,0,0,1,677.334,420.127h.35938Zm10.60352-2.19824q-1.57619.33252-5.00489.79492-3.42773.46436-4.63086.53321l-.42871-2.53028q1.21582-.08349,4.5625-.40136v-1.46485H678.4668v-2.35058h4.32812v-1.13379h-3.83008v-8.834h3.83008V418.4541h-4.13379v-2.32324h4.13379v-.87109q-2.061.18016-3.291.19335l-.38672-2.16992q2.01855-.08349,4.81152-.44922a32.11842,32.11842,0,0,0,4.2168-.76757l1.07812,2.2539a19.7356,19.7356,0,0,1-3.51172.63574v1.17481H689.624v2.32324h-3.91211v1.05078h3.96778v8.834h-3.96778v1.13379h4.10645v1.57617a36.18408,36.18408,0,0,0,1.126-5.08789,50.50268,50.50268,0,0,0,.35254-5.40625h-1.34083v-2.72364h1.29981v-5.65429h3.23535v5.65429h3.87012v8.69629q0,2.33643-.23438,4.83887a18.24119,18.24119,0,0,1-.53125,3.40137,3.03054,3.03054,0,0,1-1.07226,1.48633,2.87107,2.87107,0,0,1-1.78321.58789h-2.43359l-.37305-2.80664h1.45118a1.349,1.349,0,0,0,1.12011-.50489,6.80265,6.80265,0,0,0,.60157-2.85449q.20067-2.35107.20019-4.28613l-.02734-5.835h-.9961q-.10986,2.97363-.24121,4.51465a29.2129,29.2129,0,0,1-.64355,3.80859,33.69058,33.69058,0,0,1-1.292,4.3623,19.82511,19.82511,0,0,1-1.749,3.62891l-2.35058-1.47949Q688.15918,435.14062,688.29688,434.8916Zm-5.502-13.31348h-1.41015v1.57618h1.41015Zm0,3.19336h-1.41015v1.5625h1.41015Zm4.35449-1.61718v-1.57618h-1.4375v1.57618Zm0,3.17968v-1.5625h-1.4375v1.5625Zm-1.4375,6.66407q2.36427-.26221,3-.38672v1.47851a16.02889,16.02889,0,0,0,.8711-2.2666h-3.8711Z"/><path class="cls-3" d="M723.17871,428.47754l-2.53027,2.37793a13.1669,13.1669,0,0,0-7.16211-2.32324,27.7431,27.7431,0,0,0-3.64942.18652,4.43,4.43,0,0,0-2.14941.83008,2.08572,2.08572,0,0,0-.82324,1.73437q0,2.36427,5.959,2.36426l1.46582-.01367h.30371q.69141,0,1.98438-.07617,1.292-.07471,6.03418-.6836l.13867,3.59375a78.003,78.003,0,0,1-8.19824.51172,31.48414,31.48414,0,0,1-6.81641-.55957,7.15574,7.15574,0,0,1-3.60156-1.8457,4.55006,4.55006,0,0,1-1.23731-3.291,4.77165,4.77165,0,0,1,2.55762-4.36816,13.7503,13.7503,0,0,1,6.94043-1.49316,22.43456,22.43456,0,0,1,4.38281.40039q-.457-.76026-1.10644-2.01856H702.05273V420.583h12.11133q-.35889-.83057-.78808-2.15723H703.10352v-3.19336h9.457q-.22119-1.106-.51172-2.668l4.05078-.30468q.2622,1.812.51172,2.97265h7.89453v3.19336h-7.00977q.26221.73389.82911,2.15723H725.833v3.2207h-5.88965A26.03383,26.03383,0,0,0,723.17871,428.47754Z"/><path class="cls-3" d="M740.65332,419.22754q-.041,1.5498-.1377,2.54394h11.71q0,4.83985-.2627,7.78418a16.31415,16.31415,0,0,1-.75391,4.168,4.19953,4.19953,0,0,1-1.81738,2.02539,6.01188,6.01188,0,0,1-3.166.80176h-4.36914l-.56641-3.59473h4.28516a2.202,2.202,0,0,0,2.28125-2.10058,33.651,33.651,0,0,0,.40136-5.94531h-8.14355a16.88343,16.88343,0,0,1-3.35254,7.251,17.95072,17.95072,0,0,1-6.2002,4.73535l-1.94922-2.834a15.174,15.174,0,0,0,6.02735-5.44043,17.206,17.206,0,0,0,2.07422-8.77246l.01367-.62207h-7.06543v-3.3457h10.38281v-3.73243H743.958v3.73243h11.07422v3.3457Z"/><path class="cls-3" d="M775.35547,432.38965H771.415l.01367-5.4336q-4.93506,2.41994-4.93555,4.52149,0,2.0874,4.75586,2.08691l1.53516-.01367a70.2078,70.2078,0,0,0,9.40137-.456l.19336,3.456q-3.88478.37353-7.61817.374-7.1748,0-9.62207-1.22363a3.99553,3.99553,0,0,1-2.44726-3.78125q0-4.20264,8.03222-8.2539a1.28611,1.28611,0,0,0-1.07812-.45606,7.92426,7.92426,0,0,0-3.24219.92578,20.11109,20.11109,0,0,0-4.375,3.05567q-1.6875,1.49266-2.41992,2.01855l-2.40528-2.59961a25.57993,25.57993,0,0,0,7.27149-7.96289h-5.90332v-3.27637h7.3418a23.83605,23.83605,0,0,0,.87109-3.13867l4.06445.2207q-.38819,1.71534-.78808,2.918h9.125v3.27637H768.7334q-.36036.71924-1.32715,2.21192a8.43779,8.43779,0,0,1,2.6543-.45606,4.64719,4.64719,0,0,1,4.06445,1.74219q1.79736-.7749,7.57617-3.042l1.61817,3.29q-2.72462.92726-8.12989,2.90333a16.93982,16.93982,0,0,1,.13867,2.22656Z"/><path class="cls-3" d="M801.15332,434.14551a2.39381,2.39381,0,0,1-1.0293,2.01172,3.865,3.865,0,0,1-2.37109.76757h-4.53516l-.415-3.54h3.65039a.87037.87037,0,0,0,.56641-.23438.67313.67313,0,0,0,.27735-.51172v-3.53906H785.97363v-3.27734h11.32325v-3.11036H787.02441v-3.09668h10.27247v-2.834q-5.04639.37207-9.31836.373l-.49805-3.05567q14.22655-.23437,20.72461-1.94922l1.89355,2.86133a63.424,63.424,0,0,1-8.94531,1.42481v3.17968h9.56738v3.09668h-9.56738v3.11036h10.72852v3.27734H801.15332Z"/><path class="cls-3" d="M821.2002,413.58691a41.41718,41.41718,0,0,0-1.75586,10.6875,43.01159,43.01159,0,0,0,1.54882,11.54395l-3.81543.87109a44.917,44.917,0,0,1-1.49316-11.2959,50.61467,50.61467,0,0,1,1.63086-12.3457ZM839.06348,435.666q-3.38819.31786-5.793.31836-6.07032,0-8.28223-1.40333a4.47286,4.47286,0,0,1-2.21191-4.00293,8.57,8.57,0,0,1,2.835-5.917L828.666,426.293a5.8384,5.8384,0,0,0-2.22559,4.16113,1.73906,1.73906,0,0,0,1.16113,1.55567,12.88631,12.88631,0,0,0,4.81153.57324q1.853,0,6.51171-.40039Zm-.30469-17.32325-1.16113-.01367q-1.812-.02783-6.01465.06934-4.20264.09668-8.14258.373v-3.373q9.3457-.457,12.94043-.45606,1.43847,0,2.37793.083Z"/><path class="cls-3" d="M856.0127,425.90527a20.12232,20.12232,0,0,1-4.541,6.374,27.27375,27.27375,0,0,1-7.38965,4.75586l-1.9082-3.083a19.22373,19.22373,0,0,0,7.96289-5.85547,17.56137,17.56137,0,0,0,3.62305-8.9375v-2.876l-6.85743-.02734V412.9375h10.90821q.01318.34571.01367.74609v2.51661a22.82468,22.82468,0,0,0,.50488,4.87988,16.15358,16.15358,0,0,0,1.86621,4.54883,19.10264,19.10264,0,0,0,3.47657,4.334,29.52581,29.52581,0,0,0,5.15722,3.78125l-2.72363,3.23535a34.28768,34.28768,0,0,1-6.53906-5.63379A23.2528,23.2528,0,0,1,856.0127,425.90527Z"/><path class="cls-3" d="M876.0459,429.18262q-2.15625,3.15087-3.67774,5.01855l-2.15625-3.05566a74.49268,74.49268,0,0,0,5.28125-7.05078q.16554-.37355.55274-1.14746v-3.09766h-4.81152v-3.15137h4.81152v-4.46582h3.92676v7.75586q5.12841-4.96288,8.77929-4.96289a5.152,5.152,0,0,1,3.66993,1.32715,4.56548,4.56548,0,0,1,1.417,3.49707q0,1.23194-.51075,6.125-.416,3.96826-.52539,5.793v.27637q0,.94043.64942.94043a10.02568,10.02568,0,0,0,3.56738-1.42383l.91211,3.207a9.07576,9.07576,0,0,1-5.07422,1.82519,3.92186,3.92186,0,0,1-2.98633-1.12011,4.25058,4.25058,0,0,1-1.06445-3.05567q0-.51123.6084-6.4834.33252-3.42919.38769-5.77929v-.207q0-1.38282-1.43847-1.38282a7.07009,7.07009,0,0,0-3.29688,1.38965,29.78528,29.78528,0,0,0-5.09472,4.458v12.62305H876.0459Z"/><path class="cls-3" d="M916.22266,433.02539q3.37353-1.32716,3.373-4.23047a3.76234,3.76234,0,0,0-1.666-3.24219,7.07113,7.07113,0,0,0-4.19531-1.18164h-.34571a10.84147,10.84147,0,0,0-2.59277.37305,16.31933,16.31933,0,0,0-2.792.96777,15.71734,15.71734,0,0,0-2.19825,1.18946q-.89208.59472-4.1416,3l-2.21191-2.7793q11.29541-7.7417,14.44824-10.16113H902.2041v-3.23535h16.70117l1.99024,2.1289q-2.97217,1.97754-8.86231,6.02832a11.70287,11.70287,0,0,1,2.84864-.44238,9.91318,9.91318,0,0,1,6.38671,1.85937,6.4615,6.4615,0,0,1,2.30957,5.34278,7.053,7.053,0,0,1-3.2705,6.24219,15.27361,15.27361,0,0,1-8.60547,2.17773,11.43594,11.43594,0,0,1-5.59277-1.16113A3.69425,3.69425,0,0,1,904.043,432.5a3.6343,3.6343,0,0,1,1.76269-3.04785,6.55652,6.55652,0,0,1,3.84961-1.23731Q914.813,428.21484,916.22266,433.02539Zm-3.56739.91309q-.89794-2.82129-3.27636-2.82032a2.07883,2.07883,0,0,0-1.23047.37989,1.16087,1.16087,0,0,0-.53906.98828q0,1.52051,3.56738,1.52051Q911.96485,434.00684,912.65527,433.93848Z"/><path class="cls-3" d="M937.251,412.28711q.041.5127.042,1.77051,0,.94043-.05567,1.83789H946.376v3.31836h-9.51172a39.24656,39.24656,0,0,1-2.29492,9.89941,30.345,30.345,0,0,1-4.2168,8.28125l-3.208-1.89453a30.40814,30.40814,0,0,0,3.70508-7.51367,40.84447,40.84447,0,0,0,2.10156-8.77246H928.1123v-3.31836h5.07422q.10988-2.2251.11036-3.6084Zm15.71972,23.78027a42.39532,42.39532,0,0,1-6.55371.45606,33.78939,33.78939,0,0,1-4.99707-.3252,6.0611,6.0611,0,0,1-3.38086-1.5,3.71566,3.71566,0,0,1-1.23047-2.77832,6.43172,6.43172,0,0,1,2.26758-4.39648l2.94434,1.38183a4.86658,4.86658,0,0,0-1.36817,2.68262.91086.91086,0,0,0,.49805.80176,5.57421,5.57421,0,0,0,2.00391.47656,30.01357,30.01357,0,0,0,3.415.17285,35.6644,35.6644,0,0,0,6.208-.53906Zm-.73242-15.374-.19433,3.29q-.7881-.041-1.64454-.041-4.6875,0-11.61328.63574l-.249-3.29a104.484,104.484,0,0,1,11.5166-.63575Q951.38087,420.65234,952.23828,420.69336Z"/><path class="cls-3" d="M969.22949,431.36621l-2.69629,2.24024-.67773-.84375q-3.041,2.76563-5.6543,2.76562a4.18307,4.18307,0,0,1-3.29687-1.47949,5.30855,5.30855,0,0,1-1.293-3.62207,11.22475,11.22475,0,0,1,4.28613-8.876,49.58493,49.58493,0,0,1-1.54883-6.208l3.77442-.96777a47.61707,47.61707,0,0,0,1.03711,5.06055,18.56951,18.56951,0,0,1,5.61328-1.78418q.10986-1.81054.11035-4.82422l4.10644.02734a45.76755,45.76755,0,0,1-.208,4.61719,10.41484,10.41484,0,0,1,6.69824,2.8623,8.63725,8.63725,0,0,1,2.5791,6.44239,8.77679,8.77679,0,0,1-3.19434,7.09277q-3.19335,2.66748-9.87109,3.249l-.81543-3.23535q5.46094-.71923,7.61719-2.48144a5.79945,5.79945,0,0,0,2.15722-4.73535,5.66432,5.66432,0,0,0-1.56933-4.09961,6.31216,6.31216,0,0,0-4.11328-1.85938,24.00163,24.00163,0,0,1-3.99512,9.374Q968.77344,430.77246,969.22949,431.36621Zm-5.37793-1.39648a41.59376,41.59376,0,0,1-2.50293-5.0459,8.24989,8.24989,0,0,0-1.97656,5.50293,1.75116,1.75116,0,0,0,.3457,1.06445,1.04091,1.04091,0,0,0,.8711.46973Q961.998,431.96094,963.85156,429.96973Zm.29-7.36817a31.78535,31.78535,0,0,0,1.97656,4.20313,18.49529,18.49529,0,0,0,2.24024-5.80762A13.538,13.538,0,0,0,964.1416,422.60156Z"/><path class="cls-3" d="M991.08691,413.58691a41.41761,41.41761,0,0,0-1.75586,10.6875,43.01159,43.01159,0,0,0,1.54883,11.54395l-3.81543.87109a44.917,44.917,0,0,1-1.49316-11.2959,50.61467,50.61467,0,0,1,1.63086-12.3457ZM1008.9502,435.666q-3.38819.31786-5.793.31836-6.07032,0-8.28223-1.40333a4.47286,4.47286,0,0,1-2.21191-4.00293,8.57,8.57,0,0,1,2.835-5.917l3.05468,1.63184a5.83842,5.83842,0,0,0-2.22558,4.16113,1.73906,1.73906,0,0,0,1.16113,1.55567,12.88628,12.88628,0,0,0,4.81152.57324q1.853,0,6.51172-.40039Zm-.30469-17.32325-1.16113-.01367q-1.812-.02783-6.01465.06934-4.20264.09668-8.14258.373v-3.373q9.34571-.457,12.94043-.45606,1.43847,0,2.37793.083Z"/><path class="cls-3" d="M1018.93164,413.58691a40.88565,40.88565,0,0,0-1.70019,10.65918,43.32815,43.32815,0,0,0,1.58984,11.62793l-3.88477.78809a45.29946,45.29946,0,0,1-1.52148-11.43359,49.942,49.942,0,0,1,1.61816-12.18067ZM1039.46289,432.5l-2.24023,3.166a26.26375,26.26375,0,0,0-3.99512-3.09668,4.14473,4.14473,0,0,1-1.459,3.11035q-1.31982,1.06494-4.90136,1.06543a7.35179,7.35179,0,0,1-4.35449-1.252,3.94369,3.94369,0,0,1-1.76954-3.39355,4.18237,4.18237,0,0,1,1.78321-3.49121,6.79493,6.79493,0,0,1,4.21679-1.34766,23.22044,23.22044,0,0,1,2.55762.166v-6.18067h-8.97266v-3.42871h8.97266v-5.01855h3.9541v5.01855h5.15723v3.42871h-5.15723v7.36914A26.78612,26.78612,0,0,1,1039.46289,432.5Zm-10.16211-.78809v-.96777a6.99475,6.99475,0,0,0-2.55762-.42871,2.95042,2.95042,0,0,0-1.61035.45019,1.339,1.339,0,0,0-.71289,1.168,1.2477,1.2477,0,0,0,.7334,1.127,3.47029,3.47029,0,0,0,1.71387.40722Q1029.3003,433.46777,1029.30078,431.71191Z"/></g><g class="cls-2"><path class="cls-5" d="M638.375,472.64355a45.10173,45.10173,0,0,1-6.39551,6.93946,43.51561,43.51561,0,0,1-7.23633,5.33691l-2.90234-3.91406a44.32548,44.32548,0,0,0,8.62012-6.94043,41.62675,41.62675,0,0,0,6.31054-7.91309H623.67383v-4.81152H638.375v-6.377h5.51758v6.377h14.85351v4.81152H645.32422a42.74294,42.74294,0,0,0,15.19726,14.07032l-3.2832,4.54394a44.856,44.856,0,0,1-13.3457-12.18066v6.51074h5.63183v4.582h-5.63183v6.05176H638.375v-6.05176h-5.78516v-4.582H638.375Z"/><path class="cls-5" d="M677.49512,483.14453a44.43744,44.43744,0,0,1-14.91114,5.918l-1.39355-3.81836a47.68471,47.68471,0,0,0,11.74121-4.23828H662.46875v-3.62793h15.02637V475.584H664.47363v-3.39843h13.02149v-1.79493H663.88184v-3.64648h7.14062l-.85937-2.19629h-7.17871v-3.665h4.31542l-1.92871-4.42969,4.56348-1.126,2.44336,5.55566h1.7373v-6.07129h4.62012v6.07129h2.90235v-6.07129h4.56347v6.07129H688.167l2.42481-5.59472,4.77343,1.12695-2.34863,4.46777h4.60156v3.665h-7.38867l-1.31738,2.19629h7.84668v3.64648H682.64941v1.79493h13.13575V475.584H682.64941v1.79395h15.2168v3.62793H687.46094a50.733,50.733,0,0,0,11.72265,3.83691l-1.98535,4.25782a41.35279,41.35279,0,0,1-14.54883-6.28125v6.835h-5.15429Zm-2.40625-18.59668.8789,2.19629h7.98047l1.14551-2.19629Z"/><path class="cls-5" d="M714.89648,455.36523q.05714.70606.05664,2.44336,0,1.29932-.07617,2.53907h12.62012v4.582H714.36133a54.11913,54.11913,0,0,1-3.16895,13.6709,41.88276,41.88276,0,0,1-5.82324,11.43554l-4.42969-2.61523a42.02821,42.02821,0,0,0,5.11719-10.377,56.50746,56.50746,0,0,0,2.90234-12.11426h-6.68261v-4.582h7.00683q.15236-3.07325.15235-4.98243Zm21.708,32.83789a58.47508,58.47508,0,0,1-9.0498.63086,46.76821,46.76821,0,0,1-6.90235-.44921,8.37028,8.37028,0,0,1-4.668-2.07129,5.13452,5.13452,0,0,1-1.69922-3.83789q0-2.94,3.13086-6.07129l4.06738,1.90918q-1.89111,2.31006-1.89063,3.7041a1.2607,1.2607,0,0,0,.6875,1.10742,7.7253,7.7253,0,0,0,2.76856.6582,41.48428,41.48428,0,0,0,4.71582.23926,49.17648,49.17648,0,0,0,8.57226-.74512Zm-1.01269-21.23046-.2666,4.54394q-1.08839-.05712-2.27247-.05664-6.47167,0-16.03711.87793l-.34374-4.54394a144.36935,144.36935,0,0,1,15.90332-.87793Q734.40918,466.916,735.5918,466.97266Zm-3.91309-6.31934-2.80664,1.0498q-1.585-3.93164-2.59668-5.86132l2.71094-1.04981A59.03074,59.03074,0,0,1,731.67871,460.65332Zm5.44043-.99219-2.749,1.01172q-1.33595-3.32226-2.61524-5.86133l2.61524-.97363Q735.936,456.835,737.11914,459.66113Z"/><path class="cls-5" d="M754.16992,477.01562a51.40545,51.40545,0,0,0-4.13379,7.16895,17.36962,17.36962,0,0,0-1.26953,4.13379h-4.21972a41.66881,41.66881,0,0,1-2.57715-14.56738,70.05311,70.05311,0,0,1,2.4248-17.1836l5.42188.82129a84.91268,84.91268,0,0,0-2.24317,9.73731,45.41153,45.41153,0,0,0-.46777,6.35742,48.77966,48.77966,0,0,0,.32422,6.0332q1.08837-1.7373,3.34179-5.15527Zm3.7041,13.17383-2.17675-4.52539q8.24706-3.01611,8.248-11.45508v-5.88086H751.5918v-4.6582h12.14355v-7.59863h5.59375v7.59863h7.48438v4.6582H769.501v6.07129Q769.501,486.61915,757.874,490.18945Z"/></g><g class="cls-2"><path class="cls-3" d="M786.14453,466.84473a41.41761,41.41761,0,0,0-1.75586,10.6875,43.01117,43.01117,0,0,0,1.54883,11.54394l-3.81543.8711a44.917,44.917,0,0,1-1.49316-11.2959,50.61474,50.61474,0,0,1,1.63086-12.34571Zm17.86328,22.0791q-3.38818.31786-5.793.31836-6.07031,0-8.28222-1.40332a4.47288,4.47288,0,0,1-2.21192-4.00293,8.57,8.57,0,0,1,2.835-5.917l3.05469,1.63183a5.8384,5.8384,0,0,0-2.22558,4.16113,1.739,1.739,0,0,0,1.16113,1.55567,12.88625,12.88625,0,0,0,4.81152.57324q1.853,0,6.51172-.40039Zm-.30469-17.32324-1.16113-.01368q-1.812-.02783-6.01465.06934-4.20263.09668-8.14257.373v-3.373q9.34569-.457,12.94043-.45605,1.43847,0,2.37792.083Z"/><path class="cls-3" d="M810.57422,480.66992a33.82022,33.82022,0,0,1-1.38184,7.72852l-2.37793-.4834a50.64463,50.64463,0,0,0,1.02246-7.42481Zm3.77441,9.78906h-3.29V479.28809q-2.37889.23438-3.78808.30371l-.31836-2.61328q.98145,0,1.99121-.041.71778-.98145,1.49316-2.12891-1.16161-1.43847-3.59472-4.16211l1.72754-2.1289.48437.51172a30.24568,30.24568,0,0,0,2.19824-4.10645l2.834,1.02344a33.90648,33.90648,0,0,1-3.17969,5.06055q.65038.71776,1.16113,1.3125a35.55439,35.55439,0,0,0,2.44727-4.42383l2.7793,1.27246a67.89875,67.89875,0,0,1-5.00489,7.57617q1.106-.08349,2.53028-.22168-.40137-1.46484-.56739-1.86621l2.41993-.59473q.59325,1.812,1.5205,5.15723l-2.57129.56641q-.02783-.22119-.23535-1.07813-.5669.11133-1.03711.17969Zm3.44239-4.52148-2.19825.498q-.37353-2.40528-.77343-5.73731l2.15625-.40136Zm7.20312,1.97754-2.751,2.18457q-.41454-.58155-3.45605-4.23047l1.23047-.92676H817.708v-2.88965h10.02344v-1.18847h-9.31836v-9.623h5.39257v-1.16113H817.791v-2.55762h6.01464v-2.29492h3.62207v2.29492h1.64551q-.51269-.67676-.96777-1.2168l2.46094-1.13378q.53906.62255,1.92089,2.35058h1.18946v2.55762h-6.249v1.16113h5.4336v9.623h-1.47949v1.18847h2.585v2.88965h-2.585v2.5166a2.46578,2.46578,0,0,1-.86426,1.93555,2.84774,2.84774,0,0,1-1.92871.75977h-2.80664l-.62207-3.23535h1.97754q.59325,0,.59375-.67676v-1.29981h-5.43262A25.02625,25.02625,0,0,1,824.99414,487.915Zm-3.29-12.96875h2.10156v-1.38184H821.7041Zm2.10156,1.89453H821.7041V478.375h2.10156Zm3.62207-1.89453H829.543v-1.38184h-2.11524Zm2.11524,1.89453h-2.11524V478.375H829.543Z"/><path class="cls-3" d="M842.23438,490.43066,841.668,486.919a41.12639,41.12639,0,0,0,10.98437-1.11231q3.76612-1.11329,3.76758-3.64355a3.31488,3.31488,0,0,0-1.3418-2.84082,6.10334,6.10334,0,0,0-3.6914-.98829,14.65345,14.65345,0,0,0-6.19336,1.42383,13.63264,13.63264,0,0,0-4.97754,3.76074l-3.02734-1.7832a32.84746,32.84746,0,0,0,2.35058-11.72461l4.07813.23535a30.12161,30.12161,0,0,1-1.2168,7.29981,16.01416,16.01416,0,0,1,4.26563-1.7832,17.64637,17.64637,0,0,1,4.67968-.70508,11.09385,11.09385,0,0,1,6.76758,1.82422,6.19175,6.19175,0,0,1,2.44043,5.28125,6.37912,6.37912,0,0,1-1.59082,4.38281,9.94463,9.94463,0,0,1-4.89355,2.72363Q850.76465,490.19532,842.23438,490.43066ZM858.60352,468.794l-1.81055,3.51171a36.72357,36.72357,0,0,0-7.31348-2.05957q-4.43847-.84375-7.41113-1.10644l1.06543-3.31738A80.26545,80.26545,0,0,1,858.60352,468.794Z"/><path class="cls-3" d="M869.30469,482.44043q-2.15625,3.15089-3.67774,5.01855l-2.15625-3.05566a74.49268,74.49268,0,0,0,5.28125-7.05078q.16553-.37353.55274-1.14746v-3.09766h-4.81153v-3.15137h4.81153v-4.46582h3.92676v7.75586q5.12841-4.96288,8.77929-4.96289a5.152,5.152,0,0,1,3.66992,1.32715,4.56547,4.56547,0,0,1,1.417,3.49707q0,1.23194-.51075,6.125-.416,3.96827-.52539,5.793v.27637q0,.94043.64942.94043a10.02575,10.02575,0,0,0,3.56738-1.42383l.91211,3.207a9.07577,9.07577,0,0,1-5.07422,1.8252,3.92186,3.92186,0,0,1-2.98633-1.12012,4.25056,4.25056,0,0,1-1.06445-3.05567q0-.51123.6084-6.48339.33252-3.42921.38769-5.7793v-.207q0-1.38282-1.43847-1.38281a7.07012,7.07012,0,0,0-3.29688,1.38964,29.78572,29.78572,0,0,0-5.09472,4.458V490.293h-3.92676Z"/><path class="cls-3" d="M916.69824,471.58691h-6.70508v5.03223a9.39186,9.39186,0,0,1,.81543,4.29981,8.4524,8.4524,0,0,1-3.09668,6.74023,12.62751,12.62751,0,0,1-7.74218,2.88281l-.96778-3.3457q6.08351-.47022,7.67285-4.35547a5.9615,5.9615,0,0,1-3.59472,1.13379,5.87908,5.87908,0,0,1-4.05762-1.459,4.781,4.781,0,0,1-1.63867-3.73925,5.45426,5.45426,0,0,1,1.73535-4.17578,6.149,6.149,0,0,1,4.36231-1.61719,7.08243,7.08243,0,0,1,2.44726.42871v-1.8252H892.26855v-3.11035h13.64551v-3.083h4.0791v3.083h3.01368q-.55371-1.25829-1.3545-2.77929l1.87989-.77442q.63573,1.16163,1.79785,3.55371h1.36816Zm-10.70117,6.166-.02734-.78809a2.822,2.822,0,0,0-2.46094-.9541,2.2907,2.2907,0,0,0-1.67969.78125,2.4185,2.4185,0,0,0-.7539,1.708,2.25013,2.25013,0,0,0,.56054,1.5625,1.85577,1.85577,0,0,0,1.44434.62207,2.837,2.837,0,0,0,2.12207-.80957A2.89488,2.89488,0,0,0,905.99707,477.75293Zm13.36914-9.2627-1.94922.80176q-.5669-1.396-1.85254-3.96777l1.90821-.70508Q918.13623,465.89063,919.36621,468.49023Z"/></g><g class="cls-2"><path class="cls-3" d="M451.97949,536.8584H437.87793v1.41015h-3.96777V515.89941H441.915a27.2296,27.2296,0,0,0,1.14746-3.53906l4.10645.59375q-.54054,1.43849-1.23047,2.94531h10.03711v22.36914h-3.9961Zm0-15.06934v-3H437.87793v3Zm-14.10156,5.86133h14.10156v-3.02734H437.87793Zm0,6.15234h14.10156v-3.29l-14.10156-.02735Z"/><path class="cls-3" d="M472.44141,525.02344a13.95638,13.95638,0,0,1-3.2002,8.49609,15.9,15.9,0,0,1-7.43164,4.63867l-1.72852-3.05566q7.96436-2.80664,8.30957-10.0791h-3.78808v-1.21582a32.85685,32.85685,0,0,1-2.97266,2.32226l-2.35058-2.53027a25.6169,25.6169,0,0,0,5.59961-5.37793,21.19562,21.19562,0,0,0,3.31836-5.46094l3.91211.92676a28.524,28.524,0,0,1-5.40528,8.12891h12.62207a25.35686,25.35686,0,0,1-5.00488-8.15723l3.62305-1.0918a25.44046,25.44046,0,0,0,3.90527,6.15235,31.57013,31.57013,0,0,0,5.44043,4.74218l-2.97266,3-1.47949-1.27246a64.71771,64.71771,0,0,1-.35254,7.34864q-.353,3.0205-1.666,4.18945a4.9087,4.9087,0,0,1-3.38672,1.168h-4.97754l-.56641-3.53906h4.38281a2.04475,2.04475,0,0,0,1.96973-1.2168q.60058-1.21729.60156-6.92676v-1.18945Z"/><path class="cls-3" d="M495.585,514.71a41.37523,41.37523,0,0,0-1.75586,10.6875,43.01125,43.01125,0,0,0,1.54883,11.54395l-3.81641.87109a44.96182,44.96182,0,0,1-1.49316-11.2959,50.61733,50.61733,0,0,1,1.63184-12.3457Zm17.86231,22.0791q-3.38673.31788-5.793.31836-6.06885,0-8.28125-1.40332a4.47288,4.47288,0,0,1-2.21192-4.00293,8.56846,8.56846,0,0,1,2.834-5.917l3.05566,1.63184a5.83482,5.83482,0,0,0-2.22558,4.16113,1.739,1.739,0,0,0,1.16113,1.55566,12.886,12.886,0,0,0,4.81152.57324q1.85157,0,6.51172-.40039Zm-.30372-17.32324-1.16113-.01367q-1.812-.02784-6.01465.06933-4.20262.09669-8.14257.37305v-3.37305q9.34569-.457,12.94042-.45605,1.437,0,2.37793.083Z"/><path class="cls-3" d="M537.32422,524.40137H522.59961v-1.63086a31.40566,31.40566,0,0,1-5.10156,2.72363l-1.7002-2.90332a27.68639,27.68639,0,0,0,6.3877-3.76074,26.24431,26.24431,0,0,0,5.50195-5.585h4.13379a20.9008,20.9008,0,0,0,4.53516,4.38183,34.03985,34.03985,0,0,0,7.6455,4.29981l-2.01855,3.42871a29.7898,29.7898,0,0,1-4.65918-2.44727Zm-.88477,12.25H523.22168v1.31347h-3.96777V526.54492h21.126v11.35059h-3.94043Zm-13.21777-3.05567h13.21777v-3.99511H523.22168Zm1.57617-12.3457H534.9043a26.05625,26.05625,0,0,1-5.11524-4.81152A23.73485,23.73485,0,0,1,524.79785,521.25Z"/><path class="cls-3" d="M551.41211,537.41113l-.62305-2.97168a54.9884,54.9884,0,0,0,7.54883-.74023,9.52048,9.52048,0,0,0,4.49316-1.9834,4.74339,4.74339,0,0,0,1.70118-3.78809,4.62137,4.62137,0,0,0-1.44532-3.55371,5.31826,5.31826,0,0,0-3.76757-1.34082q-3.19337,0-13.07813,1.86621l-.53906-3.11035,7.41015-1.09277a50.39586,50.39586,0,0,1,6.2627-.63574,9.59709,9.59709,0,0,1,6.44922,2.05957,7.12547,7.12547,0,0,1,2.41308,5.72461Q568.2373,537.21826,551.41211,537.41113Z"/><path class="cls-3" d="M583.32031,513.41016q.04248.51268.042,1.7705,0,.94044-.05566,1.83789h9.13867v3.31836h-9.51172a39.20379,39.20379,0,0,1-2.29492,9.89942,30.34515,30.34515,0,0,1-4.21679,8.28125l-3.207-1.89453a30.44226,30.44226,0,0,0,3.70508-7.51367,40.96112,40.96112,0,0,0,2.10156-8.77247h-4.83886v-3.31836h5.07324q.11133-2.22509.11035-3.60839ZM599.04,537.19043a42.38236,42.38236,0,0,1-6.55274.45605,33.79412,33.79412,0,0,1-4.998-.32519,6.06111,6.06111,0,0,1-3.38086-1.5,3.71568,3.71568,0,0,1-1.23047-2.77832,6.43174,6.43174,0,0,1,2.26758-4.39649l2.94531,1.38184a4.86286,4.86286,0,0,0-1.36914,2.68262.91086.91086,0,0,0,.49805.80176,5.58714,5.58714,0,0,0,2.00488.47656,29.98354,29.98354,0,0,0,3.41406.17285,35.66549,35.66549,0,0,0,6.208-.53906Zm-.73242-15.374-.19336,3.29q-.78808-.041-1.64551-.041-4.6875,0-11.61328.63574l-.249-3.29a104.49715,104.49715,0,0,1,11.5166-.63574Q597.45019,521.77539,598.30762,521.81641Z"/><path class="cls-3" d="M618.27148,516.86719H602.04v-2.80664h16.23144Zm-4.34082,20.21289h-7.86718v.85644h-3.56641v-12.29h15.124v12.29h-3.69043Zm3.041-12.65039H603.17383V518.001h13.79785Zm-8.61328,3.89843h-2.29492V530.167h2.29492Zm-2.29492,6.09668h2.29492v-2.01855h-2.29492Zm7.34179-12.3457v-1.7832h-6.63672v1.7832Zm.52539,8.08789v-1.83887h-2.28125V530.167Zm-2.28125,4.25781h2.28125v-2.01855h-2.28125Zm10.46582-2.6123h-3.22168V515.001h3.22168Zm4.96289,3.45605a2.38241,2.38241,0,0,1-.87109,1.86622,2.94279,2.94279,0,0,1-1.99121.76074h-3.37305l-.45605-3.27637H622.626q1.02391,0,1.02343-.85742V513.2998h3.42871Z"/><path class="cls-3" d="M641.17969,533.52637a32.16322,32.16322,0,0,1-10.79688,4.28613l-1.00976-2.76562a34.5252,34.5252,0,0,0,8.50293-3.06836H630.2998v-2.627h10.87989v-1.2998H631.751v-2.46094h9.42871V524.291h-9.85742v-2.64063h5.17089l-.62207-1.58984h-5.19824v-2.6543h3.124l-1.39551-3.208,3.30371-.81543,1.76953,4.02344h1.25879v-4.39648h3.3457v4.39648h2.10156v-4.39648h3.30372v4.39648h1.42382l1.75586-4.05078,3.457.81543-1.70117,3.23535h3.332v2.6543h-5.35058l-.9541,1.58984h5.68261V524.291H644.91309v1.2998h9.51171v2.46094h-9.51171v1.2998h11.01855v2.627h-7.53516a36.7897,36.7897,0,0,0,8.48926,2.77832l-1.4375,3.083a29.93491,29.93491,0,0,1-10.53515-4.54882v4.95019h-3.7334Zm-1.74121-13.46582.63574,1.58984h5.7793l.8291-1.58984Z"/><path class="cls-3" d="M676.25488,533.5127h-3.94043l.01465-5.4336q-4.93651,2.41992-4.93555,4.52149,0,2.0874,4.75586,2.08691l1.53418-.01367a70.18728,70.18728,0,0,0,9.40137-.45606l.19336,3.45606q-3.88476.37353-7.61719.374-7.17627,0-9.623-1.22363a3.997,3.997,0,0,1-2.44727-3.78125q0-4.20264,8.0332-8.25391a1.28936,1.28936,0,0,0-1.0791-.45605,7.91663,7.91663,0,0,0-3.24121.92578,20.09053,20.09053,0,0,0-4.376,3.05566q-1.6875,1.49268-2.41992,2.01856l-2.40527-2.59961a25.5837,25.5837,0,0,0,7.27246-7.96289h-5.9043v-3.27637h7.3418a23.68392,23.68392,0,0,0,.87109-3.13867l4.06446.2207q-.38673,1.71534-.78809,2.918h9.125v3.27637H669.63281q-.36034.71924-1.32715,2.21191a8.44706,8.44706,0,0,1,2.6543-.45605,4.64721,4.64721,0,0,1,4.06445,1.74218q1.79738-.7749,7.57618-3.042l1.61816,3.29q-2.72462.92725-8.12988,2.90332a16.77461,16.77461,0,0,1,.13867,2.22656Z"/><path class="cls-3" d="M697.26953,520.68262a22.60622,22.60622,0,0,1-2.25391,10.57617,17.79642,17.79642,0,0,1,2.22657,1.74219l-2.1836,2.834a21.71657,21.71657,0,0,0-1.96386-1.71387,19.19439,19.19439,0,0,1-5.4336,4.31348L686.085,535.918a17.429,17.429,0,0,0,4.45215-3.70508q-1.61865-1.13379-3.06934-2.01855a.84656.84656,0,0,1-.415-.75977,1.67444,1.67444,0,0,1,.042-.35937q.55224-2.29542,1.4375-7.96387H686.707v-2.80664h2.25391q.51123-3.52589.63574-5.14258l3.70508.166q-.06885,1.21583-.70508,4.97657h4.67285Zm-4.99023,8.77929a19.37849,19.37849,0,0,0,1.56152-8.35058h-1.72754q-.95508,5.25439-1.50683,7.24414Q691.08984,528.70118,692.2793,529.46191Zm17.15625-6q-5.61329.80127-11.72266,1.07813l-.332-3.2627q1.02246-.01318,2.07422-.042a40.38083,40.38083,0,0,0,2.59765-8.16992l3.96875.77344a51.47014,51.47014,0,0,1-2.93164,7.23144q3.05566-.18016,5.01954-.374-1.10744-2.25292-1.92188-3.63574l3.13867-1.29981a65.60449,65.60449,0,0,1,4.32617,8.29492l-3.41406,1.16211Zm-1.13282,13.50684h-6.5664v.89941h-3.623V526.24023H711.9668v11.62793h-3.66407Zm-6.5664-2.80664h6.5664v-5.03223h-6.5664Z"/><path class="cls-3" d="M728.55664,532.48926l-2.69629,2.24023-.67773-.84375q-3.041,2.76563-5.6543,2.76563a4.1831,4.1831,0,0,1-3.29687-1.47949,5.30856,5.30856,0,0,1-1.293-3.62208,11.22475,11.22475,0,0,1,4.28613-8.876,49.58319,49.58319,0,0,1-1.54883-6.208l3.77442-.96777a47.61954,47.61954,0,0,0,1.0371,5.06054,18.56957,18.56957,0,0,1,5.61329-1.78418q.10986-1.81055.11035-4.82421l4.10644.02734a45.76769,45.76769,0,0,1-.208,4.61719,10.41484,10.41484,0,0,1,6.69824,2.8623,8.63726,8.63726,0,0,1,2.5791,6.44238,8.7768,8.7768,0,0,1-3.19434,7.09278q-3.19335,2.66748-9.87109,3.249l-.81543-3.23535q5.46093-.71923,7.61719-2.48145a5.79946,5.79946,0,0,0,2.15722-4.73535,5.66436,5.66436,0,0,0-1.56933-4.09961,6.31215,6.31215,0,0,0-4.11328-1.85937,24.00185,24.00185,0,0,1-3.99512,9.374Q728.10059,531.89551,728.55664,532.48926Zm-5.37793-1.39649a41.59274,41.59274,0,0,1-2.50293-5.04589,8.24984,8.24984,0,0,0-1.97656,5.50292,1.75117,1.75117,0,0,0,.3457,1.06446,1.04092,1.04092,0,0,0,.8711.46972Q721.32519,533.084,723.17871,531.09277Zm.29-7.36816a31.7846,31.7846,0,0,0,1.97656,4.20312,18.49523,18.49523,0,0,0,2.24024-5.80761A13.538,13.538,0,0,0,723.46875,523.72461Z"/><path class="cls-3" d="M760.49316,534.14844q3.37355-1.32716,3.37305-4.23047a3.76236,3.76236,0,0,0-1.666-3.24219,7.07117,7.07117,0,0,0-4.19532-1.18164h-.3457a10.841,10.841,0,0,0-2.59277.37305,16.31974,16.31974,0,0,0-2.792.96777,15.71883,15.71883,0,0,0-2.19824,1.18945q-.89208.59473-4.1416,3l-2.21191-2.77929q11.2954-7.74171,14.44824-10.16114H746.47461v-3.23535h16.70117l1.99024,2.12891q-2.97217,1.97754-8.86231,6.02832a11.70287,11.70287,0,0,1,2.84863-.44238,9.91321,9.91321,0,0,1,6.38672,1.85937,6.46152,6.46152,0,0,1,2.30957,5.34277,7.053,7.053,0,0,1-3.27051,6.24219,15.27349,15.27349,0,0,1-8.60546,2.17774,11.43589,11.43589,0,0,1-5.59278-1.16114,3.69422,3.69422,0,0,1-2.0664-3.40136,3.63428,3.63428,0,0,1,1.76269-3.04785,6.55652,6.55652,0,0,1,3.84961-1.23731Q759.0835,529.33789,760.49316,534.14844Zm-3.56738.91308q-.89795-2.82129-3.27637-2.82031a2.07888,2.07888,0,0,0-1.23046.37988,1.16091,1.16091,0,0,0-.53907.98829q0,1.52051,3.56739,1.5205Q756.23536,535.12988,756.92578,535.06152Z"/><path class="cls-3" d="M781.0791,533.54h-5.21191v1.75586h-3.42871V514.30957h8.64062Zm-3.3457-11.10156V516.9502h-1.86621v5.48828Zm0,8.47461v-6.09668h-1.86621v6.09668Zm11.40625,2.918-3.27637,1.71387q-1.5498-2.37744-3.48437-4.94922l2.53027-1.41015h-2.876v-2.917h9.66407v-2.15722h-9.9961v-3.05567h6.27735v-2.2666h-5.4336v-2.94531h5.4336v-2.77832H791.835l-.01367,2.77832h5.39258v2.94531h-5.39258l-.01367,2.2666H798.209v3.05567h-2.751v2.15722h2.18359v2.917H795.458v5.7373a2.80285,2.80285,0,0,1-.98242,2.28125,4.04653,4.04653,0,0,1-2.668.81543h-3.53907l-.45605-3.45605h3q.88476,0,.88477-.8291v-4.54883h-6.083A34.78754,34.78754,0,0,1,789.13965,533.83105Z"/><path class="cls-3" d="M807.2373,538.37891h-3.76074V526.53125q-.7749,1.23046-2.01855,2.875L799.05273,527.25a42.98,42.98,0,0,0,6.37305-14.06055l3.81543.64942a33.258,33.258,0,0,1-2.626,7.24511h.62207Zm19.20313-8.917q-.12451,2.93116-.3457,4.76954a8.7156,8.7156,0,0,1-.53907,2.4746,2.30031,2.30031,0,0,1-1.085,1.01661,3.80187,3.80187,0,0,1-1.708.37988,4.57587,4.57587,0,0,1-2.1709-.49024,8.99479,8.99479,0,0,1-2.32227-2.17773,17.14254,17.14254,0,0,1-2.52344-4.44531,31.91267,31.91267,0,0,1-1.79-6.64258l-5.98632.46973-.27637-3.42871,5.793-.44239q-.19482-2.07421-.19434-7.70019h3.85742q0,5.37744.19434,7.41015l8.29492-.62207.2627,3.37305-8.07422.63574a28.88957,28.88957,0,0,0,1.13379,4.293,17.28677,17.28677,0,0,0,1.59668,3.373,9.28865,9.28865,0,0,0,1.22363,1.71484.91619.91619,0,0,0,.53906.24219q.31788.01318.42188-.35254.104-.36621.51855-4.583Zm-.85742-11.35058-3.02735,2.07324q-1.59081-1.82373-4.70117-4.83887l2.7793-1.96289A45.74049,45.74049,0,0,1,825.583,518.11133Z"/><path class="cls-3" d="M855.51562,532.10254l-2.10156,4.06445a71.81422,71.81422,0,0,1-5.47558-4.67285,59.79294,59.79294,0,0,1-4.27149-4.417q-1.71533-1.998-4.74219-6.04883a.251.251,0,0,0-.207-.11035.24125.24125,0,0,0-.19433.11035q-2.98536,4.46631-4.94239,6.98926a56.24215,56.24215,0,0,1-4.00195,4.63769l-2.29492-3.05468a32.21269,32.21269,0,0,0,3.42187-4.14844q2.37012-3.20655,3.24122-4.52051.89941-1.43847,1.44531-2.20508a3.90853,3.90853,0,0,1,1.38965-1.21,4.10226,4.10226,0,0,1,1.93554-.44238,3.76641,3.76641,0,0,1,1.83106.45605,5.0789,5.0789,0,0,1,1.501,1.27246l1.36817,1.67286a80.91768,80.91768,0,0,0,5.61328,6.11718A65.93866,65.93866,0,0,0,855.51562,532.10254Z"/><path class="cls-3" d="M881.02344,537.64648q-4.36964.37354-8.40625.37305a48.548,48.548,0,0,1-7.8252-.40039,8.26939,8.26939,0,0,1-4.2998-2.06738,5.38337,5.38337,0,0,1-1.56153-4.03028q0-4.74169,6.93946-8.10156-.44238-4.76954-.46973-9.62207h4.02344l-.01367,1.24414v.415q0,3.06885.19336,6.373,3.19335-1.20264,9.4707-2.98633l1.16113,3.457a71.86427,71.86427,0,0,0-12.96191,4.40332q-4.5,2.20459-4.5,4.7207,0,3.07032,6.76074,3.06934h1.28613a97.73193,97.73193,0,0,0,10.03711-.59473Z"/><path class="cls-3" d="M894.33691,513.9502q-.09668,2.2119-.31738,4.05078h6.02735v3.30371h-6.5254a31.6928,31.6928,0,0,1-6.26269,14.07422l-3.02832-2.18457a27.98115,27.98115,0,0,0,5.35058-11.88965h-4.25781V518.001h4.83887a39.37911,39.37911,0,0,0,.31738-4.17578Zm17.04688,19.89453-2.0459,3.06933a32.83624,32.83624,0,0,0-4.61816-3.332,4.21811,4.21811,0,0,1-1.49317,3.55274q-1.49266,1.16161-4.92187,1.16113a8.10717,8.10717,0,0,1-4.58985-1.21582,3.84073,3.84073,0,0,1-1.82519-3.374,4.23189,4.23189,0,0,1,1.93555-3.65625,8.06637,8.06637,0,0,1,4.72851-1.34863,16.8555,16.8555,0,0,1,2.35059.15235v-7.17579h3.81543v8.21289A34.61811,34.61811,0,0,1,911.38379,533.84473Zm-10.47949-1.93555a11.25157,11.25157,0,0,0-2.35059-.23535,4.69987,4.69987,0,0,0-2.19141.47754,1.45587,1.45587,0,0,0-.91894,1.32031q0,1.74169,3.2207,1.74121,2.23976,0,2.24024-1.61719Zm10.67285-9.55371-3.02735,2.29492a41.24491,41.24491,0,0,0-3.99609-4.00879,30.48426,30.48426,0,0,0-4.2168-3.30469l2.32325-2.57129a27.608,27.608,0,0,1,4.56933,3.31153A39.213,39.213,0,0,1,911.57715,522.35547Z"/><path class="cls-3" d="M919.499,537.41113l-.62207-2.97168a55.00486,55.00486,0,0,0,7.54883-.74023,9.52935,9.52935,0,0,0,4.49317-1.9834,4.74259,4.74259,0,0,0,1.70019-3.78809,4.62063,4.62063,0,0,0-1.44434-3.55371,5.31826,5.31826,0,0,0-3.76757-1.34082q-3.19337,0-13.07813,1.86621l-.54-3.11035,7.41114-1.09277a50.39558,50.39558,0,0,1,6.26269-.63574,9.59709,9.59709,0,0,1,6.44922,2.05957,7.12547,7.12547,0,0,1,2.41309,5.72461Q936.3252,537.21826,919.499,537.41113Z"/><path class="cls-3" d="M964.21094,534.27344l-.19336,3.73242q-1.50732.041-2.00488.042a18.01456,18.01456,0,0,1-7.9502-1.43164,9.65941,9.65941,0,0,1-4.07812-3.45605,8.7018,8.7018,0,0,1-1.23047-4.61036q0-5.061,4.99121-9.31835l-12.291.124v-3.53906h24.65039v3.5664h-6.3457a13.57967,13.57967,0,0,0-4.93555,3.88574,8.18155,8.18155,0,0,0-1.93554,5.11524q0,5.97216,9.083,5.97266Q963.021,534.35645,964.21094,534.27344Z"/><path class="cls-3" d="M992.166,529.60059l-2.53028,2.37793a13.16689,13.16689,0,0,0-7.16211-2.32325,27.74077,27.74077,0,0,0-3.64941.18653,4.42992,4.42992,0,0,0-2.14942.83008,2.08574,2.08574,0,0,0-.82324,1.73437q0,2.36426,5.959,2.36426l1.46582-.01367h.30371q.69141,0,1.98437-.07618,1.292-.0747,6.03418-.68359l.13867,3.59375a78.00286,78.00286,0,0,1-8.19824.51172,31.484,31.484,0,0,1-6.8164-.55957,7.15585,7.15585,0,0,1-3.60157-1.8457,4.55013,4.55013,0,0,1-1.2373-3.291,4.77164,4.77164,0,0,1,2.55762-4.36816,13.75014,13.75014,0,0,1,6.94043-1.49317,22.43541,22.43541,0,0,1,4.38281.40039q-.457-.76024-1.10645-2.01855H971.04v-3.22071h12.11133q-.35889-.83056-.78809-2.15722H972.09082v-3.19336h9.457q-.22119-1.106-.51172-2.668l4.05078-.30469q.26221,1.812.51172,2.97266h7.89453v3.19336H986.4834q.2622.73389.8291,2.15722h7.50781v3.22071h-5.88965A26.0342,26.0342,0,0,0,992.166,529.60059Z"/><path class="cls-3" d="M1023.0791,533.89941l-2.05957,3.48438a29.8671,29.8671,0,0,0-7.28613-4.18945l.13867.59472a3.40821,3.40821,0,0,1,.11035.81543,2.80537,2.80537,0,0,1-1.915,2.56543,12.817,12.817,0,0,1-5.26074.87793,9.46832,9.46832,0,0,1-5.06641-1.2998,4.005,4.005,0,0,1-2.10839-3.56739,4.32409,4.32409,0,0,1,1.93554-3.71191,7.94975,7.94975,0,0,1,4.72754-1.376,20.70525,20.70525,0,0,1,3.51172.2627v-2.29492h-9.66406v-3.27637h9.66406v-2.69629H999.38281v-3.29h10.42383v-3h3.9541v3h9.77442v3.29h-9.77442v2.69629h8.32324v3.27637h-8.32324v3.31836A51.721,51.721,0,0,1,1023.0791,533.89941Zm-13.27246-.55273v-1.67285a12.96849,12.96849,0,0,0-2.93066-.46973,5.4056,5.4056,0,0,0-2.39844.49024,1.51284,1.51284,0,0,0-1.00293,1.376q0,1.604,3.44238,1.60352Q1009.80713,534.67383,1009.80664,533.34668Z"/><path class="cls-3" d="M1051.98828,526.26855q-1.79736,6.30322-4.97754,9.09668a11.931,11.931,0,0,1-8.1709,2.793,11.51417,11.51417,0,0,1-3.77343-.56054,7.31615,7.31615,0,0,1-2.64063-1.51368,7.14431,7.14431,0,0,1-1.57617-2.08007,7.66415,7.66415,0,0,1-.71973-2.39258,33.32593,33.32593,0,0,1-.165-3.91895q0-2.90331.59375-13.60449h4.13379q-.56689,9.55371-.5664,13.28613a27.24134,27.24134,0,0,0,.15918,3.85743,3.88927,3.88927,0,0,0,.71191,1.56933,3.48768,3.48768,0,0,0,1.59668,1.16113,7.01527,7.01527,0,0,0,2.55078.40821,7.509,7.509,0,0,0,5.585-2.28125q2.23975-2.28077,3.55371-7.2168Z"/><path class="cls-3" d="M1064.665,513.41016q.041.51268.042,1.7705,0,.94044-.05566,1.83789H1073.79v3.31836h-9.51172a39.24653,39.24653,0,0,1-2.29492,9.89942,30.34514,30.34514,0,0,1-4.2168,8.28125l-3.208-1.89453a30.408,30.408,0,0,0,3.70508-7.51367,40.84441,40.84441,0,0,0,2.10156-8.77247h-4.83886v-3.31836h5.07422q.10986-2.22509.11035-3.60839Zm15.71973,23.78027a42.39563,42.39563,0,0,1-6.55372.45605,33.7896,33.7896,0,0,1-4.99707-.32519,6.06117,6.06117,0,0,1-3.38086-1.5,3.71567,3.71567,0,0,1-1.23046-2.77832,6.43176,6.43176,0,0,1,2.26757-4.39649l2.94434,1.38184a4.86652,4.86652,0,0,0-1.36816,2.68262.91085.91085,0,0,0,.498.80176,5.57427,5.57427,0,0,0,2.00391.47656,30.01357,30.01357,0,0,0,3.415.17285,35.66549,35.66549,0,0,0,6.208-.53906Zm-.73243-15.374-.19433,3.29q-.78808-.041-1.64453-.041-4.6875,0-11.61328.63574l-.249-3.29a104.484,104.484,0,0,1,11.5166-.63574Q1078.79493,521.77539,1079.65234,521.81641Z"/><path class="cls-3" d="M1093.43555,533.665a4.13036,4.13036,0,0,1-1.38184,3.13086,4.97518,4.97518,0,0,1-6.69141,0,4.23685,4.23685,0,0,1,0-6.2627,4.97518,4.97518,0,0,1,6.69141,0A4.13389,4.13389,0,0,1,1093.43555,533.665Zm-2.69532-.01367a2.03062,2.03062,0,1,0-.59472,1.42383A1.94322,1.94322,0,0,0,1090.74023,533.65137Z"/></g></g></svg>