<svg id="レイヤー_1" data-name="レイヤー 1" xmlns="http://www.w3.org/2000/svg" xmlns:xlink="http://www.w3.org/1999/xlink" viewBox="0 0 1920 297.59379"><defs><style>.cls-1{fill:#97c45e;}.cls-2{fill:#fff;}.cls-3{fill:none;}.cls-3,.cls-4{stroke:#707070;}.cls-4{fill:url(#名称未設定グラデーション_2);}.cls-5{isolation:isolate;}.cls-6{fill:#464646;}</style><linearGradient id="名称未設定グラデーション_2" x1="-1.79828" y1="286.62317" x2="-0.79828" y2="286.62317" gradientTransform="matrix(145.95088, -106.08049, -62.04164, -85.36002, 18547.95778, 24386.15201)" gradientUnits="userSpaceOnUse"><stop offset="0" stop-color="#eac849"/><stop offset="0.27" stop-color="#fff8ac"/><stop offset="0.583" stop-color="#ac8506"/><stop offset="0.822" stop-color="#fff1a9"/><stop offset="1" stop-color="#eac849"/></linearGradient></defs><rect id="長方形_106" data-name="長方形 106" class="cls-1" y="12.59379" width="1920" height="285"/><g id="グループ_168" data-name="グループ 168"><g id="グループ_159" data-name="グループ 159"><g id="グループ_9" data-name="グループ 9"><g id="長方形_8" data-name="長方形 8"><path class="cls-2" d="M648.52524,37.93439h585.232a101.20574,101.20574,0,0,1,101.206,101.2055h0a101.20574,101.20574,0,0,1-101.206,101.2055h-585.232a101.20575,101.20575,0,0,1-101.206-101.2055h0A101.20575,101.20575,0,0,1,648.52524,37.93439Z" transform="translate(0.09677 10.24851)"/><path class="cls-3" d="M648.52524,38.43439h585.232a100.70573,100.70573,0,0,1,100.706,100.7055h0a100.70573,100.70573,0,0,1-100.706,100.7055h-585.232a100.70575,100.70575,0,0,1-100.706-100.7055h0A100.70575,100.70575,0,0,1,648.52524,38.43439Z" transform="translate(0.09677 10.24851)"/></g><g id="グループ_8" data-name="グループ 8"><path id="パス_8" data-name="パス 8" class="cls-4" d="M623.43424,75.94962q5.758-3.00553,11.72031-5.6193l-5.71261-5.21964.78266-8.03408q-6.58328,2.81412-12.93913,6.09593l6.22437,4.76362ZM611.51182,82.747l-6.88051-4.36337-.59619-7.71808Q597.67393,74.583,591.63307,78.965l6.9078,3.5844,1.32942,8.00734Q605.54757,86.43654,611.51182,82.747ZM633.2415,9.15787l4.01278,7.58268L622.64336,44.16241l-9.436-31.604,4.92985-10.398-8.75019-11.4538L603.20959,3.72746l6.98608,9.14063-3.44052,42.726L584.55947,19.55153l2.071-11.31709L575.21454-.55733l-2.594,14.17989,9.114,7.01786,7.27462,39.64982L559.11238,32.04573l-.93016-11.47253L544.875,15.03779l1.1649,14.3607,10.62485,4.42374,17.63554,37.15623L538.83486,51.82088l-3.86477-10.8356L520.68228,39.078l4.84456,13.57171,11.40291,1.52394,27.43233,32.23645-41.70315-9.91084L516.121,67.03288,501.83,68.889l8.19118,11.8601,11.412-1.47959L548.58184,97.992l-30.59438,5.43441-5.97461-6.15678-13.50085,7.4154,53.70581,8.82039,16.0489,14.984a190.45842,190.45842,0,0,1,77.308-56.18928q-4.64871-9.94436-9.29941-19.88974l8.18755-53.80591ZM609.94834-6.451,607.001,3.01056l2.10672,5.43822L605.32426,3.3811Zm-35.11806,19.3749L576.5094,2.19211l-.17527,9.9108,3.54557,4.62981ZM526.86176,50.94133l-3.9972-10.10262,4.87646,8.63148,5.40482,2.18674Zm-15.993,27.80321-6.47364-8.723,6.94193,7.07089,5.78974.71759Zm-9.33546,25.45693,9.90689-.28429,3.1192,2.02063ZM553.656,30.41573l-5.88088-2.32291L546.5263,17.29946l2.47763,9.59732Zm81.74756,24.52745c-1.67468.66084-3.3388,1.34984-4.99033,2.05443l5.961,5.45082-.74881,7.6707q2.94026-1.279,5.92855-2.45444l1.35083,3.41843a185.80879,185.80879,0,0,0-74.97407,54.4929l-2.83293-2.34121q2.03338-2.47567,4.16293-4.88027l-7.52786-1.65627-3.34307-7.35359q-1.77083,2.0289-3.49285,4.11135l-2.83557-2.338a203.23591,203.23591,0,0,1,81.993-59.59439Zm2.795-39.59618-2.25467-5.91054,7.12494-8.1978-5.41393,8.30308ZM579.14983,88.796q-5.43786,4.64349-10.5337,9.67761l7.46794,2.34272,2.66617,7.56368q4.77375-4.65906,9.86-8.97655l-7.52677-3.10237Zm12.10624-9.557q-6.02882,4.39177-11.72534,9.23564l7.15718,2.9494,2.02652,7.89137q5.35-4.53139,11.02179-8.66246l-7.20438-3.73729Zm-22.94179,19.527q-5.07483,5.03241-9.79032,10.42312l7.88173,1.73659,3.20229,7.04421q4.31865-4.85991,8.96258-9.41351l-7.64837-2.397ZM611.628,82.67367q5.673-3.50511,11.58288-6.60617l-6.37117-4.872.07517-7.82524q-6.3546,3.292-12.45485,7.031l6.53874,4.15679Z" transform="translate(0.09677 10.24851)"/></g><g id="グループ_6" data-name="グループ 6"><g id="L-FIND" class="cls-5"><g class="cls-5"><path class="cls-6" d="M728.22852,195.93457H713.417V174.59473h4.67285v17.7998h10.13868Z" transform="translate(0.09677 10.24851)"/><path class="cls-6" d="M738.0415,188.31641H727.73291v-3.65332H738.0415Z" transform="translate(0.09677 10.24851)"/><path class="cls-6" d="M757.12939,178.13574H746.84912v4.74317h9.31738v3.52636h-9.28906v9.5293h-4.67285V174.59473h14.9248Z" transform="translate(0.09677 10.24851)"/><path class="cls-6" d="M770.72314,195.93457H759.0835V192.749h3.48339V177.78125H759.0835v-3.18652h11.63964v3.18652h-3.48339V192.749h3.48339Z" transform="translate(0.09677 10.24851)"/><path class="cls-6" d="M793.22363,195.93457H788.7207l-9.57226-15.64648v15.64648h-4.333V174.59473h5.66406l8.41113,13.793v-13.793h4.333Z" transform="translate(0.09677 10.24851)"/><path class="cls-6" d="M798.293,195.93457V174.59473h6.66943a17.35806,17.35806,0,0,1,7.06592,1.16211,8.95219,8.95219,0,0,1,4.00049,3.56836,11.27717,11.27717,0,0,1,1.46533,5.96093,11.06277,11.06277,0,0,1-1.522,5.77051,9.03837,9.03837,0,0,1-4.07129,3.7168,16.85822,16.85822,0,0,1-6.88184,1.16113Zm4.67285-17.9834V192.5791h2.29395q7.34911,0,7.34912-7.33594,0-7.292-7.34912-7.292Z" transform="translate(0.09677 10.24851)"/></g></g><g id="エルファインド" class="cls-5"><g class="cls-5"><path class="cls-6" d="M779.0249,144.52441H712.36865v-9.70312H740.2124V101.10645H716.76318V91.68457H774.2085v9.42188H751.4624v33.71484h27.5625Z" transform="translate(0.09677 10.24851)"/><path class="cls-6" d="M808.62646,108.10254q.07032,16.52343-5.44921,25.89258T786.23193,148.708l-4.11328-8.57813a26.697,26.697,0,0,0,11.84766-11.16211q4.14771-7.40038,4.14844-22.51757V89.8916h10.51171Zm45.21094,11.32031a54.57522,54.57522,0,0,1-13.623,18.05274,45.2156,45.2156,0,0,1-19.002,9.93164l-4.18359-3.44532V87.81738h10.51172v45.87891q10.79223-5.30859,18.14062-20.63672Z" transform="translate(0.09677 10.24851)"/><path class="cls-6" d="M918.84131,89.61035q0,17.89454-5.4668,30.44531a39.958,39.958,0,0,1-17.70117,19.3711q-12.23437,6.82031-29.53125,8.36719l-2.8125-9.38672q14.76563-1.51173,24.67969-6.73243t14.0625-12.9375q4.14769-7.7168,5.27343-20.05664h-44.4375V89.61035Z" transform="translate(0.09677 10.24851)"/><path class="cls-6" d="M988.97852,100.89551a35.61073,35.61073,0,0,1-2.3379,6.1875q-1.56444,3.26953-2.61914,5.02734a34.3286,34.3286,0,0,1-3.48046,4.53516,60.64272,60.64272,0,0,1-6.0293,5.88867,51.58294,51.58294,0,0,1-7.25977,5.291l-4.71093-6.1875a35.68818,35.68818,0,0,0,8.80664-6.94336,39.43208,39.43208,0,0,0,6.416-8.73633H933.9585V98.54h52.1372Zm-26.50782,8.29687a97.47087,97.47087,0,0,1-1.125,17.03321,27.79356,27.79356,0,0,1-13.74658,19.05468,37.22625,37.22625,0,0,1-9.94922,4.09571l-3.23437-6.9961q11.84693-3.86718,15.46875-10.65234a32.57678,32.57678,0,0,0,3.62109-15.57422v-.91406l-.03516-6.04688Z" transform="translate(0.09677 10.24851)"/><path class="cls-6" d="M1043.541,147.61816h-10.793V115.73145a130.99188,130.99188,0,0,1-29.21485,10.582l-3.23437-9.21094a106.87729,106.87729,0,0,0,32.27344-13.043q13.71093-8.61328,20.77734-19.793l10.23047,3.90235A78.22026,78.22026,0,0,1,1053.52539,100.79a80.28228,80.28228,0,0,1-9.98437,8.22656Z" transform="translate(0.09677 10.24851)"/><path class="cls-6" d="M1111.252,102.61816l-6.43359,8.71875q-5.20312-3.33984-9.22852-5.625-4.02686-2.28515-18.19336-9.42187l5.55469-8.05078Q1093.99024,92.6338,1111.252,102.61816Zm28.51172,8.57813q-8.93115,16.48828-23.30859,25.13672-14.37891,8.64843-36.38672,10.793l-2.39063-9.84375a95.01891,95.01891,0,0,0,20.03907-3.65625,52.949,52.949,0,0,0,14.04492-6.73243,70.924,70.924,0,0,0,10.26562-8.47265,68.51061,68.51061,0,0,0,9.29883-12.84961Z" transform="translate(0.09677 10.24851)"/><path class="cls-6" d="M1210.39258,121.28613l-6.64453,8.332a131.08091,131.08091,0,0,0-31.043-15.67968v34.27734h-11.07422V84.794h11.17969v18.77343Q1190.59961,109.29786,1210.39258,121.28613Zm-14.90625-20.46093-5.13281,1.96875q-2.88282-7.13673-4.81641-10.82813l4.957-1.93359A116.17014,116.17014,0,0,1,1195.48633,100.8252ZM1206.13867,98.54l-5.0625,1.86328q-2.46093-6.15234-4.8164-10.793l4.8164-1.793Q1203.95752,93.33691,1206.13867,98.54Z" transform="translate(0.09677 10.24851)"/></g></g></g></g><line id="線_2" data-name="線 2" class="cls-3" x1="850.33302" y1="199.44084" x2="1180.35103" y2="200.54084"/></g><g id="強み" class="cls-5"><g class="cls-5"><path class="cls-6" d="M1301.02246,194.75781H1284.6748l-.74707,8.74512h17.00684v3.82324q0,11.77734-.59277,19.75391-.59326,7.9746-1.626,10.65625a10.3288,10.3288,0,0,1-3.93359,4.70215,12.3797,12.3797,0,0,1-7.251,2.02148h-10.415l-1.80176-10.10742h8.96485a5.21646,5.21646,0,0,0,2.85644-.68066,3.38045,3.38045,0,0,0,1.42871-2,43.59621,43.59621,0,0,0,.76856-6.24024q.39551-4.92187.52734-12.832h-6.72363l-.35156,4.48242h-10.81055l2.15332-30.9375h15.82031V176.96h-17.3584v-9.09668h28.43262Zm42.49512,44.56055q-13.18359,2.15332-40.69336,5.05371l-2.24121-10.459q7.91016-.30762,21.79687-1.53809V220.86133h-6.5039v2.06543h-10.67871V195.06543h17.18261v-4.57031L1303.835,191.5498l-1.18652-9.624,7.91015-.17578a150.76446,150.76446,0,0,0,7.95411-17.8418l12.39257,2.50489a164.02613,164.02613,0,0,1-8.17382,14.9414l14.98535-.70312q-2.8125-4.043-5.44922-7.64649l9.18457-4.52636q11.51367,13.49121,15.0293,20.25878l-10.28321,5.2295q-1.18651-2.24121-3.03222-5.1416-3.03223.35156-9.09668.835v5.40527H1351.999v25.7959h-17.92968v10.37109q1.97754-.21972,5.93261-.74707l-2.76855-6.72363,10.32715-2.28516q1.40625,2.373,4.61425,9.47071,3.208,7.09716,4.57032,11.05175l-11.25,2.72461Q1344.35254,241.42774,1343.51758,239.31836Zm-21.1377-35.63965h-6.416v8.56934h6.416Zm18.36914,8.56934v-8.56934h-6.67968v8.56934Z" transform="translate(0.09677 10.24851)"/><path class="cls-6" d="M1448.15137,208.5127,1444.46,219.98242l-9.97558-3.73535a46.73121,46.73121,0,0,1-23.59864,29.707l-7.4707-7.99805q8.65722-6.06444,12.96387-12.06347a37.50315,37.50315,0,0,0,6.06445-13.77637,114.9365,114.9365,0,0,0-19.11621-4.39453q-13.79883,31.94825-29.22363,31.94824a12.01477,12.01477,0,0,1-9.44825-4.19726,15.04562,15.04562,0,0,1-3.6914-10.30469q0-10.50292,9.14062-19.6875t23.37891-9.18457h.70312a105.67813,105.67813,0,0,0,2.94434-15.11719H1371.291v-10.459h37.88086l1.71386,1.88965a114.71307,114.71307,0,0,1-3.999,24.69726,134.533,134.533,0,0,1,17.13867,3.64746q.21974-3.208.21973-9.4043,0-2.417-.04395-5.22949h12.78809l.04394,7.47071q.04395,6.19629-.3955,10.89843Zm-57.74414-1.53809a17.72652,17.72652,0,0,0-10.12891,3.8457,19.28108,19.28108,0,0,0-5.88867,7.47071,18.30643,18.30643,0,0,0-1.69238,6.65722q0,2.76856,1.66992,2.76856Q1381.70606,227.7168,1390.40723,206.97461Z" transform="translate(0.09677 10.24851)"/></g></g></g></svg>