<svg id="レイヤー_1" data-name="レイヤー 1" xmlns="http://www.w3.org/2000/svg" viewBox="0 0 1344 114"><defs><style>.cls-1{fill:#ffd200;}.cls-2{isolation:isolate;}.cls-3{fill:#f15b55;}.cls-4{fill:#464646;}</style></defs><rect class="cls-1" width="1344" height="114"/><g id="月50万円_の副収入を目指すために" data-name="月50万円 の副収入を目指すために" class="cls-2"><g class="cls-2"><path class="cls-3" d="M162.55371,84.499a7.15421,7.15421,0,0,1-3.18848,6.08692,11.84665,11.84665,0,0,1-7.0913,2.29883H139.52051L138.3999,82.2959h10.12549a2.557,2.557,0,0,0,1.60352-.75293,2.04658,2.04658,0,0,0,.86963-1.44922V69.0791H118.1499A47.19414,47.19414,0,0,1,112.604,83.166a38.1538,38.1538,0,0,1-9.33252,10.83984l-7.38134-6.56934a33.391,33.391,0,0,0,8.11523-10.99511,49.052,49.052,0,0,0,3.42041-10.87891,73.26718,73.26718,0,0,0,.9082-12.55957V26.106h54.21973Zm-11.55517-24.501V51.34082H119.34766q0,4.59961-.23194,8.65723Zm0-17.12012V35.03271H119.34766v7.84522Z"/><path class="cls-3" d="M180.13721,87.24316V76.19043h1.27539q8.46313,4.94677,15.96045,4.94629,12.98511,0,12.98486-10.47266a7.73653,7.73653,0,0,0-3.59375-6.83984q-3.59472-2.39649-10.62793-2.39649A56.24109,56.24109,0,0,0,183.88574,63.167h-1.42969V31.24561h39.57276v9.46826H194.436v11.9414q4.4436-.26952,6.53125-.2705,10.89769,0,16.61718,4.73437T223.3042,70.2002a18.66752,18.66752,0,0,1-6.56982,14.85937q-6.57057,5.66161-17.81543,5.66113A48.97659,48.97659,0,0,1,180.13721,87.24316Z"/><path class="cls-3" d="M254.68408,90.7207q-11.86451,0-17.40967-7.207-5.54589-7.207-5.54589-23.1289,0-15.76758,5.56494-23.03321,5.56567-7.26489,17.39062-7.26513,11.82569,0,17.39063,7.2456,5.56494,7.24659,5.56494,23.01367,0,16.03858-5.52637,23.207Q266.58643,90.72168,254.68408,90.7207Zm0-51.62988a7.97566,7.97566,0,0,0-7.74853,5.08154q-2.33863,5.08228-2.33789,16.25049,0,11.12988,2.396,16.23145,2.39576,5.10058,7.69043,5.10058,5.29395,0,7.69043-5.17773,2.39576-5.17823,2.396-16.23145,0-11.12988-2.33789-16.19238A7.97677,7.97677,0,0,0,254.68408,39.09082Z"/><path class="cls-3" d="M315.43506,36.84912q0,6.68628-.07715,10.24121h35.66992q0,13.99-.61816,22.9751-.6189,8.98389-1.93262,13.17773a12.02657,12.02657,0,0,1-4.94629,6.6084,16.44,16.44,0,0,1-9.27539,2.415H322.082l-1.58447-10.125h11.86426q4.40551,0,5.95166-4.61816,1.5454-4.61719,1.5459-21.66114h-24.8877q-1.73951,13.10157-8.17383,22.20215a49.58882,49.58882,0,0,1-17.79639,15.09082l-5.71923-7.84472a43.11575,43.11575,0,0,0,15.458-14.45313q5.565-8.811,5.565-23.65137,0-1.12061-.03858-2.27978V36.84912H285.75537V27.61279h70.91455v9.23633Z"/><path class="cls-3" d="M422.09668,64.249H378.814V94.00586H367.41357V27.84473h65.9292V85.00195a7.00626,7.00626,0,0,1-3.05322,5.89258,11.8027,11.8027,0,0,1-7.22656,2.26074H410.77393l-1.23682-10.16308H419.585q2.51148,0,2.51172-2.126ZM378.814,55.24414h15.49659V36.96533H378.814Zm26.74268,0h16.54V36.96533h-16.54Z"/></g><g class="cls-2"><path class="cls-4" d="M515.8125,54.50977q-3.36329,7.73-6.72461,11.47851-6.06738,6.80127-13.29394,6.80078-7.65235,0-19.8252-9.27441a59.66009,59.66009,0,0,0-6.02881-4.21289,14.4391,14.4391,0,0,0-6.99463-1.93164q-3.74926,0-7.53613,4.55957a27.16061,27.16061,0,0,0-4.56006,8l-8.23144-3.2461q3.323-7.72851,6.56982-11.40039,6.06664-6.80127,13.603-6.80175a21.36454,21.36454,0,0,1,10.24121,2.78222,92.68323,92.68323,0,0,1,8.84961,6.06738q8.84911,6.57129,13.75781,6.57032,4.59888,0,9.08154-7.34278,1.08107-1.70069,2.85938-5.29492Z"/></g><g class="cls-2"><path class="cls-4" d="M548.0293,94.39746l-2.22461-7.51465q11.93262-1.32275,17.94531-5.501,6.01026-4.17774,6.01074-12.47364,0-6.94335-4.32812-11.13672-4.32861-4.19238-11.99317-4.91406-.63135,16.83252-6.29687,27.27735-5.666,10.44579-14.2627,10.44531-5.59131,0-9.04687-5.27539a21.519,21.519,0,0,1-3.457-12.06836v-.751q0-10.40038,8.37109-18.41015,8.37158-8.01051,21.11621-8.61182h1.23242q12.17286,0,20.00293,6.17724,7.8296,6.17579,7.8291,16.78711,0,11.63234-7.88964,18.21485Q563.14844,93.22412,548.0293,94.39746Zm-3.03614-40.668a21.32593,21.32593,0,0,0-11.49707,7.09375,18.19273,18.19273,0,0,0-4.73437,12.14258,16.60517,16.60517,0,0,0,1.17285,6.3125q1.17188,2.88575,3.27637,2.88574,4.23778,0,7.69433-8.23633Q544.36083,65.69239,544.99316,53.72949Z"/></g><g class="cls-2"><path class="cls-3" d="M629.542,34.10547H584.17188V26.26025H629.542Zm-12.13476,56.5H595.418V93.001h-9.9707V58.64551h42.27832V93.001H617.40723Zm8.50195-35.36133H587.34082V37.27441h38.56836ZM601.833,66.14258h-6.415v5.13965h6.415Zm-6.415,17.043h6.415V77.543h-6.415ZM615.93848,48.6748V43.68945H597.38867V48.6748Zm1.46875,22.60743V66.14258h-6.377v5.13965Zm-6.377,11.90332h6.377V77.543h-6.377Zm29.25489-7.30469h-9.00391V28.88818h9.00391Zm13.874,9.66211a6.66277,6.66277,0,0,1-2.43457,5.2168,8.2222,8.2222,0,0,1-5.56543,2.125h-9.42969l-1.27539-9.15821h6.26074q2.85938,0,2.86036-2.39648V24.13477h9.584Z"/><path class="cls-3" d="M682.9502,76.73145q-9.854,2.937-20.25,4.94628l-1.97071-9.73828q2.58838-.38671,5.3711-.88867V30.5498h9.9707v38.375q3.9419-.92724,6.87891-1.70019v-43.167h10.35742V93.85156H682.9502Zm50.58691-48.96387a90.71517,90.71517,0,0,1-2.78223,22.39453,65.76208,65.76208,0,0,1-8.5791,18.87891,85.89727,85.89727,0,0,0,15.30371,14.14453l-7.11133,9.23633A128.363,128.363,0,0,1,715.64453,77.543a95.7709,95.7709,0,0,1-16.54,14.80078L693.53906,84.499a73.92206,73.92206,0,0,0,16.03809-15.26464,74.87384,74.87384,0,0,1-11.01367-32.92627h-3.01465l.07715-8.54053ZM715.56738,60.03613a51.49138,51.49138,0,0,0,6.72364-23.728H708.5332a101.90316,101.90316,0,0,0,1.95215,10.55029,68.4461,68.4461,0,0,0,2.16406,6.70508A59.04923,59.04923,0,0,0,715.56738,60.03613Z"/><path class="cls-3" d="M779.64062,62.50977A56.239,56.239,0,0,1,766.94629,80.3252,76.18306,76.18306,0,0,1,746.29,93.61914l-5.333-8.61719A53.72588,53.72588,0,0,0,763.2168,68.63477a49.07728,49.07728,0,0,0,10.125-24.98389V35.6123l-19.168-.07714V26.26025H784.665q.03809.96681.03808,2.08692v7.03369a63.82151,63.82151,0,0,0,1.41114,13.6416,45.15613,45.15613,0,0,0,5.21679,12.71484,53.36654,53.36654,0,0,0,9.71973,12.11524,82.58958,82.58958,0,0,0,14.41406,10.56934l-7.6123,9.043q-11.82568-8.19286-18.2793-15.748A64.99891,64.99891,0,0,1,779.64062,62.50977Z"/></g><g class="cls-2"><path class="cls-4" d="M859.01855,84.749h-8.5664l.0293-11.81347q-10.73,5.26171-10.73047,9.8291,0,4.53955,10.33984,4.53906l3.33691-.03027a152.45394,152.45394,0,0,0,20.43946-.99219l.41992,7.51465q-8.44629.81152-16.56152.81152-15.59913,0-20.91993-2.66015-5.3203-2.66016-5.32031-8.22071,0-9.13623,17.46387-17.94433a2.804,2.804,0,0,0-2.34473-.99219,17.219,17.219,0,0,0-7.04883,2.01465,43.60086,43.60086,0,0,0-9.51269,6.64258q-3.668,3.24609-5.26074,4.38769l-5.2295-5.65039a55.60951,55.60951,0,0,0,15.81055-17.31348h-12.835V47.74756h15.96094a51.49662,51.49662,0,0,0,1.89355-6.82276l8.83692.481q-.8423,3.72729-1.71387,6.3418h19.83789v7.12353H844.62109q-.78222,1.563-2.88574,4.80957a18.3919,18.3919,0,0,1,5.77051-.99218q6.13184,0,8.83691,3.78711,3.90821-1.6831,16.47168-6.61231l3.5166,7.15332q-5.92089,2.01417-17.67382,6.3125A36.71155,36.71155,0,0,1,858.958,74.168Z"/><path class="cls-4" d="M925.38477,92.20312H894.48633V94.668h-8.74707V42.93848h48.39258V94.668h-8.74707Zm0-35.64843V50.0918H894.48633v6.46289ZM894.48633,70.53125h30.89844V63.31738H894.48633Zm0,14.39746h30.89844v-7.4541H894.48633Z"/><path class="cls-4" d="M963.97949,70.71191a57.0949,57.0949,0,0,1-5.53027,1.89356V88.86621a5.36024,5.36024,0,0,1-1.999,4.46387A7.87641,7.87641,0,0,1,951.416,94.9082h-7.00391l-.93164-7.0332h4.92969q2.01268,0,2.01367-1.77344V74.7998l-6.7627,1.7129-1.5332-7.03321q2.61474-.331,8.2959-1.623V57.24609h-7.06348V51.02441h7.06348V40.74414h8.02539V51.02441h5.10937v6.22168h-5.10937v8.626q3.36621-.90089,4.83887-1.44238Zm25.09863,21.85157h-15.751V94.4873h-8.05469V66.834h32.13086V94.4873h-8.3252Zm9.97852-34.957a5.13561,5.13561,0,0,1-2.61523,4.71875q-2.61475,1.56444-14.48731,1.56347-3.84815,0-8.50586-.28515-4.65966-.28565-6.38769-1.84864a5.61416,5.61416,0,0,1-1.72852-4.38867V40.624h8.11621v5.89112q15.0879-2.855,20.499-5.41016l4.26757,6.22168q-6.40135,2.61548-24.7666,5.59131v2.28418a1.62808,1.62808,0,0,0,.29981,1.02148,1.42168,1.42168,0,0,0,.87207.51172,25.40552,25.40552,0,0,0,2.79492.24024q2.2251.12011,5.4707.12011,7.57471,0,8.40137-.752.82617-.75.82617-6.43164l6.94336.78125Zm-9.97852,19.32714v-3.9375h-15.751v3.9375Zm-15.751,9.52832h15.751v-3.998h-15.751Z"/><path class="cls-4" d="M1061.18555,53.75879h-17.8545v11.3623q1.71387,3.36621,1.71387,9.22754,0,9.1377-6.418,14.6836-6.41748,5.54444-17.14746,6.23632l-2.10449-7.27343q13.22607-1.02246,16.68262-9.46875a12.95946,12.95946,0,0,1-7.81543,2.46484,12.77978,12.77978,0,0,1-8.82129-3.1709,10.39412,10.39412,0,0,1-3.5625-8.13086,12.03952,12.03952,0,0,1,3.77246-9.13672,13.2364,13.2364,0,0,1,9.4834-3.57714,14.79916,14.79916,0,0,1,5.35058.99218v-4.209h-29.42675V46.60547h29.42675V40.59375h8.86621v6.01172h17.8545ZM1034.585,67.43555l-.06055-1.6836q-1.47363-2.07421-5.35058-2.07324a4.97756,4.97756,0,0,0-3.65137,1.69824,5.25208,5.25208,0,0,0-1.63867,3.71192,4.889,4.889,0,0,0,1.21777,3.39648,4.03284,4.03284,0,0,0,3.14063,1.35254,6.17542,6.17542,0,0,0,4.61426-1.75879A6.3366,6.3366,0,0,0,1034.585,67.43555Z"/><path class="cls-4" d="M1087.877,41.04492q.09082,1.11255.09082,3.84717,0,2.04492-.12011,3.99756h19.86816v7.21387h-20.67969A85.22666,85.22666,0,0,1,1082.0459,77.625q-4.147,11.54151-9.167,18.00488l-6.97364-4.11816a66.17924,66.17924,0,0,0,8.05567-16.33692,88.92583,88.92583,0,0,0,4.56836-19.07128h-10.52051V48.88965H1079.04q.24024-4.83839.24121-7.84473Zm34.17578,51.69922a92.04366,92.04366,0,0,1-14.24707.99219,73.589,73.589,0,0,1-10.86621-.707,13.18047,13.18047,0,0,1-7.34863-3.26075,8.07967,8.07967,0,0,1-2.67578-6.042q0-4.62891,4.92969-9.55859l6.40234,3.00586q-2.9751,3.6372-2.97559,5.83105a1.98261,1.98261,0,0,0,1.082,1.74414,12.204,12.204,0,0,0,4.35839,1.03614,65.60759,65.60759,0,0,0,7.42383.376,77.53315,77.53315,0,0,0,13.4961-1.17187ZM1120.46,59.32031l-.4209,7.15332q-1.71387-.09081-3.57715-.08984-10.18944,0-25.248,1.38183l-.541-7.15332a227.06713,227.06713,0,0,1,25.03809-1.38281Q1118.59669,59.22949,1120.46,59.32031Z"/><path class="cls-4" d="M1157.40039,82.52441l-5.86133,4.86914-1.47265-1.833q-6.61377,6.01171-12.29395,6.01074a9.09663,9.09663,0,0,1-7.16894-3.21582,11.5424,11.5424,0,0,1-2.80957-7.875q0-11.39209,9.31738-19.29688a107.682,107.682,0,0,1-3.36621-13.49609l8.20508-2.104a104.32069,104.32069,0,0,0,2.25488,11.00146A40.38463,40.38463,0,0,1,1156.4082,52.707q.24024-3.9375.24024-10.48974l8.92773.06005a99.76241,99.76241,0,0,1-.45117,10.03907q8.95752.72216,14.5625,6.22168a18.78655,18.78655,0,0,1,5.60645,14.00683q0,9.61964-6.94336,15.41992-6.94336,5.80079-21.46094,7.06348l-1.77344-7.0332q11.87256-1.563,16.56152-5.39551a12.60792,12.60792,0,0,0,4.68848-10.29492,12.3085,12.3085,0,0,0-3.41113-8.91211,13.72276,13.72276,0,0,0-8.94238-4.043,52.212,52.212,0,0,1-8.68653,20.37988Q1156.40869,81.23243,1157.40039,82.52441ZM1145.708,79.48828a90.42662,90.42662,0,0,1-5.44043-10.9707,17.93412,17.93412,0,0,0-4.29883,11.96289,3.80834,3.80834,0,0,0,.752,2.31445,2.26575,2.26575,0,0,0,1.89356,1.02149Q1141.68017,83.81641,1145.708,79.48828Zm.63086-16.02051a69.10784,69.10784,0,0,0,4.29883,9.1377,40.26978,40.26978,0,0,0,4.86914-12.624A29.42419,29.42419,0,0,0,1146.33887,63.46777Z"/><path class="cls-4" d="M1204.9209,43.87012q-3.81738,13.79736-3.81738,23.23437a93.52017,93.52017,0,0,0,3.36621,25.09863l-8.2959,1.89356a97.72457,97.72457,0,0,1-3.2461-24.55762,110.08331,110.08331,0,0,1,3.54688-26.84082Zm38.835,48.00195q-7.36524.69141-12.59473.69141-13.1953,0-18.0039-3.05078a9.72062,9.72062,0,0,1-4.80957-8.70118q0-6.52294,6.16211-12.86523l6.64257,3.54687q-4.83984,4.50879-4.83984,9.04786,0,2.13428,2.52539,3.38086,2.52393,1.248,10.46,1.248,4.02686,0,14.15723-.87207ZM1243.09375,54.21l-2.52441-.03027q-3.9375-.06006-13.0752.15039-9.1377.21093-17.7041.81152v-7.334q20.31885-.99171,28.13379-.9917,3.126,0,5.16992.18017Z"/></g></g></svg>