<svg id="レイヤー_1" data-name="レイヤー 1" xmlns="http://www.w3.org/2000/svg" xmlns:xlink="http://www.w3.org/1999/xlink" viewBox="0 0 1887 414.24376"><defs><style>.cls-1{fill:none;}.cls-2{fill:#fff;}.cls-3{fill:#f15b55;}.cls-4{isolation:isolate;}.cls-5{fill:#464646;}.cls-6{fill:#c1cad1;}.cls-10,.cls-11,.cls-12,.cls-13,.cls-14,.cls-15,.cls-16,.cls-17,.cls-18,.cls-19,.cls-20,.cls-21,.cls-22,.cls-23,.cls-24,.cls-25,.cls-26,.cls-27,.cls-28,.cls-29,.cls-30,.cls-31,.cls-32,.cls-33,.cls-34,.cls-6,.cls-7,.cls-8,.cls-9{fill-rule:evenodd;}.cls-7{fill:#001e30;}.cls-8{fill:#f1b287;}.cls-9{fill:#e8a476;}.cls-10{fill:#001624;}.cls-11{fill:#111214;}.cls-13{fill:#20232e;}.cls-14{fill:#00101a;}.cls-15{fill:#00263d;}.cls-16{fill:#003454;}.cls-17{fill:#db9669;}.cls-18{fill:#361d07;}.cls-19{fill:#241304;}.cls-20{fill:#4a2b12;}.cls-21{fill:#cee6f5;}.cls-22{fill:#041e2e;}.cls-23{fill:#e8f6ff;}.cls-24{fill:#4f260d;}.cls-25{fill:#8f4c22;}.cls-26{fill:#6e3715;}.cls-27{fill:#783c18;}.cls-28{fill:#85451d;}.cls-29{fill:#f2930e;}.cls-30{fill:#ffd563;}.cls-31{fill:#ffc526;}.cls-32{fill:#8c491f;}.cls-33{fill:#854219;}.cls-34{fill:#002b45;}.cls-35{clip-path:url(#clip-path);}.cls-36{fill:#5dadec;}</style><clipPath id="clip-path" transform="translate(0)"><rect class="cls-1" x="1457.5905" y="51.84718" width="52.758" height="52.758" transform="translate(379.33034 1072.23681) rotate(-45)"/></clipPath></defs><rect class="cls-2" width="1887" height="414"/><g id="グループ_158" data-name="グループ 158"><g id="グループ_152" data-name="グループ 152"><ellipse id="楕円形_4" data-name="楕円形 4" class="cls-3" cx="441.00152" cy="69.83592" rx="163" ry="69.5"/><g id="CASE.01" class="cls-4"><g class="cls-4"><path class="cls-2" d="M363.5249,81.96875a34.191,34.191,0,0,1-7.07812,2.55469,26.25813,26.25813,0,0,1-5.0625.51562q-8.10937,0-12.77344-4.82812t-4.66406-13.47656q0-8.48439,4.72265-13.44141t12.73828-4.957A26.63226,26.63226,0,0,1,363.5249,51.3125v7.24219h-.82031q-5.50782-4.6875-10.42969-4.6875a9.10587,9.10587,0,0,0-7.45312,3.36328q-2.74219,3.36329-2.74219,9.52734,0,6.11719,2.78906,9.4336a9.2443,9.2443,0,0,0,7.45313,3.3164,13.65129,13.65129,0,0,0,4.75781-.85547,19.97933,19.97933,0,0,0,5.69531-3.80859h.75Z" transform="translate(0)"/><path class="cls-2" d="M400.228,84.33594h-8.17969l-2.67188-7.66406H375.478l-2.67188,7.66406H364.978L378.314,49.01562h8.57813ZM387.43115,71.1875l-4.99219-14.25-4.99218,14.25Z" transform="translate(0)"/><path class="cls-2" d="M402.40771,82.22656V74.75h.79688a20.8499,20.8499,0,0,0,6.03516,3.42188,18.8026,18.8026,0,0,0,6.55078,1.26562,10.28832,10.28832,0,0,0,5.25-1.17188,3.61872,3.61872,0,0,0,1.99218-3.25781,3.50821,3.50821,0,0,0-.94921-2.57812,7.71007,7.71007,0,0,0-3.59766-1.59375q-1.89844-.35157-6.48047-1.38282A13.18932,13.18932,0,0,1,405.021,65.832a9.83823,9.83823,0,0,1,1.69921-14.4375,17.36913,17.36913,0,0,1,10.54688-3.01172,31.86418,31.86418,0,0,1,12.32812,2.39063v7.14844h-.77343A17.44817,17.44817,0,0,0,417.5249,53.9375a9.89362,9.89362,0,0,0-4.98047,1.125,3.42449,3.42449,0,0,0-1.957,3.07031,3.35776,3.35776,0,0,0,1.11328,2.64844,8.98124,8.98124,0,0,0,3.8086,1.61719q2.69531.49218,6.01172,1.30078a17.77779,17.77779,0,0,1,4.94531,1.8164,10.41852,10.41852,0,0,1,2.60156,2.19141,8.14632,8.14632,0,0,1,1.45313,2.63672,10.18285,10.18285,0,0,1,.48046,3.21094,9.86028,9.86028,0,0,1-4.207,8.29687q-4.207,3.14063-11.14453,3.14063A33.49458,33.49458,0,0,1,402.40771,82.22656Z" transform="translate(0)"/><path class="cls-2" d="M461.353,84.33594H436.74365V49.01562H461.353V54.875H444.43115v7.54688h15.72656v5.83593H444.43115V78.47656H461.353Z" transform="translate(0)"/><path class="cls-2" d="M476.23584,84.33594h-7.99219V75.80469h7.99219Z" transform="translate(0)"/><path class="cls-2" d="M496.814,85.08594q-7.19531,0-10.55859-4.3711T482.89209,66.6875q0-9.5625,3.375-13.96875T496.814,48.3125q7.17188,0,10.54688,4.39453t3.375,13.957q0,9.72657-3.35156,14.07422T496.814,85.08594Zm0-31.3125a4.83684,4.83684,0,0,0-4.69921,3.082q-1.418,3.082-1.418,9.85547,0,6.75,1.45312,9.84375a5.048,5.048,0,0,0,9.32813-.04688q1.45313-3.14062,1.45312-9.84375,0-6.75-1.418-9.82031A4.83743,4.83743,0,0,0,496.814,53.77344Z" transform="translate(0)"/><path class="cls-2" d="M541.48584,84.33594H519.00928V79.17969h7.57031V58.74219h-7.57031V54.00781q4.5-.04687,6.36328-1.2539a4.942,4.942,0,0,0,2.168-3.8086h6.53906V79.17969h7.40625Z" transform="translate(0)"/></g></g></g><g id="本業が忙しすぎて_時間が_全く取れそうにないんだよね" data-name="本業が忙しすぎて 時間が 全く取れそうにないんだよね" class="cls-4"><g class="cls-4"><path class="cls-5" d="M623.72412,193.543a69.14949,69.14949,0,0,1-9.81445,10.64941,66.75928,66.75928,0,0,1-11.10352,8.18848L598.353,206.375a68.00058,68.00058,0,0,0,13.22754-10.64941,63.86335,63.86335,0,0,0,9.68261-12.14356H601.16553v-7.38281h22.55859v-9.78516h8.4668v9.78516h22.793V183.582H634.38818a65.59147,65.59147,0,0,0,23.32032,21.5918l-5.03907,6.97265a68.86444,68.86444,0,0,1-20.47851-18.6914v9.99023h8.64258v7.03125h-8.64258v9.28711h-8.4668v-9.28711h-8.87695v-7.03125h8.87695Z" transform="translate(0)"/><path class="cls-5" d="M683.75342,209.65625a68.15837,68.15837,0,0,1-22.88086,9.082l-2.13867-5.85937a73.157,73.157,0,0,0,18.01757-6.50391H660.69678v-5.56641h23.05664v-2.7539H663.773v-5.21485h19.98047v-2.7539H662.86475v-5.59571h10.957l-1.31836-3.36914H661.48779v-5.625h6.6211l-2.959-6.79687,7.002-1.72852,3.75,8.52539h2.666v-9.3164h7.08984v9.3164h4.45313v-9.3164h7.00195v9.3164h3.01758l3.7207-8.584,7.32422,1.72851-3.60351,6.85547h7.06054v5.625H703.29443l-2.02148,3.36914h12.041v5.59571H691.66357v2.7539h20.15625v5.21485H691.66357v2.7539h23.34961V206.375H699.04639a77.90091,77.90091,0,0,0,17.98828,5.88867l-3.04688,6.53321a63.47469,63.47469,0,0,1-22.32422-9.63868v10.48828h-7.91015ZM680.062,181.12109l1.34766,3.36914h12.24609l1.75781-3.36914Z" transform="translate(0)"/><path class="cls-5" d="M740.38428,174.14844q0,1.90429-.14649,4.51172h7.5293a10.42823,10.42823,0,0,1,8.02734,3.252,11.87237,11.87237,0,0,1,3.01758,8.4082q0,12.832-2.959,20.85938-2.95973,8.02734-10.07813,8.02734a15.31325,15.31325,0,0,1-4.292-.67383,39.70071,39.70071,0,0,1-7.456-3.6914l2.69531-6.97266q5.5371,3.07617,7.998,3.07617a2.63319,2.63319,0,0,0,1.9629-.84961,10.62931,10.62931,0,0,0,1.75781-3.63281,32.3631,32.3631,0,0,0,1.37695-6.21094,61.28873,61.28873,0,0,0,.43945-7.73437,15.58535,15.58535,0,0,0-.38086-4.16016,3.22683,3.22683,0,0,0-1.25976-1.78711,3.93472,3.93472,0,0,0-2.22656-.58593h-6.76758q-2.8418,20.918-14.79492,33.89648l-6.5918-4.13086q3.28051-3.69141,7.16309-11.63086a61.3184,61.3184,0,0,0,5.376-18.13476H720.11084v-7.32422H731.7417l.05859-11.33789h8.584Zm36.24023,25.2832-8.02734,2.25586a80.70918,80.70918,0,0,0-5.1416-13.6084,65.0315,65.0315,0,0,0-6.98731-10.7959l6.65039-3.89648Q774.19287,187.74219,776.62451,199.43164Zm-6.88476-24.78516-4.248,1.61133q-2.43237-6.03515-3.98438-8.99414l4.043-1.61133Q768.12768,170.60351,769.73975,174.64648Zm8.02734-.64453-4.07227,1.55274q-1.93359-4.80469-4.043-8.99414l3.89648-1.49414Q775.94995,169.666,777.76709,174.002Z" transform="translate(0)"/><path class="cls-5" d="M785.97021,176.43359q-.41088,13.623-2.02148,18.66211l-5.27344-1.20117q1.81641-6.47461,1.96289-17.63672Zm8.64258,43.27149h-7.06054v-53.291h7.06054Zm6.29883-37.38281L796.898,183.582l-2.168-9.16992,3.83789-1.25977Zm34.39453,36.00585H811.54639a6.80407,6.80407,0,0,1-5.2295-1.99218,7.33108,7.33108,0,0,1-1.86035-5.21485V183.11328h-2.98828v-6.97266H814.769v-9.58007h8.291v9.58007H836.273v6.97266H812.51318V209.334q0,1.52345,1.9043,1.72852h20.88867Z" transform="translate(0)"/><path class="cls-5" d="M894.28125,194.27539q-3.80859,13.35938-10.54687,19.27734-6.73975,5.918-17.31446,5.918a24.45325,24.45325,0,0,1-7.998-1.18652,15.52535,15.52535,0,0,1-5.59571-3.208,15.15027,15.15027,0,0,1-3.33984-4.40918,16.20714,16.20714,0,0,1-1.52344-5.06836,70.44176,70.44176,0,0,1-.35156-8.30566q0-6.15234,1.25976-28.82813h8.75977q-1.20264,20.24415-1.20117,28.1543a57.91136,57.91136,0,0,0,.33691,8.17383,8.26274,8.26274,0,0,0,1.50879,3.32519,7.393,7.393,0,0,0,3.38379,2.46094,14.89913,14.89913,0,0,0,5.40527.86426,15.91181,15.91181,0,0,0,11.83594-4.834q4.74609-4.834,7.5293-15.293Z" transform="translate(0)"/><path class="cls-5" d="M955.13086,179.42188H937.72852v11.07421a20.06743,20.06743,0,0,1,1.66992,8.99414,17.98243,17.98243,0,0,1-6.25489,14.31153q-6.25634,5.40526-16.71386,6.0791l-2.05078-7.08984q12.89063-.9961,16.25976-9.22852a12.63541,12.63541,0,0,1-7.61719,2.40234,12.46,12.46,0,0,1-8.59863-3.09082,10.13148,10.13148,0,0,1-3.47168-7.9248,11.73533,11.73533,0,0,1,3.67676-8.90625,12.90064,12.90064,0,0,1,9.24316-3.48633,14.43986,14.43986,0,0,1,5.21485.9668v-4.10156H900.4043v-6.97266h28.68164v-5.85938h8.64258v5.85938h17.40234ZM929.20313,192.752l-.0586-1.64062q-1.43555-2.02149-5.21484-2.02149a4.85241,4.85241,0,0,0-3.55957,1.65528,5.11852,5.11852,0,0,0-1.59668,3.61816,4.76335,4.76335,0,0,0,1.18652,3.31055,3.93019,3.93019,0,0,0,3.06152,1.31836,6.02167,6.02167,0,0,0,4.49707-1.71387A6.17825,6.17825,0,0,0,929.20313,192.752Z" transform="translate(0)"/><path class="cls-5" d="M1004.61328,201.33594l-5.27344,5.03906q-7.82226-5.03907-15.17578-5.03906a41.63012,41.63012,0,0,0-8.77441.64453,8.08759,8.08759,0,0,0-3.95508,1.97754,4.5659,4.5659,0,0,0-1.30371,3.32519q0,5.127,13.1543,5.127l2.98828-.0293q1.7578,0,4.27734-.17578t12.91992-1.55274l.32227,7.61719a165.14486,165.14486,0,0,1-17.373,1.084,66.03618,66.03618,0,0,1-14.39941-1.18653,15.04554,15.04554,0,0,1-7.57324-3.91113,9.66873,9.66873,0,0,1-2.60743-6.97266,10.12591,10.12591,0,0,1,5.376-9.25781q5.376-3.16405,14.63379-3.16406a47.24575,47.24575,0,0,1,9.25781.84961q-.9668-1.61133-2.31445-4.21875H959.93555V184.666h25.66406q-.64453-1.46485-1.61133-4.48243h-21.5918v-6.82617h19.80469q-.293-1.46484-1.02539-5.80078l8.4961-.9082a57.27212,57.27212,0,0,0,1.11328,6.709h12.77343q-.82031-1.99218-2.54882-5.68359l4.16015-1.61133q2.313,4.45313,4.13086,8.99414l-3.42773,1.17188v3.95507H992.77734q.96681,2.8711,1.64063,4.48243h15.9082v6.82617H997.81641A53.911,53.911,0,0,0,1004.61328,201.33594Zm13.03711-27.36328-4.21875,1.55273q-2.05079-5.09766-4.01367-8.99414l4.01367-1.49414Q1015.83253,169.63673,1017.65039,173.97266Z" transform="translate(0)"/><path class="cls-5" d="M1068.27539,211.23828l-.41016,7.91016q-3.19335.08789-4.248.08789-10.81055,0-16.84571-3.03223-6.03662-3.03222-8.64257-7.32422a18.43283,18.43283,0,0,1-2.60743-9.7705q0-10.72266,10.57618-19.7461l-26.04493.26367v-7.5h52.23633v7.5586H1058.8418a28.75857,28.75857,0,0,0-10.459,8.23242,17.3278,17.3278,0,0,0-4.10156,10.83984q0,12.65625,19.248,12.65625Q1065.7544,211.41406,1068.27539,211.23828Z" transform="translate(0)"/><path class="cls-5" d="M1093.03125,200.10547h-9.11133V190.02734h9.11133Zm19.6582,0h-9.11132V190.02734h9.11132Zm19.89258,0h-9.11133V190.02734h9.11133Z" transform="translate(0)"/><path class="cls-5" d="M1160.209,209.68555h-11.04492v3.7207h-7.26562V168.93359H1160.209Zm-7.08984-23.52539V174.5293h-3.95508v11.63086Zm0,17.959V191.19922h-3.95508v12.91992Zm24.16992,6.18164-6.94336,3.63281q-3.28125-5.03906-7.38281-10.48828l5.36133-2.98828h-6.09375v-6.18164H1182.709v-4.57031h-21.18164v-6.47461h13.30079v-4.80469h-11.51368v-6.24023h11.51368v-5.88867h8.17382l-.02929,5.88867h11.42578v6.24023h-11.42578l-.0293,4.80469h13.56445v6.47461h-5.83008v4.57031h4.62891V200.457h-4.62891v12.1582a5.93837,5.93837,0,0,1-2.08007,4.834,8.57929,8.57929,0,0,1-5.6543,1.72851h-7.5l-.9668-7.32421h6.35742q1.87354,0,1.875-1.75782V200.457h-12.89062A73.67362,73.67362,0,0,1,1177.28906,210.30078Z" transform="translate(0)"/><path class="cls-5" d="M1225.30664,188.38672h-15.9082v31.31836h-7.73438v-52.207h23.64258Zm-7.207-12.36328v-3.72071h-8.70117v3.72071Zm0,7.73437v-3.77929h-8.70117v3.77929Zm4.18945,32.10938v1.31836h-7.5V191.52148h25.22461v24.34571Zm10.01953-15.17578v-4.01368h-10.01953v4.01368Zm-10.01953,9.28711h10.01953v-4.48243h-10.01953Zm31.75782,3.83789a4.7199,4.7199,0,0,1-1.91895,3.82324,7.14769,7.14769,0,0,1-4.61426,1.53808H1241.625l-.791-6.67968h3.66211a1.98211,1.98211,0,0,0,1.28907-.4834,1.48334,1.48334,0,0,0,.58593-1.18653v-22.4414h-16.43554V167.49805h24.11133Zm-16.81641-37.793h9.14062v-3.72071h-9.14062Zm9.14062,3.95508h-9.14062v3.77929h9.14062Z" transform="translate(0)"/><path class="cls-5" d="M1280.38477,174.14844q0,1.90429-.14649,4.51172h7.5293a10.42823,10.42823,0,0,1,8.02734,3.252,11.8702,11.8702,0,0,1,3.01758,8.4082q0,12.832-2.959,20.85938t-10.07813,8.02734a15.31593,15.31593,0,0,1-4.292-.67383,39.71545,39.71545,0,0,1-7.45606-3.6914l2.69532-6.97266q5.5371,3.07617,7.998,3.07617a2.63316,2.63316,0,0,0,1.96289-.84961,10.61075,10.61075,0,0,0,1.75782-3.63281,32.3631,32.3631,0,0,0,1.377-6.21094,61.28873,61.28873,0,0,0,.43945-7.73437,15.56445,15.56445,0,0,0-.38086-4.16016,3.22683,3.22683,0,0,0-1.25976-1.78711,3.93364,3.93364,0,0,0-2.22656-.58593h-6.76758q-2.8418,20.918-14.79492,33.89648l-6.5918-4.13086q3.27978-3.69141,7.16308-11.63086a61.3184,61.3184,0,0,0,5.376-18.13476h-10.66406v-7.32422h11.63086l.05859-11.33789h8.584Zm36.24023,25.2832-8.02734,2.25586a80.70912,80.70912,0,0,0-5.14161-13.6084,64.96864,64.96864,0,0,0-6.9873-10.7959l6.65039-3.89648Q1314.19336,187.74219,1316.625,199.43164Zm-6.88477-24.78516-4.248,1.61133q-2.43165-6.03515-3.98438-8.99414l4.043-1.61133Q1308.12891,170.60351,1309.74023,174.64648Zm8.02735-.64453-4.07227,1.55274q-1.93359-4.80469-4.043-8.99414l3.89649-1.49414Q1315.95117,169.666,1317.76758,174.002Z" transform="translate(0)"/></g><g class="cls-4"><path class="cls-5" d="M655.01318,308.32812H601.10693v-7.207h22.38282v-7.61718H604.65186v-6.82618h18.83789v-6.416h-11.748v-2.8125a64.29179,64.29179,0,0,1-9.90234,5.18555l-3.60352-6.15235A58.368,58.368,0,0,0,611.522,268.7041a55.20124,55.20124,0,0,0,11.7334-12.02637h8.75977q2.78321,4.07227,9.60937,9.28711a72.18314,72.18314,0,0,0,16.20117,9.11133l-4.27734,7.26563a61.68436,61.68436,0,0,1-9.63867-5.03907v2.959H632.01514v6.416H651.0874v6.82618H632.01514v7.61718h22.998Zm-37.4707-34.86328H638.314a55.19448,55.19448,0,0,1-10.60546-10.01953q-.76245.99611-1.99219,2.40235-1.23047,1.40625-2.3877,2.666a26.91133,26.91133,0,0,1-2.76855,2.57813Q618.94873,272.41015,617.54248,273.46484Z" transform="translate(0)"/><path class="cls-5" d="M706.4292,305.13477l-6.67969,6.18164-8.4668-7.14844q-3.86718-3.28125-7.4414-5.83008l-6.73828-4.59961q-6.47535-4.45312-8.02735-5.80078a8.0995,8.0995,0,0,1-2.168-2.72461,7.53394,7.53394,0,0,1-.61523-3.10547q0-4.01367,4.48242-7.03125,1.582-1.02538,7.03125-4.70215t8.74512-6.25488q3.29591-2.57812,9.53613-7.88086l6.91406,5.44922a257.649,257.649,0,0,1-22.73437,16.55273q-1.084.67383-3.07617,1.99219a24.08869,24.08869,0,0,0-2.05078,1.4209.71017.71017,0,0,0-.0586.33691c0,.21485.04834.35157.14649.41016l5.30273,3.54492q10.0481,6.709,15.23438,10.51758Q700.95069,300.27148,706.4292,305.13477Z" transform="translate(0)"/><path class="cls-5" d="M740.2085,299.89062q-11.83668,2.51954-19.6875,3.51563l-1.49414-6.88477,4.74609-.58593V264.002h-3.42774v-6.18164h32.8125l-.05859,6.18164h-5.15625v45.64453H740.2085Zm-8.877-35.88867v5.97657h8.877V264.002Zm0,11.748v6.06445h8.877V275.75Zm0,19.10156q4.59888-.70312,8.877-1.49414v-5.53711h-8.877Zm43.00782-29.17968a63.63471,63.63471,0,0,1-1.80176,15.60058,41.6484,41.6484,0,0,1-4.79,11.90918,74.16518,74.16518,0,0,0,9.90234,8.84766l-4.86328,6.65039a94.2595,94.2595,0,0,1-9.72656-9.14063,67.69758,67.69758,0,0,1-10.54688,9.375l-4.10156-5.44922a46.13672,46.13672,0,0,0,9.99024-9.90234,43.26214,43.26214,0,0,1-6.94336-21.5918h-2.08008v-6.29882Zm-11.45508,20.71289a38.10228,38.10228,0,0,0,3.22265-14.41407h-7.32422A35.63954,35.63954,0,0,0,762.88428,286.38477Z" transform="translate(0)"/><path class="cls-5" d="M791.44873,292.83008q-4.5703,6.67968-7.793,10.63476l-4.57031-6.47461a157.7271,157.7271,0,0,0,11.19141-14.9414q.35155-.791,1.17187-2.43164v-6.5625H781.25342V266.375h10.19531v-9.46289H799.769v16.43555q10.86915-10.51758,18.60352-10.51758a10.92232,10.92232,0,0,1,7.77832,2.8125,9.68032,9.68032,0,0,1,3.00293,7.41211q0,2.60742-1.084,12.97851-.8789,8.4082-1.11328,12.27539v.58594q0,1.9922,1.377,1.99219,1.96215,0,7.55859-3.01758l1.93359,6.79688q-5.6543,3.86718-10.752,3.86718a8.31353,8.31353,0,0,1-6.32812-2.373,9.01008,9.01008,0,0,1-2.25586-6.47461q0-1.084,1.28906-13.74024.70313-7.26562.82031-12.24609v-.43945q0-2.92969-3.04687-2.92969-2.40235,0-6.98731,2.94433a63.20636,63.20636,0,0,0-10.7959,9.44825v26.748h-8.32031Z" transform="translate(0)"/><path class="cls-5" d="M888.65625,301.53125l-.26367,7.67578q-2.54883.14649-4.86328.14649-12.74415,0-19.7168-3.91114t-6.97266-11.52832a13.3755,13.3755,0,0,1,2.98829-8.73047q-7.91016.67383-17.98877,2.13868l-.84961-7.32422a49.1396,49.1396,0,0,0,7.603-1.4502q4.29054-1.12792,5.74219-1.66992,1.4502-.542,6.82617-3.47168A101.25687,101.25687,0,0,0,872.25,266.31641q-13.65234.498-22.70508.498h-2.25586v-7.5l35.94727-.08789,3.7793,4.39453q-6.76758,6.44532-21.416,14.41407,15.2329-.99611,25.57617-.9961l2.63672.0293-.11719,7.44141q-6.94335-.23437-12.30468-.23438-4.834,0-10.22461.20508-6.09375,3.48633-6.09375,9.02344,0,8.291,16.61132,8.291Q884.81837,301.79492,888.65625,301.53125Z" transform="translate(0)"/><path class="cls-5" d="M913.17773,309.35352l-1.49414-7.32422q14.61768-.64453,22.36817-4.86328,7.749-4.21875,7.749-11.83594a6.02869,6.02869,0,0,0-2.46094-5.15625,10.8026,10.8026,0,0,0-6.5625-1.81641q-2.8125,0-6.10839.293t-5.81543.67383q-2.521.38085-16.14258,2.8418l-.70313-7.5586,12.2168-1.875q5.332-.82031,9.47754-1.15722t7.30957-.33692q8.11377,0,12.832,3.64746,4.7168,3.64746,4.7168,10.44434,0,11.19141-9.79981,17.28515T913.17773,309.35352Zm31.66993-47.72461-1.84571,7.4414a104.77427,104.77427,0,0,0-15.16113-2.08008q-9.7998-.791-16.626-.791-1.73,0-3.25195.05859l.05859-7.32422q9.25635,0,17.32911.55664Q933.42041,260.04688,944.84766,261.62891Z" transform="translate(0)"/><path class="cls-5" d="M975.22852,259.7832q-3.7207,13.44727-3.72071,22.64649a91.14326,91.14326,0,0,0,3.28125,24.46289l-8.08593,1.8457a95.2423,95.2423,0,0,1-3.16407-23.93555,107.27942,107.27942,0,0,1,3.457-26.16211Zm37.85156,46.78711q-7.17919.67383-12.27539.67383-12.86133,0-17.54883-2.97363a9.47792,9.47792,0,0,1-4.6875-8.48145q0-6.35742,6.00586-12.53906l6.47461,3.457q-4.71826,4.39454-4.7168,8.81836,0,2.08008,2.46094,3.2959t10.19531,1.21582q3.92578,0,13.79883-.84961Zm-.64453-36.709-2.46094-.0293q-3.83936-.05859-12.74414.14649-8.90625.20506-17.25586.791v-7.14844q19.80322-.96679,27.42187-.96679,3.04688,0,5.03907.17578Z" transform="translate(0)"/><path class="cls-5" d="M1040.209,258.17188q-.20507,4.6875-.67382,8.584h12.77343v7.002h-13.82812A67.14981,67.14981,0,0,1,1025.209,303.582l-6.416-4.62891q7.96875-9.78515,11.33789-25.19531h-9.02344v-7.002h10.25391a83.35915,83.35915,0,0,0,.67383-8.84766Zm36.123,42.1582-4.33594,6.5039a69.645,69.645,0,0,0-9.78515-7.06054q0,5.06835-3.16406,7.52929t-10.42969,2.46094a17.17082,17.17082,0,0,1-9.72656-2.57812,8.13729,8.13729,0,0,1-3.86719-7.14844,8.966,8.966,0,0,1,4.10156-7.749,17.09738,17.09738,0,0,1,10.01953-2.85645,35.76919,35.76919,0,0,1,4.98047.32227V274.54883h8.08594v17.40234A73.38549,73.38549,0,0,1,1076.332,300.33008Zm-22.207-4.10156a23.9305,23.9305,0,0,0-4.98047-.498,9.9615,9.9615,0,0,0-4.64355,1.01074,3.08767,3.08767,0,0,0-1.94825,2.79785q0,3.69141,6.82618,3.69141,4.74609,0,4.74609-3.42774Zm22.61719-20.24414-6.416,4.86328a87.579,87.579,0,0,0-8.46679-8.4961,64.52,64.52,0,0,0-8.93555-7.002l4.92187-5.44922a58.60105,58.60105,0,0,1,9.68262,7.0166A83.20864,83.20864,0,0,1,1076.74219,275.98438Z" transform="translate(0)"/><path class="cls-5" d="M1111.19531,289.54883a79.00288,79.00288,0,0,1-3.82324,9.09668,34.9599,34.9599,0,0,1-4.52637,7.41211,6.539,6.539,0,0,1-5.127,2.38769q-6.32812,0-10.86914-7.80761a35.024,35.024,0,0,1-4.541-17.94434q0-3.31054.64454-9.81445.61522-6.53321.61523-9.78516h8.96484q-.08789,2.959-.8789,9.69727a85.46052,85.46052,0,0,0-.76172,9.72656,28.85323,28.85323,0,0,0,2.27051,11.83594q2.269,5.09765,3.85254,5.09765,2.28515,0,7.207-13.38867Zm24.16992,10.83984-8.81835.55664a56.1048,56.1048,0,0,0-3.16407-18.28125,49.63159,49.63159,0,0,0-8.61328-15.791l7.08985-3.54493Q1135.36523,278.35743,1135.36523,300.38867Z" transform="translate(0)"/><path class="cls-5" d="M1169.49609,259.05078q-6.06444,12.48047-9.69726,20.6836a9.37083,9.37083,0,0,1,3.22265-.58594q6.73828,0,8.40821,5.88867l1.05469,10.54687a8.9272,8.9272,0,0,0,1.582,4.7461,4.20907,4.20907,0,0,0,3.457,1.55273q7.73438,0,10.166-18.22265l7.96875,1.93359q-1.99365,13.27149-6.48925,18.54492a14.976,14.976,0,0,1-11.99707,5.27344q-6.47609,0-9.53614-3.09082-3.06151-3.09082-3.47168-11.55762l-.17578-4.16015a7.31515,7.31515,0,0,0-.73242-3.208,1.95666,1.95666,0,0,0-1.75781-1.15723q-2.08155,0-4.61426,2.37305-2.53418,2.373-5.874,10.51758-2.37306,5.332-4.541,10.57617l-8.05664-1.99219,12.334-28.44727q1.23048-2.92968,10.22461-22.17773Z" transform="translate(0)"/><path class="cls-5" d="M1221.14648,257.0293q.0879,1.084.0879,3.75,0,1.99218-.11719,3.89648h19.36523V271.707h-20.15625a83.06888,83.06888,0,0,1-4.86328,20.97656q-4.043,11.25-8.93555,17.54883l-6.79687-4.01367a64.52746,64.52746,0,0,0,7.85156-15.92285,86.67138,86.67138,0,0,0,4.45313-18.58887h-10.25391v-7.03125h10.752q.23438-4.71679.23438-7.64648Zm33.31055,50.39062a89.71162,89.71162,0,0,1-13.88672.9668,71.68019,71.68019,0,0,1-10.59082-.68848,12.85038,12.85038,0,0,1-7.16308-3.17871,7.87419,7.87419,0,0,1-2.60743-5.88867q0-4.51171,4.80469-9.31641l6.24024,2.92969q-2.9004,3.54492-2.90039,5.68359a1.93266,1.93266,0,0,0,1.05468,1.69922,11.89246,11.89246,0,0,0,4.248,1.01075,64.05734,64.05734,0,0,0,7.23633.36621,75.55612,75.55612,0,0,0,13.1543-1.14258Zm-1.55273-32.57812-.41016,6.97265q-1.66992-.08789-3.48633-.08789-9.93164,0-24.60937,1.34766l-.52735-6.97266a221.33508,221.33508,0,0,1,24.4043-1.34765Q1251.08789,274.75391,1252.9043,274.8418Zm-6.00586-9.69727-4.30664,1.61133q-2.4331-6.03516-3.98438-8.99414l4.16016-1.61133A90.34427,90.34427,0,0,1,1246.89844,265.14453Zm8.34961-1.52344-4.21875,1.55274q-2.05078-5.09766-4.01367-8.99414l4.01367-1.49414Q1253.43017,259.28515,1255.24805,263.62109Z" transform="translate(0)"/><path class="cls-5" d="M1314.39844,300.82812l-5.15625,7.06055a76.8501,76.8501,0,0,0-16.96289-10.66406q0,6.50391-2.98828,9.4043t-10.01954,2.90039q-8.02734,0-12.52441-2.82715a9.17353,9.17353,0,0,1-4.49707-8.27637,9.68306,9.68306,0,0,1,4.95117-8.59863,22.25322,22.25322,0,0,1,12.09961-3.12012,37.88547,37.88547,0,0,1,4.51172.293V256.707h8.64258v10.98633h19.6582V274.959h-19.6582v13.97461Q1302.82617,292.30274,1314.39844,300.82812Zm-30.41016-6.5039a25.07535,25.07535,0,0,0-4.6875-.46875,16.35663,16.35663,0,0,0-6.21094,1.09863q-2.69531,1.09863-2.69531,3.12012a3.29272,3.29272,0,0,0,2.22656,3.01758,12.59243,12.59243,0,0,0,5.41993,1.05468q3.6621,0,4.80468-1.06933a3.989,3.989,0,0,0,1.14258-3.06153Z" transform="translate(0)"/><path class="cls-5" d="M1331.00977,292.5957q-4.6875,6.88477-7.91016,10.81055l-4.51172-6.416a161.77691,161.77691,0,0,0,11.10352-14.9414q.41015-.87891,1.31836-2.666v-6.35742l-10.25391.0293v-6.6211h10.25391v-9.58007h8.23242V272.791q9.46289-9.75587,19.6289-9.75586a11.50411,11.50411,0,0,1,10.35645,5.47851q3.501,5.47853,3.501,15.76172a51.37035,51.37035,0,0,1-.9961,10.72266,55.45486,55.45486,0,0,1,6.44531,5.21484l-4.07226,6.85547q-1.72851-1.582-5.24414-4.62891-4.30665,6.73828-13.44727,6.73828a13.14511,13.14511,0,0,1-8.17383-2.76855,8.34667,8.34667,0,0,1-3.63281-6.87012,8.7381,8.7381,0,0,1,3.39844-7.26562,13.62733,13.62733,0,0,1,8.67187-2.666,26.98661,26.98661,0,0,1,8.70118,1.40625q.23438-2.25585.23437-6.73828,0-8.02734-1.53808-11.04492t-4.32129-3.01758q-8.4961,0-19.51172,13.03711v26.2207h-8.23242Zm31.61132,5.27344a10.64807,10.64807,0,0,0-6.35742-1.99219q-5.332,0-5.332,3.457,0,2.92969,4.89258,2.92969A7.14256,7.14256,0,0,0,1362.62109,297.86914Z" transform="translate(0)"/></g></g><g id="グループ_154" data-name="グループ 154"><g id="グループ_112" data-name="グループ 112"><path id="パス_148" data-name="パス 148" class="cls-6" d="M1471.59648,382.287l68.265-38.879c7.443-3.4,18.093-6.107,25.675-2.162,6.909,3.6,18.289,10.955,23.321,13.825,3.823,2.178,17.091,10.129,8.826,14.622-24.31,13.219-48.366,28.086-73.055,41.515-4.667,2.538-11.5,3.456-18.666,2.861a49.436,49.436,0,0,1-20.22-6.023q-6.155-3.577-12.1-7.045c-5.357-3.117-8.194-6.8-8.477-10.213C1464.89049,387.454,1467.0305,384.37,1471.59648,382.287Z" transform="translate(0)"/><g id="グループ_111" data-name="グループ 111"><path id="パス_149" data-name="パス 149" class="cls-7" d="M1602.4625,201.392c-.986,3.8-7.924,7.245-9.955,5.671a1.7101,1.7101,0,0,1-.643-1.049c-.574-3.556,5.914-9.347,9.957-7A2.293,2.293,0,0,1,1602.4625,201.392Z" transform="translate(0)"/><g id="グループ_101" data-name="グループ 101"><path id="パス_150" data-name="パス 150" class="cls-8" d="M1599.54449,196.249c3.549,4.211,6.243,8.149,9.336,12.609l.318,8.9-1.592,7.9c-.216,1.08-2.307,3.8-3.632,3.727-2.986-.154-4.925-.679-5.179-1.189-1.247-2.527-.287-7.9-.612-12.322-2.229-2.391-4.224-3.547-4.863-6.622-1.06-5.1-.546-6.818-3.044-9.465Z" transform="translate(0)"/><path id="パス_151" data-name="パス 151" class="cls-9" d="M1601.20349,207.29505c2.175,3.814,2.843,4.239,4.471,8.782.058,2.423-1.323,5.344-1.027,7.277-.483,2.921-2.255,3.449-1.663,5.921-1.922-.234-3.992-.684-4.188-1.08-1.247-2.527-.287-7.9-.612-12.322-2.229-2.391-4.224-3.547-4.863-6.622-1.06-5.1-.546-6.818-3.044-9.465l5.865-2.236Z" transform="translate(0)"/><path id="パス_152" data-name="パス 152" class="cls-8" d="M1595.2915,200.683c-2.661,5.627.828,5.546,3.95,8.993a13.71271,13.71271,0,0,0,1.218,3.589c-.759,4.235.893,5.4,2.99,5.578.461-1.354,1.412-4.01,1.688-5.2-.41-7.074,2.026-8.978-4.627-15.134Z" transform="translate(0)"/></g><path id="パス_153" data-name="パス 153" class="cls-7" d="M1585.79648,170.882c5.734,10.318,11.149,17.325,16.038,28.146-4.378-.917-8.664,2.572-9.75,7.546-11.14-11.062-20.625-20.569-23.114-26.886-5.239-13.1-10.69-27.4-12.81-36.581-2.5-10.828-1.449-18.775,1.594-19.342,5.286-.986,8.118.287,10.962,4.674C1574.9405,138.035,1581.4455,159.462,1585.79648,170.882Z" transform="translate(0)"/><path id="パス_154" data-name="パス 154" class="cls-10" d="M1595.87949,200.47a10.40008,10.40008,0,0,0-3.794,6.1c-11.14-11.062-20.625-20.569-23.114-26.886-5.239-13.1-10.69-27.4-12.81-36.581-2.5-10.828-1.449-18.775,1.594-19.343a15.44306,15.44306,0,0,1,3.554-.3,16.31306,16.31306,0,0,1,7.824,6.341c7.657,11.661,5.651,29.037,8.227,45.777a10.715,10.715,0,0,1,7.744-2.084,13.346,13.346,0,0,0-6.408,4.992C1583.25449,185.482,1590.14548,193.517,1595.87949,200.47Z" transform="translate(0)"/><g id="グループ_102" data-name="グループ 102"><path id="パス_155" data-name="パス 155" class="cls-11" d="M1523.9215,354.462c-1.236,3.594-2.068,5.128-2.011,10.144.875,2.65,2.765,3.725,4.89,5.555l1.474.318c3.681,1.968,5.175,8.862,8.621,12,2.434,2.216,7.194,3.42,11.917,4.326,5.045.971,9.781-.465,8.379-4.415-3.485-9.81-17.79-20.892-18.376-31.856Z" transform="translate(0)"/><path id="パス_156" data-name="パス 156" class="cls-12" d="M1523.9215,354.463c-1.236,3.594-2.068,5.128-2.011,10.144.875,2.65,2.765,3.725,4.89,5.555l1.474.318c3.681,1.968,5.175,8.862,8.621,12,2.434,2.215,7.194,3.42,11.917,4.326,4.364.839,8.5-.122,8.624-2.955a6.421,6.421,0,0,1-5.175.748c-8.359-2.046-14.713-9.675-17.069-17.982a22.41765,22.41765,0,0,0,6.053-5.401c-6.324,1.521-9.325.234-10.922-8.439Z" transform="translate(0)"/><path id="パス_157" data-name="パス 157" class="cls-13" d="M1542.95049,363.315a20.72891,20.72891,0,0,1-5.782,4.682c2.812,5.9,8.764,13.1,15.68,14.94.991.265,3.645.372,2.6-1.79C1552.73851,375.522,1546.29949,369.37605,1542.95049,363.315Z" transform="translate(0)"/></g><g id="グループ_103" data-name="グループ 103"><path id="パス_158" data-name="パス 158" class="cls-11" d="M1531.4775,327.98606c-1.935,3.478-3.137,5.07-3.587,7.771-.9,5.384.169,10.935,1.572,19.16.668,3.912-.385,5.936-4.119,5.034-2.941-.71-6.526-6.063-8.661-9.508-4.008-6.466-2.977-11.736-3.948-14.346l-1.663-1.046c-1.131-1.091-3.734-7.214-3.447-9.207a44.44739,44.44739,0,0,1,3.371-4.743c4.268-4.593,4.513-3.447,9.165-5.731C1523.89749,319.68705,1527.5765,323.81,1531.4775,327.98606Z" transform="translate(0)"/><path id="パス_159" data-name="パス 159" class="cls-12" d="M1528.88751,359.43705c-.677.724-1.826.928-3.545.514-2.941-.71-6.526-6.063-8.661-9.508-4.008-6.466-2.977-11.736-3.948-14.346l-1.663-1.046c-1.131-1.091-3.734-7.214-3.447-9.207a44.44881,44.44881,0,0,1,3.371-4.743c4.268-4.593,4.513-3.447,9.165-5.731,1.654,1.913,3.3,3.785,4.952,5.64-2.6,3.237-8.054,7.846-7.524,12.122.592,4.778,2.131,7.43,2.837,10.314C1522.66448,352.634,1523.62148,359.23405,1528.88751,359.43705Z" transform="translate(0)"/><path id="パス_160" data-name="パス 160" class="cls-13" d="M1527.7745,334.229c-1.414.272-3.013-.374-5.333-1.766-.379,6.368.358,6.475,2.124,12.756-.287,4.342-.443,5.063.1,7.105.652,2.436,1.917,5.531,3.493,5.789.677.109.94-1.213.468-4.146-.53-3.327-1.078-6.709-1.381-9.96A29.644,29.644,0,0,1,1527.7745,334.229Z" transform="translate(0)"/></g><path id="パス_161" data-name="パス 161" class="cls-10" d="M1575.6955,288.876c-16.072,15.3-28.347,25-43.221,40.52-4.907,1.55-14.825-6.747-14.085-14.306,10.73-13.3,15.7-19.36,22.206-26.08a70.75576,70.75576,0,0,1,17.9-13.391c6.693-8.06,18.8-8.038,19.133-1.024C1577.83051,278.82,1579.08549,285.102,1575.6955,288.876Z" transform="translate(0)"/><path id="パス_162" data-name="パス 162" class="cls-10" d="M1571.58851,219.775c3.99,14.032,5.346,42.733,6.488,60.423.648,14.745-16.806,13.211-21.186,7.911-4.948-14.1-12.783-39.99-15.3-56.311l12.513-8.076,10.325-12.468Z" transform="translate(0)"/><path id="パス_163" data-name="パス 163" class="cls-14" d="M1521.75348,324.003c-2.189-2.612-3.667-5.825-3.364-8.913,10.73-13.3,15.7-19.36,22.206-26.08a69.87726,69.87726,0,0,1,13.048-10.583c-4.62-14.373-10.042-33.564-12.053-46.627l12.513-8.076,10.325-12.471,7.156,8.523a114.29144,114.29144,0,0,1,2.941,15.865c-3.233,6.315-6.428,9.463-14.248,15.551.089,6.553,3.774,24.593,3.8,29.7.013,2.184-.946,2.549-4.745,5.442C1545.1905,297.103,1533.80649,310.547,1521.75348,324.003Z" transform="translate(0)"/><path id="パス_164" data-name="パス 164" class="cls-7" d="M1551.7555,227.785c1.706,14.488-5.377,49.486-7.069,67.13-.416,13.624-20.4,12.937-21.253,4.351-1.253-13.531-11.739-64.738-2.289-74.462l15.183-1.968Z" transform="translate(0)"/><path id="パス_165" data-name="パス 165" class="cls-7" d="M1544.60749,295.152c-.12,5.05-1.325,5.627-1.507,8.523-1.167,18.8-.7,37.685-.866,56.21-6.268,5.934-17.076,2.748-19.915-3.32-1.216-17.045-2.5-26.016-2.329-35.37a73.83987,73.83987,0,0,1,3.442-21.932C1526.0575,287.235,1545.03248,285.133,1544.60749,295.152Z" transform="translate(0)"/><path id="パス_166" data-name="パス 166" class="cls-10" d="M1531.61951,362.845c-4.092-.684-7.8-3.082-9.3-6.279-1.216-17.045-2.5-26.016-2.329-35.37a73.8418,73.8418,0,0,1,3.442-21.932c-1.253-13.531-11.739-64.738-2.289-74.462l7.642-.991,22.215,22.451-.136,2.2c-4.981,2.63-15.266,4.861-19.133,5.15a361.95248,361.95248,0,0,0,.4,39.9,65.961,65.961,0,0,1-.581,16.506C1528.77051,329.832,1530.2465,341.757,1531.61951,362.845Z" transform="translate(0)"/><path id="パス_167" data-name="パス 167" class="cls-15" d="M1520.68049,136.725c6.326-3.509,28.144-17.372,34.526-16.426,17.134,2.536,19.345,18.138,18.766,41.615-.194,7.8-1.427,14.651-1.523,24.339-.116,11.612,2.129,31.52,1.561,43.8-3.233,7.047-3.137,6.444-8.559,10.93a196.62661,196.62661,0,0,0,.659-23.707c-1.312,8.443-2.182,16.846-4.084,25.158-9.423,6.6-36.665,10.213-45.309-.53,0-21.4,7.257-21.645,8.194-35.307.762-11.093-15.179-40.722-15.034-56.055C1509.9415,143.746,1515.67051,139.507,1520.68049,136.725Z" transform="translate(0)"/><path id="パス_168" data-name="パス 168" class="cls-7" d="M1520.68049,136.728l13.651-7.57c-2.035,3.269-8.719,8.486-14.577,13.431,7.21,10.719,16.23,34.557,17.428,51.036,2.162,29.772-5.448,34.223-5.529,54.783-6.163-.75-11.583-2.327-14.936-6.495,0-21.4,7.257-21.645,8.194-35.307.762-11.093-15.179-40.722-15.034-56.055C1509.9415,143.746,1515.67051,139.506,1520.68049,136.728Z" transform="translate(0)"/><path id="パス_169" data-name="パス 169" class="cls-16" d="M1556.54349,126.505c4.992,2.327,5.515,3.122,8.984,8.477l-3.03,2.5,3.819,1.251c1.519,15.466.51,36.545-.363,52.223-1.833-15.533-1.659-38.093-6.831-51.833-1.329-3.534-2.814-5.491-4.91-8.63C1553.68049,129.698,1555.60648,126.067,1556.54349,126.505Z" transform="translate(0)"/><path id="パス_170" data-name="パス 170" class="cls-9" d="M1533.72849,128.358c-.472,5.553,14.731,12.825,20.522,9.982.612-.3.931-1.583,1.307-2.1a9.94064,9.94064,0,0,1-.57-3.712,16.0655,16.0655,0,0,1,1.28-4.324c.69-1.877.715-5.852,1.91-10.251l-17.336-7.559-3.712-1.966C1538.90751,117.081,1536.9455,121.109,1533.72849,128.358Z" transform="translate(0)"/><path id="パス_171" data-name="パス 171" class="cls-17" d="M1533.72751,128.358a2.52618,2.52618,0,0,0,.076.935c8.218-5.172,13.335-.839,22.972-3.416a63.45192,63.45192,0,0,1,1.4-7.924l-17.336-7.559-3.712-1.966C1538.9065,117.081,1536.94752,121.109,1533.72751,128.358Z" transform="translate(0)"/><path id="パス_172" data-name="パス 172" class="cls-8" d="M1553.77549,124.293c-2.3-.924-7.548-1.877-9.632-2.837-4.558-2.1-4.9-6.762-7.236-12.34-4.248-1.893-5.925-3.738-6.74-6.047-1.942-5.48.031-12.213,3.658-16.417a15.28,15.28,0,0,1,12.424-5.3c9.884.138,15.243,6.5,17.414,14.58a5.58982,5.58982,0,0,1,.151,2.086c-.176,1.75-.735,2.625-.873,3.819-.325,2.808.888,2.3,1.167,5.061.448,4.473-.3,8.7-1.018,13.631-.214,1.45-.508,2.126-1.347,2.674a19.57576,19.57576,0,0,1-3,1.283C1557.72449,124.918,1556.70051,125.087,1553.77549,124.293Z" transform="translate(0)"/><path id="パス_173" data-name="パス 173" class="cls-9" d="M1553.77549,124.293c-2.3-.924-7.548-1.877-9.632-2.837-4.558-2.1-4.9-6.762-7.236-12.34-4.248-1.893-5.925-3.738-6.74-6.047-1.942-5.48.031-12.213,3.658-16.417a15.28,15.28,0,0,1,12.424-5.3c8.586.12,13.756,4.936,16.39,11.5-.349.908-8.374,5.121-15.653,5.168-.546,3.286,1.162,5.985,1.243,7.635.076,1.583.069,2.935.214,3.821.212,1.316,1.563,2.331,1.768,4.217.664,6.132,4.043,10.055,6.793,11.158A12.79077,12.79077,0,0,1,1553.77549,124.293Z" transform="translate(0)"/><path id="パス_174" data-name="パス 174" class="cls-18" d="M1559.28748,91.071c1.089.04,2.4-.59,3.293,1.648-.646-3.665-1.757-4-4.017-4.349Z" transform="translate(0)"/><path id="パス_175" data-name="パス 175" class="cls-18" d="M1545.62848,95.97c-6.92-.7-14.6-5.571-16.4-8.693-3.736,7.33-2.83,17.2,2.964,23.181,1.67,3.166,3.3,6.279,4.865,9.5a67.29916,67.29916,0,0,0,2.247-13.584l.3-.428c.4.828,1.4,2.879,1.766,3.734.434,0,1.142-.632,1.759-1C1541.9105,102.293,1542.23749,98.345,1545.62848,95.97Z" transform="translate(0)"/><path id="パス_176" data-name="パス 176" class="cls-18" d="M1546.09049,95.654c7.272-.637,16.84-3.961,20.483-9.479-6.6.993-14.074-8.844-24.495-7.867-6.041.566-12.567,3.658-12.845,8.92C1531.20548,89.827,1540.0275,96.186,1546.09049,95.654Z" transform="translate(0)"/><path id="パス_177" data-name="パス 177" class="cls-19" d="M1545.79349,95.967c7.272-.637,17.136-4.275,20.779-9.793l-.065.009c-6.491,3.36-11.861,3.327-17.388,2.3a6.6939,6.6939,0,0,0,2.536-1.251c-5.477.3-9.249.559-13.994-2.371a9.3112,9.3112,0,0,0,3.787.207c-2.81-.666-5.477-2.935-9.79-2.645a6.84393,6.84393,0,0,0-2.525,5.008C1530.9065,90.453,1539.72651,96.498,1545.79349,95.967Z" transform="translate(0)"/><path id="パス_178" data-name="パス 178" class="cls-9" d="M1537.12348,103.964c-3.9-.888-3.469,3.462-2.61,6.039.59,1.77,2.071,1.478,2.761,2.852a3.436,3.436,0,0,0,3.358,2.142c2.284-.3.51-3.558.1-4.883C1540.7645,107.874,1539.59949,104.529,1537.12348,103.964Z" transform="translate(0)"/><path id="パス_179" data-name="パス 179" class="cls-20" d="M1529.08347,87.934c-.563,1.28-1.9,4.78-1.514,7.31a8.93788,8.93788,0,0,1,2.4-4.28c-1.472,2.365-1.7,5.275-.69,8.757.049-3.015.359-4.727,2.534-6.419-1.585,2.99-1,8.486-.1,10.866.276-3.411.552-8.067,3.458-9.056-1.694,2.77-1.445,4.293-.428,7.047.3-3.059,1.209-4.774,3.293-5.927.056,2.781.917,7.936,3.654,10.338-.227-1.087-1.621-8.443-.165-9.483a5.277,5.277,0,0,0,.2,3.491,6.269,6.269,0,0,1,3-4.279C1538.86548,96.119,1530.37748,90.768,1529.08347,87.934Z" transform="translate(0)"/><path id="パス_180" data-name="パス 180" class="cls-20" d="M1532.66352,81.553c2.95-2.313,8.154-3.482,11.888-3.309,3.166.149,6.243,1.452,9.084,2.093a7.76236,7.76236,0,0,1-2.271.065c5.037,1.412,9.231,5.9,15.114,5.765a11.278,11.278,0,0,1-6.849-.265,15.52173,15.52173,0,0,0,2.567,1.251c-5.6.43-9.287-2.6-14.355-4.38a6.27,6.27,0,0,0,3.062,1.877C1545.46149,83.659,1540.4325,79.304,1532.66352,81.553Z" transform="translate(0)"/><path id="パス_181" data-name="パス 181" class="cls-21" d="M1536.35352,130.901c-1.421,22.88,23.034,21.427,29.438,55.58-1.414-18.944-.492-33.2-8.167-51.1l-1.777,2.5-5.137.922Z" transform="translate(0)"/><path id="パス_182" data-name="パス 182" class="cls-22" d="M1555.33048,145.914c-.412,1.839-.672,3.4-.935,5.268,6.33,14.92,7.626,18.588,11.3,35.695-.147-2.774.376-.69.236-3.048a257.958,257.958,0,0,0-5.072-37.981,12.08256,12.08256,0,0,0-3.538-1.247,5.86913,5.86913,0,0,0-1.2,0Z" transform="translate(0)"/><path id="パス_183" data-name="パス 183" class="cls-22" d="M1551.16547,140.252c.842,3.509.969,3.453,4.235,5.927l2.109-1.118c.989-4.048.5-6.666-.312-7.145C1554.37348,137.81,1553.19547,138.144,1551.16547,140.252Z" transform="translate(0)"/><path id="パス_184" data-name="パス 184" class="cls-23" d="M1554.24448,138.122c.668-1.681.2-4.93.888-6.519,1.975.252,4.07,4.956,5.747,8.479C1558.28348,138.275,1557.15949,138.115,1554.24448,138.122Z" transform="translate(0)"/><path id="パス_185" data-name="パス 185" class="cls-16" d="M1534.7475,126.686c-2.3,2.133-4.193,3.1-4.829,4.647-1.957,4.756,3.83,13.084,6.181,21.32l4.527-1.251-1.521,4.558c17.528,13.366,25.023,19.848,27.741,38.954C1563.7475,147.799,1533.3805,147.082,1534.7475,126.686Z" transform="translate(0)"/><path id="パス_186" data-name="パス 186" class="cls-23" d="M1535.01951,125.267c-.4,6.377,12.549,11.264,19.307,12.87-1.694,2.046-3.905,4.607-3.819,6.651-4.872-1.331-14.081-4.5-17.428-10.734C1530.7905,129.794,1532.7995,126.964,1535.01951,125.267Z" transform="translate(0)"/><g id="グループ_106" data-name="グループ 106"><g id="グループ_105" data-name="グループ 105"><path id="パス_187" data-name="パス 187" class="cls-24" d="M1529.79749,270.624a3.363,3.363,0,0,0-.6-2.808,2.34963,2.34963,0,0,0-.252-.243l-34.374-27.928a6.94449,6.94449,0,0,0-.392,2.044l-1.474,9.554,23.593,33.351,12.026-4.411Z" transform="translate(0)"/><path id="パス_188" data-name="パス 188" class="cls-25" d="M1530.56449,272.11305l-12.5,4.816,1.327,1.439,12.618-5.053Z" transform="translate(0)"/><path id="パス_189" data-name="パス 189" class="cls-25" d="M1518.8075,279.155l2.2-.75.093-1.117-35.207-28.607-2,.522Z" transform="translate(0)"/><path id="パス_190" data-name="パス 190" class="cls-26" d="M1515.7215,304.377l3.006-19.839.775-6.406-35.615-28.937-4.041,26.2a5.91845,5.91845,0,0,0-.024,1.821,3.80514,3.80514,0,0,0,.285.986,2.85282,2.85282,0,0,0,.223.416,2.824,2.824,0,0,0,.6.677l35.614,28.935C1515.61652,307.485,1515.44352,306.167,1515.7215,304.377Z" transform="translate(0)"/><path id="パス_191" data-name="パス 191" class="cls-27" d="M1532.00449,273.313l-12.5,4.818-4.041,26.2c-.559,3.607,1.766,5.455,5.184,4.139l.125-.049a12.607,12.607,0,0,0,7.194-8.906Z" transform="translate(0)"/><path id="パス_192" data-name="パス 192" class="cls-28" d="M1526.23749,266.792c2.663.047,4.772,1.979,4.248,5.371l-.47,2.659-2.216-1.661a2.961,2.961,0,0,0-.864-3.017c-2.287-1.839-6.007,1.372-7.221,2.99a8.887,8.887,0,0,0-1.739,3.85l-.57,2.663-2.687,1.035.57-2.665a15.589,15.589,0,0,1,4.133-8.261A9.00694,9.00694,0,0,1,1526.23749,266.792Z" transform="translate(0)"/><path id="パス_193" data-name="パス 193" class="cls-29" d="M1498.55448,282.442l1.963-.763-1.04,6.617-1.965.764.5-3.8Z" transform="translate(0)"/><path id="パス_194" data-name="パス 194" class="cls-25" d="M1495.0785,239.867a4.435,4.435,0,0,0-1.654-.795c-1.841-.392-4.039.543-5.5,1.436a15.33228,15.33228,0,0,0-3.485,2.995,15.07708,15.07708,0,0,0-3.329,6.19c-.06.256-.111.508-.151.759l-1.218,7.809,14.74,22.3,3.166,2.569,17.717,4.052.229-.14.666-3.607c.327-2.129,2.2-8.352,3.589-10.169,1.928-2.523,7.831-6.756,10.839-4.458Z" transform="translate(0)"/><path id="パス_195" data-name="パス 195" class="cls-27" d="M1528.29749,267.999c2.665.045,4.242,2.162,3.718,5.553l-1.472,9.557-2.692,1.035,1.472-9.554a3.129,3.129,0,0,0-.857-3.057c-2.285-1.839-6.248,1.356-7.464,2.973a8.91885,8.91885,0,0,0-1.737,3.85l-1.216,7.789-2.69,1.04,1.218-7.793a15.588,15.588,0,0,1,4.133-8.261A10.89094,10.89094,0,0,1,1528.29749,267.999Z" transform="translate(0)"/><path id="パス_196" data-name="パス 196" class="cls-29" d="M1498.55448,282.442l.727-.282-1.04,6.619-.729.282.5-3.8Z" transform="translate(0)"/><path id="パス_197" data-name="パス 197" class="cls-30" d="M1494.02149,278.702l2.689,2.459,1.844,1.281.727-.282-4.532-3.738Z" transform="translate(0)"/><path id="パス_198" data-name="パス 198" class="cls-31" d="M1494.02149,278.702l4.532,3.74-1.04,6.617-4.532-3.738Z" transform="translate(0)"/><g id="グループ_104" data-name="グループ 104"><path id="パス_199" data-name="パス 199" class="cls-27" d="M1503.1785,245.563c.029-.113.065-.223.1-.327l.013-.042a2.603,2.603,0,0,1,.127-.287l.025-.051a2.34489,2.34489,0,0,1,.145-.245l.013-.02a1.96683,1.96683,0,0,1,.485-.512c.025-.018.049-.036.076-.053a1.76716,1.76716,0,0,1,.343-.185l-3.743,1.454a1.96531,1.96531,0,0,0-.343.185.67647.67647,0,0,0-.076.056,1.8008,1.8008,0,0,0-.3.272h-.007a2.60883,2.60883,0,0,0-.174.225l-.007.009-.011.018a1.60369,1.60369,0,0,0-.1.167c-.016.024-.027.053-.042.08l-.025.051-.024.04694c-.027.058-.051.116-.076.176l-.025.065-.016.04c-.007.024-.016.047-.022.067q-.03.083-.053.167c-.009.031-.018.065-.027.1l-.007.031-.011.045c-.013.054-.027.109-.038.167s-.022.114-.031.171v.009l-.294,1.837,3.743-1.454.294-1.835c.022-.136.049-.267.08-.392Z" transform="translate(0)"/><path id="パス_200" data-name="パス 200" class="cls-32" d="M1507.23752,242.10305c-.069-.053-.138-.107-.209-.154-.047-.033-.091-.062-.136-.093l-.033-.022-.04-.027c-.069-.044-.138-.089-.207-.129s-.14-.082-.212-.12l-.038-.02-.036-.016c-.044-.025-.093-.049-.138-.071-.074-.036-.147-.071-.22-.1-.036-.016-.071-.029-.109-.042l-.047-.02-.064-.024c-.08-.029-.16-.056-.238-.078-.051-.016-.1-.029-.149-.04l-.049-.013-.047-.013c-.087-.018-.176-.036-.263-.049-.038-.007-.078-.007-.113-.013l-.089-.009a.59946.59946,0,0,0-.089-.009,3.26628,3.26628,0,0,0-.33,0h-.007c-.027,0-.053.007-.082.007a3.15026,3.15026,0,0,0-.321.038l-.024.007a2.73508,2.73508,0,0,0-.461.131l-3.743,1.454a5.747,5.747,0,0,1,3.93,1.414l2.175-1.073,1.552-.784A1.20419,1.20419,0,0,0,1507.23752,242.10305Z" transform="translate(0)"/><path id="パス_201" data-name="パス 201" class="cls-32" d="M1514.04449,258.242l.314-.122c0,.225-.007.45-.022.67v.051c-.018.22-.042.436-.076.648l3.743-1.452c.013-.082.024-.167.036-.252a9.42432,9.42432,0,0,0,.049-1.7c0-.038-.007-.073-.007-.111v-.062c0-.045-.007-.087-.011-.129a12.51705,12.51705,0,0,0-.363-2.046,13.72194,13.72194,0,0,0-1.093-2.834c-.011-.013-.172-.323-.2-.367a3.22809,3.22809,0,0,0-.169-.294,10.89431,10.89431,0,0,0-2.242-2.687l-.049-.04-1.85.554-2.031.931C1512.71249,251.129,1514.03351,254.802,1514.04449,258.242Z" transform="translate(0)"/><path id="パス_202" data-name="パス 202" class="cls-33" d="M1510.20151,248.968l-6.542-5.284c-2.8-2.264-5.54-1.225-6.105,2.313l-.294,1.835,1.79,1.447.294-1.837c.365-2.287,2.142-2.959,3.954-1.5l6.54,5.286a8.038,8.038,0,0,1,2.621,6.807l-.294,1.835,1.8,1.452.294-1.837A12.441,12.441,0,0,0,1510.20151,248.968Z" transform="translate(0)"/><path id="パス_203" data-name="パス 203" class="cls-27" d="M1514.2565,259.488l-.294,1.837,3.743-1.454.294-1.835c.013-.082.024-.167.036-.252s.022-.18.029-.272l.011-.127v-.053l.009-.094c0-.091.009-.183.011-.276l-3.738,1.142v.013c0,.225-.007.45-.022.67v.051C1514.31451,259.061,1514.28949,259.276,1514.2565,259.488Z" transform="translate(0)"/><path id="パス_204" data-name="パス 204" class="cls-25" d="M1507.4035,242.23l-3.886,1.511,6.542,5.284,3.887-1.511Z" transform="translate(0)"/></g></g><path id="パス_205" data-name="パス 205" class="cls-9" d="M1499.52549,234.024c.844,8.724-1.093,13.066-.483,14.925.514,1.572,8.04,8.55,10.574,10.16.8.468,2.574-.49,2.8-.837,1.151-1.8-.432-4.311-.009-8.022.245-2.146,1.964-1.837,2.741-1.4,1.242.7,1.783,2.848,2.347,4.032-.485-5.025,1.02-9.12-2.244-12.752-1.465-1.63-3.346-3.113-4.086-6.143Z" transform="translate(0)"/><path id="パス_206" data-name="パス 206" class="cls-15" d="M1515.60151,140.677c-9.182,4.124-14.391,32.816-18.456,50.829.078,15.364-.289,27.9.942,43.221,2.489,3.226,13.373,7.537,15.455,1.763.376-13.208,2.186-28.763-.214-41.907,4.237-6.851,7.147-14.3,9.777-21.467,1.552-4.239,3.69-9.272,4.589-13.533C1526.5405,152.599,1524.03351,143.077,1515.60151,140.677Z" transform="translate(0)"/><path id="パス_207" data-name="パス 207" class="cls-7" d="M1515.60151,140.677c-9.182,4.124-14.391,32.816-18.456,50.829.078,15.364-.289,27.9.942,43.221,1.245,1.614,4.589,3.5,7.882,4.257l-.47-1.164c-1.741-14.292-2.073-29.507-2.7-43.9,5.691-20.108,10.1-30.591,18.376-49.586A11.13814,11.13814,0,0,0,1515.60151,140.677Z" transform="translate(0)"/></g><path id="パス_208" data-name="パス 208" class="cls-34" d="M1539.8715,161.078c3.534,16.023,6.577,26.764,7.123,36.621.782,14.077-.71,26.492-4.355,49.651l15.673-3.821c2.142-14.072,6.894-29.863,5.811-45.309C1563.05448,183.006,1556.29047,168.078,1539.8715,161.078Z" transform="translate(0)"/><path id="パス_209" data-name="パス 209" class="cls-34" d="M1560.73749,129.233c9.1,10.672,8.189,25.869,8.038,42.428-.22,23.949-.374,43.118-1.783,66.7a21.16092,21.16092,0,0,0,6.357-8.793c-.839-19.955-2.474-42.141-1.013-61.853,1.242-16.789,1.572-33.377-8.192-42.973A17.56012,17.56012,0,0,1,1560.73749,129.233Z" transform="translate(0)"/><g id="グループ_107" data-name="グループ 107"><path id="パス_210" data-name="パス 210" class="cls-15" d="M1540.78848,215.095c6.7-3.1,8.548-3.894,14.368-5.342l-2.44,17.087a22.749,22.749,0,0,1-13.814,5.119Z" transform="translate(0)"/><path id="パス_211" data-name="パス 211" class="cls-7" d="M1540.78848,215.095c6.7-3.1,8.548-3.894,14.368-5.342-.766,5.11-.367,4.894-5.489,7.392-9.147,4.46-6.312,4.26-9.334,14.738-.134.461-.96.067-1.432.076Z" transform="translate(0)"/><path id="パス_212" data-name="パス 212" class="cls-15" d="M1541.24951,212.855c6.747-3.093,9.75-4.9,14.758-7.063l-1.2,6.9c-1.7,1.616-10.659,6.515-14.653,6.346Z" transform="translate(0)"/><path id="パス_213" data-name="パス 213" class="cls-7" d="M1541.24951,212.855c6.747-3.093,9.75-4.9,14.758-7.063-4.854,3.888-13.09,6.916-14.446,13.139a6.827,6.827,0,0,1-1.407.107Z" transform="translate(0)"/><path id="パス_214" data-name="パス 214" class="cls-34" d="M1554.00949,215.83405l-8.43,4.972-3.3,9.813a35.146,35.146,0,0,0,9.385-3.491Z" transform="translate(0)"/><path id="パス_215" data-name="パス 215" class="cls-34" d="M1555.29251,206.943c-3.925,2.883-9.441,6.918-11.723,10.835a40.84835,40.84835,0,0,0,10.34-5.106A31.55174,31.55174,0,0,0,1555.29251,206.943Z" transform="translate(0)"/></g><g id="グループ_110" data-name="グループ 110"><g id="グループ_108" data-name="グループ 108"><path id="パス_216" data-name="パス 216" class="cls-15" d="M1568.70749,204.796c2.216-2.552,2.826-3.2,4.747-4.175l-.2,17.648c-1.067,1.634-4.264,3.431-5.17,3.237Z" transform="translate(0)"/><path id="パス_217" data-name="パス 217" class="cls-7" d="M1568.70749,204.796c2.216-2.552,2.826-3.2,4.747-4.175-.254,5.05-.122,4.867-1.812,6.947-3.021,3.716-1.993,3.732-2.993,13.963a1.74,1.74,0,0,1-.563-.024Z" transform="translate(0)"/><path id="パス_218" data-name="パス 218" class="cls-34" d="M1573.07349,206.61005l-2.783,4.286-.659,9.806a7.68807,7.68807,0,0,0,3.184-2.725Z" transform="translate(0)"/></g><g id="グループ_109" data-name="グループ 109"><path id="パス_219" data-name="パス 219" class="cls-15" d="M1568.34749,200.682c2.349-1.409,3.356-2.476,5.11-3.384l.176,6.727c-.512,1.209-3.558,3.885-5.135,2.679Z" transform="translate(0)"/><path id="パス_220" data-name="パス 220" class="cls-7" d="M1568.34749,200.682c2.349-1.409,3.356-2.476,5.11-3.384-1.534,2.708-4.469,3.667-4.42,9.663a1.43506,1.43506,0,0,1-.539-.258Z" transform="translate(0)"/><path id="パス_221" data-name="パス 221" class="cls-34" d="M1573.28847,198.287a20.13677,20.13677,0,0,0-3.572,8.016c1.583-.408,2.115-.9,3.565-2.529C1573.38848,201.936,1573.32549,200.26,1573.28847,198.287Z" transform="translate(0)"/></g></g><path id="パス_222" data-name="パス 222" class="cls-15" d="M1548.73951,252.546c-5.5,1.781-8.817,2.8-14.348,3.148-.855,20.18,1.712,32.829.944,46.779-.336,6.119-2.162,12.115-2.044,18.24l.786,41.159a12.181,12.181,0,0,0,7.116-2.2c.45-16.361-1.24-39.669.635-54.6.323-2.583,1.029-4.578,1.327-6.871.278-2.144.18-3.2.454-5.555C1545.15449,279.354,1547.65949,265.714,1548.73951,252.546Z" transform="translate(0)"/><path id="パス_223" data-name="パス 223" class="cls-7" d="M1573.33048,241.44c-4.175,6.375-6.306,8.514-10.378,11.714,1.231,7.942,2.948,19.487,3.7,23.822.577,3.347.158,5.762-.9,7.686-.808,1.47-14.622,10.354-21.429,19.518l-.786,10.378c9.49-8.822,21.033-17.8,29.8-26.5,2.623-2.6,3.093-5.729,2.819-9.675C1575.49048,268.961,1574.65949,253.457,1573.33048,241.44Z" transform="translate(0)"/></g></g><g id="グループ_115" data-name="グループ 115"><g id="グループ_114" data-name="グループ 114"><g class="cls-35"><g id="グループ_113" data-name="グループ 113"><path id="パス_224" data-name="パス 224" class="cls-36" d="M1465.38885,75.59645l13.31129,3.59281-9.52544,9.59331a8.022,8.022,0,0,1-13.71292-7.44088.35832.35832,0,0,0,.01627-.06011,8.1,8.1,0,0,1,9.9108-5.68513m23.1627,8.62882,19.93971,2.53215L1496.75258,102.47a11.666,11.666,0,1,1-8.20244-18.24336m8.25264-28.90016,9.0347,22.01577-23.08279-2.90621a13.884,13.884,0,1,1,14.04809-19.10956" transform="translate(0)"/></g></g></g></g></g></g></svg>