<svg id="レイヤー_2" data-name="レイヤー 2" xmlns="http://www.w3.org/2000/svg" viewBox="0 0 1887 414"><defs><style>.cls-1{fill:#fff;}.cls-2{fill:#f15b55;}.cls-3{isolation:isolate;}.cls-4{fill:#464646;}.cls-5{fill:#c1cad1;}.cls-10,.cls-11,.cls-12,.cls-13,.cls-14,.cls-15,.cls-16,.cls-17,.cls-18,.cls-5,.cls-6,.cls-7,.cls-8,.cls-9{fill-rule:evenodd;}.cls-6{fill:#131a30;}.cls-7{fill:#db9669;}.cls-8{fill:#1d2645;}.cls-9{fill:#f1b287;}.cls-10{fill:#e8a476;}.cls-11{fill:#232e54;}.cls-12{fill:#ceddf0;}.cls-13{fill:#e2ecf8;}.cls-14{fill:#2c3a6b;}.cls-15{fill:#241304;}.cls-16{fill:#361d07;}.cls-17{fill:#4a2b12;}.cls-18{fill:#ebe8e8;}.cls-19{fill:#bdddf4;}</style></defs><rect class="cls-1" width="1887" height="414"/><g id="グループ_157" data-name="グループ 157"><g id="グループ_151" data-name="グループ 151"><ellipse id="楕円形_4" data-name="楕円形 4" class="cls-2" cx="441.32424" cy="69.65075" rx="163" ry="69.5"/><g id="CASE.02" class="cls-3"><g class="cls-3"><path class="cls-1" d="M363.90088,81.29443a34.1904,34.1904,0,0,1-7.07813,2.55469,26.25817,26.25817,0,0,1-5.0625.51563q-8.10937,0-12.77343-4.82813t-4.66407-13.47656q0-8.48437,4.72266-13.44141t12.73828-4.957a26.63239,26.63239,0,0,1,12.11719,2.97656v7.24219h-.82031q-5.50782-4.6875-10.42969-4.6875a9.10589,9.10589,0,0,0-7.45313,3.36328q-2.74218,3.36329-2.74218,9.52735,0,6.11718,2.78906,9.43359a9.24426,9.24426,0,0,0,7.45312,3.31641,13.65157,13.65157,0,0,0,4.75782-.85547,19.97962,19.97962,0,0,0,5.69531-3.8086h.75Z" transform="translate(-0.05319 0.48936)"/><path class="cls-1" d="M400.604,83.66162h-8.17968l-2.67188-7.66406H375.854l-2.67187,7.66406H365.354l13.33594-35.32031h8.57813ZM387.80713,70.51318l-4.99219-14.25-4.99219,14.25Z" transform="translate(-0.05319 0.48936)"/><path class="cls-1" d="M402.78369,81.55225V74.07568h.79688a20.84975,20.84975,0,0,0,6.03515,3.42188,18.80241,18.80241,0,0,0,6.55078,1.26562,10.28838,10.28838,0,0,0,5.25-1.17187,3.61874,3.61874,0,0,0,1.99219-3.25781,3.5082,3.5082,0,0,0-.94922-2.57813,7.71017,7.71017,0,0,0-3.59765-1.59375q-1.89845-.35155-6.48047-1.38281a13.18933,13.18933,0,0,1-6.98438-3.6211,9.83824,9.83824,0,0,1,1.69922-14.4375,17.36913,17.36913,0,0,1,10.54688-3.01171,31.86418,31.86418,0,0,1,12.32812,2.39062v7.14844h-.77344a17.4482,17.4482,0,0,0-11.29687-3.98438,9.8936,9.8936,0,0,0-4.98047,1.125,3.42447,3.42447,0,0,0-1.957,3.07032,3.35772,3.35772,0,0,0,1.11328,2.64843,8.98112,8.98112,0,0,0,3.80859,1.61719q2.69532.4922,6.01172,1.30078a17.77739,17.77739,0,0,1,4.94532,1.81641,10.41847,10.41847,0,0,1,2.60156,2.1914,8.14621,8.14621,0,0,1,1.45312,2.63672,10.1826,10.1826,0,0,1,.48047,3.21094,9.8603,9.8603,0,0,1-4.207,8.29688q-4.207,3.14063-11.14453,3.14062A33.49456,33.49456,0,0,1,402.78369,81.55225Z" transform="translate(-0.05319 0.48936)"/><path class="cls-1" d="M461.729,83.66162H437.11963V48.34131H461.729v5.85937H444.80713v7.54688h15.72656V67.5835H444.80713V77.80225H461.729Z" transform="translate(-0.05319 0.48936)"/><path class="cls-1" d="M476.61182,83.66162h-7.99219V75.13037h7.99219Z" transform="translate(-0.05319 0.48936)"/><path class="cls-1" d="M497.18994,84.41162q-7.1953,0-10.55859-4.37109t-3.36328-14.02735q0-9.5625,3.375-13.96875t10.54687-4.40625q7.17188,0,10.54688,4.39453t3.375,13.957q0,9.72656-3.35157,14.07421T497.18994,84.41162Zm0-31.3125a4.83686,4.83686,0,0,0-4.69922,3.082q-1.418,3.082-1.418,9.85547,0,6.75,1.45313,9.84375a5.048,5.048,0,0,0,9.32812-.04687q1.45313-3.14062,1.45313-9.84375,0-6.75-1.418-9.82032A4.83743,4.83743,0,0,0,497.18994,53.09912Z" transform="translate(-0.05319 0.48936)"/><path class="cls-1" d="M543.59619,83.66162h-26.625V78.10693q10.10157-7.6875,13.582-11.85937t3.48047-7.40625a4.94748,4.94748,0,0,0-1.67578-3.9961,6.908,6.908,0,0,0-4.60547-1.418,17.00946,17.00946,0,0,0-9.28125,3.16406h-.58594V49.86475a30.98579,30.98579,0,0,1,11.08594-2.22657q6.25782,0,9.64453,2.73047a9.27575,9.27575,0,0,1,3.38672,7.65235,14.83925,14.83925,0,0,1-2.7539,8.02734q-2.75391,4.23047-12.8086,11.918h17.15625Z" transform="translate(-0.05319 0.48936)"/></g></g></g><g id="副業がバレたくないから_やりたいんだけど出来ないわ" data-name="副業がバレたくないから やりたいんだけど出来ないわ" class="cls-3"><g class="cls-3"><path class="cls-4" d="M635.58447,180.6792H601.18994v-5.94727h34.39453Zm-9.19922,42.83154H609.71533v1.81641h-7.55859V199.28271h32.05078v26.04444h-7.82227Zm6.44532-26.80615H603.59229V183.08154h29.23828Zm-18.252,8.26172h-4.86328v3.896h4.86328Zm-4.86328,12.91943h4.86328V213.6084h-4.86328ZM625.272,191.72412v-3.7793h-14.0625v3.7793Zm1.11328,17.13818v-3.896h-4.834v3.896Zm-4.834,9.02344h4.834V213.6084h-4.834Zm22.17773-5.53711h-6.82617V176.72412H643.729Zm10.51758,7.32422a5.0519,5.0519,0,0,1-1.8457,3.95508,6.2328,6.2328,0,0,1-4.21875,1.61133h-7.14844l-.9668-6.94336h4.7461q2.168,0,2.168-1.81641V173.12061h7.26562Z" transform="translate(-0.05319 0.48936)"/><path class="cls-4" d="M684.12939,215.98145a68.15852,68.15852,0,0,1-22.88085,9.082l-2.13868-5.85938a73.15738,73.15738,0,0,0,18.01758-6.5039H661.07275v-5.56592h23.05664v-2.75391H664.14893v-5.21484h19.98046v-2.75391H663.24072v-5.5957h10.957l-1.31836-3.36914H661.86377v-5.625h6.62109l-2.959-6.79688,7.00195-1.72851,3.75,8.52539h2.666v-9.31641h7.08984v9.31641h4.45313v-9.31641h7.002v9.31641h3.01758l3.7207-8.584,7.32422,1.72852-3.60352,6.85547h7.06055v5.625H703.67041l-2.02148,3.36914h12.041v5.5957H692.03955v2.75391H712.1958v5.21484H692.03955v2.75391h23.34961v5.56592h-15.9668a77.90187,77.90187,0,0,0,17.98828,5.88867l-3.04687,6.5332a63.4745,63.4745,0,0,1-22.32422-9.63867v10.48828h-7.91016Zm-3.6914-28.53467,1.34765,3.36914h12.2461l1.75781-3.36914Z" transform="translate(-0.05319 0.48936)"/><path class="cls-4" d="M740.76025,180.47412q0,1.9043-.14648,4.51172h7.5293a10.42823,10.42823,0,0,1,8.02734,3.25195A11.87239,11.87239,0,0,1,759.188,196.646q0,12.832-2.959,20.85888-2.95971,8.02735-10.07812,8.02735a15.31325,15.31325,0,0,1-4.292-.67383,39.70093,39.70093,0,0,1-7.45606-3.69141l2.69531-6.97265q5.53711,3.07617,7.99805,3.07617a2.63319,2.63319,0,0,0,1.96289-.84961,10.62914,10.62914,0,0,0,1.75781-3.63281,32.36628,32.36628,0,0,0,1.377-6.21045,61.2889,61.2889,0,0,0,.43945-7.73438,15.58531,15.58531,0,0,0-.38086-4.16015,3.22681,3.22681,0,0,0-1.25976-1.78711,3.93468,3.93468,0,0,0-2.22657-.58594h-6.76757q-2.84181,20.918-14.79493,33.896l-6.59179-4.13085q3.28052-3.69141,7.16308-11.63086a61.31081,61.31081,0,0,0,5.376-18.13428H720.48682v-7.32422h11.63086l.05859-11.33789h8.584Zm36.24024,25.2832-8.02735,2.25538a80.71791,80.71791,0,0,0-5.1416-13.60791,65.031,65.031,0,0,0-6.9873-10.7959l6.65039-3.89649Q774.56885,194.06787,777.00049,205.75732Zm-6.88477-24.78515-4.248,1.61133q-2.43238-6.03516-3.98438-8.99414l4.043-1.61133Q768.50366,176.9292,770.11572,180.97217Zm8.02735-.64453-4.07227,1.55273q-1.93359-4.80468-4.043-8.99414l3.89649-1.49414Q776.32593,175.9917,778.14307,180.32764Z" transform="translate(-0.05319 0.48936)"/><path class="cls-4" d="M803.22119,175.69873q-.26367,13.916-1.91894,21.54785a48.34061,48.34061,0,0,1-6.00586,14.82373,61.70394,61.70394,0,0,1-10.91309,13.28614l-5.94726-5.625a49.29829,49.29829,0,0,0,8.3789-10.15137,57.94329,57.94329,0,0,0,5.15625-11.70362q2.19728-6.73827,2.43164-22.4414ZM837.645,218.88184l-6.5918,6.123a51.75877,51.75877,0,0,1-10.29785-15.293,73.9345,73.9345,0,0,1-5.1416-17.15283,91.54762,91.54762,0,0,1-1.49414-15.01465l.0293-1.99218,8.84765-.17579v.9668a78.47776,78.47776,0,0,0,3.06153,22.4707Q829.11889,209.09717,837.645,218.88184Zm-7.26563-37.79248-4.27734,1.61132q-1.2019-3.16406-3.89648-9.16992l4.01367-1.43555A96.80934,96.80934,0,0,1,830.37939,181.08936Zm7.70508-2.168-4.21875,1.55273q-1.23047-3.10547-3.89648-9.05273l3.89648-1.43555Q836.26734,174.58545,838.08447,178.92139Z" transform="translate(-0.05319 0.48936)"/><path class="cls-4" d="M895.62305,197.23193q-6.18165,9.84375-18.14844,17.53369a82.31445,82.31445,0,0,1-26.14844,10.97168l-4.59961-3.48632V175.93311H855.75v39.84326a72.98938,72.98938,0,0,0,17.57813-8.56885A57.08858,57.08858,0,0,0,888.709,192.54443Z" transform="translate(-0.05319 0.48936)"/><path class="cls-4" d="M921.52148,173.355q.0879,1.084.0879,3.75,0,1.99219-.11719,3.89648h19.36523v7.03125H920.70117a83.06086,83.06086,0,0,1-4.86328,20.97608q-4.043,11.25-8.93555,17.54883l-6.79687-4.01367a64.49788,64.49788,0,0,0,7.85156-15.92237,86.6711,86.6711,0,0,0,4.45313-18.58887H902.15625v-7.03125H912.9082q.23438-4.71679.23438-7.64648ZM954.832,223.74512a89.6938,89.6938,0,0,1-13.88672.96679,71.67691,71.67691,0,0,1-10.58984-.68847,12.85365,12.85365,0,0,1-7.16406-3.17871,7.87773,7.87773,0,0,1-2.60743-5.88868q0-4.51172,4.80469-9.31591l6.24024,2.9292q-2.9004,3.54492-2.90039,5.68359a1.93269,1.93269,0,0,0,1.05468,1.69922,11.89229,11.89229,0,0,0,4.24805,1.01074,64.06971,64.06971,0,0,0,7.23633.36621,75.5478,75.5478,0,0,0,13.1543-1.14258Zm-1.55273-32.57764-.41016,6.97266q-1.66992-.0879-3.48633-.08789-9.93164,0-24.60937,1.34765l-.52735-6.97265a221.34823,221.34823,0,0,1,24.4043-1.34766Q951.46289,191.07959,953.2793,191.16748Z" transform="translate(-0.05319 0.48936)"/><path class="cls-4" d="M1006.80469,221.46l-6.67969,6.18164-8.4668-7.14844q-3.86718-3.28125-7.4414-5.83007l-6.73828-4.59961q-6.47461-4.4524-8.02735-5.8003a8.10554,8.10554,0,0,1-2.168-2.72461,7.53389,7.53389,0,0,1-.61523-3.10546q0-4.01369,4.48242-7.03125,1.582-1.0254,7.03125-4.70215t8.74609-6.25489q3.29591-2.57812,9.53516-7.88086l6.91406,5.44922a257.57843,257.57843,0,0,1-22.73437,16.55274q-1.084.67383-3.07617,1.99219a24.18969,24.18969,0,0,0-2.05078,1.42089.71626.71626,0,0,0-.0586.33692q0,.32226.14649.41015l5.30273,3.54493q10.04883,6.709,15.23438,10.51709Q1001.32618,216.59668,1006.80469,221.46Z" transform="translate(-0.05319 0.48936)"/><path class="cls-4" d="M1040.584,174.49756q-.20507,4.6875-.67382,8.584h12.77343v7.002h-13.82812a67.148,67.148,0,0,1-13.27149,29.82373l-6.416-4.62891q7.96875-9.78516,11.33789-25.19482h-9.02344v-7.002h10.25391a83.10408,83.10408,0,0,0,.67383-8.84765Zm36.123,42.15771-4.33594,6.50391a69.58878,69.58878,0,0,0-9.78515-7.06055q0,5.06836-3.16406,7.5293t-10.42969,2.46094a17.173,17.173,0,0,1-9.72656-2.57813,8.13728,8.13728,0,0,1-3.86719-7.14844,8.96821,8.96821,0,0,1,4.10156-7.749,17.10069,17.10069,0,0,1,10.01953-2.856,35.77072,35.77072,0,0,1,4.98047.32227V190.87451h8.08594v17.40186A73.35538,73.35538,0,0,1,1076.707,216.65527Zm-22.207-4.10156a23.92438,23.92438,0,0,0-4.98047-.49805,9.96022,9.96022,0,0,0-4.64258,1.01075,3.08871,3.08871,0,0,0-1.94922,2.79785q0,3.69141,6.82618,3.6914,4.74609,0,4.74609-3.42773Zm22.61719-20.24365-6.416,4.86328a87.579,87.579,0,0,0-8.46679-8.49609,64.52025,64.52025,0,0,0-8.93555-7.002l4.92187-5.44922a58.60323,58.60323,0,0,1,9.6836,7.01661A83.19281,83.19281,0,0,1,1077.11719,192.31006Z" transform="translate(-0.05319 0.48936)"/><path class="cls-4" d="M1111.57031,205.87451a78.84083,78.84083,0,0,1-3.82226,9.09619,34.95619,34.95619,0,0,1-4.52735,7.41211,6.53753,6.53753,0,0,1-5.127,2.3877q-6.32812,0-10.86914-7.80762a35.03182,35.03182,0,0,1-4.541-17.94385q0-3.31055.64454-9.81445.61522-6.53321.61523-9.78516h8.96484q-.08789,2.959-.8789,9.69727a85.68816,85.68816,0,0,0-.76172,9.72656,28.84924,28.84924,0,0,0,2.27148,11.83545q2.269,5.09766,3.85157,5.09766,2.28515,0,7.207-13.38819Zm24.16992,10.83936-8.81835.55664a56.10187,56.10187,0,0,0-3.16407-18.28076,49.63154,49.63154,0,0,0-8.61328-15.791l7.08985-3.54492Q1135.74023,194.68311,1135.74023,216.71387Z" transform="translate(-0.05319 0.48936)"/><path class="cls-4" d="M1161.60938,180.47412q0,1.8457-.14649,4.45313h8.11524a10.544,10.544,0,0,1,8.08593,3.29589,11.89414,11.89414,0,0,1,3.07617,8.45215q0,12.97853-3.01757,20.97608-3.01758,7.998-10.22461,7.998-4.39453,0-12.01172-4.36523l2.69531-7.08984a29.08893,29.08893,0,0,0,4.9375,2.15332,16.04618,16.04618,0,0,0,3.41211.92285,2.64035,2.64035,0,0,0,1.97852-.87891,10.43214,10.43214,0,0,0,1.74218-3.54492,32.052,32.052,0,0,0,1.36328-6.10791,60.99312,60.99312,0,0,0,.45313-7.89551,15.72243,15.72243,0,0,0-.38086-4.18945,3.29966,3.29966,0,0,0-1.25977-1.80176,3.8611,3.8611,0,0,0-2.22656-.60059H1160.877q-2.69531,20.50782-15.41015,34.30616l-6.35742-4.7168a60.5793,60.5793,0,0,0,7.55859-11.57227q3.69141-7.0891,5.30273-18.01709h-10.60547v-7.32421h11.66016V173.648h8.584Zm36.4746,24.43359-8.4082,2.168a92.70363,92.70363,0,0,0-4.10156-12.09961,64.52391,64.52391,0,0,0-4.17383-7.52929,43.50092,43.50092,0,0,0-4.20508-5.77149l6.709-4.18945a61.85768,61.85768,0,0,1,9.02343,13.125A52.03906,52.03906,0,0,1,1198.084,204.90771Z" transform="translate(-0.05319 0.48936)"/><path class="cls-4" d="M1214.46094,226.08887l-1.20117-7.44141q15.293,0,23.27734-2.3584,7.98194-2.35839,7.98242-7.71972a7.0245,7.0245,0,0,0-2.8418-6.02q-2.8418-2.09473-7.82226-2.09473a31.05288,31.05288,0,0,0-13.125,3.01758,28.89029,28.89029,0,0,0-10.54688,7.96826l-6.416-3.77881q4.42383-10.2832,4.98047-24.84375l8.64258.49805a63.82423,63.82423,0,0,1-2.57813,15.46875,33.9753,33.9753,0,0,1,9.03906-3.7793,37.45711,37.45711,0,0,1,9.916-1.49414q9.16992,0,14.3418,3.86719,5.16942,3.86718,5.16992,11.19092a13.52159,13.52159,0,0,1-3.36914,9.28711q-3.36915,3.80859-10.3711,5.77148T1214.46094,226.08887Zm34.6875-45.84912-3.83789,7.4414a77.68127,77.68127,0,0,0-15.498-4.36523q-9.4043-1.78712-15.70312-2.34375l2.25585-7.03125A170.12092,170.12092,0,0,1,1249.14844,180.23975Z" transform="translate(-0.05319 0.48936)"/><path class="cls-4" d="M1273.40625,206.43115h-9.11133V196.353h9.11133Zm19.6582,0h-9.11132V196.353h9.11132Zm19.89258,0h-9.11133V196.353h9.11133Z" transform="translate(-0.05319 0.48936)"/></g><g class="cls-3"><path class="cls-4" d="M626.59033,314.71191l-8.52539,1.55274q-3.54492-15-7.93945-31.81641l-8.75977,2.60742-1.96289-7.5,8.81836-2.34375q-1.875-7.08984-3.54492-12.77343l8.4668-1.69922,3.31054,12.27539q5.65358-1.49415,9.375-2.37305-1.93359-2.6953-5.00976-6.709l6.76758-3.36914q2.78319,3.13476,6.5625,8.34961a40.966,40.966,0,0,1,6.59179-.67383q7.05983,0,11.33789,4.08691,4.27735,4.08691,4.27735,10.91309a12.4063,12.4063,0,0,1-4.834,10.42969q-4.834,3.72069-12.80273,3.7207a46.45388,46.45388,0,0,1-8.84766-.9375l.17578-7.32422a40.04744,40.04744,0,0,0,7.73438.87891q10.04809,0,10.04883-6.6211a8.57132,8.57132,0,0,0-1.97754-5.93262,6.88218,6.88218,0,0,0-5.40528-2.21191,14.3966,14.3966,0,0,0-1.8457.11719,42.92645,42.92645,0,0,1,3.04688,5.47851l-7.70508,3.01758a49.31477,49.31477,0,0,0-3.7793-6.85547q-5.18554,1.20117-11.83594,3.07618Q622.72314,298.74512,626.59033,314.71191Z" transform="translate(-0.05319 0.48936)"/><path class="cls-4" d="M678.29932,316.93848l-1.61133-7.26563q14.56055-1.69922,19.76074-5.97656t5.2002-13.623q0-16.34766-7.44141-16.34765a15.90021,15.90021,0,0,0-8.10059,2.44629q-4.14624,2.44628-6.88476,8.23242a27.97331,27.97331,0,0,0-2.73926,12.11425,30.13978,30.13978,0,0,0,.26367,3.89649l-7.76367.49805a95.29017,95.29017,0,0,1-1.34766-16.52344,112.59256,112.59256,0,0,1,2.02149-21.35742l8.4082.73242q-.87891,4.5996-2.40234,13.82812A21.99148,21.99148,0,0,1,694.44189,266.167q7.793,0,11.85059,6.18164t4.05762,16.9043q0,13.74024-8.042,20.09766T678.29932,316.93848Z" transform="translate(-0.05319 0.48936)"/><path class="cls-4" d="M741.522,263.35449q.0879,1.084.08789,3.75,0,1.99219-.11718,3.89649h19.36523v7.03125H740.70166a83.069,83.069,0,0,1-4.86328,20.97656q-4.043,11.25-8.93555,17.54883L720.106,312.544a64.51037,64.51037,0,0,0,7.85156-15.92286,86.67111,86.67111,0,0,0,4.45312-18.58886h-10.2539V271.001h10.75195q.23438-4.7168.23438-7.64649Zm33.31055,50.39063a89.7028,89.7028,0,0,1-13.88672.96679,71.691,71.691,0,0,1-10.59082-.68847,12.85058,12.85058,0,0,1-7.16309-3.17871,7.876,7.876,0,0,1-2.60742-5.88868q0-4.51171,4.80469-9.3164l6.24023,2.92969q-2.90039,3.54492-2.90039,5.68359a1.9327,1.9327,0,0,0,1.05469,1.69922,11.89229,11.89229,0,0,0,4.24805,1.01074,64.0634,64.0634,0,0,0,7.23633.36621,75.55176,75.55176,0,0,0,13.15429-1.14258ZM773.27979,281.167l-.41016,6.97266q-1.66992-.0879-3.48633-.08789-9.93163,0-24.60937,1.34765l-.52735-6.97265a221.34159,221.34159,0,0,1,24.4043-1.34766Q771.46338,281.0791,773.27979,281.167Z" transform="translate(-0.05319 0.48936)"/><path class="cls-4" d="M811.5708,295.874a78.83,78.83,0,0,1-3.82324,9.09668,34.95963,34.95963,0,0,1-4.52637,7.41211,6.53824,6.53824,0,0,1-5.12695,2.3877q-6.32812,0-10.86914-7.80762a35.02881,35.02881,0,0,1-4.541-17.94434q0-3.31055.64453-9.81445.61524-6.5332.61524-9.78515h8.96484q-.08788,2.959-.8789,9.69726a85.5731,85.5731,0,0,0-.76172,9.72656,28.85339,28.85339,0,0,0,2.2705,11.83594q2.26978,5.09766,3.85254,5.09766,2.28516,0,7.207-13.38867Zm24.16992,10.83985-8.81836.55664a56.10469,56.10469,0,0,0-3.16406-18.28125,49.63154,49.63154,0,0,0-8.61328-15.791l7.08984-3.54492Q835.74073,284.68261,835.74072,306.71387Z" transform="translate(-0.05319 0.48936)"/><path class="cls-4" d="M869.87109,265.376q-6.06444,12.48046-9.69726,20.68359a9.37522,9.37522,0,0,1,3.22265-.58594q6.73829,0,8.40821,5.88867l1.05469,10.54688a8.92713,8.92713,0,0,0,1.582,4.74609,4.21034,4.21034,0,0,0,3.457,1.55274q7.73438,0,10.166-18.22266l7.96875,1.9336q-1.99218,13.27148-6.48828,18.54492a14.97666,14.97666,0,0,1-11.998,5.27343q-6.47461,0-9.53516-3.09082-3.06153-3.09081-3.47266-11.55761l-.17578-4.16016a7.3015,7.3015,0,0,0-.73242-3.208,1.95667,1.95667,0,0,0-1.75781-1.15722q-2.08008,0-4.61328,2.373-2.53419,2.373-5.875,10.51758-2.37306,5.332-4.541,10.57617l-8.05615-1.99218,12.33349-28.44727q1.23048-2.92968,10.22461-22.17773Z" transform="translate(-0.05319 0.48936)"/><path class="cls-4" d="M921.52148,263.35449q.0879,1.084.0879,3.75,0,1.99219-.11719,3.89649h19.36523v7.03125H920.70117a83.069,83.069,0,0,1-4.86328,20.97656q-4.043,11.25-8.93555,17.54883l-6.79687-4.01367a64.49321,64.49321,0,0,0,7.85156-15.92286,86.67116,86.67116,0,0,0,4.45313-18.58886H902.15625V271.001H912.9082q.23438-4.7168.23438-7.64649ZM954.832,313.74512a89.6938,89.6938,0,0,1-13.88672.96679,71.67691,71.67691,0,0,1-10.58984-.68847,12.85365,12.85365,0,0,1-7.16406-3.17871,7.87773,7.87773,0,0,1-2.60743-5.88868q0-4.51171,4.80469-9.3164l6.24024,2.92969q-2.9004,3.54492-2.90039,5.68359a1.93269,1.93269,0,0,0,1.05468,1.69922,11.89229,11.89229,0,0,0,4.24805,1.01074,64.06971,64.06971,0,0,0,7.23633.36621,75.5478,75.5478,0,0,0,13.1543-1.14258ZM953.2793,281.167l-.41016,6.97266q-1.66992-.0879-3.48633-.08789-9.93164,0-24.60937,1.34765l-.52735-6.97265a221.34823,221.34823,0,0,1,24.4043-1.34766Q951.46289,281.0791,953.2793,281.167Zm-6.00586-9.69726-4.30664,1.61132q-2.43165-6.03515-3.98438-8.99414l4.16016-1.61132A90.34323,90.34323,0,0,1,947.27344,271.46973Zm8.34961-1.52344L951.4043,271.499q-2.05079-5.09764-4.01367-8.99414l4.01367-1.49414Q953.80664,265.61036,955.62305,269.94629Z" transform="translate(-0.05319 0.48936)"/><path class="cls-4" d="M981.78516,296.57715a78.90981,78.90981,0,0,0-6.3418,11.001,26.66475,26.66475,0,0,0-1.94922,6.34278h-6.47461a63.92181,63.92181,0,0,1-3.95508-22.35352,107.47049,107.47049,0,0,1,3.72071-26.36718l8.32031,1.25976a130.3589,130.3589,0,0,0-3.44141,14.94141,69.46494,69.46494,0,0,0-.71875,9.75586,74.68,74.68,0,0,0,.49805,9.25781q1.66992-2.666,5.12695-7.91016Zm5.68359,20.21484-3.33984-6.94336q12.65625-4.62889,12.65625-17.57812v-9.02344H977.83008v-7.14844h18.63281V264.43848h8.584v11.66015h11.48437v7.14844h-11.2207v9.31641Q1005.31055,311.31348,987.46875,316.792Z" transform="translate(-0.05319 0.48936)"/><path class="cls-4" d="M1072.37109,314.71191q-9.25781.791-17.8125.791-12.36327,0-16.582-.84961a17.52264,17.52264,0,0,1-9.11133-4.37988,11.40591,11.40591,0,0,1-3.31054-8.54q0-10.04883,14.707-17.168-.9375-10.10742-.99609-20.39063h8.52539l-.0293,2.63672v.87891q0,6.50391.41016,13.50586,6.76756-2.54883,20.06835-6.32813l2.46094,7.32422q-17.92968,4.6582-27.46484,9.33106-9.53613,4.67284-9.53711,10.00488,0,6.50391,14.32617,6.50391H1050.75a207.19222,207.19222,0,0,0,21.26953-1.25977ZM1067.625,272.29l-4.30664,1.61133q-1.20117-3.10548-3.95508-9.11133l4.13086-1.49414Q1065.8086,267.749,1067.625,272.29Zm8.34961-1.66992-4.18945,1.55273q-2.05078-5.09766-4.01368-8.99414l4.01368-1.52344Q1073.95313,265.81543,1075.97461,270.62012Z" transform="translate(-0.05319 0.48936)"/><path class="cls-4" d="M1090.44727,315.44434h-8.40821V290.4248h8.40821v15.64454h13.0664V287.52441h-18.83789v-20.625h8.17383v14.209h10.66406V263.41309h8.34961V281.1084h11.10352V266.72363h8.32031v20.80078h-19.42383v18.54493h14.32617V290.16113h8.40821v25.3418h-8.40821v-2.7832h-35.74218Z" transform="translate(-0.05319 0.48936)"/><path class="cls-4" d="M1164.07031,299.74121a61.61627,61.61627,0,0,1-8.96484,7.44141,67.88748,67.88748,0,0,1-12.71484,7.06054l-3.8379-6.416a77.16967,77.16967,0,0,0,12.2168-6.98731,71.5432,71.5432,0,0,0,8.99414-7.71972h-18.86719v-6.97266h9.4629q-2.69532-5.71289-4.18946-8.52539l7.44141-2.28516q1.9043,3.48633,5.625,10.81055h4.6289V275.21973h-20.85937V268.335h20.85937v-5.15625h8.34961V268.335h21.47461v6.88477h-10.19531l7.26563,2.22656a80.21842,80.21842,0,0,1-5.21485,8.70117h10.07813v6.97266h-19.48242a64.82105,64.82105,0,0,0,21.88476,13.916l-4.92187,7.14844a56.76779,56.76779,0,0,1-12.80274-7.38281q-6.09375-4.62891-8.11523-7.207l.02929,16.55273h-8.14453Zm8.14453-24.52148v10.92773h4.7168a103.73141,103.73141,0,0,0,5.47852-10.92773Z" transform="translate(-0.05319 0.48936)"/><path class="cls-4" d="M1220.584,264.49707q-.20507,4.6875-.67382,8.584h12.77343v7.002h-13.82812a67.14986,67.14986,0,0,1-13.27149,29.82422l-6.416-4.62891q7.96875-9.78516,11.33789-25.19531h-9.02344v-7.002h10.25391a83.10387,83.10387,0,0,0,.67383-8.84765Zm36.123,42.1582-4.33594,6.50391a69.58878,69.58878,0,0,0-9.78515-7.06055q0,5.06836-3.16406,7.5293t-10.42969,2.46094a17.173,17.173,0,0,1-9.72656-2.57813,8.13728,8.13728,0,0,1-3.86719-7.14844,8.96821,8.96821,0,0,1,4.10156-7.749,17.09737,17.09737,0,0,1,10.01953-2.85644,35.77079,35.77079,0,0,1,4.98047.32226V280.874h8.08594v17.40235A73.35538,73.35538,0,0,1,1256.707,306.65527Zm-22.207-4.10156a23.92438,23.92438,0,0,0-4.98047-.49805,9.96022,9.96022,0,0,0-4.64258,1.01075,3.08871,3.08871,0,0,0-1.94922,2.79785q0,3.69141,6.82618,3.6914,4.74609,0,4.74609-3.42773Zm22.61719-20.24414-6.416,4.86328a87.58014,87.58014,0,0,0-8.46679-8.49609,64.52025,64.52025,0,0,0-8.93555-7.002l4.92187-5.44921a58.60249,58.60249,0,0,1,9.6836,7.0166A83.19281,83.19281,0,0,1,1257.11719,282.30957Z" transform="translate(-0.05319 0.48936)"/><path class="cls-4" d="M1291.57031,295.874a78.6358,78.6358,0,0,1-3.82226,9.09668,34.95619,34.95619,0,0,1-4.52735,7.41211,6.53753,6.53753,0,0,1-5.127,2.3877q-6.32812,0-10.86914-7.80762a35.03364,35.03364,0,0,1-4.541-17.94434q0-3.31055.64454-9.81445.61522-6.5332.61523-9.78515h8.96484q-.08789,2.959-.8789,9.69726a85.68816,85.68816,0,0,0-.76172,9.72656,28.85324,28.85324,0,0,0,2.27148,11.83594q2.2705,5.09766,3.85157,5.09766,2.28515,0,7.207-13.38867Zm24.16992,10.83985-8.81835.55664a56.10471,56.10471,0,0,0-3.16407-18.28125,49.63154,49.63154,0,0,0-8.61328-15.791l7.08985-3.54492Q1315.74023,284.68261,1315.74023,306.71387Z" transform="translate(-0.05319 0.48936)"/><path class="cls-4" d="M1330.97461,299.18457q-4.51172,6.62109-7.73438,10.54688l-4.51171-6.416a176.37921,176.37921,0,0,0,12.24609-17.28516v-6.65039h-10.07813v-6.62109h10.07813v-9.58008h8.291v16.46484q8.90625-7.64648,18.457-7.64648,8.23242,0,13.3164,5.30273,5.083,5.30274,5.082,13.74024a26.18286,26.18286,0,0,1-2.57812,11.23535,20.62517,20.62517,0,0,1-8.90625,9.082q-6.32812,3.58887-16.377,3.94043l-1.81641-6.88476a52.67543,52.67543,0,0,0,10.3125-1.81641,17.60943,17.60943,0,0,0,6.08008-3.2959,13.66939,13.66939,0,0,0,3.77929-5.03906,16.72433,16.72433,0,0,0,1.27344-6.54785V291.04a14.17294,14.17294,0,0,0-2.63672-8.77442,8.53493,8.53493,0,0,0-7.207-3.501q-10.166,0-18.77929,10.60547V315.7959h-8.291Z" transform="translate(-0.05319 0.48936)"/></g></g><g id="グループ_153" data-name="グループ 153"><g id="グループ_124" data-name="グループ 124"><path id="パス_225" data-name="パス 225" class="cls-5" d="M1472.16144,377.99218l56.061-31.929c6.112-2.791,14.859-5.016,21.087-1.774,5.672,2.954,15.019,9,19.151,11.354,3.14,1.788,14.033,8.316,7.247,12.007-19.963,10.856-39.719,23.063-59.994,34.094-3.833,2.084-9.442,2.84-15.328,2.351a40.6,40.6,0,0,1-16.6-4.947q-5.055-2.941-9.942-5.786c-4.4-2.561-6.728-5.589-6.961-8.389C1466.65146,382.24117,1468.40945,379.70418,1472.16144,377.99218Z" transform="translate(-0.05319 0.48936)"/><g id="グループ_123" data-name="グループ 123"><path id="パス_226" data-name="パス 226" class="cls-6" d="M1556.38647,183.36217c-3.016-1.312-6.9,7.8-3.984,8.763C1555.37249,193.10017,1559.28246,184.62517,1556.38647,183.36217Z" transform="translate(-0.05319 0.48936)"/><path id="パス_227" data-name="パス 227" class="cls-7" d="M1554.23244,182.56617c1.356.9,3.2,1.084,3.928,1.926,4.177,4.8-4.984,8.644-5.342,8.412-1.186-.77-2.377-3.381-4.5-5.635Z" transform="translate(-0.05319 0.48936)"/><path id="パス_228" data-name="パス 228" class="cls-8" d="M1522.92248,172.92017c6.768,5.863,14.637,12.61,29.387,19.226-2.226-1.309.63-9.277,4.093-8.789-8.454-7.256-18-15.868-26.863-20.519-5.107-2.074-9.326-.363-10.326,2.374C1518.49447,167.18517,1518.94347,169.47317,1522.92248,172.92017Z" transform="translate(-0.05319 0.48936)"/><path id="パス_229" data-name="パス 229" class="cls-6" d="M1522.92248,172.92017c6.768,5.863,14.637,12.61,29.387,19.226-1.116-.658-.956-3-.077-5.1-5.993-4.144-11.047-7.209-11.291-8.082-.514-1.844.065-5.242-.156-8.684a79.8393,79.8393,0,0,0-11.247-7.444c-5.107-2.074-9.326-.363-10.326,2.374C1518.49447,167.18517,1518.94347,169.47317,1522.92248,172.92017Z" transform="translate(-0.05319 0.48936)"/><path id="パス_230" data-name="パス 230" class="cls-9" d="M1517.26244,207.48618c-2.347,7.328-.1,19.5,1.874,32.219,1.084,7,2.828,14.21,3.67,20.375.94,6.875,1.4,11.3,1.133,14.7-.63,8.058-4.021,9.761-5.291,20.263-1.542,12.745,5.161,27.354,4.661,41.4a8.77966,8.77966,0,0,1-1.679,3.449c-5.628,6.919.172,6.007-.367,15.142-.049.8,3.061,14.747,3.061,14.747s8.351,2.323,8.982,2.233,5.814-1.893,5.814-1.893c-.407-.761-.916-2.607-1.247-3.3-3.76-7.982-4.265-17.758-4.272-26.763-.009-12.319,3.388-41.324,6.563-53.166,3.184-7.258,4.3-7.965,3.849-20.54-.737-20.493.647-35.619-1.884-57.273Z" transform="translate(-0.05319 0.48936)"/><path id="パス_231" data-name="パス 231" class="cls-10" d="M1523.79244,268.23617a39.90286,39.90286,0,0,1,.156,6.542c-.63,8.058-4.021,9.761-5.291,20.263-1.542,12.744,5.161,27.354,4.661,41.4a8.78111,8.78111,0,0,1-1.679,3.449c-5.628,6.919.172,6.007-.367,15.142-.049.8,3.061,14.747,3.061,14.747s5.091,1.416,7.626,1.993a27.1,27.1,0,0,1-5.853-15c-.519-6.072,1.535-15.375,1.567-18.924.1-10.833-.314-34.826.135-39.082.742-7,3.184-12.582,5.861-22.5.751-2.791-.172-4.542-6.814-5.237Z" transform="translate(-0.05319 0.48936)"/><path id="パス_232" data-name="パス 232" class="cls-11" d="M1536.77349,364.26817c.9,1.649,1.865,4.012,2.691,5.8a36.02535,36.02535,0,0,1,2.107,5.614,2.62616,2.62616,0,0,1-.188,2.256c-2.019,2.707-12.123-2.23-15.512-5.221-2.188-1.933-2.228-4.216-2.742-7.007-.772-4.193-.9-4.661-1.907-8.968l-1.14,11.686-.963.584a129.703,129.703,0,0,0-1.444-15.126c-.293-1.621-.793-3.47-.865-4.368-.416-5.291,2.2-7.9,4.607-9.384-.884,3.219,1.451,8.451,2.512,15.04,1.109,6.9,4.928,14.435,7.928,15.072,1.267.27,4.063-1.309,5.584-2.174C1538.01745,367.73817,1537.36449,365.76318,1536.77349,364.26817Z" transform="translate(-0.05319 0.48936)"/><path id="パス_233" data-name="パス 233" class="cls-6" d="M1538.53448,378.67317c-3.858-.409-10.133-3.728-12.663-5.961-2.188-1.933-2.228-4.216-2.742-7.007-.772-4.193-.9-4.661-1.907-8.968l-1.14,11.686-1,.665-.884-.914c-.174-4.5.128-10.668-.528-14.293-.293-1.621-.793-3.47-.865-4.368-.416-5.291,2.2-7.9,4.607-9.384-.884,3.219,1.451,8.451,2.512,15.04.911,5.674,3.661,11.784,6.279,14.126A47.27252,47.27252,0,0,0,1538.53448,378.67317Z" transform="translate(-0.05319 0.48936)"/><g id="グループ_118" data-name="グループ 118"><path id="パス_234" data-name="パス 234" class="cls-9" d="M1508.73446,289.57517c-2.214,3.486-4.749,7.023-5.854,9.891-4.209,10.937-2.482,30.191-3.644,46.75-.116,1.644-1.147,3.147-1.619,4.726a57.15049,57.15049,0,0,0-2.04,8.509,77.61391,77.61391,0,0,0-.8,15.8c.114,2.237.912,3.328,1.04,6.388l12.319,4.3c-.214-2.649-.477-6.7-.523-11.154-.039-3.984.116-8.3.235-12.242.137-4.533-.13-8.668.251-11.156,2.412-15.761,6.621-21.219,11.452-37.231,1.993-6.619,2.049-9.437,5.007-15.463,1.3-3.084,2.033-8.4,1.312-13.893C1525.19546,279.62618,1516.14847,284.39618,1508.73446,289.57517Z" transform="translate(-0.05319 0.48936)"/><path id="パス_235" data-name="パス 235" class="cls-9" d="M1495.66147,250.54017c5.961,19.047,10.64,26.019,11.461,34.21.27,2.672-.365,6.133-1.07,9.586l18.386,1.07a82.42078,82.42078,0,0,0,1.516-8.933,34.57451,34.57451,0,0,0-.723-11.789c-1.568-6.263-4.242-15.414-8.556-27.631l-21.11893,1.631Z" transform="translate(-0.05319 0.48936)"/><path id="パス_236" data-name="パス 236" class="cls-10" d="M1513.38946,275.73416a32.14922,32.14922,0,0,1-1.079,6.821c-1.474,5.23-7.575,12.119-9.47,17.04-4.212,10.937-2.481,30.191-3.647,46.747-.116,1.646-1.147,3.149-1.619,4.726a57.24978,57.24978,0,0,0-2.037,8.509,77.62035,77.62035,0,0,0-.8,15.8c.116,2.237.912,3.326,1.04,6.386l4.6,1.6c-1.014-8.126.075-18.882,1.333-28.987,2.154-17.3,5.977-36.982,10.84-50.257,1.66-4.535,3.226-7.861,6.716-10.133-4.258-.747.828-4.637,3.658-10.963Z" transform="translate(-0.05319 0.48936)"/><path id="パス_237" data-name="パス 237" class="cls-11" d="M1497.95443,349.99617c-1.14,2.437-2.2,3.665-2.856,7.13s.086,9.163-.73,13.454l-1.3,6.812c-.753,3.965-.179,6.891,3.83,10.9,3.633,3.637,7.437,5.493,9.779,4.775,1.726-.528,3.451-3.147,2.172-10.979-1.065-6.523-.84-12.665-.979-19.584-.621,6.682-.851,8.956-.279,15.682.158,1.881.188,4.912-2.007,4.879-9.089-.133-9.156-2.593-9.456-5.451C1495.33145,369.97817,1495.95944,356.72217,1497.95443,349.99617Z" transform="translate(-0.05319 0.48936)"/></g><path id="パス_238" data-name="パス 238" class="cls-6" d="M1497.95443,349.99617c-1.14,2.437-2.2,3.665-2.856,7.13s.086,9.163-.73,13.454l-1.3,6.812c-.753,3.965-.179,6.891,3.83,10.9a19.989,19.989,0,0,0,5.812,4.223c.456.2-3.158-6.3-2.5-9.982-3.765-.893-3.86-2.8-4.084-4.921C1495.33144,369.97817,1495.95943,356.72217,1497.95443,349.99617Z" transform="translate(-0.05319 0.48936)"/><path id="パス_239" data-name="パス 239" class="cls-12" d="M1499.15945,176.80817c3.333,6.614,5.112,13.956,4.521,18.279h0a9.49921,9.49921,0,0,1-.3,1.367,31.571,31.571,0,0,1-4.5,8.3,39.3788,39.3788,0,0,0-6.363,13.472c-1.909,7.33-.319,18.672,2.4,31.394,1.5,7,3.665,14.207,4.872,20.375,1.112,5.672,5.126,13.714,2.967,19.531,2.84,2.6,3.768,4.023,8.454,4.14,12.6.307,28.752-6.628,31.752-11.558a26.22041,26.22041,0,0,0,1.468-8.349c.333-2.616.086-5.663.3-13.74.393-14.712-.407-28.526-.628-43.319-.4-4.149-.7-8.582-.919-12.833-.042-1.04-.121-2.023-.23-2.961-.114-1.04-.284-2.065-.491-3.088-1.067-5.33-3.4-9.407-4.242-13.6-1.268-6.34,1.542-12.577.851-19.907-.186-1.963-.379-3.944-.577-5.926-.672-6.7-.749-12.647-1.507-18.5-.979-7.551-1.881-13.986-2.858-17.021a9.13811,9.13811,0,0,0-1.467-3.007c-2-2.854-5.586-4.3-11.833-1.681a140.36384,140.36384,0,0,0-19.531,9.544c-2.828,1.754-11.777,8.421-13.71,11.128a9.59992,9.59992,0,0,0-1.74,5.079C1485.17846,153.78018,1494.86245,168.28018,1499.15945,176.80817Z" transform="translate(-0.05319 0.48936)"/><path id="パス_240" data-name="パス 240" class="cls-13" d="M1529.68948,161.89618c-2.979,1.514-5.891,5.951-10.591,8.523a11.626,11.626,0,0,1-14.463-2.828,27.0856,27.0856,0,0,1-1.623-7.465c-.43-9.568-1.756-14.71-7.186-22.405,3.4-1.858,6.863-3.837,8.749-5.872l21.5-11.721,6.854,1.809c2.242,6.458,3.6,9.83,7.867,16.058a14.97217,14.97217,0,0,1,2.407,12.137C1541.61849,156.91518,1535.10146,159.14317,1529.68948,161.89618Z" transform="translate(-0.05319 0.48936)"/><path id="パス_241" data-name="パス 241" class="cls-12" d="M1492.51244,218.23418c-1.912,7.33-.319,18.672,2.4,31.394,1.5,7,3.665,14.207,4.872,20.375a147.61442,147.61442,0,0,1,2.691,19.731c1.43,2.365,5.826,4.119,8.8,3.914,3.768-21.891-3.572-45.943-4.237-64.471-.339-9.461,4.949-8.035,15.1-12.67,9.535-4.354,12.691-11.97,4.628-9.41-9.97,3.163-16.382.586-15.852-4.363.258-2.423.6-4.779.649-6.77l.284-.437a25.67717,25.67717,0,0,1-8.121-.735,10.51049,10.51049,0,0,1-.349,1.667,31.57069,31.57069,0,0,1-4.5,8.3A40.75421,40.75421,0,0,0,1492.51244,218.23418Z" transform="translate(-0.05319 0.48936)"/><path id="パス_242" data-name="パス 242" class="cls-13" d="M1511.89446,236.51718c1.323,12.3,2.3,23.363,3.656,35.854.649,5.986.9,12.993-.579,18.921,8.756-1.788,19.447-5.1,24.638-8.519,4.533-2.981,3.723-11.693,3.819-16.977.314-17.635-.128-35.238-.514-52.81-.207-9.416-.442-15.291-3.716-23.549-6.158,4.819-12.454,7.663-22.582,9.935,3.621,5.3,5.949,6.907,9.361,6,2.826-.756,6.17-1.242,7.893-.279,1.984,1.1,1.961,3.968-1.235,7.9-2.1,2.574-11.384,8.651-18.435,11.212C1509.48946,225.91018,1511.37844,231.72418,1511.89446,236.51718Z" transform="translate(-0.05319 0.48936)"/><g id="グループ_119" data-name="グループ 119"><path id="パス_243" data-name="パス 243" class="cls-8" d="M1499.15644,176.85217c3.719,7.377,5.5,15.668,4.221,19.654-1.409,4.393-14.8,16.989-12.533,33.5,2.421,6.526,10.081,10.028,19.4,8.377,2.909-.514,23.614-10.863,23.684-12.128.916-16.624,1.072-47.452-5.728-61.015-5.5-10.956-13.468-16.386-18.875-22.847-1.493-2.1-4.433-6.177-6.23-9.412a3.00591,3.00591,0,0,1-1.2-1.526,4.731,4.731,0,0,1,.144-4.142,47.845,47.845,0,0,0-10.11,7.828c-3.342,2.033-5.781,4.454-6.081,8.833-.675,9.847,9.009,24.354,13.307,32.88Zm19.85-54.954a26.38151,26.38151,0,0,0-4.191-1.1c2.135-.947,4.167-1.8,6.01-2.577,6.244-2.619,9.835-1.172,11.833,1.681a9.12421,9.12421,0,0,1,1.467,3.012c.977,3.033,1.879,9.468,2.858,17.017.758,5.856,1.5,12.54,2.165,19.242.2,1.979.388,3.965.574,5.928.693,7.328-1.953,12.665-.686,19,1,5.035,3.065,7.756,4.561,15.721.551,2.926,1.263,11.733,1.535,18.284a21.99992,21.99992,0,0,1-8,6.293c.447-14.845-1.007-29.561-3.063-44.585-1.119-17.321-.284-34.775-6.719-51.262C1525.40644,124.25817,1522.35743,122.36317,1519.00648,121.89817Z" transform="translate(-0.05319 0.48936)"/><path id="パス_244" data-name="パス 244" class="cls-6" d="M1499.15644,176.85317c3.719,7.377,5.5,15.668,4.221,19.654-1.409,4.393-14.8,16.989-12.533,33.5,1.491,4.019,4.967,6.889,9.6,8.116.084-14.482,11.768-25.428,11.063-43.329-.249-6.3-3.233-10.958,1.244-15.868,1.042-1.144,3.912-2,6.351-2.914,5.826-2.177,8.063-5.047,10.6-7.228-4.547-10.07-10.714-16.052-16.056-21.463l-11.6,4.463a32.259,32.259,0,0,0-7.772-15.875v-2.078c-4.493,2.365-8.051,4.793-8.419,10.142-.675,9.847,9.009,24.354,13.307,32.88Zm34.284-10.512c2.188-1.053,4.116-1.914,6.109-2.828v-.3q-.2-2.013-.4-4.035l-.142-1.4c-1.1-6.165-3.637-12.265-5.584-18.068l-3.651,1.4a121.39933,121.39933,0,0,1,3.66907,25.231Z" transform="translate(-0.05319 0.48936)"/><path id="パス_245" data-name="パス 245" class="cls-8" d="M1527.31144,163.65618c-2.26,2-4.753,4.912-8.219,6.807a11.625,11.625,0,0,1-14.461-2.826,27.11851,27.11851,0,0,1-1.628-7.468c-.428-9.568-1.753-14.707-7.184-22.405,3.1-1.693,5.84-2.5,7.8-4.347C1508.91145,144.44018,1518.88041,149.27518,1527.31144,163.65618Zm-8.3-41.817c3.528,1.374,6.488,7,7.633,9.875a94.94337,94.94337,0,0,1,6.37,28.615c4.528-2.209,8.9-4.681,10.177-10.151a14.95794,14.95794,0,0,0-2.409-12.137c-4.263-6.226-5.623-9.6-7.863-16.056l-6.854-1.809Z" transform="translate(-0.05319 0.48936)"/><path id="パス_246" data-name="パス 246" class="cls-11" d="M1500.01048,136.26617l-1.889,1.872c2.149,3.049,5.063,7.665,5.265,12.951.2,5.412,1.186,10.433,2.637,13.6,2.307,5.023,6.361,5.926,11.435,4.554a12.311,12.311,0,0,0,8.174-7.137C1521.84846,155.26917,1503.57347,139.60818,1500.01048,136.26617Z" transform="translate(-0.05319 0.48936)"/><path id="パス_247" data-name="パス 247" class="cls-14" d="M1532.13945,127.16817l-3.023,2.5,3.812,1.247c1.142,9.026,1.265,16.477.126,29.463-1.13-11.4-3.221-22.214-8.03-31.9a12.763,12.763,0,0,0-10.1-7.661l4.026-1.812C1525.27446,117.83717,1529.54142,121.70718,1532.13945,127.16817Z" transform="translate(-0.05319 0.48936)"/><path id="パス_248" data-name="パス 248" class="cls-6" d="M1500.77348,146.65417c-2.386,1.2-8.079,14.631-10.3,11.517-5.04-7.056-7.642-15.826-.34-22.317a75.91916,75.91916,0,0,1,11.737-8.282l-.065,4.847c-1.944,1.9-3.74,3.833-5.977,5.74C1497.95546,141.17918,1499.52946,143.03717,1500.77348,146.65417Z" transform="translate(-0.05319 0.48936)"/><path id="パス_249" data-name="パス 249" class="cls-14" d="M1503.01344,125.91917a8.944,8.944,0,0,0-3.886,5.188c-1.244,4.281,1.007,8.426,4.644,13.947l4.514-1.247-1.516,4.547c10.089,4.909,14.254,7.979,20.642,15.621-8.237-16.661-21.077-23.08-23.68-32.556-1.133-4.133.442-5.256,1.3-6.73C1505.17643,124.44917,1502.98744,126.20518,1503.01344,125.91917Z" transform="translate(-0.05319 0.48936)"/><path id="パス_250" data-name="パス 250" class="cls-11" d="M1513.23246,191.04317c.763,8.172.06,14.714-.856,18.142-2.06,7.721-7.2,16.868-9.614,28.187,10.44-.163,29.156-11.647,29.161-11.733.46-11.3,3.247-34.482-2.786-54.322-3.854,4.107-7.991,5.9-11.261,7.682C1510.69545,182.91517,1512.54847,183.69417,1513.23246,191.04317Z" transform="translate(-0.05319 0.48936)"/></g><path id="パス_251" data-name="パス 251" class="cls-11" d="M1539.16045,165.42918c-1.649.726-3.047,1.347-4.721,2.012.326,7.119.621,13.728,1.53,20.1,2.056,14.344,2.667,19.645,2.472,34.45a32.24145,32.24145,0,0,0,5.647-5.007c-.293-17.163-3.679-22.477-5.6-32.28C1537.56445,179.97118,1539.19341,174.74818,1539.16045,165.42918Z" transform="translate(-0.05319 0.48936)"/><path id="パス_252" data-name="パス 252" class="cls-15" d="M1498.69848,111.97718c-1.174-15.4,4.721-42.038,27.286-34.887,6.877,2.177,11.384,7.409,13.017,16.7,3.626,20.631-10.53,33.622-13.677,37.6C1518.58047,130.27517,1499.51046,122.64917,1498.69848,111.97718Z" transform="translate(-0.05319 0.48936)"/><g id="グループ_120" data-name="グループ 120"><path id="パス_253" data-name="パス 253" class="cls-10" d="M1505.10347,127.11018c-.63,4.53,9.377,6.612,15.535,5.8a4.47774,4.47774,0,0,0,1.716-.556,2.29984,2.29984,0,0,0,.7-.6,14.44986,14.44986,0,0,0,.9-4,32.49975,32.49975,0,0,1,3.767-12.435l-16.1901-6.382-4.1-1.788C1509.52446,115.71018,1508.04545,119.75918,1505.10347,127.11018Z" transform="translate(-0.05319 0.48936)"/><path id="パス_254" data-name="パス 254" class="cls-7" d="M1504.96647,125.87318a1.19339,1.19339,0,0,0-.021.3c5.851-5.216,13.826-1.649,19.556-2.084.179-.412,1.526-6.791,1.684-6.956.507-1.433.719-1.2,1.393-3.042l-16.184-6.384-4.1-1.791C1509.38746,114.47318,1507.90846,118.52618,1504.96647,125.87318Z" transform="translate(-0.05319 0.48936)"/></g><g id="グループ_122" data-name="グループ 122"><path id="パス_255" data-name="パス 255" class="cls-15" d="M1530.4395,106.48218l-6.94-4.379,2.861-12.286,5.686-8.8C1541.37645,86.93918,1536.30949,105.63518,1530.4395,106.48218Z" transform="translate(-0.05319 0.48936)"/><path id="パス_256" data-name="パス 256" class="cls-9" d="M1522.86644,120.97018c-8.775-3.767-11.342-8.186-13.344-17.2-3.835-2.609-5.477-4.775-5.87-7.189-.937-5.721,2.189-11.986,6.5-15.47a15.224,15.224,0,0,1,13.133-3c9.679,1.881,13.244,8.1,13.949,16.414.135,1.6-.772,5.016-1.26,6.628-.816,2.7.463,1.965.333,4.73a46.91279,46.91279,0,0,1-2.642,10.179c-.986,2.7-1.146,5.477-2.537,5.907C1529.71342,122.39818,1526.87144,122.69118,1522.86644,120.97018Z" transform="translate(-0.05319 0.48936)"/><path id="パス_257" data-name="パス 257" class="cls-10" d="M1522.86644,120.97018c-8.8-3.772-11.342-8.186-13.344-17.2-3.835-2.609-5.477-4.775-5.87-7.189-.937-5.721,2.189-11.986,6.5-15.47a15.225,15.225,0,0,1,13.133-3c6.072,1.179,11.712,16.093,13.524,20.531-3.582-2.523-11.2-6.163-14.514-4.719-2.091.912-2.416,4.24-2.761,5.777-.723,3.23,3.042,3.5,3.088,5.035.047,1.572-4.228,5.165-3.451,9.426.216,1.193,2.914,5.637,4.244,7.044C1523.22746,121.13518,1523.05345,121.04918,1522.86644,120.97018Z" transform="translate(-0.05319 0.48936)"/><path id="パス_258" data-name="パス 258" class="cls-16" d="M1536.09047,86.51418c-2.116-.94-13.317-3.584-16.475,1.765-3.016,5.116-5.844,9.963-8.565,14.2-1.037,1.616-1.814,1.191-1.953,3.907-.154,3-4.428-6.251-5.391-9.149-2.64-7.94-.344-14.324,7.084-18.821C1520.12245,72.76318,1532.91548,78.05618,1536.09047,86.51418Z" transform="translate(-0.05319 0.48936)"/><g id="グループ_121" data-name="グループ 121"><path id="パス_259" data-name="パス 259" class="cls-10" d="M1508.85946,97.77517c-3.586-1.747-4.154,2.579-3.9,5.277.174,1.851,1.679,1.9,2.039,3.4a3.425,3.425,0,0,0,2.777,2.84c2.288.223,1.3-3.342,1.2-4.721C1511.51547,102.39417,1511.13845,98.88217,1508.85946,97.77517Z" transform="translate(-0.05319 0.48936)"/><path id="パス_260" data-name="パス 260" class="cls-7" d="M1509.84045,103.09818c-.579-1.877-.649-4.2-3.228-4.251C1508.81445,99.30717,1509.06045,101.38217,1509.84045,103.09818Z" transform="translate(-0.05319 0.48936)"/></g><path id="パス_261" data-name="パス 261" class="cls-16" d="M1538.22749,102.36818c-.058-2.465-2.523-5.447-3.3-6.065-3.84-3.058-10.984-4.875-16.1-7.886-4.777,3.149-6.775,8.412-10.633,5.809-8.089-5.456-6.091-15.751,8.533-18.926C1525.14149,74.51818,1543.46949,81.64218,1538.22749,102.36818Z" transform="translate(-0.05319 0.48936)"/><path id="パス_262" data-name="パス 262" class="cls-16" d="M1515.70543,134.65218c-29.891-7.058-25.528-65.325,6.286-58.906-1.277,3.081.684,7.675-1.551,10.954a56.47184,56.47184,0,0,0-8.581,23.496C1510.89146,117.79617,1511.37046,128.69617,1515.70543,134.65218Z" transform="translate(-0.05319 0.48936)"/><path id="パス_263" data-name="パス 263" class="cls-15" d="M1515.70546,134.65218c-23.261-5.493-25.775-41.989-10.756-54.89.549-.391,1.147-.809,1.8-1.265-3.279,3.651-4.346,5.512-6.244,11.33a22.9002,22.9002,0,0,1,5.263-7.544c-1.84,3.8-3.121,6.4-3.96,10.644a24.40534,24.40534,0,0,1,3.807-6.365,27.70005,27.70005,0,0,0-2.672,9.463,23.34492,23.34492,0,0,1,2.882-6.007,29.95692,29.95692,0,0,0-2.219,8.219,18.03209,18.03209,0,0,1,3.054-5.73,37.6003,37.6003,0,0,0-2.856,12.284c1.177-4.312,1.251-6.321,3.691-10.068-1.814,5.114-1.807,7.589-2.372,12.8a45.17361,45.17361,0,0,1,3.037-8.7c-1.091,4.688-2.377,9.379-3.068,14.191,1.535-4.788,3.333-9.091,5.089-13.317a105.05338,105.05338,0,0,0-2.912,16.286c.979-3.316,2.672-9.309,3.609-12.179a51.32226,51.32226,0,0,0-.9,12.844c1.788-12.668,3.249-16.652,5.5-20.386a58.129,58.129,0,0,0-3.623,13.933C1510.89143,117.80017,1511.37043,128.69118,1515.70546,134.65218Z" transform="translate(-0.05319 0.48936)"/><path id="パス_264" data-name="パス 264" class="cls-15" d="M1515.50843,83.78117c3.677,9.821,21.568,8.154,22.715,18.91C1539.40443,89.58318,1524.34547,89.74617,1515.50843,83.78117Z" transform="translate(-0.05319 0.48936)"/><path id="パス_265" data-name="パス 265" class="cls-17" d="M1514.70146,75.80918c.644-.186,1.321-.356,2.026-.509,8.04-.747,25.126,5.723,22.061,24.38-.7-11-20.075-13.777-25.224-18.449a116.17135,116.17135,0,0,1,16.47705,5.859c-6.188-4.591-13.975-6.94-18.489-8.654a48.69961,48.69961,0,0,1,15.17,4.509c-5.263-3.368-8.61-4.454-14.559-5.984,4.928-.079,8.44,1.207,12.886,2.458A28.17014,28.17014,0,0,0,1514.70146,75.80918Z" transform="translate(-0.05319 0.48936)"/></g><path id="パス_266" data-name="パス 266" class="cls-8" d="M1484.82647,143.24917c-3.661,10.554-1.154,26.726-.947,41.966.109,8.082,10.928,7.73,12.289.06,1.749-9.212,2.109-20.41,2.463-29.5.323-8.3.1-17.075-5.691-18.324C1488.72448,136.54017,1486.19848,139.28218,1484.82647,143.24917Z" transform="translate(-0.05319 0.48936)"/><path id="パス_267" data-name="パス 267" class="cls-6" d="M1484.82647,143.25017c-3.661,10.554-1.154,26.726-.947,41.966.086,6.226,6.523,7.447,10.1,4.172l-.044-.037c-5.284-4.53-3.356-2.491-3.358-8.212-.007-15.44-.356-28.215,1.993-43.754C1488.57348,136.70617,1486.15948,139.40117,1484.82647,143.25017Z" transform="translate(-0.05319 0.48936)"/><path id="パス_268" data-name="パス 268" class="cls-6" d="M1521.39947,202.73018c-3.014-1.312-6.9,7.816-3.979,8.775C1520.38744,212.47918,1524.29745,203.99318,1521.39947,202.73018Z" transform="translate(-0.05319 0.48936)"/><path id="パス_269" data-name="パス 269" class="cls-9" d="M1517.28045,201.22518a9.571,9.571,0,0,0,4.109,1.733c1.007.158,2.486.379,3.5.628,1.672.414,3.816,1.774,6.742,2.9-1.372,2.849-4.714.551-6.223.433a27.38711,27.38711,0,0,1-4.068-.267C1519.38946,206.17618,1516.89144,203.40118,1517.28045,201.22518Z" transform="translate(-0.05319 0.48936)"/><path id="パス_270" data-name="パス 270" class="cls-7" d="M1564.29345,184.62018a19.89006,19.89006,0,0,0,3.563.812c-.509,2.481-2.926,2.044-4.914,1.654Z" transform="translate(-0.05319 0.48936)"/><path id="パス_271" data-name="パス 271" class="cls-18" d="M1522.52746,214.28618c-.1.309-.7,1.693,1.484.912l26.3-15.658,4.126-3.686,28.689-25.257c1.884-1.658,2.544-3.4-1.293-1.1l-25.363,14.812a10.82124,10.82124,0,0,0-2.67,1.821Z" transform="translate(-0.05319 0.48936)"/><path id="パス_272" data-name="パス 272" class="cls-7" d="M1562.44445,186.52217c1.777,1.06,1.854.223,1.488,1.493-.535,1.858-4.728,5.963-6.765,6.749-.014.007-1.056.256-1.556-.356-.421-.516.142-.726.916-1.842l3.433-4.961C1561.02349,186.16218,1561.35149,185.86917,1562.44445,186.52217Z" transform="translate(-0.05319 0.48936)"/><path id="パス_273" data-name="パス 273" class="cls-9" d="M1515.75045,199.63218a18.03133,18.03133,0,0,0,4.354,3.572,15.02076,15.02076,0,0,0,2.751,1.272c2.979,1.012,4.356,4.168,6.2,3.984s6.8-3.181,6.609-2.242a16.93772,16.93772,0,0,1-1.97,3.761,14.80007,14.80007,0,0,1-4.147,3.53,20.40013,20.40013,0,0,1-4.8,2.219,2.669,2.669,0,0,1-2.342-.288,24.23269,24.23269,0,0,1-4.1-3.654c-2.637-3.154-3.2-3.791-5.872-5.379Z" transform="translate(-0.05319 0.48936)"/><path id="パス_274" data-name="パス 274" class="cls-10" d="M1515.75045,199.63218l.072.086-.423,1.321c.821.33,4.612,4.107,5.214,4.681,3.019,2.874,4.4,5.7,6.94,4.721a63.15184,63.15184,0,0,0,7.7-3.193,18.77729,18.77729,0,0,1-1.563,2.73,14.79993,14.79993,0,0,1-4.147,3.53,20.39991,20.39991,0,0,1-4.8,2.219,2.669,2.669,0,0,1-2.342-.288,24.23224,24.23224,0,0,1-4.1-3.654c-2.637-3.154-3.2-3.791-5.872-5.379Z" transform="translate(-0.05319 0.48936)"/><path id="パス_275" data-name="パス 275" class="cls-8" d="M1487.94146,192.30117c6.765,5.863,14.638,12.607,29.384,19.224-2.226-1.312.633-9.277,4.093-8.789-6.935-5.077-18-15.868-26.863-20.519-5.1-2.074-9.326-.363-10.326,2.377C1483.51345,186.56618,1483.95947,188.85517,1487.94146,192.30117Z" transform="translate(-0.05319 0.48936)"/><path id="パス_276" data-name="パス 276" class="cls-6" d="M1487.94146,192.30217c6.768,5.863,14.638,12.607,29.384,19.224-1.13-.665-.949-3.047-.044-5.165a220.962,220.962,0,0,1-23.347-17.018c-5.228-4.486-3.4-2.533-3.36-8.037-3.209-.14-5.621,1.3-6.344,3.286S1483.95947,188.85517,1487.94146,192.30217Z" transform="translate(-0.05319 0.48936)"/></g></g><g id="グループ_127" data-name="グループ 127"><g id="グループ_125" data-name="グループ 125"><path id="パス_277" data-name="パス 277" class="cls-19" d="M1562.91351,95.01244a6.203,6.203,0,1,1-12.406,0h0a6.203,6.203,0,1,1,12.406,0m57.90906-39.29395a14.477,14.477,0,0,0-14.481-14.4729h0a14.42879,14.42879,0,0,0-6.678,1.62891,23.647,23.647,0,0,0-41.63,6.97412,12.392,12.392,0,0,0,.79,24.30005,15.47693,15.47693,0,0,0,26.83606,9.669,15.50006,15.50006,0,0,0,26.89-10.52491,15.26753,15.26753,0,0,0-.6-4.22607,14.48493,14.48493,0,0,0,8.871-13.3479" transform="translate(-0.05319 0.48936)"/></g><g id="グループ_126" data-name="グループ 126"><path id="パス_279" data-name="パス 279" class="cls-4" d="M1569.31008,67.13863a11.86605,11.86605,0,0,0,16.15232,7.16775,11.664,11.664,0,0,0,6.29784-5.98668,9.75182,9.75182,0,0,0-4.95582-12.84545,8.375,8.375,0,0,0-11.05454,4.25184l-.005.01129a7.24232,7.24232,0,0,0,3.67515,9.5601l.01914.00848a5.1861,5.1861,0,0,0,5.06306-.54991,5.32317,5.32317,0,0,0,2.346-4.69363c-.04087-.84953-.21934-1.75746-1.07321-1.70769s-.9136.9329-1.27823,2.2058a2.68657,2.68657,0,0,1-3.80691,1.91621A3.96835,3.96835,0,0,1,1578.492,64.165a4.15647,4.15647,0,0,1,.08086-3.17432,5.23211,5.23211,0,0,1,2.9291-2.79587,5.30312,5.30312,0,0,1,4.05038.09858,6.651,6.651,0,0,1,3.37894,8.76707,8.26293,8.26293,0,0,1-10.89637,4.22148l-.01717-.0076a10.21809,10.21809,0,0,1-5.19316-13.47275,12.53145,12.53145,0,0,1,16.52816-6.3949l.01963.00869c7.72711,3.42476,11.56592,10.07437,9.65763,18.97117-.29367,1.3437-.95,2.61765-.23471,3.07494.355.21633.8635.21467,1.21352-.56318a18.453,18.453,0,0,0-9.3835-24.31185,14.84484,14.84484,0,0,0-11.96662-.29159c-11.93447,5.23456-11.102,14.54792-9.34859,18.84379" transform="translate(-0.05319 0.48936)"/></g></g></g></g></svg>